<?xml version="1.0" encoding="UTF-8"?>
<svg xmlns="http://www.w3.org/2000/svg" viewBox="0 0 500 372.06">
  <defs>
    <style>
      .cls-1 {
        fill: #407bff;
      }

      .cls-1, .cls-2, .cls-3, .cls-4, .cls-5, .cls-6, .cls-7, .cls-8, .cls-9, .cls-10, .cls-11, .cls-12, .cls-13, .cls-14, .cls-15, .cls-16, .cls-17, .cls-18, .cls-19 {
        stroke-width: 0px;
      }

      .cls-2 {
        isolation: isolate;
        opacity: .2;
      }

      .cls-20, .cls-7 {
        opacity: .5;
      }

      .cls-21 {
        letter-spacing: -.01em;
      }

      .cls-3 {
        opacity: .4;
      }

      .cls-22, .cls-12 {
        opacity: .6;
      }

      .cls-23 {
        letter-spacing: 0em;
      }

      .cls-4, .cls-24 {
        fill: #e6e6e6;
      }

      .cls-25 {
        letter-spacing: -.07em;
      }

      .cls-5, .cls-26 {
        opacity: .3;
      }

      .cls-6 {
        fill: #e0e0e0;
      }

      .cls-7, .cls-11, .cls-27, .cls-12, .cls-15 {
        fill: #fff;
      }

      .cls-28 {
        letter-spacing: -.03em;
      }

      .cls-8 {
        fill: #f5f5f5;
      }

      .cls-29 {
        letter-spacing: .05em;
      }

      .cls-9 {
        fill: #f0f0f0;
      }

      .cls-10, .cls-30 {
        fill: none;
      }

      .cls-30 {
        stroke: #407bff;
        stroke-linecap: round;
        stroke-linejoin: round;
        stroke-width: 3px;
      }

      .cls-27 {
        font-family: Montserrat-SemiBoldItalic, Montserrat;
        font-size: 12px;
        font-style: italic;
        font-weight: 600;
      }

      .cls-13 {
        fill: #fafafa;
      }

      .cls-14 {
        fill: #263238;
      }

      .cls-31, .cls-18 {
        opacity: .1;
      }

      .cls-15 {
        opacity: .7;
      }

      .cls-16 {
        fill: #ebebeb;
      }

      .cls-32 {
        letter-spacing: -.03em;
      }

      .cls-17 {
        fill: #e83f3f;
      }

      .cls-24 {
        stroke: #fafafa;
        stroke-miterlimit: 10;
      }

      .cls-19 {
        fill: #b55b52;
      }
    </style>
  </defs>
  <g id="Background_Complete" data-name="Background Complete">
    <rect class="cls-16" x="416.78" y="343.54" width="33.12" height=".25"/>
    <rect class="cls-16" x="322.53" y="346.26" width="8.69" height=".25"/>
    <rect class="cls-16" x="396.59" y="334.26" width="19.19" height=".25"/>
    <rect class="cls-16" x="52.46" y="335.94" width="43.19" height=".25"/>
    <rect class="cls-16" x="104.56" y="335.94" width="6.33" height=".25"/>
    <rect class="cls-16" x="131.47" y="340.16" width="93.68" height=".25"/>
    <path class="cls-16" d="m237.01,282.85H43.91c-3.15,0-5.71-2.56-5.71-5.71V5.71c0-3.15,2.56-5.71,5.71-5.71h193.1c3.15,0,5.71,2.56,5.71,5.71v271.43c0,3.15-2.56,5.71-5.71,5.71ZM43.91.25c-3.01,0-5.46,2.45-5.46,5.46v271.43c0,3.01,2.45,5.46,5.46,5.46h193.1c3.01,0,5.46-2.45,5.46-5.46V5.71c0-3.01-2.45-5.46-5.46-5.46H43.91Z"/>
    <path class="cls-16" d="m453.31,282.85h-193.1c-3.15,0-5.71-2.56-5.71-5.71V5.71c0-3.15,2.56-5.71,5.71-5.71h193.1c3.15,0,5.71,2.56,5.71,5.71v271.43c0,3.15-2.56,5.71-5.71,5.71ZM260.21.25c-3.01,0-5.46,2.45-5.46,5.46v271.43c0,3.01,2.45,5.46,5.46,5.46h193.1c3.01,0,5.46-2.45,5.46-5.46V5.71c0-3.01-2.45-5.46-5.46-5.46h-193.1Z"/>
    <rect class="cls-16" y="327.45" width="500" height=".25"/>
    <g>
      <g>
        <rect class="cls-9" x="54.55" y="171.01" width="93.08" height="157.55"/>
        <rect class="cls-4" x="54.55" y="171.01" width="97.3" height="11.75"/>
      </g>
      <g>
        <g id="coffee_machine" data-name="coffee machine">
          <g>
            <g>
              <polygon class="cls-16" points="119.74 162.9 86.19 162.9 80.91 130.5 125.02 130.5 119.74 162.9"/>
              <polygon class="cls-6" points="124.89 131.47 113.23 131.5 111.23 162.85 119.74 162.89 124.89 131.47"/>
              <rect class="cls-16" x="71.01" y="106.28" width="64.51" height="25.2" rx="8.67" ry="8.67"/>
              <path class="cls-6" d="m135.7,116.35v5.04c0,5.57-4.49,10.03-11.06,10.03h-12.55c6.58,0,10-4.46,10-10.03v-5.04c0-5.57-4.43-10.13-10-10.13h13.56c5.57,0,10.05,4.57,10.05,10.13Z"/>
            </g>
            <g>
              <rect class="cls-6" x="96.89" y="139.74" width="12.1" height="6.93"/>
              <rect class="cls-8" x="96.89" y="139.74" width="7.06" height="6.93"/>
              <path class="cls-6" d="m135.22,167.09c0,1.15-.47,2.18-1.22,2.94-.75.75-1.79,1.21-2.94,1.21h-56.2c-2.3,0-4.16-1.85-4.16-4.15,0-1.15.46-2.19,1.22-2.95.75-.75,1.79-1.22,2.94-1.22h56.2c2.3,0,4.16,1.87,4.16,4.17Z"/>
              <path class="cls-16" d="m113.33,167.09c0,1.15-.47,2.18-1.22,2.94-.75.75-1.79,1.21-2.94,1.21h-34.3c-2.3,0-4.16-1.85-4.16-4.15,0-1.15.46-2.19,1.22-2.95.75-.75,1.79-1.22,2.94-1.22h34.3c2.3,0,4.16,1.87,4.16,4.17Z"/>
              <path class="cls-6" d="m109.27,118.93c0,3.48-2.82,6.3-6.3,6.3-.61,0-1.2-.09-1.76-.25-2.62-.76-4.54-3.18-4.54-6.05s1.92-5.29,4.54-6.05c.56-.16,1.15-.25,1.76-.25,3.48,0,6.3,2.82,6.3,6.3Z"/>
              <path class="cls-13" d="m105.74,118.93c0,2.87-1.92,5.29-4.54,6.05-2.62-.76-4.54-3.18-4.54-6.05s1.92-5.29,4.54-6.05c2.62.76,4.54,3.18,4.54,6.05Z"/>
              <rect class="cls-6" x="92.74" y="131.55" width="20.16" height="8.06"/>
              <rect class="cls-8" x="92.74" y="131.55" width="13.99" height="8.06"/>
              <circle class="cls-6" cx="116.58" cy="118.9" r="2.65"/>
              <circle class="cls-6" cx="125.65" cy="118.9" r="2.65"/>
              <circle class="cls-6" cx="80.92" cy="118.9" r="2.65"/>
              <rect class="cls-13" x="109.08" y="142.12" width="10.08" height="3.15"/>
            </g>
          </g>
        </g>
        <g>
          <path class="cls-6" d="m112.92,132.45h-20.1c-.52,0-.94-.42-.94-.94s.42-.95.94-.95h20.1c.52,0,.94.42.94.95s-.42.94-.94.94Z"/>
          <path class="cls-13" d="m116.58,122.49c-1.98,0-3.59-1.61-3.59-3.59s1.61-3.59,3.59-3.59,3.59,1.61,3.59,3.59-1.61,3.59-3.59,3.59Zm0-5.29c-.94,0-1.7.76-1.7,1.7s.76,1.7,1.7,1.7,1.7-.76,1.7-1.7-.76-1.7-1.7-1.7Z"/>
          <path class="cls-13" d="m125.65,122.49c-1.98,0-3.59-1.61-3.59-3.59s1.61-3.59,3.59-3.59,3.59,1.61,3.59,3.59-1.61,3.59-3.59,3.59Zm0-5.29c-.94,0-1.7.76-1.7,1.7s.76,1.7,1.7,1.7,1.7-.76,1.7-1.7-.76-1.7-1.7-1.7Z"/>
          <path class="cls-13" d="m80.92,122.49c-1.98,0-3.59-1.61-3.59-3.59s1.61-3.59,3.59-3.59,3.59,1.61,3.59,3.59-1.61,3.59-3.59,3.59Zm0-5.29c-.94,0-1.7.76-1.7,1.7s.76,1.7,1.7,1.7,1.7-.76,1.7-1.7-.76-1.7-1.7-1.7Z"/>
          <path class="cls-4" d="m102.88,116.89c-.52,0-.94-.42-.94-.95v-3.15c0-.52.42-.94.94-.94s.95.42.95.94v3.15c0,.52-.42.95-.95.95Z"/>
        </g>
      </g>
      <path class="cls-24" d="m138.6,322.26H61.08v-131.81h77.51v131.81Zm-76.51-1h75.51v-129.81H62.08v129.81Z"/>
      <rect class="cls-6" x="66.22" y="240.62" width="5.99" height="18.33"/>
    </g>
    <g>
      <g>
        <g>
          <g>
            <path class="cls-6" d="m421.16,300.19l-.82.1c-.05-.42-5.01-41.89,5.22-75.79,10.16-33.69,3.16-55.15,3.09-55.37l.78-.26c.07.22,7.15,21.93-3.08,55.87-10.17,33.73-5.24,75.03-5.19,75.45Z"/>
            <path class="cls-6" d="m430.1,173.76c-1.76-2.11-4.21-3.62-6.89-4.25l.19-.8c2.85.67,5.45,2.27,7.33,4.52l-.63.53Z"/>
            <rect class="cls-6" x="431.28" y="177.81" width="2.7" height=".82" transform="translate(-31.71 235.84) rotate(-29.46)"/>
            <path class="cls-6" d="m429.22,196.31c-2.02-4.64-5.88-8.39-10.58-10.27l.31-.76c4.9,1.96,8.92,5.87,11.03,10.7l-.75.33Z"/>
            <path class="cls-6" d="m427.01,222.22h-.82c-.04-3.34-1.63-6.57-4.26-8.65l.51-.65c2.82,2.23,4.53,5.7,4.57,9.3Z"/>
            <path class="cls-6" d="m425.18,228.85l-.77-.3c.83-2.1,2.58-3.82,4.68-4.62l.29.77c-1.89.72-3.47,2.27-4.21,4.15Z"/>
            <path class="cls-6" d="m419.84,270.89l-.63-.53c1-1.21,1.76-5.81,2.17-8.28.1-.59.18-1.09.25-1.46l.81.15c-.07.36-.15.86-.25,1.44-.61,3.69-1.29,7.39-2.34,8.67Z"/>
            <path class="cls-6" d="m419.37,284.09c-1.06-3.25-4.44-5.58-7.86-5.42l-.04-.82c3.77-.18,7.5,2.4,8.68,5.99l-.78.26Z"/>
            <rect class="cls-6" x="418.72" y="295.79" width="8.71" height=".82" transform="translate(-79.69 414.35) rotate(-48.22)"/>
          </g>
          <g>
            <path class="cls-9" d="m429.76,250.37c1.31,4.25-7.85,12.35-7.85,12.35,0,0-12.14-1.52-13.45-5.77-1.31-4.25,1.76-11.22,7.64-13.03,5.88-1.82,12.35,2.2,13.66,6.45Z"/>
            <path class="cls-16" d="m439.93,198.74c-1.16,4.52-9.85,7.73-9.85,7.73,0,0-6.05-7-4.89-11.52,1.16-4.52,5.96-9.5,10.03-8.45,4.07,1.05,5.87,7.73,4.7,12.24Z"/>
            <path class="cls-8" d="m405.09,266.26c5.45,2.12,8.79,11.77,8.79,11.77,0,0-8.98,4.84-14.43,2.72-5.45-2.12-11.22-8.1-9.66-12.1,1.56-4,9.85-4.5,15.31-2.38Z"/>
            <path class="cls-4" d="m417.04,213.21c1.15.86,2.34,1.73,3.73,2.1,1.38.38,3.03.15,3.97-.94,1.17-1.34.85-3.42.12-5.04-1.46-3.21-6.83-8.66-10.96-7.09-5.96,2.26.48,9,3.14,10.97Z"/>
            <path class="cls-16" d="m429.24,221.39c-.78.97-1.61,2.19-1.18,3.36.38,1.04,1.65,1.51,2.74,1.35,1.09-.17,2.04-.81,2.95-1.44,2.1-1.46,6.41-4.52,3.66-7.39-2.86-2.98-6.52,2.09-8.17,4.13Z"/>
            <path class="cls-6" d="m411.64,180.61c-.9.1-1.81.7-1.96,1.59-.18,1.04.69,1.96,1.52,2.6,2.09,1.61,8.36,5.95,9.77,1.76,1.32-3.96-6.55-6.26-9.32-5.96Z"/>
            <path class="cls-4" d="m423.21,166.83c-1.3.12-2.59-.35-3.88-.26-1.3.08-2.74,1.13-2.45,2.39.27,1.17,1.72,1.56,2.92,1.64,2.05.13,4.11-.01,6.12-.42.47-.09.97-.23,1.24-.63.52-.77-.31-1.81-1.2-2.08-.89-.27-1.9-.18-2.71-.65h-.04Z"/>
            <path class="cls-9" d="m435.87,175.74c1.3.04,2.56-.52,3.86-.52,1.3,0,2.81.94,2.6,2.23-.19,1.19-1.62,1.67-2.81,1.83-2.03.26-4.1.26-6.14-.02-.47-.06-.99-.17-1.28-.54-.57-.74.19-1.83,1.06-2.16.87-.33,1.89-.31,2.66-.82h.04Z"/>
            <path class="cls-9" d="m434.59,271.54c.32-.27.68-.55,1.1-.55.56,0,1,.53,1.1,1.08.1.55-.05,1.11-.21,1.64-.88,2.95-10.78,24.3-13.05,20.47-1.35-2.27,1.96-9.78,2.94-11.9,1.89-4.11,4.66-7.82,8.12-10.74Z"/>
          </g>
        </g>
        <path class="cls-4" d="m428.67,167.64c.79-1.76,1.64-3.61,3.2-4.74,1.56-1.13,4.06-1.22,5.2.34,1.27,1.74,0,4.39-1.95,5.32-1.95.93-4.23.65-6.36.35-.02-.32-.03-.63-.05-.95l-.03-.32Z"/>
      </g>
      <path class="cls-4" d="m435.48,328.45h0c-10.41,2.1-21.4,2.1-31.82,0h0l-8.3-36.52h48.42l-8.3,36.52Z"/>
    </g>
    <g>
      <circle class="cls-9" cx="339.95" cy="76.12" r="64.97" transform="translate(210.36 399.49) rotate(-80.78)"/>
      <g>
        <path class="cls-11" d="m340.13,142.53c-36.63,0-66.43-29.8-66.43-66.43s29.8-66.43,66.43-66.43v2.92c-35.02,0-63.5,28.49-63.5,63.51s28.49,63.5,63.5,63.5v2.92Z"/>
        <g>
          <path class="cls-11" d="m340.13,142.53v-2.92c35.02,0,63.5-28.49,63.5-63.5s-28.49-63.51-63.5-63.51v-2.92c36.63,0,66.43,29.8,66.43,66.43s-29.8,66.43-66.43,66.43Z"/>
          <g>
            <path class="cls-11" d="m374.08,76.12h-2.92c0-21.53-10.93-50.34-31.81-63.74l1.58-2.46c21.77,13.97,33.16,43.87,33.16,66.2Z"/>
            <path class="cls-11" d="m340.92,140.33l-1.58-2.46c20.88-13.4,31.81-42.2,31.81-63.73h2.92c0,22.32-11.39,52.23-33.16,66.2Z"/>
          </g>
          <g>
            <path class="cls-11" d="m309.12,76.11h-2.92c0-22.32,11.39-52.23,33.15-66.2l1.58,2.46c-20.88,13.4-31.81,42.21-31.81,63.74Z"/>
            <path class="cls-11" d="m339.34,140.32c-21.76-13.97-33.15-43.87-33.15-66.2h2.92c0,21.53,10.93,50.34,31.81,63.73l-1.58,2.46Z"/>
          </g>
          <rect class="cls-11" x="338.67" y="11.14" width="2.92" height="129.93"/>
        </g>
        <g>
          <rect class="cls-11" x="285.15" y="40.04" width="109.98" height="2.92"/>
          <rect class="cls-11" x="275.2" y="75.75" width="129.87" height="2.92"/>
          <rect class="cls-11" x="286.6" y="111.43" width="107.07" height="2.92"/>
        </g>
      </g>
    </g>
  </g>
  <g id="Shadow">
    <ellipse id="_Path_" data-name="&amp;lt;Path&amp;gt;" class="cls-8" cx="250" cy="360.74" rx="193.89" ry="11.32"/>
  </g>
  <g id="Character">
    <g>
      <g>
        <g>
          <path class="cls-14" d="m231.25,359.78c0,2.71,2.2,4.91,4.91,4.91,2.71,0,4.91-2.2,4.91-4.91s-2.2-4.91-4.91-4.91-4.91,2.2-4.91,4.91h0Z"/>
          <path class="cls-14" d="m159.14,359.78c0,2.71-2.2,4.91-4.91,4.91-2.71,0-4.91-2.2-4.91-4.91,0-2.71,2.2-4.91,4.91-4.91s4.91,2.2,4.91,4.91h0Z"/>
          <path class="cls-14" d="m201.67,358.22c0,2.71-2.2,4.91-4.91,4.91s-4.91-2.2-4.91-4.91c0-2.71,2.2-4.91,4.91-4.91s4.91,2.2,4.91,4.91h0Z"/>
        </g>
        <path class="cls-14" d="m143.54,353.19c.23,1.14,1.25,1.95,2.42,1.92l51.2-.7,47.94,1.08c1.16.03,2.19-.78,2.41-1.92.26-1.3-.59-2.54-1.88-2.8l-26.18-5.08c-2.72-.51-5.47-.77-8.24-.77h-28.14c-2.76,0-5.51.26-8.23.77l-29.42,4.71c-1.29.25-2.14,1.49-1.89,2.79Z"/>
        <g>
          <rect class="cls-14" x="188.45" y="302.21" width="17.41" height="50.13"/>
          <rect class="cls-14" x="190.95" y="270.44" width="12.41" height="32.01"/>
          <polygon class="cls-2" points="203.36 276.38 190.95 279.51 190.95 270.44 203.36 270.44 203.36 276.38"/>
        </g>
        <g>
          <path class="cls-14" d="m142.75,270.32v.12h1.69c-.58,0-1.13-.04-1.69-.12Z"/>
          <path class="cls-1" d="m274.35,258.17c-3.8-6.42-10.69-10.36-18.16-10.36h-44.89v-103.72c0-.08,0-.16,0-.24l.21.04-1.88-12.59c-.63-4.3-3.14-8.1-6.85-10.38l-14.47-8.91-7.59-22.12c-.95-2.75-3.54-4.61-6.46-4.61h-18.12c-3.26,0-6.07,2.32-6.7,5.51l-4.04,20.56-7.87,8.22c-2.42,2.52-3.86,5.82-4.07,9.3l-.74,12.34.13-.04c-.09.67-.13,1.34-.13,2.01v115.53c0,5.89,4.34,10.78,10.01,11.6h0c.56.08,1.11.12,1.69.12h122.93c4.48.01,8.12-3.62,8.13-8.1,0-1.48-.4-2.89-1.15-4.16Zm-125.83-127.22c-.09.7-.18,1.4-.27,2.08l-2.2.56h-.01l-6.04,1.55.42-6.24.13-1.8,8.35-7.56.37,2.66.17,1.28s-.44,3.62-.93,7.47Zm31.06,2.03l-.83-9.89.71-1.74.14-.32.76-1.89,3.91,1.89,6.35,5.41,1.41,7.69-12.45-1.15Z"/>
          <path class="cls-5" d="m274.35,258.17c-3.8-6.42-10.69-10.36-18.16-10.36h-44.89v-103.72c0-.08,0-.16,0-.24l.21.04-1.88-12.59c-.63-4.3-3.14-8.1-6.85-10.38l-14.47-8.91-7.59-22.12c-.95-2.75-3.54-4.61-6.46-4.61h-18.12c-3.26,0-6.07,2.32-6.7,5.51l-4.04,20.56-7.87,8.22c-2.42,2.52-3.86,5.82-4.07,9.3l-.74,12.34.13-.04c-.09.67-.13,1.34-.13,2.01v115.53c0,5.89,4.34,10.78,10.01,11.6h0c.56.08,1.11.12,1.69.12h122.93c4.48.01,8.12-3.62,8.13-8.1,0-1.48-.4-2.89-1.15-4.16Zm-125.83-127.22c-.09.7-.18,1.4-.27,2.08l-2.2.56h-.01l-6.04,1.55.42-6.24.13-1.8,8.35-7.56.37,2.66.17,1.28s-.44,3.62-.93,7.47Zm31.06,2.03l-.83-9.89.71-1.74.14-.32.76-1.89,3.91,1.89,6.35,5.41,1.41,7.69-12.45-1.15Z"/>
        </g>
      </g>
      <g>
        <path class="cls-1" d="m199.46,229.06c13.55-5.73,44.01-1.95,58.18,2,2.95.9,6.1-.54,7.35-3.36h0c1.11-2.8-1.24-11.42-4.81-12.42-16.54-4.62-49.14-3.01-64.96,3.68-3.41,1.44-4.91,5.08-3.45,7.71h0c1.6,2.62,4.89,3.64,7.7,2.39Z"/>
        <g class="cls-26">
          <path class="cls-11" d="m199.46,229.06c13.55-5.73,44.01-1.95,58.18,2,2.95.9,6.1-.54,7.35-3.36h0c1.11-2.8-1.24-11.42-4.81-12.42-16.54-4.62-49.14-3.01-64.96,3.68-3.41,1.44-4.91,5.08-3.45,7.71h0c1.6,2.62,4.89,3.64,7.7,2.39Z"/>
        </g>
        <g>
          <rect class="cls-14" x="232.51" y="224.71" width="6.31" height="26.92"/>
          <rect class="cls-14" x="232.51" y="224.71" width="6.31" height="45.73"/>
        </g>
      </g>
      <g>
        <g>
          <g>
            <polygon class="cls-19" points="259.41 328.55 260.6 350.06 271.32 349.2 272.34 328.78 259.41 328.55"/>
            <g>
              <path class="cls-1" d="m273.19,348.86c-.1-.02-.18-.09-.21-.19-.02-.1.02-.21.11-.26.16-.1,3.68-2.34,5.44-1.95.33.07.62.26.8.54.25.31.28.73.07,1.07-.4.58-1.73.88-3.02.94-1.07.05-2.13,0-3.19-.14Zm.78-.37c1.95.15,4.57,0,5.01-.7.07-.09.12-.24-.07-.54-.11-.18-.29-.3-.5-.32-.16-.04-.31-.05-.47-.04-1.41.28-2.76.81-3.97,1.59Z"/>
              <path class="cls-1" d="m273.06,348.85c-.08-.05-.12-.13-.12-.22,0-.13.15-2.95,1.42-4.1.37-.34.85-.51,1.35-.49.68.04.91.37.95.65.28,1.16-2.11,3.53-3.33,4.14-.03.02-.07.02-.1.01-.05.02-.12.02-.17,0Zm2.51-4.33c-.31.01-.61.14-.84.35-.73.93-1.16,2.07-1.23,3.25,1.25-.82,2.8-2.66,2.71-3.37-.02-.06-.06-.24-.5-.26l-.14.02h0Z"/>
              <path class="cls-14" d="m272.06,347.46l-11.34.55c-.43.02-.78.33-.86.76l-1.61,9.33c-.15.83.4,1.62,1.23,1.76.11.02.21.03.32.02,4.09-.27,7.71-.67,12.8-.9,6.01-.29,4.52.5,11.58.27,4.26-.15,4.8-5.02,2.99-5.17-8.31-.64-9.29-3.09-12.61-5.9-.72-.53-1.61-.79-2.5-.71Z"/>
            </g>
            <polygon class="cls-18" points="260.24 342.33 271.64 341.56 272.34 327.58 259.41 327.35 260.24 342.33"/>
            <path class="cls-3" d="m256.04,247.88c.04.19.09.39.13.58-.32-3.25-.72-5.94-1.22-7.88-3.67-14.26-41.86-16.64-57.48-17.02l-18.78,2.06s-1.75,15.04,2.72,24.56c4.47,9.52,74.62-2.29,74.62-2.29Z"/>
          </g>
          <g>
            <polygon class="cls-19" points="233.82 333.68 234.79 355.55 245.39 355.16 246.64 332.01 233.82 333.68"/>
            <g>
              <path class="cls-1" d="m247.06,352.2c-.1-.01-.19-.09-.22-.18-.03-.1.01-.21.1-.27.15-.11,3.59-2.48,5.36-2.15.33.06.62.24.82.51.26.3.3.72.11,1.07-.38.59-1.69.94-2.98,1.05-1.06.09-2.13.08-3.2-.02Zm.77-.4c1.95.07,4.56-.17,4.98-.88.06-.09.11-.24-.09-.53-.12-.17-.3-.28-.51-.3-.16-.03-.32-.04-.47-.02-1.4.33-2.72.92-3.9,1.74Z"/>
              <path class="cls-1" d="m246.93,352.19c-.08-.04-.13-.12-.13-.21,0-.13.04-2.95,1.27-4.15.35-.35.83-.55,1.33-.54.68,0,.92.33.97.61.32,1.15-1.98,3.61-3.17,4.26-.03.02-.07.02-.1.02-.05.02-.11.02-.17,0Zm2.34-4.42c-.31.02-.6.16-.82.38-.7.96-1.08,2.11-1.1,3.3,1.22-.87,2.7-2.77,2.58-3.46-.02-.06-.07-.24-.51-.24l-.14.02h0Z"/>
              <path class="cls-14" d="m245.88,350.84l-11.31.97c-.43.04-.77.36-.83.79l-1.26,9.38c-.12.83.46,1.6,1.29,1.72.11.01.21.02.32.01,4.07-.42,7.68-.95,12.76-1.38,5.99-.51,4.53.34,11.59-.17,4.25-.31,4.61-5.2,2.79-5.28-8.33-.33-9.39-2.75-12.82-5.42-.74-.51-1.64-.72-2.53-.61Z"/>
            </g>
            <polygon class="cls-18" points="245.9 345.15 246.5 334.11 233.88 334.4 234.39 345.95 245.9 345.15"/>
            <path class="cls-1" d="m208.36,222.32s66.63-5.1,71.25,12.88c4.62,17.98-5.62,102.72-5.62,102.72l-16.47,1.39s-2.16-50.04-2.47-91.37c0,0-70.15,11.81-74.62,2.29-4.47-9.52-2.72-24.56-2.72-24.56l30.66-3.36Z"/>
            <path class="cls-14" d="m208.36,222.32s66.63-5.1,71.25,12.88c4.62,17.98-5.62,102.72-5.62,102.72l-16.47,1.39s-2.16-50.04-2.47-91.37c0,0-70.15,11.81-74.62,2.29-4.47-9.52-2.72-24.56-2.72-24.56l30.66-3.36Z"/>
            <path class="cls-18" d="m208.36,222.32s66.63-5.1,71.25,12.88c4.62,17.98-5.62,102.72-5.62,102.72l-16.47,1.39s-2.16-50.04-2.47-91.37c0,0-70.15,11.81-74.62,2.29-4.47-9.52-2.72-24.56-2.72-24.56l30.66-3.36Z"/>
            <path class="cls-14" d="m191.53,224.93s67.17-2.6,68.09,15.94c.72,14.49-11.52,100.56-11.52,100.56l-15.36,1.19s-2.81-51.72-.9-87.03c0,0-57.97,6.65-68.17-1.51-9.73-7.78-2.15-29.26-2.15-29.26l30,.11Z"/>
          </g>
        </g>
        <g id="_Group_" data-name="&amp;lt;Group&amp;gt;">
          <g>
            <g>
              <path class="cls-1" d="m218.24,180.14h0c8.33,7.28,17.91,13.02,28.26,16.93l1.67.63.87-4.54-20.31-20.61s-16.86-31.72-26.54-29.95c-11.49,2.1,16.05,37.54,16.05,37.54Z"/>
              <g class="cls-31">
                <path class="cls-11" d="m218.24,180.14h0c8.33,7.28,17.91,13.02,28.26,16.93l1.67.63.87-4.54-20.31-20.61s-16.86-31.72-26.54-29.95c-11.49,2.1,16.05,37.54,16.05,37.54Z"/>
              </g>
              <path class="cls-19" d="m248.17,197.69l.87-4.54,12.18-1.99s11.9,5.88,9.2,7.18h-13.16l-9.09-.66Z"/>
            </g>
            <path class="cls-1" d="m214,223.62h0c-9.78,2.6-19.96,3.62-30.1,3.02l-21.82-1.29c-.52-4.48-3.87-14.32-8.49-39.67-1.15-12.77-4.73-16.82-.6-36.12,0-.04-.02-.07-.02-.11-.64-3.27,1.68-6.41,5.17-7.02h.12c3.23-.55,7.28-1.13,11.26-1.43,7.6-.63,15.22-.86,22.84-.69,2.54.18,5.07.5,7.56.98,3.53.56,6.45,2.88,7.6,6.06,3.59,10.24,4.83,34.68,6.48,76.28Z"/>
          </g>
          <g>
            <g>
              <path class="cls-19" d="m184.39,146.71c-11.3.96-15.62-5.7-15.62-5.7,4.82-5.11,2.5-18.45.59-25.76l6.26,4.88,8.53,6.65c-.21,1.12-.35,2.26-.43,3.4-.06.83-.06,1.66.02,2.45v.03s0,.14,0,.14c.38,3.41,2.27,6.25,7.63,7.35,0,0,2.63,5.71-7,6.57Z"/>
              <path class="cls-14" d="m171.62,126.66c-1.48-1.75-3.38-3.13-5.5-3.99-1.78-.73-3.69-1.09-5.47-1.8-1.78-.71-3.51-1.87-4.27-3.64-.64-1.49-.48-3.3.42-4.65-1.4-.85-2.8-1.75-3.55-3.21-.74-1.46-.4-3.6,1.12-4.22-1.47-1.87-2.24-5-1.47-7.25.77-2.26,2.72-4.07,5.03-4.66,1.44-.37,2.81-1.39,3.33-2.77.52-1.39.54-2.94,1.16-4.28.66-1.43,2.01-2.52,3.55-2.87s3.23.05,4.44,1.06c.5-1.57,1.43-2.92,2.88-3.7s3.3-.85,4.74-.05c1.44.8,2.37,2.5,2.12,4.13.56-1.19,2.17-1.52,3.43-1.14,1.26.38,2.22,1.44,2.84,2.61.61,1.17.94,2.46,1.36,3.71.42,1.25.97,2.5,1.92,3.42,1.48,1.43,3.87,1.79,5.71.87.59.88.3,2.15-.35,2.99-.65.84-1.86,1.2-2.86.85.76,1.02.89,2.41.53,3.63-.36,1.22-1.31,2.25-2.5,2.7-3.41-.59-6.7,1.61-8.29,4.69s-2.07,6.6-3.28,9.85-3.63,7.05-7.03,7.74Z"/>
            </g>
            <path class="cls-2" d="m184.15,126.78c-.21,1.12-.35,2.26-.43,3.4-.06.83-.06,1.66.02,2.45v.03s0,.14,0,.14c-3.12-.56-7.31-3.7-7.87-6.87-.19-1.04-.26-2.09-.22-3.15l8.49,4.01Z"/>
          </g>
          <g>
            <path class="cls-11" d="m166.43,140.24l3.45-1.39c3.91,3.66,8.62,6.36,13.76,7.89-2.14,1.54-3.78,3.68-4.71,6.15-12.18-3.73-12.5-12.65-12.5-12.65Z"/>
            <path class="cls-11" d="m191.33,139.51l-3.27-.58s-1.11,6.81-4.42,7.86c5.91,2.09,6.96,4.94,6.96,4.94,8.32-2.97.74-12.21.74-12.21Z"/>
          </g>
          <g>
            <path class="cls-19" d="m162.59,104.1c-.05-7.27,5.81-13.2,13.08-13.25,10.61-.33,18.31,12.43,20.23,21.36.6,2.57.41,5.26-.55,7.71-2.62,6.68-10.15,9.98-16.84,7.37-6.84-2.58-9.25-7.91-14.13-16.64-1.16-1.99-1.78-4.25-1.79-6.55Z"/>
            <path class="cls-14" d="m159.65,103.66c-.04,2.67,1.1,5.33,3.05,7.15s4.68,2.78,7.34,2.56c1.03-.08,1.89-.33,2.69-1-1.54-.05-3.05-.99-4.08-2.14-1.03-1.15-1.58-2.73-1.47-4.27,1.33-.08,2.63-.72,3.35-1.84s.87-2.59.39-3.83c-.17-.01.49-3.45.96-4.81s1.29-2.64,2.51-3.38c1.22-.75,2.88-.86,4.06-.05.71.49,1.19,1.24,1.84,1.81s6.36-3.02-1.27-5.65c-4.45-1.53-9.64-.41-13.33,2.51s-5.97,8.23-6.03,12.93Z"/>
            <g>
              <path class="cls-14" d="m191.34,114.11s-2.73.16-9.86,2.45c1.51,2.13,3.62,3.56,7.28,2.39,1.88-.39,3.07-2.4,2.66-4.49-.02-.12-.05-.23-.08-.34Z"/>
              <path class="cls-17" d="m186.53,117.57c1.38-.54,2.89-.57,4.31-.1-.54.71-1.26,1.21-2.08,1.44-1.37.54-2.88.58-4.3.1.53-.72,1.25-1.22,2.07-1.44Z"/>
              <path class="cls-11" d="m191,114.15c.03.64-.27,1.24-.78,1.54-2.12.67-4.29,1.14-6.49,1.41-.7.14-1.42-.11-1.94-.67,3-1.02,6.08-1.79,9.2-2.28Z"/>
            </g>
            <path class="cls-2" d="m188.63,111.84c1.33-.23,2.5-1.03,3.19-2.19-2.39-1.26-4.6-2.84-6.56-4.69l3.37,6.88Z"/>
            <path class="cls-19" d="m165.04,112.91c2.3-.99,5.64,1.33,7.23,3.24,1.77,2.14,1.56,4.64-1.13,4.72-2.17-.04-4.25-.84-5.9-2.24-2.08-1.77-2.49-4.73-.2-5.72Z"/>
            <path class="cls-14" d="m179.68,106.25c.49-.21,1.21.28,1.52.95.31.67.2,1.43-.28,1.65-.48.22-1.1-.24-1.51-.94-.35-.73-.22-1.45.27-1.66Z"/>
            <path class="cls-14" d="m187.82,102.14c.49-.21,1.16.2,1.51.94.35.73.25,1.51-.24,1.72-.49.21-1.17-.22-1.52-.95-.34-.72-.24-1.5.25-1.7Z"/>
            <path class="cls-14" d="m185.15,99.64c.14.07.31.07.45,0,1.04-.67,2.33-.82,3.5-.42.23.11.51.01.62-.22,0,0,0-.01,0-.02.1-.24,0-.51-.24-.63h0c-1.45-.54-3.07-.37-4.37.46-.22.14-.29.43-.16.66.05.07.12.13.19.17Z"/>
            <path class="cls-14" d="m176.71,105.79c.16-.03.29-.14.35-.28.41-1.16,1.33-2.08,2.5-2.48.25-.05.41-.3.36-.55,0,0,0-.02,0-.02-.07-.25-.32-.4-.57-.35h0c-1.47.47-2.65,1.6-3.16,3.05-.09.25.03.52.28.62.08.02.17.03.26.01Z"/>
          </g>
          <path class="cls-1" d="m163.84,168.22l1.26-2.66c1.66-3.5,8.6-17.44,11.98-18.91l1.24-.79,4.72,7.18c-.81.69-9.69,23.63-11.81,28.44-.32.74-.62,1.48-.83,2.25-1.46,5.26-10.4,13.32-16.38-1.81-1.49-3.19-2.86-6.33-4.09-9.5-.63-1.65-1.2-3.2-1.77-4.84-.1-.29-.31-.88-.58-1.67-2.76-7.91-3.23-16.97,4.32-21.63l5.08-1.71,6.88,25.63Z"/>
          <g class="cls-31">
            <path class="cls-11" d="m163.84,168.22l1.26-2.66c1.66-3.5,8.6-17.44,11.98-18.91l1.24-.79,4.72,7.18c-.81.69-9.69,23.63-11.81,28.44-.32.74-.62,1.48-.83,2.25-1.46,5.26-10.4,13.32-16.38-1.81-1.49-3.19-2.86-6.33-4.09-9.5-.63-1.65-1.2-3.2-1.77-4.84-.1-.29-.31-.88-.58-1.67-2.76-7.91-3.23-16.97,4.32-21.63l5.08-1.71,6.88,25.63Z"/>
          </g>
          <g>
            <path class="cls-11" d="m190.64,140.7c.03.34.12.67.23,1,.16.48.34.94.58,1.39.34.58.75,1.09,1.24,1.55.02.01.31.26.33.29.29.28.62.51.95.73.64.44,1.34.79,2.1.97.16.04.25.12.33.26.09.19.2.36.31.53.09.16.17.3.24.46.1.23.24.41.46.55.4.25.85.38,1.3.47,1.2.25,2.41.34,3.63.27.63-.03,1.26-.06,1.88-.16.67-.1,1.34-.24,1.99-.43.52-.16,1.03-.33,1.48-.64.19-.13.36-.27.45-.48.05-.12.06-.23.12-.34.13-.32.27-.64.4-.96.2-.49.36-1,.52-1.5.16-.49.32-.99.42-1.49.1-.52.22-1.03.29-1.55.13-.88.24-1.76.33-2.66.04-.41.03-.9.05-1.32,0-.34,0-.68-.11-1.01-.07-.23-.19-.43-.36-.61-.47-.49-1.03-.82-1.65-1.07-.58-.24-1.19-.38-1.81-.48-.26-.04-.51-.11-.77-.14-4.47-.58-7.64.47-8.14.62-.53.16-1.04.33-1.55.57-.45.22-.84.48-1.22.8-.28.24-.53.5-.69.83-.06.13-.1.26-.13.4-.04.16-.04.17-.2.14-.9-.15-1.71.04-2.34.74-.24.27-.39.6-.5.94-.14.44-.22.88-.17,1.36Zm6.71-2.08c-.55-.1-1.08-.24-1.59-.45-.13-.05-.26-.09-.35-.19,0,0,.2-.47.68-.81.19-.13.39-.26.6-.36.36-.19.74-.34,1.14-.46.59-.19,1.23-.33,1.84-.44.61-.11,1.18-.17,1.8-.23.56-.05,1.01-.05,1.58-.05.67,0,1.45.05,2.12.14.72.1,1.42.23,2.1.48.55.21,1.14.49,1.52.95-.01.02-.03.02-.04.04-.05.04-.1.08-.15.12-.14.1-.29.18-.44.26-.57.3-1.19.51-1.81.67-.14.04-.29.08-.43.11-.08.02-.16.04-.24.05-.47.11-.94.18-1.41.25-.45.06-.92.12-1.38.14-.36.02-.72.06-1.07.08-.03,0-.05,0-.08,0,0,0-.02,0-.04,0h-.2c-.47.02-.95.01-1.42,0-.42,0-.84-.01-1.26-.05-.48-.04-.96-.14-1.44-.23Zm-4.52,1.64c.11-.44.37-.71.82-.81.04,0,.16-.02.3-.03.12.69.29,1.34.44,2,.19.87.46,1.71.73,2.55.08.24.31.91.54,1.18-.07-.06-.4-.31-.5-.38-.49-.39-.89-.87-1.26-1.38-.37-.51-.73-1.05-.95-1.66-.16-.47-.26-.96-.13-1.47Z"/>
            <path class="cls-15" d="m194.91,138.35c1.07.88,3.43,1.33,7.27,1.11,3.84-.22,6.13-.93,7.09-1.93.64-.66.31-1.58-.19-2.12-.29-.19-.6-.35-.92-.48-.58-.24-1.19-.38-1.81-.48-.26-.04-.51-.11-.77-.14-4.46-.57-7.64.47-8.14.62-.53.16-1.05.33-1.55.57-.27.13-.52.27-.76.44h0c-.77.64-1.01,1.76-.22,2.41Zm.48-.38s.2-.47.68-.81c.19-.14.39-.26.6-.37.37-.19.75-.34,1.14-.46.59-.18,1.22-.33,1.83-.44.61-.11,1.18-.17,1.8-.22.56-.05,1.01-.05,1.58-.05.67,0,1.46.05,2.12.14.71.1,1.42.23,2.09.49.55.21,1.13.49,1.52.95-.01.01-.03.02-.04.04-.05.05-.1.09-.16.12-.13.1-.28.18-.43.26-.57.3-1.19.51-1.81.67-.14.04-.29.07-.43.11-.08.02-.16.04-.24.05-.47.1-.93.18-1.4.25-.46.06-.92.12-1.38.14-.36.02-.72.06-1.08.07-.02,0-.05,0-.07,0-.01,0-.02,0-.04,0-.06,0-.11,0-.17,0-.01,0-.02,0-.04,0-.47,0-.95,0-1.42-.01-.42-.01-.84-.02-1.26-.06-.48-.04-.97-.14-1.45-.23-.55-.1-1.08-.23-1.59-.45-.12-.05-.26-.09-.35-.19Z"/>
            <g>
              <path class="cls-10" d="m195.41,137.97s.2-.47.68-.81c.19-.14.39-.26.6-.37.37-.19.75-.34,1.14-.46.59-.18,1.22-.33,1.83-.44.61-.11,1.18-.17,1.8-.22.56-.05,1.01-.05,1.58-.05.67,0,1.46.05,2.12.13.71.1,1.42.23,2.09.49.55.21,1.13.49,1.52.95-.01.01-.03.02-.04.04-.05.05-.1.09-.16.12-.13.1-.28.18-.43.26-.57.3-1.19.51-1.81.67-.14.04-.29.07-.43.11-.08.02-.16.04-.24.05-.47.1-.93.18-1.4.25-.46.06-.92.12-1.39.14-.36.02-.72.06-1.08.07-.02,0-.05,0-.07,0-.01,0-.02,0-.04,0-.06,0-.11,0-.17,0-.01,0-.02,0-.04,0-.47,0-.95,0-1.42-.01-.42-.01-.84-.02-1.26-.06-.48-.04-.97-.14-1.45-.23-.55-.1-1.08-.23-1.59-.45-.12-.05-.26-.09-.35-.19Z"/>
              <path class="cls-10" d="m195.41,137.97s.2-.47.68-.81c.19-.14.39-.26.6-.37.37-.19.75-.34,1.14-.46.59-.18,1.22-.33,1.83-.44.61-.11,1.18-.17,1.8-.22.56-.05,1.01-.05,1.58-.05.67,0,1.46.05,2.12.13.71.1,1.42.23,2.09.49.55.21,1.13.49,1.52.95-.01.01-.03.02-.04.04-.05.05-.1.09-.16.12-.13.1-.28.18-.43.26-.57.3-1.19.51-1.81.67-.14.04-.29.07-.43.11-.08.02-.16.04-.24.05-.47.1-.93.18-1.4.25-.46.06-.92.12-1.39.14-.36.02-.72.06-1.08.07-.02,0-.05,0-.07,0-.01,0-.02,0-.04,0-.06,0-.11,0-.17,0-.01,0-.02,0-.04,0-.47,0-.95,0-1.42-.01-.42-.01-.84-.02-1.26-.06-.48-.04-.97-.14-1.45-.23-.55-.1-1.08-.23-1.59-.45-.12-.05-.26-.09-.35-.19Z"/>
            </g>
            <path class="cls-14" d="m195.4,137.97c.1.1.23.14.35.19.51.22,1.04.35,1.59.45.48.09.96.19,1.44.23.42.04.84.04,1.26.05.47.02.95.02,1.42.02h.2s.03,0,.04-.01c.02,0,.05,0,.08,0,.36-.02.72-.06,1.07-.08.47-.02.93-.08,1.38-.14.47-.07.94-.14,1.41-.25.08-.01.16-.03.24-.05.14-.03.29-.07.43-.11.63-.16,1.24-.37,1.81-.67.15-.08.3-.16.44-.26.05-.03.1-.07.15-.12.01-.02.03-.02.04-.04-.39-.47-.97-.74-1.52-.95-.68-.25-1.38-.39-2.1-.48-.66-.09-1.44-.13-2.12-.14-.57,0-1.02,0-1.58.05-.62.05-1.19.11-1.8.23-.61.11-1.25.25-1.84.44-.39.12-.77.27-1.14.46-.21.1-.41.23-.6.36-.48.34-.68.81-.68.81Z"/>
            <path class="cls-5" d="m195.35,136.78c.14-.17.3-.32.42-.41.62-.49,2-1.24,4.79-1.68.95-.15,1.93-.2,2.89-.15,2.5.13,4.16.71,4.81,1.12.12.08.3.21.46.36.32.3.36.8.08,1.15-.05.05-.11.1-.17.14,0,0,0,0,0,0-1.48-1.45-5.35-1.5-6.63-1.48-1.27.12-5.11.62-6.41,2.22,0,0,0,0,0,0-.06-.04-.13-.08-.19-.12-.31-.31-.33-.81-.05-1.15Z"/>
          </g>
          <path class="cls-19" d="m193.41,141.87l.84,4.11-2.54,3.12s-3.68,3.29-8.68,3.96c-1.75.23-3.45-.72-4.26-2.29l-.41-.79c-.18-.35-.31-.73-.4-1.12-.5-2.12.22-3.32,2-4.56l6.19-5.44c.46-.32,7.52-.97,7.52-.97.77,0-.12,3.24-.27,3.99Z"/>
        </g>
      </g>
      <g>
        <rect class="cls-14" x="174" y="224.71" width="6.31" height="26.92"/>
        <rect class="cls-1" x="174" y="224.71" width="6.31" height="45.73"/>
        <rect class="cls-7" x="174" y="224.71" width="6.31" height="45.73"/>
      </g>
      <path class="cls-1" d="m140.95,229.06c13.55-5.73,44.01-1.95,58.18,2,2.95.9,6.1-.54,7.35-3.36h0c1.11-2.8-1.24-11.42-4.81-12.42-16.54-4.62-49.14-3.01-64.96,3.68-3.41,1.44-4.91,5.08-3.45,7.71h0c1.6,2.62,4.89,3.64,7.7,2.39Z"/>
      <g class="cls-26">
        <path class="cls-11" d="m140.95,229.06c13.55-5.73,44.01-1.95,58.18,2,2.95.9,6.1-.54,7.35-3.36h0c1.11-2.8-1.24-11.42-4.81-12.42-16.54-4.62-49.14-3.01-64.96,3.68-3.41,1.44-4.91,5.08-3.45,7.71h0c1.6,2.62,4.89,3.64,7.7,2.39Z"/>
      </g>
    </g>
  </g>
  <g id="Browsing">
    <g>
      <g>
        <g>
          <path class="cls-1" d="m353.89,85.37h-130.12c-1.11,0-1.98-.95-1.88-2.06l1.29-14.75c.09-.98.9-1.73,1.88-1.73h130.12c1.11,0,1.98.95,1.88,2.06l-1.29,14.75c-.09.98-.9,1.73-1.88,1.73Z"/>
          <path class="cls-7" d="m353.89,85.37h-130.12c-1.11,0-1.98-.95-1.88-2.06l1.29-14.75c.09-.98.9-1.73,1.88-1.73h130.12c1.11,0,1.98.95,1.88,2.06l-1.29,14.75c-.09.98-.9,1.73-1.88,1.73Z"/>
        </g>
        <text class="cls-27" transform="translate(227.62 80.07)"><tspan x="0" y="0">H</tspan><tspan class="cls-21" x="9.72" y="0">t</tspan><tspan x="14.65" y="0">tps</tspan><tspan class="cls-29" x="34.15" y="0">:</tspan><tspan class="cls-25" x="37.68" y="0">/</tspan><tspan class="cls-32" x="41.29" y="0">/</tspan><tspan class="cls-23" x="45.38" y="0">ww</tspan><tspan class="cls-28" x="67.27" y="0">w</tspan><tspan x="77.94" y="0">...</tspan></text>
        <g>
          <g>
            <ellipse class="cls-30" cx="209.78" cy="73.92" rx="5.37" ry="4.92" transform="translate(2.51 154.61) rotate(-40.68)"/>
            <line class="cls-30" x1="212.59" y1="78.26" x2="216.6" y2="83.77"/>
          </g>
          <g class="cls-20">
            <path class="cls-11" d="m209.32,80.54c-1.81,0-3.46-.71-4.64-2-1.17-1.28-1.73-2.97-1.57-4.75.32-3.58,3.51-6.49,7.11-6.49,1.81,0,3.46.71,4.64,2,1.17,1.28,1.73,2.97,1.57,4.75h0c-.32,3.58-3.51,6.49-7.11,6.49Zm.9-10.24c-2.09,0-3.94,1.68-4.12,3.75-.08.94.2,1.81.8,2.46.6.66,1.46,1.02,2.42,1.02,2.09,0,3.94-1.68,4.12-3.75h0c.08-.94-.2-1.81-.8-2.46-.6-.66-1.46-1.02-2.42-1.02Zm4.71,3.62h0,0Z"/>
            <path class="cls-11" d="m216.6,85.27c-.46,0-.92-.21-1.21-.62l-4.01-5.51c-.49-.67-.34-1.61.33-2.1.67-.49,1.61-.34,2.1.33l4.01,5.51c.49.67.34,1.61-.33,2.1-.27.19-.58.29-.88.29Z"/>
          </g>
        </g>
      </g>
      <path class="cls-18" d="m357.04,68.38c-.19-.07-.39-.11-.61-.11h-130.11c-.98,0-1.8.75-1.89,1.73l-1.29,14.75c-.01.17,0,.35.03.51-.81-.26-1.36-1.05-1.28-1.94l1.29-14.75c.09-.98.9-1.73,1.88-1.73h130.12c.93,0,1.7.67,1.86,1.54Z"/>
    </g>
  </g>
  <g id="Device">
    <g>
      <g>
        <g>
          <polygon class="cls-1" points="161.85 210.86 149.06 364.98 152.94 364.98 173.91 210.86 161.85 210.86"/>
          <polygon class="cls-1" points="304.11 210.86 325.09 364.98 328.97 364.98 316.18 210.86 304.11 210.86"/>
          <polygon class="cls-1" points="173.67 365.09 177.55 365.09 200.22 210.86 188.16 210.86 173.67 365.09"/>
          <polygon class="cls-1" points="340.94 210.86 328.87 210.86 352.02 365.09 355.9 365.09 340.94 210.86"/>
          <path class="cls-1" d="m352.06,208.43c0-2.04-1.75-3.69-3.91-3.69h-207.61c-2.16,0-3.91,1.65-3.91,3.69s1.75,3.69,3.91,3.69h207.61c2.16,0,3.91-1.65,3.91-3.69Z"/>
        </g>
        <path class="cls-7" d="m352.02,365.09h3.88l-14.84-152.98h7.09c2.16,0,3.91-1.65,3.91-3.69s-1.75-3.69-3.91-3.69h-207.61c-2.16,0-3.91,1.65-3.91,3.69s1.75,3.69,3.91,3.69h21.2l-12.68,152.87h3.88l20.8-152.87h14.29l-14.37,152.98h3.88l22.49-152.98h104.25l20.8,152.87h3.88l-12.68-152.87h12.77l22.96,152.98Z"/>
      </g>
      <g>
        <g>
          <g>
            <g>
              <path class="cls-1" d="m263.31,201.85h2.68c.28,0,.51-.23.51-.51v-2.83c0-.28-.23-.51-.51-.51h-1.92c-.23,0-.43.16-.49.38l-.76,2.83c-.09.32.16.64.49.64Z"/>
              <path class="cls-1" d="m259.6,201.85h2.68c.28,0,.51-.23.51-.51v-2.83c0-.28-.23-.51-.51-.51h-1.92c-.23,0-.43.16-.49.38l-.76,2.83c-.09.32.16.64.49.64Z"/>
              <path class="cls-1" d="m255.9,201.85h2.68c.28,0,.51-.23.51-.51v-2.83c0-.28-.23-.51-.51-.51h-1.92c-.23,0-.43.16-.49.38l-.76,2.83c-.09.32.16.64.49.64Z"/>
              <path class="cls-1" d="m252.2,201.85h2.68c.28,0,.51-.23.51-.51v-2.83c0-.28-.23-.51-.51-.51h-1.92c-.23,0-.43.16-.49.38l-.76,2.83c-.09.32.16.64.49.64Z"/>
              <path class="cls-1" d="m248.5,201.85h2.68c.28,0,.51-.23.51-.51v-2.83c0-.28-.23-.51-.51-.51h-1.92c-.23,0-.43.16-.49.38l-.76,2.83c-.09.32.16.64.49.64Z"/>
              <path class="cls-1" d="m244.79,201.85h2.68c.28,0,.51-.23.51-.51v-2.83c0-.28-.23-.51-.51-.51h-1.92c-.23,0-.43.16-.49.38l-.76,2.83c-.09.32.16.64.49.64Z"/>
              <path class="cls-1" d="m241.09,201.85h2.68c.28,0,.51-.23.51-.51v-2.83c0-.28-.23-.51-.51-.51h-1.92c-.23,0-.43.16-.49.38l-.76,2.83c-.09.32.16.64.49.64Z"/>
              <path class="cls-1" d="m237.39,201.85h2.68c.28,0,.51-.23.51-.51v-2.83c0-.28-.23-.51-.51-.51h-1.92c-.23,0-.43.16-.49.38l-.76,2.83c-.09.32.16.64.49.64Z"/>
              <path class="cls-1" d="m233.69,201.85h2.68c.28,0,.51-.23.51-.51v-2.83c0-.28-.23-.51-.51-.51h-1.92c-.23,0-.43.16-.49.38l-.76,2.83c-.09.32.16.64.49.64Z"/>
              <path class="cls-1" d="m229.98,201.85h2.68c.28,0,.51-.23.51-.51v-2.83c0-.28-.23-.51-.51-.51h-1.92c-.23,0-.43.16-.49.38l-.76,2.83c-.09.32.16.64.49.64Z"/>
              <path class="cls-1" d="m226.28,201.85h2.68c.28,0,.51-.23.51-.51v-2.83c0-.28-.23-.51-.51-.51h-1.92c-.23,0-.43.16-.49.38l-.76,2.83c-.09.32.16.64.49.64Z"/>
              <path class="cls-1" d="m222.58,201.85h2.68c.28,0,.51-.23.51-.51v-2.83c0-.28-.23-.51-.51-.51h-1.92c-.23,0-.43.16-.49.38l-.76,2.83c-.09.32.16.64.49.64Z"/>
              <path class="cls-1" d="m218.88,201.85h2.68c.28,0,.51-.23.51-.51v-2.83c0-.28-.23-.51-.51-.51h-1.92c-.23,0-.43.16-.49.38l-.76,2.83c-.09.32.16.64.49.64Z"/>
              <path class="cls-1" d="m215.18,201.85h2.68c.28,0,.51-.23.51-.51v-2.83c0-.28-.23-.51-.51-.51h-1.92c-.23,0-.43.16-.49.38l-.76,2.83c-.09.32.16.64.49.64Z"/>
              <path class="cls-1" d="m211.47,201.85h2.68c.28,0,.51-.23.51-.51v-2.83c0-.28-.23-.51-.51-.51h-1.92c-.23,0-.43.16-.49.38l-.76,2.83c-.09.32.16.64.49.64Z"/>
            </g>
            <g class="cls-22">
              <path class="cls-11" d="m263.31,201.85h2.68c.28,0,.51-.23.51-.51v-2.83c0-.28-.23-.51-.51-.51h-1.92c-.23,0-.43.16-.49.38l-.76,2.83c-.09.32.16.64.49.64Z"/>
              <path class="cls-11" d="m259.6,201.85h2.68c.28,0,.51-.23.51-.51v-2.83c0-.28-.23-.51-.51-.51h-1.92c-.23,0-.43.16-.49.38l-.76,2.83c-.09.32.16.64.49.64Z"/>
              <path class="cls-11" d="m255.9,201.85h2.68c.28,0,.51-.23.51-.51v-2.83c0-.28-.23-.51-.51-.51h-1.92c-.23,0-.43.16-.49.38l-.76,2.83c-.09.32.16.64.49.64Z"/>
              <path class="cls-11" d="m252.2,201.85h2.68c.28,0,.51-.23.51-.51v-2.83c0-.28-.23-.51-.51-.51h-1.92c-.23,0-.43.16-.49.38l-.76,2.83c-.09.32.16.64.49.64Z"/>
              <path class="cls-11" d="m248.5,201.85h2.68c.28,0,.51-.23.51-.51v-2.83c0-.28-.23-.51-.51-.51h-1.92c-.23,0-.43.16-.49.38l-.76,2.83c-.09.32.16.64.49.64Z"/>
              <path class="cls-11" d="m244.79,201.85h2.68c.28,0,.51-.23.51-.51v-2.83c0-.28-.23-.51-.51-.51h-1.92c-.23,0-.43.16-.49.38l-.76,2.83c-.09.32.16.64.49.64Z"/>
              <path class="cls-11" d="m241.09,201.85h2.68c.28,0,.51-.23.51-.51v-2.83c0-.28-.23-.51-.51-.51h-1.92c-.23,0-.43.16-.49.38l-.76,2.83c-.09.32.16.64.49.64Z"/>
              <path class="cls-11" d="m237.39,201.85h2.68c.28,0,.51-.23.51-.51v-2.83c0-.28-.23-.51-.51-.51h-1.92c-.23,0-.43.16-.49.38l-.76,2.83c-.09.32.16.64.49.64Z"/>
              <path class="cls-11" d="m233.69,201.85h2.68c.28,0,.51-.23.51-.51v-2.83c0-.28-.23-.51-.51-.51h-1.92c-.23,0-.43.16-.49.38l-.76,2.83c-.09.32.16.64.49.64Z"/>
              <path class="cls-11" d="m229.98,201.85h2.68c.28,0,.51-.23.51-.51v-2.83c0-.28-.23-.51-.51-.51h-1.92c-.23,0-.43.16-.49.38l-.76,2.83c-.09.32.16.64.49.64Z"/>
              <path class="cls-11" d="m226.28,201.85h2.68c.28,0,.51-.23.51-.51v-2.83c0-.28-.23-.51-.51-.51h-1.92c-.23,0-.43.16-.49.38l-.76,2.83c-.09.32.16.64.49.64Z"/>
              <path class="cls-11" d="m222.58,201.85h2.68c.28,0,.51-.23.51-.51v-2.83c0-.28-.23-.51-.51-.51h-1.92c-.23,0-.43.16-.49.38l-.76,2.83c-.09.32.16.64.49.64Z"/>
              <path class="cls-11" d="m218.88,201.85h2.68c.28,0,.51-.23.51-.51v-2.83c0-.28-.23-.51-.51-.51h-1.92c-.23,0-.43.16-.49.38l-.76,2.83c-.09.32.16.64.49.64Z"/>
              <path class="cls-11" d="m215.18,201.85h2.68c.28,0,.51-.23.51-.51v-2.83c0-.28-.23-.51-.51-.51h-1.92c-.23,0-.43.16-.49.38l-.76,2.83c-.09.32.16.64.49.64Z"/>
              <path class="cls-11" d="m211.47,201.85h2.68c.28,0,.51-.23.51-.51v-2.83c0-.28-.23-.51-.51-.51h-1.92c-.23,0-.43.16-.49.38l-.76,2.83c-.09.32.16.64.49.64Z"/>
            </g>
          </g>
          <rect class="cls-1" x="208.78" y="199.92" width="59.9" height="4.46" transform="translate(477.46 404.31) rotate(180)"/>
          <rect class="cls-12" x="208.78" y="199.92" width="59.9" height="4.46" transform="translate(477.46 404.31) rotate(180)"/>
        </g>
        <g>
          <path class="cls-1" d="m279.71,204.25h17.59v-1.56c0-3.07-2.57-5.51-5.64-5.34l-6.89.37c-2.84.15-5.06,2.5-5.06,5.34v1.19Z"/>
          <path class="cls-12" d="m279.71,204.25h17.59v-1.56c0-3.07-2.57-5.51-5.64-5.34l-6.89.37c-2.84.15-5.06,2.5-5.06,5.34v1.19Z"/>
        </g>
        <g>
          <g>
            <g>
              <path class="cls-1" d="m223.94,110.24h6.62l-4.89,69.95h-6.62c-1.1,0-1.92-.89-1.85-1.99l4.61-65.97c.08-1.1,1.03-1.99,2.13-1.99Z"/>
              <path class="cls-15" d="m223.94,110.24h6.62l-4.89,69.95h-6.62c-1.1,0-1.92-.89-1.85-1.99l4.61-65.97c.08-1.1,1.03-1.99,2.13-1.99Z"/>
            </g>
            <g>
              <path class="cls-14" d="m222.85,180.18h99.24c1.1,0,2.05-.89,2.13-1.99l4.61-65.97c.08-1.1-.75-1.99-1.85-1.99h-99.24c-1.1,0-2.05.89-2.13,1.99l-4.61,65.97c-.08,1.1.75,1.99,1.85,1.99Z"/>
              <g>
                <path class="cls-18" d="m307.1,177.21h0c.35,0,.65-.28.68-.63l.17-2.37c.02-.35-.24-.63-.59-.63h0c-.35,0-.65.28-.68.63l-.17,2.37c-.02.35.24.63.59.63Z"/>
                <path class="cls-18" d="m304.17,177.21h0c.35,0,.65-.28.68-.63l.17-2.37c.02-.35-.24-.63-.59-.63h0c-.35,0-.65.28-.68.63l-.17,2.37c-.02.35.24.63.59.63Z"/>
                <path class="cls-18" d="m301.25,177.21h0c.35,0,.65-.28.68-.63l.17-2.37c.02-.35-.24-.63-.59-.63h0c-.35,0-.65.28-.68.63l-.17,2.37c-.02.35.24.63.59.63Z"/>
                <path class="cls-18" d="m312.78,173.57c-1,0-1.88.82-1.95,1.82-.07,1.01.69,1.83,1.7,1.83s1.87-.82,1.94-1.83c.07-1-.68-1.82-1.69-1.82Zm-.22,3.11c-.71,0-1.24-.57-1.19-1.29.05-.71.66-1.28,1.37-1.28s1.25.57,1.2,1.28c-.05.72-.67,1.29-1.38,1.29Z"/>
              </g>
              <path class="cls-18" d="m261.37,164.7c-1.39,0-2.61,1.09-2.77,2.47l-1.53,13.01h24.21l.28-13.01c.03-1.39-1.04-2.47-2.42-2.47h-17.77Zm3.24,9.4c.19-2.75,2.58-4.99,5.34-4.99s4.83,2.23,4.64,4.99-2.58,4.99-5.34,4.99-4.83-2.23-4.64-4.99Z"/>
            </g>
          </g>
          <g>
            <path class="cls-1" d="m260.26,204.21h26.53l-1.78-37.03c-.07-1.39-1.21-2.47-2.6-2.47h-17.77c-1.39,0-2.53,1.09-2.6,2.47l-1.78,37.03Zm8.28-30.11c0-2.75,2.23-4.99,4.99-4.99s4.99,2.23,4.99,4.99-2.23,4.99-4.99,4.99-4.99-2.23-4.99-4.99Z"/>
            <path class="cls-15" d="m260.26,204.21h26.53l-1.78-37.03c-.07-1.39-1.21-2.47-2.6-2.47h-17.77c-1.39,0-2.53,1.09-2.6,2.47l-1.78,37.03Zm8.28-30.11c0-2.75,2.23-4.99,4.99-4.99s4.99,2.23,4.99,4.99-2.23,4.99-4.99,4.99-4.99-2.23-4.99-4.99Z"/>
          </g>
        </g>
      </g>
      <g>
        <polygon class="cls-1" points="316.64 197.27 309.04 185.88 309.78 185.71 317.71 197.03 316.64 197.27"/>
        <polygon class="cls-1" points="347.8 197.23 355.41 185.84 354.67 185.67 346.73 196.99 347.8 197.23"/>
        <polygon class="cls-1" points="331.04 195.41 332.38 195.41 332.02 177.42 331.4 177.42 331.04 195.41"/>
        <polygon class="cls-14" points="347.55 197.18 347.13 197.99 346.24 197.99 347 197.05 347.55 197.18"/>
        <polygon class="cls-14" points="316.86 197.18 317.29 197.99 318.18 197.99 317.41 197.05 316.86 197.18"/>
        <rect class="cls-14" x="330.99" y="195.66" width="1.44" height=".95" transform="translate(134.18 527.01) rotate(-89.76)"/>
      </g>
      <g>
        <g>
          <g>
            <rect class="cls-1" x="343.05" y="201.99" width="3.76" height="2.34" transform="translate(689.86 406.33) rotate(180)"/>
            <rect class="cls-1" x="317.52" y="201.99" width="3.76" height="2.34" transform="translate(638.81 406.33) rotate(180)"/>
          </g>
          <path class="cls-1" d="m316.21,203.03l8.18.89c5.19.56,10.42.56,15.6,0l8.18-.89v-5.07l-6.64-.86c-6.2-.81-12.48-.81-18.68,0l-6.64.86v5.07Z"/>
          <path class="cls-14" d="m316.21,203.03l8.18.89c5.19.56,10.42.56,15.6,0l8.18-.89v-5.07l-6.64-.86c-6.2-.81-12.48-.81-18.68,0l-6.64.86v5.07Z"/>
        </g>
        <g>
          <path class="cls-11" d="m343.41,200.64c0,.84.68,1.51,1.51,1.51s1.51-.68,1.51-1.51-.68-1.51-1.51-1.51-1.51.68-1.51,1.51Z"/>
          <circle class="cls-1" cx="344.93" cy="200.65" r=".91"/>
        </g>
        <g>
          <path class="cls-11" d="m336.35,200.65c0,.26.21.48.48.48s.48-.21.48-.48-.21-.48-.48-.48-.48.21-.48.48Z"/>
          <path class="cls-11" d="m334.65,200.65c0,.26.21.48.48.48s.48-.21.48-.48-.21-.48-.48-.48-.48.21-.48.48Z"/>
          <path class="cls-11" d="m332.94,200.65c0,.26.21.48.48.48s.48-.21.48-.48-.21-.48-.48-.48-.48.21-.48.48Z"/>
          <path class="cls-11" d="m331.23,200.65c0,.26.21.48.48.48s.48-.21.48-.48-.21-.48-.48-.48-.48.21-.48.48Z"/>
          <path class="cls-11" d="m329.53,200.65c0,.26.21.48.48.48s.48-.21.48-.48-.21-.48-.48-.48-.48.21-.48.48Z"/>
          <path class="cls-11" d="m327.82,200.65c0,.26.21.48.48.48s.48-.21.48-.48-.21-.48-.48-.48-.48.21-.48.48Z"/>
          <path class="cls-11" d="m326.11,200.65c0,.26.21.48.48.48s.48-.21.48-.48-.21-.48-.48-.48-.48.21-.48.48Z"/>
        </g>
      </g>
    </g>
  </g>
</svg>