<?xml version="1.0" encoding="UTF-8"?>
<svg id="Layer_1" data-name="Layer 1" xmlns="http://www.w3.org/2000/svg" viewBox="0 0 1217.52 679.03">
  <defs>
    <style>
      .cls-1 {
        fill: #d8dad7;
      }

      .cls-1, .cls-2, .cls-3, .cls-4, .cls-5, .cls-6, .cls-7, .cls-8, .cls-9 {
        stroke-width: 0px;
      }

      .cls-2 {
        fill: #ffbd21;
      }

      .cls-3 {
        fill: #00897c;
      }

      .cls-4 {
        fill: #ff8363;
      }

      .cls-5 {
        fill: #fff;
      }

      .cls-6 {
        fill: #ff573c;
      }

      .cls-7 {
        fill: #403333;
      }

      .cls-8 {
        fill: #ff9b77;
      }

      .cls-9 {
        fill: #fff7cf;
      }
    </style>
  </defs>
  <path class="cls-9" d="m279.41,185.08c0,72.09-58.44,130.54-130.54,130.54-173.15-6.88-173.11-254.22,0-261.07,72.09,0,130.54,58.44,130.54,130.54Z"/>
  <path class="cls-7" d="m143.4,560.4c-4.73-.07-9.48-.41-14.11-1.01-2.09-.3-1.69-3.44.41-3.19,4.5.58,9.12.92,13.72.98,2.1.06,2.08,3.19-.02,3.22Zm13.93-.57c-2.01-.02-2.17-2.99-.15-3.21,4.54-.43,9.13-1.13,13.61-2.05,2.07-.39,2.72,2.69.65,3.15-4.65.95-9.4,1.69-14.11,2.11Zm-41.52-3.04c-4.74-1.05-9.39-2.67-13.86-4.38-1.95-.8-.81-3.74,1.18-3,4.21,1.66,8.61,3.07,13.08,4.2,1.82.47,1.46,3.17-.4,3.17Zm68.8-2.58c-1.78.03-2.23-2.61-.49-3.14,4.37-1.4,8.7-3.06,12.86-4.92.81-.36,1.76,0,2.13.81.36.81,0,1.76-.81,2.13-4.43,1.9-9,3.86-13.68,5.12Zm-94.68-7.62c-.26,0-.53-.06-.78-.2-4.09-2.26-8.09-4.83-11.9-7.64-.72-.53-.87-1.54-.34-2.25.53-.71,1.53-.87,2.25-.34,3.7,2.73,7.58,5.22,11.55,7.42,1.45.77.83,3.06-.78,3.02Zm120.1-3.74c-1.59.04-2.23-2.2-.82-3,3.97-2.34,7.82-4.91,11.43-7.65.71-.54,1.72-.4,2.25.31.54.71.4,1.72-.31,2.25-3.71,2.81-7.66,5.46-11.74,7.86-.26.15-.54.22-.82.22Zm-142.49-12.75c-.4,0-.8-.15-1.11-.44-3.38-3.21-6.62-6.69-9.64-10.33-1.32-1.65,1.1-3.66,2.48-2.05,2.94,3.54,6.1,6.93,9.38,10.05,1.06.94.29,2.83-1.11,2.78Zm164.65-4.08c-1.39.05-2.17-1.81-1.12-2.76,3.3-3.2,6.4-6.63,9.22-10.18,1.34-1.63,3.81.32,2.52,2-2.9,3.66-6.1,7.18-9.5,10.48-.31.3-.72.46-1.12.46Zm-182.44-17.33c-.52,0-1.04-.26-1.35-.73-2.55-3.91-4.93-8.02-7.06-12.23-.92-1.9,1.88-3.33,2.87-1.46,2.08,4.1,4.4,8.11,6.89,11.92.71,1.02-.11,2.52-1.35,2.49Zm-12.6-24.83c-.65,0-1.26-.4-1.51-1.04-1.66-4.39-3.1-8.92-4.28-13.45-.5-2.05,2.55-2.85,3.12-.81,1.15,4.43,2.55,8.84,4.17,13.12.41,1.03-.41,2.2-1.51,2.18Zm-6.99-26.95c-.79,0-1.47-.58-1.59-1.38-.68-4.67-1.1-9.4-1.25-14.07-.03-2.11,3.11-2.22,3.22-.1.14,4.54.55,9.15,1.22,13.7.15.96-.62,1.85-1.59,1.84Zm-.86-27.82c-.94,0-1.69-.81-1.61-1.75.41-4.72,1.11-9.43,2.08-13.98.48-2.06,3.55-1.41,3.15.67-.94,4.43-1.62,9-2.02,13.59-.07.84-.78,1.47-1.6,1.47Zm56.79-13.4c-2.88,0-5.66-.38-8.43-1.04-.86-.21-1.4-1.08-1.19-1.94.66-2.21,3.22-.7,4.78-.62,3.31.54,6.85.51,10.36-.08.87-.15,1.71.44,1.85,1.32.15.88-.44,1.71-1.32,1.85-2.02.34-4.06.51-6.05.51Zm18.8-5.28c-1.59.04-2.23-2.19-.82-2.99,3.94-2.34,7.34-5.39,9.83-8.82.52-.72,1.53-.88,2.25-.36.72.52.88,1.53.36,2.25-2.75,3.78-6.48,7.13-10.79,9.7-.26.15-.54.23-.82.23Zm-39.65-1.1c-.29,0-.58-.08-.84-.24-3.93-2.42-7.65-5.48-11.08-9.08-.61-.64-.59-1.66.06-2.28.64-.61,1.66-.59,2.27.06,3.24,3.4,6.75,6.28,10.44,8.56,1.38.79.71,3.04-.85,2.98Zm-30.11-7.42c-2.89-.37-1-3.34-.47-4.98,1.35-3.5,2.89-6.92,4.6-10.16,1.01-1.85,3.8-.4,2.85,1.5-1.65,3.13-3.14,6.44-4.44,9.82-.71,1.29-.67,3.75-2.53,3.83Zm10.9-12.46c-.54,0-1.07-.27-1.37-.77-2.48-4.03-4.58-8.35-6.24-12.8-.31-.83.11-1.76.94-2.07,2.13-.68,2.37,2.1,3.06,3.45,1.4,3.37,3.08,6.65,4.98,9.74.67,1.03-.15,2.48-1.37,2.45Zm74.22-1.1c-2.34-.13-1.37-2.76-1.48-4.3-.03-3.52-.85-6.92-2.42-10.13-.9-1.91,1.92-3.31,2.89-1.42,1.79,3.65,2.72,7.52,2.75,11.51-.11,1.52.42,4.23-1.73,4.34Zm-72.1-10.99c-1.28.04-2.1-1.58-1.28-2.59,3.01-3.94,6.31-7.43,9.78-10.38,1.63-1.34,3.67,1.06,2.08,2.46-3.3,2.8-6.43,6.12-9.31,9.88-.32.41-.8.63-1.28.63Zm60.77-13.15c-.34,0-.69-.11-.98-.34-3.42-2.65-7.51-4.75-11.83-6.08-2.01-.66-1.08-3.67.95-3.08,4.68,1.44,9.13,3.73,12.85,6.61,1.22.88.49,2.94-.99,2.88Zm-72.72-.7c-.76,0-1.44-.54-1.58-1.32-.86-4.6-1.34-9.35-1.44-14.12,0-2.11,3.15-2.18,3.22-.06.09,4.6.56,9.17,1.38,13.6.19.98-.59,1.91-1.58,1.9Zm33.2-3.78c-.61,0-1.2-.35-1.47-.94-.37-.81-.01-1.76.8-2.13,2.36-1.08,4.82-1.95,7.29-2.61,2.14-.57,4.39-.93,6.68-1.08.88-.05,1.65.62,1.71,1.5.06.89-.61,1.65-1.5,1.71-4.8.17-9.1,1.94-13.51,3.55Zm-33.79-23.99c-.97,0-1.74-.87-1.6-1.83.64-4.67,1.64-9.33,2.98-13.86.63-2.02,3.65-1.13,3.09.91-1.29,4.38-2.26,8.88-2.88,13.39-.11.81-.8,1.39-1.59,1.39Zm7.88-26.65c-1.14.02-1.97-1.26-1.46-2.3,2.03-4.3,4.39-8.45,7.03-12.32,1.22-1.73,3.82.04,2.66,1.81-2.54,3.73-4.82,7.73-6.78,11.88-.27.58-.85.92-1.46.92Zm15.68-22.93c-1.36.05-2.16-1.76-1.16-2.72,3.32-3.45,6.89-6.57,10.71-9.34.72-.52,1.72-.36,2.25.36.95,1.39-.38,2.34-1.44,3.05-3.24,2.44-6.34,5.19-9.2,8.17-.32.33-.74.49-1.16.49Zm114.73-6.8c-.35,0-.71-.12-1-.35-3.51-2.81-7.34-5.35-11.37-7.54-.78-.42-1.07-1.4-.65-2.18.43-.78,1.4-1.07,2.18-.65,4.2,2.28,8.19,4.92,11.85,7.85,1.2.89.46,2.92-1.01,2.87Zm-92.27-9.5c-1.66.03-2.24-2.35-.7-3.06,4.21-2.04,8.67-3.76,13.25-5.11,2.03-.56,2.93,2.45.91,3.09-4.69,1.23-9.05,3.4-13.45,5.08Zm67.91-3.8c-4.49-1.32-9.05-2.75-13.77-3.5-.88-.15-1.46-.99-1.31-1.86.15-.88,1-1.46,1.86-1.31,4.68.82,9.31,2.02,13.74,3.54,1.7.56,1.24,3.16-.52,3.13Zm-41.28-4.09c-.8,0-1.49-.59-1.59-1.4-.12-.88.51-1.69,1.39-1.8,4.67-.61,9.46-.87,14.16-.76,2.11.08,2.05,3.23-.07,3.22-4.63-.11-9.3.18-13.88.75Z"/>
  <path class="cls-9" d="m533.95,76.67c0,24.4-19.78,44.17-44.17,44.17-58.59-2.33-58.58-86.03,0-88.34,24.4,0,44.17,19.78,44.17,44.17Z"/>
  <path class="cls-7" d="m1004.41,226.37c-1.61.04-2.23-2.25-.78-3.02,3.94-2.17,7.74-4.74,11.3-7.64.69-.56,1.7-.46,2.26.23.56.69.46,1.7-.23,2.26-3.71,3.02-7.67,5.69-11.78,7.96-.25.14-.51.2-.78.2Zm21.57-17.47c-1.33.04-2.14-1.68-1.21-2.67,2.99-3.4,5.74-7.1,8.16-10.97,1.15-1.77,3.82-.11,2.73,1.71-2.52,4.02-5.37,7.85-8.47,11.39-.32.36-.76.55-1.21.55Zm14.74-23.54c-1.12.02-1.94-1.21-1.48-2.24,1.78-4.22,3.22-8.59,4.28-12.98.53-2.04,3.59-1.32,3.13.75-1.1,4.57-2.59,9.1-4.44,13.48-.26.61-.86.98-1.48.98Zm6.46-27c-.93,0-1.67-.79-1.61-1.71.11-1.65.16-3.32.16-4.96,0-2.92-.17-5.78-.5-8.68-.21-2.1,2.92-2.47,3.2-.37.55,4.73.66,9.46.36,14.21-.06.85-.76,1.51-1.61,1.51Zm-3.16-27.57c-.69,0-1.33-.45-1.54-1.15-1.29-4.33-2.96-8.61-4.97-12.73-.89-1.91,1.93-3.3,2.89-1.41,2.09,4.28,3.82,8.73,5.16,13.23.32,1.01-.49,2.08-1.54,2.07Zm-12.16-24.97c-.51,0-1-.24-1.32-.68-2.63-3.73-5.58-7.27-8.75-10.51-1.45-1.53.79-3.74,2.3-2.25,3.29,3.36,6.35,7.03,9.08,10.91.77,1.02-.06,2.57-1.31,2.54Zm-607.54-2.06c-1.43-.05-3.86.43-3.9-1.65.01-.89.73-1.61,1.63-1.58,4.59.07,9.21-.08,13.78-.45.88-.08,1.66.59,1.73,1.47.07.89-.59,1.66-1.47,1.73-3.9.32-7.86.48-11.77.48Zm-16.2-.92c-4.74-.51-9.48-1.32-14.1-2.32-2.05-.48-1.39-3.56.69-3.14,4.45.97,9.03,1.73,13.59,2.26,1.99.25,1.81,3.19-.18,3.21Zm41.67-1.34c-1.92,0-2.2-2.84-.28-3.19,4.51-.81,9.03-1.85,13.44-3.09,2.04-.53,2.9,2.49.87,3.1-4.6,1.27-9.31,2.42-14.03,3.18Zm405.28-7.35c-2.03-.02-2.16-3.04-.12-3.21,4.65-.34,9.19-1.06,13.48-2.14.87-.21,1.74.31,1.95,1.17s-.31,1.74-1.17,1.95c-4.51,1.13-9.28,1.9-14.15,2.23Zm-13.93-.03c-4.56-.31-9.3-.95-14.12-1.87-.87-.17-1.44-1.01-1.28-1.88.17-.87,1.01-1.45,1.88-1.28,4.65.89,9.24,1.5,13.63,1.82,2.03.17,1.93,3.19-.11,3.21Zm-364.54-.18c-1.73.03-2.23-2.49-.59-3.11,4.28-1.68,8.51-3.58,12.56-5.66.79-.41,1.76-.09,2.17.7.41.79.09,1.76-.7,2.17-4.35,2.12-8.8,4.44-13.45,5.91Zm337.18-4.95c-4.64-1.16-9.11-2.82-13.79-4.5-1.97-.77-.88-3.73,1.12-3.02,4.45,1.65,8.75,3.09,13.12,4.36,1.77.49,1.36,3.18-.45,3.15Zm68.14-1.8c-1.65.03-2.24-2.34-.71-3.06,4.13-2.01,8-4.44,11.5-7.21.7-.55,1.71-.43,2.26.26.55.7.43,1.71-.26,2.26-3.89,2.91-8.11,6.01-12.79,7.74Zm130.5-1.19c-.33,0-.66-.1-.95-.31-3.71-2.7-7.64-5.08-11.68-7.06-.8-.39-1.13-1.35-.74-2.15.39-.8,1.35-1.13,2.15-.74,4.21,2.06,8.3,4.53,12.16,7.35,1.26.85.55,2.97-.95,2.91Zm-511.03-4.75c-1.54.06-2.23-2.16-.87-2.97,3.65-2.33,7.38-4.9,11.4-7.85.72-.52,1.72-.37,2.25.34.53.72.37,1.72-.34,2.25-4.08,3-7.87,5.6-11.57,7.97-.27.17-.57.25-.86.25Zm286.24-1.91c-4.45-1.54-8.64-3.89-13.34-6.09-.8-.39-1.12-1.36-.73-2.16.4-.8,1.36-1.12,2.16-.73,4.4,2.18,8.51,4.11,12.56,5.89,1.58.67,1.05,3.12-.65,3.08Zm199.89-5.58c-4.4-1.15-8.95-2.39-13.85-3.14-.88-.15-1.47-.97-1.32-1.85.14-.88.97-1.47,1.85-1.33,4.84.8,9.48,1.86,13.79,3.17,1.75.51,1.34,3.18-.46,3.15Zm-83.98-3.81c-.63.02-1.29-.44-1.5-1.04-4.38-.14-8.28-.43-11.84-.88-.88-.11-1.51-.92-1.39-1.8.11-.88.91-1.5,1.8-1.39,3.82.49,8.04.78,12.87.9,2.27-3.18,4.11-6.55,5.49-10.04.33-.83,1.26-1.23,2.09-.91.83.33,1.23,1.26.91,2.09-1.54,3.91-3.62,7.67-6.19,11.2-.09.18-.2.33-.34.47-.46.64-1,1.46-1.87,1.42Zm56.55-.89c-4.28-.29-8.81-.47-13.95-.51-.89,0-1.6-.74-1.59-1.63,0-.89.78-1.59,1.63-1.59,5.16.05,9.75.22,14.03.52,2.04.17,1.93,3.19-.11,3.22Zm-41.83-.13c-2.09-.03-2.13-3.15-.03-3.22,4.64-.08,9.3-.2,13.94-.28,2.1-.06,2.18,3.16.06,3.22-4.65.09-9.31.21-13.95.28,0,0-.02,0-.03,0Zm-155.64-1.9c-.26,0-.52-.06-.76-.19-3.69-1.97-7.58-4.11-12.26-6.72-1.83-1.06-.3-3.81,1.57-2.81,4.66,2.6,8.54,4.72,12.21,6.69,1.47.75.87,3.07-.76,3.03Zm114.17-1.93c-4.89-1.34-9.28-3.54-13.43-6.31-.73-.5-.92-1.51-.41-2.24.5-.73,1.51-.92,2.24-.42,1.56,1.07,3.2,2.04,4.88,2.88,2.26,1.13,4.69,2.12,7.23,2.95,1.72.54,1.29,3.17-.5,3.14Zm-352.83-.24c-1.46.05-2.21-1.98-1-2.87,3.64-2.89,7.28-5.86,10.84-8.75.69-.56,1.7-.46,2.26.23.56.69.46,1.7-.23,2.26l-.8.65c-3.29,2.67-6.69,5.44-10.06,8.12-.3.24-.65.35-1,.35Zm214.27-11.37c-.27,0-.54-.07-.79-.21-4.05-2.28-8.1-4.56-12.16-6.81-.78-.43-1.06-1.41-.63-2.19.43-.78,1.41-1.06,2.19-.63,4.07,2.25,8.13,4.53,12.18,6.82,1.44.78.82,3.05-.79,3.01Zm116.04-4.06c-.5,0-.98-.23-1.3-.66-3.05-4.17-5.07-8.62-6.01-13.23-.18-.87.38-1.72,1.26-1.9.88-.18,1.72.38,1.9,1.26.85,4.15,2.68,8.17,5.45,11.97.79,1.01-.03,2.6-1.3,2.56Zm-308.59-2.08c-1.46.05-2.21-1.99-1-2.87,4.11-3.24,7.76-6.01,11.17-8.47,1.73-1.21,3.58,1.34,1.88,2.61-3.36,2.43-6.98,5.17-11.06,8.39-.3.23-.65.35-1,.35Zm367.69-3.03c-1.98-.08-1.57-2.12-1.57-3.51,0-3.86-.53-7.72-1.56-11.47-.53-2.04,2.5-2.89,3.1-.86,1.29,4.67,1.85,9.49,1.64,14.3-.04.86-.75,1.54-1.61,1.54Zm-199.59-4.27c-4.45-1.77-8.76-4.51-13.15-6.41-.8-.38-1.14-1.34-.76-2.14.38-.8,1.35-1.14,2.14-.76,2.19,1.04,4.44,2.14,6.68,3.28,1.95.99,3.9,1.99,5.84,3.01.79.41,1.09,1.39.68,2.17-.29.55-.85.86-1.43.86Zm-145.42-8.9c-1.57.04-2.23-2.16-.85-2.98,4.23-2.62,8.27-4.85,12.34-6.82.8-.39,1.76-.05,2.15.75.39.8.05,1.76-.75,2.15-3.97,1.92-7.91,4.1-12.05,6.66-.26.16-.56.24-.84.24Zm120.22-3.03c-4.61-1.56-9.13-3.63-13.56-5.04-.84-.29-1.29-1.21-1-2.05.29-.84,1.2-1.29,2.05-1,4.29,1.48,8.7,3.15,13.13,4.98,1.62.64,1.1,3.13-.62,3.1Zm160.86-5.02c-1.09.02-1.91-1.14-1.51-2.16,1.62-4.43,4.51-8.56,8.37-11.95,1.61-1.37,3.69.99,2.12,2.42-3.46,3.04-6.04,6.72-7.47,10.64-.24.65-.85,1.06-1.51,1.06Zm-255.99-3.97c-1.77.03-2.23-2.59-.51-3.14,4.47-1.49,9.04-2.65,13.72-3.5,2.08-.34,2.65,2.75.57,3.17-4.72.78-9.25,2.18-13.79,3.47Zm68.75-.04c-4.7-1.1-9.38-2.3-13.9-3.03-.88-.15-1.46-.99-1.31-1.86.15-.88.98-1.46,1.86-1.31,4.48.78,9.1,1.81,13.75,3.04,1.8.48,1.44,3.17-.41,3.17Zm243.79-1.19c-.51,0-1.02-.25-1.33-.7-2.6-3.81-5.76-6.95-9.39-9.32-.74-.49-.95-1.48-.47-2.23.49-.74,1.48-.95,2.23-.47,3.98,2.6,7.44,6.04,10.28,10.2.74,1.02-.08,2.55-1.33,2.52Zm-271.25-3.55c-4.69-.33-9.35-.42-13.87-.21-2.11.04-2.26-3.08-.14-3.22,4.6-.21,9.35-.14,14.13.21.89.06,1.55.84,1.49,1.72-.06.85-.77,1.49-1.6,1.49Zm234.67-9.39c-.68,0-1.31-.43-1.53-1.11-.28-.84.18-1.75,1.03-2.03,4.76-1.56,9.71-2.12,14.43-1.62,2.09.26,1.77,3.39-.34,3.2-4.45-.55-9.09.25-13.59,1.56Z"/>
  <path class="cls-9" d="m1217.52,446.85c0,72.09-58.44,130.54-130.54,130.54-173.16-6.88-173.11-254.22,0-261.07,72.09,0,130.54,58.44,130.54,130.54Z"/>
  <path class="cls-9" d="m661.27,450.12c0,30.75-24.92,55.67-55.67,55.67-73.85-2.93-73.83-108.42,0-111.34,30.75,0,55.67,24.93,55.67,55.67Z"/>
  <g>
    <path class="cls-7" d="m1110.54,159.97l-247.05.58c-7.86.02-14.6,5.3-16.04,12.59l-87.89,442.48c-1.88,9.49,5.84,18.26,16.08,18.26h248.89c7.9,0,14.67-5.32,16.09-12.65l86.05-443.06c1.84-9.49-5.9-18.23-16.14-18.2Z"/>
    <path class="cls-7" d="m1097.1,159.97l-247.05.58c-7.86.02-14.6,5.3-16.04,12.59l-87.88,442.48c-1.88,9.49,5.84,18.26,16.08,18.26h248.89c7.9,0,14.67-5.32,16.1-12.65l86.04-443.06c1.84-9.49-5.9-18.23-16.13-18.2Z"/>
    <path class="cls-5" d="m925.35,602.04h-72.75c-1.82,0-3.37,1.32-3.65,3.12l-1.49,9.44c-.35,2.24,1.38,4.27,3.65,4.27h72.75c1.82,0,3.37-1.32,3.65-3.12l1.49-9.44c.35-2.24-1.38-4.27-3.65-4.27Z"/>
    <g>
      <polygon class="cls-5" points="846.01 185.08 766.69 584.44 1019.98 584.44 1097.54 185.08 846.01 185.08"/>
      <path class="cls-7" d="m1021.31,586.05h-256.58c.3-1.5,79.6-400.81,79.95-402.58h254.8l-78.18,402.58Zm-252.66-3.22h250l76.93-396.14h-248.26l-78.67,396.14Z"/>
    </g>
    <path class="cls-5" d="m963.1,174.4c.24,7.84,11.63,7.85,11.87,0-.24-7.84-11.63-7.85-11.87,0Z"/>
  </g>
  <g>
    <path class="cls-7" d="m125.08,159.97l247.05.58c7.86.02,14.6,5.3,16.04,12.59l87.89,442.48c1.88,9.49-5.84,18.26-16.08,18.26h-248.89c-7.9,0-14.67-5.32-16.09-12.65L108.94,178.17c-1.84-9.49,5.9-18.23,16.14-18.2Z"/>
    <path class="cls-7" d="m489.49,615.62l-87.88-442.48c-1.45-7.28-8.18-12.57-16.04-12.59l-247.05-.58c-10.23-.02-17.98,8.71-16.14,18.2l86.04,443.06c1.42,7.33,8.19,12.65,16.1,12.65h248.89c10.24,0,17.97-8.77,16.08-18.26Z"/>
    <path class="cls-5" d="m388.16,614.6l-1.49-9.44c-.28-1.8-1.83-3.12-3.65-3.12h-72.75c-2.27,0-4,2.03-3.65,4.27l1.49,9.44c.28,1.8,1.83,3.12,3.65,3.12h72.75c2.27,0,4-2.03,3.65-4.27Z"/>
    <g>
      <polygon class="cls-5" points="389.61 185.08 138.08 185.08 215.63 584.44 468.92 584.44 389.61 185.08"/>
      <path class="cls-7" d="m470.88,586.05H214.31c-.13-.65-78-401.67-78.18-402.58h254.8c.13.64,79.77,401.67,79.95,402.58Zm-253.92-3.22h250l-78.67-396.14h-248.26l76.93,396.14Z"/>
    </g>
    <path class="cls-5" d="m260.65,174.4c.24,7.85,11.63,7.84,11.87,0-.24-7.85-11.63-7.84-11.87,0Z"/>
  </g>
  <g>
    <path class="cls-2" d="m686.42,206.17c-1.56.01-2.76-1.55-2.31-3.05,12.99-43.78-16.41-91.64-61.41-99.62-3.04-.62-2.26-5.25.9-4.71,47.72,8.46,78.91,59.22,65.12,105.65-.3,1.06-1.26,1.75-2.31,1.75Z"/>
    <path class="cls-2" d="m665.24,209.58c-1.6.02-2.81-1.63-2.28-3.15,12.2-35.37-11.15-75.82-47.84-83.08-3.04-.7-2.14-5.29,1-4.69,39.43,7.81,64.51,51.27,51.4,89.28-.33,1.01-1.27,1.65-2.28,1.65Z"/>
    <g>
      <path class="cls-2" d="m595.6,132.09c-31.98,0-57.91,25.93-57.91,57.91,3.05,76.82,112.78,76.79,115.82,0,0-31.98-25.93-57.91-57.91-57.91Z"/>
      <g>
        <path class="cls-5" d="m583.95,177.41c-8.3-6.46-15.18-11.95-19.61-15.49,4.25-5.35,10.12-6.34,16.67-.99,4.31,3.66,7.13,7.9,2.94,16.48Z"/>
        <path class="cls-5" d="m628.61,213.56c-4.12,7.2-13.28,11.31-22.83,7.75-23.59-9.73-56.92-36.77-42.75-57.72,4.52,3.62,11.6,9.25,20.13,15.89-.63,2.15-.78,4.55.36,6.26,4.49,6.79,10.92,10.41,17.53,13.74,4.51,2.27,6.08,1.25,7.93-.29,6.46,4.83,13.1,9.7,19.63,14.35Z"/>
        <path class="cls-5" d="m629.7,211.71c-6.32-4.5-12.74-9.21-19-13.88,6.18-4.62,10.89-3.97,15.12-1.15,6.07,4.05,7.3,8.66,3.88,15.03Z"/>
      </g>
    </g>
  </g>
  <g>
    <g>
      <path class="cls-4" d="m941.41,474.78c-4.95,45.76-14.82,75-33.58,108.03h-93.96c.19-4.58.6-9.62,1.19-15t0-.02c5.8-47.05,18.6-102.12,33.73-139.83,13.18-29.01,60.57-28.28,80-3.05,11.31,14.41,14.18,29.99,12.62,49.86Z"/>
      <path class="cls-8" d="m984.53,498.06c-4.24,33.65-11.55,58.11-24.42,84.75h-102.87c5.09-41.58,20.47-101.26,32.76-131.53,2.14-5.06,3.75-9.42,7.13-13.44.02-.03.05-.06.08-.1,9.56-11.8,28.84-15.22,44.18-11.24,29.86,8.09,47.28,32.69,43.14,71.56Z"/>
      <path class="cls-3" d="m971.74,403.77l-122.38,2.31s-40.77,123.44-40.77,130.77,17.85,14.11,58.13,19.18c40.28,5.08,114.73,6.77,116.77,6.21,2.04-.56,18.21-102.24-11.75-158.48Z"/>
    </g>
    <g>
      <path class="cls-7" d="m997.79,280.58c-11.03-8.85-25.4-11.19-37.96-9.53-6.06.8-12.89,2.47-18.16-2.13-3.86-3.37-5.44-8.97-7.7-13.83-4.99-10.74-8.08-19.04-17.09-21.76-9.91-2.99-19.39,1.7-21.56,7.56l-6.61,20.62c2.56,11.82,1.39,38.02,5.02,49.63,4.86,16.93,14.68,32.72,33.42,23.94,10.76-5.27,20.79-17.04,34-12.37,5.78,2.14,10.62,7.49,16.35,9.86,11.88,4.78,22.59-3.64,28.47-13.56,9.63-15.43.28-31.62-8.19-38.41Z"/>
      <g>
        <g>
          <rect class="cls-8" x="895.37" y="260.2" width="18.98" height="31.51" transform="translate(-16.3 60.59) rotate(-3.8)"/>
          <path class="cls-7" d="m908.24,274.03c-1.05,4.28-5.74,8.64-12.45,8.56l-.39-5.88,12.85-2.67Z"/>
        </g>
        <g>
          <path class="cls-8" d="m886.35,269.96c-.47-4.14-1.62-22.15-1.62-22.15l26.84-1.78c10.93,31.57-20.91,42.57-25.22,23.93Z"/>
          <path class="cls-7" d="m906.19,253.77c5.16,4.12,12.06,3.08,12.06,3.08-6.39-37.07-41.23-23.36-33.68-2.03,2.35-.27,5.12-2.48,5.98-6.98,1.23,5.58,9.9,5.1,11.94,3.98,0,0-2.29-3.17-1.66-4.55.26-.58,2,3.83,5.35,6.5Z"/>
          <path class="cls-8" d="m909.9,258.26c-3.53,6.85,4.02,10.98,7.9,4.33,3.53-6.85-4.02-10.98-7.9-4.33Z"/>
        </g>
      </g>
    </g>
    <g>
      <g>
        <path class="cls-8" d="m716.21,297.49c25.4,14.38,60.29,32.11,78.59,54.46,31.69,38.71,5.53,55.84-3.29,57.2-15.14,2.34-28.05-8.67-49.18-30.28-17.45-17.85-33.09-40.67-45.34-66.67-4.44-9.43,7.37-21.43,19.23-14.71Z"/>
        <g>
          <path class="cls-8" d="m880.64,295.13c19.83-.39,36.37,15.48,24.55,41.19-14.37,31.28-94.68,83.99-122.9,71.74-9.83-4.27-15.92-16.31-12.77-27.62,8.75-31.35,79.74-84.7,111.12-85.31Z"/>
          <path class="cls-2" d="m882.68,291.88c-12.3-.7-34.65,5.84-62.04,27.42-6.09,4.73,36.15,71.04,44.31,65.64,21.94-15.39,47.19-42.65,48.02-61.6,1.42-17.32-13.33-30.7-30.29-31.46Z"/>
        </g>
        <g>
          <path class="cls-8" d="m711.46,293.92s-14.28,1.28-18.83,21.84c-4.31,19.47,18.33,26.27,23.71,25.51l-4.89-47.35Z"/>
          <path class="cls-8" d="m740.87,307.21l9.86-5.56c9.86-5.56,6.73-15.07,1.37-14.35-2.05.28-22.01,5.87-33.34,5.35-7.82-.36-15.77,3.28-15.39,7.94,1.85,22.39,37.51,6.61,37.51,6.61Z"/>
        </g>
      </g>
      <path class="cls-7" d="m858.81,307.81c-5.81,9.5-12.38,32.49-20.12,49.96-1.78-2.96-5.11-7.64-6.72-10.57.57-6.06,17.49-35.6,26.84-39.39Z"/>
      <g>
        <g>
          <path class="cls-6" d="m822.2,297.53h-192.28c-4.91,0-8.89,3.98-8.89,8.89v51.25h210.06v-51.25c0-4.91-3.98-8.89-8.89-8.89Z"/>
          <g>
            <rect class="cls-5" x="622.34" y="325.09" width="207.39" height="138.8" rx="10.92" ry="10.92"/>
            <path class="cls-6" d="m831.1,333.54c-1.04-5.23-5.33-9.28-10.68-9.96-.06-.01-.14-.02-.2-.03-1.53-.33-185.37.08-186.95-.08-5.97,0-10.98,4.21-12.23,9.82-.19.87-.3,1.78-.3,2.71v116.96c0,.93.11,1.85.3,2.71,1.24,5.61,6.25,9.82,12.23,9.82h185.55c6.91,0,12.52-5.62,12.52-12.53v-116.96c0-.85-.09-1.67-.25-2.47Zm-2.97,119.43c0,5.14-4.17,9.31-9.3,9.31h-185.55c-5.14,0-9.31-4.17-9.31-9.31v-116.96c0-5.13,4.17-9.31,9.31-9.31h185.55c.95,0,1.88.15,2.76.42h.01c3.78,1.18,6.53,4.73,6.53,8.89v116.96Z"/>
          </g>
          <path class="cls-5" d="m637.58,311.17c.21,6.91,10.24,6.91,10.45,0-.21-6.91-10.24-6.91-10.45,0Z"/>
          <path class="cls-5" d="m664.22,311.17c.21,6.91,10.24,6.91,10.45,0-.21-6.91-10.24-6.91-10.45,0Z"/>
        </g>
        <g>
          <polygon class="cls-1" points="804.93 443.29 640.24 443.29 640.24 341.32 644.53 341.32 644.53 439 804.93 439 804.93 443.29"/>
          <rect class="cls-1" x="668.32" y="356.38" width="18.47" height="82.63"/>
          <rect class="cls-1" x="701.9" y="382.8" width="18.47" height="56.21"/>
          <rect class="cls-1" x="735.48" y="364.1" width="18.47" height="74.91"/>
          <rect class="cls-1" x="769.06" y="407.97" width="18.47" height="31.04"/>
          <path class="cls-1" d="m803.85,447.47l6.91-5.76c.35-.29.35-.84,0-1.13l-6.91-5.76c-.48-.4-1.21-.06-1.21.57v11.52c0,.62.73.96,1.21.57Z"/>
          <path class="cls-1" d="m648.71,344.3l-5.76-6.91c-.29-.35-.84-.35-1.13,0l-5.76,6.91c-.4.48-.06,1.21.57,1.21h11.52c.62,0,.96-.73.57-1.21Z"/>
        </g>
      </g>
      <g>
        <path class="cls-8" d="m733.62,306.19c-2.07,7.97-13.8,5.61-12.59-2.58.64-3.7.63-10.81,1.56-14.21,1.23-4.48,6.24-4.88,8.3-4.37,2.69.67,4.34,3.06,4.69,5.85.57,4.35-1.19,11.93-1.96,15.31Z"/>
        <path class="cls-8" d="m722.73,305.15c-1.51,8.1-13.38,6.56-12.74-1.69.38-3.73-.04-10.81.65-14.26.91-4.55,5.8-5.33,7.89-4.97,2.73.48,5.33,2.29,5.88,5.05.87,4.3-1.14,12.44-1.67,15.86Z"/>
        <path class="cls-8" d="m712.33,305.12c-.29,3.07-.44,5.59-5.83,5.75-3.89.11-7.15-2.79-6.99-6.67.16-3.75-.48-11.15,0-14.63.64-4.6,5.26-5.31,7.37-5.07,2.75.31,4.85,2.55,5.56,5.27,1.12,4.24.21,11.91-.11,15.36Z"/>
        <path class="cls-8" d="m701.21,305.61c-.09,4.71-2.76,5.48-5.83,5.75-3.87.34-7.15-2.79-6.99-6.67.16-3.75-.03-10.62.45-14.11,1.23-7.51,11.11-7.02,12.63-1.33,1.12,4.24-.2,12.91-.26,16.37Z"/>
        <path class="cls-7" d="m701.53,308.88c-.42,0-.77-.32-.8-.75-.7-9.48-.09-13.37-.07-13.53.16-1.04,1.75-.79,1.59.26,0,.04-.6,3.9.08,13.15.04.46-.34.87-.8.86Z"/>
        <path class="cls-7" d="m711.8,309.23c-.38,0-.72-.27-.79-.66-1.16-6.28-.4-13-.37-13.28.11-1.04,1.71-.87,1.6.18,0,.07-.76,6.77.35,12.81.1.49-.3.96-.79.95Z"/>
        <path class="cls-7" d="m722.19,308.93c-.41,0-.76-.31-.8-.72-.74-7.05,1.21-14.03,1.29-14.33.29-1,1.83-.58,1.55.44-.02.07-1.95,6.99-1.24,13.72.05.47-.33.89-.8.89Z"/>
        <path class="cls-7" d="m695.52,312.22c-5.73.24-7.35-5.17-7.45-10.14-.2-4.18.46-10.58.49-10.85.05-.44.44-.76.88-.72.44.05.76.44.72.88,0,.06-.68,6.56-.48,10.61.26,5.39,1.54,7.92,4.29,8.46,3.95.76,6.1-1.49,6.83-2.49.21-.28.53-.44.87-.45.33,0,.67.16.88.44.43.57,1.63,1.92,3.53,2.14,3.4.34,4.33-1.08,5.12-2.03.41-.5.86-.32,1.86.06.73.28,1.83.71,2.71.86,2.26.41,4.19-.72,5.02-1.2.38-.22.9-.53,1.36-.07.82.82,3.78,3.38,7.44,2.08,3.53-1.25,4.82-9.69,5.02-12.84.03-.44.41-.79.85-.75.44.03.78.41.75.85-.08,1.27-.92,12.43-6.09,14.25-4.03,1.43-7.3-.84-8.68-2.05-.99.57-3.27,1.79-5.96,1.31-1.21-.23-2.39-.71-3.37-1.09-1.84,2.73-7.64,3.33-10.44-.06-.93,1.06-2.95,2.79-6.16,2.79Z"/>
      </g>
      <g>
        <g>
          <path class="cls-2" d="m832.53,439.06c-1.59-35.46-3.67-107.64,37.64-142.97,3.67-3.33,16.59-5.94,33.7-6.82,27.79-1.43,54.44,2.16,59.09,6.27,28.3,25.04,25.66,128.94,26.7,140.32l-157.13,3.2Z"/>
          <path class="cls-7" d="m901.12,377.16v-32.7l-14.47,39.91c-13.84.93-26.66,5.44-39.07,9.83l46.85,5.13,6.69-22.18Z"/>
        </g>
        <g>
          <path class="cls-8" d="m917.95,288.22s-10.13,20.04-19.89,34.36c-3.2,4.7-12.29,17.35-12.28,17.06,1.12-35.15,9.01-49.67,9.01-49.67,7.35-1.21,16.88-1.54,23.15-1.75Z"/>
          <path class="cls-6" d="m904.86,311.86c-3.9,6.98-16.19,24.2-19.08,27.78.4-12.39,1.56-21.7,3.05-29.65,3.32-.08,9.75-.58,16.03,1.87Z"/>
          <path class="cls-5" d="m916.08,288.34c-16.06,32.96-23.84,40.92-30.29,51.3,16.04-15.45,30.35-24.91,30.35-24.91l-2.3-5.71s10.11-2.37,10.11-3.81c0-9.03,0-16.46,0-16.46-.09-.46-7.27-.7-7.86-.41Z"/>
          <path class="cls-5" d="m894.99,289.93c-6.8,31.43-8.81,38.36-9.21,49.7-2.86-14.09-8.58-27.21-8.58-27.21,1.35-1.75,4.32-4.03,7.09-5.32,0,0-4.59-4.47-4.02-5.58,3.32-6.41,6.88-10.64,6.88-10.64.28-.28,7.62-1.46,7.83-.96Z"/>
        </g>
      </g>
      <g>
        <g>
          <path class="cls-8" d="m932.7,303.39c15.4-12.51,38.19-10.16,44.7,17.38,7.91,33.5-22.98,124.46-52.76,132.16-10.37,2.68-22.59-3.06-27.06-13.93-12.39-30.1,10.76-115.83,35.12-135.61Z"/>
          <path class="cls-2" d="m932.31,299.57c-10.13,7.02-23.72,25.92-32.04,59.78-1.89,7.48,72.2,33.77,75.32,24.49,7.83-25.56,10.96-62.73-.04-78.1-9.54-14.53-29.4-16-43.24-6.17Z"/>
        </g>
        <path class="cls-8" d="m809.92,397.17c29.06-2.69,67.83-8.05,95.61-.15,48.12,13.69,36.42,42.69,29.95,48.85-11.1,10.57-27.98,8.9-57.66,3.22-24.52-4.69-50.38-14.51-75.29-28.86-9.03-5.2-6.18-21.8,7.39-23.06Z"/>
        <g>
          <path class="cls-8" d="m805.94,383.14l-4.85-9.56c-4.85-9.56,2.61-15.41,6.46-12.02,1.47,1.29,14.26,16.19,23.46,21.74,6.35,3.83,9.04,10.37,8.49,12.05-.62,1.9-10.8,28.57-11.87,29.93-8.26,10.44-28.59,5.3-33.17-.91-4.58-6.21,11.48-41.23,11.48-41.23Z"/>
          <path class="cls-8" d="m816.52,404.65c-.12-4.69-.38-15.05-.5-19.82-6.71-2.12-30.67-9.72-33.08-10.7-8.59-3.54-16.15,6.57-6.52,12.08,2.37,1.43,14.51,5.36,18.57,6.64.25,4.73.6,11.84.86,16.51v.35c.12,2.24.34,6.22.45,8.41,5.26.63,16.95,1.94,20.63,2.33l-.41-15.82Z"/>
          <path class="cls-8" d="m808.53,393.83c2.95.92,5.32,4.68,4.96,7.75-.46,3.86-4.2,6.43-7.97,5.47-3.64-.92-10.7-1.54-14.01-2.73-4.37-1.57-4.43-6.51-3.76-8.53.87-2.63,3.04-4.94,5.85-5.08,4.38-.23,11.62,2.08,14.92,3.11Z"/>
          <path class="cls-8" d="m807.5,404.97c3,.74,5.47,1.26,4.84,6.61-.46,3.86-3.8,6.67-7.62,5.94-3.69-.7-11.1-1.15-14.48-2.14-4.46-1.3-4.48-5.98-3.94-8.03.71-2.67,3.23-4.43,6.02-4.74,4.36-.49,11.82,1.53,15.18,2.35Z"/>
          <path class="cls-8" d="m806.05,417.46c4.59,1.05,4.79,3.82,4.43,6.89-.46,3.86-4.2,6.43-7.97,5.47-3.64-.92-10.4-2.15-13.72-3.34-7.1-2.74-4.59-12.32,1.29-12.64,4.38-.23,12.59,2.85,15.96,3.62Z"/>
          <path class="cls-7" d="m803.46,418.7c-11.95-1.21-16.83-3.85-16.93-3.93-.9-.52-.12-1.92.8-1.4.09.05,4.59,2.51,16.21,3.72.99.1.92,1.61-.08,1.61Z"/>
          <path class="cls-7" d="m806.15,407.29c-9.36-1-17.51-3.56-17.54-3.57-1-.32-.52-1.85.49-1.53.08.02,7.85,2.47,17.14,3.5.99.11.91,1.61-.09,1.6Z"/>
          <path class="cls-7" d="m808.38,396.44c-8.78-.99-18.43-3.66-18.49-3.67-1-.28-.59-1.83.43-1.55.09.03,9.42,2.6,18.15,3.62.98.11.9,1.61-.09,1.6Z"/>
        </g>
      </g>
    </g>
  </g>
  <g>
    <g>
      <path class="cls-8" d="m440.37,383.26c-5.27-14.37,2.97-29.18,19.97-54.12,14.05-20.6,33.32-40.4,56.37-57.52,8.36-6.21,22.43,3,18.19,15.93-9.09,27.7-19.59,65.36-37.87,87.67-31.67,38.65-53.6,16.4-56.67,8.03Z"/>
      <g>
        <path class="cls-8" d="m360.92,295.24c-19.72,1.93-34.27,19.6-19.55,43.73,17.91,29.35,103.72,72.28,130.29,56.83,9.25-5.38,13.89-18.04,9.44-28.89-12.34-30.08-88.98-74.72-120.18-71.67Z"/>
        <path class="cls-3" d="m355.89,294.19c11.14-1.8,39.75-.65,70.85,20.56,6,3.73-29.79,69.41-37.73,65.27-18.59-9.57-48.68-33.51-54.19-44.07-1.79-3.42-2.98-6.87-3.55-10.24-2.92-15.65,9.25-29.23,24.63-31.52Z"/>
      </g>
      <g>
        <path class="cls-8" d="m514.93,250.1c-10.14,11.56-12.31,13.41-15.29,22.12-2.06,6.01.92,16.3,2.2,17.1,1.45.9,22.21,13.98,23.66,14.28,11.16,2.3,22.38-13.99,21.97-20.58-.41-6.59-29.65-36.21-32.55-32.91Z"/>
        <path class="cls-8" d="m535.18,233.02c-1.79,1.22-14.07,10.9-20.12,16.96-1.63,1.57-3,3.28-4.32,4.89-.03.03-.06.06-.09.1h-.01s-.02.03-.02.04c-3.48,4.25-5.54,7.34-6.72,9.36-.01.01-.02.02-.02.03-1.13,1.91-1.46,2.84-1.46,2.84l14.68,2.85c-.12.12,8.86-10.33,12.56-14.26.05-.05.11-.12.16-.16,0-.02.02-.03.04-.05.34-.36.69-.73,1.02-1.05,3.63-3.68,10.74-9.93,12.89-12.42,6.19-7.2-.91-14.39-8.59-9.13Z"/>
        <g>
          <path class="cls-8" d="m524.65,263.94c-1.29,2.31-.54,6.05,1.5,7.73,2.56,2.13,6.4,1.51,8.17-1.3,1.71-2.72,5.73-7.26,7.09-9.95,1.79-3.55-1.09-6.65-2.7-7.51-2.09-1.12-4.8-1.27-6.63.3-2.85,2.44-5.98,8.14-7.43,10.73Z"/>
          <path class="cls-8" d="m532.39,272.22c-3.03,6.17,7.19,11.15,10.43,4.74,1.42-2.89,4.92-8.19,5.98-11.01,1.4-3.72-1.78-6.14-3.47-6.82-2.2-.89-4.69-.07-6.34,1.69-2.58,2.73-5.44,8.69-6.61,11.41Z"/>
          <path class="cls-8" d="m540.34,278.42c-1.89,3.56-.22,5.24,1.97,6.73,2.76,1.87,6.01.58,8.01-2.09,1.97-2.63,4.66-7.74,5.75-10.55,2.12-6.12-5.54-10.16-9.12-6.45-2.6,2.7-5.22,9.74-6.61,12.36Z"/>
          <path class="cls-7" d="m539.76,280.59c-.63.02-1.04-.76-.65-1.27,5.33-7.5,7.33-10.68,7.35-10.71.24-.38.73-.49,1.11-.26.38.24.49.73.25,1.11-.02.03-2.03,3.24-7.4,10.79-.16.22-.4.34-.66.34Z"/>
          <path class="cls-7" d="m531.54,273.93c-.65.02-1.06-.8-.63-1.31,5.33-6.68,7.63-9.64,7.65-9.67.27-.35.78-.42,1.13-.14.35.27.42.78.14,1.13-.02.03-2.32,3-7.67,9.69-.16.2-.39.3-.63.3Z"/>
          <path class="cls-7" d="m545.05,287.21c-3.57.14-5.97-3.45-6.11-6.19-3.55.73-8.85-2.78-8.38-7.03-1.28.03-3.4-.21-4.97-1.74-2.43-2.38-2.78-4.63-1.24-4.62.43.06.73.44.69.87,0,.07.05,1.03,1.66,2.59,1.76,1.71,4.64,1.22,4.67,1.22l1.31-.23-.41,1.27c-.03.1-.74,2.51,1.63,4.51,2.77,2.35,5.38,1.44,5.49,1.4l1.09-.4c-.21,2.22.59,7.09,5.1,6.69,1.51-.18,3.04-1.12,4.19-2.59,2.23-2.84,4.88-8.54,4.9-8.6.44-.95,1.9-.28,1.46.68-.11.24-2.75,5.92-5.1,8.91-1.61,2.02-3.71,3.22-5.99,3.24Z"/>
        </g>
        <path class="cls-8" d="m519.05,272.08s.64.26,8.19-4.95c8.71-6.01,5.75-13.8-.11-11.87-1.59.53-6.22,3.71-15.2,5.01-9.95,1.44-11.97,10.56-10.94,14.52.36,1.39,9.21,14.04,12.57,12.1,6.84-3.95,5.49-14.81,5.49-14.81Z"/>
        <path class="cls-7" d="m517.35,283.62c-.6.01-1.02-.7-.69-1.22,1.91-3.18,1.77-6.94,1.69-8.96-.05-1.24-.07-1.86.57-2.14,4.09-1.76,9.56-5.64,11.27-7.98,4.25-5.9.2-9.99-6.05-5.93-2.29,1.59-9.22,3.23-9.69,3.26-.42.09-.86-.19-.95-.62-.09-.44.19-.86.63-.95.35.02,7.06-1.61,9.24-3.1,8.05-5.09,13.28,1.36,8.12,8.29-1.82,2.5-7.23,6.4-11.55,8.35.04,2.67.45,6.52-1.9,10.61-.15.25-.42.39-.69.39Z"/>
      </g>
    </g>
    <g>
      <path class="cls-2" d="m434.59,582.81h-98.53c-16.04-28.02-25.8-54.42-31.75-94.67-4.12-27.24,4.92-54.25,28.76-67.19,19.38-11.18,50.93-9.86,61.55,11.43,3.3,6.61,6.97,15.79,10.73,26.55,13.22,38.47,25.84,88.63,29.24,123.87Z"/>
      <path class="cls-2" d="m356.42,551.88c-.63,10.83-1.51,21.32-2.64,30.93h-94.89c-8.84-28.46-15.1-85.14-1.44-129.6,13.05-40.48,64.15-50.83,90.06-20.74h0c6.84,8.26,7.48,17.46,8.5,28.23,2.34,27.91,2.21,58.54.41,91.18Z"/>
      <path class="cls-7" d="m359.2,582.81h-8.86c0-.19-7.04-103.47-7.05-103.74,6.13,8.76,13.99,72.4,15.91,103.74Z"/>
    </g>
    <g>
      <g>
        <rect class="cls-8" x="324.26" y="270.38" width="31.47" height="18.96" transform="translate(15.4 577.44) rotate(-81.97)"/>
        <path class="cls-7" d="m336.77,277.69c.73,4.35,5.08,9.03,11.78,9.44l.82-5.83-12.6-3.61Z"/>
      </g>
      <g>
        <path class="cls-8" d="m358.89,275.24c.77-4.09,3.25-21.94,3.25-21.94l-26.61-3.75c-13.21,30.64,17.69,43.94,23.36,25.7Z"/>
        <path class="cls-7" d="m350.49,236.21c-7.86-4.15-14.04-.41-15.04,4.44,0,0-7.7-2.03-10.89,7.34-2.15,6.3,3.26,14.54,3.26,14.54l6.18-.47c2.92-3.15,4.08-6.22,4.01-9.22,0,0,3.35,3.93,10.31,1.83,9.34-2.82,5.66-16.88,2.17-18.45Z"/>
        <path class="cls-7" d="m370.96,242.24c.08-5.07-5.03-8.94-9.88-7.5-5.47-9.57-19.25-1.28-13.29,8.05-9.15,6.73,1.32,19.62,9.79,12.02,5.11,2.83,11.88-1.47,11.36-7.35,1.25-1.38,2.02-3.21,2.02-5.22Z"/>
        <path class="cls-8" d="m336.29,261.86c3.01,7.08-4.82,10.64-8.18,3.73-3.01-7.08,4.82-10.64,8.18-3.73Z"/>
      </g>
    </g>
    <g>
      <path class="cls-7" d="m412.34,351.6c-1.42,3.01-3.82,6.88-4.91,8.09-7.39-19.89-15-37.53-21.21-43.15,8.97,3.33,20.11,20.02,26.12,35.06Z"/>
      <path class="cls-3" d="m374.97,300.07c-12.16-11.17-85.47-14.21-91.65-2.68-24.61,45.95-34.2,150.78-34.2,150.78-1.61,13.18,156.16,15.39,160.92,9.35,0,0,20.09-106.78-35.07-157.46Z"/>
      <path class="cls-5" d="m341.72,331c-.83,0-1.51-.67-1.51-1.51v-21.98c0-.83.67-1.51,1.51-1.51s1.51.67,1.51,1.51v21.98c0,.83-.67,1.51-1.51,1.51Z"/>
      <path class="cls-7" d="m308.44,358.35l-28.68,31.36,42.65,13.23c-3.05-5.35-12.96-14.21-23.02-19.17l9.05-25.41Z"/>
      <g>
        <path class="cls-8" d="m328.61,289.81s13.14,22.94,13.33,22.72c2.86-3.27,8-20.27,6.41-21.23-4.79-.46-13.41-1.52-19.73-1.49Z"/>
        <path class="cls-5" d="m348,290.82c3.03.2,7.09,1.91,8.77,2.57-2.19,2.12-8.31,12.14-14.83,19.13,3.61-7.45,5.73-14.7,6.06-21.7Z"/>
        <path class="cls-5" d="m329.68,285.13c-2.23.79-8.34,3.39-10.59,4.96l2.92,11.3s6.66-3.31,6.93-3.23c.62.19,2.28,1.64,5.04,5.23,5.48,7.12,7.97,9.14,7.97,9.14,0,0-9.44-17.96-12.26-27.39Z"/>
      </g>
    </g>
    <g>
      <g>
        <path class="cls-8" d="m321.84,324.35c3.13-20.07-6.36-37.74-34.18-28.09-33.84,11.74-98.61,88.39-90.02,118.11,2.99,10.35,14.42,17.62,26.38,15.44,33.14-6.03,92.87-73.7,97.82-105.46Z"/>
        <path class="cls-3" d="m327.35,323.23c-1.2,11.22-8.95,33.87-32.52,55.41-5.18,4.8-60.3-46.66-54.21-53.24,17.23-17.56,45.49-36.27,62.81-34.23,15.87,1.3,25.76,16.62,23.93,32.06Z"/>
      </g>
      <g>
        <path class="cls-8" d="m351.76,391.22c-5.43,4.6-8.09,12.58-8.09,12.58,0,0-21.66,2.45-27.52-4.17,1.63-4.24,11.03-8.69,20.22-13.72,4.59-2.51,8.17-6.32,12.59-8.03,4.78-1.85,10.96,6.42,2.8,13.35Z"/>
        <g>
          <path class="cls-6" d="m428.13,363.77l-76.3-1.6c-3.82-.08-7.13,2.85-7.85,6.95l-16.3,92.02c-.96,5.42,2.92,10.43,7.96,10.3l70.85-1.83c3.48-.09,6.49-2.67,7.39-6.35l21.74-88.59c1.33-5.42-2.36-10.79-7.5-10.9Z"/>
          <path class="cls-2" d="m376.63,356.48l39.54,1.42c1.41.05,2.2,1.52,1.76,3.27l-2.45,9.85c-.44,1.76-1.93,3.14-3.34,3.09l-39.54-1.42c-1.41-.05-2.2-1.52-1.76-3.27l2.45-9.85c.44-1.76,1.93-3.14,3.34-3.09Z"/>
        </g>
        <g>
          <path class="cls-8" d="m316.68,401c.71-3.35,4-5.49,7.36-4.77,6.73,1.44,18.48,3.35,32.01,2.93,9.27.14,9.72,11.59-.24,12.24,1.49.02,2.67.03,3.21.01,4.51-.14,6.64,8.53.9,10.82-3.19,1.27-11.26.48-11.03.62.16.1,2.89.21,8.78.57,4.68.28,4.45,9.57-2.79,9.92-1.06.05-2.67-.08-4.18-.25,3.23.54,6.21.56,4.68,5.36-1.21,3.92-6.77,3.76-11.13,3.79-19.88.13-34.79-7.33-34.79-7.33l7.22-33.93Z"/>
          <path class="cls-7" d="m348.27,412.23c-2.09,0-4.18-.09-5.89-.34-.44-.06-.74-.47-.68-.91.06-.44.48-.74.91-.68,5.47.79,15.3-.15,15.39-.16,1.05-.1,1.2,1.49.16,1.6-.29.03-5.09.49-9.89.49Z"/>
          <path class="cls-7" d="m352.99,423.69c-2.93,0-6.63-.07-9.32-.36-.44-.05-.76-.44-.71-.89.05-.44.43-.77.89-.71,4.95.53,13.75.29,13.84.29,1.03-.06,1.11,1.58.04,1.61-.17,0-2.15.06-4.73.06Z"/>
          <path class="cls-7" d="m353.79,434.5c-.37-.01-8.19-.33-12.78-1.2-1.03-.2-.74-1.77.3-1.58,4.44.84,12.43,1.17,12.51,1.17,1.03.04,1,1.61-.03,1.61Z"/>
        </g>
      </g>
      <path class="cls-8" d="m202.46,393.94c10.06-11.53,27.01-11.44,57.05-8.53,24.82,2.4,51.45,9.77,77.55,21.75,9.46,4.34,8.16,21.11-5.22,23.61-28.66,5.36-66.72,14.28-95.08,8.98-49.12-9.17-40.16-39.1-34.3-45.81Z"/>
    </g>
  </g>
  <g>
    <path class="cls-7" d="m670.19,679.03H146.11c-.89,0-1.61-.72-1.61-1.61s.72-1.61,1.61-1.61h524.08c.89,0,1.61.72,1.61,1.61s-.72,1.61-1.61,1.61Z"/>
    <path class="cls-7" d="m987.33,679.03h-265.37c-.89,0-1.61-.72-1.61-1.61s.72-1.61,1.61-1.61h265.37c.89,0,1.61.72,1.61,1.61s-.72,1.61-1.61,1.61Z"/>
    <path class="cls-7" d="m1200.92,635.49H1.61c-.89,0-1.61-.72-1.61-1.61s.72-1.61,1.61-1.61h1199.31c.89,0,1.61.72,1.61,1.61s-.72,1.61-1.61,1.61Z"/>
  </g>
  <g>
    <path class="cls-6" d="m200.93,107.23c3.59-12.01,6.08-20.89,9.05-33.05,1.05-4.31,2.37-9.66,3.97-16.06.31-1.17.66-1.92,1.06-2.26,1.2-.75,3.49-.49,5.63-.37,3.8.39,9.26,1.91,9.19,6.69,0,1.48-.42,3.74-1.25,6.79-1.93,7.02-4.72,15.11-7.48,22.53-3.46,9.17-7.65,19.79-11.68,27.74-.68,1.17-1.88,1.75-3.6,1.75h-9.69c-5.93.25-8.07-5.63-9.14-10.43-2.09-8.74-3.89-16.32-5.4-22.76-2.51-11.28-5.19-21.1-6.69-30.51.3-2.13,3.72-1.91,6.46-2.03,7.17-.2,12.28,2.63,12.92,9.88,2.04,14.09,3.95,25.76,6.65,42.1Z"/>
    <path class="cls-6" d="m266.85,54.42c11.48-.28,21.08,5.02,23.82,16.29,2.21,8.73,1.75,19.53-.97,28.62-2.72,9.27-8.8,17.39-18.33,20.68-6.56,2.59-18.52,2.59-24.7-.42-10.73-4.6-13.58-16.07-13.53-26.96-.2-21.21,10.3-38.57,33.7-38.22Zm-1.94,14.31c-11.71-.3-14.7,13.42-14.59,22.62,0,5.6.94,9.69,2.82,12.28,3.04,4.69,11.14,5.2,14.91,1.15,3.72-3.72,5.55-9.29,6.28-14.49,1.1-8.68,1.48-21.52-9.42-21.56Z"/>
    <path class="cls-6" d="m309.41,120.98c-10.08.01-10.07-5.53-9.32-14.17.43-6.89,1.14-14.81,1.66-22.3.51-7.36,1.23-15.18,1.66-21.88.18-2.83.28-4.77.28-5.82,0-.92.49-1.39,1.48-1.39h5.08c12.02-.44,9.39,10.01,8.96,18.74-1.09,14.47-2.01,31.17-3.23,45.42-.16,1.02-.37,1.38-1.48,1.38h-5.08Z"/>
    <path class="cls-6" d="m338.4,120.98c-8.65.13-10.23-4.41-9.46-12.05.24-4.32.65-9.25,1.02-14.08.74-9.73,1.73-20.31,2.31-29.5.21-3.14.29-5.52.32-8.54-.05-.88.67-1.36,1.39-1.39,12.27.46,28.63-4.6,38.27,4.66,6.24,6.56,5.92,17.55,3.69,25.94-3.61,13.67-17.12,19.93-30.51,16.57l-1.29,16.99c-.16,1.02-.37,1.38-1.48,1.38h-4.25Zm14.96-52.62c-1.84,0-3.84.26-5.82.46-.3,6.23-.66,14.15-1.2,21.05,8.12,2.24,13.58-1.01,14.96-9.23,1.11-6.59.15-12.62-7.94-12.28Z"/>
  </g>
  <g>
    <path class="cls-3" d="m883.77,107.56h-94.44c-60.39,2.43-60.42,88.62,0,91.07,0,0,94.44,0,94.44,0,60.39-2.43,60.42-88.62,0-91.07Z"/>
    <path class="cls-3" d="m873.25,215.24l-7.24-44.08c-.48-2.95-3.77-4.51-6.36-3.01l-27.32,15.77c-2.59,1.5-2.89,5.12-.57,7.01l34.56,28.31c3.05,2.5,7.57-.11,6.93-4Z"/>
    <path class="cls-5" d="m887.82,135.84h-105.89c-6.78.2-6.84,10.09,0,10.31,0,0,105.89,0,105.89,0,6.78-.2,6.84-10.09,0-10.31Z"/>
    <path class="cls-5" d="m887.82,159.63h-43.64c-6.8.2-6.82,10.09,0,10.31,0,0,43.64,0,43.64,0,6.8-.2,6.82-10.09,0-10.31Z"/>
    <path class="cls-5" d="m826.95,159.63h-45.03c-6.8.2-6.82,10.09,0,10.31,0,0,45.03,0,45.03,0,6.8-.2,6.82-10.09,0-10.31Z"/>
  </g>
  <g>
    <path class="cls-3" d="m608.32,562.47c5.99-1.74,10.67-7.89,11.99-15.77l.72-4.3.72,4.3c1.32,7.88,6,14.04,11.99,15.77l3.27.95-3.27.95c-5.99,1.74-10.67,7.89-11.99,15.77l-.72,4.3-.72-4.3c-1.32-7.88-6-14.04-11.99-15.77l-3.27-.95,3.27-.95Z"/>
    <path class="cls-2" d="m95.84,485.48c7.17-2.08,12.77-9.44,14.35-18.87l.86-5.14.86,5.14c1.58,9.43,7.18,16.79,14.35,18.87l3.91,1.13-3.91,1.13c-7.17,2.08-12.77,9.44-14.35,18.87l-.86,5.15-.86-5.15c-1.58-9.43-7.18-16.79-14.35-18.87l-3.91-1.13,3.91-1.13Z"/>
    <path class="cls-2" d="m1130.29,472.64c6.12-1.77,10.9-8.06,12.25-16.11l.74-4.39.74,4.39c1.35,8.05,6.13,14.34,12.25,16.11l3.34.97-3.34.97c-6.12,1.77-10.9,8.06-12.25,16.11l-.74,4.39-.74-4.39c-1.35-8.05-6.13-14.34-12.25-16.11l-3.34-.97,3.34-.97Z"/>
    <path class="cls-3" d="m1074,64.93c6.12-1.77,10.9-8.06,12.25-16.11l.74-4.39.74,4.39c1.35,8.05,6.13,14.34,12.25,16.11l3.34.97-3.34.97c-6.12,1.77-10.9,8.06-12.25,16.11l-.74,4.39-.74-4.39c-1.35-8.05-6.13-14.34-12.25-16.11l-3.34-.97,3.34-.97Z"/>
    <path class="cls-6" d="m463.36,191.26c6.12-1.77,10.9-8.06,12.25-16.11l.74-4.39.74,4.39c1.35,8.05,6.13,14.34,12.25,16.11l3.34.97-3.34.97c-6.12,1.77-10.9,8.06-12.25,16.11l-.74,4.39-.74-4.39c-1.35-8.05-6.13-14.34-12.25-16.11l-3.34-.97,3.34-.97Z"/>
    <path class="cls-3" d="m105.97,106.65c5.75-1.67,10.25-7.58,11.52-15.15l.69-4.13.69,4.13c1.27,7.57,5.76,13.48,11.52,15.15l3.14.91-3.14.91c-5.75,1.67-10.25,7.58-11.52,15.15l-.69,4.13-.69-4.13c-1.27-7.57-5.76-13.48-11.52-15.15l-3.14-.91,3.14-.91Z"/>
  </g>
</svg>