<?xml version="1.0" encoding="UTF-8"?>
<svg xmlns="http://www.w3.org/2000/svg" xmlns:xlink="http://www.w3.org/1999/xlink" viewBox="0 0 422.17 342.49">
  <defs>
    <style>
      .cls-1 {
        fill: #5f281c;
      }

      .cls-1, .cls-2, .cls-3, .cls-4, .cls-5, .cls-6, .cls-7, .cls-8, .cls-9, .cls-10, .cls-11, .cls-12, .cls-13, .cls-14, .cls-15, .cls-16, .cls-17, .cls-18, .cls-19, .cls-20, .cls-21, .cls-22 {
        stroke-width: 0px;
      }

      .cls-2 {
        fill: #86593e;
      }

      .cls-3 {
        fill: #422e2d;
      }

      .cls-23, .cls-24, .cls-25, .cls-26 {
        stroke-miterlimit: 10;
      }

      .cls-23, .cls-24, .cls-26 {
        stroke: #70927f;
        stroke-width: .25px;
      }

      .cls-23, .cls-25, .cls-11, .cls-27 {
        fill: none;
      }

      .cls-4 {
        fill: #9a2532;
      }

      .cls-5 {
        fill: #ffd788;
      }

      .cls-6 {
        fill: #709480;
      }

      .cls-24, .cls-12 {
        fill: #fff;
      }

      .cls-7 {
        fill: #e8dfcf;
      }

      .cls-25 {
        stroke: #422e2d;
      }

      .cls-8 {
        fill: #e3e3e3;
      }

      .cls-9 {
        fill: #b58e67;
      }

      .cls-10 {
        fill: #a5bbaa;
      }

      .cls-26, .cls-22 {
        fill: #f3f5f4;
      }

      .cls-13 {
        fill: #b1432d;
      }

      .cls-27 {
        stroke: #f3f5f4;
        stroke-linecap: round;
        stroke-linejoin: round;
      }

      .cls-14 {
        fill: #d1cec7;
      }

      .cls-28 {
        clip-path: url(#clippath);
      }

      .cls-15 {
        fill: #b7c9b9;
      }

      .cls-16 {
        fill: #70927f;
      }

      .cls-17 {
        fill: #f1eadf;
      }

      .cls-18 {
        fill: #b14330;
      }

      .cls-19 {
        fill: #ffb84f;
      }

      .cls-20 {
        fill: #b4c6b6;
      }

      .cls-21 {
        fill: #efebdf;
      }
    </style>
    <clipPath id="clippath">
      <circle class="cls-11" cx="318.3" cy="101.43" r="70.39"/>
    </clipPath>
  </defs>
  <g id="BACKGROUND">
    <g>
      <path class="cls-22" d="m0,164.33C0,107.16,72.9-15.01,176.58,1.52c74.51,11.88,43.56,94.4,181.75,125.14,107.61,23.94,76.76,177.06-74.36,185.37C116.33,321.24,0,271.51,0,164.33Z"/>
      <path class="cls-23" d="m358.28,203.31c-48.05,39.39-15.68,106.99,3.26,100.74,16.91-5.58-23.98-94.26-84.39-87.26-99.46,11.53-127.48,57.51-195.25,39.53C13.65,238.22.4,162.44,66.65,119.19,132.67,76.1,27.67,2.36,19.41,26.15c-4.71,13.57,47.41,46.87,84.6,15.19,37.19-31.68,86.44-35.74,117.37,21.9,30.93,57.64,94.05,23.51,134.36,15.58,40.31-7.92,105.82,39.83,2.54,124.49Z"/>
    </g>
  </g>
  <g id="OBJECTS">
    <g>
      <g>
        <circle class="cls-12" cx="312.6" cy="103.12" r="70.39"/>
        <circle class="cls-22" cx="318.3" cy="101.43" r="70.39"/>
        <circle class="cls-23" cx="312.6" cy="103.12" r="70.39"/>
      </g>
      <g class="cls-28">
        <g>
          <g>
            <polygon class="cls-18" points="300.21 173.5 288.57 173.5 289.49 147.99 299.64 147.99 300.21 173.5"/>
            <polygon class="cls-19" points="293.49 104.73 281.36 146.56 285.53 150.7 281.36 155.73 303.45 158.2 293.49 104.73"/>
          </g>
          <g>
            <polygon class="cls-19" points="300.21 174.42 334.56 174.42 346.41 99.63 327.35 98.43 305.94 99.63 293.49 104.73 300.21 174.42"/>
            <polygon class="cls-18" points="311.74 110.77 327.35 98.43 321.64 79.52 305.06 81.7 311.74 110.77"/>
            <polygon class="cls-1" points="308.47 96.53 316.1 87.01 305.06 81.7 308.47 96.53"/>
            <path class="cls-18" d="m293.83,71.64c-.77,8.7,2.09,19.36,10.79,20.13,8.7.77,19.22-9.58,19.99-18.27.77-8.7,3.98-23.16-7.81-24.2-17.14-1.52-22.2,13.65-22.97,22.35Z"/>
            <path class="cls-25" d="m309.59,63.91s.39,3.01,3.88,4.85"/>
            <path class="cls-25" d="m296.43,64.44s2.25.74,4.16-.53"/>
            <path class="cls-12" d="m299.3,79.52s4.05.4,10.06,0c0,0-3.06,3.75-7.58,3.37-1.04-.09-2.47-3.37-2.47-3.37Z"/>
            <ellipse class="cls-3" cx="309.36" cy="71.28" rx="1.22" ry="2.21"/>
            <ellipse class="cls-3" cx="298.41" cy="69.91" rx="1.22" ry="2.21"/>
            <path class="cls-4" d="m302.28,71.28s-.93,3.71-5.3,3.42c0,0,5.52,7.07,5.3-3.42Z"/>
            <g>
              <path class="cls-3" d="m327.35,77.03c10.8-12.92,14.92-15.71,0-26.06,0,0-1.46-9.83-14.29-6.66-19.78,4.88-16.14,6.66-16.79,17.44,0,0,10.66,1.37,19.27-3.66,0,0,.3,6.06,3.84,9.15l-.61,6.48,8.58,3.31Z"/>
              <path class="cls-25" d="m327.35,50.97s1.3-2.71,0-5.53"/>
              <path class="cls-25" d="m326.47,52.46s4.7-2.09,5.09-4.26"/>
            </g>
            <ellipse class="cls-18" cx="324.61" cy="75.92" rx="6.52" ry="5.06" transform="translate(138.78 352.69) rotate(-69.29)"/>
            <polygon class="cls-19" points="330.44 99.63 326.47 89.61 304.33 94.77 310.58 113.63 330.44 99.63"/>
          </g>
          <polygon class="cls-5" points="305.06 96.97 317.46 96.3 305.94 99.63 305.06 96.97"/>
          <polygon class="cls-19" points="346.41 99.63 349.22 154.98 331.8 164.11 330.44 99.63 346.41 99.63"/>
          <g>
            <rect class="cls-10" x="319.95" y="71.9" width="8.69" height="18.16" rx="1.31" ry="1.31" transform="translate(38.79 -92.84) rotate(17.31)"/>
            <rect class="cls-7" x="321.23" y="72.34" width="9" height="18.16" rx="1.31" ry="1.31" transform="translate(38.99 -93.24) rotate(17.31)"/>
            <circle class="cls-10" cx="325.71" cy="74.32" r=".92"/>
          </g>
          <g>
            <path class="cls-18" d="m345.72,152.61l-16.76-62.43-2.54,1.15s-2.38,48.24,8.49,66.65l10.81-5.38Z"/>
            <g>
              <path class="cls-18" d="m328.96,90.18l4.98-10.92s-13.1,3.1-7.52,12.08l2.54-1.15Z"/>
              <path class="cls-18" d="m333.94,79.25l-5.84-5.1s-2.05,3.41,4.79,5.76l1.05-.65Z"/>
              <path class="cls-18" d="m326.4,83.49l3.31-2.17-3.46-4.29s-1.23,2.22,1.93,4.48l-1.78,1.98Z"/>
              <path class="cls-18" d="m332.89,79.91l-6.15-4.87s-1.77,3.1,5.2,5.26l.95-.38Z"/>
            </g>
          </g>
          <polygon class="cls-5" points="300.21 174.42 293.49 104.73 304.33 174.42 300.21 174.42"/>
        </g>
      </g>
      <g>
        <g>
          <rect class="cls-2" x="118.49" y="289.93" width="55.99" height="8.22"/>
          <polygon class="cls-9" points="195.87 338.49 188.9 338.49 156.06 247.02 163.03 247.02 195.87 338.49"/>
          <polygon class="cls-9" points="139.64 338.49 146.61 338.49 154.82 247.02 147.85 247.02 139.64 338.49"/>
          <polygon class="cls-9" points="98.59 338.49 105.57 338.49 138.4 247.02 131.43 247.02 98.59 338.49"/>
        </g>
        <g>
          <path class="cls-19" d="m107.42,182.3h57.88c2.99,0,5.42,2.43,5.42,5.42v60.11h-61.98c-1.96,0-3.55-1.59-3.55-3.55v-59.75c0-1.23,1-2.23,2.23-2.23Z"/>
          <path class="cls-19" d="m133.71,247.84h54.94c2.41,0,4.36,1.96,4.36,4.36h0c0,2.41-1.96,4.36-4.36,4.36h-54.94v-8.73h0Z"/>
          <path class="cls-5" d="m109.9,238.46v-52.46c0-2.04-1.65-3.69-3.69-3.69h0c-2.04,0-3.69,1.65-3.69,3.69v53.15c0,9.62,7.8,17.41,17.41,17.41h12.79c2.41,0,4.36-1.95,4.36-4.36h0c0-2.41-1.95-4.36-4.36-4.36h-13.44c-5.18,0-9.38-4.2-9.38-9.38Z"/>
        </g>
        <path class="cls-15" d="m169.16,247.02h-29.44c-13.77,0-23.56-13.41-19.37-26.53l4.86-15.21,43.18-5.22.77,46.95Z"/>
        <g>
          <polygon class="cls-21" points="173.55 143.33 185.96 187.55 173.55 187.55 160.5 165.44 173.55 143.33"/>
          <g>
            <path class="cls-1" d="m185.39,185.52l31.83,6.16-.86,2.65s-28.25,6.73-42.81-6.78l11.84-2.03Z"/>
            <g>
              <path class="cls-1" d="m217.22,191.67l13.69-1.24-3.79,3.42c-3.01,2.71-7.52,2.91-10.76.48h0s.86-2.65.86-2.65Z"/>
              <path class="cls-1" d="m230.92,190.43l2.49,5.59s-3.61.82-3.55-4.64l1.06-.95Z"/>
              <path class="cls-1" d="m227.89,191.16l2.25,5.91s-4.17.47-2.25-5.91Z"/>
              <path class="cls-1" d="m230.92,190.43l4.65,3.68s-3.14,1.66-4.98-2.96l.32-.73Z"/>
            </g>
          </g>
        </g>
        <rect class="cls-12" x="166.48" y="194.4" width="57.82" height="4.11"/>
        <g>
          <g>
            <path class="cls-12" d="m173.55,143.33l-13.73-5.54h-16.21l-20.73,6.16,9.32,39.38-8.5,21.25h40.14l-3.08-22.24.13-.39c.74-2.24,2.39-4.02,4.5-5.09,3.59-1.81,5.67-4.24,5.96-6.83.13-1.15.03-2.47-.23-3.87-1.17-6.31-.85-12.81,1.15-18.92l1.28-3.92Z"/>
            <path class="cls-21" d="m166.11,178.07c2.24-1.13,4.23-3.58,4.85-6.51,0,0-4.92,4.42-21.99,2.83-19.69-1.83-7.41,12.72-14.44,30.19h29.31l-3.08-22.24.13-.39c.74-2.24,3.12-2.82,5.22-3.88Z"/>
            <polygon class="cls-18" points="157.32 148.64 143.6 137.79 150.87 123.08 163.2 123.08 157.32 148.64"/>
            <polygon class="cls-1" points="160.2 136.12 153.49 127.75 163.2 123.08 160.2 136.12"/>
            <path class="cls-3" d="m150.18,92.88s3.22-2.65,7.25-2.65c3.52,0,12.55,3.71,15.91,12.2,3.36,8.48,4.63,15.66,1.27,25.28l-14.83-4.62-9.6-30.2Z"/>
            <path class="cls-18" d="m173.07,114.24c.68,7.65-1.84,17.02-9.49,17.69s-19.06-8.42-19.73-16.06c-.68-7.65-1.34-20.35,9.03-21.27,15.07-1.33,19.51,12,20.19,19.64Z"/>
            <path class="cls-25" d="m167.03,108.08s2.13-1.11,3.85.38"/>
            <path class="cls-3" d="m142.88,114.67s17.99-.2,21.96-15.91c0,0,2.74.47,6.51,4.71,0,0-1.81-9.28-16.8-9.28s-11.67,20.48-11.67,20.48Z"/>
            <path class="cls-25" d="m164.56,97.58s2.96,12.23-16.23,16.31"/>
            <path class="cls-3" d="m150.18,111.82s-2.96,9.35,1.5,18.23c0,0-14.62,1.91-24.26-8.88-.24-9.74,4.63-19.2,10.75-25.49,5.12-5.26,19.66-6.98,23.35,3.07,0,0-10.03-.29-11.34,13.06Z"/>
            <path class="cls-25" d="m176.04,128.36s6.82-19.08-8.07-31.87"/>
            <path class="cls-25" d="m125.92,119.76s1.49-29.53,26.84-27.36"/>
            <path class="cls-12" d="m168.26,121.17s-3.56.35-8.84,0c0,0,2.69,3.3,6.67,2.96.92-.08,2.17-2.96,2.17-2.96Z"/>
            <ellipse class="cls-3" cx="159.42" cy="113.92" rx="1.08" ry="1.95"/>
            <ellipse class="cls-3" cx="169.04" cy="112.72" rx="1.08" ry="1.95"/>
            <path class="cls-4" d="m165.64,113.92s.82,3.26,4.66,3.01c0,0-4.86,6.22-4.66-3.01Z"/>
            <ellipse class="cls-18" cx="146.07" cy="118.01" rx="4.45" ry="5.73" transform="translate(-32.3 59.3) rotate(-20.71)"/>
          </g>
          <g>
            <g>
              <rect class="cls-6" x="143.44" y="102.27" width="2.17" height="11.61"/>
              <rect class="cls-20" x="141.99" y="102.27" width="2.17" height="11.61"/>
              <path class="cls-6" d="m146.84,104.89v-5.62c0-2.4,1.42-4.79,3.48-6.03,1.08-.65,4.12-2.55,4.12-2.55,0,0-5.28,0-7.63.91l-.62.24c-2.48.95-4.12,3.34-4.12,6v7.06h4.77Z"/>
              <path class="cls-20" d="m145.4,104.89v-5.62c0-2.4,1.34-4.6,3.48-5.71l5.57-2.87-1.7-.14c-2.51-.21-5.03.15-7.38,1.05l-.62.24c-2.48.95-4.12,3.34-4.12,6v7.06h4.77Z"/>
            </g>
            <g>
              <circle class="cls-20" cx="144.04" cy="116.56" r="6.14"/>
              <circle class="cls-17" cx="142.83" cy="116.56" r="6.14"/>
              <circle class="cls-20" cx="142.83" cy="116.56" r="3.85"/>
              <circle class="cls-17" cx="142.83" cy="116.56" r="1.75"/>
            </g>
            <polygon class="cls-17" points="164.67 128.85 150.06 127.17 142.43 116.86 143.24 116.26 150.6 126.23 164.79 127.86 164.67 128.85"/>
            <rect class="cls-20" x="160.76" y="126.66" width="4.87" height="2.7" rx=".64" ry=".64"/>
          </g>
        </g>
        <polygon class="cls-21" points="133.24 167.67 130.44 175.92 128.78 170.22 133.24 167.67"/>
        <polygon class="cls-12" points="122.88 143.95 105.19 188.08 119.8 188.08 133.24 167.67 122.88 143.95"/>
        <path class="cls-15" d="m200.79,198.51h-12.67c0-3.5,2.84-6.34,6.34-6.34s6.34,2.84,6.34,6.34Z"/>
        <g>
          <path class="cls-13" d="m121.89,184.91l61.51,6.77-.86,2.65s-48,16.4-77.34-6.25l16.7-3.17Z"/>
          <g>
            <path class="cls-13" d="m183.4,191.67l13.69-1.24-3.79,3.42c-3.01,2.71-7.52,2.91-10.76.48h0s.86-2.65.86-2.65Z"/>
            <path class="cls-13" d="m197.09,190.43l2.49,5.59s-3.61.82-3.55-4.64l1.06-.95Z"/>
            <path class="cls-13" d="m194.06,191.16l2.25,5.91s-4.17.47-2.25-5.91Z"/>
            <path class="cls-13" d="m197.09,190.43l4.65,3.68s-3.14,1.66-4.98-2.96l.32-.73Z"/>
          </g>
        </g>
        <g>
          <path class="cls-16" d="m254.07,180.58h-56.34c-3.53,0-6.33-2.96-6.13-6.49l2.2-36.59c.18-3.25,2.87-5.8,6.13-5.8h56.34c3.53,0,6.33,2.96,6.13,6.49l-2.2,36.59c-.18,3.25-2.87,5.8-6.13,5.8Z"/>
          <path class="cls-10" d="m257.6,180.58h-56.34c-3.53,0-6.33-2.96-6.13-6.49l2.2-36.59c.18-3.25,2.87-5.8,6.13-5.8h56.34c3.53,0,6.33,2.96,6.13,6.49l-2.2,36.59c-.18,3.25-2.87,5.8-6.13,5.8Z"/>
          <g>
            <g>
              <path class="cls-16" d="m238.04,166.75h-17.58l7.38,26.99c.24.89-.42,1.76-1.34,1.76h-17.15v3.08h31.53c2.94,0,5.08-2.8,4.31-5.64l-7.13-26.19Zm-1.35,22.13c-2.2,0-3.98-1.78-3.98-3.98s1.78-3.98,3.98-3.98,3.98,1.78,3.98,3.98-1.78,3.98-3.98,3.98Z"/>
              <g>
                <path class="cls-16" d="m234.87,156.16h-10.07c-2.4,0-4.35,1.95-4.35,4.35v6.24h18.76v-6.24c0-2.4-1.95-4.35-4.35-4.35Z"/>
                <path class="cls-8" d="m237.76,156.16h-10.07c-2.4,0-4.35,1.95-4.35,4.35v6.24h18.76v-6.24c0-2.4-1.95-4.35-4.35-4.35Z"/>
                <path class="cls-8" d="m249.23,192.69l-7.07-25.95h-18.82l1.06,3.89h0l6.64,24.37c.47,1.74-.77,3.44-2.54,3.57h16.24c3.07,0,5.3-2.92,4.49-5.88Zm-11.1-3.81c-2.2,0-3.98-1.78-3.98-3.98s1.78-3.98,3.98-3.98,3.98,1.78,3.98,3.98-1.78,3.98-3.98,3.98Z"/>
                <path class="cls-10" d="m237.76,156.16h-10.07c-2.4,0-4.35,1.95-4.35,4.35v6.24h18.76v-6.24c0-2.4-1.95-4.35-4.35-4.35Z"/>
              </g>
            </g>
            <path class="cls-10" d="m249.23,192.69l-7.07-25.95h-18.82l1.06,3.89h0l6.64,24.37c.47,1.74-.77,3.44-2.54,3.57h16.24c3.07,0,5.3-2.92,4.49-5.88Zm-11.1-3.81c-2.2,0-3.98-1.78-3.98-3.98s1.78-3.98,3.98-3.98,3.98,1.78,3.98,3.98-1.78,3.98-3.98,3.98Z"/>
            <path class="cls-27" d="m249.23,192.69l-7.07-25.95h-.06v-6.24c0-2.4-1.95-4.35-4.35-4.35h-10.07"/>
            <path class="cls-27" d="m242.17,166.75l7.07,25.95c.81,2.96-1.42,5.88-4.49,5.88"/>
          </g>
          <g>
            <path class="cls-14" d="m202.62,164.33s-.02,0-.03,0c-.24-.01-.43-.22-.42-.47l1.21-21.63c.01-.24.22-.44.47-.42.24.01.43.22.42.47l-1.21,21.63c-.01.24-.21.42-.44.42Z"/>
            <path class="cls-14" d="m205.5,164.33s-.02,0-.03,0c-.24-.01-.43-.22-.42-.47l1.21-21.63c.01-.24.22-.44.47-.42.24.01.43.22.42.47l-1.21,21.63c-.01.24-.21.42-.44.42Z"/>
            <path class="cls-14" d="m208.39,164.33s-.02,0-.03,0c-.24-.01-.43-.22-.42-.47l1.21-21.63c.01-.24.21-.44.47-.42.24.01.43.22.42.47l-1.21,21.63c-.01.24-.21.42-.44.42Z"/>
            <path class="cls-14" d="m211.27,164.33s-.02,0-.03,0c-.24-.01-.43-.22-.42-.47l1.21-21.63c.01-.24.22-.44.47-.42.24.01.43.22.42.47l-1.21,21.63c-.01.24-.21.42-.44.42Z"/>
            <path class="cls-14" d="m214.15,164.33s-.02,0-.03,0c-.24-.01-.43-.22-.42-.47l1.21-21.63c.01-.24.22-.44.47-.42.24.01.43.22.42.47l-1.21,21.63c-.01.24-.21.42-.44.42Z"/>
          </g>
          <g>
            <path class="cls-14" d="m247.6,164.33s-.02,0-.03,0c-.24-.01-.43-.22-.42-.47l1.21-21.63c.01-.24.22-.44.47-.42.24.01.43.22.42.47l-1.21,21.63c-.01.24-.21.42-.44.42Z"/>
            <path class="cls-14" d="m250.48,164.33s-.02,0-.03,0c-.24-.01-.43-.22-.42-.47l1.21-21.63c.01-.24.22-.44.47-.42.24.01.43.22.42.47l-1.21,21.63c-.01.24-.21.42-.44.42Z"/>
            <path class="cls-14" d="m253.36,164.33s-.02,0-.03,0c-.24-.01-.43-.22-.42-.47l1.21-21.63c.01-.24.22-.44.47-.42.24.01.43.22.42.47l-1.21,21.63c-.01.24-.21.42-.44.42Z"/>
            <path class="cls-14" d="m256.25,164.33s-.02,0-.03,0c-.24-.01-.43-.22-.42-.47l1.21-21.63c.01-.24.22-.44.47-.42.24.01.43.22.42.47l-1.21,21.63c-.01.24-.21.42-.44.42Z"/>
            <path class="cls-14" d="m259.13,164.33s-.02,0-.03,0c-.24-.01-.43-.22-.42-.47l1.21-21.63c.01-.24.23-.44.47-.42.24.01.43.22.42.47l-1.21,21.63c-.01.24-.21.42-.44.42Z"/>
          </g>
        </g>
        <path class="cls-15" d="m197.03,215.64h-19.69l-9.71,105.17h3.04c22.84-61.11,29.4-88.6,31.28-99.31.54-3.06-1.82-5.86-4.93-5.86Z"/>
        <path class="cls-10" d="m168,316.81s21.81-56.21,16.19-94.19c-.36-2.42-6.85-6.98-6.85-6.98l-9.34,101.16Z"/>
        <path class="cls-15" d="m177.97,215.64h-16.72s-39.25,101.16-39.25,101.16l2.46,4.01c28.29-43.48,54.12-82.07,59.47-96.62,1.53-4.15-1.53-8.55-5.96-8.55Z"/>
        <path class="cls-10" d="m154.82,233.2c-9.56,2.34-19.62-.98-21.58-6.97-2.23-6.79,3.45-10.58,3.45-10.58l-4.19-11.25-7.3.88-4.86,15.21c-4.19,13.12,5.6,26.53,19.37,26.53h9.37l-27.08,69.79c40.62-64.64,32.82-83.61,32.82-83.61Z"/>
        <polygon class="cls-16" points="124.74 206.74 168.45 206.74 168.64 215.64 121.89 215.64 124.74 206.74"/>
        <g>
          <polygon class="cls-13" points="170.68 320.81 170.68 333.35 178.52 334.2 168.28 334.2 167.63 326.53 164.02 321.79 168 316.81 170.68 320.81"/>
          <path class="cls-7" d="m178.52,334.2l-1.22,4.29h-8.1c-1.39,0-2.52-1.13-2.52-2.52v-8.45l-4.14-5.38,5.47-5.33.27,17.39h10.25Z"/>
          <polygon class="cls-7" points="162.54 322.14 162.54 338.49 165.38 323.95 162.54 322.14"/>
        </g>
        <g>
          <polygon class="cls-13" points="124.67 320.81 124.67 333.35 132.52 334.2 122.27 334.2 121.63 326.53 118.01 321.79 122 316.81 124.67 320.81"/>
          <path class="cls-7" d="m132.52,334.2l-1.22,4.29h-8.1c-1.39,0-2.52-1.13-2.52-2.52v-8.45l-4.14-5.38,5.47-5.33.27,17.39h10.25Z"/>
          <polygon class="cls-7" points="116.53 322.14 116.53 338.49 119.38 323.95 116.53 322.14"/>
        </g>
        <g>
          <g>
            <g>
              <path class="cls-7" d="m81.69,206.74h40.28v124.41c0,4.05-3.29,7.34-7.34,7.34h-25.6c-4.05,0-7.34-3.29-7.34-7.34v-124.41h0Z"/>
              <path class="cls-10" d="m75.95,206.74h40.28v124.41c0,4.05-3.29,7.34-7.34,7.34h-25.6c-4.05,0-7.34-3.29-7.34-7.34v-124.41h0Z"/>
            </g>
            <g>
              <path class="cls-7" d="m237.72,206.74h40.28v124.41c0,4.05-3.29,7.34-7.34,7.34h-25.6c-4.05,0-7.34-3.29-7.34-7.34v-124.41h0Z"/>
              <path class="cls-10" d="m231.97,206.74h40.28v124.41c0,4.05-3.29,7.34-7.34,7.34h-25.6c-4.05,0-7.34-3.29-7.34-7.34v-124.41h0Z"/>
            </g>
          </g>
          <g>
            <rect class="cls-10" x="59.3" y="198.51" width="213.62" height="12.68" rx="4.65" ry="4.65"/>
            <rect class="cls-7" x="151.84" y="198.51" width="151.88" height="12.68" rx="4.65" ry="4.65"/>
          </g>
          <rect class="cls-16" x="75.95" y="211.19" width="40.28" height="7.42"/>
          <rect class="cls-16" x="231.97" y="211.19" width="40.28" height="7.42"/>
        </g>
      </g>
      <g>
        <path class="cls-24" d="m285.67,76.45l-10.28-8.23h-65.1c-4.34,0-7.85-3.52-7.85-7.85v-10.77c0-4.34,3.52-7.85,7.85-7.85h67.53c4.34,0,7.85,3.52,7.85,7.85v26.86Z"/>
        <g>
          <line class="cls-23" x1="211.72" y1="48.3" x2="257.31" y2="48.3"/>
          <line class="cls-23" x1="211.72" y1="54.35" x2="257.31" y2="54.35"/>
          <line class="cls-23" x1="211.72" y1="60.41" x2="257.31" y2="60.41"/>
        </g>
      </g>
      <g>
        <path class="cls-24" d="m184.59,113.27l10.28-8.23h65.1c4.34,0,7.85-3.52,7.85-7.85v-10.77c0-4.34-3.52-7.85-7.85-7.85h-67.53c-4.34,0-7.85,3.52-7.85,7.85v26.86Z"/>
        <g>
          <line class="cls-23" x1="258.53" y1="85.11" x2="212.94" y2="85.11"/>
          <line class="cls-23" x1="258.53" y1="91.17" x2="212.94" y2="91.17"/>
          <line class="cls-23" x1="258.53" y1="97.23" x2="212.94" y2="97.23"/>
        </g>
      </g>
      <path class="cls-10" d="m346.69,65.01l.26-.06c4.17,2.5,6.88,2.38,8.25.25l.04-.06c1.16-1.8.58-3.95-1.74-5.44-2.03-1.3-4.28-1.48-6.88-.83l-.76-4.13c3.23-.92,6.58-.82,10.05,1.41,4.51,2.89,5.95,7.37,3.37,11.39l-.04.06c-2.6,4.06-6.71,4.01-10.68,2.33l-1.98,2.37-2.61-1.67,2.71-5.63Zm-5.38,7.73l4.31,2.77-2.85,4.44-4.31-2.77,2.85-4.44Z"/>
      <g>
        <g>
          <g>
            <path class="cls-7" d="m68.85,247.31h0c5.8,0,10.51,4.71,10.51,10.51v67.87c0,1.52-1.23,2.75-2.75,2.75h-15.52c-1.52,0-2.75-1.23-2.75-2.75v-67.87c0-5.8,4.71-10.51,10.51-10.51Z"/>
            <path class="cls-7" d="m78.14,288.85h-6.92c-2.86,0-5.18-2.32-5.18-5.18s2.32-5.18,5.18-5.18h6.92c3.85,0,6.98-3.13,6.98-6.98v-7.25c0-2.86,2.32-5.18,5.18-5.18s5.18,2.32,5.18,5.18v7.25c0,9.56-7.78,17.34-17.34,17.34Z"/>
            <path class="cls-7" d="m67.17,302.5h-7.25c-9.56,0-17.34-7.78-17.34-17.34v-6.92c0-2.86,2.32-5.18,5.18-5.18s5.18,2.32,5.18,5.18v6.92c0,3.85,3.13,6.98,6.98,6.98h7.25c2.86,0,5.18,2.32,5.18,5.18s-2.32,5.18-5.18,5.18Z"/>
          </g>
          <g>
            <rect class="cls-22" x="62.86" y="259.1" width=".86" height="3.6"/>
            <rect class="cls-22" x="73.87" y="253.7" width=".86" height="3.6"/>
            <rect class="cls-22" x="67.74" y="274.64" width=".86" height="3.6"/>
            <rect class="cls-22" x="70.8" y="263.73" width=".86" height="3.6"/>
            <rect class="cls-22" x="75.51" y="294.56" width=".86" height="3.6"/>
            <rect class="cls-22" x="87.28" y="262.46" width=".86" height="3.6"/>
            <rect class="cls-22" x="62.86" y="286.07" width=".86" height="3.6"/>
            <rect class="cls-22" x="63.76" y="301.46" width=".86" height="3.6"/>
            <rect class="cls-22" x="71.87" y="285.25" width=".86" height="3.6"/>
            <rect class="cls-22" x="45.61" y="285.98" width=".86" height="3.6"/>
            <rect class="cls-22" x="49.75" y="279.26" width=".86" height="3.6"/>
            <rect class="cls-22" x="51.65" y="289.58" width=".86" height="3.6"/>
            <rect class="cls-22" x="76.27" y="271.51" width=".86" height="3.6"/>
            <rect class="cls-22" x="89.08" y="276.44" width=".86" height="3.6"/>
          </g>
        </g>
        <g>
          <path class="cls-22" d="m86.65,308.5h-35.24c-.95,0-1.69.84-1.56,1.78l3.65,27.33c.37,2.79,2.76,4.88,5.57,4.88h20.52c2.86,0,5.27-2.15,5.59-5l3.03-27.24c.1-.93-.63-1.75-1.56-1.75Z"/>
          <polygon class="cls-16" points="86.58 324.98 87.19 319.44 51.08 319.44 51.82 324.98 86.58 324.98"/>
        </g>
      </g>
      <circle class="cls-26" cx="51.75" cy="167.67" r="8.74"/>
      <circle class="cls-26" cx="324.48" cy="188.08" r="8.74"/>
      <circle class="cls-26" cx="314.49" cy="243.55" r="4.37"/>
      <polygon class="cls-26" points="374.39 107.16 371.03 121 360.56 110.53 374.39 107.16"/>
      <polygon class="cls-26" points="141.04 68.14 128.88 75.55 128.88 60.74 141.04 68.14"/>
      <polygon class="cls-26" points="375.26 239.18 363.09 246.58 363.09 231.77 375.26 239.18"/>
      <g>
        <rect class="cls-24" x="324.48" y="187.96" width="70.52" height="24.21" rx="6.39" ry="6.39"/>
        <g>
          <line class="cls-23" x1="382.54" y1="194.01" x2="336.95" y2="194.01"/>
          <line class="cls-23" x1="382.54" y1="200.06" x2="336.95" y2="200.06"/>
          <line class="cls-23" x1="382.54" y1="206.12" x2="336.95" y2="206.12"/>
        </g>
      </g>
      <g>
        <rect class="cls-24" x="39.47" y="110.36" width="70.52" height="24.21" rx="6.39" ry="6.39"/>
        <g>
          <line class="cls-23" x1="97.53" y1="116.4" x2="51.94" y2="116.4"/>
          <line class="cls-23" x1="97.53" y1="122.46" x2="51.94" y2="122.46"/>
          <line class="cls-23" x1="97.53" y1="128.52" x2="51.94" y2="128.52"/>
        </g>
      </g>
    </g>
  </g>
</svg>