<?xml version="1.0" encoding="UTF-8"?>
<svg id="Layer_1" data-name="Layer 1" xmlns="http://www.w3.org/2000/svg" viewBox="0 0 2000 1435.05">
  <defs>
    <style>
      .cls-1 {
        fill: #f9fafa;
      }

      .cls-1, .cls-2, .cls-3, .cls-4, .cls-5, .cls-6, .cls-7, .cls-8, .cls-9 {
        stroke-width: 0px;
      }

      .cls-2 {
        fill: #37a8d8;
      }

      .cls-3 {
        fill: #fff;
      }

      .cls-4 {
        fill: #414143;
      }

      .cls-5 {
        fill: #f1f2f2;
      }

      .cls-6 {
        fill: #f6f7f7;
      }

      .cls-7 {
        fill: #fda506;
      }

      .cls-8 {
        fill: #c45230;
      }

      .cls-9 {
        fill: #19a1a7;
      }
    </style>
  </defs>
  <g>
    <rect class="cls-2" x="335.79" y="526.95" width="223.27" height="223.27" transform="translate(582.6 -129.34) rotate(45)"/>
    <path class="cls-3" d="m447.43,803.54l-164.95-164.95,164.95-164.95,164.95,164.95-164.95,164.95Zm-150.81-164.95l150.81,150.81,150.81-150.81-150.81-150.81-150.81,150.81Z"/>
  </g>
  <g>
    <rect class="cls-7" x="177.91" y="684.83" width="223.27" height="223.27" transform="translate(647.99 28.54) rotate(45)"/>
    <path class="cls-3" d="m289.55,961.41l-164.95-164.95,164.95-164.95,164.95,164.95-164.95,164.95Zm-150.81-164.95l150.81,150.81,150.81-150.81-150.81-150.81-150.81,150.81Z"/>
  </g>
  <g>
    <rect class="cls-8" x="651.55" y="526.95" width="223.27" height="223.27" transform="translate(675.08 -352.61) rotate(45)"/>
    <path class="cls-3" d="m763.18,803.54l-164.95-164.95,164.95-164.95,164.95,164.95-164.95,164.95Zm-150.81-164.95l150.81,150.81,150.81-150.81-150.81-150.81-150.81,150.81Z"/>
  </g>
  <g>
    <rect class="cls-9" x="493.67" y="684.83" width="223.27" height="223.27" transform="translate(740.47 -194.74) rotate(45)"/>
    <path class="cls-3" d="m605.3,961.41l-164.95-164.95,164.95-164.95,164.95,164.95-164.95,164.95Zm-150.81-164.95l150.81,150.81,150.81-150.81-150.81-150.81-150.81,150.81Z"/>
  </g>
  <g>
    <rect class="cls-7" x="967.3" y="526.95" width="223.27" height="223.27" transform="translate(767.56 -575.89) rotate(45)"/>
    <path class="cls-3" d="m1078.94,803.54l-164.95-164.95,164.95-164.95,164.95,164.95-164.95,164.95Zm-150.81-164.95l150.81,150.81,150.81-150.81-150.81-150.81-150.81,150.81Z"/>
  </g>
  <g>
    <rect class="cls-4" x="809.42" y="684.83" width="223.27" height="223.27" transform="translate(832.96 -418.01) rotate(45)"/>
    <path class="cls-3" d="m921.06,961.41l-164.95-164.95,164.95-164.95,164.95,164.95-164.95,164.95Zm-150.81-164.95l150.81,150.81,150.81-150.81-150.81-150.81-150.81,150.81Z"/>
  </g>
  <g>
    <rect class="cls-4" x="1283.06" y="526.95" width="223.27" height="223.27" transform="translate(860.05 -799.16) rotate(45)"/>
    <path class="cls-3" d="m1394.7,803.54l-164.95-164.95,164.95-164.95,164.95,164.95-164.95,164.95Zm-150.81-164.95l150.81,150.81,150.81-150.81-150.81-150.81-150.81,150.81Z"/>
  </g>
  <g>
    <rect class="cls-8" x="1125.18" y="684.83" width="223.27" height="223.27" transform="translate(925.44 -641.28) rotate(45)"/>
    <path class="cls-3" d="m1236.82,961.41l-164.95-164.95,164.95-164.95,164.95,164.95-164.95,164.95Zm-150.81-164.95l150.81,150.81,150.81-150.81-150.81-150.81-150.81,150.81Z"/>
  </g>
  <g>
    <rect class="cls-9" x="1598.82" y="526.95" width="223.27" height="223.27" transform="translate(952.53 -1022.44) rotate(45)"/>
    <path class="cls-3" d="m1710.45,803.54l-164.95-164.95,164.95-164.95,164.95,164.95-164.95,164.95Zm-150.81-164.95l150.81,150.81,150.81-150.81-150.81-150.81-150.81,150.81Z"/>
  </g>
  <g>
    <rect class="cls-2" x="1440.94" y="684.83" width="223.27" height="223.27" transform="translate(1017.92 -864.56) rotate(45)"/>
    <path class="cls-3" d="m1552.58,961.41l-164.95-164.95,164.95-164.95,164.95,164.95-164.95,164.95Zm-150.81-164.95l150.81,150.81,150.81-150.81-150.81-150.81-150.81,150.81Z"/>
  </g>
  <g>
    <rect class="cls-6" x="335.79" y="211.19" width="223.27" height="223.27" transform="translate(359.32 -221.82) rotate(45)"/>
    <path class="cls-3" d="m447.43,487.78l-164.95-164.95,164.95-164.95,164.95,164.95-164.95,164.95Zm-150.81-164.95l150.81,150.81,150.81-150.81-150.81-150.81-150.81,150.81Z"/>
  </g>
  <g>
    <polygon class="cls-6" points="289.55 322.83 131.67 164.95 0 296.62 0 349.04 131.67 480.71 289.55 322.83"/>
    <polygon class="cls-3" points="296.62 322.83 131.67 157.88 0 289.55 0 303.69 131.67 172.02 282.48 322.83 131.67 473.64 0 341.97 0 356.11 131.67 487.78 296.62 322.83"/>
  </g>
  <g>
    <rect class="cls-5" x="177.91" y="369.07" width="223.27" height="223.27" transform="translate(424.72 -63.94) rotate(45)"/>
    <path class="cls-3" d="m289.55,645.66l-164.95-164.95,164.95-164.95,164.95,164.95-164.95,164.95Zm-150.81-164.95l150.81,150.81,150.81-150.81-150.81-150.81-150.81,150.81Z"/>
  </g>
  <g>
    <rect class="cls-1" x="177.91" y="53.31" width="223.27" height="223.27" transform="translate(201.44 -156.43) rotate(45)"/>
    <path class="cls-3" d="m289.55,329.9L124.6,164.95,289.55,0l164.95,164.95-164.95,164.95Zm-150.81-164.95l150.81,150.81,150.81-150.81L289.55,14.14l-150.81,150.81Z"/>
  </g>
  <g>
    <polygon class="cls-1" points="289.55 1270.1 131.67 1112.22 0 1243.89 0 1296.31 131.67 1427.98 289.55 1270.1"/>
    <polygon class="cls-3" points="296.62 1270.1 131.67 1105.15 0 1236.82 0 1250.96 131.67 1119.29 282.48 1270.1 131.67 1420.91 0 1289.24 0 1303.38 131.67 1435.05 296.62 1270.1"/>
  </g>
  <g>
    <rect class="cls-1" x="335.79" y="1158.46" width="223.27" height="223.27" transform="translate(1029.14 55.63) rotate(45)"/>
    <path class="cls-3" d="m447.43,1435.05l-164.95-164.95,164.95-164.95,164.95,164.95-164.95,164.95Zm-150.81-164.95l150.81,150.81,150.81-150.81-150.81-150.81-150.81,150.81Z"/>
  </g>
  <g>
    <rect class="cls-1" x="651.55" y="1158.46" width="223.27" height="223.27" transform="translate(1121.63 -167.65) rotate(45)"/>
    <path class="cls-3" d="m763.18,1435.05l-164.95-164.95,164.95-164.95,164.95,164.95-164.95,164.95Zm-150.81-164.95l150.81,150.81,150.81-150.81-150.81-150.81-150.81,150.81Z"/>
  </g>
  <g>
    <rect class="cls-1" x="967.3" y="1158.46" width="223.27" height="223.27" transform="translate(1214.11 -390.92) rotate(45)"/>
    <path class="cls-3" d="m1078.94,1435.05l-164.95-164.95,164.95-164.95,164.95,164.95-164.95,164.95Zm-150.81-164.95l150.81,150.81,150.81-150.81-150.81-150.81-150.81,150.81Z"/>
  </g>
  <g>
    <rect class="cls-1" x="1283.06" y="1158.46" width="223.27" height="223.27" transform="translate(1306.59 -614.2) rotate(45)"/>
    <path class="cls-3" d="m1394.7,1435.05l-164.95-164.95,164.95-164.95,164.95,164.95-164.95,164.95Zm-150.81-164.95l150.81,150.81,150.81-150.81-150.81-150.81-150.81,150.81Z"/>
  </g>
  <g>
    <rect class="cls-1" x="1598.82" y="1158.46" width="223.27" height="223.27" transform="translate(1399.08 -837.47) rotate(45)"/>
    <path class="cls-3" d="m1710.45,1435.05l-164.95-164.95,164.95-164.95,164.95,164.95-164.95,164.95Zm-150.81-164.95l150.81,150.81,150.81-150.81-150.81-150.81-150.81,150.81Z"/>
  </g>
  <g>
    <polygon class="cls-1" points="1868.33 1270.1 2000 1401.77 2000 1138.43 1868.33 1270.1"/>
    <polygon class="cls-3" points="1875.4 1270.1 2000 1145.5 2000 1131.36 1861.26 1270.1 2000 1408.84 2000 1394.7 1875.4 1270.1"/>
  </g>
  <g>
    <rect class="cls-1" x="493.67" y="53.31" width="223.27" height="223.27" transform="translate(293.93 -379.7) rotate(45)"/>
    <path class="cls-3" d="m605.3,329.9l-164.95-164.95L605.3,0l164.95,164.95-164.95,164.95Zm-150.81-164.95l150.81,150.81,150.81-150.81L605.3,14.14l-150.81,150.81Z"/>
  </g>
  <g>
    <rect class="cls-1" x="809.42" y="53.31" width="223.27" height="223.27" transform="translate(386.41 -602.98) rotate(45)"/>
    <path class="cls-3" d="m921.06,329.9l-164.95-164.95L921.06,0l164.95,164.95-164.95,164.95Zm-150.81-164.95l150.81,150.81,150.81-150.81L921.06,14.14l-150.81,150.81Z"/>
  </g>
  <g>
    <rect class="cls-1" x="1125.18" y="53.31" width="223.27" height="223.27" transform="translate(478.89 -826.25) rotate(45)"/>
    <path class="cls-3" d="m1236.82,329.9l-164.95-164.95L1236.82,0l164.95,164.95-164.95,164.95Zm-150.81-164.95l150.81,150.81,150.81-150.81L1236.82,14.14l-150.81,150.81Z"/>
  </g>
  <g>
    <rect class="cls-1" x="1440.94" y="53.31" width="223.27" height="223.27" transform="translate(571.38 -1049.52) rotate(45)"/>
    <path class="cls-3" d="m1552.58,329.9l-164.95-164.95L1552.58,0l164.95,164.95-164.95,164.95Zm-150.81-164.95l150.81,150.81,150.81-150.81L1552.58,14.14l-150.81,150.81Z"/>
  </g>
  <g>
    <polygon class="cls-1" points="1710.45 164.95 1868.33 322.83 2000 191.16 2000 138.74 1868.33 7.07 1710.45 164.95"/>
    <polygon class="cls-3" points="1703.38 164.95 1868.33 329.9 2000 198.23 2000 184.09 1868.33 315.76 1717.53 164.95 1868.33 14.14 2000 145.81 2000 131.67 1868.33 0 1703.38 164.95"/>
  </g>
  <polygon class="cls-1" points="0 33.28 0 296.62 131.67 164.95 0 33.28"/>
  <polygon class="cls-3" points="0 26.21 0 40.35 124.6 164.95 0 289.55 0 303.69 138.74 164.95 0 26.21"/>
  <g>
    <polygon class="cls-5" points="0 349.04 0 612.38 131.67 480.71 0 349.04"/>
    <polygon class="cls-3" points="0 341.97 0 356.11 124.6 480.71 0 605.3 0 619.45 138.74 480.71 0 341.97"/>
  </g>
  <g>
    <polygon class="cls-5" points="289.55 638.59 131.67 480.71 0 612.38 0 664.8 131.67 796.46 289.55 638.59"/>
    <polygon class="cls-3" points="296.62 638.59 131.67 473.64 0 605.3 0 619.45 131.67 487.78 282.48 638.59 131.67 789.39 0 657.73 0 671.87 131.67 803.54 296.62 638.59"/>
  </g>
  <g>
    <rect class="cls-6" x="651.55" y="211.19" width="223.27" height="223.27" transform="translate(451.81 -445.1) rotate(45)"/>
    <path class="cls-3" d="m763.18,487.78l-164.95-164.95,164.95-164.95,164.95,164.95-164.95,164.95Zm-150.81-164.95l150.81,150.81,150.81-150.81-150.81-150.81-150.81,150.81Z"/>
  </g>
  <g>
    <rect class="cls-5" x="493.67" y="369.07" width="223.27" height="223.27" transform="translate(517.2 -287.22) rotate(45)"/>
    <path class="cls-3" d="m605.3,645.66l-164.95-164.95,164.95-164.95,164.95,164.95-164.95,164.95Zm-150.81-164.95l150.81,150.81,150.81-150.81-150.81-150.81-150.81,150.81Z"/>
  </g>
  <g>
    <rect class="cls-6" x="967.3" y="211.19" width="223.27" height="223.27" transform="translate(544.29 -668.37) rotate(45)"/>
    <path class="cls-3" d="m1078.94,487.78l-164.95-164.95,164.95-164.95,164.95,164.95-164.95,164.95Zm-150.81-164.95l150.81,150.81,150.81-150.81-150.81-150.81-150.81,150.81Z"/>
  </g>
  <g>
    <rect class="cls-5" x="809.42" y="369.07" width="223.27" height="223.27" transform="translate(609.68 -510.49) rotate(45)"/>
    <path class="cls-3" d="m921.06,645.66l-164.95-164.95,164.95-164.95,164.95,164.95-164.95,164.95Zm-150.81-164.95l150.81,150.81,150.81-150.81-150.81-150.81-150.81,150.81Z"/>
  </g>
  <g>
    <rect class="cls-6" x="1283.06" y="211.19" width="223.27" height="223.27" transform="translate(636.77 -891.64) rotate(45)"/>
    <path class="cls-3" d="m1394.7,487.78l-164.95-164.95,164.95-164.95,164.95,164.95-164.95,164.95Zm-150.81-164.95l150.81,150.81,150.81-150.81-150.81-150.81-150.81,150.81Z"/>
  </g>
  <g>
    <rect class="cls-5" x="1125.18" y="369.07" width="223.27" height="223.27" transform="translate(702.17 -733.77) rotate(45)"/>
    <path class="cls-3" d="m1236.82,645.66l-164.95-164.95,164.95-164.95,164.95,164.95-164.95,164.95Zm-150.81-164.95l150.81,150.81,150.81-150.81-150.81-150.81-150.81,150.81Z"/>
  </g>
  <g>
    <rect class="cls-6" x="1598.82" y="211.19" width="223.27" height="223.27" transform="translate(729.25 -1114.92) rotate(45)"/>
    <path class="cls-3" d="m1710.45,487.78l-164.95-164.95,164.95-164.95,164.95,164.95-164.95,164.95Zm-150.81-164.95l150.81,150.81,150.81-150.81-150.81-150.81-150.81,150.81Z"/>
  </g>
  <g>
    <polygon class="cls-6" points="1868.33 322.83 2000 454.5 2000 191.16 1868.33 322.83"/>
    <polygon class="cls-3" points="1875.4 322.83 2000 198.23 2000 184.09 1861.26 322.83 2000 461.57 2000 447.42 1875.4 322.83"/>
  </g>
  <g>
    <polygon class="cls-5" points="1710.45 480.71 1868.33 638.59 2000 506.92 2000 454.5 1868.33 322.83 1710.45 480.71"/>
    <polygon class="cls-3" points="1703.38 480.71 1868.33 645.66 2000 513.99 2000 499.85 1868.33 631.51 1717.52 480.71 1868.33 329.9 2000 461.57 2000 447.42 1868.33 315.76 1703.38 480.71"/>
  </g>
  <g>
    <rect class="cls-5" x="1440.94" y="369.07" width="223.27" height="223.27" transform="translate(794.65 -957.04) rotate(45)"/>
    <path class="cls-3" d="m1552.58,645.66l-164.95-164.95,164.95-164.95,164.95,164.95-164.95,164.95Zm-150.81-164.95l150.81,150.81,150.81-150.81-150.81-150.81-150.81,150.81Z"/>
  </g>
  <g>
    <rect class="cls-5" x="335.79" y="842.71" width="223.27" height="223.27" transform="translate(805.87 -36.86) rotate(45)"/>
    <path class="cls-3" d="m447.43,1119.29l-164.95-164.95,164.95-164.95,164.95,164.95-164.95,164.95Zm-150.81-164.95l150.81,150.81,150.81-150.81-150.81-150.81-150.81,150.81Z"/>
  </g>
  <g>
    <rect class="cls-6" x="177.91" y="1000.58" width="223.27" height="223.27" transform="translate(871.27 121.02) rotate(45)"/>
    <path class="cls-3" d="m289.55,1277.17l-164.95-164.95,164.95-164.95,164.95,164.95-164.95,164.95Zm-150.81-164.95l150.81,150.81,150.81-150.81-150.81-150.81-150.81,150.81Z"/>
  </g>
  <g>
    <polygon class="cls-6" points="0 980.55 0 1243.89 131.67 1112.22 0 980.55"/>
    <polygon class="cls-3" points="0 973.48 0 987.62 124.6 1112.22 0 1236.82 0 1250.96 138.74 1112.22 0 973.48"/>
  </g>
  <g>
    <polygon class="cls-5" points="289.55 954.34 131.67 796.46 0 928.13 0 980.55 131.67 1112.22 289.55 954.34"/>
    <polygon class="cls-3" points="296.62 954.34 131.67 789.39 0 921.06 0 935.2 131.67 803.54 282.48 954.34 131.67 1105.15 0 973.48 0 987.62 131.67 1119.29 296.62 954.34"/>
  </g>
  <g>
    <polygon class="cls-5" points="0 664.8 0 928.13 131.67 796.46 0 664.8"/>
    <polygon class="cls-3" points="0 657.72 0 671.87 124.6 796.46 0 921.06 0 935.2 138.74 796.46 0 657.72"/>
  </g>
  <g>
    <polygon class="cls-5" points="1868.33 638.59 2000 770.25 2000 506.92 1868.33 638.59"/>
    <polygon class="cls-3" points="1875.4 638.59 2000 513.99 2000 499.85 1861.26 638.59 2000 777.32 2000 763.18 1875.4 638.59"/>
  </g>
  <g>
    <rect class="cls-5" x="651.55" y="842.71" width="223.27" height="223.27" transform="translate(898.35 -260.13) rotate(45)"/>
    <path class="cls-3" d="m763.18,1119.29l-164.95-164.95,164.95-164.95,164.95,164.95-164.95,164.95Zm-150.81-164.95l150.81,150.81,150.81-150.81-150.81-150.81-150.81,150.81Z"/>
  </g>
  <g>
    <rect class="cls-6" x="493.67" y="1000.58" width="223.27" height="223.27" transform="translate(963.75 -102.25) rotate(45)"/>
    <path class="cls-3" d="m605.3,1277.17l-164.95-164.95,164.95-164.95,164.95,164.95-164.95,164.95Zm-150.81-164.95l150.81,150.81,150.81-150.81-150.81-150.81-150.81,150.81Z"/>
  </g>
  <g>
    <rect class="cls-5" x="967.3" y="842.71" width="223.27" height="223.27" transform="translate(990.84 -483.4) rotate(45)"/>
    <path class="cls-3" d="m1078.94,1119.29l-164.95-164.95,164.95-164.95,164.95,164.95-164.95,164.95Zm-150.81-164.95l150.81,150.81,150.81-150.81-150.81-150.81-150.81,150.81Z"/>
  </g>
  <g>
    <rect class="cls-6" x="809.42" y="1000.58" width="223.27" height="223.27" transform="translate(1056.23 -325.53) rotate(45)"/>
    <path class="cls-3" d="m921.06,1277.17l-164.95-164.95,164.95-164.95,164.95,164.95-164.95,164.95Zm-150.81-164.95l150.81,150.81,150.81-150.81-150.81-150.81-150.81,150.81Z"/>
  </g>
  <g>
    <rect class="cls-5" x="1283.06" y="842.71" width="223.27" height="223.27" transform="translate(1083.32 -706.68) rotate(45)"/>
    <path class="cls-3" d="m1394.7,1119.29l-164.95-164.95,164.95-164.95,164.95,164.95-164.95,164.95Zm-150.81-164.95l150.81,150.81,150.81-150.81-150.81-150.81-150.81,150.81Z"/>
  </g>
  <g>
    <rect class="cls-6" x="1125.18" y="1000.58" width="223.27" height="223.27" transform="translate(1148.71 -548.8) rotate(45)"/>
    <path class="cls-3" d="m1236.82,1277.17l-164.95-164.95,164.95-164.95,164.95,164.95-164.95,164.95Zm-150.81-164.95l150.81,150.81,150.81-150.81-150.81-150.81-150.81,150.81Z"/>
  </g>
  <g>
    <rect class="cls-5" x="1598.82" y="842.71" width="223.27" height="223.27" transform="translate(1175.8 -929.95) rotate(45)"/>
    <path class="cls-3" d="m1710.45,1119.29l-164.95-164.95,164.95-164.95,164.95,164.95-164.95,164.95Zm-150.81-164.95l150.81,150.81,150.81-150.81-150.81-150.81-150.81,150.81Z"/>
  </g>
  <g>
    <polygon class="cls-5" points="1868.33 954.34 2000 1086.01 2000 822.67 1868.33 954.34"/>
    <polygon class="cls-3" points="1875.4 954.34 2000 829.75 2000 815.6 1861.26 954.34 2000 1093.08 2000 1078.94 1875.4 954.34"/>
  </g>
  <g>
    <polygon class="cls-5" points="1710.45 796.46 1868.33 954.34 2000 822.67 2000 770.25 1868.33 638.59 1710.45 796.46"/>
    <polygon class="cls-3" points="1703.38 796.46 1868.33 961.41 2000 829.75 2000 815.6 1868.33 947.27 1717.52 796.46 1868.33 645.66 2000 777.32 2000 763.18 1868.33 631.51 1703.38 796.46"/>
  </g>
  <g>
    <rect class="cls-6" x="1440.94" y="1000.58" width="223.27" height="223.27" transform="translate(1241.2 -772.07) rotate(45)"/>
    <path class="cls-3" d="m1552.58,1277.17l-164.95-164.95,164.95-164.95,164.95,164.95-164.95,164.95Zm-150.81-164.95l150.81,150.81,150.81-150.81-150.81-150.81-150.81,150.81Z"/>
  </g>
  <g>
    <polygon class="cls-6" points="1710.45 1112.22 1868.33 1270.1 2000 1138.43 2000 1086.01 1868.33 954.34 1710.45 1112.22"/>
    <polygon class="cls-3" points="1703.38 1112.22 1868.33 1277.17 2000 1145.5 2000 1131.36 1868.33 1263.03 1717.52 1112.22 1868.33 961.41 2000 1093.08 2000 1078.94 1868.33 947.27 1703.38 1112.22"/>
  </g>
  <g>
    <path class="cls-3" d="m326.47,796.46c0-1.77-.13-3.51-.37-5.22l7.56-10.02c-1.81-5.25-4.53-10.09-7.98-14.3l-12.49,1.17c-2.94-2.45-6.27-4.45-9.89-5.91l-4.89-11.55c-2.87-.55-5.83-.85-8.87-.85-2.56,0-5.06.21-7.51.61l-5.23,11.39c-3.66,1.34-7.04,3.26-10.05,5.62l-12.45-1.54c-3.58,4.12-6.44,8.86-8.41,14.05l7.27,10.24c-.35,2.05-.55,4.15-.55,6.29,0,1.77.13,3.51.37,5.22l-7.56,10.02c1.81,5.25,4.53,10.09,7.98,14.3l12.49-1.17c2.94,2.45,6.27,4.45,9.89,5.91l4.89,11.55c2.87.55,5.83.85,8.87.85,2.56,0,5.06-.21,7.51-.61l5.23-11.39c3.66-1.34,7.04-3.26,10.05-5.62l12.45,1.54c3.58-4.12,6.44-8.86,8.41-14.05l-7.27-10.24c.35-2.05.55-4.15.55-6.29Zm-36.93,30.19c-16.67,0-30.19-13.52-30.19-30.19s13.52-30.19,30.19-30.19,30.19,13.52,30.19,30.19-13.52,30.19-30.19,30.19Z"/>
    <path class="cls-3" d="m300.1,797.82l-5.89-5.77.05-.05-6.07-6.19,10.49-10.05s-7.43-1.99-13.68,3.75c-6.25,5.74-5.14,15.96-5.14,15.96l-11.43,11.53c1.81,4.55,5.22,8.29,9.54,10.52l12.28-11.59s10.19,1.36,16.08-4.76c5.89-6.12,4.08-13.59,4.08-13.59l-10.3,10.24Z"/>
  </g>
  <g>
    <g>
      <g>
        <path class="cls-3" d="m605.05,830.88h-11.78l-3.52-2.64v-5.92c-.94-.63-4.11-2.85-7.31-6.57-3.46-4.02-7.59-10.6-7.59-19.1,0-7.97,3.11-15.42,8.76-20.97,5.66-5.57,13.27-8.64,21.43-8.64h.14c8.16,0,15.77,3.07,21.43,8.63,5.65,5.55,8.76,13,8.76,20.97,0,8.51-4.13,15.08-7.59,19.1-3.2,3.71-6.36,5.94-7.31,6.57v5.92s-3.52,2.64-3.52,2.64h-11.91Zm-10.4-3.8h10.53s10.41,0,10.41,0l2.5-1.88v-5.47s.25-.16.25-.16c.03-.02,3.4-2.13,6.71-5.98,3.04-3.53,6.66-9.31,6.66-16.74,0-14.58-11.66-26-26.54-26h-.13c-14.88,0-26.53,11.42-26.53,26,0,7.45,3.63,13.23,6.68,16.77,3.31,3.85,6.65,5.94,6.69,5.96l.25.16v5.47s2.51,1.88,2.51,1.88Z"/>
        <polygon class="cls-3" points="593.64 830.91 593.64 834.31 616.31 832.61 616.31 830.91 593.64 830.91"/>
        <polygon class="cls-3" points="593.64 836.32 593.64 838.11 616.31 836.41 616.31 834.71 593.64 836.32"/>
        <polygon class="cls-3" points="593.64 840.1 593.64 841.9 616.31 840.2 616.31 838.5 593.64 840.1"/>
        <polygon class="cls-3" points="593.64 844.03 593.64 845.82 616.31 844.12 616.31 842.42 593.64 844.03"/>
        <polygon class="cls-3" points="604.69 847.12 604.64 847.12 597.4 847.12 600.11 849.63 604.64 849.63 604.69 849.63 609.21 849.63 611.92 847.12 604.69 847.12"/>
      </g>
      <rect class="cls-3" x="602.44" y="743.29" width="4.45" height="19.93" transform="translate(1209.32 1506.52) rotate(180)"/>
      <rect class="cls-3" x="585.86" y="746.85" width="4.45" height="19.93" transform="translate(1421.02 1230.96) rotate(157.5)"/>
      <rect class="cls-3" x="571.9" y="756.48" width="4.45" height="19.93" transform="translate(1522.04 902.42) rotate(135)"/>
      <rect class="cls-3" x="562.69" y="770.71" width="4.45" height="19.93" transform="translate(1502.34 557.53) rotate(112.5)"/>
      <rect class="cls-3" x="559.62" y="787.39" width="4.45" height="19.93" transform="translate(1359.21 235.51) rotate(90)"/>
      <rect class="cls-3" x="563.18" y="803.98" width="4.45" height="19.93" transform="translate(1101.01 -19.91) rotate(67.5)"/>
      <rect class="cls-3" x="620.3" y="746.85" width="4.45" height="19.93" transform="translate(337.01 -180.62) rotate(22.5)"/>
      <rect class="cls-3" x="634.26" y="756.48" width="4.45" height="19.93" transform="translate(728.38 -225.58) rotate(45)"/>
      <rect class="cls-3" x="643.47" y="770.71" width="4.45" height="19.93" transform="translate(1119.86 -114.62) rotate(67.5)"/>
      <rect class="cls-3" x="646.54" y="787.39" width="4.45" height="19.93" transform="translate(1446.12 148.6) rotate(90)"/>
      <rect class="cls-3" x="642.98" y="803.98" width="4.45" height="19.93" transform="translate(1644.1 529.34) rotate(112.5)"/>
    </g>
    <path class="cls-3" d="m621.62,783.94c-3.76,3.85-6.86,7.38-10.13,11.04-1.32,1.48-2.68,2.99-4.11,4.55-1.45,1.58-2.98,3.21-4.66,4.93-1.45-1.64-2.92-3.29-4.36-4.93-1.37-1.56-2.72-3.09-4.02-4.55-.5-.57-1-1.13-1.49-1.68-.67.58-1.31,1.14-1.94,1.68-1.21,1.05-2.35,2.03-3.47,3-.66.57-1.31,1.13-1.95,1.69v.72c.65.64,1.3,1.27,1.95,1.91,1.52,1.49,3.05,2.98,4.55,4.45,3.63,3.55,7.17,7.01,10.46,10.23,3.81-3.77,7.27-7.27,10.64-10.69,1.53-1.55,3.04-3.09,4.55-4.63,3.44-3.5,6.89-6.99,10.64-10.7-1.9-2-4.01-4.23-6.66-7.02Z"/>
  </g>
  <g>
    <g>
      <circle class="cls-3" cx="1567.44" cy="755.12" r="12.32"/>
      <path class="cls-3" d="m1551.13,775.54c4.98-2.23,10.5-3.48,16.31-3.48s11.33,1.24,16.31,3.48v18.64h-32.62v-18.64Z"/>
    </g>
    <g>
      <circle class="cls-3" cx="1538.82" cy="811.06" r="12.32"/>
      <path class="cls-3" d="m1522.51,831.49c4.98-2.23,10.5-3.48,16.31-3.48s11.33,1.24,16.31,3.48v18.64h-32.62v-18.64Z"/>
    </g>
    <path class="cls-3" d="m1530.86,790.85l13.36-16.11-7.3.35c-1.83-4.37-2.07-18.9,3.91-19.96l-.09-1.84c-4.14.69-18.14,5.53-17.41,22.45l-7.3.35,14.83,14.77Z"/>
    <path class="cls-3" d="m1574.29,806.4l-13.36,16.11,7.3-.35c1.83,4.37,2.07,18.9-3.91,19.96l.09,1.84c4.14-.69,18.14-5.53,17.41-22.45l7.3-.35-14.83-14.77Z"/>
  </g>
  <g>
    <g>
      <polygon class="cls-3" points="1701.63 654.57 1694.39 657.99 1687.46 674.86 1704.1 688.75 1709.25 665.64 1706.43 661.54 1701.63 654.57"/>
      <polygon class="cls-3" points="1719.93 654.57 1727.18 657.99 1734.1 674.86 1717.47 688.75 1712.31 665.64 1715.13 661.54 1719.93 654.57"/>
      <path class="cls-3" d="m1745.56,623.57l-9.8-6.79,5.12-10.77-11.88-.98-.95-11.88-10.78,5.09-6.76-9.82-6.79,9.8-10.77-5.12-.99,11.88-11.88.95,5.09,10.78-9.82,6.76,9.8,6.79-5.12,10.77,11.88.98.95,11.88,4.43-2.09,6.35-3,6.76,9.82,1.32-1.9,5.48-7.9,10.77,5.12.98-11.88,11.88-.95-5.09-10.78,9.82-6.76Zm-32.66,21.54c-11.93,1.35-22.69-7.23-24.03-19.16-1.35-11.93,7.23-22.69,19.16-24.03,11.92-1.34,22.68,7.24,24.03,19.16,1.35,11.93-7.23,22.69-19.16,24.03Z"/>
    </g>
    <path class="cls-3" d="m1709.99,635.6c-1.2,1.43-3.27,1.53-4.6.22l-7.93-7.8c-1.33-1.31-1.46-3.36-.28-4.56,1.18-1.2,3.23-1.11,4.56.2l3.21,3.16c1.33,1.31,3.4,1.21,4.6-.22l10.71-12.75c1.2-1.43,3.24-1.72,4.52-.64,1.29,1.08,1.36,3.14.16,4.56l-14.96,17.82Z"/>
  </g>
  <g>
    <path class="cls-3" d="m435.3,594.73c-2.94,3.13-5.35,5.99-7.9,8.97-1.03,1.2-2.09,2.43-3.2,3.69-1.13,1.28-2.33,2.61-3.64,4-1.19-1.28-2.38-2.58-3.55-3.86-1.12-1.22-2.22-2.42-3.28-3.56-.41-.45-.82-.89-1.21-1.31-.52.47-1.03.93-1.52,1.37-.95.85-1.84,1.66-2.72,2.45-.51.46-1.02.92-1.53,1.38,0,.19,0,.38.01.57.53.5,1.06.99,1.59,1.49,1.24,1.16,2.48,2.33,3.7,3.47,2.95,2.77,5.83,5.48,8.5,7.99,2.98-3.07,5.68-5.91,8.31-8.69,1.19-1.26,2.37-2.51,3.55-3.76,2.69-2.84,5.38-5.69,8.31-8.7-1.54-1.56-3.27-3.31-5.42-5.49Z"/>
    <polygon class="cls-3" points="482.89 601.64 478.59 597.34 470.64 605.29 462.68 597.34 458.39 601.64 466.34 609.59 458.39 617.55 462.68 621.85 470.64 613.89 478.59 621.85 482.89 617.55 474.94 609.59 482.89 601.64"/>
    <g>
      <path class="cls-3" d="m471.65,625.58c-15.14,0-24.22,8.22-24.22,8.22,0,0-9.08-8.22-24.22-8.22-17.74,0-23.79,8.22-23.79,8.22v48.64s6.06-8.22,23.79-8.22c15.14,0,24.22,8.22,24.22,8.22,0,0,9.08-8.22,24.22-8.22,17.74,0,23.79,8.22,23.79,8.22v-48.64s-6.06-8.22-23.79-8.22Zm-67.49,47.67v-37.52c2.09-1.79,7.71-5.39,19.04-5.39,12.97,0,20.98,6.94,21.03,6.99l.81.73v37.05c-4.69-2.62-12.18-5.63-21.85-5.63-7.32,0-13.71,1.27-19.04,3.78Zm86.52,0c-5.32-2.51-11.72-3.78-19.04-3.78-9.67,0-17.16,3.01-21.85,5.63v-37.06l.79-.7c.08-.07,8.08-7.01,21.05-7.01,11.33,0,16.95,3.61,19.04,5.39v37.52Z"/>
      <path class="cls-3" d="m455.08,639.86v3.15h.8c3.92-1.75,9.26-3.35,15.76-3.35,7.33,0,12.56,1.47,16.13,3.11v-3.48c-3.86-1.56-9.12-2.8-16.13-2.8s-12.37,1.57-16.57,3.37Z"/>
      <path class="cls-3" d="m455.08,647.36v3.15h.8c3.92-1.75,9.26-3.35,15.76-3.35,7.33,0,12.56,1.47,16.13,3.11v-3.48c-3.86-1.56-9.12-2.8-16.13-2.8s-12.37,1.57-16.57,3.37Z"/>
      <path class="cls-3" d="m455.08,654.87v3.15h.8c3.92-1.75,9.26-3.35,15.76-3.35,7.33,0,12.56,1.47,16.13,3.11v-3.48c-3.86-1.56-9.12-2.8-16.13-2.8s-12.37,1.57-16.57,3.37Z"/>
      <path class="cls-3" d="m455.08,662.37v3.15h.8c3.92-1.75,9.26-3.35,15.76-3.35,7.33,0,12.56,1.47,16.13,3.11v-3.48c-3.86-1.56-9.12-2.8-16.13-2.8s-12.37,1.57-16.57,3.37Z"/>
      <path class="cls-3" d="m407.07,639.29v3.48c3.57-1.64,8.8-3.11,16.13-3.11,6.5,0,11.84,1.6,15.76,3.35h.8v-3.15c-4.19-1.8-9.78-3.37-16.56-3.37s-12.28,1.25-16.13,2.8Z"/>
      <path class="cls-3" d="m407.07,646.79v3.48c3.57-1.64,8.8-3.11,16.13-3.11,6.5,0,11.84,1.6,15.76,3.35h.8v-3.15c-4.19-1.8-9.78-3.37-16.56-3.37s-12.28,1.25-16.13,2.8Z"/>
      <path class="cls-3" d="m407.07,654.3v3.48c3.57-1.64,8.8-3.11,16.13-3.11,6.5,0,11.84,1.6,15.76,3.35h.8v-3.15c-4.19-1.8-9.78-3.37-16.56-3.37s-12.28,1.25-16.13,2.8Z"/>
      <path class="cls-3" d="m407.07,661.8v3.48c3.57-1.64,8.8-3.11,16.13-3.11,6.5,0,11.84,1.6,15.76,3.35h.8v-3.15c-4.19-1.8-9.78-3.37-16.56-3.37s-12.28,1.25-16.13,2.8Z"/>
    </g>
  </g>
  <g>
    <g>
      <path class="cls-3" d="m770.56,630.52c1.24,0,2.24-1,2.24-2.24s-1-2.24-2.24-2.24-2.24,1-2.24,2.24,1,2.24,2.24,2.24Z"/>
      <path class="cls-3" d="m755.81,626.04c-1.24,0-2.24,1-2.24,2.24s1,2.24,2.24,2.24,2.24-1,2.24-2.24-1-2.24-2.24-2.24Z"/>
      <path class="cls-3" d="m768.01,644c.37-.32.42-.88.1-1.25-.32-.37-.88-.42-1.25-.1-1.03.87-2.33,1.35-3.68,1.35s-2.65-.48-3.68-1.35c-.37-.32-.93-.27-1.25.1-.32.37-.27.93.1,1.25,1.35,1.14,3.06,1.77,4.82,1.77s3.48-.63,4.83-1.77Z"/>
      <path class="cls-3" d="m803.92,674.74c-.36-1.98-8.82-5.58-15.12-8.64-1.12-.54-2.34-1.25-3.59-2.05-2.34,2.17-5.19,3.82-8.39,4.75-.17,1.99-1.84,3.55-3.87,3.55h-10.72c-2.14,0-3.89-1.74-3.89-3.89v-5.98c0-2.14,1.74-3.89,3.89-3.89h10.72c1.29,0,2.43.63,3.14,1.59.73-.33,1.42-.73,2.06-1.18-.8-.62-1.55-1.21-2.21-1.75l-3.01-2.5v-3.96c3.03-3.24,5.97-10.08,7.05-11.34.04-.04.07-.09.11-.14v-12.26c0-1.02.29-1.98.79-2.79v-5.14c-1.62-16.01-17.7-15-17.7-15,0,0-16.08-1.01-17.7,15v5.36c.42.76.66,1.64.66,2.57v12.07c.08.13.16.24.24.33,1.08,1.26,4.02,8.1,7.05,11.34v2.57l.11-.09v.88l-2.77,2.82c-3.29,2.68-8.98,7.07-13.21,9.13-6.3,3.06-14.76,6.66-15.12,8.64l-1.59,14.06h84.67l-1.59-14.06Zm-54.55-36.39s-2.8-11.74,0-19.85c2.8-8.11,8.67-2.8,8.67-2.8,0,0,7.83-5.93,17.34-1.71,0,0,4.68,5.71,1.12,23.24-3.57,17.53-13.32,14.82-13.32,14.82,0,0-8.21,1.96-13.81-13.7Z"/>
    </g>
    <path class="cls-3" d="m743.49,627.06v16.95c0,1.48-1.2,2.68-2.68,2.68h-6.77c-1.48,0-2.68-1.2-2.68-2.68v-16.95c0-1.48,1.2-2.68,2.68-2.68h6.77c1.48,0,2.68,1.2,2.68,2.68Zm42.34-10.05v3.91h5.99v-3.91c0-15.79-12.85-28.63-28.63-28.63s-28.63,12.84-28.63,28.63v3.91h5.99v-3.91c0-12.49,10.16-22.65,22.65-22.65s22.65,10.16,22.65,22.65Zm-61.62,18.53c0,3.43,2.11,6.36,5.09,7.58v-15.15c-2.99,1.22-5.09,4.15-5.09,7.58Zm49.97,28.07v-1.11c0-.68-.56-1.23-1.23-1.23h-10.72c-.68,0-1.23.56-1.23,1.23v5.98c0,.68.56,1.23,1.23,1.23h10.72c.68,0,1.23-.56,1.23-1.23v-1.77c8.59-1.55,15.13-9.07,15.13-18.1h-3.04c0,7.34-5.18,13.5-12.08,15Zm22.87-35.65v15.15c2.99-1.22,5.09-4.15,5.09-7.58s-2.11-6.36-5.09-7.58Zm-4.87-3.57h-6.77c-1.48,0-2.68,1.2-2.68,2.68v16.95c0,1.48,1.2,2.68,2.68,2.68h6.77c1.48,0,2.68-1.2,2.68-2.68v-16.95c0-1.48-1.2-2.68-2.68-2.68Z"/>
  </g>
  <g>
    <path class="cls-3" d="m1078.94,653.95c-1.27,0-2.51-.45-3.48-1.28-.27-.23-.3-.63-.07-.9.23-.27.63-.3.9-.07.74.63,1.68.98,2.66.98s1.91-.35,2.66-.98c.27-.23.67-.2.9.07.23.27.2.67-.07.9-.97.83-2.21,1.28-3.48,1.28Zm-5.32-14.24c-.89,0-1.61.72-1.61,1.61s.72,1.61,1.61,1.61,1.61-.72,1.61-1.61-.72-1.61-1.61-1.61Zm9.03,1.61c0,.89.72,1.61,1.61,1.61s1.61-.72,1.61-1.61-.72-1.61-1.61-1.61-1.61.72-1.61,1.61Zm26.85,43.7h-61.13l1.15-10.15c.26-1.43,6.37-4.03,10.92-6.24,3.05-1.48,7.16-4.66,9.54-6.59l2-2.04v-.63l-.08.07v-1.85c-2.19-2.34-4.31-7.28-5.09-8.19-.78-.91-1.95-4.81-1.95-5.85s1.3-1.95,1.3-1.95v-6.88c1.17-11.56,12.78-10.83,12.78-10.83,0,0,11.61-.73,12.78,10.83v6.88s1.3.91,1.3,1.95-1.17,4.94-1.95,5.85c-.78.91-2.9,5.85-5.09,8.19v2.86l2.18,1.81c2.41,1.94,6.34,4.95,9.28,6.38,4.55,2.21,10.66,4.81,10.92,6.24l1.15,10.15Zm-30.56-26.54s7.04,1.96,9.61-10.7c2.57-12.66-.81-16.78-.81-16.78-6.86-3.05-12.52,1.23-12.52,1.23,0,0-4.24-3.84-6.26,2.02-2.02,5.85,0,14.33,0,14.33,4.04,11.3,9.97,9.89,9.97,9.89Z"/>
    <rect class="cls-3" x="1077.24" y="602.56" width="3.39" height="16.1"/>
    <path class="cls-3" d="m1078.94,602.97c-2.98,0-5.41-2.43-5.41-5.41s2.43-5.41,5.41-5.41,5.41,2.43,5.41,5.41-2.43,5.41-5.41,5.41Zm0-7.42c-1.11,0-2.01.9-2.01,2.01s.9,2.01,2.01,2.01,2.01-.9,2.01-2.01-.9-2.01-2.01-2.01Z"/>
    <rect class="cls-3" x="1055.37" y="611.62" width="3.39" height="16.1" transform="translate(-128.56 928.97) rotate(-45)"/>
    <path class="cls-3" d="m1047.84,615.85c-1.44,0-2.8-.56-3.82-1.58-2.11-2.11-2.11-5.54,0-7.65,1.02-1.02,2.38-1.58,3.82-1.58s2.8.56,3.82,1.58h0c1.02,1.02,1.58,2.38,1.58,3.82s-.56,2.8-1.58,3.82c-1.02,1.02-2.38,1.58-3.82,1.58Zm0-7.42c-.54,0-1.04.21-1.42.59-.78.78-.78,2.06,0,2.85.38.38.89.59,1.42.59s1.04-.21,1.42-.59.59-.89.59-1.42-.21-1.04-.59-1.42h0c-.38-.38-.89-.59-1.42-.59Z"/>
    <rect class="cls-3" x="1039.96" y="639.84" width="16.1" height="3.39"/>
    <path class="cls-3" d="m1034.96,646.94c-2.98,0-5.41-2.43-5.41-5.41s2.43-5.41,5.41-5.41,5.41,2.43,5.41,5.41-2.43,5.41-5.41,5.41Zm0-7.42c-1.11,0-2.01.9-2.01,2.01s.9,2.01,2.01,2.01,2.01-.9,2.01-2.01-.9-2.01-2.01-2.01Z"/>
    <rect class="cls-3" x="1092.76" y="617.97" width="16.1" height="3.39" transform="translate(-115.77 959.81) rotate(-45)"/>
    <path class="cls-3" d="m1110.03,615.85c-1.44,0-2.8-.56-3.82-1.58-2.11-2.11-2.11-5.54,0-7.65h0c1.02-1.02,2.38-1.58,3.82-1.58s2.8.56,3.82,1.58c1.02,1.02,1.58,2.38,1.58,3.82s-.56,2.8-1.58,3.82c-1.02,1.02-2.38,1.58-3.82,1.58Zm-1.42-6.83c-.78.78-.78,2.06,0,2.85.38.38.89.59,1.42.59s1.04-.21,1.42-.59.59-.89.59-1.42-.21-1.04-.59-1.42c-.38-.38-.89-.59-1.42-.59s-1.04.21-1.42.59h0Z"/>
    <rect class="cls-3" x="1101.82" y="639.84" width="16.1" height="3.39"/>
    <path class="cls-3" d="m1122.91,646.94c-2.98,0-5.41-2.43-5.41-5.41s2.43-5.41,5.41-5.41,5.41,2.43,5.41,5.41-2.43,5.41-5.41,5.41Zm0-7.42c-1.11,0-2.01.9-2.01,2.01s.9,2.01,2.01,2.01,2.01-.9,2.01-2.01-.9-2.01-2.01-2.01Z"/>
  </g>
  <g>
    <g>
      <path class="cls-3" d="m1376.38,684.71c-1.95,0-3.54-1.58-3.54-3.54v-31.73c0-1.95,1.58-3.54,3.54-3.54s3.54,1.58,3.54,3.54v31.73c0,1.95-1.58,3.54-3.54,3.54Z"/>
      <path class="cls-3" d="m1388.08,684.71c1.95,0,3.54-1.58,3.54-3.54v-31.73c0-1.95-1.58-3.54-3.54-3.54s-3.54,1.58-3.54,3.54v31.73c0,1.95,1.58,3.54,3.54,3.54Z"/>
      <circle class="cls-3" cx="1382.39" cy="601.22" r="8.76" transform="translate(567.5 1869.46) rotate(-80.78)"/>
      <path class="cls-3" d="m1382.23,651.6h0c-5.16,0-9.39-4.22-9.39-9.39v-20.02c0-5.16,4.22-9.39,9.39-9.39h0c5.16,0,9.39,4.22,9.39,9.39v20.02c0,5.16-4.22,9.39-9.39,9.39Z"/>
      <path class="cls-3" d="m1368.13,649.44c-1.74,0-3.14-1.41-3.14-3.14v-23.19c0-5.63,4.58-10.22,10.22-10.22,1.74,0,3.14,1.41,3.14,3.14s-1.41,3.14-3.14,3.14c-2.17,0-3.93,1.76-3.93,3.93v23.19c0,1.74-1.41,3.14-3.14,3.14Z"/>
    </g>
    <g>
      <path class="cls-3" d="m1400.99,684.71c-1.95,0-3.54-1.58-3.54-3.54v-31.73c0-1.95,1.58-3.54,3.54-3.54s3.54,1.58,3.54,3.54v31.73c0,1.95-1.58,3.54-3.54,3.54Z"/>
      <path class="cls-3" d="m1412.69,684.71c1.95,0,3.54-1.58,3.54-3.54v-31.73c0-1.95-1.58-3.54-3.54-3.54s-3.54,1.58-3.54,3.54v31.73c0,1.95,1.58,3.54,3.54,3.54Z"/>
      <circle class="cls-3" cx="1407" cy="601.22" r="8.76" transform="translate(-13.03 1170.99) rotate(-45)"/>
      <path class="cls-3" d="m1408.68,651.6h-3.68c-4.15,0-7.55-3.4-7.55-7.55v-20.02c0-6.17,5.05-11.23,11.23-11.23h0c4.15,0,7.55,3.4,7.55,7.55v23.7c0,4.15-3.4,7.55-7.55,7.55Z"/>
      <path class="cls-3" d="m1421.27,649.44c-1.74,0-3.14-1.41-3.14-3.14v-23.19c0-2.17-1.76-3.93-3.93-3.93-1.74,0-3.14-1.41-3.14-3.14s1.41-3.14,3.14-3.14c5.63,0,10.22,4.58,10.22,10.22v23.19c0,1.74-1.41,3.14-3.14,3.14Z"/>
    </g>
    <path class="cls-3" d="m1391.6,618.11c2.9-2.73,5.39-3.75,5.39-3.75,1.25-1.06,2.45-1.68,3.55-2.22-8.2-1.26-13.61.74-13.61.74,0,0-4.16,7.74,1.15,6.15,1.14-.34,2.32-.55,3.5-.68l.03-.24Z"/>
    <path class="cls-3" d="m1392.73,618.36l.14,7.06c2.98-2.77,6.46-5.76,9.27-6.17v-6.36s-3.22.69-9.41,5.48Z"/>
  </g>
  <g>
    <path class="cls-3" d="m898.27,786.89c2.16-3.46,7.08-9.65,16.79-6.82,0,0,5.3,2.28,5.91,6.92,0,0,2.29-8.2,12.87-7.14,10.58,1.07,12.85,11.82,11.24,17.43-1.61,5.61-4.86,8.68-11.14,13.16-6.29,4.48-11.13,7.18-13.32,9.14,0,0-7.1-4.89-9.39-6.67-2.29-1.77-10.17-7.64-12.78-12.4-2.61-4.75-2.33-10.17-.17-13.63Z"/>
    <rect class="cls-3" x="919.19" y="747.67" width="3.74" height="16.6"/>
    <rect class="cls-3" x="900.19" y="757.14" width="3.74" height="12.22" transform="translate(-260.77 553.28) rotate(-30)"/>
    <rect class="cls-3" x="876.94" y="794.3" width="12.22" height="3.74"/>
    <rect class="cls-3" x="933.95" y="761.38" width="12.22" height="3.74" transform="translate(-190.96 1195.74) rotate(-60)"/>
    <rect class="cls-3" x="952.96" y="794.3" width="12.22" height="3.74"/>
    <rect class="cls-3" x="884.38" y="767.77" width="3.74" height="16.6" transform="translate(-228.97 1155.56) rotate(-60)"/>
    <rect class="cls-3" x="947.57" y="774.2" width="16.6" height="3.74" transform="translate(-259.97 581.93) rotate(-30)"/>
    <g>
      <path class="cls-3" d="m912.84,827.37l-8.78-4.64s-1.44-.2-2.15,1.12c-.71,1.32.34,2.41.34,2.41l6.55,3.54c.3.5-.08,1.45-.08,1.45,0,0-7.35-3.87-8.05-4.66-.03-.04-.07-.09-.1-.16l.1.16c-1.15-3.67,1.35-4.69,1.35-4.69l-.22-1.54s.03-6.14-2.22-8.29c-1.4-1.34-2.5-2.23-3.12-2.71-.16-.17-.35-.31-.57-.42h0s0,0,0,0c-.14-.07-.3-.13-.47-.18-.74-.18-1.54.07-2.05.64-.57.64-.65,1.43-.41,2.12l2.84,18.27c.64,2.45,2.86,3.44,2.86,3.44l4.16,2.51c8.16,3.52,8.01,9.5,8.01,9.5l6.41-1.06-.53-5.95c-.08-3.15-.74-5.93-1.29-7.74-.41-1.35-1.34-2.48-2.59-3.14Z"/>
      <path class="cls-3" d="m929.28,827.37l8.78-4.64s1.44-.2,2.15,1.12c.71,1.32-.34,2.41-.34,2.41l-6.55,3.54c-.3.5.08,1.45.08,1.45,0,0,7.35-3.87,8.05-4.66.03-.04.07-.09.1-.16l-.1.16c1.15-3.67-1.35-4.69-1.35-4.69l.22-1.54s-.03-6.14,2.22-8.29c1.4-1.34,2.5-2.23,3.12-2.71.16-.17.35-.31.57-.42h0s0,0,0,0c.14-.07.3-.13.47-.18.74-.18,1.54.07,2.05.64.57.64.65,1.43.41,2.12l-2.84,18.27c-.64,2.45-2.86,3.44-2.86,3.44l-4.16,2.51c-8.16,3.52-8.01,9.5-8.01,9.5l-6.41-1.06.53-5.95c.08-3.15.74-5.93,1.29-7.74.41-1.35,1.34-2.48,2.59-3.14Z"/>
    </g>
  </g>
  <g>
    <path class="cls-3" d="m1236.82,843.68c-26.04,0-47.22-21.18-47.22-47.22s21.18-47.22,47.22-47.22,47.22,21.18,47.22,47.22-21.18,47.22-47.22,47.22Zm0-89.92c-23.54,0-42.7,19.15-42.7,42.7s19.15,42.7,42.7,42.7,42.7-19.15,42.7-42.7-19.15-42.7-42.7-42.7Zm0,65.8c-12.74,0-23.1-10.36-23.1-23.1s10.36-23.1,23.1-23.1,23.1,10.36,23.1,23.1-10.36,23.1-23.1,23.1Zm0-41.68c-10.25,0-18.58,8.33-18.58,18.58s8.33,18.58,18.58,18.58,18.58-8.33,18.58-18.58-8.33-18.58-18.58-18.58Z"/>
    <g>
      <path class="cls-3" d="m1217.5,788.88c2.12-5.24,6.3-9.42,11.54-11.54l-11.43-21.32c-9.38,4.45-16.98,12.05-21.43,21.43l21.32,11.43Z"/>
      <path class="cls-3" d="m1244.6,777.34c5.24,2.12,9.42,6.3,11.54,11.54l21.32-11.43c-4.45-9.38-12.05-16.98-21.43-21.43l-11.43,21.32Z"/>
      <path class="cls-3" d="m1256.14,804.44c-2.12,5.24-6.3,9.42-11.54,11.54l11.43,21.32c9.38-4.45,16.98-12.05,21.43-21.43l-21.32-11.43Z"/>
      <path class="cls-3" d="m1229.04,815.98c-5.24-2.12-9.42-6.3-11.54-11.54l-21.32,11.43c4.45,9.38,12.05,16.98,21.43,21.43l11.43-21.32Z"/>
    </g>
  </g>
</svg>