<?xml version="1.0" encoding="UTF-8"?>
<svg id="OBJECTS" xmlns="http://www.w3.org/2000/svg" xmlns:xlink="http://www.w3.org/1999/xlink" viewBox="0 0 415.29 353.29">
  <defs>
    <style>
      .cls-1 {
        font-size: 12.31px;
      }

      .cls-1, .cls-2 {
        font-family: Montserrat-ExtraBold, Montserrat;
        font-weight: 700;
      }

      .cls-1, .cls-3, .cls-4 {
        fill: #fff;
      }

      .cls-5 {
        letter-spacing: .02em;
      }

      .cls-6 {
        fill: #af622e;
      }

      .cls-6, .cls-7, .cls-8, .cls-9, .cls-10, .cls-11, .cls-12, .cls-13, .cls-14, .cls-15, .cls-16, .cls-3, .cls-17, .cls-18, .cls-19, .cls-20, .cls-21, .cls-22, .cls-23, .cls-24, .cls-25, .cls-26, .cls-27, .cls-28, .cls-29, .cls-30, .cls-31, .cls-32, .cls-4, .cls-33, .cls-34, .cls-35, .cls-36 {
        stroke-width: 0px;
      }

      .cls-7 {
        fill: #ceddf4;
      }

      .cls-8 {
        fill: #f9b212;
      }

      .cls-9 {
        fill: #f4b425;
      }

      .cls-10 {
        fill: #f79b77;
      }

      .cls-37, .cls-13, .cls-25, .cls-31 {
        opacity: .5;
      }

      .cls-2 {
        font-size: 12.16px;
      }

      .cls-2, .cls-15 {
        fill: #b6cdef;
      }

      .cls-38, .cls-12, .cls-4 {
        opacity: .2;
      }

      .cls-11, .cls-12 {
        fill: #814c4a;
      }

      .cls-13 {
        fill: #ffbca1;
      }

      .cls-14 {
        fill: none;
      }

      .cls-16, .cls-31 {
        fill: #1a65d3;
      }

      .cls-39 {
        letter-spacing: 0em;
      }

      .cls-17 {
        fill: #fc8b3f;
      }

      .cls-18 {
        fill: #1d5393;
      }

      .cls-19 {
        fill: #f89675;
      }

      .cls-20 {
        fill: #2d80e2;
      }

      .cls-21 {
        fill: #184a7c;
      }

      .cls-40, .cls-26 {
        opacity: .1;
      }

      .cls-41 {
        clip-path: url(#clippath);
      }

      .cls-42 {
        letter-spacing: 0em;
      }

      .cls-22 {
        fill: #b76a6a;
      }

      .cls-23 {
        opacity: .6;
      }

      .cls-23, .cls-26 {
        fill: #114068;
      }

      .cls-24 {
        fill: #5d93f4;
      }

      .cls-25 {
        fill: #0952aa;
      }

      .cls-27 {
        fill: #aa6868;
      }

      .cls-28 {
        fill: #e3edfc;
      }

      .cls-29 {
        fill: #ffae8a;
      }

      .cls-30 {
        fill: #f4885d;
      }

      .cls-32 {
        fill: #fac849;
      }

      .cls-33 {
        fill: #111b24;
      }

      .cls-34 {
        fill: #f46c0f;
      }

      .cls-35 {
        fill: #f4472a;
      }

      .cls-36 {
        fill: #a9d0ff;
      }
    </style>
    <clipPath id="clippath">
      <rect class="cls-14" x="48.57" y="201.68" width="43.14" height="26.86"/>
    </clipPath>
  </defs>
  <g>
    <path class="cls-28" d="m384.84,337.09H23.25l-.29-.35c-.17-.2-16.42-20.01-.06-43.57,16.32-23.49,19.51-32.85,10.87-53.87-1.5-3.66-3.42-7.62-5.44-11.81-10.18-21.09-22.85-47.33.39-67.55,1.85-1.61,3.65-3.17,5.41-4.7,23.72-20.54,39.39-34.12,45.39-58.34,2.46-9.92,7.81-24.11,19.39-35.4,10.91-10.64,24.6-16.04,40.67-16.04,12.51,0,26.38,3.36,41.21,9.98,43.79,19.54,59.26,25.22,77.39,25.22,6.03,0,12.46-.6,20.88-1.44,3.37-.34,6.83-.51,10.27-.51,22.04,0,41.17,6.77,52.47,18.56,8.95,9.34,13.16,21.63,12.53,36.52-.38,8.96-.99,16.55-1.53,23.25-2.18,27.21-3,37.4,17.32,54.94,29.45,25.44,48.86,71.54,15.03,124.64l-.29.45Zm-360.66-1.96h359.59c32.77-51.85,13.81-96.82-14.94-121.65-21.07-18.19-20.17-29.43-17.99-56.58.54-6.68,1.14-14.26,1.53-23.18.62-14.33-3.42-26.14-11.98-35.08-10.93-11.41-29.54-17.96-51.05-17.96-3.38,0-6.76.17-10.07.5-8.48.85-14.95,1.45-21.07,1.45-18.5,0-34.11-5.72-78.19-25.4-14.58-6.51-28.17-9.8-40.41-9.8-10.74,0-46.69,3.6-58.17,49.95-6.15,24.83-22.01,38.56-46.01,59.35-1.76,1.52-3.56,3.08-5.41,4.69-22.11,19.24-9.8,44.73.09,65.22,2.04,4.22,3.96,8.2,5.49,11.92,9.43,22.95,4.74,32.96-11.07,55.73-14.35,20.67-2.34,38.18-.33,40.85Z"/>
    <path class="cls-28" d="m30.78,336.11s-15.51-18.43,0-40.77c15.51-22.34,19.24-31.58,10.55-52.71-8.69-21.13-31.32-52.46-5.11-75.27,26.21-22.8,42.9-35.81,49.17-61.12,8.18-33.04,37.72-65.31,96.11-39.25,58.39,26.06,63.97,26.06,95,22.96,31.02-3.1,73.22,8.09,71.36,51.51-1.86,43.42-9.31,54.54,15.51,75.97,24.82,21.43,48.4,65.12,14.27,118.66H30.78Z"/>
  </g>
  <g>
    <g>
      <path class="cls-11" d="m166.42,145.48s-14.94,92.23,42.13,92.23,43.73-95.82,43.73-95.82l-84.1,3.59"/>
      <g class="cls-38">
        <g>
          <path class="cls-22" d="m171.92,158.47s0,1-.02,2.76c-.02,1.75.04,4.25.14,7.25.11,2.99.3,6.48.64,10.19.15,1.86.4,3.77.63,5.71.26,1.94.55,3.9.92,5.85.33,1.95.76,3.89,1.22,5.78.22.95.5,1.87.73,2.8.26.92.54,1.82.81,2.7.3.88.6,1.74.89,2.58.32.83.62,1.65.95,2.43.34.78.68,1.53,1,2.26.35.72.7,1.41,1.02,2.07.73,1.29,1.38,2.49,2.05,3.5.62,1.05,1.3,1.85,1.8,2.57,1.09,1.36,1.74,2.13,1.74,2.13,0,0-.19-.17-.54-.48-.34-.32-.88-.76-1.49-1.4-.58-.66-1.37-1.41-2.11-2.39-.37-.49-.82-.98-1.21-1.55-.39-.57-.8-1.18-1.23-1.81-.39-.65-.8-1.33-1.22-2.04-.4-.72-.77-1.48-1.17-2.26-.38-.79-.73-1.61-1.12-2.44-.36-.84-.68-1.72-1.02-2.61-.62-1.8-1.26-3.66-1.74-5.6-.5-1.93-.95-3.91-1.31-5.9-.36-1.99-.63-4-.87-5.97-.23-1.97-.37-3.93-.47-5.81-.12-1.89-.14-3.72-.15-5.45-.01-1.73.04-3.37.11-4.87.13-3.02.41-5.52.6-7.27.21-1.75.4-2.73.4-2.73Z"/>
          <path class="cls-22" d="m178.96,158.47s.06.93.17,2.56c.06.81.13,1.8.21,2.93.09,1.13.19,2.41.3,3.8.13,1.39.27,2.89.42,4.48.16,1.59.34,3.26.55,4.99.18,1.73.46,3.51.69,5.31.21,1.81.57,3.63.86,5.46.31,1.83.68,3.64,1.01,5.43.44,1.77.77,3.53,1.2,5.21.48,1.66.85,3.3,1.32,4.82.49,1.51.95,2.94,1.38,4.26.5,1.29.96,2.48,1.37,3.54.1.27.2.52.29.77.11.24.22.47.33.69.21.44.4.85.57,1.22.68,1.49,1.07,2.34,1.07,2.34,0,0-.51-.78-1.41-2.15-.22-.35-.47-.73-.73-1.15-.13-.21-.27-.43-.41-.65-.12-.24-.25-.48-.38-.74-.52-1.02-1.11-2.17-1.73-3.44-.56-1.29-1.12-2.71-1.72-4.22-.57-1.51-1.06-3.15-1.6-4.83-.49-1.69-.93-3.46-1.38-5.26-.36-1.81-.77-3.65-1.09-5.5-.26-1.86-.61-3.71-.8-5.54-.23-1.83-.41-3.64-.53-5.4-.16-1.75-.22-3.45-.29-5.06-.09-1.61-.07-3.13-.09-4.53,0-5.62.44-9.35.44-9.35Z"/>
          <path class="cls-22" d="m189.72,161s.2,3.47.5,8.67c.15,2.59.33,5.62.51,8.86.11,1.62.22,3.29.33,4.99.12,1.7.25,3.42.41,5.14.13,1.72.29,3.44.48,5.13.19,1.69.36,3.35.58,4.95.22,1.6.44,3.14.69,4.61.26,1.45.52,2.83.79,4.09.29,1.25.58,2.4.87,3.41.32,1,.57,1.88.86,2.58.26.71.5,1.26.67,1.62.17.37.26.57.26.57,0,0-.12-.18-.35-.52-.23-.34-.58-.83-.93-1.51-.39-.66-.78-1.51-1.21-2.49-.2-.5-.41-1.03-.64-1.58-.2-.57-.4-1.16-.61-1.79-.19-.63-.39-1.29-.59-1.97-.18-.69-.36-1.4-.54-2.13-.34-1.47-.69-3.02-.96-4.63-.27-1.62-.56-3.29-.75-5-.21-1.71-.4-3.44-.55-5.18-.14-1.74-.25-3.48-.34-5.19-.1-1.71-.13-3.4-.17-5.03-.06-3.27-.01-6.31.09-8.92.19-5.22.62-8.68.62-8.68Z"/>
        </g>
        <g>
          <path class="cls-22" d="m245.19,158.47s0,1,.02,2.76c.03,1.75-.04,4.25-.14,7.25-.11,2.99-.3,6.48-.64,10.19-.15,1.86-.4,3.77-.63,5.71-.26,1.94-.55,3.9-.92,5.85-.33,1.95-.76,3.89-1.22,5.78-.22.95-.5,1.87-.73,2.8-.26.92-.54,1.82-.81,2.7-.3.88-.6,1.74-.89,2.58-.32.83-.62,1.65-.95,2.43-.34.78-.68,1.53-1,2.26-.35.72-.69,1.41-1.02,2.07-.73,1.29-1.38,2.49-2.05,3.5-.62,1.05-1.3,1.85-1.8,2.57-1.09,1.36-1.74,2.13-1.74,2.13,0,0,.19-.17.54-.48.34-.32.88-.76,1.49-1.4.58-.66,1.37-1.41,2.11-2.39.37-.49.82-.98,1.21-1.55.39-.57.8-1.18,1.23-1.81.39-.65.8-1.33,1.22-2.04.4-.72.77-1.48,1.17-2.26.38-.79.73-1.61,1.12-2.44.36-.84.68-1.72,1.02-2.61.62-1.8,1.26-3.66,1.74-5.6.5-1.93.95-3.91,1.31-5.9.36-1.99.63-4,.87-5.97.23-1.97.37-3.93.48-5.81.12-1.89.14-3.72.15-5.45.01-1.73-.04-3.37-.11-4.87-.13-3.02-.41-5.52-.6-7.27-.21-1.75-.4-2.73-.4-2.73Z"/>
          <path class="cls-22" d="m238.15,158.47s-.06.93-.17,2.56c-.06.81-.13,1.8-.21,2.93-.09,1.13-.19,2.41-.3,3.8-.13,1.39-.27,2.89-.42,4.48-.16,1.59-.34,3.26-.55,4.99-.18,1.73-.46,3.51-.69,5.31-.21,1.81-.57,3.63-.86,5.46-.31,1.83-.68,3.64-1.01,5.43-.44,1.77-.77,3.53-1.2,5.21-.48,1.66-.85,3.3-1.32,4.82-.49,1.51-.95,2.94-1.38,4.26-.5,1.29-.96,2.48-1.37,3.54-.1.27-.2.52-.29.77-.11.24-.22.47-.33.69-.21.44-.4.85-.57,1.22-.68,1.49-1.07,2.34-1.07,2.34,0,0,.51-.78,1.41-2.15.22-.35.47-.73.73-1.15.13-.21.27-.43.41-.65.12-.24.25-.48.38-.74.52-1.02,1.11-2.17,1.73-3.44.56-1.29,1.12-2.71,1.72-4.22.57-1.51,1.06-3.15,1.6-4.83.49-1.69.93-3.46,1.38-5.26.36-1.81.77-3.65,1.09-5.5.26-1.86.61-3.71.8-5.54.23-1.83.41-3.64.53-5.4.16-1.75.22-3.45.29-5.06.09-1.61.07-3.13.09-4.53,0-5.62-.44-9.35-.44-9.35Z"/>
          <path class="cls-22" d="m227.39,161s-.2,3.47-.5,8.67c-.15,2.59-.33,5.62-.51,8.86-.11,1.62-.22,3.29-.33,4.99-.12,1.7-.25,3.42-.41,5.14-.13,1.72-.29,3.44-.48,5.13-.19,1.69-.36,3.35-.58,4.95-.22,1.6-.45,3.14-.69,4.61-.26,1.45-.52,2.83-.79,4.09-.29,1.25-.58,2.4-.87,3.41-.32,1-.57,1.88-.86,2.58-.26.71-.5,1.26-.67,1.62-.17.37-.26.57-.26.57,0,0,.12-.18.35-.52.23-.34.58-.83.93-1.51.39-.66.78-1.51,1.21-2.49.2-.5.41-1.03.64-1.58.19-.57.4-1.16.61-1.79.19-.63.39-1.29.59-1.97.17-.69.36-1.4.54-2.13.34-1.47.68-3.02.96-4.63.27-1.62.56-3.29.75-5,.21-1.71.4-3.44.55-5.18.14-1.74.25-3.48.34-5.19.1-1.71.13-3.4.16-5.03.06-3.27.02-6.31-.09-8.92-.19-5.22-.62-8.68-.62-8.68Z"/>
        </g>
      </g>
    </g>
    <g>
      <g>
        <g>
          <g>
            <g>
              <polygon class="cls-29" points="218.44 177.97 208.56 177.97 198.67 177.97 190.22 212.28 208.56 237.71 226.89 210.18 218.44 177.97"/>
              <path class="cls-10" d="m218.44,177.97h-19.77l-2.06,8.36c5.85,5.88,17.99,9.77,25.48,5.56l-3.65-13.92Z"/>
            </g>
            <g>
              <g>
                <path class="cls-29" d="m173.49,144.18s-5.95-9.58-9.52-5.02c-3.58,4.55,2.18,15.53,9.52,13.66v-8.63Z"/>
                <path class="cls-29" d="m243.63,144.18s5.95-9.58,9.51-5.02c3.57,4.55-2.18,15.53-9.51,13.66v-8.63Z"/>
              </g>
              <g>
                <path class="cls-29" d="m208.68,92.14c-40.48,0-37.3,51.71-36.51,64.32.79,12.61,8.53,16.94,18.65,24.88,10.12,7.93,17.86,7.1,17.86,7.1,0,0,7.74.84,17.86-7.1,10.12-7.94,17.85-12.27,18.64-24.88.8-12.6,3.98-64.32-36.5-64.32Z"/>
                <path class="cls-13" d="m245.36,137.96c.25,6.79-.11,12.55-.31,15.76-.79,12.61-8.53,16.94-18.64,24.88-10.12,7.93-17.86,7.1-17.86,7.1,0,0-7.74.83-17.86-7.1-10.12-7.94-17.85-12.27-18.65-24.88-.04-.64-.09-1.39-.13-2.23.08,2,.19,3.69.27,4.97.79,12.61,8.53,16.94,18.65,24.88,10.12,7.93,17.86,7.1,17.86,7.1,0,0,7.74.84,17.86-7.1,10.12-7.94,17.85-12.27,18.64-24.88.23-3.64.66-10.53.18-18.5Z"/>
              </g>
            </g>
            <g>
              <path class="cls-32" d="m259.82,204.85l-36.55-8.46c0,11.45-12.88,11.41-13.92,11.21h0s-.01-.01-.04,0c-.02,0-.04,0-.04,0h0c-1.04.22-15.14.26-15.14-11.19l-35.33,8.46,7.54,34.87s-9.71,21.26,7.21,36.29l3.1,51.83h66.4l2.03-51.83c16.91-15.03,7.21-36.29,7.21-36.29l7.54-34.87Z"/>
              <path class="cls-8" d="m209.26,211.13v-.02s.02,0,.05,0c.03,0,.05,0,.05,0v.02c1.3.26,17.37.3,17.57-13.89l-3.66-.85c0,11.45-12.88,11.41-13.92,11.21h0s-.01-.01-.04,0c-.02,0-.04,0-.04,0h0c-1.04.22-15.14.26-15.14-11.19l-3.97.95c.3,14.08,17.8,14.05,19.1,13.79Z"/>
            </g>
            <g>
              <g>
                <g>
                  <path class="cls-27" d="m218.89,138.88s-.25-2.92.75-3.51c1-.59,9.9-.88,13.16,0,3.26.88,4.64,4.93,4.64,4.93,0,0-1.18-1.69-6.2-2.21-3.68-.38-11.1,1.37-12.35.79Z"/>
                  <path class="cls-27" d="m198.47,138.88s.25-2.92-.75-3.51c-1-.59-9.9-.88-13.16,0-3.26.88-4.64,4.93-4.64,4.93,0,0,1.18-1.69,6.2-2.21,3.69-.38,11.1,1.37,12.36.79Z"/>
                </g>
                <g>
                  <path class="cls-33" d="m230.58,148.8c0,2.15-1.18,3.9-2.64,3.9s-2.64-1.75-2.64-3.9,1.18-3.9,2.64-3.9,2.64,1.75,2.64,3.9Z"/>
                  <path class="cls-33" d="m192.62,148.8c0,2.15-1.18,3.9-2.64,3.9s-2.64-1.75-2.64-3.9,1.18-3.9,2.64-3.9,2.64,1.75,2.64,3.9Z"/>
                </g>
              </g>
              <g>
                <path class="cls-35" d="m196.99,168.87s3.45,8.17,11.69,8.17,11.67-8.17,11.67-8.17c0,0-9.62,4.31-23.36,0Z"/>
                <path class="cls-3" d="m197.01,168.93s5.68,4.68,11.82,4.68,11.38-4.68,11.38-4.68c0,0-9.63,5.42-23.2,0Z"/>
                <g>
                  <path class="cls-35" d="m220.67,168.65s-8.12-.5-9.69,0c-1.55.49-1.64.54-2.15.54-.54,0-.6-.04-2.15-.54-1.57-.5-9.69,0-9.69,0,9.56,4.77,21.92,1.79,23.68,0Z"/>
                  <path class="cls-35" d="m195.08,168.03c8.11,4.19,19.17,4.47,27.2,0,.18-.1,0-.33-.18-.23-7.92,4.42-18.83,4.14-26.84,0-.19-.1-.37.13-.18.23h0Z"/>
                </g>
              </g>
              <path class="cls-19" d="m204.45,161s.59.2,1.47.5c.42.12.89.28,1.37.38.24.06.48.09.72.14.24.01.48.07.72.05.24.03.47,0,.71-.02.24,0,.46-.08.7-.1.23-.04.45-.13.68-.18.23-.04.43-.16.64-.22.2-.08.41-.13.57-.22.16-.08.32-.14.45-.19.26-.1.44-.15.44-.15,0,0-.04.16-.16.43-.12.26-.28.67-.62,1.03-.17.19-.33.43-.58.6-.24.17-.49.38-.79.52-.31.12-.62.31-.99.35-.35.08-.72.13-1.09.1-.37,0-.72-.08-1.07-.16-.34-.1-.66-.22-.94-.38-.58-.3-1.03-.69-1.36-1.07-.67-.75-.84-1.43-.84-1.43Z"/>
            </g>
            <g class="cls-40">
              <path class="cls-35" d="m191.03,159.5c0,3.58-3.3,6.48-7.36,6.48s-7.36-2.9-7.36-6.48,3.3-6.48,7.36-6.48,7.36,2.9,7.36,6.48Z"/>
              <path class="cls-35" d="m241.99,159.5c0,3.58-3.3,6.48-7.36,6.48s-7.36-2.9-7.36-6.48,3.3-6.48,7.36-6.48,7.36,2.9,7.36,6.48Z"/>
            </g>
          </g>
          <path class="cls-9" d="m259.65,204.85s13.06,4.48,19.32,19.38c6.26,14.89,21.58,59.77,19.09,69.75-2.68,10.71-54.5,31.35-54.5,31.35l-7.84-13.54s32.06-22.44,37.4-26.72l-20.84-45.35,7.36-34.87Z"/>
          <path class="cls-9" d="m158.93,204.85s-13.06,4.48-19.32,19.38c-6.26,14.89-21.58,59.77-19.09,69.75,2.68,10.71,54.5,31.35,54.5,31.35l7.84-13.54s-32.06-22.44-37.4-26.72l20.88-45.35-7.41-34.87Z"/>
          <path class="cls-9" d="m226.7,275.32c-7.07-2.19-13.77-4.04-17.41-4.04h0s0,0,0,0c-3.65,0-10.34,1.85-17.41,4.04-7.08,2.19-12.13,1.01-12.13,1.01,5.02,3.11,11.97,3.55,18.87,1.01,6.08-2.24,10.67-2.19,10.67-2.19h0s0,0,0,0c0,0,4.53.12,10.67,2.19,7.02,2.37,13.85,2.1,18.87-1.01,0,0-5.05,1.18-12.13-1.01Z"/>
          <g>
            <path class="cls-30" d="m253.08,141.06c-1.51-1.32-2.75-1.2-3.76-.35-.12.06-.21.15-.27.25-1.76,1.79-2.73,5.8-3.03,7.68-.12.77,1.06,1.11,1.18.33.21-1.29.96-5.09,2.34-6.79.81,1.47.89,3.22-.03,4.71-.41.68.65,1.29,1.06.62,1.15-1.89,1.06-4.23-.05-6.08.51-.18,1.07-.06,1.7.49.59.52,1.46-.35.87-.87Z"/>
            <path class="cls-30" d="m164.74,141.06c1.51-1.32,2.75-1.2,3.76-.35.12.06.21.15.27.25,1.76,1.79,2.73,5.8,3.03,7.68.13.77-1.05,1.11-1.18.33-.21-1.29-.96-5.09-2.34-6.79-.81,1.47-.89,3.22.03,4.71.41.68-.65,1.29-1.06.62-1.15-1.89-1.06-4.23.06-6.08-.51-.18-1.07-.06-1.7.49-.59.52-1.46-.35-.87-.87Z"/>
          </g>
        </g>
        <path class="cls-29" d="m237.53,314.92s-11.26-.17-13.06,1.46c-1.8,1.63-7.19,11.6-6.37,12.58.82.98,13.55-1.31,16.82-2.61,3.27-1.31,7.59-2.82,7.59-2.82l-4.98-8.61Z"/>
        <path class="cls-29" d="m180.59,314.92s11.26-.17,13.06,1.46c1.8,1.63,7.19,11.6,6.37,12.58-.82.98-13.55-1.31-16.82-2.61-3.27-1.31-7.59-2.82-7.59-2.82l4.98-8.61Z"/>
      </g>
      <g>
        <path class="cls-11" d="m171.82,141.88s19.45-10.03,24.78-29.14c0,0,15.92,26.92,48.92,29.14,0,0,3.17-4.4,6.74-3.54,0,0,2.26-51.73-43.71-51.73s-42.05,51.33-42.05,51.33c0,0,2.53.73,5.32,3.94Z"/>
        <g class="cls-38">
          <path class="cls-22" d="m202.59,104.42s.46.58,1.29,1.54c.84.97,2.04,2.33,3.56,3.89.74.79,1.6,1.61,2.48,2.48.89.87,1.88,1.73,2.86,2.66,1.04.87,2.07,1.82,3.19,2.69.55.45,1.11.89,1.67,1.34.57.44,1.16.84,1.75,1.27.58.42,1.15.87,1.75,1.27.6.39,1.2.78,1.79,1.17,1.17.8,2.39,1.49,3.55,2.17,1.15.71,2.33,1.27,3.43,1.85.55.28,1.09.56,1.61.83.53.24,1.05.47,1.55.69,1,.42,1.9.88,2.72,1.21.83.31,1.56.59,2.15.81,1.19.48,1.88.75,1.88.75,0,0-.72-.12-1.98-.37-.63-.13-1.4-.29-2.28-.47-.87-.21-1.83-.54-2.89-.87-.53-.17-1.08-.34-1.65-.53-.56-.21-1.12-.46-1.71-.71-1.17-.5-2.43-.97-3.64-1.66-1.22-.66-2.53-1.27-3.74-2.09-.62-.39-1.24-.78-1.87-1.18-.62-.4-1.21-.85-1.82-1.28-.59-.45-1.2-.87-1.78-1.33-.57-.47-1.14-.94-1.7-1.4-.57-.45-1.11-.93-1.62-1.43-.52-.49-1.03-.98-1.54-1.45-.98-.98-1.91-1.95-2.74-2.91-.84-.95-1.61-1.87-2.28-2.76-.69-.86-1.26-1.7-1.78-2.44-.5-.74-.92-1.41-1.25-1.96-.66-1.1-.98-1.77-.98-1.77Z"/>
          <path class="cls-22" d="m207.33,97.56s1.92,1.73,4.86,4.19c.74.61,1.54,1.27,2.38,1.97.85.69,1.75,1.41,2.69,2.15,1.9,1.45,3.89,3.02,5.98,4.46l1.54,1.11c.53.35,1.05.7,1.57,1.05,1.04.7,2.06,1.38,3.07,2.01,1,.65,1.98,1.25,2.92,1.8.94.56,1.82,1.1,2.67,1.55.83.47,1.6.9,2.28,1.28.69.36,1.3.67,1.8.93.99.53,1.56.85,1.56.85,0,0-.62-.17-1.71-.49-.54-.17-1.2-.37-1.95-.6-.74-.27-1.57-.59-2.47-.96-.45-.19-.93-.36-1.4-.57-.47-.23-.96-.46-1.46-.7-1.01-.48-2.07-.98-3.11-1.6-1.06-.6-2.17-1.19-3.22-1.91-.54-.34-1.08-.69-1.62-1.04l-1.59-1.11c-1.06-.75-2.08-1.55-3.08-2.33-1.02-.77-1.93-1.63-2.87-2.4-1.8-1.62-3.43-3.2-4.73-4.63-1.33-1.41-2.34-2.67-3.04-3.56-.69-.9-1.05-1.44-1.05-1.44Z"/>
          <path class="cls-22" d="m210.27,92.33s2.56.06,6.3.96c.93.24,1.94.47,2.99.83.52.17,1.06.34,1.61.52.54.21,1.09.42,1.65.64,1.13.42,2.25.97,3.4,1.51,1.12.6,2.25,1.21,3.36,1.88l1.6,1.08.8.54.75.6c1,.79,1.98,1.58,2.81,2.46.43.43.86.84,1.26,1.27.42.4.73.9,1.09,1.32.68.88,1.37,1.67,1.83,2.53.5.83.94,1.6,1.33,2.27.32.71.56,1.36.77,1.87.41,1.04.62,1.63.62,1.63,0,0-.37-.53-.97-1.46-.3-.46-.66-1.02-1.07-1.66-.48-.6-1.03-1.26-1.59-2-.53-.76-1.3-1.44-2.01-2.22-.7-.8-1.57-1.51-2.43-2.29-.83-.81-1.83-1.47-2.78-2.22l-.72-.56-.77-.5-1.55-1.01c-1.05-.66-2.13-1.27-3.19-1.86-1.1-.52-2.13-1.16-3.21-1.61-.53-.24-1.05-.49-1.56-.72-.52-.22-1.02-.44-1.52-.65-.99-.43-1.94-.77-2.81-1.13-1.76-.65-3.25-1.18-4.31-1.51-1.05-.35-1.66-.52-1.66-.52Z"/>
          <path class="cls-22" d="m194.26,104.42s-.11.58-.39,1.57c-.28.99-.72,2.4-1.39,4.03-.64,1.65-1.54,3.51-2.59,5.45-.57.95-1.08,1.97-1.75,2.93-.63.97-1.28,1.96-1.99,2.91-.36.47-.71.95-1.07,1.41-.38.45-.75.9-1.12,1.35-.72.92-1.54,1.72-2.3,2.52-.74.82-1.56,1.52-2.32,2.2-.38.34-.75.66-1.1.98-.38.29-.75.57-1.1.84-.71.53-1.35,1.02-1.94,1.42-.61.38-1.14.7-1.58.98-.88.53-1.39.81-1.39.81,0,0,.42-.42,1.16-1.12.37-.34.83-.76,1.35-1.24.5-.5,1.06-1.07,1.67-1.69.31-.31.62-.62.95-.95.31-.34.64-.7.97-1.07.67-.73,1.38-1.49,2.07-2.32.71-.81,1.42-1.66,2.11-2.56.35-.44.71-.89,1.06-1.33l1.01-1.39c.71-.9,1.36-1.85,1.99-2.79.65-.92,1.24-1.87,1.84-2.77.56-.92,1.14-1.79,1.64-2.65.5-.86.99-1.66,1.42-2.41,1.73-3.01,2.79-5.11,2.79-5.11Z"/>
          <path class="cls-22" d="m198.5,94.13s-.14.04-.41.13c-.27.08-.64.24-1.13.41-.47.21-1.06.42-1.7.74-.65.29-1.35.68-2.12,1.09-.39.19-.76.46-1.16.71-.39.25-.82.48-1.21.79-.4.29-.82.58-1.24.89-.4.33-.82.66-1.24,1-.87.64-1.61,1.49-2.45,2.23-.79.81-1.55,1.67-2.29,2.54-.68.92-1.46,1.78-2.07,2.74-.58.97-1.29,1.85-1.8,2.81-.51.96-1.04,1.87-1.54,2.74-.43.91-.84,1.77-1.21,2.56-.19.4-.38.78-.55,1.14-.16.37-.3.73-.43,1.06-.27.67-.51,1.25-.71,1.72-.41.96-.66,1.5-.66,1.5,0,0,.09-.59.29-1.61.1-.51.23-1.13.37-1.85.08-.36.15-.74.25-1.14.13-.39.26-.8.39-1.23.28-.85.57-1.79.93-2.76.42-.94.86-1.94,1.35-2.96.22-.52.54-1,.83-1.51.29-.51.6-1.01.91-1.52.62-1.02,1.42-1.95,2.13-2.93.8-.91,1.63-1.81,2.49-2.65.9-.79,1.77-1.6,2.72-2.24.47-.33.91-.68,1.38-.96.47-.27.94-.54,1.39-.81.9-.52,1.81-.91,2.65-1.26.85-.33,1.63-.6,2.34-.78.7-.22,1.34-.31,1.85-.41,1.04-.16,1.64-.16,1.64-.16Z"/>
        </g>
      </g>
    </g>
    <g>
      <path class="cls-24" d="m169.54,131.21l-5.88-.03c0-.48.74-48.32,45.69-48.32s45.34,47.85,45.34,48.34h-5.88c0-1.73-.55-42.46-39.46-42.46-16.41,0-28.08,7.07-34.67,21.02-5.03,10.63-5.14,21.35-5.14,21.45Z"/>
      <path class="cls-31" d="m169.54,131.21c0-.11.11-10.82,5.14-21.45,6.6-13.95,18.26-21.02,34.67-21.02,38.92,0,39.46,40.73,39.46,42.46h3.09c-.28-6.12-3.61-44.58-42.56-44.58s-42.58,38.5-42.88,44.58h3.08Z"/>
    </g>
    <g>
      <g>
        <path class="cls-24" d="m248.08,154.29c-5.37,4.59-10.74,9.19-16.11,13.78-1.3,1.11.35,3.21,1.66,2.09,5.37-4.59,10.74-9.19,16.11-13.78,1.3-1.11-.34-3.21-1.66-2.09h0Z"/>
        <g>
          <path class="cls-16" d="m238.12,164.97c.99,1.25.78,3.06-.46,4.05l-4.49,3.57c-1.25.99-3.06.78-4.04-.46h0c-.99-1.24-.78-3.06.46-4.05l4.49-3.57c1.24-.99,3.06-.78,4.05.46h0Z"/>
          <path class="cls-25" d="m238.12,164.97c-.68-.85-1.73-1.2-2.73-1.03.16.13.3.27.43.44.99,1.24.78,3.06-.46,4.05l-4.49,3.57c-.39.31-.85.49-1.31.57,1.03.84,2.53.88,3.61.02l4.49-3.57c1.25-.99,1.45-2.8.46-4.05Z"/>
        </g>
      </g>
      <g>
        <g>
          <g>
            <path class="cls-16" d="m168.82,128.1h-2.21v1.14c-2.26,2.39-3.86,8.31-3.86,15.26s1.6,12.87,3.86,15.26v1.14h2.21c3.36,0,6.08-7.34,6.08-16.4s-2.72-16.4-6.08-16.4Z"/>
            <path class="cls-24" d="m166.6,128.1c-.55,0-1.07.21-1.57.58-2.29,1.21-6.27,4.88-6.27,15.82,0,9.85,3.22,13.68,5.53,15.17.71.79,1.49,1.23,2.31,1.23,3.36,0,6.08-7.34,6.08-16.4s-2.72-16.4-6.08-16.4Z"/>
            <path class="cls-12" d="m168.35,128.8c1.54,2.97,2.55,7.83,2.55,13.33,0,9.06-2.72,16.4-6.08,16.4-.82,0-1.6-.44-2.31-1.23-.42-.27-.87-.62-1.33-1.07.99,1.75,2.13,2.81,3.11,3.44.71.79,1.49,1.23,2.31,1.23,3.36,0,6.08-7.34,6.08-16.4,0-7.42-1.83-13.68-4.33-15.7Z"/>
          </g>
          <path class="cls-4" d="m164.48,132.51s-.07.3-.19.82c-.11.52-.26,1.23-.41,2.07-.07.43-.16.87-.23,1.35-.08.47-.16.97-.23,1.49-.09.51-.13,1.05-.21,1.59-.06.54-.12,1.09-.18,1.64-.05.55-.1,1.11-.15,1.65-.02.55-.09,1.09-.12,1.62-.02.53-.06,1.05-.11,1.54-.03.5-.06.97-.09,1.41-.09.89-.11,1.63-.18,2.17-.05.54-.11.86-.11.86,0,0-.13-.27-.32-.75-.18-.49-.47-1.19-.66-2.08-.1-.44-.22-.93-.3-1.46-.07-.53-.14-1.08-.19-1.67-.04-.58-.05-1.19-.06-1.81,0-.62.06-1.25.1-1.87.08-.62.16-1.25.28-1.85.13-.6.25-1.19.44-1.74.16-.55.35-1.07.56-1.55.19-.48.42-.9.63-1.29.44-.76.87-1.31,1.2-1.66.33-.35.55-.49.55-.49Z"/>
        </g>
        <g>
          <g>
            <path class="cls-16" d="m248.66,128.1h2.21v1.14c2.26,2.39,3.86,8.31,3.86,15.26s-1.6,12.87-3.86,15.26v1.14h-2.21c-3.36,0-6.08-7.34-6.08-16.4s2.72-16.4,6.08-16.4Z"/>
            <path class="cls-24" d="m250.88,128.1c.54,0,1.07.21,1.57.58,2.29,1.21,6.27,4.88,6.27,15.82,0,9.85-3.22,13.68-5.53,15.17-.71.79-1.49,1.23-2.31,1.23-3.36,0-6.08-7.34-6.08-16.4s2.72-16.4,6.08-16.4Z"/>
            <path class="cls-12" d="m249.13,128.8c-1.54,2.97-2.55,7.83-2.55,13.33,0,9.06,2.72,16.4,6.08,16.4.82,0,1.6-.44,2.31-1.23.42-.27.87-.62,1.33-1.07-.99,1.75-2.13,2.81-3.11,3.44-.71.79-1.49,1.23-2.31,1.23-3.36,0-6.08-7.34-6.08-16.4,0-7.42,1.83-13.68,4.33-15.7Z"/>
          </g>
          <path class="cls-4" d="m253,132.51s.07.3.19.82c.11.52.26,1.23.41,2.07.07.43.16.87.23,1.35.08.47.16.97.23,1.49.09.51.13,1.05.21,1.59.06.54.12,1.09.18,1.64.05.55.1,1.11.15,1.65.03.55.09,1.09.12,1.62.02.53.06,1.05.11,1.54.03.5.06.97.09,1.41.09.89.11,1.63.18,2.17.05.54.11.86.11.86,0,0,.13-.27.32-.75.18-.49.47-1.19.66-2.08.1-.44.21-.93.3-1.46.07-.53.14-1.08.19-1.67.04-.58.05-1.19.06-1.81,0-.62-.06-1.25-.1-1.87-.08-.62-.16-1.25-.28-1.85-.13-.6-.25-1.19-.44-1.74-.16-.55-.35-1.07-.56-1.55-.19-.48-.42-.9-.63-1.29-.44-.76-.87-1.31-1.2-1.66-.33-.35-.55-.49-.55-.49Z"/>
        </g>
      </g>
    </g>
  </g>
  <g>
    <rect class="cls-24" x="34.4" y="336.11" width="349.78" height="17.17"/>
    <path class="cls-20" d="m400.1,340.79c0,2.57-2.2,4.67-4.9,4.67H23.37c-2.69,0-4.9-2.1-4.9-4.67s2.21-4.67,4.9-4.67h371.83c2.7,0,4.9,2.1,4.9,4.67Z"/>
  </g>
  <path class="cls-21" d="m295.84,331.98c0,2.28-1.85,4.13-4.14,4.13H126.87c-2.28,0-4.13-1.85-4.13-4.13h0c0-2.28,1.85-4.14,4.13-4.14h164.83c2.28,0,4.14,1.85,4.14,4.14h0Z"/>
  <g>
    <g>
      <path class="cls-18" d="m143.64,241.59h131.29c4.33,0,7.84,3.51,7.84,7.84v71.93c0,4.33-3.51,7.84-7.84,7.84h-131.3c-4.33,0-7.84-3.51-7.84-7.84v-71.93c0-4.33,3.51-7.84,7.84-7.84Z"/>
      <path class="cls-24" d="m215.09,284.79c0,3.2-2.6,5.8-5.8,5.8s-5.8-2.6-5.8-5.8,2.6-5.8,5.8-5.8,5.8,2.6,5.8,5.8Z"/>
    </g>
    <path class="cls-23" d="m274.94,241.59h-28.28c-1.65,53.22-74.09,78.29-106.38,86.83,1.02.49,2.16.77,3.36.77h131.3c4.31,0,7.84-3.53,7.84-7.84v-71.93c0-4.31-3.53-7.84-7.84-7.84Z"/>
  </g>
  <g>
    <g>
      <path class="cls-24" d="m100.98,78.07h-43.88c-5.32,0-9.63,4.31-9.63,9.63v31.07c0,5.32,4.31,9.63,9.63,9.63h21.42l12.27,8.98v-8.98h10.19c5.32,0,9.63-4.31,9.63-9.63v-31.07c0-5.32-4.31-9.63-9.63-9.63Z"/>
      <g>
        <path class="cls-36" d="m80.62,90.34c0,.81-.66,1.47-1.47,1.47h-22.47c-.81,0-1.47-.66-1.47-1.47h0c0-.81.66-1.47,1.47-1.47h22.47c.81,0,1.47.66,1.47,1.47h0Z"/>
        <path class="cls-36" d="m104.69,98.37c0,.81-.66,1.47-1.47,1.47h-46.54c-.81,0-1.47-.66-1.47-1.47h0c0-.81.66-1.47,1.47-1.47h46.54c.81,0,1.47.66,1.47,1.47h0Z"/>
        <path class="cls-36" d="m104.69,106.39c0,.81-.66,1.47-1.47,1.47h-46.54c-.81,0-1.47-.66-1.47-1.47h0c0-.81.66-1.47,1.47-1.47h46.54c.81,0,1.47.66,1.47,1.47h0Z"/>
        <path class="cls-36" d="m96.67,114.41c0,.81-.66,1.47-1.47,1.47h-38.51c-.81,0-1.47-.66-1.47-1.47h0c0-.81.66-1.47,1.47-1.47h38.51c.81,0,1.47.66,1.47,1.47h0Z"/>
      </g>
      <path class="cls-26" d="m100.98,78.07h-.79c.4,25.97-19.89,41.94-35.42,50.33h13.75l12.27,8v-8h10.19c5.32,0,9.63-4.31,9.63-9.63v-31.07c0-5.32-4.31-9.63-9.63-9.63Z"/>
    </g>
    <g>
      <g>
        <rect class="cls-32" x="48.57" y="201.68" width="43.14" height="26.86"/>
        <polygon class="cls-9" points="48.57 201.68 91.7 201.68 70.14 220.46 48.57 201.68"/>
        <g class="cls-41">
          <g>
            <path class="cls-9" d="m49.28,229.41c4.87-6.48,9.74-12.96,14.61-19.44.88-1.17-.55-2.91-1.43-1.74-4.87,6.48-9.74,12.96-14.61,19.43-.88,1.17.55,2.91,1.43,1.74h0Z"/>
            <path class="cls-9" d="m92.09,227.67c-4.87-6.48-9.74-12.96-14.61-19.43-.88-1.17-2.31.57-1.43,1.74,4.87,6.48,9.74,12.96,14.61,19.44.88,1.17,2.31-.57,1.43-1.74h0Z"/>
          </g>
        </g>
      </g>
      <path class="cls-26" d="m63.61,228.54h28.1v-26.86h-12.74c2.48,13.37-6.24,21.81-15.35,26.86Z"/>
    </g>
    <g>
      <g>
        <path class="cls-32" d="m325.7,157.22h-38.73c-2.57,0-4.65,2.08-4.65,4.65v15.01c0,2.57,2.08,4.65,4.65,4.65h19.11l5.92,7.18v-7.18h13.69c2.57,0,4.65-2.08,4.65-4.65v-15.01c0-2.57-2.08-4.65-4.65-4.65Z"/>
        <g>
          <path class="cls-3" d="m296.72,168.93c0,1.47-1.19,2.66-2.66,2.66s-2.66-1.19-2.66-2.66,1.19-2.66,2.66-2.66,2.66,1.19,2.66,2.66Z"/>
          <path class="cls-3" d="m308.99,168.93c0,1.47-1.19,2.66-2.66,2.66s-2.66-1.19-2.66-2.66,1.19-2.66,2.66-2.66,2.66,1.19,2.66,2.66Z"/>
          <path class="cls-3" d="m321.27,168.93c0,1.47-1.19,2.66-2.66,2.66s-2.66-1.19-2.66-2.66,1.19-2.66,2.66-2.66,2.66,1.19,2.66,2.66Z"/>
        </g>
      </g>
      <path class="cls-26" d="m325.7,157.22h-5.69c.84,13.68-12.59,20.77-24,24.31h10.07l5.92,7.18v-7.18h13.69c2.57,0,4.65-2.08,4.65-4.65v-15.01c0-2.57-2.08-4.65-4.65-4.65Z"/>
    </g>
    <g>
      <g>
        <path class="cls-24" d="m321.96,77.54c-.94-.47-2.79-.05-4.5.52-.51-1.76-1.21-3.44-2.07-5.01,1.61-.81,3.2-1.82,3.55-2.81.85-2.37-3.64-6.86-3.64-6.86,0,0-4.45-4.45-6.86-3.64-.99.33-2.01,1.93-2.81,3.54-1.57-.87-3.25-1.56-5.01-2.07.57-1.71.98-3.55.53-4.5-1.08-2.28-7.43-2.28-7.43-2.28,0,0-6.3,0-7.43,2.28-.47.94-.05,2.79.52,4.5-1.76.51-3.44,1.21-5.01,2.07-.81-1.61-1.82-3.2-2.81-3.55-2.37-.85-6.86,3.64-6.86,3.64,0,0-4.45,4.45-3.64,6.86.33.99,1.93,2.01,3.54,2.82-.87,1.57-1.56,3.25-2.07,5.01-1.71-.57-3.55-.98-4.5-.53-2.28,1.08-2.28,7.43-2.28,7.43,0,0,0,6.3,2.28,7.43.94.47,2.79.05,4.5-.52.51,1.76,1.21,3.44,2.07,5.01-1.6.81-3.2,1.82-3.55,2.81-.85,2.37,3.64,6.86,3.64,6.86,0,0,4.45,4.45,6.86,3.64.99-.33,2.01-1.93,2.82-3.55,1.57.87,3.25,1.56,5.01,2.07-.57,1.71-.98,3.55-.53,4.5,1.08,2.28,7.43,2.28,7.43,2.28,0,0,6.3,0,7.43-2.28.47-.94.05-2.79-.52-4.5,1.76-.51,3.44-1.21,5.01-2.07.81,1.6,1.82,3.2,2.81,3.55,2.37.85,6.86-3.64,6.86-3.64,0,0,4.45-4.45,3.64-6.86-.33-.99-1.93-2.01-3.54-2.82.87-1.57,1.56-3.25,2.07-5.01,1.71.57,3.55.98,4.5.53,2.28-1.08,2.28-7.43,2.28-7.43,0,0,0-6.3-2.28-7.43Zm-28.25,18.87c-6.32,0-11.45-5.13-11.45-11.45s5.13-11.45,11.45-11.45,11.45,5.13,11.45,11.45-5.12,11.45-11.45,11.45Z"/>
        <g class="cls-37">
          <path class="cls-16" d="m293.71,102.51c-9.68,0-17.56-7.88-17.56-17.56s7.87-17.56,17.56-17.56,17.56,7.88,17.56,17.56-7.88,17.56-17.56,17.56Zm0-31.62c-7.76,0-14.07,6.31-14.07,14.07s6.31,14.07,14.07,14.07,14.07-6.31,14.07-14.07-6.31-14.07-14.07-14.07Z"/>
        </g>
      </g>
      <path class="cls-26" d="m278.98,110.18c.99-.33,2.01-1.93,2.82-3.55,1.57.87,3.25,1.56,5.01,2.07-.57,1.71-.98,3.55-.53,4.5,1.08,2.28,7.43,2.28,7.43,2.28,0,0,6.3,0,7.43-2.28.47-.94.05-2.79-.52-4.5,1.76-.51,3.44-1.21,5.01-2.07.81,1.6,1.82,3.2,2.81,3.55,2.37.85,6.86-3.64,6.86-3.64,0,0,4.45-4.45,3.64-6.86-.33-.99-1.93-2.01-3.54-2.82.87-1.57,1.56-3.25,2.07-5.01,1.71.57,3.55.98,4.5.53,2.28-1.08,2.28-7.43,2.28-7.43,0,0,0-6.3-2.28-7.43-.94-.47-2.79-.05-4.5.52-.51-1.76-1.21-3.44-2.07-5.01,1.61-.81,3.2-1.82,3.55-2.81.85-2.37-3.64-6.86-3.64-6.86,0,0-.47-.47-1.19-1.08-1.96,7.17-5.39,13.38-9.66,18.74.45,1.22.7,2.54.7,3.92,0,6.33-5.12,11.45-11.45,11.45-1.73,0-3.36-.4-4.83-1.08-6.1,4.22-12.41,7.46-17.97,9.87.67.8,1.21,1.34,1.21,1.34,0,0,4.45,4.45,6.86,3.64Z"/>
    </g>
    <g>
      <g>
        <path class="cls-32" d="m121.53,41.72c-.48-.24-1.41-.03-2.28.26-.26-.89-.61-1.74-1.05-2.54.81-.41,1.62-.92,1.8-1.42.43-1.2-1.84-3.47-1.84-3.47,0,0-2.25-2.25-3.48-1.84-.5.17-1.02.98-1.42,1.79-.8-.44-1.65-.79-2.54-1.05.29-.86.49-1.8.27-2.28-.55-1.15-3.76-1.15-3.76-1.15,0,0-3.19,0-3.76,1.15-.23.48-.03,1.41.26,2.28-.89.26-1.74.61-2.54,1.05-.41-.81-.92-1.62-1.42-1.8-1.2-.43-3.48,1.84-3.48,1.84,0,0-2.25,2.25-1.84,3.47.17.5.98,1.02,1.79,1.43-.44.8-.79,1.65-1.05,2.54-.86-.29-1.8-.49-2.28-.27-1.15.55-1.15,3.76-1.15,3.76,0,0,0,3.19,1.15,3.76.48.24,1.41.03,2.28-.26.26.89.61,1.74,1.05,2.54-.81.41-1.62.92-1.8,1.42-.43,1.2,1.84,3.47,1.84,3.47,0,0,2.25,2.25,3.47,1.84.5-.17,1.02-.98,1.43-1.79.8.44,1.65.79,2.54,1.05-.29.86-.49,1.8-.27,2.28.55,1.15,3.76,1.15,3.76,1.15,0,0,3.19,0,3.76-1.15.24-.48.03-1.41-.26-2.28.89-.26,1.74-.61,2.54-1.05.41.81.92,1.62,1.42,1.8,1.2.43,3.47-1.84,3.47-1.84,0,0,2.25-2.25,1.84-3.47-.17-.5-.98-1.02-1.79-1.43.44-.8.79-1.65,1.05-2.54.86.29,1.8.49,2.28.27,1.15-.55,1.15-3.76,1.15-3.76,0,0,0-3.19-1.15-3.76Zm-14.3,9.56c-3.2,0-5.8-2.6-5.8-5.8s2.6-5.8,5.8-5.8,5.8,2.6,5.8,5.8-2.59,5.8-5.8,5.8Z"/>
        <g class="cls-37">
          <path class="cls-9" d="m107.23,54.36c-4.9,0-8.89-3.99-8.89-8.89s3.99-8.89,8.89-8.89,8.89,3.99,8.89,8.89-3.99,8.89-8.89,8.89Zm0-16.01c-3.93,0-7.12,3.19-7.12,7.12s3.19,7.12,7.12,7.12,7.12-3.2,7.12-7.12-3.2-7.12-7.12-7.12Z"/>
        </g>
      </g>
      <path class="cls-26" d="m99.77,58.24c.5-.17,1.02-.98,1.43-1.79.8.44,1.65.79,2.54,1.05-.29.86-.49,1.8-.27,2.28.55,1.15,3.76,1.15,3.76,1.15,0,0,3.19,0,3.76-1.15.24-.48.03-1.41-.26-2.28.89-.26,1.74-.61,2.54-1.05.41.81.92,1.62,1.42,1.8,1.2.43,3.47-1.84,3.47-1.84,0,0,2.25-2.25,1.84-3.47-.17-.5-.98-1.02-1.79-1.43.44-.8.79-1.65,1.05-2.54.86.29,1.8.49,2.28.27,1.15-.55,1.15-3.76,1.15-3.76,0,0,0-3.19-1.15-3.76-.48-.24-1.41-.03-2.28.26-.26-.89-.61-1.74-1.05-2.54.81-.41,1.62-.92,1.8-1.42.43-1.2-1.84-3.47-1.84-3.47,0,0-.1-.1-.27-.26-1.45,3.19-3.33,6.04-5.49,8.58.4.78.62,1.67.62,2.6,0,3.2-2.59,5.8-5.8,5.8-1.11,0-2.14-.32-3.02-.86-2.84,2.08-5.77,3.81-8.57,5.25.36.44.66.74.66.74,0,0,2.25,2.25,3.47,1.84Z"/>
    </g>
    <g>
      <path class="cls-17" d="m99.13,151.27h34.24c2.27,0,4.11,1.84,4.11,4.11v13.27c0,2.27-1.84,4.11-4.11,4.11h-16.9l-5.24,6.34v-6.34h-12.11c-2.27,0-4.11-1.84-4.11-4.11v-13.27c0-2.27,1.84-4.11,4.11-4.11Z"/>
      <g>
        <path class="cls-3" d="m115.62,157.64c-1.26-.73-3.11.03-4.61,1.71-1.5-1.68-3.35-2.44-4.61-1.71-1.59.92-1.61,3.85-.05,6.54,1.25,2.16,3.14,3.48,4.66,3.45,1.52.03,3.41-1.29,4.66-3.45,1.56-2.69,1.54-5.61-.05-6.54Z"/>
        <text class="cls-1" transform="translate(120.41 167.63)"><tspan x="0" y="0">1</tspan></text>
      </g>
      <path class="cls-26" d="m137.48,155.38c0-2.27-1.84-4.11-4.11-4.11h-7.03c.52,12.03-10.7,18.31-20.57,21.5h5.46v6.34l5.24-6.34h16.9c2.27,0,4.11-1.84,4.11-4.11v-13.27Z"/>
    </g>
    <g>
      <path class="cls-17" d="m136.09,51.26h34.24c2.27,0,4.11,1.84,4.11,4.11v13.27c0,2.27-1.84,4.11-4.11,4.11h-16.9l-5.24,6.35v-6.35h-12.11c-2.27,0-4.11-1.84-4.11-4.11v-13.27c0-2.27,1.84-4.11,4.11-4.11Z"/>
      <g>
        <text class="cls-1" transform="translate(157.38 67.23)"><tspan x="0" y="0">1</tspan></text>
        <path class="cls-3" d="m151.71,58.48h-6.98c-.85,0-1.53.69-1.53,1.53v4.94c0,.85.69,1.53,1.53,1.53h3.41l1.95,2.36v-2.36h1.62c.85,0,1.53-.69,1.53-1.53v-4.94c0-.84-.69-1.53-1.53-1.53Z"/>
      </g>
      <path class="cls-26" d="m174.45,55.37c0-2.27-1.84-4.11-4.11-4.11h-7.03c.52,12.03-10.7,18.31-20.57,21.5h5.46v6.35l5.24-6.35h16.9c2.27,0,4.11-1.84,4.11-4.11v-13.27Z"/>
    </g>
    <g>
      <circle class="cls-17" cx="363.62" cy="122.67" r="25.21" transform="translate(231.89 483.11) rotate(-88.57)"/>
      <path class="cls-3" d="m376.16,111.9c-4.69,4.23-9.38,8.46-14.08,12.69-2.99-1.5-5.98-2.99-8.96-4.49-1.83-.91-3.43,1.82-1.6,2.74,3.34,1.67,6.68,3.35,10.02,5.02.67.34,1.36.26,1.92-.25,4.98-4.49,9.96-8.98,14.94-13.47,1.52-1.37-.73-3.61-2.24-2.24Z"/>
      <g>
        <g>
          <g>
            <circle class="cls-34" cx="363.62" cy="101.7" r="1.31"/>
            <path class="cls-34" d="m364.92,143.93c0,.72-.59,1.31-1.31,1.31s-1.31-.59-1.31-1.31.58-1.31,1.31-1.31,1.31.59,1.31,1.31Z"/>
          </g>
          <g>
            <path class="cls-34" d="m384.73,124.12c-.72,0-1.31-.59-1.31-1.31s.58-1.31,1.31-1.31,1.31.59,1.31,1.31-.58,1.31-1.31,1.31Z"/>
            <path class="cls-34" d="m342.5,124.12c-.72,0-1.31-.59-1.31-1.31s.58-1.31,1.31-1.31,1.31.59,1.31,1.31-.58,1.31-1.31,1.31Z"/>
          </g>
        </g>
        <g>
          <g>
            <path class="cls-34" d="m375.41,105.25c-.36.62-1.17.83-1.79.47-.62-.36-.83-1.17-.47-1.79.37-.62,1.17-.83,1.79-.47.62.36.83,1.17.47,1.79Z"/>
            <path class="cls-34" d="m354.09,141.7c-.37.62-1.17.83-1.79.47-.62-.37-.83-1.17-.47-1.79.36-.62,1.17-.83,1.79-.47.62.36.83,1.17.47,1.79Z"/>
          </g>
          <g>
            <path class="cls-34" d="m381.18,134.6c-.62-.37-.83-1.17-.47-1.79.37-.62,1.17-.83,1.79-.47.63.37.83,1.17.47,1.79-.36.62-1.16.83-1.79.47Z"/>
            <path class="cls-34" d="m344.73,113.29c-.62-.37-.83-1.17-.47-1.79.37-.62,1.17-.83,1.79-.47.62.37.83,1.17.47,1.79-.36.62-1.17.84-1.79.47Z"/>
          </g>
        </g>
        <g>
          <g>
            <path class="cls-34" d="m351.83,105.25c.37.62,1.17.83,1.79.47.62-.36.83-1.17.47-1.79-.37-.62-1.17-.83-1.79-.47-.62.36-.83,1.17-.47,1.79Z"/>
            <path class="cls-34" d="m373.15,141.7c.37.62,1.16.83,1.79.47.62-.37.83-1.17.47-1.79-.36-.62-1.17-.83-1.79-.47-.62.36-.83,1.17-.47,1.79Z"/>
          </g>
          <g>
            <path class="cls-34" d="m346.05,134.6c.62-.37.83-1.17.47-1.79-.36-.62-1.17-.83-1.79-.47-.63.37-.84,1.17-.47,1.79.37.62,1.17.83,1.79.47Z"/>
            <path class="cls-34" d="m382.5,113.29c.62-.37.83-1.17.47-1.79-.37-.62-1.17-.83-1.79-.47-.62.37-.83,1.17-.47,1.79.37.62,1.17.84,1.79.47Z"/>
          </g>
        </g>
      </g>
    </g>
    <g>
      <text class="cls-2" transform="translate(197.39 39.79)"><tspan class="cls-39" x="0" y="0">2</tspan><tspan class="cls-5" x="7.22" y="0">4</tspan><tspan class="cls-42" x="16" y="0">/</tspan><tspan x="21.08" y="0">7</tspan></text>
      <path class="cls-15" d="m233.57,35.4c-.21,9.83-6.3,18.19-15.63,21.34-9.33,3.15-19.61-.85-25.2-8.68-5.72-8.02-4.92-19.08,1.01-26.69,6.46-8.3,18.07-10.39,27.38-6.03-2.46.88-4.92,1.76-7.38,2.63-1.14.41-.65,2.23.5,1.82,3.01-1.08,6.03-2.15,9.04-3.23.49-.18.79-.63.66-1.16-.78-3.13-1.55-6.26-2.33-9.38-.29-1.18-2.11-.68-1.82.5.57,2.32,1.15,4.63,1.72,6.95-10.21-4.51-21.83-2.02-29.11,6.57-6.93,8.18-7.05,20.18-1.31,28.97,5.85,8.96,17.27,12.47,27.33,9.54,10.2-2.96,16.79-12.8,17.02-23.16.03-1.22-1.86-1.21-1.88,0Z"/>
    </g>
  </g>
  <g>
    <g>
      <g>
        <path class="cls-15" d="m345.67,269.74c-4.94-4.18-12.25,7.17-13.72,13-.79-4.64-1.84-9.32-3.2-13.92,2.76.14,12.59-11.34,7.37-14.18-4.21-2.29-7.83,6.68-8.22,11.42-1.25-3.83-2.72-7.58-4.43-11.18,3.72-1.02,12.37-19.42,4.53-21.27-5.95-1.41-7.68,9.97-6.91,16.66-1.78-3.18-3.78-6.19-6.01-8.97,2.99-2.32,7.05-18.22.33-18.59-5.23-.29-5.02,9.49-3.39,15.09-1.3-1.37-2.66-2.67-4.09-3.89,1.23-3.88-15.45-21.58-20.75-13.82-5.05,7.39,15.16,16,19.84,14.59,1.77,1.49,3.43,3.12,5,4.85-5.05-2.15-15.68-3.37-15.71,2.02-.04,6.56,15.77,3.5,18.04.73,2.4,3.03,4.51,6.34,6.38,9.83-5.31-3.49-17.2-7.04-18.33-.91-1.35,7.33,16.55,7.21,20.21,4.66,1.42,3.03,2.66,6.18,3.75,9.39-3.52-3.29-9.96-6.82-11.75-3.1-2.29,4.76,9.5,8.07,13.07,7.29,1.1,3.75,1.99,7.55,2.69,11.33-3.62-5.15-10.97-11.43-14.25-7.14-4.31,5.64,10.81,13.27,15.18,12.8.69,4.88,1.09,9.67,1.22,14.19.02.79,1.25.79,1.23,0-.14-4.69-.56-9.64-1.29-14.68,3.47.95,19.16-11.17,13.22-16.21Z"/>
        <path class="cls-15" d="m376.19,228.55c1.62-2.61,3.32-5.19,5.13-7.69,4.6.67,22.93-12.45,16.3-18.61-6.78-6.29-18.86,13.92-17.26,17.9-1.24,1.74-2.43,3.52-3.59,5.31.93-5.55.32-13.45-4.3-12.96-6.46.68-1.83,15.76,1.18,17.95-.71,1.18-1.41,2.37-2.1,3.55-1.45,2.5-2.82,5.05-4.13,7.62.78-6.17-.78-16.96-6.35-15.65-7.38,1.73.97,19.33,4.33,19.78-2.16,4.55-4.11,9.2-5.85,13.92.1-7.62-3.55-21.11-10.29-18.56-8.82,3.33,4.47,23.79,8.55,23.5-1.56,4.66-2.93,9.39-4.1,14.17-1.04-5.12-4.61-12.43-8.54-10.22-5.19,2.92,4.11,13.9,7.49,14.74-2,9.13-3.34,18.41-4,27.72-.05.78,1.15.99,1.21.2.67-9.37,2.02-18.65,4.04-27.76,3.18,1.36,17.82-2.64,15.05-8.2-2.29-4.6-10.9.94-14.28,4.89,1.23-5.08,2.67-10.1,4.33-15.05,4.93,2.47,26.46-.19,23.7-8.82-2.32-7.21-16.03-1.15-21.96,3.88,1.73-4.68,3.65-9.28,5.79-13.81,3.99,2.42,21.1,2.45,19.8-4.68-1.09-5.97-12.49-2.69-17.86.69,1.17-2.33,2.38-4.64,3.67-6.93.83-1.46,1.69-2.93,2.56-4.41,2.32,2.76,18.99,5.18,18.61-1.62-.32-5.87-12.49-3.53-17.12-.85Z"/>
      </g>
      <g>
        <g>
          <path class="cls-17" d="m365.09,331.92c-.31,2.31-2.47,4.19-4.79,4.19h-36.2c-2.33,0-4.44-1.89-4.7-4.21l-4.35-38.94c-.26-2.31,1.43-4.2,3.76-4.2h47.83c2.33,0,3.98,1.89,3.67,4.2l-5.22,38.96Z"/>
          <path class="cls-26" d="m366.64,288.76h-8.69c1.31,13.55-1.48,33.77-24.82,47.35h27.16c2.33,0,4.48-1.89,4.79-4.19l5.22-38.96c.31-2.31-1.34-4.2-3.67-4.2Z"/>
        </g>
        <path class="cls-34" d="m375.88,292.47c0,3.04-2.47,5.51-5.51,5.51h-55.37c-3.04,0-5.51-2.47-5.51-5.51h0c0-3.04,2.47-5.51,5.51-5.51h55.37c3.04,0,5.51,2.47,5.51,5.51h0Z"/>
      </g>
    </g>
    <g>
      <g>
        <path class="cls-17" d="m90.29,334.32c-.71,0-1.41-.06-2.1-.2-7.61-1.44-12.31-10.46-10.49-20.12,1.65-8.75,7.96-15.11,15-15.11.7,0,1.41.07,2.1.2,7.61,1.44,12.32,10.47,10.49,20.12-1.65,8.75-7.96,15.11-15,15.11Zm2.41-30.53c-4.61,0-8.99,4.78-10.19,11.12-1.32,7,1.63,13.46,6.59,14.4.39.08.79.11,1.19.11,4.61,0,8.99-4.78,10.19-11.12,1.32-7.01-1.63-13.47-6.59-14.4-.39-.08-.79-.11-1.2-.11Z"/>
        <g>
          <path class="cls-17" d="m89.88,294.75h-36.76s-4.9,28.84,9.63,41.36h17.5c14.53-12.53,9.63-41.36,9.63-41.36Z"/>
          <path class="cls-26" d="m72.38,336.11h7.86c14.53-12.53,9.63-41.36,9.63-41.36h-9.78c-2.86,10.67-9.25,27.14-22.5,35.04,1.36,2.35,3.04,4.51,5.15,6.32h9.64Z"/>
        </g>
      </g>
      <g>
        <path class="cls-7" d="m65.78,291.73s-5.02-3.35-3.81-7.92c1.22-4.57,7.12-12.85,1.81-18.43,0,0,8.55,4.57,5.81,11.12-2.74,6.55-6.09,9.29-3.81,15.23Z"/>
        <path class="cls-7" d="m78.83,285.4s-5.02-3.35-3.81-7.92c1.22-4.57,7.12-12.85,1.81-18.43,0,0,8.55,4.57,5.81,11.12-2.74,6.55-6.09,9.29-3.81,15.23Z"/>
      </g>
    </g>
  </g>
  <g>
    <path class="cls-34" d="m89.88,294.75c0,2.01-8.29,3.63-18.51,3.63s-18.51-1.63-18.51-3.63,8.29-3.63,18.51-3.63,18.51,1.63,18.51,3.63Z"/>
    <path class="cls-6" d="m55.36,296.57c3.2,1.08,9.17,1.82,16.01,1.82s12.81-.73,16.01-1.82c-3.2-1.08-9.17-1.82-16.01-1.82s-12.81.73-16.01,1.82Z"/>
  </g>
  <g>
    <polygon class="cls-28" points="265.66 24.29 262.62 14.02 259.59 24.29 250.2 27.51 259.59 30.74 262.62 41.01 265.66 30.74 275.04 27.51 265.66 24.29"/>
    <polygon class="cls-3" points="280.61 137.54 278.56 130.58 276.5 137.54 270.13 139.73 276.5 141.92 278.56 148.88 280.61 141.92 286.98 139.73 280.61 137.54"/>
    <polygon class="cls-3" points="312.33 127.65 311.26 124.02 310.19 127.65 306.87 128.79 310.19 129.94 311.26 133.57 312.33 129.94 315.66 128.79 312.33 127.65"/>
    <polygon class="cls-28" points="377.98 177.08 375.88 169.96 373.77 177.08 367.27 179.32 373.77 181.56 375.88 188.68 377.98 181.56 384.49 179.32 377.98 177.08"/>
    <polygon class="cls-3" points="333.82 206.46 331.44 198.4 329.06 206.46 321.7 208.99 329.06 211.52 331.44 219.58 333.82 211.52 341.18 208.99 333.82 206.46"/>
    <polygon class="cls-3" points="279.63 199.89 278.56 196.26 277.48 199.89 274.16 201.04 277.48 202.18 278.56 205.81 279.63 202.18 282.95 201.04 279.63 199.89"/>
    <polygon class="cls-28" points="354.16 76.79 352.96 72.72 351.75 76.79 348.03 78.07 351.75 79.35 352.96 83.43 354.16 79.35 357.89 78.07 354.16 76.79"/>
    <polygon class="cls-28" points="122.83 4.08 121.63 0 120.42 4.08 116.7 5.36 120.42 6.64 121.63 10.71 122.83 6.64 126.56 5.36 122.83 4.08"/>
    <polygon class="cls-28" points="317.25 10.44 315.14 3.32 313.04 10.44 306.53 12.67 313.04 14.91 315.14 22.03 317.25 14.91 323.75 12.67 317.25 10.44"/>
    <polygon class="cls-28" points="162.84 24.99 160.73 17.87 158.63 24.99 152.12 27.23 158.63 29.47 160.73 36.59 162.84 29.47 169.34 27.23 162.84 24.99"/>
    <polygon class="cls-28" points="65.97 35.3 64.77 31.23 63.56 35.3 59.84 36.59 63.56 37.87 64.77 41.94 65.97 37.87 69.7 36.59 65.97 35.3"/>
    <polygon class="cls-28" points="26.92 116.54 23.89 106.27 20.85 116.54 11.47 119.76 20.85 122.99 23.89 133.26 26.92 122.99 36.31 119.76 26.92 116.54"/>
    <polygon class="cls-3" points="143.59 101.4 140.28 90.19 136.97 101.4 126.73 104.92 136.97 108.44 140.28 119.65 143.59 108.44 153.83 104.92 143.59 101.4"/>
    <polygon class="cls-3" points="54.92 167.33 52.86 160.37 50.8 167.33 44.44 169.52 50.8 171.71 52.86 178.67 54.92 171.71 61.28 169.52 54.92 167.33"/>
    <polygon class="cls-3" points="133.05 199.89 131.98 196.26 130.9 199.89 127.58 201.04 130.9 202.18 131.98 205.81 133.05 202.18 136.37 201.04 133.05 199.89"/>
    <polygon class="cls-3" points="106.75 248.56 104.69 241.59 102.63 248.56 96.27 250.74 102.63 252.93 104.69 259.9 106.75 252.93 113.11 250.74 106.75 248.56"/>
    <polygon class="cls-28" points="10.72 235.47 8.61 228.35 6.51 235.47 0 237.71 6.51 239.95 8.61 247.07 10.72 239.95 17.22 237.71 10.72 235.47"/>
    <polygon class="cls-28" points="18.47 266.87 17.27 262.79 16.06 266.87 12.34 268.15 16.06 269.43 17.27 273.5 18.47 269.43 22.2 268.15 18.47 266.87"/>
    <polygon class="cls-28" points="408.78 257.66 406.67 250.54 404.57 257.66 398.06 259.9 404.57 262.13 406.67 269.25 408.78 262.13 415.29 259.9 408.78 257.66"/>
  </g>
</svg>