<?xml version="1.0" encoding="UTF-8"?>
<svg id="Layer_1" data-name="Layer 1" xmlns="http://www.w3.org/2000/svg" viewBox="0 0 4300 4168.16">
  <defs>
    <style>
      .cls-1 {
        fill: #cad5ff;
      }

      .cls-1, .cls-2, .cls-3, .cls-4, .cls-5 {
        stroke-width: 0px;
      }

      .cls-2 {
        fill: #2096fc;
      }

      .cls-3 {
        fill: #031951;
      }

      .cls-4 {
        fill: #fff;
      }

      .cls-5 {
        fill: #292068;
      }
    </style>
  </defs>
  <g id="Presentation">
    <g id="Presentation-2" data-name="Presentation">
      <g>
        <path class="cls-1" d="m908.33,740.17c0,14.49-11.71,26.2-26.2,26.2s-26.08-11.71-26.08-26.2,11.65-26.08,26.08-26.08,26.2,11.66,26.2,26.08Z"/>
        <g>
          <g>
            <line class="cls-4" x1="871.14" y1="3421.29" x2="628.37" y2="3555.66"/>
            <path class="cls-4" d="m582.61,3608.02c-9.5,0-18.72-5.03-23.65-13.94-7.22-13.05-2.5-29.48,10.55-36.71l156.91-86.85c13.05-7.22,29.49-2.51,36.71,10.55,7.22,13.05,2.5,29.48-10.55,36.71l-156.91,86.85c-4.14,2.29-8.63,3.39-13.06,3.39Z"/>
            <path class="cls-2" d="m1707.83,2785.3c-1.22,0-2.26-.94-2.35-2.18-.1-1.3.87-2.44,2.18-2.54,98.88-7.59,182.31-19.02,255.07-34.94,1.25-.28,2.54.53,2.81,1.8.28,1.27-.53,2.54-1.8,2.81-72.98,15.97-156.62,27.44-255.72,35.04-.06,0-.12,0-.18,0Z"/>
            <path class="cls-2" d="m2007.7,1685.57c-.44,0-.89-.13-1.29-.39-61.86-40.38-136.46-75.39-221.73-104.05-1.24-.42-1.91-1.75-1.49-2.99.42-1.24,1.78-1.91,2.99-1.49,85.66,28.79,160.62,63.98,222.82,104.58,1.09.71,1.4,2.18.69,3.27-.45.69-1.21,1.07-1.98,1.07Z"/>
            <path class="cls-2" d="m2274.8,2143.45c-1.27,0-2.32-1.01-2.36-2.28-5.96-168.77-68.71-305.21-186.52-405.55-.99-.85-1.11-2.34-.27-3.33.85-1,2.34-1.11,3.33-.27,118.86,101.24,182.17,238.84,188.17,408.99.05,1.3-.97,2.4-2.28,2.44-.03,0-.06,0-.08,0Z"/>
            <g>
              <g>
                <line class="cls-4" x1="1474.83" y1="756.04" x2="1530.25" y2="1474.1"/>
                <path class="cls-1" d="m1530.25,1477.48c-1.75,0-3.23-1.35-3.36-3.12l-55.42-718.06c-.14-1.86,1.25-3.48,3.11-3.63,1.87-.13,3.48,1.25,3.63,3.11l55.42,718.06c.14,1.86-1.25,3.48-3.11,3.63-.09,0-.18,0-.26,0Z"/>
              </g>
              <g>
                <path class="cls-4" d="m340.01,1252.59s-38.68-421.21-22.81-520.88c15.88-99.68,121.83-107.41,121.83-107.41,0,0,790.67-40.71,895.15-37.56,26.12.79,47.41,6.65,64.64,15.01,37.74,18.3,63.5,54.69,71.5,95.86L340.01,1252.59Z"/>
                <path class="cls-1" d="m1470.99,700.93c-1.82.34-3.65-.88-3.98-2.7-8.03-41.25-34.03-76.16-69.68-93.44-18.63-9.05-39.9-13.98-63.26-14.65-27.95-.88-106,1.49-205.12,5.33-6.41.2-12.96.47-19.58.74-29.98,1.21-61.57,2.56-94.05,3.92h-.27c-3.65.2-7.29.34-11,.47-3.11.14-6.21.27-9.32.41,0,.07-.07.07-.14.07h-.2c-1.28.07-2.5.07-3.78.14-2.16.14-4.39.2-6.55.27-2.03.13-3.98.2-5.94.27-8.71.4-17.35.81-26.13,1.22-1.15,0-2.3.07-3.44.14-1.08,0-2.16.07-3.31.13-10.53.47-21.07.95-31.67,1.42-2.23.14-4.46.2-6.68.27-52.93,2.5-106.14,5-156.71,7.36-1.15.07-2.23.07-3.38.14-1.15.07-2.23.14-3.38.14-165.35,7.97-300.99,14.92-304.23,15.12-1.08.07-8.84.74-19.92,3.38-3.31.81-6.95,1.82-10.8,3.04h-.07c-31.73,10.06-77.85,35.31-87.84,98.17-2.3,14.11-3.38,34.77-3.65,59.82-.14,5.74-.14,11.68-.14,17.89.41,154.82,26.26,438.86,26.6,442.3.14,1.89-1.21,3.51-3.04,3.65-.14.07-.27.07-.34.07-1.76,0-3.17-1.35-3.38-3.11-1.21-13.57-24.58-269.46-26.53-425.16-.07-6.41-.14-12.63-.14-18.63,0-33.08,1.08-60.36,3.92-77.91,11.34-71.3,68.26-96.82,101.21-105.73,3.91-1.08,7.56-1.89,10.67-2.57,7.83-1.55,12.83-1.96,13.03-1.96,3.31-.2,139.42-7.09,305.24-15.06,1.15,0,2.3-.07,3.44-.14,1.15-.07,2.23-.07,3.38-.14,50.37-2.43,103.3-4.93,155.96-7.29,2.23-.07,4.52-.2,6.75-.27,10.13-.47,20.26-.95,30.38-1.35,1.08-.07,2.23-.14,3.31-.14,1.15-.13,2.3-.13,3.44-.2,6.35-.27,12.76-.54,19.11-.88l5.06-.2c1.76-.07,3.44-.13,5.2-.2h.2c2.5-.14,5-.27,7.49-.34,2.7-.14,5.4-.27,8.1-.41h.14c45.78-1.96,90.14-3.85,130.92-5.4,4.59-.2,9.11-.41,13.57-.54,93.65-3.65,166.83-5.81,193.77-5,24.31.68,46.52,5.87,66.03,15.33,37.47,18.16,64.95,54.89,73.32,98.24.4,1.82-.81,3.58-2.63,3.98Z"/>
              </g>
              <path class="cls-1" d="m541.85,1266.49c-1.75,0-3.23-1.35-3.36-3.12-.12-1.5-11.57-151.76-20.02-282.72-.12-1.86,1.29-3.46,3.15-3.59,1.94-.1,3.46,1.29,3.59,3.15,8.44,130.92,19.9,281.14,20.01,282.64.14,1.86-1.25,3.48-3.11,3.62-.09,0-.17,0-.26,0Z"/>
              <path class="cls-1" d="m516.07,887.8c-1.78,0-3.27-1.39-3.37-3.19-2.2-40.67-3.31-69.57-3.31-85.9,0-78.37-19.01-111.51-34.96-125.51-15.04-13.2-29.2-11.53-29.78-11.45-1.85.24-3.54-1.05-3.79-2.89-.25-1.84,1.03-3.54,2.86-3.79.71-.1,17.53-2.27,34.93,12.86,17.1,14.86,37.49,49.62,37.49,130.78,0,16.2,1.11,44.98,3.31,85.53.1,1.86-1.33,3.45-3.19,3.55-.06,0-.12,0-.18,0Z"/>
            </g>
            <g>
              <g>
                <path class="cls-4" d="m1811.25,734.87l54.39-72.83s81.34-133.67,111.51-122.48c35.53,13.18-56.44,149.45-56.44,149.45,23.82-24.16,48.67-6.93,34.02,17,20.27-12.4,40.45,1.49,27.52,21.65,0,0,27.76,4.25,8.6,40.21-19.16,35.96-49.53,64.23-72.41,77.69-9,5.29-19.54,9.77-29.13,18.6"/>
                <path class="cls-4" d="m1839.19,722.75c17.54-9.93,12.92-34.97,12.92-34.97,0,0,29.39-.46,38.91-2.54,19.27-4.2,22.77-21.44,8.26-32.77-16.68-13.03-51.55-23.24-83.87-11.57-32.33,11.67-17.17,62.17-16.23,83.38.6,13.64-3.19,23.91-17.89,51.62"/>
              </g>
              <line class="cls-4" x1="1982.26" y1="727.66" x2="1964.24" y2="750.59"/>
              <line class="cls-4" x1="1956.21" y1="704.44" x2="1937.88" y2="726.75"/>
              <line class="cls-4" x1="1922.48" y1="686.72" x2="1907.42" y2="706.83"/>
            </g>
            <path class="cls-2" d="m1912.5,893.46s-273.41,319.67-394.01,332.3c-50.38,5.27-164.86-108.38-164.86-108.38l-51.19,378.34c-99.09,6.44-190.83,10.49-265.93,9.11-.07,0-.96,3.8-.96,3.8l-56.13,4.75s-252.99,22.21-401.2-7.42c-132.67-26.51-39.69-402.59,67.03-612.48,12.56-24.56,25.19-46.84,37.75-66.06,119.62-183.11,408.97-162.78,408.97-162.78,284.63,25.53,441.1,292.88,441.1,292.88l221.07-227.94c14.71-14.16,173.08,149.74,158.37,163.89Z"/>
            <path class="cls-4" d="m1517.21,1062.55c-1.77,0-3.25-1.37-3.37-3.16-2.07-32.61-1.76-70.41,16.26-103.5.88-1.64,2.93-2.25,4.58-1.35,1.64.89,2.24,2.94,1.35,4.58-13.67,25.12-18.29,54.98-15.45,99.84.12,1.86-1.3,3.46-3.16,3.58-.07,0-.14,0-.22,0Z"/>
            <g>
              <g>
                <g>
                  <path class="cls-4" d="m1158.37,2743.1s528.94,108.68,598.17,235.32c79,144.5-150.55,619.98-150.55,619.98l-670.89-687.01,223.28-168.29Z"/>
                  <path class="cls-4" d="m1158.35,2743.07l-588.47,443.56s-439.24-476.72-430.19-1006.84c9.05-530.19,438.09-212.02,438.09-212.02,0,0,303.52,220.46,580.57,775.3Z"/>
                  <path class="cls-1" d="m579.05,3103.62c-101.66-124.77-385.62-510.93-378.59-922.79,4.22-246.97,100.5-246.97,132.14-246.97,79.94,0,177.96,59.71,208.99,82.72,3.22,2.36,279.9,208.68,539.48,708.64l-502.02,378.4Z"/>
                  <path class="cls-1" d="m1252.35,3209.96c.27,14.48-2.56,27.99-8.98,40.39-13.7,26.45-42.17,41.92-71.95,41.92h-579.54v-82.31h660.47Z"/>
                  <path class="cls-4" d="m898.68,3994.31c0,15.19-12.31,27.5-27.56,27.5s-27.5-12.31-27.5-27.5,12.31-27.56,27.5-27.56,27.56,12.31,27.56,27.56Z"/>
                  <path class="cls-4" d="m1794.32,4105.85c.13,1.48.12,2.97.12,4.46-.08,12.78-9.99,23.25-22.72,24.25l-17.86,1.28-7.01.49-236.69,17.55-2.22.16-34.51,2.1c-7.42.44-13.73-5.24-14.04-12.67l-5.41-131.09c1.59-5.74,6.47-10.13,12.46-10.79,9.35-1.06,24.06.02,37.34,12.24,21.86,20.32,41.98.29,41.98.29,0,0,64.49-71.6,87.86-29.24,18.4,33.23,75.52,54.73,116.48,66.29,17.3,4.83,31.04,16.96,38.38,32.48.22.4.44.86.59,1.26,3.04,6.5,4.82,13.52,5.26,20.93Z"/>
                  <path class="cls-4" d="m1374.76,4006.84c-1.08,1.03-2.24,1.95-3.41,2.88-10.02,7.92-24.4,6.74-33.13-2.58l-12.16-13.14-4.76-5.16-161.62-173.8-1.51-1.64-23.21-25.63c-4.98-5.51-4.49-14,1.11-18.88l98.95-86.15c5.48-2.35,11.96-1.28,16.21,2.99,6.67,6.64,15.02,18.79,13.78,36.8-2.2,29.76,26.01,32.96,26.01,32.96,0,0,96.2,5.6,77.74,50.32-14.44,35.13,4.47,93.16,21.05,132.35,7.04,16.52,6.16,34.84-1.37,50.25-.17.42-.4.88-.61,1.25-3.17,6.43-7.54,12.21-13.06,17.19Z"/>
                  <path class="cls-2" d="m1582.87,3174.92c36.97,71.87,56.47,181.13,72.32,298.17l-24.12,59.88-48.2-358.04Z"/>
                  <path class="cls-4" d="m1641.62,3861.86c-.41,23.09-.88,36.19-.88,36.19,4.05,21.74-206.96,61.04-211.01,39.37l-120.33-493.53c-.07-.07-.07-.14-.07-.14l-56.99-233.76h-660.45c-51.39-54.36-77.72-129.65-90.01-216.68l198.05-94.26s657.07-11.55,807.04,133.16c137.61,132.75,137.27,682.8,134.64,829.66Z"/>
                  <path class="cls-2" d="m1641.62,3861.86c-.41,23.09-.88,36.19-.88,36.19,4.05,21.74-206.96,61.04-211.01,39.37l-120.33-493.53c3.71,6.89,118.91,225.53,132.08,330.73,15.73,126.07,121.54,95.55,200.14,87.24Z"/>
                  <g>
                    <path class="cls-4" d="m1554.66,2164.24l-79.12-73.51s-15.05-113.57,1.47-122.43c15.22-8.11,21.62,9.1,28.84,37.69,26.52-46.76,64.75-110.29,77.83-108.25,18.57,2.88-16.15,80.96-28.24,103.75,8.25-9.61,15.33-16.96,21.11-17.42,14.6-1.22,10.28,20.51,1.66,41.63,6.11-6.1,11.52-10.28,16.02-10.23,11.79.2,9.94,18.82,1.53,39.63,4.24-3.54,8.04-5.83,11.36-5.92,26.8-.76-52.45,115.06-52.45,115.06Z"/>
                    <path class="cls-4" d="m1505.85,2006s17.73,22.18,8.26,52.12"/>
                    <path class="cls-2" d="m1041.57,2128.92c62.97,50.83,133.37,111.13,207.29,205.64l199.93-264.55c5.32-6.2,123.55,95.17,118.23,101.38,0,0-180.19,403.18-324,407.93-121.48,4.07-295.96-295.35-295.96-295.35"/>
                    <path class="cls-4" d="m1250.93,2429.98c-1.36,0-2.65-.83-3.16-2.19-18.66-49.67-1.73-92.56-1-94.36.7-1.73,2.68-2.56,4.39-1.86,1.73.7,2.56,2.66,1.87,4.39-.17.42-16.64,42.34,1.07,89.46.65,1.74-.23,3.69-1.97,4.35-.39.15-.79.21-1.19.21Z"/>
                  </g>
                  <path class="cls-2" d="m1146.99,2386.66c-23.93-111.19-55.35-203.87-104.93-258.19-12.5-13.69-21.37-18.33-63.72-37.91-88.59-40.96-188.89-48.88-283.55-25.11-92.37,23.2-252.09,83.01-264.57,140.62-19.64,90.66,71.67,787.21,71.67,787.21,0,0,281.83-65.94,348.38-59.55,128.57,12.36,322.25-176.29,354.74-190.64-18.76-124.14-34.89-248.94-58.03-356.44"/>
                  <path class="cls-4" d="m670.53,3226.47c0,43.92-35.53,79.51-79.51,79.51s-79.57-35.59-79.57-79.51,35.65-79.57,79.57-79.57,79.51,35.66,79.51,79.57Z"/>
                  <g>
                    <path class="cls-4" d="m1333.79,2718.14l-96.28,307.27-487.95-52.6,48.75-32.07,10.6-6.95,120.65-79.4,6.75-4.46v4.12l-.07,46.32-.07,5.87v17.49c1.42.07,2.84.14,4.32.2.74.07,1.49.14,2.23.14,3.17.13,6.48.34,9.92.47,2.84.14,5.81.27,8.78.41,2.36.07,4.79.14,7.22.2,36.32,1.28,78.59,1.69,89.59-1.96,4.79-1.62,9.59-2.23,14.25-2.23,8.17,0,16,1.82,23.23,3.51,6.28,1.42,12.15,2.77,16.68,2.5,2.23-.2,3.98-1.15,5-2.7.47-.74.81-1.55.88-2.43.27-1.15.14-2.43-.27-3.78l-.07-.07c0-.2-.07-.34-.14-.54-.4-1.08-.27-2.23.41-3.04.07-.13.14-.27.27-.41.88-.94,2.16-1.35,3.38-.94.34.07.67.2,1.01.27,7.7,1.96,9.25.41,9.39.2.2-.2,1.69-2.43-3.11-11.88-.07-.14-.13-.27-.13-.41,0,0-.07-.14-.14-.41-.2-.88,0-1.89.61-2.7.74-1.01,2.02-1.55,3.31-1.28.61.14,1.22.2,1.82.27,5.6.81,9.45.27,11.28-1.62,1.55-1.62,1.89-4.59,1.01-8.91v-.13c-.27-1.28.27-2.63,1.28-3.38,1.08-.81,2.5-.88,3.65-.27.41.2.88.47,1.28.68,16.2,8.44,21.47,6.48,22.89,5.2,2.5-2.09,1.96-7.83.27-12.63-13.57-38.96-26.53-62.32-40.11-77.17-.67-.81-1.42-1.55-2.09-2.3-.88-.88-1.76-1.76-2.63-2.57-.81-.74-1.62-1.49-2.43-2.16-5-4.39-10.06-7.83-15.26-10.53-.07-.07-.2-.14-.27-.2-.88-.47-1.82-.94-2.7-1.35-.27-.13-.47-.2-.68-.34-1.15-.54-2.3-1.08-3.51-1.55h-.07c-.41-.2-.88-.41-1.35-.61-12.49-5.13-24.85-8.37-36.8-10.13-1.75-.27-3.51-.47-5.27-.68l4.39-2.9,4.25-2.77,74-48.68,188.03,6.01Z"/>
                    <polygon class="cls-4" points="924.39 2930.52 1163.08 2773.49 1251.89 2776.33 1194.46 2959.63 924.39 2930.52"/>
                  </g>
                  <g>
                    <g>
                      <polygon class="cls-4" points="936.19 2914.75 936.19 2917.31 935.38 2916.43 934.77 2915.89 934.77 2915.83 936.19 2914.75"/>
                      <path class="cls-4" d="m1150.22,2885.78c2.5,12.22-3.51,17.01-18.03,14.38,7.49,14.79,4.05,20.39-11.21,16.14,2.63,7.29-1.42,13.5-8.31,14.04-13.37.94-33.76-10.53-53.34-3.98-12.29,4.12-59.08,3.24-92.16,2.09-2.57-.14-5-.2-7.36-.34.54-.88,1.08-1.96,1.62-3.17,1.55-3.51,3.24-8.57,5.06-15.19.07-.13.07-.34.14-.47.27-.95.54-1.96.74-3.04.4-1.28.74-2.7,1.08-4.12.07-.27.14-.54.2-.81.34-1.49.67-2.97,1.01-4.59.47-2.3,1.01-4.73,1.49-7.29h.07c.07-.41.14-.81.2-1.22.2-1.22.47-2.43.68-3.71.13-.41.2-.74.2-1.15.34-1.62.61-3.24.95-4.93v-.07c1.42-8.24,2.77-17.42,4.05-27.61,1.15-9.25,2.02-17.76,2.63-25.45h.07c.27-2.97.47-5.81.61-8.57,1.22-18.23,1.01-31.46.14-39.5-.14-1.28-.34-2.5-.54-3.51,2.03-.74,4.05-1.42,6.14-2.09,22.48-7.43,50.57-12.36,81.16-8.03,12.63,1.82,25.66,5.13,38.96,10.6,29.3,11.88,50.91,37.34,73.05,100.74,3.85,11.14,3.17,28.36-29.3,10.87Z"/>
                    </g>
                    <path class="cls-4" d="m1150.21,2885.77s-16.63-73.43-68.57-76.94"/>
                    <path class="cls-4" d="m1132.17,2900.15s-17.69-50.8-61.21-56.36"/>
                    <path class="cls-4" d="m1120.96,2916.28s-28.79-34.87-60.58-34.62"/>
                  </g>
                  <path class="cls-2" d="m455.73,2169.78c-30.78,25.18-63.16,67.17-87.53,167.37-39.48,162.36-28.1,484.28,59.25,543.98,109.71,74.98,530.11,53.29,530.11,53.29,16.57,2.08,37.85-167.52,21.27-169.59l-406.96-62.18s31.45-164.13,38.53-313.07"/>
                  <path class="cls-4" d="m501.03,2796.51c-1.24,0-2.44-.69-3.03-1.88-.83-1.67-.15-3.7,1.52-4.52,48.18-23.9,68.93-87.85,69.13-88.5.56-1.77,2.46-2.77,4.24-2.2,1.78.56,2.76,2.46,2.2,4.24-.87,2.74-21.85,67.34-72.57,92.5-.48.24-.99.35-1.5.35Z"/>
                  <path class="cls-4" d="m865.52,2015.79l-10.34,103.48c-3.09,30.9-29.74,54.76-60.73,52.83-5.41-.34-11.29-1.08-17.67-2.31-59.59-11.48-104.02-96.91-104.02-96.91l83.99-127.46,108.77,70.38Z"/>
                  <g>
                    <g>
                      <path class="cls-4" d="m716.04,2007.19c10.86-17.01,10.82-38.79,8.69-61.22l5.98.94c1.51-14.63,4.97-29.54,10.52-44.24,28.75-75.65-5.4-241.16,108.15-181.64,59.15,31.05,189.21,113.05,118.17,267.46-24.93,54.04-64.85,76.38-122.42,62.18"/>
                      <path class="cls-4" d="m1054.91,1781.12c25.48,138.98-134.03,68.69-196.49,37.43-62.46-31.25-19.23,87.4-95.5,99.55-76.27,12.15-75.58,3.35-75.58,3.35,0,0-63.49-220.83,80.56-170.4,0,0-26.14-88.53,61.47-94.92,87.62-6.38,79.49,89.78,79.49,89.78"/>
                      <path class="cls-4" d="m728.2,1967.71c-21.62,1.37-40.13-14.86-41.51-36.22-1.4-21.56,14.86-40,36.48-41.37,21.41-1.35,39.92,14.88,41.32,36.45"/>
                    </g>
                    <path class="cls-4" d="m919.13,1913.25c-4.19,15.63-1.67,32.94,6.79,46.73,1.27,2.07,2.69,4.1,3.44,6.42.75,2.31.75,5.03-.69,6.99-2.03,2.76-5.98,3.07-9.4,2.93-5.85-.24-11.68-1.07-17.36-2.49"/>
                    <path class="cls-4" d="m940.69,1916.81c8.94-11.9,25.8-14.26,37.7-5.32"/>
                    <path class="cls-4" d="m855.88,1896.83c8.63-12.13,25.42-14.92,37.55-6.29"/>
                    <path class="cls-4" d="m872.64,2000.15s8.32,20.09,31.99,10.85"/>
                  </g>
                  <polygon class="cls-4" points="1616.56 2413.38 1566.59 2581.43 1516.43 2750.02 1237.52 3025.36 1375.79 2584.13 1483.55 2507.7 1616.56 2413.38"/>
                  <path class="cls-2" d="m1616.56,2415.26l-39.58,133.13c-29.79-14.44-52.95-34.77-65.79-58.41l105.37-74.72Z"/>
                </g>
                <path class="cls-4" d="m551.75,4144.27v20.56h-75.95v-20.56c0-7.7,6.26-13.91,13.91-13.91h48.14c7.7,0,13.91,6.21,13.91,13.91Z"/>
                <path class="cls-4" d="m1266.49,4144.27v20.56h-75.95v-20.56c0-7.7,6.26-13.91,13.91-13.91h48.14c7.7,0,13.91,6.21,13.91,13.91Z"/>
                <path class="cls-4" d="m3026.88,4144.27v20.56h-75.95v-20.56c0-7.7,6.26-13.91,13.91-13.91h48.14c7.7,0,13.91,6.21,13.91,13.91Z"/>
                <path class="cls-4" d="m3741.62,4144.27v20.56h-75.95v-20.56c0-7.7,6.26-13.91,13.91-13.91h48.14c7.7,0,13.91,6.21,13.91,13.91Z"/>
              </g>
              <line class="cls-4" x1="586.82" y1="3233.98" x2="553.84" y2="3038.45"/>
            </g>
            <path class="cls-4" d="m1163.82,1399.81c-45.23-13.11-92.36-18.95-124.99-21.69l-2.32,126.7c15.97,1.38,34.72,2.52,52.18,2.36,41.81-.39,42.84,47.72,68.56,51.45,25.71,3.73,14.72-29.44,14.72-29.44,0,0,15.31,25.71,30.43,17.27,12.29-6.86,2.65-21.38-1.39-26.57,3.88,4.42,14.7,14.93,28.28,12.43,17.08-3.14.79-31.8.79-31.8,32.78,24.73,33.01,3.39,33.01,3.39,0,0-23.96-82.27-99.26-104.11Z"/>
            <path class="cls-2" d="m863.59,937.5c-28.48,135.45-91.41,273.76-139.38,396.62l327.98,20.57c10.3,1.08-6.34,159.76-16.64,158.68,0,0-.49.42-1.46,1.32h-.07s-42.18,5.44-56.3,6.67c-99.57,8.71-251.29,14.22-399.5-15.41-132.67-26.51-39.69-402.59,67.03-612.48h.07"/>
            <path class="cls-4" d="m610.76,1380.65c-1.6,0-3.02-1.14-3.32-2.77-.34-1.83.88-3.59,2.72-3.92,78.62-14.3,111.52-42.1,111.84-42.38,1.41-1.22,3.54-1.07,4.76.34,1.22,1.41,1.07,3.53-.33,4.76-1.36,1.19-34.38,29.25-115.06,43.92-.2.04-.41.06-.61.06Z"/>
            <g>
              <path class="cls-4" d="m3373.82,4009.01c0,15.2-12.32,27.52-27.57,27.52s-27.52-12.32-27.52-27.52,12.32-27.57,27.52-27.57,27.57,12.32,27.57,27.57Z"/>
              <g>
                <polygon class="cls-4" points="4296.37 3.38 4296.37 2185.51 2481.39 2645.55 2481.39 973.53 4296.37 3.38"/>
                <path class="cls-1" d="m2444.67,2802.69l1758.33-455.71c-48.61-9.04-93.4-61.61-93.4-61.61l-1758.33,455.71c21.77,26.53,47.83,50.31,93.4,61.61Z"/>
                <path class="cls-4" d="m4296.37,2185.51s8.77,161.57-93.37,161.47"/>
              </g>
              <g>
                <path class="cls-2" d="m3159.97,1867.77v481.25c0,10.84-8.79,23.06-19.63,27.28l-67.79,26.43c-10.84,4.23-19.63-1.14-19.63-11.98v-481.25c0-10.84,8.79-23.06,19.63-27.28l67.79-26.43c10.84-4.23,19.63,1.14,19.63,11.98Z"/>
                <path class="cls-2" d="m3993.4,1653.31v370.83c0,10.84-8.79,23.06-19.63,27.28l-67.79,26.43c-10.84,4.23-19.63-1.14-19.63-11.98v-370.83c0-10.84,8.79-23.06,19.63-27.28l67.79-26.43c10.84-4.23,19.63,1.14,19.63,11.98Z"/>
                <path class="cls-4" d="m4176.75,1443.16v318.14c0,10.84-8.79,23.06-19.63,27.28l-67.79,26.43c-10.84,4.23-19.63-1.14-19.63-11.98v-318.14c0-10.84,8.79-23.06,19.63-27.28l67.79-26.43c10.84-4.23,19.63,1.14,19.63,11.98Z"/>
                <path class="cls-4" d="m2961.56,2094.84v232.33c0,10.84-8.79,23.06-19.63,27.28l-67.79,26.43c-10.84,4.23-19.63-1.14-19.63-11.98v-232.33c0-10.84,8.79-23.06,19.63-27.28l67.79-26.43c10.84-4.23,19.63,1.14,19.63,11.98Z"/>
                <path class="cls-2" d="m2768.51,2136.36v155.54c0,10.84-8.79,23.06-19.63,27.28l-67.79,26.43c-10.84,4.23-19.63-1.14-19.63-11.98v-155.54c0-10.84,8.79-23.06,19.63-27.28l67.79-26.43c10.84-4.23,19.63,1.14,19.63,11.98Z"/>
                <path class="cls-2" d="m3562.98,1682.42v390.35c0,10.84-8.79,23.06-19.63,27.28l-67.79,26.43c-10.84,4.23-19.63-1.14-19.63-11.98v-390.35c0-10.84,8.79-23.06,19.63-27.28l67.79-26.43c10.84-4.23,19.63,1.14,19.63,11.98Z"/>
                <path class="cls-4" d="m3788.97,1738.55v200.85c0,10.84-8.79,23.06-19.63,27.28l-67.79,26.43c-10.84,4.23-19.63-1.14-19.63-11.98v-200.85c0-10.84,8.79-23.06,19.63-27.28l67.79-26.43c10.84-4.23,19.63,1.14,19.63,11.98Z"/>
                <path class="cls-4" d="m3374.41,1700.58v205.8c0,10.84-8.79,23.06-19.63,27.28l-67.79,26.43c-10.84,4.23-19.63-1.14-19.63-11.98v-205.8c0-10.84,8.79-23.06,19.63-27.28l67.79-26.43c10.84-4.23,19.63,1.14,19.63,11.98Z"/>
              </g>
              <g>
                <polyline class="cls-4" points="3645.44 1348.73 2878.38 1658.66 2750.41 1710.38 2647.44 1752.01 2647.44 1054.44"/>
                <polygon class="cls-4" points="2878.38 1658.66 2750.41 1710.38 2750.41 1177.9 2867.53 1106.88 2878.38 1658.66"/>
                <polygon class="cls-2" points="3093.52 1571.74 2967.65 1622.59 2967.65 1197.3 3084.79 1126.32 3093.52 1571.74"/>
                <polygon class="cls-4" points="3312.94 1483.08 3184.88 1534.82 3184.88 996.53 3302.02 925.55 3312.94 1483.08"/>
                <polygon class="cls-2" points="3530.12 1392.03 3402.11 1444.55 3402.11 1141.64 3530.12 1064.07 3530.12 1392.03"/>
              </g>
              <g>
                <path class="cls-4" d="m4188.06,897.75c-1.75,52.49-12.68,102.13-30.37,145.56-40.31,100.11-116.96,168.36-202.32,168.36-122.75,0-217.4-140.52-211.36-313.92,5.87-173.39,110.11-313.92,232.69-313.92,52.82,0,100.33,25.99,136.8,69.42,48.64,57.52,77.95,145.73,74.56,244.5Z"/>
                <path class="cls-2" d="m4188.06,897.75c-1.75,52.49-12.68,102.13-30.37,145.56l-213.96-145.56,169.77-244.5c48.64,57.52,77.95,145.73,74.56,244.5Z"/>
              </g>
            </g>
            <line class="cls-4" x1="767.9" y1="1751.05" x2="779.59" y2="1784.17"/>
            <g>
              <g>
                <path class="cls-3" d="m2678.41,3412.45c-1.35-3.71-34.07-91.64-100.97-119.77-71.16-29.93-81.81-94.69-82.23-97.43l-22.16-129.01c-.6-3.38,2.57-6.36,6.01-5.34,10.74,3.39,105.7,35.06,181.15,117.6,78.66,85.96,29.23,227.97,27.08,233.98l-2.24-.76,2.23.78c-1.49,4.26-7.45,4.04-8.87-.05Zm4.44-1.6s-.02.08-.02.08h0v-.03c2.11-5.89,50.65-145.31-26.11-229.2-74.61-81.63-168.47-112.94-178.93-116.24l22.09,129.04c.41,2.68,10.65,64.91,79.4,93.82,68.77,28.92,102.19,118.72,103.58,122.52h0Z"/>
                <g>
                  <path class="cls-1" d="m2575.44,3444.93c.31.67.14,1.46-.39,1.97-.55.48-1.35.61-2.01.28-.64-.31-65.36-32.33-117.19-12.51-52.83,20.2-91.24-8.82-92.52-9.81l-78.23-57.91c-.49-.36-.77-.96-.71-1.55.04-.62.4-1.15.95-1.44.7-.33,70.6-35.52,156.79-29.75,86.76,5.76,132.83,109.67,133.31,110.71Z"/>
                  <path class="cls-3" d="m2571.98,3449.29c-2.62-1.29-65-31.66-115.28-12.41-53.98,20.63-93.17-8.88-94.81-10.15l-78.19-57.88c-2.4-1.76-2.23-5.54.56-6.98,7.54-3.71,74.99-35.59,158.03-30,86.74,5.76,133.35,107.74,135.29,112.08l-2.15.99,2.15-.98c1.63,3.58-2.25,7.03-5.61,5.33Zm1.31-3.38h.06-.06Zm.79-.86s0,0,0,0c0,0,0,0,0,0Zm-1.52-.73c-6.33-13.41-51.29-102.48-130.58-107.75-79.32-5.33-144.14,23.99-154.67,29.06l77.43,57.32c1.6,1.23,38.74,29.22,90.27,9.5,36.02-13.77,83.23-4.17,117.55,11.87Zm-286.06-79.28h0s0,0,0,0Z"/>
                </g>
                <path class="cls-3" d="m2535.77,3670.92c-2.55-1.44-63.19-35.36-114.35-19.17-54.95,17.4-92.48-14.35-94.05-15.71l-74.65-62.39c-2.31-1.93-1.87-5.68.98-6.94,7.74-3.25,76.89-31.11,159.53-20.64,86.27,10.86,126.78,115.41,128.46,119.85l-2.2.86,2.21-.84c1.41,3.67-2.65,6.89-5.92,4.98Zm1.51-3.3h.06-.06Zm.83-.81s0,0,0,0c0,0,0,0,0,0Zm-1.46-.81c-5.53-13.75-45.16-105.33-124.02-115.25-78.89-9.97-145.29,15.46-156.12,19.91l73.93,61.78c1.52,1.32,37.08,31.4,89.56,14.81,36.64-11.6,83.24.77,116.65,18.77Z"/>
                <g>
                  <path class="cls-2" d="m2634.15,3626.52c-.31.67-.14,1.46.39,1.97.55.48,1.35.61,2.01.28.64-.31,65.36-32.33,117.19-12.51,52.83,20.2,91.24-8.82,92.52-9.81l78.23-57.91c.49-.36.77-.96.71-1.55-.04-.62-.4-1.15-.95-1.44-.7-.33-70.6-35.52-156.79-29.75-86.76,5.76-132.83,109.67-133.31,110.71Z"/>
                  <path class="cls-3" d="m2632,3625.55l2.16.97-2.15-.99c1.94-4.34,48.55-106.32,135.3-112.08,83.07-5.57,150.5,26.29,157.91,29.94,2.97,1.53,3.07,5.28.68,7.04l-78.23,57.91c-1.6,1.24-40.8,30.76-94.77,10.12-50.05-19.15-112.65,11.11-115.29,12.41-3.41,1.74-7.19-1.83-5.61-5.33Zm4.31,1.94s0,0,0,0t0,0Zm-.82-.84s0,0-.02,0c0,0,.01,0,.02,0Zm151.47-109.13c-6.34,0-12.78.2-19.34.64-79.3,5.26-124.26,94.36-130.59,107.75,10.52-4.88,69.4-30.29,117.55-11.86,51.54,19.71,88.68-8.28,90.23-9.48l77.47-57.35c-9.81-4.72-65.07-29.71-135.33-29.71Zm-152.81,109l-2.16-.97s0,0,0,0l2.15.98Z"/>
                </g>
                <path class="cls-3" d="m2638.56,3549.71c-46.46,67.34-77.77,143.34-60.83,221.19h-4.86c-17.24-79.42,15.78-157.19,61.78-223.89,110.93-160.83-2.7-270.61-56.65-310.38-2.51-1.73.16-5.74,2.77-3.78,55.09,40.51,171.02,152.59,57.79,316.86Z"/>
                <path class="cls-3" d="m2567.71,3728.39c.39-1.68,41.39-168.29,251.42-156.91,3.03.17,2.98,4.78-.26,4.72-206.1-11.08-246.18,151.61-246.56,153.26-.7,3.05-5.31,1.98-4.6-1.07Z"/>
                <path class="cls-3" d="m2635.61,3546.65c-.38-1.64-40.69-164.29-246.56-153.26-3.3-.02-3.25-4.55-.26-4.72,210.02-11.2,251.03,155.23,251.42,156.91.71,3.04-3.89,4.12-4.6,1.07Z"/>
                <path class="cls-3" d="m2576.78,3770.89h-4.79c-.2-1.62-.47-3.17-.74-4.73-9.79-60.9-33.56-106.07-70.69-134.29-52.93-40.31-115.18-31.53-115.79-31.46-3.08.49-3.84-4.16-.68-4.66.61-.07,64.82-9.11,119.3,32.34,43.55,33.19,64.02,84.49,72.72,138.07.2,1.55.47,3.11.68,4.73Z"/>
              </g>
              <path class="cls-4" d="m2808.56,3802l-57.9,312.67-3.39,18.3c-2.51,13.46-14.21,23.19-27.85,23.19h-234.57c-13.68,0-25.39-9.72-27.85-23.19l-61.29-330.97c-3.26-17.42,10.12-33.48,27.85-33.48h357.15c17.73,0,31.06,16.06,27.85,33.48Z"/>
              <path class="cls-1" d="m2750.65,4114.67l-3.39,18.3c-2.51,13.46-14.21,23.19-27.85,23.19h-234.57c-13.68,0-25.39-9.72-27.85-23.19l-61.29-330.97c-3.26-17.42,10.12-33.48,27.85-33.48h63.54c8.1,18.44,12.45,39.91,15.84,57.16,4.18,21.34,5.98,43.12,5.32,64.86-1.01,35.02-8.23,71.24,3.12,104.46,12.06,35.24,43.6,60.94,77.75,75.86,34.19,14.96,71.46,20.86,107.85,28.82,18.08,3.92,36.3,8.58,53.68,15Z"/>
              <path class="cls-3" d="m2780.68,3766.17h-357.16c-19.12,0-33.68,17.28-30.11,36.26l61.24,330.97c2.7,14.58,15.39,25.12,30.18,25.12h234.55c14.79,0,27.48-10.53,30.18-25.12l61.31-330.97c3.51-18.65-10.66-36.26-30.18-36.26Zm-35.72,366.35c-2.29,12.36-13.03,21.27-25.59,21.27h-234.55c-12.49,0-23.23-8.91-25.52-21.27l-61.31-330.97c-1.42-7.56.61-15.33,5.54-21.27,5-6.01,12.29-9.38,19.99-9.38h357.16c14.67,0,25.99,11.86,25.99,25.86,0,1.62,2.7-12.97-61.71,335.76Z"/>
            </g>
            <path class="cls-4" d="m728.73,1909.75c-10.92,3.13-18.91,11.27-21.79,22.22h0"/>
            <path class="cls-4" d="m3867.3,3262.32c-7.44,0-14.92-2.44-21.16-7.47l-205.44-165.49c-14.52-11.69-16.81-32.95-5.11-47.47,11.69-14.53,32.94-16.81,47.47-5.11l205.44,165.49c14.52,11.69,16.81,32.95,5.11,47.47-6.67,8.28-16.45,12.58-26.31,12.58Z"/>
            <path class="cls-4" d="m1511.37,1751.09c.11,22.77-9.27,44.04-25.55,61.85-28.17,30.81-76.89,51.36-132.39,51.68-25.34.14-49.31-3.96-70.58-11.33-3.32-1.15-6.56-2.37-9.72-3.71l-47.72,36.24,8.03-59.35c-24.28-19.6-39.07-45.28-39.2-73.52-.38-62.19,70.33-113.02,157.87-113.51,87.58-.54,158.89,49.49,159.27,111.64Z"/>
            <g>
              <path class="cls-4" d="m1261.59,1754.7c0,10.14,8.21,18.35,18.35,18.35s18.35-8.21,18.35-18.35-8.21-18.35-18.35-18.35-18.35,8.21-18.35,18.35Z"/>
              <path class="cls-4" d="m1334.45,1754.7c0,10.14,8.21,18.35,18.35,18.35s18.35-8.21,18.35-18.35-8.21-18.35-18.35-18.35-18.35,8.21-18.35,18.35Z"/>
              <path class="cls-4" d="m1407.31,1754.7c0,10.14,8.21,18.35,18.35,18.35s18.35-8.21,18.35-18.35-8.21-18.35-18.35-18.35-18.35,8.21-18.35,18.35Z"/>
            </g>
            <g>
              <path class="cls-2" d="m2519.18,755.84l-366.53,93.38c63.17-187.91,27.14-482.12,27.14-482.12l363.57-103.74s39,304.58-24.18,492.48Z"/>
              <path class="cls-4" d="m2495.15,738.61l-366.53,93.38c63.17-187.91,27.14-482.12,27.14-482.12l363.57-103.74s39,304.58-24.18,492.48Z"/>
              <g>
                <path class="cls-4" d="m2462.87,536.54c-2.32,86.91-54.62,151.88-104.71,162.58-17.53,4.26-34.86,2.94-51.07-3.48-61.51-28.7-89.39-101.74-88.73-166.51,3.27-64.64,35.52-135.89,98.65-160.83,32.84-11.07,70.35-.6,100.12,32.19,27.89,30.2,47.57,80.17,45.74,136.05Z"/>
                <path class="cls-4" d="m2242.46,439.4c35.65,23.88,69.17,55.2,98.16,93.43,14.8,51.23,21.44,107.46,17.57,166.29"/>
                <path class="cls-2" d="m2462.87,536.54c-2.32,86.91-54.62,151.88-104.71,162.58,3.88-58.82-2.75-115.05-17.54-166.29,30.65-37.27,57-81.73,76.51-132.34,27.89,30.2,47.57,80.17,45.74,136.05Z"/>
              </g>
            </g>
          </g>
          <g>
            <path class="cls-4" d="m907.55,2229.19c4.27,11.44-1.37,24.14-12.44,28.17-11.08,4.04-23.27-1.79-27.39-12.85-4.11-11.07,1.29-23.48,12.21-27.91,10.92-4.41,23.35,1.14,27.62,12.59Z"/>
            <path class="cls-4" d="m939.37,2325.45c3.45,11.93-3.07,24.38-14.4,27.66-11.34,3.29-23.09-3.52-26.41-15.04-3.32-11.53,2.94-23.73,14.15-27.41,11.2-3.68,23.21,2.87,26.66,14.79Z"/>
            <path class="cls-4" d="m964.26,2425.4c2.59,12.35-4.81,24.53-16.35,27.05-11.54,2.53-22.77-5.23-25.26-17.17-2.48-11.96,4.64-23.88,16.08-26.81,11.44-2.93,22.95,4.57,25.54,16.93Z"/>
            <path class="cls-4" d="m981.85,2528.68c1.68,12.73-6.6,24.57-18.3,26.33-11.7,1.76-22.33-6.91-23.94-19.23-1.6-12.33,6.37-23.95,18-26.11,11.62-2.17,22.56,6.29,24.24,19.01Z"/>
          </g>
          <g>
            <path class="cls-5" d="m1121.98,403.75c-.4,0-.78-.24-.94-.64-.21-.52.04-1.11.56-1.32l24.18-9.69c.52-.21,1.11.05,1.32.56.21.52-.04,1.11-.56,1.32l-24.18,9.69c-.12.05-.25.07-.38.07Z"/>
            <path class="cls-4" d="m1099.47,688.79c11.69,54.33-192.29,73.62-188.91,14.72l-.6-168.8c31.44,37.69,80.43,75.37,147.51,72.83,11.16-.35,21.29-1.35,30.41-2.87l11.6,84.12Z"/>
            <path class="cls-4" d="m866.39,465.87c1.62,3.59,4.52,9.79,8.65,17.76,22.44,41.18,81.86,127.8,182.4,123.91,111.27-4.22,125.6-63.2,94.25-159.06-28.42-86.55-46.65-165.47-157.55-162.26-12.58.29-26.23,1.64-41.23,4.19-74.56,12.74-126.91,82.52-86.52,175.46Z"/>
            <path class="cls-4" d="m951.39,492.94c-9.55-19.88-33.43-28.63-53.31-19.08-19.88,9.55-27.99,33.65-18.44,53.53,9.34,19.45,33.22,28.2,53.1,18.65"/>
            <path class="cls-4" d="m909.49,513.22c5.27-3.18,7.11-10.19,3.86-15.57"/>
            <path class="cls-4" d="m1077.58,463.1c10.45,10.53,22.61,18.72,35.73,23.67,3.94,1.49,8.99,4.62,7.9,9.22-.8,3.41-4.49,4.37-7.53,4.73-1.54.18-7.1,1.13-12.95,2.15"/>
            <path class="cls-4" d="m1029.05,464.56c-5.31-9.4-14.27-14.35-20.03-11.09-5.7,3.22-6.09,13.45-.78,22.85"/>
            <path class="cls-2" d="m1015.57,510.43c-22.98,0-42.31-18.01-43.64-41.24h0c-1.37-24.07,17.1-44.77,41.17-46.15,24.17-1.29,44.89,17.09,46.26,41.17.66,11.66-3.27,22.88-11.09,31.61-7.81,8.71-18.53,13.88-30.2,14.55-.84.05-1.68.07-2.51.07Zm-38.91-41.51c1.23,21.47,19.71,37.99,41.16,36.72,10.41-.59,19.98-5.2,26.95-12.98,6.97-7.78,10.48-17.79,9.89-28.19-1.22-21.47-19.78-37.94-41.27-36.72-21.47,1.22-37.95,19.69-36.72,41.16h0Z"/>
            <path class="cls-4" d="m1133.33,415.08c-4.49-9.82-12.99-15.51-19.01-12.76-5.96,2.72-7.22,12.88-2.73,22.7"/>
            <path class="cls-2" d="m932.92,476.58c-1.17,0-2.19-.87-2.34-2.07-.16-1.3.76-2.48,2.05-2.64l41.37-5.17c1.3-.18,2.48.75,2.64,2.05.16,1.3-.75,2.48-2.05,2.64l-41.37,5.17c-.1.01-.2.02-.3.02Z"/>
            <path class="cls-2" d="m1048.07,443.08h-.05c-1.31-.03-2.34-1.11-2.31-2.42.14-6.36,2.56-11.5,7-14.87,5.01-3.82,12.54-5.07,19.63-3.29,1.27.32,2.03,1.6,1.71,2.87-.32,1.27-1.6,2.04-2.87,1.71-5.74-1.44-11.72-.5-15.61,2.47-3.3,2.51-5.02,6.29-5.14,11.22-.03,1.29-1.08,2.31-2.36,2.31Z"/>
            <path class="cls-4" d="m1140.42,521.54s.94,29.94-45.02,28.06"/>
          </g>
        </g>
        <g>
          <path class="cls-3" d="m102.33,1942.3c.67-1.74-.2-3.7-1.94-4.36l-95.8-36.87c-1.73-.66-3.69.19-4.36,1.94-.67,1.74.2,3.69,1.94,4.36l95.8,36.87c1.75.66,3.69-.2,4.36-1.94Z"/>
          <path class="cls-3" d="m169.49,1850.55c2.76,0,4.38-3.19,2.68-5.43l-62.32-81.59c-1.13-1.47-3.24-1.76-4.73-.63-1.48,1.13-1.76,3.25-.63,4.73,65.53,84.91,61.81,82.91,65.01,82.91Z"/>
          <path class="cls-3" d="m275.18,1807.78c1.85-.22,3.17-1.9,2.95-3.76l-12.19-101.94c-.22-1.85-1.82-3.16-3.75-2.95-1.85.22-3.17,1.9-2.95,3.76l12.19,101.94c.22,1.87,1.92,3.17,3.75,2.95Z"/>
          <path class="cls-3" d="m393.73,1824.17l42.98-93.21c.78-1.69.04-3.7-1.65-4.48-1.7-.79-3.7-.04-4.48,1.65l-42.98,93.21c-.78,1.69-.04,3.7,1.65,4.48,1.69.78,3.7.04,4.48-1.65Z"/>
          <path class="cls-3" d="m1322.62,316.42c218.29-10.79,455.24-9.23,674.66,11.76.11.01.22.02.33.02,1.72,0,3.19-1.31,3.36-3.05.18-1.86-1.18-3.5-3.04-3.68-217.6-20.85-454.98-22.69-675.64-11.78-1.86.09-3.3,1.68-3.2,3.54.09,1.86,1.59,3.24,3.54,3.2Z"/>
          <path class="cls-3" d="m544.18,505.54c1.49-1.15,1.76-3.24.61-4.73-1.15-1.49-3.31-1.76-4.79-.61-52.21,41.06-98.61,89.66-131.52,133.89,3.85-1.21,7.49-2.23,10.8-3.04,36.22-46.38,77.71-88.44,124.91-125.51Z"/>
          <path class="cls-3" d="m1855.5,1536.66c-168.52-56.71-358.85-56.78-548.84-46.79,0,0,0,0,0,0,9.17-67.8,40.26-297.58,49.43-365.37,10.06,9.65,34.37,32.41,62.25,54.28,34.7,27.28,75.01,52.93,100.53,50.37,120.25-12.69,383.83-318.95,396.12-333.47,4.99-5.13-2.56-19.36-14.7-35.83,5.73-3.78,9.64-5.53,19.9-11.4,21.2-12.49,53.2-40.64,73.66-78.99,7.43-13.98,9.05-25.32,4.86-33.69-2.9-5.74-7.83-8.71-11.48-10.13,8.75-18.38-6.77-32.15-25.79-26.33,5.24-18.03-10.05-30.76-28.36-23.09,19.92-31.33,62.93-103.57,54.49-129.97-1.55-4.86-4.66-8.17-9.25-9.86-24.71-9.18-75.69,62.39-101.07,101.07-18.57-6.08-41.59-7.43-62.99.27-34.97,12.65-19.53,65.09-18.43,86.69.44,11.61-2.56,16.91-4.06,22.1-18.09-14.92-34.22-24.9-40.03-19.37l-218.08,224.9c-20.32-32.48-173.99-262.91-434.47-290.05l-7.49-54.62c85.48-14.71,90.17-77.61,63.19-159.95-1.69-5.33-3.38-10.53-5.06-15.73-1.88-5.94-6.53-19.98-6.76-20.67.03-3.34,6.28-38.69-7.68-81.95,47.16-4.06,96.02-7.61,145.44-10.44,1.86-.11,3.29-1.7,3.18-3.56-.11-1.86-1.8-3.31-3.56-3.18-50.07,2.86-99.58,6.48-147.34,10.6,0-.02-.02-.05-.03-.08-10.67-29.84-28.76-56.71-53.14-78.45-38.55-34.3-88.25-51.58-139.76-48.68-100.87,5.74-179.52,88.04-182.3,186.88-54.48,18.29-106.84,43.24-156.49,74.68-1.58,1-2.04,3.08-1.05,4.66,1,1.59,3.1,2.04,4.66,1.05,48.49-30.7,99.6-55.19,152.74-73.23,1.17,7.58-1.45,52.03,29.77,101.29l.04.08-31.21-27.86c-1.39-1.24-3.52-1.13-4.77.27-1.24,1.39-1.12,3.52.27,4.77l42.98,38.38h-.03c-13.37-6.01-30.11-11.55-45.3-11.28-43.55.94-46.38,23.56-46.25,30.45.85,27.24,39.58,32.5,65.42,25.45-13.64,15.73-22.01,34.7-24.64,54.96-.27,2.3-.54,4.52-.61,6.68-.2,2.36-.27,4.66-.27,7.02,0,2.03,0,3.92.14,6.01,2.36,41.12,28.29,75.55,63.87,90.68-48.88,24.31-94.32,59.28-127,109.38-12.15,18.63-24.91,40.92-37.94,66.3-66.59,131.14-157.24,400.39-127.27,540.24-38.42-21.47-73.46-48.48-104.52-82.3-138.34-150.29-153.94-247.11-134.97-383.77,7.73-55.62,23.11-110.84,41.32-156.1,0-6.21,0-12.15.14-17.89-19.44,43.58-39.16,108.63-48.14,173.11-18.84,135.57-2.7,237.79,136.65,389.24,33.08,35.99,70.56,64.41,111.67,86.69v.07c8.96,33.42,26.46,61.36,60.43,68.09,230.83,45.33,451.86,8.81,456.55,8.81,1.43,0,5.03-2.7,5.87-3.85.34-.47.68-1.08,1.01-1.82,58.55-2.85,65.98-7.8,88.99,26.3,8.34,12.55,15.97,23.63,31.13,23.63,11.91,0,17.07-8.61,16.61-20.32,6.62,6.75,16.27,13.03,26.33,7.36,6.65-3.6,8.96-9.81,7.22-16.95,9.23,4.92,23.7,5.85,27.88-3.51,2.5-5.4,1.01-12.76-1.08-18.9,9.59,5.74,16.81,7.16,22.08,4.66,3.83-1.94,7.45-7.26,5.74-13.23,11.88-.74,24.17-1.55,36.8-2.3,1.4-.13,2.53-1.07,2.95-2.46h.02c189.79-9.99,379.85-10.13,547.7,46.32,397.95,133.82,540.95,403.68,450.14,849.36-.48,2.16,1.21,4.05,3.31,4.05,1.55,0,2.97-1.15,3.24-2.7,91.69-449.66-52.73-722.03-454.52-857.06Zm-38.96-892.57c26.92-9.77,61.32-4.08,80.68,11.07,12.16,9.58,9.54,23.25-6.95,26.8-7.96,1.74-30.14,2.25-38.22,2.43-2.92,0-3.46,2.6-3.04,5.54.54,5.27,1.42,22.62-11.48,29.91-1.62.88-2.23,2.97-1.28,4.59.94,1.62,2.97,2.16,4.59,1.28,15.19-8.64,15.66-26.67,15.06-34.64,8.3-.2,28.09-.81,35.85-2.5,24.16-5.3,31.57-32.51-8.03-48.75,31.67-47.94,75.28-103.5,92.23-97.09,2.63.95,4.25,2.7,5.2,5.6,11.02,34.37-75.99,155.75-76.43,156.44-1.15,1.49-.81,3.65.68,4.73,1.38,1.07,3.53.88,4.73-.68l13.03-17.42.2-.13c20.78-21.14,40.99-7.39,28.49,12.96-.07.14-.14.2-.14.34l-16.41,20.05c-1.21,1.42-1.01,3.51.41,4.73,1.38,1.11,3.56,1.01,4.79-.47l16.74-20.39c16.63-9.71,33.11.4,22.15,17.35-.41.64-.48,1.4-.4,2.14l-16.62,21.14c-1.22,1.55-.1,3.82,1.86,3.82,2.19,0,1.66-1.19,18.28-21.8,1.97.5,7.51,2.35,10.17,7.72,3.11,6.21,1.42,15.73-4.79,27.41-19.78,37.13-50.71,64.34-71.16,76.36-2.58,1.56-8.9,4.82-20.54,11.83-24.66-31.82-69.84-78.29-99.02-103.41,7.17-17.53,5.88-25.8,3.64-42.44-3.24-23.7-7.7-56.11,15.73-64.55Zm-720.34,45.47c10.42,49.17-185.42,67.73-182.23,13.91,0-.8-.24-63.2-.24-62.17,0-.7-.3-88.7-.3-88.02,2.88.26,7.78-.22,8.44-.44,12.95,13.2,28.09,24.79,35.92,29.71,22.5,34.35,91.68,48.61,128.96,43.21l.61-.07c.09.68,8.62,63.19,8.85,63.87Zm47.19-255.69c1.69,5.2,3.38,10.4,5.06,15.73,21.53,65.75,26.57,126.13-39.09,146.65-41.23,12.75-106.5,11.39-146.85-18.84h-.13s-.02-.02-.04-.03c.01,0,.02,0,.04,0-.12-.06-.27-.17-.34-.24-19.41-12.78-28.95-23.24-32.41-26.13v-.03c1.55-.54,3.11-1.15,4.59-1.89,1.62-.81,2.36-2.84,1.55-4.52-.81-1.69-2.84-2.36-4.52-1.55-20.88,9.83-46.69-5.64-50.98-23.6,0,0,0,0,0,0-1.81-6.6-1.68-13.46.14-19.72,0,0,0,0,0,0,.91-3.33,3.36-8.27,4.39-9.65,0,0-.01,0-.02,0,0-.01.01-.03.02-.04,15.51-24.17,51.32-21.14,63.53,4.39,1.9,3.95,8.02,1.15,6.08-2.9-3.85-8.04-9.92-14.58-17.49-18.97,25.3-18.9,44.23-45.47,55.5-74.03,0-.01,0-.02.01-.04,9.51-2.76,16.46-.33,18.69,2.16,1.28,1.42,3.44,1.49,4.79.27,1.35-1.28,1.49-3.38.2-4.79-3.65-3.98-11.28-6.75-21-5.06,11.09-32.44,13.08-68.16,3.52-101.44,92.05-.91,116.66,56.2,144.75,144.28Zm-392.68,113.02c-17.99.44-40.15-3.75-40.71-21.67-.27-14.38,14.11-22.89,39.7-23.5.68.18,22.33-2.19,60.36,19.92-11.14,4.32-21.4,10.47-30.52,18.36-9.32,3.85-19.38,6.55-28.83,6.89Zm-171.83,955.74c-73.14-14.58-66.84-140.43-56.72-214.49,11.43-83.6,36.79-174.23,65.96-253.78,17.97-48.97,38.31-96.34,59.89-138.88.06-.18.12-.29.18-.41.02-.04.04-.08.06-.13.02-.08.05-.15.1-.2.02-.04.02-.07.04-.1.02-.07.08-.13.09-.2,0-.02,0-.03,0-.05,12.83-24.91,25.31-46.78,37.33-65.07,33.22-50.84,79.94-85.88,129.97-109.85,1.54-.8,2.95-1.47,4.42-2.21.01,0,.03,0,.04.01h.07c1.62-.74,3.17-1.49,4.79-2.16,27.07-12.29,54.96-21.4,82.03-28.22,0,.68.07,17.05.07,16.37-3.34,53.41,137.41,47.47,181.62,14.31,14.31-10.87,15.53-21.88,13.98-29.37l-2.7-19.31c274.25,29.44,428.46,287.62,430.02,290.32,1.22,1.98,3.76,2.32,5.33.61l220.85-227.73c5.67-1.85,33.09,21.25,38.01,25.62,0,0,0-.02.01-.02,39.62,34.44,84.43,83.97,100.45,106.23,0,0,.01,0,.02-.01,11.33,15.18,16.12,24.56,15.24,27.19q-.07.13-.14.2c-63.01,72.48-298.67,331.31-395.04,331.31-23.56,0-59.89-23.63-91.89-48.81-29.64-47.19-56.24-113.16-81.09-201.67,0-.07,0-.14-.07-.14-.73-2.71-1.36-5.23-2.63-9.22-.54-1.82-2.43-2.84-4.19-2.3-1.82.54-2.77,2.43-2.23,4.25,11.21,37.39,19.19,92.68,17.55,151.31-.34.68-5.83,43.42-50.58,374.18-12.67.69-24.76,1.41-37.41,2.16-17.38-43.43-51.46-82.42-97.62-95.84-31.13-8.98-66.71-15.6-105.93-19.85h0c-.11-3.26.11-16.9-2.09-21.91-1.15-2.63-2.9-3.31-4.32-3.44-3.25-.2-121.68-7.66-115.12-7.24-162.68-19.79-127.77-196.62-82.84-354.07,2.23-7.8,8.18-31.37,12.49-51.82.34-1.82-.81-3.58-2.63-3.98-1.82-.4-3.58.81-3.98,2.63-3.58,17.08-7.7,34.1-12.29,51.18,0,.68-61.7,193.03-126.93,344.84v.07c-.74,2.04.52,4.36,2.9,4.56,88.81,5.56,210.65,13.23,326.78,20.53,6.68,15.87-10.5,132.36-10.6,133.08v-.04c-2.74,14.71-4.08,17.78-7.56,20.39-155.64,17.77-299.26,21.05-453.71-8.81Zm680.77,1.72c-.14.94-.61,3.38-2.56,4.25-5.92,2.96-20.43-7.63-21.11-7.93.01,0,.03,0,.04,0-9-6.35-7.16-9.86-29.37-29.1-1.35-1.21-3.51-1.08-4.73.34-1.22,1.42-1.08,3.51.34,4.73,7.18,6.25,15.47,14.19,25.59,26.84,3.51,6.55,7.56,17.55,5.13,22.69-2.59,4.8-16.68,5.93-29.39-8.39-5.3-6.28-7.87-9.02-11.08-12.54,0,0,.02,0,.03,0-2.9-3.26-8.26-8.66-10.06-10.3-1.35-1.28-3.51-1.28-4.79.07-.68.74-1.01,1.76-.95,2.7.1.68.22.77.57,1.45,0,0-.02,0-.03,0,.09.18-.72-1.52,21,22.72.08.16.14.21.27.34.01.01.03.02.04.03,5.61,7.45,10.16,16.68,2.12,21.27-12.02,6.68-25.72-15.8-25.86-16.07,0-.68-17.64-20.39-18.23-21.07-4.04-3.06-7.66,1.55-5.06,4.49.71.81,18.02,20.75,17.43,20.07,1.49,4.89,3.76,16.64-.55,21.83-2.02,2.43-5.67,3.24-10.73,2.5-18.38-2.63-23.69-34.43-47.6-46.65-15.64-7.8-17.14-2.84-65.62-6.55.02-.06,0,.02.13-.47h0s0-.02,0-.03c6.75-26.19,13.23-82.88,14.04-118.12,14.37,2.11,55.86,5.68,104.25,19.65,55.36,16,82.51,66.44,92.43,89.66,0,.01,0,.02.01.03,0,0,0,0-.01,0,2.9,7.54,3.96,9.95,4.32,11.58Z"/>
          <path class="cls-3" d="m2286.66,2466.2c-39.43,158.26-297.14,253.26-766.18,282.22l99.32-334.07c.91-3.02-2.53-5.64-5.2-3.71l-240.77,170.75c-.61.47-1.01,1.01-1.22,1.76l-41.25,131.59-127.81-4.19c-15.74-104.25-21.21-138.16-22.49-146.41,0,0,0,0,0,0,26.59,15.32,45.08,18.57,62.05,18.57,143.61-4.73,318.01-389.84,326.85-409.69.54-.81.88-2.16.27-4.05-1.18-3.22-7.09-9.41-7.78-10.21,10.07-15.5,61.47-92.06,52.34-108.92-2.6-4.4-7.64-4.72-12.49-2.97,3.31-10.33,5.67-22.96,1.08-29.98-3.12-4.69-9.71-6.82-17.69-1.89,3.71-11.75,5.67-23.83,1.08-30.11-3.33-4.44-10.91-6.63-19.44-.27,9.45-20.45,38.99-87.04,16.88-90.13-5.13-.88-16.88-2.7-77.17,102.69-5.13-18.7-9.93-29.64-17.83-33.08-4.12-1.82-8.78-1.49-13.77,1.28-16.83,9.05-6.57,95.36-4.79,113.26-9.52-6.95-16.81-11.55-19.92-12.15-2.57-.47-3.92.67-4.66,1.49l-197.22,261.02c-78.16-102.07-172.94-173.75-184.25-185.06-28.02-30.21-95.62-69.95-176.62-86.35,35.92-3.71,63.6-26.33,82.64-67.65,20.12-43.75,25.72-84.94,17.15-122.95,19.24,1.63,40,.82,55.03-11.55,16.81-13.84,22.01-39.02,15.46-74.88-3.78-20.39-14.85-34.84-33.02-43.07-1.69-.74-3.71,0-4.46,1.69-.74,1.69,0,3.71,1.69,4.46,16,7.22,25.79,20.05,29.1,38.15,17.14,92.88-50,92.65-139.02,57.52-1.69-.67-3.65.2-4.39,1.96-.68,1.69.2,3.65,1.89,4.32,26.87,10.67,50.37,17.49,70.15,20.39,9.25,37.4,4.12,77.98-15.73,121.13-24.29,52.55-62.13,74.18-118.56,60.29-4.28-.99-5.97,5.43-1.62,6.62,4.73,1.15,9.32,2.03,13.77,2.63-1.7,16.91-6.58,65.33-6.28,62.32-.14,1.89,1.21,3.51,3.04,3.71,1.89.2,3.51-1.22,3.71-3.04l5.94-59.35c68.78,10.15,131.3,37.44,173.86,69.54,1.55,7.79,115.71,85.09,207.82,206.81,1.28,1.69,4.12,1.69,5.4,0l198.9-263.25c16.26,5.83,99.7,79.62,113.16,97.29-8.24,18.3-183.31,400.78-320.71,405.3-19.85.67-41.32-7.09-63.19-20.52-9.69-59.69-27.04-171.41-43.55-247.89-.4-1.82-2.23-2.97-4.05-2.56s-2.97,2.16-2.57,3.92c14.68,68.2,34.26,188.04,43.95,250.72,0,0,0,0,0,0,8.37,53.19,16.34,105.57,23.15,150.8-55.29-1.28-50.31-2.29-52.73-1.08-8.55,5.62-75.96,49.89-77.31,50.77-30.52-3.98-58.61,1.08-81.16,8.37-1.42-4.05-3.38-6.68-6.15-6.95l-79.26-12.15h-.13c-176.96-60.16-270.2-126.59-288.37-322.26v-.07c.88-12.42,1.62-24.91,2.23-37.27.07-1.96-1.35-3.45-3.24-3.58-1.82-.07-3.44,1.42-3.51,3.24-8.9,178.73-38.48,302.99-38.48,312.6-.29,1.87.93,3.78,2.84,3.91l327.73,50.1h.14l78.86,11.95c12.21,10.46-6.56,124.13-11.48,141.31-.07.07-.07.34-.14.4-1.12,4.1-5.34,19.38-9.12,21.27-19.41,0-421.87,20.02-528.05-52.6-86.42-59.08-97.22-378.7-57.86-540.41,16.41-67.52,36.32-107.55,55.63-133.35v-.07c10.73-14.31,21.2-24.37,30.79-32.14,43.61-38.01,136.04-75.14,212.46-96.88,7.01,10,46.61,93.53,122.09,99.79,0-.01-.02-.02-.03-.04.36.02.5.03,2.06.14,1.76,0,3.24-1.35,3.38-3.11.07-1.89-1.35-3.51-3.17-3.58-62.61-4.59-93.97-59.91-117.94-95.72,8.11-12.44,44.48-67.53,42.12-63.95l.07-.07c.07-.07.13-.2.13-.27,7.05-11,9.84-24.78,10.06-37.81,3.53-.8,3.28-6.62-1.15-6.62-23.6,1.69-42.98-20.42-36.86-44.12h0c.79-2.11,1.56-7.78,7.7-14.69,20.18-23,59.69-11.62,62.32,21.27.13,1.89,1.75,3.24,3.58,3.17,1.89-.14,3.31-1.76,3.17-3.58-.22-3.05-.69-4.93-.82-5.64,0,0,0,0,0,0,60.21-12.51,45.33-92.18,67.85-102.89,5.13-2.3,12.29-1.08,22.01,3.78,5.6,2.77,12.09,5.87,19.11,9.18,1.69.88,3.71.07,4.46-1.62.81-1.69.07-3.65-1.62-4.46-6.95-3.24-13.37-6.35-18.91-9.18-11.68-5.81-20.79-7.09-27.88-3.78-28.22,13.27-9.76,90.66-66.83,102.49-.4-.68-5.35-16.75-23.44-24.34-20.87-8.73-44.58.79-53.94,19.91,0,0,0-.02,0-.02-7.36-30.65-24.78-119.03,9.12-151.1,14.11-13.17,35.99-15.33,65.02-6.01,0,0,0,0,0,0,0,.01,0,.02,0,.03.37.09,2.89.96,3.24,1.11h.07s0,0,.01,0c.25.71,11.8,33.59,11.06,31.49.54,1.35,1.82,2.23,3.24,2.23,2.23,0,3.94-2.3,3.17-4.52l-11.68-33.08-.05-.05s0-.02-.02-.05v-.07c-.07-.07-.14-.14-.14-.34-.36-1.79-1.86-7.64-2.63-15.36,0,0,0,0,0,0-4.7-43.93,15.76-71.25,61.38-74.58,23.36-1.69,41.73,4.05,54.62,17.01,24.58,24.91,21.27,68.66,21.2,69.14-.14,2.27,1.94,4.16,4.52,3.51.27-.14,30.45-10.53,62.79-12.49,1.89-.14,3.31-1.69,3.17-3.58-.07-1.82-1.62-3.24-3.58-3.17-25.99,1.55-50.1,8.17-59.96,11.34.2-12.83-1.42-47.26-23.36-69.54-14.31-14.45-34.5-20.8-59.96-18.91-26.13,1.89-45.17,11.07-56.44,27.41-15.87,22.96-12.09,52.93-9.45,65.69-31.19-9.72-55.03-7.02-70.89,7.97-42.81,40.31-11.68,156.17-8.44,167.71-.16,1.42-.88,4.51-.54,10.09,1.35,21.13,18.36,37.74,39.02,39.36-.4,12.42-2.84,24.31-9.18,34.3-.68.68-33,50.12-32.56,49.44-61.36-60.62-99.84-89.04-100.86-89.72-7.83-5.94-194.72-142.66-324.89-78.52-3.98,1.96-7.9,4.19-11.68,6.55-101.01,51.78-151.51,157.52-154.34,323.34-4.66,274.66,112.82,534.53,212.14,704,87.97,150.16,177.71,258.05,208.09,293.09-11.31,71.23,67.84,121.25,127.54,82.17h231.18v123.55l-103.5,57.33c-9.03-12.7-25.89-16.5-39.5-8.98l-156.91,86.83c-7.09,3.91-12.29,10.33-14.52,18.23-7.45,25.74,20.27,48.05,43.95,34.97l156.91-86.9c13.71-7.57,19.19-24.37,13.3-38.21v-.07l100.26-55.44v223.7l-353.59,476.32h-24.51c-9.52,0-17.28,7.7-17.28,17.28v20.46c0,1.96,1.55,3.38,3.38,3.38h75.96c1.89,0,3.38-1.42,3.38-3.38v-20.46c0-9.59-7.77-17.28-17.28-17.28h-15.19l345.15-464.9v301.3c-15.46,1.69-27.55,14.92-27.55,30.86,0,17.08,13.84,30.86,30.85,30.86s30.92-13.77,30.92-30.86c0-15.93-12.02-29.1-27.48-30.79v-301.37l345.15,464.9h-15.26c-9.52,0-17.28,7.7-17.28,17.28v20.46c0,1.96,1.55,3.38,3.38,3.38h75.96c1.89,0,3.38-1.42,3.38-3.38v-20.46c0-9.59-7.76-17.28-17.28-17.28h-24.51l-353.52-476.23v-355.1h296.87c37.26,0,69.84-23.43,79.87-55.63l6.48,6.55,82.78,339.21-90.47,94.86c-4.86-2.9-11.01-3.38-16.41-1.01-.83.41-98.93,85.94-99.79,86.69-6.93,5.98-7.73,16.62-1.42,23.63,32.5,35.87,203.95,220.14,203.29,219.43,10.31,10.93,26.72,11.68,37.74,2.97,7.31-6.09,13.01-12.44,17.35-21.2v-.07c.27-.41.47-1.01.61-1.21,8.17-16.81,8.71-36.12,1.49-53.07-14.11-33.35-35.58-94.52-21.06-129.7,2.23-5.6,3.04-10.8,2.36-15.6l13.1-13.77,39.09,160.29c1.67,9.2,19.46,8.52,28.29,8.91l7.02,52.33c-5.27,2.03-9.45,6.48-11.01,12.22-.31,1.53-.41-8.03,5.27,132.06.42,9.32,8.1,16,16.61,16,7.66,0,312.18-22.51,299.37-21.61,14.65-1.15,25.72-13.03,25.86-27.68,0-14.85-5.59-27.33-6.28-28.02-7.97-16.88-22.75-29.37-40.51-34.37-34.84-9.79-96.01-31.26-114.44-64.68-2.84-5.13-6.41-8.98-10.67-11.48l-7.36-54.89c8.64-3.2,26.63-9.9,25.52-18.97.61-15.93,5.87-179.12-5.81-361.96,59.68-135.37,183.44-445.21,121.19-559.11-33.62-61.44-170.62-117.89-305.51-160.35l61.78-61.1c475.59-28.69,737.15-125.38,777.53-287.56.98-4.57-5.53-5.83-6.62-1.62Zm-728.9-312.42h-.01c-18.63-19.12-54.28-50.04-79.6-69.42,0-.01,0-.02,0-.04-6.68-53-8.24-108.36.47-113.09,3.17-1.69,5.74-2.02,7.9-1.01,7.09,3.17,12.02,20.53,16.07,36.59,0,0,0,0,0,.02.09.34.26.65.46.96.06.1.08.21.14.31,0,0,.07.13.2.27,0,0,.01,0,.02.01,1.89,2.58,15.71,22.69,7.47,48.72-.56,1.78.42,3.68,2.2,4.24.34.11.68.16,1.02.16,1.43,0,2.76-.92,3.22-2.36,8.43-26.64-3.31-47.2-7.47-53.34,8.1-14.24,67.55-118.04,74.9-103.36,6.14,12.15-18.09,70.83-32.27,97.43-1.85,3.54,2.84,6.86,5.54,3.85,4.73-5.6,13.57-15.87,18.84-16.27,2.9-.2,3.92.67,4.46,1.49,2.56,3.44,2.29,14.58-6.21,35.51-1.42,3.48,2.98,6.2,5.47,3.71,2.54-2.69,9.66-9.25,13.57-9.25,2.16,0,3.11.88,3.58,1.76,3.17,4.66,1.15,17.69-5.06,33.15-1.32,3.08,2.36,6.18,5.27,3.92,3.98-3.31,7.09-5.06,9.32-5.13,1.28-.07,1.49.34,1.62.54,4.59,8.44-21.6,56.23-51.1,100.65Zm-806.84,1361.1c-166.44,90.95-157.59,89.8-168.32,89.8-24.2,0-32.84-32.42-11.48-44.29,166.77-91.09,157.09-89.8,168.32-89.8,24.58,0,32.62,32.69,11.48,44.29Zm-213.08,618.93c5.81,0,10.53,4.73,10.53,10.53v17.08h-69.2v-17.08c0-5.81,4.73-10.53,10.53-10.53h48.14Zm714.73,0c5.81,0,10.53,4.73,10.53,10.53v17.08h-69.2v-17.08c0-5.81,4.73-10.53,10.53-10.53h48.14Zm-265.54-1358.78c28.95-9.52,57.07-11.64,81.36-7.9,64.6,9.49,85.39,44.43,107.89,108.91,1.69,4.86,2.23,10.53-.27,12.62-1.42,1.28-6.68,3.31-22.89-5.13-9.31-36.36-32.98-75.5-71.23-78.05-1.82-.07-3.51,1.28-3.65,3.11-.07,1.89,1.28,3.51,3.17,3.65,35.21,2.59,57.68,41.91,65.42,73.86,0,.27.07.34.07.41v.07c1.74,8.59-.89,12.18-12.29,10.53-10.91-27.38-33.98-53.57-63.19-56.65-1.89-.27-3.58,1.01-3.78,2.97-.31,2.02,1.54,3.85,3.44,3.85h.07c27.56,3.81,47.68,28.35,57.86,54.01,0,.07.07.2.13.41,4.79,9.39,3.31,11.68,3.11,11.88-.14.14-1.69,1.69-9.39-.2-4.59-5.33-31.6-35.11-62.12-35.11h-.41c-1.89,0-3.38,1.55-3.31,3.38,0,1.96,1.62,3.31,3.38,3.38,27.61-.07,53.88,28.9,57.52,33.02l.07.07c1.45,4.84-1.04,8.36-5.6,8.91-12.54.56-34.81-10.59-54.15-3.78-11.01,3.65-53.27,3.24-89.59,1.89,11.8-27.99,23.45-120.44,18.36-150.09Zm260.3,4.59s-.04,0-.07,0c.06,0,.08,0,.09,0h.02c-.36,1.14-.24.77-55.3,176.42l-223.35-24.17c33.22,1.15,79.06,1.96,91.69-2.3,11.28-3.78,23.23-.95,33.83,1.42,14.69,3.63,16.82,2.58,18.7,2.77,4.37-.42,12.22-5.87,12.22-13.03,11.8,1.91,17.07-4.45,12.49-16.47,9.4.21,15.95-3.41,16.47-12.69,12.56,5.94,21.2,6.68,26.26,2.23,4.46-3.78,5.33-11.21,2.3-19.92-9.03-25.9-23.41-61.5-42.94-81.02l24.31-16c10.49.35,71.1,2.36,83.27,2.77Zm-288.19,157.99c182.11,19.62,224.78,24.22,233.17,25.13-.03,0,0,0,.08,0-.03,0-.05,0-.06,0,.04,0,.09,0,.13.01.03,0,.07,0,.12.01.09,0,.17.02.25.03-.04,0-.08,0-.12-.01.06,0,.14.01.22.02.01,0,.03,0,.04,0,.14.01.3.03.49.05-.02,0-.03,0-.05,0,.07,0,.12.01.18.02.02,0,.05,0,.07,0,.1,0,.19.02.25.03.07,0,.12.01.19.02h0c.05,0,.05,0,0,0,.13.07.27.07.34.07,1.49,0,2.77-.95,3.24-2.3,14.52-46.34,57.17-182.45,57.46-183.38.61-2.12-.81-4.32-3.11-4.32-.14,0-.38-.01-.51-.02-.73-.02,3.79.12-88.34-2.89-.68,0-1.28.14-1.89.54h-.07l-26.4,17.42c-16.17-14.82-36.22-21.89-58.2-26.4.15-.1.25-.17.39-.26,38.7-25.25-59.94,39.35,69.76-45.79,21.97.7,152.54,4.85,182.5,5.81-2.78,8.88-5.17,16.52-7.27,23.23,1.11-3.62-13.89,44.2-86.85,277.08,0,0,.02,0,.03,0-.02,0-.04,0-.08,0-.48-.05-.89-.1-1.26-.14-.16-.02-.34-.04-.52-.06.03,0,.06,0,.09,0-.1,0-.18-.02-.28-.03.05,0,.09,0,.14.01-.14-.01-.28-.03-.44-.05-.25-.03-.46-.05-.63-.07.1,0,.2.02.3.03-.25-.03-.52-.06-.81-.09,0,0-.02,0-.03,0-.03,0-.06,0-.09,0,0,0,.02,0,.04,0-.04,0-.07,0-.06,0-12.06-1.3-59.52-6.42-220.35-23.78,7.39-10,11.79-15.96,11.28-15.26,1.78-2.37-.17-5.47-2.7-5.47h-201l-59.48-6.35,45.1-29.64c57.95.68,151.27-2.46,154.75-3.24Zm-168.99,3.04c.13.07.2.07.2,0,.34.07.68.07,1.01,0l-43.68,29.37c-2.71,1.91-1.49,5.93,1.55,6.08l6.89.74h-164.54c58.25-12.43,140.35-28.71,198.57-36.19Zm-117.14,12.63c-41.52,8.03-82.3,16.74-113.77,23.56h-56.04c-1.28-9.86-3.11-24.04-5.33-41.79,49.59,14.99,122.94,19.42,175.14,18.23Zm-114.04,196.68c-1.62.74-3.24,1.49-4.86,2.3-15.53-28.02-27.82-60.23-36.93-97.23h25.79l16,94.93Zm-143.61-172.98c-124.84-188.71-277.63-484.7-272.3-797.17,1.89-130.52,38.94-209.65,103.71-281.01,24.75-15.4,55.03-22.21,85.41-22.21,115.32,0,242.05,92.7,243.6,93.92,1.08.74,39.63,29.24,101.07,90h.01c-.45.69-5.48,8.31-5.04,7.64-73.66,20.73-170.46,57.99-217.51,98.57l-.07.07c-.27.13-.47.27-.68.34-27.62,22.68-62.66,62.32-88.65,169.2-39.77,163.59-27.88,487.07,60.63,547.63,15.46,10.6,36.93,19.31,62.32,26.33.12.96,8.21,64.72,8.44,66.57-84.14.07-79.84-.14-80.95.14Zm54.08,78.05h40.71c9.39,38.28,21.94,71.64,38.08,100.4-.2.07-.34.27-.54.34-15.64-18.25-47.29-58.05-78.25-100.74Zm165.01,233.95c-54.16,38.39-131.35-8.32-118.15-77.51,6.11-30.25,32.1-50.95,43.82-54.55l13.37,79.33c1.15,6.62,6.82,11.28,13.3,11.28,8.27,0,14.72-7.39,13.37-15.73-.12-.69-13.84-82.24-13.71-81.43,38.34-1.74,69.07,23.05,78.05,56.31,8.36,30.66-3.37,63.67-30.04,82.3Zm260.82,705.35c0,13.37-10.8,24.1-24.17,24.1s-24.1-10.74-24.1-24.1,10.8-24.17,24.1-24.17h.07c13.37.07,24.1,10.87,24.1,24.17Zm276.14-705.35h-526.03c22.07-19.17,31.88-47.81,27.48-75.55h576.12c-.68,45.94-36.97,75.55-77.58,75.55Zm194.25,515.49c-14.72,35.78,3.31,93.17,21.07,134.97,6.08,14.38,5.94,30.79-.41,45.37-19.11-10.67-42.73-8.97-59.95,4.73l-162.18-174.6c17.13-22.05,19.48-51.05,9.05-73.93l63.6-55.3c4.27-1.71,9.11-.92,13.77,4.25,6.01,6.68,12.02,17.28,11,32.27-2.36,32.75,28.69,36.53,29.17,36.6.61.07,59.89,3.78,74.07,26.26,3.76,6.36,3.59,12.89.81,19.38Zm265,182.09c18.7,33.76,74.74,55.5,118.56,67.92,15.06,4.25,27.75,14.45,35.18,28.49-19,7.44-33.75,26.85-33.96,49.76l-237.59,17.62c-6.32-27.17-27.9-47.41-51.99-53.27l-3.51-84.26c1.7-5.09,6.91-7.9,9.45-7.9,13.17-1.1,24.66,2.15,34.7,11.34,23.9,22.28,46.38.47,46.79.2.34-.54,40.38-44.49,66.78-41.45,6.51,1.08,11.81,4.22,15.6,11.55Zm6.68-88.58c0,.68.49,1.11-1.89,3.11-24.16,20.78-174.29,46.1-199.72,37.34-2.09-.74-2.63-1.55-2.7-1.82.25,1.03-174.7-716.08-177.5-727.56,0-.91-1.49-2.36-3.17-2.36h-580.92c-10.85-44.48-50.51-57.32-51.31-57.93-11.89-4.39-24.06-5.83-34.84-5.06l-14.99-88.65h397c1.08,0,2.09-.47,2.7-1.35l36.59-49.83c132.28,14.29,140.06,15.12,124.63,13.46,21.06,2.27,54.37,5.87,105.4,11.39,1.15.29,2.15-.06,3.24-.88,56.55-55.84,71.44-70.55,74.55-73.62-.15.15-.29.29-.41.41.22-.22.56-.56,1.14-1.13,82.98,19.11,152.32,45.31,189.52,81.16,133.8,129.29,139.98,680.86,132.67,863.34Zm116.2-917.89c58.33,106.54-55.77,400.58-116.26,540.67-13.57-197.15-47.26-413.07-127.95-490.98-37.67-36.33-106.27-62.93-188.1-82.3l126.93-125.24c134.97,42.27,272.84,98.24,305.38,157.86Zm-240.09-231.85c-9.3,9.22,45.44-44.85-268.65,265.27,118.02-376.71,111.27-355.15,133.89-427.32l231.85-164.34-97.09,326.38Z"/>
          <path class="cls-3" d="m1246.72,2779.59c.15,0,.28,0,.38.01-.1,0-.23,0-.38-.01Z"/>
          <path class="cls-3" d="m1231.91,3021.38c-.07,0-.11-.01-.16-.02.05,0,.1.01.16.02Z"/>
          <path class="cls-3" d="m902.7,1970.59c-4.27-1.15-5.96,5.42-1.62,6.55,11.07,2.67,18.77,2.51,19.44,2.56,10.8,0,14.42-7.05,12.02-14.38-.78-2.41-2.29-4.8-3.71-7.09-7.97-12.96-10.33-29.44-6.41-44.09,1.13-4.34-5.45-6-6.55-1.76-4.39,16.41-1.69,34.84,7.16,49.36,1.69,2.68,4.81,7.17,2.9,9.65-2.53,3.5-19.01.23-23.23-.81Z"/>
          <path class="cls-3" d="m956.85,1924.27c-3.38,2.97-3.85,8.24-.81,11.75,3.04,3.44,8.3,3.78,11.75.81,3.44-3.04,3.92-8.3.88-11.75-3.04-3.51-8.31-3.85-11.82-.81Z"/>
          <path class="cls-3" d="m981.09,1913.54c1.15-1.49.81-3.65-.67-4.73-13.66-10.24-32.45-7.18-42.4,5.94-2.69,3.64,2.69,7.64,5.4,4.12,7.79-10.43,22.43-12.51,32.95-4.66,1.49,1.08,3.58.81,4.73-.68Z"/>
          <path class="cls-3" d="m875.83,1906.65c-3.44,2.97-3.85,8.24-.88,11.75,3.04,3.44,8.3,3.78,11.75.81,3.51-3.04,3.92-8.3.88-11.75-3.04-3.51-8.3-3.85-11.75-.81Z"/>
          <path class="cls-3" d="m895.41,1887.81c-13.71-9.8-32.66-6.56-42.27,7.09-2.53,3.49,2.89,7.64,5.47,3.92,7.56-10.6,22.28-13.03,32.88-5.54,3.54,2.57,7.5-2.86,3.92-5.47Z"/>
          <path class="cls-3" d="m905.87,2014.14c1.76-.68,2.56-2.63,1.89-4.39-.68-1.69-2.63-2.56-4.39-1.89-13.78,5.37-23.68.15-27.61-9.05-.74-1.69-2.7-2.5-4.39-1.76-1.76.68-2.56,2.63-1.82,4.39,3.34,10.14,17.33,20.08,36.32,12.69Z"/>
          <path class="cls-3" d="m1477.27,2650.25c-18.08-8.38-65.27,48-45.71,57.39,15.14,6.73,50.3-30.98,50.3-49.09,0-5.33-2.9-7.49-4.59-8.3Zm-25.05,42.47c-9.52,8.03-15.93,9.59-17.82,8.84-.54-.27-.68-1.42-.68-2.23,0-13.95,27.52-43.14,39.5-43.14,6.24,0-2.76,20.98-21,36.53Z"/>
          <path class="cls-3" d="m4203.38,2350.34c23.23-.07,42.77-8.27,58.08-24.42,31.41-33.12,40.22-95.99,38.29-140.4V3.45c0-2.75-2.91-4.21-5-3.04-136.47,72.96-810.91,433.5-945.11,505.23v-159.23c0-1.87-1.51-3.38-3.38-3.38s-3.38,1.51-3.38,3.38v162.75l-863.06,461.34c-1.15.68-1.82,1.82-1.82,2.97,0,33.11,0,1608.11,0,1731.2h0s-127.61,33.15-127.61,33.15c-2.24.56-3.38,3.34-1.76,5.4,19.98,24.31,46.86,50.77,95.2,62.72.39.1,1.33.09,1.69,0l897.37-232.53v996.53l-357.14,557.11h-20.95c-9.52,0-17.28,7.7-17.28,17.28v20.46c0,1.96,1.55,3.38,3.38,3.38h75.96c1.89,0,3.38-1.42,3.38-3.38v-20.46c0-9.59-7.7-17.28-17.28-17.28h-19.17l349.12-544.6v395.72c-15.46,1.76-27.55,14.92-27.55,30.86,0,17.01,13.84,30.86,30.92,30.86s30.92-13.84,30.92-30.86c0-15.93-12.09-29.1-27.55-30.86v-395.62l346.02,544.49h-16.06c-9.59,0-17.28,7.7-17.28,17.28v20.46c0,1.96,1.49,3.38,3.38,3.38h75.89c1.89,0,3.38-1.42,3.38-3.38v-20.46c0-9.59-7.7-17.28-17.22-17.28h-24.08l-354.01-557.08v-754.09l281.34,226.64c-10.13,15.06-8.12,36.7,7.56,49.49l205.45,165.42c37.52,30.63,85.18-26.59,46.59-57.79l-205.45-165.42c-14.85-12.24-36.8-10.63-49.96,2.97l-285.53-229.94v-235.59l853.73-221.32Zm-1179.91,1793.99v17.08h-69.2v-17.08c0-5.81,4.73-10.53,10.53-10.53h48.14c5.81,0,10.53,4.73,10.53,10.53Zm714.74,0v17.08h-69.14v-17.08c0-5.81,4.73-10.53,10.53-10.53h48.14c5.74,0,10.47,4.73,10.47,10.53Zm-97.7-1102.89c11-10.85,28.21-11.76,40.44-2.09l205.45,165.62c31.32,25.26-7.06,72.21-38.15,47.26l-205.45-165.55c-14.53-11.72-14.83-33.61-2.3-45.17v-.07Zm-270.07,967.59c0,13.23-10.87,24.1-24.17,24.1s-24.17-10.87-24.17-24.1c0-14.03,12.06-25.91,27.55-23.97,11.68,1.62,20.8,11.75,20.8,23.97Zm886.1-1687.74c-14,14.76-31.92,22.26-53.26,22.31,0,0-.01,0-.02,0-46.72-8.91-90.67-59.96-91.08-60.43-.88-.95-2.16-1.35-3.44-1.01l-1623.98,420.83v-54.89c104.19-26.4,1703.43-431.66,1808.35-458.25.33,18.4-.63,93.56-36.57,131.45Zm-1771.79-1345.8c15.77-8.43,1682.92-899.46,1808.24-966.44v2173.78l-1808.24,458.44V975.49Zm-40.11,1823.7c-43.21-10.94-67.85-33.08-87.37-56.17,881.67-229.26-1229.94,318.69,1751.12-453.92,7.36,8.37,41.46,44.76,81.16,57.86-1574.23,407.97-1741.22,451.27-1744.91,452.23Z"/>
          <path class="cls-3" d="m3139.13,1852.67l-29.3,11.41v-42.94c0-1.82-1.49-3.38-3.38-3.38s-3.38,1.55-3.38,3.38v45.51l-31.73,12.49c-12.22,4.73-21.81,18.09-21.81,30.38v481.19c0,13.54,11.62,20.3,24.24,15.19l29.3-11.41v42.87c0,4.47,6.75,4.48,6.75,0v-45.51l31.73-12.42c12.22-4.79,21.81-18.16,21.81-30.45v-481.19c0-13.34-11.24-20.13-24.24-15.12Zm17.49,496.32c0,9.38-8.03,20.52-17.49,24.24-.71.28-68.48,26.6-67.79,26.33-9.17,3.53-15.06-.76-15.06-8.84v-481.19c0-9.45,8.03-20.46,17.49-24.17,75.32-29.34,70.16-27.61,73.66-27.61,5.41,0,9.18,3.55,9.18,10.06v481.19Z"/>
          <path class="cls-3" d="m3972.56,1638.24l-29.3,11.41v-42.94c0-1.89-1.49-3.38-3.38-3.38s-3.38,1.49-3.38,3.38v45.51l-31.73,12.42c-12.22,4.79-21.81,18.09-21.81,30.45v370.74c0,13.97,12.31,20.24,24.24,15.12l29.3-11.34v42.87c0,4.47,6.75,4.48,6.75,0v-45.51l31.73-12.36c12.22-4.86,21.81-18.23,21.81-30.45v-370.8c0-13.56-11.58-20.13-24.24-15.12Zm17.49,385.93c0,9.32-8.03,20.46-17.49,24.17-2.43.94-68.55,26.7-67.79,26.4-8.26,3.18-15.06,0-15.06-8.91v-370.74c0-9.45,8.03-20.46,17.49-24.24,73.7-28.63,69.65-27.55,73.66-27.55,6.21,0,9.18,4.23,9.18,10.06v370.8Z"/>
          <path class="cls-3" d="m4155.87,1428.05l-29.3,11.34v-42.87c0-1.82-1.49-3.38-3.38-3.38s-3.38,1.55-3.38,3.38v45.57l-31.73,12.36c-12.22,4.79-21.74,18.09-21.74,30.38v318.21c0,12.5,10.16,20.36,24.24,15.12l29.24-11.48v42.94c0,4.44,6.75,4.5,6.75,0v-45.57l31.8-12.29c12.15-4.86,21.74-18.23,21.74-30.52v-318.14c0-12.96-10.79-20.24-24.24-15.06Zm17.49,333.2c0,9.45-7.97,20.53-17.49,24.17-.71.28-68.48,26.67-67.79,26.4-8.14,3.18-14.99.18-14.99-8.78v-318.21c0-9.32,7.97-20.39,17.49-24.1.71-.28,68.47-26.73,67.79-26.47,8.08-2.96,14.99-.11,14.99,8.84v318.14Z"/>
          <path class="cls-3" d="m2940.7,2079.73l-29.3,11.34v-42.87c0-1.82-1.49-3.38-3.38-3.38s-3.38,1.55-3.38,3.38v45.51l-31.73,12.49c-12.22,4.73-21.81,18.09-21.81,30.38v232.26c0,13.81,12.12,20.32,24.24,15.12l29.3-11.41v42.94c0,4.44,6.75,4.5,6.75,0v-45.51l31.73-12.36c12.22-4.86,21.81-18.16,21.81-30.52v-232.26c0-13.56-11.4-20.21-24.24-15.12Zm17.49,247.38c0,9.45-8.03,20.53-17.49,24.24-70.47,27.45-37.67,14.63-67.79,26.33-8.41,3.23-15.06-.02-15.06-8.84v-232.26c0-9.45,8.03-20.46,17.49-24.1,75.78-29.52,69.32-27.61,73.73-27.61,6.07,0,9.11,4.24,9.11,9.99v232.26Z"/>
          <path class="cls-3" d="m2747.67,2121.18l-29.3,11.41v-42.87c0-1.82-1.49-3.38-3.38-3.38s-3.38,1.55-3.38,3.38v45.57l-31.73,12.36c-12.22,4.73-21.81,18.16-21.81,30.38v155.63c0,10.52,7.28,16.81,15.87,16.81,6.67,0,11.41-3.26,37.67-13.1v42.87c0,4.47,6.75,4.48,6.75,0v-45.57l31.73-12.36c12.22-4.73,21.81-18.09,21.81-30.38v-155.63c0-12.5-10.61-20.38-24.24-15.12Zm17.49,170.75c0,9.32-8.03,20.39-17.49,24.1-.71.28-68.47,26.74-67.79,26.47-8.55,3.29-15.06-.33-15.06-8.84v-155.63c0-9.32,8.03-20.39,17.49-24.04,74.87-29.16,69.43-27.61,73.66-27.61,6.16,0,9.18,4.18,9.18,9.93v155.63Z"/>
          <path class="cls-3" d="m3542.14,1667.27l-29.3,11.48v-42.94c0-1.89-1.49-3.38-3.38-3.38s-3.38,1.49-3.38,3.38v45.57l-31.73,12.29c-12.22,4.86-21.81,18.23-21.81,30.45v390.45c0,13.75,12.14,20.17,24.24,14.99l29.3-11.41v42.94c0,4.47,6.75,4.48,6.75,0v-45.51l31.73-12.36c12.22-4.73,21.81-18.09,21.81-30.45v-390.38c0-12.94-10.84-20.15-24.24-15.12Zm17.49,405.51c0,9.45-8.03,20.46-17.49,24.17-.71.28-68.48,26.6-67.79,26.33-8.1,3.24-15.06.17-15.06-8.71v-390.45c0-9.38,8.03-20.39,17.49-24.1,71.83-27.97,69.73-27.68,73.66-27.68,5.86,0,9.18,4.02,9.18,10.06v390.38Z"/>
          <path class="cls-3" d="m3768.12,1723.44l-29.3,11.34v-42.87c0-1.82-1.49-3.38-3.38-3.38s-3.38,1.55-3.38,3.38v45.57l-31.73,12.36c-12.22,4.79-21.81,18.09-21.81,30.38v200.86c0,9.72,6.1,16.81,15.93,16.81,6.57,0,7.52-1.83,37.61-13.1v42.94c0,4.47,6.75,4.48,6.75,0v-45.51l31.73-12.36c12.22-4.79,21.81-18.16,21.81-30.52v-200.8c0-12.99-10.76-20.32-24.24-15.12Zm17.49,215.92c0,9.45-8.03,20.52-17.49,24.24-70.52,27.34-37.67,14.63-67.79,26.33-8.4,3.23-15.06-.06-15.06-8.84v-200.86c0-9.32,8.03-20.39,17.49-24.1,74.7-28.96,69.2-27.55,73.73-27.55,6.15,0,9.12,4.2,9.12,9.99v200.8Z"/>
          <path class="cls-3" d="m3353.57,1685.5l-29.3,11.41v-42.94c0-4.47-6.75-4.48-6.75,0v45.51l-31.73,12.42c-12.22,4.79-21.81,18.09-21.81,30.45v205.79c0,9.89,6.51,16.81,15.93,16.81,6.65,0,10.7-3.02,37.61-13.1v144.76c0,4.47,6.75,4.48,6.75,0v-147.46l31.73-12.36c12.22-4.79,21.81-18.16,21.81-30.45v-205.72c0-13.56-11.58-20.13-24.24-15.12Zm17.49,220.85c0,9.38-8.04,20.52-17.49,24.17-6.93,2.7,25.11-9.78-67.79,26.4-9.12,3.51-15.06-.61-15.06-8.78v-205.79c0-9.45,8.03-20.46,17.49-24.24,75.26-29.18,69.98-27.55,73.73-27.55,6.24,0,9.11,4.31,9.11,10.06v205.72Z"/>
          <path class="cls-3" d="m3644.17,1345.61l-110.67,44.72v-326.32c0-1.22-.68-2.23-1.69-2.9-1.08-.54-2.36-.54-3.44.07l-128.01,77.58c-1.01.68-1.62,1.69-1.62,2.9v303.13l-82.51,33.34v-.04l-10.8-552.56c-.15-2.7-2.88-4.1-5.13-2.9l-117.14,70.96c-1.01.74-1.62,1.76-1.62,2.9v536.06l-84.73,34.24-8.64-440.54c0-2.39-2.66-4.16-5.13-2.77l-117.14,70.89c-1.01.68-1.62,1.69-1.62,2.97v423l-82.57,33.37v-.08l-10.8-546.82c0-2.24-2.65-4.32-5.13-2.77l-117.08,71.03c-1.01.61-1.62,1.69-1.62,2.77v530.28l-96.24,38.89v-692.57c0-1.87-1.51-3.38-3.38-3.38s-3.38,1.51-3.38,3.38v697.57c0,2.4,2.43,4.02,4.64,3.13,160.78-64.96,843.25-340.74,998-403.28,1.73-.7,2.56-2.66,1.86-4.39-.7-1.73-2.67-2.56-4.39-1.86Zm-238.69-202l121.26-73.59v319.76l-121.26,49.69v-295.86Zm-217.2-145.16l110.46-66.98,10.8,549.36-121.26,49v-531.38Zm-217.27,200.73l110.53-66.98,8.57,437.24c-163.22,66.03-106.92,43.26-119.1,48.18v-418.45Zm-217.2-19.38l110.46-66.98,10.67,543.62-121.12,48.94v-525.59Z"/>
          <path class="cls-3" d="m3976.68,580.45c-124.23,0-230.1,142.33-236.04,317.13-3.58,102.69,28.63,199.45,86.02,259,37,38.21,81.49,58.47,128.69,58.47,84.4,0,163.12-65.29,205.45-170.48,51.1-124.74,40.47-292.71-44.7-393.49-38.28-45.57-87.77-70.62-139.42-70.62Zm-21.34,627.84c-45.3,0-88.11-19.51-123.83-56.51-56.17-58.2-87.64-153.13-84.13-253.93,5.81-171.29,108.63-310.65,229.29-310.65,49.62,0,95.4,22.89,132.54,66.37l-168.25,242.25c-1.19,1.64-.51,3.84.88,4.73l211.67,143.95c-41.52,101.07-117.21,163.8-198.16,163.8Zm200.8-170.08l-207.68-141.31,165.28-238c.54.54,1.08,1.22,1.55,1.82,79.53,102.19,88.52,257.44,40.85,377.49Z"/>
          <path class="cls-3" d="m727.83,1906.51c-13.19,3.77-21.52,13.97-24.17,24.58-1.11,4.28,5.37,6.09,6.55,1.76.47-1.81,1.14-3.55,1.94-5.17,0,0,0,0,.01,0,2.98-6.79,9.44-12.4,17.49-14.68,4.34-1.29,2.33-7.76-1.82-6.48Z"/>
          <path class="cls-3" d="m1227.45,1888.45l46.18-34.97c2.63,1.01,5.33,2.09,8.1,2.97,22.42,7.76,46.65,11.68,71.7,11.55,54.55-.27,104.92-20.05,134.9-52.8,17.22-18.84,26.4-40.85,26.4-63.67v-.47c-.4-63.94-73.53-115.66-162.65-114.98-43.08.2-83.45,12.36-113.9,34.3-30.72,22.01-47.53,51.45-47.33,82.64.14,27.55,13.98,54.08,38.96,74.88l-7.76,57.46c-.44,2.92,3.07,5.18,5.4,3.11Zm9.32-61.51c.14-1.22-.27-2.36-1.22-3.04-24.37-19.71-37.81-44.83-37.94-70.96-.2-28.96,15.66-56.31,44.56-77.17,29.23-21,68.33-32.75,109.92-32.95h1.42c84.94,0,154.14,48.34,154.48,108.23.14,21.27-8.44,41.86-24.64,59.55-28.69,31.46-77.24,50.37-129.9,50.64-24.51.27-47.8-3.58-69.48-11.14-3.24-1.15-6.41-2.36-9.52-3.65-1.15-.47-2.43-.34-3.38.47l-41.25,31.26,6.95-51.25Z"/>
          <path class="cls-3" d="m1301.66,1754.7c0-12.02-9.72-21.74-21.74-21.74s-21.67,9.72-21.67,21.74,9.72,21.67,21.67,21.67,21.74-9.72,21.74-21.67Zm-36.66,0c0-8.3,6.68-14.99,14.92-14.99s14.99,6.68,14.99,14.99-6.68,14.92-14.99,14.92-14.92-6.68-14.92-14.92Z"/>
          <path class="cls-3" d="m1352.77,1776.38c12.02,0,21.74-9.72,21.74-21.67s-9.72-21.74-21.74-21.74-21.67,9.72-21.67,21.74,9.72,21.67,21.67,21.67Zm0-36.66c8.3,0,14.99,6.68,14.99,14.99s-6.68,14.92-14.99,14.92-14.92-6.68-14.92-14.92,6.68-14.99,14.92-14.99Z"/>
          <path class="cls-3" d="m1425.69,1776.38c11.95,0,21.67-9.72,21.67-21.67s-9.72-21.74-21.67-21.74-21.74,9.72-21.74,21.74,9.72,21.67,21.74,21.67Zm0-36.66c8.24,0,14.92,6.68,14.92,14.99s-6.68,14.92-14.92,14.92-14.99-6.68-14.99-14.92,6.68-14.99,14.99-14.99Z"/>
          <path class="cls-3" d="m2129.48,835.19l366.48-93.31c1.15-.27,2.03-1.15,2.36-2.16,62.72-186.55,24.71-490.98,24.37-493.95-.29-2.35-2.53-3.42-4.32-2.9l-363.51,103.77c-1.62.4-2.63,2.03-2.43,3.65.34,2.97,35.18,295.52-27.01,480.65-.97,2.6,1.85,5.14,4.05,4.25Zm29.98-482.88l356.96-101.88c4.25,36.05,33.69,311.73-23.9,485.31l-358.79,91.49c56.85-176.76,29.17-444.26,25.72-474.91Z"/>
          <path class="cls-3" d="m2419.06,397.68c-29.57-32.21-68.06-44.36-103.3-32.48-69.68,27.41-97.83,105.33-100.8,163.86-.54,58.54,22.82,138,90.88,169.74,17.46,6.76,35.27,7.91,53,3.65,50.91-10.94,104.99-75.89,107.42-165.82,1.69-53.2-15.73-104.99-46.65-138.48-.14-.2-.34-.34-.54-.47Zm-101.01-26.13c28.52-9.98,65.03-2.53,95.13,29.64-18.16,46.65-42.47,88.99-72.51,126.12v.07s-.02.03-.04.04c-27.35-35.36-58.96-65.37-94.06-89.25,0-.02,0-.05.05-.05,15.46-28.69,38.55-53.68,71.43-66.57Zm-9.52,321.04c-65.02-30.32-87.37-107.01-86.83-163.26,1.35-26.6,8.03-57.37,21.73-85.12,35.18,24.04,66.83,54.3,94.06,90.1,15.4,52.98,20.34,106.31,17.42,162.05-15.87,3.44-31.46,2.09-46.38-3.78Zm53.27,2.16v-.74c1.63-23.27.2-68.54-1.08-71.1-.3-4.36-1.46-15.44-2.84-24.91-3.75-30.9-13.41-63.67-13.57-64.34,30.45-37.34,55.3-80.01,73.93-126.8.14.14.27.34.41.47,82.07,101.43,29.13,265-56.85,287.42Z"/>
          <path class="cls-3" d="m848.14,2253.82c-3.99-11.72-10.13-28.55-13.77-38.01-1.57-4.08-7.63-1.9-6.35,2.09q0,.07.07.14v.13c.81,2.16,6.18,16.59,7.29,19.61,0,0,.01.02.02.03,36.11,99.77,63.45,209.47,83.43,334.49.27,1.69,1.69,2.84,3.31,2.84h.54c1.82-.34,3.11-2.03,2.84-3.92-18.77-117.82-44.22-222.13-77.31-317.33,0-.07-.07-.07-.07-.07Z"/>
          <path class="cls-3" d="m878.66,2213.48c-12.69,5.13-18.91,19.31-14.11,32.14,7.64,20.7,36.13,22.14,45.44,2.16,9.84-21.06-11.35-42.51-31.33-34.3Zm25.18,31.53c-6.42,14.16-27.4,13.4-32.95-1.62-5.42-14.67,8.94-29.79,23.77-23.5,9.48,4.24,13.59,15.74,9.18,25.12Z"/>
          <path class="cls-3" d="m901.89,2313.47c-11.89,11.89-9.53,32.36,5.54,40.85,19.01,10.56,41.67-7.58,35.18-29.84-5.24-18.08-26.93-24.44-40.71-11.01Zm8.78,34.91c-8.52-4.79-11.43-14.78-8.44-23.02,5.99-16.96,29.02-16.1,33.89,1.08,4.87,16.61-12.02,29.58-25.45,21.94Z"/>
          <path class="cls-3" d="m937.87,2405.16c-21.68,5.64-25.94,35.22-7.43,47.19,19.01,12.24,42-5.72,37.13-27.61-2.96-14.15-16.11-22.94-29.71-19.58Zm-3.71,41.66c-15.64-10.43-8.43-35.58,9.52-35.58,8,0,15.44,5.8,17.28,14.92,3.56,16.82-13.52,29.14-26.8,20.66Z"/>
          <path class="cls-3" d="m936.25,2536.28c2.12,15.74,16.69,24.48,27.82,22.01,22.39-3.34,29.07-34.67,10.8-47.87-5.27-3.78-11.55-5.27-17.89-4.12-13.44,2.57-22.55,15.66-20.73,29.98Zm34.64-20.39c13.52,9.81,8.52,33.4-7.83,35.72-9.55,1.57-18.59-5.5-20.12-16.2-1.35-10.53,5.54-20.66,15.33-22.35,3.3-.94,8.21-.34,12.62,2.84Z"/>
          <path class="cls-3" d="m910.46,499.39c2.29,3.87.95,8.69-2.7,10.94-2.84,1.66-1.79,6.28,1.76,6.28,2.08,0,6.92-3.61,8.37-9.52.94-3.85.4-7.83-1.62-11.21-2.47-3.78-8.05-.33-5.81,3.51Z"/>
          <path class="cls-3" d="m1117.94,495.21c-.58,2.32-5.7,2.09-17.76,4.32-4.08.73-3.57,6.68.54,6.68h.61c5.74-1.01,11.21-1.96,12.76-2.16,13.32-1.51,14.92-14.7.95-20.19-.68-.67-17.4-5.29-35.04-23.16-1.35-1.28-3.51-1.28-4.79,0-1.35,1.28-1.35,3.44,0,4.79,10.67,10.8,23.29,19.18,36.26,24.17,2.35.78,7.07,3.13,6.48,5.54Z"/>
          <path class="cls-3" d="m1001.14,462.46c-.2,4.93,1.28,10.47,4.19,15.53.86,1.54,2.82,2.17,4.59,1.28,1.62-.95,2.16-2.97,1.28-4.59-6.18-11.05-3.6-23.1,6.35-17.49,3.24,1.82,6.35,5.06,8.57,9.05.88,1.62,2.97,2.16,4.59,1.28,1.62-.95,2.16-2.97,1.28-4.66-10.71-18.68-30.22-17.81-30.85-.41Z"/>
          <path class="cls-3" d="m1108.49,426.41c1.9,4.02,8.07,1.24,6.14-2.77-4.86-10.73-2.17-23.29,7.9-16.88,3.04,2.09,5.81,5.6,7.7,9.72,1.86,3.87,8.44,1.7,5.81-3.58-4.59-9.31-14.13-17.7-23.16-13.64-7.76,3.58-9.72,15.46-4.39,27.14Z"/>
          <path class="cls-3" d="m1101,362.4c2.93,3.25,7.94-1.16,5-4.59-12.62-13.7-48.72-.41-49.69,19.92-.07,1.82,1.42,3.38,3.24,3.44,2.1,0,3.45-1.52,3.51-3.24.59-14.27,29.6-24.76,37.94-15.53Z"/>
          <path class="cls-3" d="m1137.05,521.61c0,.68-.07,8.51-6.89,15.19-7.02,6.89-18.7,10.06-34.64,9.45-4.35-.3-4.86,6.43-.27,6.75,13.83,0,28.88-.78,39.77-11.48,9.05-8.91,8.78-19.65,8.78-20.12-.07-1.82-1.55-3.11-3.44-3.24-1.89.07-3.38,1.62-3.31,3.44Z"/>
          <path class="cls-3" d="m1589.48,2324.01l4.47,50.61c.4,4.49,7.12,3.87,6.73-.59l-4.47-50.61c-.39-4.47-7.12-3.84-6.73.59Z"/>
          <path class="cls-3" d="m1677.07,2350.41l-33.98,37.78c-1.96,2.18-.38,5.63,2.51,5.63s1.13-.23,36.48-38.89c1.25-1.39,1.13-3.52-.25-4.77-1.38-1.24-3.52-1.13-4.77.25Z"/>
          <path class="cls-3" d="m1663.37,2436.83c.03,1.85,1.54,3.32,3.38,3.32.68,0,51.54-.86,50.86-.9,4.29-.08,4.55-6.6-.12-6.75l-50.8.9c-1.87.03-3.35,1.57-3.32,3.44Z"/>
        </g>
      </g>
    </g>
    <path class="cls-2" d="m1112.44,460.88c-22.98,0-42.3-18.01-43.63-41.24h0c-.67-11.66,3.25-22.89,11.03-31.6,7.77-8.71,18.48-13.88,30.14-14.55,11.66-.61,22.91,3.25,31.66,11.02,8.75,7.78,13.94,18.48,14.61,30.14.66,11.66-3.28,22.89-11.09,31.61-7.81,8.71-18.53,13.88-30.2,14.55-.84.05-1.68.07-2.52.07Zm.09-82.73c-.76,0-1.52.02-2.28.07-10.4.59-19.95,5.2-26.89,12.97-6.93,7.77-10.42,17.79-9.83,28.19h0c.59,10.4,5.2,19.95,12.97,26.88s17.78,10.4,28.18,9.83c10.41-.59,19.98-5.2,26.95-12.98,6.97-7.78,10.48-17.79,9.89-28.19-.59-10.39-5.22-19.94-13.03-26.88-7.23-6.43-16.38-9.9-25.97-9.9Z"/>
  </g>
</svg>