<?xml version="1.0" encoding="UTF-8"?>
<svg xmlns="http://www.w3.org/2000/svg" xmlns:xlink="http://www.w3.org/1999/xlink" viewBox="0 0 350.24 405.82">
  <defs>
    <style>
      .cls-1 {
        fill: #ff5576;
      }

      .cls-1, .cls-2, .cls-3, .cls-4, .cls-5, .cls-6, .cls-7, .cls-8, .cls-9, .cls-10, .cls-11, .cls-12, .cls-13, .cls-14, .cls-15, .cls-16, .cls-17, .cls-18, .cls-19, .cls-20, .cls-21, .cls-22, .cls-23, .cls-24, .cls-25, .cls-26, .cls-27, .cls-28, .cls-29, .cls-30, .cls-31, .cls-32, .cls-33, .cls-34, .cls-35, .cls-36, .cls-37, .cls-38, .cls-39, .cls-40, .cls-41, .cls-42, .cls-43, .cls-44, .cls-45, .cls-46, .cls-47, .cls-48, .cls-49, .cls-50, .cls-51, .cls-52, .cls-53, .cls-54 {
        stroke-width: 0px;
      }

      .cls-2 {
        fill: #ffcd17;
      }

      .cls-3 {
        fill: #ffe7d2;
      }

      .cls-3, .cls-22, .cls-55 {
        mix-blend-mode: multiply;
      }

      .cls-4 {
        fill: #ff9810;
      }

      .cls-5 {
        fill: #aa5013;
      }

      .cls-6 {
        fill: #99381a;
      }

      .cls-7 {
        fill: #e2ac7a;
      }

      .cls-8 {
        fill: #ff5777;
      }

      .cls-9 {
        fill: #ff3956;
      }

      .cls-56 {
        isolation: isolate;
      }

      .cls-10 {
        fill: #e5e5e5;
      }

      .cls-11 {
        fill: #f2a464;
      }

      .cls-12 {
        fill: #84311a;
      }

      .cls-13 {
        fill: #bf5936;
      }

      .cls-14 {
        fill: none;
      }

      .cls-15 {
        fill: #8c5417;
      }

      .cls-16 {
        fill: #489e10;
      }

      .cls-17 {
        fill: #ddd;
      }

      .cls-18 {
        fill: #6b463e;
      }

      .cls-19 {
        fill: #a86f1d;
      }

      .cls-20 {
        fill: #9e5b18;
      }

      .cls-21 {
        fill: #7c4e2f;
      }

      .cls-22 {
        fill: #ddcdc0;
      }

      .cls-23, .cls-57 {
        fill: #fff;
      }

      .cls-24 {
        fill: #a0451d;
      }

      .cls-25 {
        fill: #b77e21;
      }

      .cls-26 {
        fill: #c9892d;
      }

      .cls-27 {
        fill: #f26200;
      }

      .cls-28 {
        fill: #6f43a8;
      }

      .cls-29 {
        fill: #847b74;
      }

      .cls-30 {
        fill: #bcbcbc;
      }

      .cls-58 {
        clip-path: url(#clippath);
      }

      .cls-31 {
        fill: #ff740d;
      }

      .cls-32 {
        fill: #ffc384;
      }

      .cls-33 {
        fill: #5fbf21;
      }

      .cls-34 {
        fill: #f9b678;
      }

      .cls-57 {
        font-family: CooperHewitt-Medium, 'CooperHewitt Medium';
        font-size: 23.9px;
        font-weight: 500;
      }

      .cls-35 {
        fill: #f4f4f4;
      }

      .cls-36 {
        fill: #eda569;
      }

      .cls-55 {
        opacity: .6;
      }

      .cls-37 {
        fill: #ffd81a;
      }

      .cls-38 {
        fill: #e8e8e8;
      }

      .cls-39 {
        fill: #7f4fb2;
      }

      .cls-40 {
        fill: #874a13;
      }

      .cls-41 {
        fill: #665c55;
      }

      .cls-42 {
        fill: #afafaf;
      }

      .cls-43 {
        fill: #843317;
      }

      .cls-44 {
        fill: #d3715b;
      }

      .cls-45 {
        fill: #ffbd17;
      }

      .cls-46 {
        fill: #ffae17;
      }

      .cls-47 {
        fill: #383838;
      }

      .cls-48 {
        fill: #9e631b;
      }

      .cls-49 {
        fill: #5e372e;
      }

      .cls-50 {
        fill: #45baa3;
      }

      .cls-51 {
        fill: #d8d8d8;
      }

      .cls-52 {
        fill: #def9f4;
      }

      .cls-53 {
        fill: #ba5815;
      }

      .cls-54 {
        fill: #b26b52;
      }
    </style>
    <clipPath id="clippath">
      <circle class="cls-14" cx="129.36" cy="81.18" r="52.76" transform="translate(28.46 195.82) rotate(-80.76)"/>
    </clipPath>
  </defs>
  <g class="cls-56">
    <g id="OBJECTS">
      <g>
        <polygon class="cls-22" points="0 361.76 113.33 326.53 307.49 357.93 321.34 396.39 301.82 399.22 235.77 397.01 190.15 405.82 0 361.76"/>
        <g>
          <path class="cls-50" d="m274.19,26.39c0,14.58-11.82,26.4-26.4,26.4s-26.4-11.82-26.4-26.4S233.22,0,247.8,0s26.4,11.82,26.4,26.39Z"/>
          <path class="cls-23" d="m243.41,21.59h-4.47v-.57c0-7,2.1-11.82,9.37-11.82,6.65,0,9.01,3.94,9.01,9.02,0,8.75-7.31,8.18-7.79,16.76h-3.02c-.44-8.62,6.3-11.03,6.3-16.5,0-3.15-1.05-5.3-4.51-5.3-3.81,0-4.9,3.06-4.9,8.4Zm7.13,22.27h-4.99v-4.99h4.99v4.99Z"/>
        </g>
        <g>
          <circle class="cls-23" cx="129.36" cy="81.18" r="60.56" transform="translate(32.98 199.65) rotate(-82.98)"/>
          <circle class="cls-52" cx="129.36" cy="81.18" r="52.76" transform="translate(28.46 195.82) rotate(-80.76)"/>
          <g class="cls-58">
            <g>
              <polygon class="cls-32" points="157.3 109.42 160.92 126.18 152.48 128.83 148.72 109.42 157.3 109.42"/>
              <path class="cls-28" d="m148.06,84.96s4.81,3.19,6.25,7.62c1.43,4.42,5.41,16.85,5.41,16.85,0,0-3.94,2.14-7.87,1.88-3.93-.27-3.78-26.34-3.78-26.34Z"/>
              <path class="cls-39" d="m125.45,79.66s-1.4.98-3.41,2.44c-3.1,2.25-7.67,5.62-10.81,8.25-5.18,4.33-7.02,36.19-8.09,39.59,21.72,9.25,51.75,1.34,51.75,1.34,0,0-2.86-41.42-4.67-44.46-1.81-3.04-12.56-5.72-12.56-5.72l-12.21-1.43Z"/>
              <path class="cls-28" d="m121.51,82.34s1.95,11.98,13.67,10.19c8.23-1.34,7.81-11.17,2.97-13.23-4.84-2.06-16.64,3.04-16.64,3.04Z"/>
              <path class="cls-39" d="m122.58,81.18s-11.62,3.49-14.75,5.36c-3.13,1.88-14.9,18.77-14.9,18.77l8.13,4.11,21.52-28.24Z"/>
              <g>
                <g>
                  <g>
                    <path class="cls-54" d="m147.52,43.22s3.98,2.86,1.47,17.21c-3.15-3.55-3.21-16.05-1.47-17.21Z"/>
                    <g>
                      <path class="cls-36" d="m124.26,67.14s1,10.56.31,15.17c2.36,10.95,12.25,8.57,14.53,5.22,1.95-2.95-.37-7.08-.35-7.32.14-1.77.2-2.78.2-2.78l-14.7-10.3Z"/>
                      <path class="cls-32" d="m146.37,43.81s2.76,3.63,2.94,10.67c.18,7.05,1.23,12.18.86,15.82-.37,3.65-2.96,5.06-4.52,7.24-1.56,2.19-9.28,1.3-13.03-.31-3.74-1.61-8.44-5.98-8.97-11.73-.54-5.75-3.71-18.56.71-20.35,4.42-1.79,22.01-1.35,22.01-1.35Z"/>
                      <g>
                        <path class="cls-13" d="m138.17,70.18s2.94,1.8,7.06,0c0,0-2.05,1.47-2.19,2.62-.14,1.15-.1,1.88-2.12,1.11s-2.91-3.46-2.75-3.73Z"/>
                        <path class="cls-23" d="m139.1,72.46c.44.6,1.05,1.17,1.81,1.46,1.87.71,1.98.13,2.1-.87-1.19-.74-2.54-1.07-3.9-.58Z"/>
                      </g>
                      <path class="cls-54" d="m127.04,48.45s19.48-.4,20.65-2.12c2.73-4.04-11.69-11.65-14.47-11.98-3.97-.47-15.78,1.27-12.99,10.89-6.27,2.42-7.34,19.62,4.46,28.21.11-3.43-.8-13.57-.5-13.3.63.57,1.13,4.2,1.13,4.2l2.02-.13s-1.95-3.88-.28-6.05c1.67-2.18,3.67-7.17-.02-9.71Z"/>
                      <path class="cls-24" d="m133.22,34.34c-3.98-.37-14.16-1.9-15.68,6.95-2.73,1.05-3.63,7.53-3.98,12.6,4.96,1.12,10.54.29,15.53-.69.18-1.76-.29-3.53-2.05-4.74,0,0,18.87,2.09,24.06-1.4,4.05-2.72-9.42-11.93-17.88-12.71Z"/>
                      <path class="cls-11" d="m143.03,65.85s3.2-1.88,3.95-1.58c.75.3,1,1.16.76,1.3-.24.14-4.71.28-4.71.28Z"/>
                      <path class="cls-24" d="m139.85,57.1s-2.6-1.38-6.26.38c1.21-1.27,3.94-2.5,5.54-2.09,1.6.41,2.04,1.47.71,1.7Z"/>
                      <path class="cls-24" d="m146.64,56.87s1.3-1.17,3.58-.25c-1.05-.79-2.68-1.44-3.64-1.07-.95.37-.86,1.24.06,1.32Z"/>
                    </g>
                  </g>
                  <path class="cls-32" d="m124.65,62.33s-.04-2.65-1.47-3.47c-1.43-.82-3.4,1.51-2.14,5.37,1.25,3.86,4.11,4.8,4.38,2.9.27-1.9-.76-4.8-.76-4.8Z"/>
                </g>
                <path class="cls-11" d="m134.92,61.48s1.02-1.98,2.77-1.98h.02c.95,0,1.83.48,2.59,1.4l-.41.34c-.66-.79-1.39-1.2-2.18-1.2,0,0-.01,0-.02,0-1.5,0-2.76,1.43-2.77,1.45Z"/>
                <path class="cls-11" d="m149,61.33c-.22-.39-.93-1.4-1.67-1.4h0c-.45,0-.89.39-1.3,1.16l-.47-.25c.51-.95,1.1-1.44,1.77-1.44h0c1.2,0,1.67,1.94,1.67,1.94Z"/>
              </g>
              <path class="cls-3" d="m135.25,72.27s0,0,0,0c-.11-.03-.22-.06-.33-.08,0,0-.02,0-.03,0-.1-.02-.2-.04-.3-.06-.02,0-.03,0-.05,0-.09-.02-.18-.03-.27-.04-.02,0-.04,0-.06,0-.08,0-.17-.01-.25-.02-.03,0-.05,0-.08,0-.08,0-.15,0-.22,0-.03,0-.06,0-.09,0-.07,0-.14.01-.21.02-.03,0-.05,0-.08,0-.09.02-.19.04-.28.06-.11.16-.22.31-.33.44-.03.04-.07.08-.1.11-.08.1-.17.18-.25.27-.03.03-.07.06-.1.09-.03.03-.06.05-.09.07.11-.75-.7-1.74-1.46-1.6-.1-.62-.66-1.16-1.73-1.13-.48-1.47-1.9-.99-1.9-.99,0,0,.14-1.27-.87-1.5-.67-.14-1.35-.06-2.01.15,0-.15.01-.29.06-.42.65-2.01,1.79-2.33,1.98-3,.18-.62-.76-4.18-3.6-5.48-.02-.01-.04-.02-.07-.03-.23-.1-.47-.19-.72-.26-3.04.47-3.94,4.23-4.15,5.89,1.45,3.23,3.74,6.3,7.04,8.7.15,3.12.2,6.67-.13,8.87.21.99.49,1.87.81,2.65,3.29-1.34,4.24-4.6,3.94-5.53-.05-.17-.11-.34-.16-.52,1.01.53,2.1,1.05,3.28,1.56.34.1.66.17.98.24.06.01.11.03.17.04.31.06.6.11.89.15.02,0,.04,0,.07,0,.6.07,1.15.09,1.65.05h0c1.09-.07,1.92-.38,2.57-.8.04-.56.08-1.03.11-1.43.42.04.83.08,1.24.1.64-.96.85-1.98.93-2.39.22-.78-3.02-3.38-5.8-4.17Zm-3.74,1.28s-.06.03-.09.04c-.05.02-.1.04-.15.06.29-.19.57-.36.81-.5-.19.16-.39.3-.58.4Z"/>
              <g>
                <g>
                  <path class="cls-41" d="m117.18,65.64c-.23,2.67,1.51,9.41,14.36,15.04,7.16,2.07,8.12-2.9,8.34-3.95.28-.99-5.11-4.99-7.8-4.21-1.38,2.11-3.18,1.83-3.88,1.43-.71-.4-5.26-3.89-4.63-5.85.63-1.97,1.73-2.28,1.92-2.94.19-.66-.9-4.73-4.25-5.66-3.19.5-3.95,4.79-4.06,6.14Z"/>
                  <g>
                    <path class="cls-29" d="m134.6,72.75c-.92-.31-1.82-.44-2.52-.23-.92,1.41-2.03,1.75-2.88,1.7,1.74.74,4.22.29,5.4-1.47Z"/>
                    <path class="cls-29" d="m134.08,80.89c-12.85-5.63-14.6-12.37-14.36-15.04.1-1.16.68-4.51,2.88-5.73-.41-.26-.85-.48-1.36-.62-3.19.5-3.95,4.79-4.06,6.14-.23,2.67,1.51,9.41,14.36,15.04,1.45.42,2.65.55,3.63.48-.35-.07-.71-.16-1.09-.27Z"/>
                  </g>
                </g>
                <path class="cls-32" d="m119.21,71.71s3.19-3.98,6.25-3.34c.98.23.85,1.47.85,1.47,0,0,1.37-.47,1.84.97,1.04-.03,1.58.5,1.68,1.11.74-.13,1.53.84,1.42,1.57-1.03.59-2.75,1.74-3.07,2.91-.32,1.17.04,2.28.36,3.26.31.98-.78,4.62-4.6,5.7-1.88.6-10.88,15.87-16.16,25.96-5.32,10.17-13.46,15.19-16.68,9.11-3.22-6.07,4.98-15.61,9.34-20.13,7.34-7.59,14.39-14.75,16-17.43,1.61-2.68-.1-8.01,2.23-12.05.31.5.57.88.57.88Z"/>
              </g>
            </g>
          </g>
        </g>
        <g>
          <path class="cls-23" d="m175.31,125.16c0,.86-.7,1.56-1.56,1.56s-1.56-.7-1.56-1.56.7-1.56,1.56-1.56,1.56.7,1.56,1.56Z"/>
          <path class="cls-23" d="m182,125.16c0,.86-.7,1.56-1.56,1.56s-1.56-.7-1.56-1.56.7-1.56,1.56-1.56,1.56.7,1.56,1.56Z"/>
          <path class="cls-23" d="m188.68,125.16c0,.86-.7,1.56-1.56,1.56s-1.56-.7-1.56-1.56.7-1.56,1.56-1.56,1.56.7,1.56,1.56Z"/>
          <path class="cls-23" d="m195.36,125.16c0,.86-.7,1.56-1.56,1.56s-1.56-.7-1.56-1.56.7-1.56,1.56-1.56,1.56.7,1.56,1.56Z"/>
          <path class="cls-23" d="m202.05,125.16c0,.86-.7,1.56-1.56,1.56s-1.56-.7-1.56-1.56.7-1.56,1.56-1.56,1.56.7,1.56,1.56Z"/>
          <path class="cls-23" d="m208.73,125.16c0,.86-.7,1.56-1.56,1.56s-1.56-.7-1.56-1.56.7-1.56,1.56-1.56,1.56.7,1.56,1.56Z"/>
          <path class="cls-23" d="m215.41,125.16c0,.86-.7,1.56-1.56,1.56s-1.56-.7-1.56-1.56.7-1.56,1.56-1.56,1.56.7,1.56,1.56Z"/>
          <path class="cls-23" d="m222.1,125.16c0,.86-.7,1.56-1.56,1.56s-1.56-.7-1.56-1.56.7-1.56,1.56-1.56,1.56.7,1.56,1.56Z"/>
          <path class="cls-23" d="m228.78,125.16c0,.86-.7,1.56-1.56,1.56s-1.56-.7-1.56-1.56.7-1.56,1.56-1.56,1.56.7,1.56,1.56Z"/>
        </g>
        <g>
          <path class="cls-23" d="m295.69,104.35c0,.86-.7,1.56-1.56,1.56s-1.56-.7-1.56-1.56.7-1.56,1.56-1.56,1.56.7,1.56,1.56Z"/>
          <path class="cls-23" d="m302.37,104.35c0,.86-.7,1.56-1.56,1.56s-1.56-.7-1.56-1.56.7-1.56,1.56-1.56,1.56.7,1.56,1.56Z"/>
          <path class="cls-23" d="m309.05,104.35c0,.86-.7,1.56-1.56,1.56s-1.56-.7-1.56-1.56.7-1.56,1.56-1.56,1.56.7,1.56,1.56Z"/>
          <path class="cls-23" d="m315.74,104.35c0,.86-.7,1.56-1.56,1.56s-1.56-.7-1.56-1.56.7-1.56,1.56-1.56,1.56.7,1.56,1.56Z"/>
          <path class="cls-23" d="m322.42,104.35c0,.86-.7,1.56-1.56,1.56s-1.56-.7-1.56-1.56.7-1.56,1.56-1.56,1.56.7,1.56,1.56Z"/>
          <path class="cls-23" d="m329.1,104.35c0,.86-.7,1.56-1.56,1.56s-1.56-.7-1.56-1.56.7-1.56,1.56-1.56,1.56.7,1.56,1.56Z"/>
          <path class="cls-23" d="m335.78,104.35c0,.86-.7,1.56-1.56,1.56s-1.56-.7-1.56-1.56.7-1.56,1.56-1.56,1.56.7,1.56,1.56Z"/>
          <path class="cls-23" d="m342.47,104.35c0,.86-.7,1.56-1.56,1.56s-1.56-.7-1.56-1.56.7-1.56,1.56-1.56,1.56.7,1.56,1.56Z"/>
          <path class="cls-23" d="m349.15,104.35c0,.86-.7,1.56-1.56,1.56s-1.56-.7-1.56-1.56.7-1.56,1.56-1.56,1.56.7,1.56,1.56Z"/>
        </g>
        <g>
          <path class="cls-50" d="m211.39,81.18c0,14.27-11.57,25.83-25.83,25.83s-25.83-11.56-25.83-25.83,11.56-25.83,25.83-25.83,25.83,11.56,25.83,25.83Z"/>
          <text class="cls-57" transform="translate(169.83 88.93)"><tspan x="0" y="0">Hi..</tspan></text>
        </g>
        <g>
          <path class="cls-50" d="m295.79,94.42l4-15.63c-3.73-4.75-5.71-10.46-5.71-16.51,0-14.77,12.01-26.78,26.78-26.78s26.78,12.01,26.78,26.78-12.01,26.78-26.78,26.78c-4.56,0-9.07-1.17-13.04-3.39l-12.03,8.76Zm25.07-58.05c-14.29,0-25.91,11.63-25.91,25.91,0,5.93,1.95,11.51,5.65,16.14l.13.17-3.51,13.72,10.54-7.67.24.14c3.91,2.24,8.35,3.42,12.86,3.42,14.29,0,25.91-11.62,25.91-25.91s-11.62-25.91-25.91-25.91Z"/>
          <g>
            <path class="cls-50" d="m320.72,61.63c0,7.47-4.77,11.64-10.44,11.64-6.07,0-10.11-4.77-10.11-11.48s4.3-11.75,10.51-11.75,10.04,5.07,10.04,11.58Zm-17.45.07c0,5.11,2.6,9.21,7.17,9.21s7.21-4.3,7.21-9.21c0-4.6-2.24-9.28-7.17-9.28-4.67,0-7.21,4.2-7.21,9.28Z"/>
            <path class="cls-50" d="m324.45,50.42h2.94v10.84h.1c.6-.87,1.2-1.67,1.77-2.4l6.87-8.44h3.57l-8.11,9.54,8.78,12.95h-3.44l-7.41-11.04-2.14,2.47v8.58h-2.94v-22.49Z"/>
          </g>
        </g>
        <g>
          <g>
            <g>
              <g>
                <polygon class="cls-20" points="91.33 366.42 77.96 363.18 77.96 351.16 91.33 351.16 91.33 366.42"/>
                <polygon class="cls-40" points="91.33 366.42 100.31 363.18 100.31 351.16 91.33 351.16 91.33 366.42"/>
              </g>
              <g>
                <polygon class="cls-20" points="235.77 397.01 222.41 393.78 222.41 381.75 235.77 381.75 235.77 397.01"/>
                <polygon class="cls-40" points="235.77 397.01 244.76 393.78 244.76 381.75 235.77 381.75 235.77 397.01"/>
              </g>
              <g>
                <polygon class="cls-20" points="306.82 369.39 293.46 366.16 293.46 354.13 306.82 354.13 306.82 369.39"/>
                <polygon class="cls-40" points="306.82 369.39 315.81 366.16 315.81 354.13 306.82 354.13 306.82 369.39"/>
              </g>
              <g>
                <path class="cls-4" d="m284.96,111.65s39.21,4.93,57.33,10.74c18.12,5.81.3,38.99-4.45,53.88-4.75,14.9-13.7,54.37-12.52,84.4.48,12.07-45.25,14.55-49.11,9.21-3.86-5.35-9.66-148.73,8.76-158.23Z"/>
                <path class="cls-31" d="m275.12,111.65s39.21,4.93,57.33,10.74c18.12,5.81.3,38.99-4.46,53.88-4.75,14.9-14.26,58.17-14.26,70.25s-34.75,12.07-38.61,6.73c-3.86-5.35-18.42-132.1,0-141.6Z"/>
                <path class="cls-27" d="m317,149.88c-4.46-8.02-16.93-5.35-23.17-12.48-5.9-7.37-1.43-15.36.8-22.94-10.96-1.74-19.51-2.81-19.51-2.81-18.42,9.5-3.86,136.25,0,141.6,2.21,3.06,14.57,4.37,24.71,2.66,3.12-26.88,7.66-53.31,17.17-79.29,3.56-8.91,3.56-18.71,0-26.73Z"/>
                <g>
                  <g>
                    <g>
                      <polygon class="cls-25" points="235.88 387.57 76.85 353.84 76.85 242.55 235.88 267.06 235.88 387.57"/>
                      <polygon class="cls-19" points="235.88 267.06 76.85 242.55 76.85 287.43 235.88 278.08 235.88 267.06"/>
                      <polygon class="cls-26" points="235.88 387.57 315.81 357.8 315.81 246.52 235.88 267.06 235.88 387.57"/>
                    </g>
                    <g>
                      <polygon class="cls-48" points="68.8 244.9 243.45 271.14 320.86 251.34 320.86 237.08 151.51 231.55 68.8 230.64 68.8 244.9"/>
                      <polygon class="cls-15" points="68.8 244.9 243.45 271.14 243.45 253.02 151.51 231.55 68.8 230.64 68.8 244.9"/>
                      <polygon class="cls-25" points="68.8 230.64 243.45 256.88 320.86 237.08 151.51 217.29 68.8 230.64"/>
                    </g>
                  </g>
                  <g>
                    <g class="cls-55">
                      <polygon class="cls-25" points="76.63 326.53 76.63 329.25 236.12 357.93 236.6 355.3 76.63 326.53"/>
                    </g>
                    <g class="cls-55">
                      <polygon class="cls-25" points="76.63 292.35 76.63 295.06 236.12 323.74 236.6 321.11 76.63 292.35"/>
                    </g>
                    <g class="cls-55">
                      <polygon class="cls-25" points="76.63 258.7 76.63 261.41 236.12 290.1 236.6 287.46 76.63 258.7"/>
                    </g>
                  </g>
                  <g>
                    <g class="cls-55">
                      <polygon class="cls-25" points="315.81 333.33 236.6 355.3 236.9 357.93 315.81 336.05 315.81 333.33"/>
                    </g>
                    <g class="cls-55">
                      <polygon class="cls-25" points="315.81 299.15 236.6 321.11 236.9 323.74 315.81 301.86 315.81 299.15"/>
                    </g>
                    <g class="cls-55">
                      <polygon class="cls-25" points="315.81 265.5 236.6 287.46 236.9 290.1 315.81 268.21 315.81 265.5"/>
                    </g>
                  </g>
                </g>
                <g>
                  <path class="cls-2" d="m256.66,140.88s-20.48,6.92-22.14,8.76c-1.66,1.84-1.84,26.2-1.84,35.61s-2.79,41.2-2.79,41.2l59.84,7s1.6-17.42,5.48-38.27c3.87-20.85,6.87-39.64-1.46-49.41-2.46-2.88-16.05-4.89-16.05-4.89h-21.04Z"/>
                  <path class="cls-45" d="m256.66,140.88s-20.48,6.92-22.14,8.76c-1.66,1.84-1.84,26.2-1.84,35.61s-2.79,41.2-2.79,41.2l53.85,6.04s.43-15.5,4.31-36.35c3.87-20.85,8.29-47.6,5.71-50.37-2.58-2.77-16.05-4.89-16.05-4.89h-21.04Z"/>
                  <path class="cls-9" d="m259.3,163.36c-2-5.27-4.27-.07-4.27-.07,0,0-13.89,25.92-15.35,64.35l15.16,1.72c1.05-11.76,4.65-53.36,4.46-66Z"/>
                  <polygon class="cls-1" points="257.52 154.93 263.48 159.79 259.3 164.95 254.56 164.08 253.16 157.73 257.52 154.93"/>
                  <g>
                    <g>
                      <polygon class="cls-30" points="234.9 231.07 194.62 234.88 195.29 238.33 234.9 234.02 234.9 231.07"/>
                      <polygon class="cls-38" points="189.13 224.55 234.9 231.07 193 236.73 189.13 224.55"/>
                    </g>
                    <polygon class="cls-42" points="195.29 238.33 116.99 229.16 116.99 227.44 195.22 236.15 195.29 238.33"/>
                  </g>
                  <path class="cls-32" d="m225.36,173.81s-8.86,18.94-10.46,20.3c-1.6,1.35-16.61,11.93-27.68,14.52-9.23,4.18-3.81,9.84-3.81,9.84,0,0,22.63-2.34,36.1-14.27,9.66-9.23,13.04-23.68,13.04-23.68l-7.2-6.7Z"/>
                  <path class="cls-46" d="m232.65,187.16s-3.38,22.66-38.11,31.98c-8.49,2.28-3.61-7.98-6.33-10.27,1.52-2.27,14.39-5.84,23.57-17.83,12.42-16.23,11.36-31.2,22.74-41.39-1.75,4.46-1.87,37.52-1.87,37.52Z"/>
                  <path class="cls-32" d="m279.36,185.5s-19.8,20.66-24.48,23.99-34.01,13.59-37.89,15.44c-3.87,1.84-8.12,5.9-19.19,7.56-5.54-9.59-6.46-14.02-6.46-14.02,0,0,6.09-3.14,7.93-4.8,1.84-1.66,13.47,1.48,13.47,1.48,0,0,27.31-8.67,34.87-14.39,7.57-5.72,21.59-23.06,21.59-23.06l10.15,7.81Z"/>
                  <g>
                    <path class="cls-43" d="m229.78,80.15s-5.58,5.92,3.05,28.55c4.03-6.78.16-27.2-3.05-28.55Z"/>
                    <g>
                      <path class="cls-34" d="m275.28,111.82s1.71,17.54,4.29,24.85c-.38,18.61-18.18,20.72-23.32,17.77-2.51-11.29-.38-16.33-.49-16.72-.79-2.85-1.21-4.47-1.21-4.47l20.72-21.44Z"/>
                      <path class="cls-32" d="m231.85,80.75s-3.36,6.79-1.43,18.34c1.93,11.56,1.84,20.25,3.6,26.08,1.75,5.83,6.43,7.32,9.67,10.39,3.23,3.07,15.55-.82,21.15-4.62,5.6-3.8,11.87-12.43,10.93-21.97-.94-9.54.19-31.46-7.59-32.98-7.78-1.52-36.33,4.75-36.33,4.75Z"/>
                      <path class="cls-7" d="m269.33,108.02c-1.78,6.38-4.33,15.75-16.31,10.48-8.56-3.76-16.41-1.24-20.2.5.3,2.32.67,4.38,1.2,6.17,1.75,5.83,4.35,8.47,7.96,11.1,5.43,3.96,17.27-1.52,22.87-5.33,5.6-3.8,11.87-12.43,10.93-21.97-.05-.51-.09-1.07-.13-1.65-1.37-.22-3.51-.25-6.32.7Z"/>
                      <path class="cls-24" d="m264.85,82.2s-20.21,10.95-29.34,6.24c3.11.09,5.42-1.63,5.42-1.63,0,0-18.05-.23-19.96-19.43,2.43,4.66,9.46,4.99,14.41,3.51-5.63-.36-7.21-3.49-8.19-4.61,4.74,1.66,15.07-.29,19.25-2.18-3.12.3-6.62-.58-7.64-2.07,3.64.32,5.17,1.14,11.5-.89,6.33-2.03,26.95-7.13,25.44,9.44,10.99,1.96,22.51,30.6.45,52.07-1.26-5.56-3.1-23.91-3.51-23.37-.42.54,0,8.32,0,8.32l-3.34.43s1.96-6.95-1.45-9.97c-3.41-3.02-8.26-10.53-3.03-15.85Z"/>
                      <g>
                        <path class="cls-47" d="m275.74,70.58s9.21-1.24,7.34,26.88c-3.1.49-5.05-.85-5.05-.85,0,0,1.66-20.15-2.29-26.03Z"/>
                        <g>
                          <path class="cls-22" d="m275.6,113.63c-.02.11-2.04,10.9-21.26,16.47-.44-.53-1.1-.87-1.84-.87-1.33,0-2.41,1.08-2.41,2.41s1.08,2.41,2.41,2.41,2.41-1.08,2.41-2.41c0-.06-.01-.11-.02-.17.14-.04.29-.08.44-.12,19.64-5.9,21.65-17,21.72-17.49l-1.46-.24Z"/>
                          <path class="cls-47" d="m256.23,128.69c-.6.18-1.21.35-1.85.53l-.38-1.43c20.39-5.46,22.48-16.71,22.5-16.82l1.46.24c-.08.48-2.08,11.59-21.72,17.49Z"/>
                          <path class="cls-9" d="m255.81,128.98c0,1.33-1.08,2.41-2.41,2.41s-2.41-1.08-2.41-2.41,1.08-2.41,2.41-2.41,2.41,1.08,2.41,2.41Z"/>
                          <path class="cls-8" d="m286.43,102.28c.68,4.75-2.32,9.54-6.69,10.68-4.37,1.14-8.47-1.79-9.15-6.54-.68-4.76,2.32-9.54,6.69-10.68,4.37-1.14,8.47,1.79,9.15,6.54Z"/>
                          <path class="cls-9" d="m288.14,102.79c.68,4.76-2.32,9.54-6.69,10.68-4.37,1.14-8.47-1.79-9.15-6.54-.68-4.76,2.32-9.54,6.69-10.68,4.37-1.14,8.47,1.79,9.15,6.54Z"/>
                        </g>
                      </g>
                      <path class="cls-11" d="m244.26,115.65s-5.82-2.06-6.95-1.33c-1.13.73-1.26,2.21-.83,2.37.43.16,7.78-1.04,7.78-1.04Z"/>
                      <path class="cls-24" d="m246.68,100.36s3.8-3.08,10.33-1.35c-2.37-1.69-7.21-2.83-9.7-1.65-2.49,1.17-2.87,3.04-.63,3.01Z"/>
                      <path class="cls-24" d="m235.53,102.14s-2.49-1.5-5.92.72c1.47-1.62,3.91-3.2,5.59-2.9,1.67.3,1.79,1.75.33,2.18Z"/>
                      <path class="cls-18" d="m236.38,106.09c.34,1.13-.11,2.26-.99,2.52-.89.27-1.88-.43-2.22-1.56-.34-1.13.11-2.26.99-2.52.89-.27,1.88.43,2.22,1.56Z"/>
                      <path class="cls-18" d="m251.17,104.48c.34,1.13-.11,2.26-.99,2.52-.89.27-1.88-.43-2.22-1.56-.34-1.13.11-2.26,1-2.52s1.88.43,2.22,1.56Z"/>
                      <path class="cls-49" d="m238.33,123.24s6.1.33,16.45-.57c-2.57,6.42-8.16,9.96-16.45.57Z"/>
                      <path class="cls-44" d="m243.22,127.55c4.69,2.87,8.18,1.09,10.39-2.52-3.51-.66-7.54.32-10.39,2.52Z"/>
                      <path class="cls-23" d="m254.45,123.44c.12-.25.23-.51.33-.77-6.25.54-10.93.64-13.68.63.6.5,1.46.94,2.5,1.01,3.28.44,7.55.25,10.85-.87Z"/>
                      <path class="cls-23" d="m235.45,107.66c.06.21-.02.43-.18.48-.16.05-.35-.08-.41-.3-.06-.21.02-.43.18-.48.16-.05.35.08.41.3Z"/>
                      <path class="cls-23" d="m250.25,106.18c.06.21-.02.43-.18.48-.17.05-.35-.08-.41-.3-.06-.21.02-.43.18-.48.17-.05.35.08.41.3Z"/>
                    </g>
                  </g>
                  <path class="cls-37" d="m215.71,212.81s28.96-7.72,39.97-19.62c6.91-7.47,22.22-31.47,23.8-35.49,3.44-8.73,8.36-14.93,13.47-12.57,5.11,2.36,8.37,11.89,5.04,24.07-1.09,4-5.83,21.17-27.2,35.89-20.2,13.92-51.04,22.36-51.04,22.36,0,0,1.11-10.34-4.05-14.64Z"/>
                  <path class="cls-45" d="m215.71,212.81l-2.96,2.33s3.35,5.71,3.27,10.28c1.55,1.68,3.74,2.02,3.74,2.02,0,0,2.18-10.23-4.05-14.64Z"/>
                  <g>
                    <polygon class="cls-23" points="107.39 174.8 186.1 176.03 197.85 236.08 195.29 236.55 119.2 225.97 105.18 176.27 107.39 174.8"/>
                    <polygon class="cls-35" points="105.18 176.27 183.89 177.5 195.29 236.55 116.99 227.44 105.18 176.27"/>
                  </g>
                  <path class="cls-37" d="m278.36,132.23l6.11,9.98-15.66,22.74-11.29-10.02s18.36-11.63,20.83-22.7Z"/>
                  <polygon class="cls-37" points="255.72 137.74 248.6 160.65 257.52 154.93 255.72 137.74"/>
                </g>
              </g>
            </g>
            <g>
              <path class="cls-17" d="m270.73,241.59c0,3.2-9.14,5.79-20.42,5.79s-20.42-2.59-20.42-5.79,9.14-5.79,20.42-5.79,20.42,2.59,20.42,5.79Z"/>
              <path class="cls-35" d="m270.73,240.74c0,3.2-9.14,5.79-20.42,5.79s-20.42-2.59-20.42-5.79,9.14-5.79,20.42-5.79,20.42,2.59,20.42,5.79Z"/>
              <path class="cls-51" d="m260.21,240.74c0,1.94-5.55,3.52-12.41,3.52s-12.41-1.58-12.41-3.52,5.56-3.52,12.41-3.52,12.41,1.58,12.41,3.52Z"/>
              <path class="cls-35" d="m266.91,223.94c0,2.6-2.79,17.32-16.6,17.32s-16.61-14.72-16.61-17.32,7.43-4.71,16.61-4.71,16.6,2.11,16.6,4.71Z"/>
              <path class="cls-38" d="m242.21,223.94c0-2.3,3.93-4.21,11.18-4.62-1-.05-2.03-.08-3.09-.08-9.17,0-16.61,2.11-16.61,4.71s3.17,17.32,16.61,17.32c1.11,0,2.13-.1,3.1-.28-10.56-2.01-11.2-14.65-11.2-17.04Z"/>
              <path class="cls-10" d="m266.91,223.94c0,2.6-7.43,4.71-16.6,4.71s-16.61-2.11-16.61-4.71,7.43-4.71,16.61-4.71,16.6,2.11,16.6,4.71Z"/>
              <path class="cls-21" d="m235.39,226c2.7,1.57,8.35,2.65,14.92,2.65s12.22-1.08,14.92-2.65c-2.22-1.73-8.05-2.96-14.92-2.96s-12.69,1.24-14.92,2.96Z"/>
            </g>
          </g>
          <path class="cls-22" d="m327.33,339.42c.28-.58.43-1.18.43-1.79,0-3.04-3.62-5.78-9.41-7.72,2.42-8.85,8.31-19.46,2.38-24.34-3.72-3.07-9.24-2.86-13.71,1.02,1.06-8.17,2.01-15.43,2.5-19.11,1.52-11.47,12.19-27.5,3.88-34.35s-23.98-.39-25.65,22.52c-.11,1.45-.17,2.99-.21,4.6-4.39-7.35-11.74-8.74-16.26-5.01-6.41,5.29,1.82,17.66,3,26.51.63,4.77,2.26,17.31,3.63,27.87-6.3,1.95-10.29,4.81-10.29,8,0,.38.06.75.17,1.11l8.34,34.1,47.52-18.26,3.68-15.17Zm-38.08-11.99c.27-2.42.54-4.95.78-7.52.29,2.57.58,5.04.87,7.37-.56.05-1.11.1-1.66.15Z"/>
          <g>
            <g>
              <path class="cls-53" d="m275.76,336.34l13.89,56.81c0,3.35,7.69,6.07,17.17,6.07s17.17-2.71,17.17-6.07l14.03-57.83-62.26,1.02Z"/>
              <path class="cls-5" d="m275.76,336.34l13.89,56.81c0,2.16,3.2,4.05,8,5.12l-3.4-62.24-18.49.3Z"/>
              <path class="cls-6" d="m338.02,335.32c0,6.09-13.96,11.02-31.2,11.02s-31.2-4.93-31.2-11.02,13.97-11.02,31.2-11.02,31.2,4.94,31.2,11.02Z"/>
              <path class="cls-12" d="m306.82,346.34c11.23,0,21.07-2.1,26.56-5.24-4.38-3.65-14.62-6.22-26.56-6.22s-22.18,2.56-26.56,6.22c5.5,3.14,15.33,5.24,26.56,5.24Z"/>
            </g>
            <g>
              <path class="cls-16" d="m302.33,343.11s-7.55-48.31-5.82-72.09c1.74-23.78,18-30.48,26.62-23.37,8.62,7.11-2.45,23.74-4.03,35.64-1.58,11.9-7.78,59.82-7.78,59.82h-8.98Z"/>
              <path class="cls-33" d="m307.46,342.67s-2.89-83.19,13.61-94.06c-4.07-5.85-16.98-.9-18.77,30.85-1.79,31.75,1.84,59.56,5.16,63.21Z"/>
            </g>
            <g>
              <path class="cls-16" d="m295.33,345.63s5.97-38.64,4.63-57c-1.34-18.35-13.89-23.52-20.54-18.04-6.65,5.49,1.89,18.32,3.11,27.51,1.22,9.18,6.01,46.17,6.01,46.17l6.8,1.35Z"/>
              <path class="cls-33" d="m291.51,343.94s2.23-64.21-10.5-72.6c3.14-4.52,13.11-.7,14.49,23.81,1.38,24.5-1.42,45.97-3.99,48.79Z"/>
            </g>
            <g>
              <path class="cls-16" d="m325.74,344.11c.72-5.55,1.35-10.3,1.69-12.92,1.29-9.73,10.34-23.32,3.29-29.13-7.05-5.81-20.34-.33-21.76,19.1-.46,6.29-.23,16.78.43,25.14,0,0,6.53-.38,8.69-.7,3.58-.53,7.66-1.49,7.66-1.49Z"/>
              <path class="cls-33" d="m318.42,345.55c1.12-17.96,3.94-38.31,10.62-42.71-3.33-4.78-13.88-.74-15.34,25.21-.31,5.56.8,12.8.85,17.89l3.87-.4Z"/>
            </g>
          </g>
        </g>
        <g>
          <path class="cls-23" d="m290.64,131.39c0,.86-.7,1.56-1.56,1.56s-1.56-.7-1.56-1.56.7-1.56,1.56-1.56,1.56.7,1.56,1.56Z"/>
          <path class="cls-23" d="m297.32,131.39c0,.86-.7,1.56-1.56,1.56s-1.56-.7-1.56-1.56.7-1.56,1.56-1.56,1.56.7,1.56,1.56Z"/>
          <path class="cls-23" d="m304,131.39c0,.86-.7,1.56-1.56,1.56s-1.56-.7-1.56-1.56.7-1.56,1.56-1.56,1.56.7,1.56,1.56Z"/>
          <path class="cls-23" d="m310.69,131.39c0,.86-.7,1.56-1.56,1.56s-1.56-.7-1.56-1.56.7-1.56,1.56-1.56,1.56.7,1.56,1.56Z"/>
          <path class="cls-23" d="m317.37,131.39c0,.86-.7,1.56-1.56,1.56s-1.56-.7-1.56-1.56.7-1.56,1.56-1.56,1.56.7,1.56,1.56Z"/>
          <path class="cls-23" d="m324.05,131.39c0,.86-.7,1.56-1.56,1.56s-1.56-.7-1.56-1.56.7-1.56,1.56-1.56,1.56.7,1.56,1.56Z"/>
          <path class="cls-23" d="m330.74,131.39c0,.86-.7,1.56-1.56,1.56s-1.56-.7-1.56-1.56.7-1.56,1.56-1.56,1.56.7,1.56,1.56Z"/>
          <path class="cls-23" d="m337.42,131.39c0,.86-.7,1.56-1.56,1.56s-1.56-.7-1.56-1.56.7-1.56,1.56-1.56,1.56.7,1.56,1.56Z"/>
          <path class="cls-23" d="m344.1,131.39c0,.86-.7,1.56-1.56,1.56s-1.56-.7-1.56-1.56.7-1.56,1.56-1.56,1.56.7,1.56,1.56Z"/>
        </g>
      </g>
    </g>
  </g>
</svg>