<?xml version="1.0" encoding="UTF-8"?>
<svg id="_ëîé_1" data-name="‘ëîé_1" xmlns="http://www.w3.org/2000/svg" viewBox="0 0 2271.15 1481.17">
  <defs>
    <style>
      .cls-1, .cls-2, .cls-3, .cls-4, .cls-5, .cls-6, .cls-7, .cls-8, .cls-9, .cls-10, .cls-11, .cls-12, .cls-13, .cls-14, .cls-15 {
        stroke-width: 0px;
      }

      .cls-1, .cls-4, .cls-9 {
        fill: #9e002d;
      }

      .cls-2 {
        fill: #ffb8a3;
      }

      .cls-4 {
        opacity: .05;
      }

      .cls-16, .cls-15 {
        opacity: .2;
      }

      .cls-5 {
        fill: #b2cce8;
      }

      .cls-6 {
        fill: #b2c9e0;
      }

      .cls-17 {
        opacity: .4;
      }

      .cls-7 {
        fill: #ffc934;
      }

      .cls-8 {
        fill: #fff;
      }

      .cls-9, .cls-11 {
        opacity: .1;
      }

      .cls-10 {
        fill: #f33;
      }

      .cls-11, .cls-13 {
        fill: #0196ff;
      }

      .cls-12 {
        fill: #39ba7d;
      }

      .cls-14 {
        fill: #bfd6ed;
      }

      .cls-15 {
        fill: #2d3b8f;
      }
    </style>
  </defs>
  <g>
    <path class="cls-11" d="m1129.18,1479.44c-717.21,0-803.6-208.59-963.95-506.24C-43.83,585.13-137.6,93.68,399.3,8.57c0,0,355.73-72.42,660.46,203.79,304.74,276.21,701.37-120.35,701.37-120.35,0,0,201.89-200.52,395.11,0,97.98,101.68,177.17,551.31,45.91,881.6-147.05,370.02-96.95,507.56-972.61,507.56l-100.36-1.73Z"/>
    <g>
      <g>
        <path class="cls-5" d="m449.71,1363.98l-22.6,20.04c-.7-17.46-1.64-34.9-2.83-52.33l19.76-26.62-20.21,20.04c-.48-6.74-1.01-13.47-1.57-20.2l.03-.03-.04-.04c-1.4-16.96-3.03-33.9-4.9-50.82.11,15.54.42,31.09.92,46.62l-24.19-25.5,24.47,33.44c.52,14.27,1.21,28.54,2.06,42.8l-26.69-18.57,27.1,25.1c1.84,28.99,4.34,57.93,7.52,86.8-.13-18-.54-35.99-1.19-53.97l22.35-26.74Z"/>
        <path class="cls-5" d="m377.63,1336.22l-5.74,24.78c-8.48-15.27-17.11-30.46-25.9-45.56l.84-29.74-4.16,24.04c-3.41-5.83-6.85-11.64-10.31-17.44v-.04s-.04-.02-.04-.02c-8.72-14.61-17.57-29.14-26.58-43.57,7.21,13.76,14.55,27.45,22.02,41.08l-27.71-15.14,31.54,22.1c6.9,12.5,13.9,24.95,21.02,37.34l-26.18-8.22,29.44,13.88c14.53,25.15,29.47,50.06,44.84,74.69-8.35-15.93-16.88-31.77-25.57-47.52l2.5-30.65Z"/>
        <path class="cls-5" d="m330.12,1347.62l3.98,25.16c-13.59-10.98-27.29-21.82-41.1-32.52l-10.39-27.91,5.16,23.84c-5.35-4.12-10.72-8.21-16.1-12.29l-.02-.05h-.06c-13.56-10.28-27.21-20.43-40.97-30.42,11.85,10.05,23.79,19.99,35.83,29.82l-31.37-3.64,37.56,8.66c11.08,8.99,22.23,17.91,33.46,26.71l-27.35,2.21,32.53,1.82c22.89,17.86,46.08,35.35,69.55,52.41-13.71-11.62-27.57-23.09-41.53-34.43l-9.19-29.37Z"/>
        <path class="cls-5" d="m287.26,1380.61l13.04,21.84c-16.7-5.13-33.45-10.09-50.25-14.88l-20.01-22.02,13.67,20.21c-6.5-1.84-13.01-3.64-19.52-5.42l-.03-.03h-.05c-16.41-4.48-32.87-8.81-49.36-12.97,14.73,4.92,29.52,9.7,44.35,14.35l-30.47,8.29,38.05-5.93c13.64,4.23,27.32,8.34,41.03,12.34l-24.56,12.22,30.84-10.4c27.9,8.06,55.94,15.65,84.09,22.75-17.06-5.69-34.19-11.19-51.37-16.53l-19.44-23.82Z"/>
        <path class="cls-5" d="m262.89,1426.72l16.89,19.02c-17.36-1.92-34.75-3.66-52.15-5.23l-23.77-17.89,17.2,17.3c-6.73-.59-13.46-1.14-20.19-1.68l-.03-.03-.04.02c-16.96-1.35-33.94-2.53-50.92-3.53,15.39,2.08,30.81,4.01,46.25,5.81l-28.38,13.84,36.27-12.94c14.19,1.6,28.39,3.09,42.61,4.46l-21.85,16.6,28.36-15.98c28.92,2.7,57.88,4.92,86.86,6.64-17.82-2.4-35.68-4.61-53.56-6.64l-23.55-19.77Z"/>
        <path class="cls-5" d="m482.49,1366.29l-23.48,4.54c6.57-12.17,12.96-24.44,19.18-36.79l24.2-10.17-21.85,5.5c2.39-4.78,4.75-9.58,7.08-14.39h.03s0-.05,0-.05c5.88-12.12,11.61-24.32,17.15-36.59-6.19,10.63-12.25,21.34-18.17,32.13l-6.19-27.13,3.18,32.65c-5.4,9.93-10.69,19.93-15.86,29.98l-10.69-23.42,8.34,28.02c-10.44,20.49-20.41,41.21-29.88,62.16,7.17-12.31,14.15-24.73,20.96-37.25l26.01-9.2Z"/>
        <path class="cls-5" d="m729.91,1470.66c.68-.14,1.37-.27,2.04-.41,7.95-1.71,15.93-3.62,23.76-5.71l1.34-.37c7.71-2.12,15.68-4.32,23.74-7.39,2.42-.83,4.25-2.93,4.79-5.52.55-2.62-.28-5.22-2.21-6.96-3.09-2.88-6.49-5.62-11.03-8.88-.01,0-.03-.02-.04-.03-8.62-6.01-18.32-11.25-29.64-16.03-.02,0-.05-.02-.07-.03-22.09-8.76-43.76-13.94-64.73-15.5,5.05-1.2,10.1-2.44,15.06-3.66,17.24-4.23,35.07-8.61,52.57-11.36,3.13-.5,8.3-1.17,12.11-1.65l1.14-.12c1.87-.2,3.79-.4,5.83-.71,2.49-.34,4.61-1.94,5.67-4.31,1.07-2.38.85-5.05-.59-7.16-10.18-14.72-25.49-25.98-45.5-33.49-20.95-7.86-41.79-9.59-55.6-9.66-12.8-.35-25.03,1.51-36.86,4.67,22-12.39,42.16-24.68,59.98-36.57.9-.61,1.8-1.22,2.69-1.82,4.37-2.95,8.51-5.74,12.91-9.22,1.6-1.22,2.66-3.06,2.91-5.06.25-2.04-.32-4.04-1.6-5.62-.62-.77-1.41-1.42-2.3-1.9-4.18-2.24-8.44-4.1-12.65-5.54-6.12-2.2-12.42-3.86-19.25-5.09-35.49-6.32-75.79.51-105.21,17.83-10.08,6.01-19.46,13.16-28.51,20.41,4.19-4.6,8.23-9.36,11.75-14.38,3.54-4.9,6.86-10.37,10.48-17.25,8.68-16.77,16.13-35.1,21.51-52.97,1.55-4.93,3.26-11.16,4.59-16.67.84-3.28,1.89-7.68,2.62-12.66.39-2.46-.38-4.93-2.12-6.77-1.75-1.86-4.18-2.78-6.64-2.53-10.01.93-19.56,3.4-30.98,8.01-.01,0-.03.01-.04.02-15.79,6.61-30.76,16.17-44.49,28.42-6.2,5.51-11.56,10.96-15.92,16.19-7.05,8.45-13.07,18.21-17.88,29.01,0,0,0,0,0,0,.39-3.86.54-7.74.33-11.64-1.25-22.52-12.34-44.39-21.42-58.77-.01-.02-.02-.03-.03-.05-10.2-15.58-21.5-27.92-34.56-37.72l-.04-.03c-4.54-3.33-10.8-2.9-14.91.95-4.22,3.95-7.47,7.75-9.83,10.63-5.31,6.44-10.02,13.24-14.4,20.82-13.62,23.76-20.9,50.4-19.47,71.31.14,1.81.36,3.6.63,5.39-.18-.41-.37-.82-.55-1.23-4.79-10.65-10.75-20.29-17.71-28.64-4.36-5.24-9.72-10.69-15.91-16.19-13.74-12.25-28.71-21.82-44.5-28.43-.01,0-.03-.01-.04-.02-11.42-4.61-20.97-7.08-30.95-8.01-2.49-.25-4.92.67-6.67,2.52-1.74,1.85-2.51,4.32-2.12,6.77.73,4.98,1.78,9.38,2.62,12.66,1.33,5.52,3.04,11.75,4.58,16.64,5.4,17.91,12.84,36.25,21.54,53.04,3.61,6.85,6.94,12.32,10.47,17.22,3.52,5.03,7.56,9.78,11.75,14.38-9.05-7.25-18.44-14.41-28.53-20.42-29.4-17.31-69.71-24.14-105.2-17.82-6.83,1.23-13.13,2.89-19.25,5.09-4.21,1.44-8.46,3.31-12.66,5.55-.87.47-1.66,1.13-2.27,1.88-1.29,1.59-1.86,3.59-1.61,5.63.25,2,1.31,3.84,2.91,5.06,4.41,3.49,8.54,6.27,12.91,9.22.89.6,1.78,1.2,2.71,1.83,17.79,11.87,37.95,24.16,59.95,36.55-11.83-3.16-24.06-5.03-36.86-4.67-13.81.07-34.65,1.8-55.6,9.66-20.01,7.51-35.32,18.77-45.51,33.5-1.43,2.09-1.65,4.76-.58,7.15,1.06,2.36,3.18,3.97,5.67,4.31,2.03.31,3.96.52,5.83.71l1.14.12c3.81.48,8.99,1.15,12.12,1.65,17.49,2.74,35.32,7.12,52.56,11.35,4.96,1.22,10.01,2.46,15.06,3.66-20.97,1.56-42.64,6.74-64.73,15.5-.02,0-.05.02-.07.03-11.32,4.77-21.02,10.02-29.64,16.03-.01,0-.03.02-.04.03-4.53,3.26-7.93,5.99-11.03,8.88-1.93,1.74-2.76,4.34-2.21,6.96.54,2.58,2.37,4.69,4.79,5.52,8.05,3.06,16.03,5.26,23.74,7.39l1.37.38c7.79,2.07,15.77,3.99,23.74,5.7.67.14,1.36.27,2.03.41h-50.27c-2.85,0-5.4,2.13-5.55,4.97-.16,3.03,2.25,5.54,5.25,5.54h2156.56c2.9,0,5.26-2.35,5.26-5.26h0c0-2.9-2.35-5.26-5.26-5.26H729.91Zm-45.92,0H148.97c-2.12-.22-4.3-.47-6.55-.75-13.53-1.7-26.96-3.96-39.9-6.69-7.84-1.68-15.71-3.57-23.36-5.61l-1.34-.37c-7.92-2.18-15.4-4.24-23.16-7.2-.05-.02-.1-.03-.16-.05-.07-.06-.12-.28-.1-.34.02-.02.05-.04.07-.06,2.86-2.67,6.04-5.23,10.32-8.3,8.19-5.71,17.43-10.7,28.26-15.27,31.31-12.41,61.66-17.4,90.2-14.84,11.42,1.17,22.98,3.46,34.16,5.67,6.54,1.29,13.3,2.63,20,3.74.02,0,.03,0,.05,0,20.04,3.05,40.58,6.81,61.04,11.15,1.89.41,3.77-.77,4.23-2.65.47-1.88-.63-3.79-2.5-4.33-18.2-5.23-36.3-9.97-53.77-14.09-13.36-3.22-27.12-4.56-40.43-5.86-12.3-1.2-25.03-2.45-37.16-5.18-8.97-1.98-18.19-4.25-27.11-6.44-17.39-4.27-35.37-8.68-53.15-11.47-3.23-.51-8.52-1.2-12.39-1.68-.02,0-.04,0-.06,0l-1.19-.13c-1.79-.19-3.64-.38-5.52-.67-.03,0-.04,0-.07,0-.07-.04-.15-.21-.14-.29,9.33-13.47,23.49-23.84,42.09-30.82,19.98-7.49,39.93-9.14,53.15-9.2.03,0,.06,0,.09,0,29.31-.84,56.13,11,82.07,22.45,4.56,2.01,9.28,4.1,13.96,6.08,28.5,11.99,57.68,27.11,86.73,44.93,5.57,3.43,11.12,6.93,16.5,10.4,1.64,1.06,3.82.61,4.92-1,1.1-1.61.71-3.8-.87-4.94-15.29-10.99-31.05-21.48-46.87-31.2l-3.85-2.33c-17.11-10.34-34.81-21.03-53.91-28.56-5.25-2.08-10.63-3.98-15.83-5.82-7.81-2.77-15.89-5.63-23.46-9.05-5.83-2.63-11.77-5.63-18.14-9.17-22.23-12.49-42.59-24.88-60.47-36.82-.91-.62-1.81-1.23-2.71-1.83-4.27-2.88-8.3-5.6-12.5-8.92-.03-.02-.05-.04-.08-.06-.09-.07-.12-.16-.13-.22-.01-.12.04-.19.06-.22.02-.02.06-.06.09-.08,3.85-2.06,7.75-3.77,11.6-5.09.02,0,.03-.01.05-.02,5.75-2.06,11.67-3.63,18.11-4.79,33.87-6.03,72.3.46,100.27,16.93,12.45,7.42,24,16.82,35.18,25.91,4.22,3.44,8.59,6.99,12.94,10.38,4.42,3.47,8.85,7.11,13.56,11.13,1.4,1.2,3.48,1.14,4.81-.13,1.33-1.27,1.49-3.35.36-4.8-5.06-6.53-9.72-12.1-14.25-17.04-2.25-2.44-4.62-4.92-6.9-7.31-6.82-7.15-13.88-14.54-19.39-22.41-.01-.01-.02-.03-.03-.04-3.34-4.62-6.5-9.83-9.94-16.36-8.48-16.38-15.75-34.29-21.04-51.82-1.48-4.72-3.19-10.93-4.46-16.23,0-.02,0-.03-.01-.05-.8-3.12-1.8-7.3-2.48-11.98,0-.02,0-.04,0-.05-.06-.34.16-.62.26-.72.1-.1.35-.34.74-.3,9.27.86,18.2,3.18,28.93,7.51,15.04,6.3,29.33,15.43,42.47,27.16,5.93,5.27,11.04,10.46,15.17,15.42,6.55,7.85,12.16,16.93,16.68,26.99,2.73,6.04,5.34,12.48,7.86,18.71,2.89,7.12,5.87,14.48,9.09,21.41,2.29,4.95,4.58,10.09,6.83,15.26.74,1.71,2.66,2.56,4.42,1.98,1.77-.58,2.79-2.42,2.37-4.23l-.36-1.54c-.19-.8-.38-1.6-.56-2.4-1.74-8.3-4.65-16.44-7.46-24.3-3.95-11.07-7.69-21.52-8.56-32.52-1.33-19.51,5.6-44.64,18.53-67.2,4.18-7.21,8.66-13.7,13.73-19.84,2.23-2.71,5.29-6.3,9.22-9.97,1.57-1.47,3.98-1.63,5.72-.37,12.36,9.28,23.09,21.01,32.82,35.87,8.63,13.67,19.14,34.34,20.31,55.3.57,10.48-1.85,21.31-4.19,31.78-.48,2.14-.97,4.35-1.44,6.53-.37,1.73-.73,3.56-1.12,5.78-.32,1.8.75,3.56,2.5,4.08,1.75.53,3.62-.35,4.34-2.03,1.92-4.48,3.8-9.11,5.61-13.59,2.53-6.23,5.14-12.67,7.87-18.72,4.52-10.06,10.13-19.14,16.68-26.99,4.13-4.96,9.24-10.15,15.18-15.43,13.14-11.72,27.43-20.85,42.47-27.15,10.73-4.33,19.65-6.65,28.96-7.51.35-.04.61.2.71.3.1.1.31.37.26.72,0,.02,0,.04,0,.05-.69,4.67-1.69,8.86-2.48,11.98,0,.02,0,.03-.01.05-1.27,5.29-2.98,11.51-4.47,16.27-5.27,17.5-12.54,35.4-21.01,51.76-3.45,6.55-6.62,11.76-9.95,16.39-.01.01-.02.03-.03.04-5.51,7.88-12.57,15.26-19.39,22.41-2.29,2.39-4.65,4.87-6.91,7.32-4.52,4.93-9.18,10.51-14.25,17.03-1.13,1.46-.97,3.53.36,4.8,1.33,1.27,3.41,1.33,4.81.13,4.71-4.02,9.15-7.66,13.55-11.12,4.36-3.4,8.73-6.95,12.95-10.38,11.18-9.09,22.74-18.49,35.17-25.9,27.99-16.48,66.42-22.97,100.28-16.94,6.44,1.16,12.37,2.72,18.11,4.79.02,0,.03.01.05.02,3.85,1.32,7.75,3.03,11.59,5.08.05.02.09.06.12.1.02.02.07.09.05.21,0,.06-.04.15-.12.22-.03.02-.05.04-.08.06-4.21,3.33-8.24,6.05-12.5,8.92-.89.6-1.8,1.21-2.68,1.81-17.91,11.95-38.27,24.34-60.49,36.82-6.38,3.55-12.32,6.55-18.16,9.18-7.56,3.42-15.64,6.28-23.45,9.05-5.2,1.84-10.58,3.75-15.83,5.82-19.11,7.54-36.8,18.23-53.91,28.56l-.5.3-20.12-6.15c11.5-7.68,22.89-15.52,34.18-23.52l26.14,2.35-21.88-5.37c4.35-3.11,8.68-6.24,13-9.4h.04s.01-.03.01-.03c10.88-7.95,21.64-16.05,32.3-24.29-10.45,6.49-20.82,13.12-31.11,19.87l7.24-26.87-12.48,30.34c-9.42,6.25-18.78,12.6-28.05,19.06l1.52-25.7-5.76,28.66c-18.82,13.21-37.33,26.85-55.52,40.93,12.1-7.52,24.09-15.22,35.96-23.09l23.98,3.56-2.8,1.69c-15.79,9.71-31.55,20.2-46.84,31.19-1.58,1.14-1.97,3.33-.87,4.94,1.1,1.61,3.28,2.05,4.92,1,5.38-3.47,10.93-6.97,16.49-10.4,25.8-15.83,51.7-29.51,77.14-40.78l-14.5,25.3c-22.03,6.57-43.92,13.65-65.62,21.24,13.86-3.3,27.67-6.81,41.42-10.52l24.61,12.49-19.48-13.87c13.34-3.64,26.63-7.47,39.86-11.49l24.05,10.51-19.06-12.03c5.11-1.57,10.21-3.17,15.31-4.8l.03.02.02-.03c12.83-4.1,25.61-8.37,38.33-12.82-11.97,2.85-23.9,5.85-35.8,9l15.37-23.2-21.44,24.83c-10.92,2.94-21.8,6.01-32.65,9.2l9.56-23.84c3.2-1.42,6.41-2.81,9.59-4.16,4.66-1.98,9.38-4.07,13.94-6.08,25.94-11.45,52.76-23.28,82.07-22.45.03,0,.06,0,.09,0,13.22.06,33.17,1.71,53.15,9.2,18.6,6.97,32.76,17.34,42.09,30.82,0,.09-.07.25-.11.29-.03,0-.06,0-.1.01-1.87.29-3.72.48-5.52.67l-1.18.13s-.04,0-.06,0c-3.87.48-9.15,1.17-12.38,1.68-17.79,2.79-35.77,7.21-53.16,11.47-8.92,2.19-18.14,4.46-27.12,6.44-12.12,2.73-24.84,3.97-37.15,5.18-13.31,1.3-27.07,2.65-40.42,5.86-17.49,4.13-35.59,8.87-53.79,14.09-1.86.53-2.96,2.45-2.5,4.33.47,1.88,2.34,3.05,4.23,2.65,11.27-2.39,22.55-4.59,33.77-6.6l-19.46,20.39c-22.97,1.11-45.91,2.74-68.8,4.92,14.25.11,28.49,0,42.74-.3l20.9,18.01-15.59-18.13c13.83-.34,27.65-.88,41.46-1.61l20.84,15.96-15.62-16.24c5.34-.3,10.68-.64,16.01-1l.03.02.03-.03c13.44-.91,26.87-1.99,40.28-3.27-12.3-.1-24.61-.04-36.91.17l20.48-18.84-26.76,18.97c-11.3.24-22.6.61-33.9,1.12l14.5-20.18c9.08-1.63,18.13-3.15,27.06-4.52.01,0,.03,0,.05,0,6.69-1.11,13.46-2.44,20-3.74,11.18-2.21,22.74-4.49,34.16-5.67,28.55-2.56,58.89,2.43,90.2,14.84,10.83,4.57,20.08,9.56,28.27,15.27,4.27,3.07,7.46,5.63,10.32,8.3.02.02.03.02.05.04.04.08-.02.3-.08.35-.06.02-.11.04-.17.06-7.75,2.96-15.23,5.02-23.15,7.2l-1.31.36c-7.68,2.04-15.55,3.93-23.38,5.61-12.95,2.74-26.38,4.99-39.91,6.69-2.25.28-4.43.53-6.55.75Z"/>
      </g>
      <g>
        <g>
          <path class="cls-5" d="m808.58,450.1c-.44,0-.88-.05-1.31-.15l-175.76-42.71h-267.15c-49.07,0-89.17-39.92-89.39-88.98l-.85-190.09c-.11-23.99,9.17-46.56,26.13-63.54,16.9-16.93,39.37-26.25,63.28-26.25h444.03c49.07,0,89.17,39.92,89.39,88.98l.84,190.09c.11,23.99-9.17,46.56-26.13,63.54-15.45,15.48-35.58,24.61-57.2,26.05l.16,37c0,1.8-.85,3.56-2.3,4.73-1.09.88-2.43,1.35-3.76,1.35ZM362.78,49.7c-20.73,0-40.17,8.04-54.74,22.64-14.63,14.66-22.64,34.19-22.54,55.01l.85,190.09c.19,43.26,35.54,78.46,78.8,78.46h267.82c.44,0,.88.05,1.31.15l168.99,41.07-.16-35.15c0-1.57.64-3.11,1.79-4.27,1.15-1.15,2.7-1.81,4.27-1.81,20.73,0,40.17-8.04,54.75-22.64,14.63-14.66,22.63-34.19,22.54-55.01h0l-.84-190.09c-.19-43.26-35.54-78.46-78.8-78.46h-444.03Z"/>
          <path class="cls-5" d="m890.38,904.43c-1.18,0-2.33-.37-3.26-1.08-1.29-.98-2.03-2.51-2.04-4.18l-.17-37.76c-46.64-2.74-83.91-41.53-84.12-88.83l-.84-190.09c-.11-23.99,9.17-46.56,26.13-63.54,16.9-16.93,39.37-26.25,63.28-26.25h444.03c49.07,0,89.17,39.92,89.39,88.98l.84,190.09c.11,23.99-9.17,46.56-26.13,63.54-16.9,16.93-39.37,26.25-63.28,26.25h-267.13l-175.33,42.7c-.46.11-.92.17-1.37.17Zm-1.78-400.39c-20.73,0-40.17,8.04-54.75,22.64-14.63,14.66-22.64,34.19-22.54,55.01l.84,190.09c.19,43.26,35.54,78.46,78.8,78.46,2.97,0,5.28,2.3,5.3,5.26l.16,36.15,169.37-41.25c.45-.11.91-.17,1.37-.17h267.82c20.73,0,40.17-8.04,54.74-22.64,14.63-14.66,22.64-34.19,22.54-55.01l-.84-190.09c-.19-43.26-35.54-78.46-78.8-78.46h-444.03Z"/>
          <path class="cls-5" d="m624.69,1032.94c-.44,0-.88-.05-1.31-.16l-175.76-42.71H180.47c-49.07,0-89.17-39.92-89.39-88.98l-.84-190.09c-.11-23.99,9.17-46.56,26.13-63.54,16.9-16.93,39.37-26.25,63.28-26.25h444.03c49.07,0,89.17,39.92,89.39,88.98l.84,190.09c.11,23.99-9.17,46.56-26.13,63.54-15.45,15.48-35.58,24.6-57.2,26.05l.17,36.99c0,1.8-.85,3.56-2.3,4.73-1.09.88-2.43,1.35-3.76,1.35Zm-445.81-400.39c-20.73,0-40.17,8.04-54.74,22.64-14.63,14.66-22.64,34.19-22.54,55.01l.84,190.09c.19,43.26,35.54,78.46,78.8,78.46h267.82c.44,0,.88.05,1.31.15l168.99,41.06-.16-35.15c0-1.57.64-3.11,1.79-4.27,1.15-1.15,2.7-1.81,4.27-1.81,20.73,0,40.17-8.04,54.74-22.64,14.63-14.66,22.64-34.19,22.54-55.01l-.84-190.09c-.19-43.26-35.54-78.46-78.8-78.46H178.89Z"/>
        </g>
        <g>
          <path class="cls-13" d="m399.31,369.18h444.03c46.24,0,83.55-37.48,83.35-83.72l-.84-190.09c-.21-46.24-37.86-83.72-84.09-83.72h-444.03c-46.24,0-83.55,37.48-83.35,83.72l.84,190.09c.21,46.24,37.85,83.72,84.09,83.72Z"/>
          <polygon class="cls-13" points="843.34 369.18 843.53 412.05 667.13 369.18 843.34 369.18"/>
        </g>
        <g>
          <path class="cls-7" d="m1369.16,823.52h-444.03c-46.24,0-83.89-37.48-84.09-83.72l-.84-190.09c-.21-46.24,37.11-83.72,83.35-83.72h444.03c46.24,0,83.89,37.48,84.09,83.72l.84,190.09c.21,46.24-37.11,83.72-83.35,83.72Z"/>
          <polygon class="cls-7" points="925.13 823.52 925.32 866.38 1101.34 823.52 925.13 823.52"/>
        </g>
        <g>
          <path class="cls-12" d="m215.42,952.03h444.03c46.24,0,83.55-37.48,83.35-83.72l-.84-190.09c-.21-46.24-37.85-83.72-84.09-83.72H213.83c-46.24,0-83.55,37.48-83.35,83.72l.84,190.09c.21,46.24,37.85,83.72,84.09,83.72Z"/>
          <polygon class="cls-12" points="659.45 952.03 659.64 994.9 483.24 952.03 659.45 952.03"/>
        </g>
        <g>
          <path class="cls-8" d="m693.46,195.06v-11.06c0-8.76-7.1-15.86-15.86-15.86h-96.16v-75.67h105.44c8.76,0,15.86-7.1,15.86-15.86v-11.06c0-8.76-7.1-15.86-15.86-15.86h-132.71c-8.76,0-15.86,7.1-15.86,15.86v249.73c0,8.76,7.1,15.86,15.86,15.86h11.42c8.76,0,15.86-7.1,15.86-15.86v-104.37h96.16c8.76,0,15.86-7.1,15.86-15.86Z"/>
          <path class="cls-8" d="m454.35,644.87c-2.47-5.66-8.05-9.32-14.23-9.32h-9.78c-6.23,0-11.85,3.72-14.28,9.46l-103.69,244.39c-2.03,4.79-1.53,10.29,1.35,14.63,2.87,4.34,7.73,6.95,12.94,6.95h12.22c6.23,0,11.86-3.73,14.29-9.46l26.02-61.41h114.3l26.67,61.53c2.46,5.67,8.05,9.35,14.24,9.35h12.22c5.23,0,10.11-2.64,12.98-7.01,2.87-4.38,3.34-9.9,1.25-14.7l-106.48-244.39Zm-57.44,153.38l38.83-91.19,39.7,91.19h-78.53Z"/>
          <path class="cls-8" d="m1270.68,762.28l-36.54-40.24c9.86-9.5,17.98-20.7,24.21-33.42,8.5-17.34,12.8-36.77,12.8-57.75,0-17.92-3.11-34.78-9.26-50.1-6.17-15.38-14.99-28.95-26.23-40.32-11.23-11.36-24.77-20.37-40.24-26.78-15.45-6.39-32.49-9.64-50.64-9.64s-35.17,3.25-50.53,9.65c-15.35,6.41-28.83,15.42-40.05,26.76-11.22,11.35-20.09,24.96-26.36,40.43-6.25,15.44-9.43,32.25-9.43,49.99s3.18,34.22,9.46,49.56c6.29,15.38,15.19,28.88,26.43,40.13,11.23,11.23,24.7,20.16,40.05,26.55,15.37,6.4,32.39,9.65,50.58,9.65,13.03,0,25.44-1.58,36.88-4.7,7.68-2.09,15.05-4.87,22.01-8.28l33.83,37.16c2.63,2.89,6.35,4.53,10.26,4.53h12.48c5.49,0,10.46-3.24,12.68-8.25,2.22-5.02,1.28-10.87-2.41-14.94Zm-143.54-115.01c-2.22,5.01-1.29,10.86,2.39,14.93l47.02,52.02c-1.98.69-4,1.31-6.06,1.87-7.92,2.16-16.56,3.26-25.68,3.26-13.05,0-25.09-2.27-35.79-6.74-10.69-4.47-20.02-10.69-27.72-18.51-7.7-7.81-13.77-17.16-18.04-27.78-4.3-10.68-6.47-22.56-6.47-35.3s2.19-24.68,6.5-35.48c4.29-10.74,10.38-20.19,18.11-28.12,7.7-7.89,17.02-14.15,27.71-18.61,10.73-4.48,22.79-6.75,35.85-6.75s25.12,2.27,35.85,6.75c10.72,4.47,20.06,10.7,27.77,18.5,7.72,7.82,13.86,17.24,18.25,27.99,4.39,10.78,6.62,22.79,6.62,35.71,0,15.26-3.04,29.12-9.02,41.18-4.08,8.22-9.32,15.58-15.63,21.96l-45.88-50.59c-2.63-2.9-6.36-4.55-10.27-4.55h-12.81c-5.48,0-10.45,3.23-12.68,8.24Z"/>
        </g>
      </g>
      <g>
        <g>
          <g>
            <polygon class="cls-2" points="1835.04 802.83 1840.83 720.68 1896.94 731.39 1896.94 830.76 1835.04 802.83"/>
            <path class="cls-9" d="m1836.54,781.6s36.46,10.76,60.4-5.88l2.24-16.63-61.66,5.29-.98,17.22Z"/>
            <path class="cls-2" d="m1533.7,1020.63s-86.81,301.88-254.42,301.88c0,0-61.62-66.55-108.45-66.55s32.04,41.47,32.04,41.47l-65.91,20.85c-7.96,2.52-13.37,9.9-13.37,18.25v9.54l-4.75,2.79c-4.99,2.93-8.06,8.28-8.06,14.06v1.78c0,9,7.3,16.3,16.3,16.3h0l2.74,18.96c.69,4.78,4.79,8.34,9.63,8.34h0l1.09,6.96c1.54,9.8,9.14,17.55,18.91,19.23,26.01,4.48,78.84,8.87,128.95-15.55,70.04-34.13,344.55-14.27,380.67-388.11l-31.3-39.13-104.07,28.93Z"/>
            <path class="cls-4" d="m1656.6,1054.32c2.07-.35,4.1-.73,6.09-1.15l2.49-63.69-131.48,31.14-2.63,7.95c47.34,25.1,101.59,26.56,125.53,25.75Z"/>
            <path class="cls-2" d="m1749.94,817.66s71.76-47.6,218.09-5.14c0,0-68.92,96.7-128.59,96.7s-89.5-91.56-89.5-91.56Z"/>
            <path class="cls-13" d="m1649.76,1015.23s-30.58,356.97-19.47,454.33c0,0,1.63.39,4.68,1.11h376.85c7.49-109.02,21.59-339.11,14.79-438.26,0,0,105.81,15.4,196.56,15.4,0,0-40.66-248.44-274.02-248.44,0,0-19.36,74.67-99.31,74.67s-64.19-73.85-64.19-73.85c0,0-244.88-26.06-278.49,215.03,0,0,52.34,19.55,142.61,0Z"/>
            <g class="cls-17">
              <path class="cls-8" d="m1913.46,1127.32l-54.19-18.39v-81.85l105.66,3.88v80.82l-51.47,15.54Zm-50.23-21.23l50.3,17.07,47.43-14.32v-74.05l-97.73-3.59v74.89Z"/>
            </g>
            <g class="cls-17">
              <rect class="cls-8" x="1860.97" y="1007.68" width="3.97" height="7.94" transform="translate(803.28 2847.7) rotate(-88.51)"/>
              <path class="cls-8" d="m1937.34,1015.57l-17.62-.46.1-3.97,17.62.46-.1,3.97Zm-35.24-.92l-17.62-.46.1-3.97,17.62.46-.1,3.97Z"/>
              <rect class="cls-8" x="1957" y="1010.18" width="3.97" height="7.93" transform="translate(894.07 2946) rotate(-88.51)"/>
            </g>
            <path class="cls-15" d="m1649.76,1014.64l7.09-71.33-32.01,75.92.49-.07c8.21-1.12,16.36-2.63,24.42-4.53h0Z"/>
            <polygon class="cls-15" points="2026.61 1031.82 2020.57 946.49 2043.27 1034.06 2026.61 1031.82"/>
            <g class="cls-17">
              <path class="cls-8" d="m1842.44,893.82v-3.97c1.42,0,2.9-.03,4.38-.08,2.47-.08,4.94-.21,7.34-.4l.3,3.96c-2.46.19-4.99.32-7.51.41-1.52.05-3.04.08-4.51.08Zm-12.06-.51c-4.14-.38-8.17-.97-11.98-1.76l.81-3.88c3.66.76,7.54,1.33,11.53,1.69l-.36,3.95Zm36.04-1.3l-.58-3.92c3.9-.58,7.78-1.31,11.53-2.17l.88,3.87c-3.85.88-7.83,1.63-11.83,2.22Zm-59.72-3.73c-3.91-1.41-7.65-3.1-11.11-5.04l1.94-3.46c3.27,1.83,6.8,3.44,10.51,4.77l-1.34,3.73Zm83.17-1.65l-1.2-3.78c3.72-1.18,7.43-2.53,11.01-4.01l1.52,3.67c-3.68,1.53-7.49,2.92-11.33,4.13Zm22.26-9.24l-1.84-3.52c3.45-1.8,6.86-3.78,10.13-5.88l2.14,3.34c-3.37,2.16-6.88,4.2-10.44,6.06Zm-126.62-1.09c-3.12-2.6-6.02-5.53-8.62-8.7l3.07-2.52c2.44,2.98,5.16,5.73,8.09,8.17l-2.54,3.05Zm146.91-11.94l-2.43-3.14c3.06-2.38,6.07-4.93,8.94-7.59l2.69,2.91c-2.95,2.73-6.05,5.36-9.21,7.81Zm-162.41-6.86c-1.93-3.45-3.66-7.17-5.12-11.07l3.71-1.39c1.39,3.71,3.02,7.25,4.86,10.52l-3.46,1.94Zm180.12-9.51l-2.93-2.67c2.62-2.87,5.15-5.89,7.55-9l3.14,2.42c-2.46,3.19-5.07,6.3-7.76,9.25Zm-188.73-13.2c-.89-3.82-1.59-7.84-2.09-11.94l3.94-.47c.48,3.96,1.15,7.84,2.01,11.52l-3.86.9Zm203.48-5.89l-3.32-2.16c2.14-3.29,4.16-6.68,6.01-10.1l3.49,1.89c-1.9,3.51-3.98,7-6.18,10.38Zm-206.42-18.13c-.03-1.1-.04-2.16-.04-3.19,0-3,.1-5.99.3-8.9l3.96.27c-.19,2.82-.29,5.72-.29,8.63,0,1,.01,2.03.04,3.09l-3.97.09Zm217.9-3.13l-3.64-1.57c1.74-4.03,2.54-6.52,2.57-6.63l2.2-1.36-.61,3.92.31-1.96,1.89.61c-.09.28-.93,2.86-2.71,6.99Z"/>
            </g>
            <path class="cls-2" d="m2026.61,1031.82c-5.35,58.53-21.87,290.69-212.98,290.69,0,0-61.62-66.55-108.45-66.55s32.04,41.47,32.04,41.47l-65.91,20.85c-7.96,2.52-13.37,9.9-13.37,18.25v9.54l-4.75,2.79c-4.99,2.93-8.06,8.28-8.06,14.06v1.78c0,9,7.3,16.3,16.3,16.3l2.74,18.96c.69,4.79,4.79,8.34,9.63,8.34l1.09,6.96c1.54,9.8,9.14,17.55,18.91,19.23,26.01,4.48,78.84,8.87,128.95-15.55,69.02-33.63,336.57-14.84,378.93-371.98-62.96-1.51-145.17-11.3-175.07-15.13Z"/>
            <path class="cls-4" d="m2200.54,1059.31c.68-4.92,1.13-9.37,1.13-12.36,0,0-122.63-5.72-175.07-15.13l-3.75,36.98c17.72-.34,113.34-2.2,177.68-9.49Z"/>
            <g>
              <path class="cls-2" d="m1796.45,663.84c0,8.99-7.29,16.28-16.28,16.28s-12.68-7.29-12.68-16.28,3.69-16.28,12.68-16.28,16.28,7.29,16.28,16.28Z"/>
              <path class="cls-2" d="m1935.55,663.84c0,8.99,7.29,16.28,16.28,16.28s12.68-7.29,12.68-16.28-3.69-16.28-12.68-16.28-16.28,7.29-16.28,16.28Z"/>
              <path class="cls-2" d="m1782.38,601.97s-46.03,177.32,65.64,177.32,96.84-106.52,96.84-106.52l-7.42-89.67-153.88-28.16-1.18,47.04Z"/>
              <path class="cls-3" d="m1861.49,656.55c0,4.45-3.61,8.05-8.05,8.05s-8.05-3.61-8.05-8.05,3.61-8.05,8.05-8.05,8.05,3.61,8.05,8.05Z"/>
              <circle class="cls-3" cx="1803.97" cy="656.55" r="8.05" transform="translate(866.93 2332.06) rotate(-80.78)"/>
              <path class="cls-3" d="m1782.38,619.94s-8.98,42.59-8.98,60.93c0,0-2.52-21.28,0-35.76,0,0-10.69-.4-14.95,12.37,0,0-30.54-113.31,55.43-122.68,85.97-9.37,47.21,20.44,47.21,20.44,0,0,93.6-73.21,99.65,54.5,1.53,32.29-17.36,62.06-47.28,74.28l-19.69,8.04s28.11-110.83-41.64-91.48c0,0-59.85-14.34-69.75,19.36Z"/>
              <g class="cls-16">
                <path class="cls-1" d="m1826.6,664.7c-2.61,6.6-5.62,13.89-8.37,20.47,0,0-2.9,6.77-2.9,6.77-.93,2.15-1.74,3.92-1.47,6.15.38,3.94,3.03,7.47,6.93,8.7,2.24.71,4.67.4,7.02.69.23.01.28.36.07.44-2.11.88-4.18,1.85-6.51,1.97-6.74.56-12.93-6.08-11.87-12.82.2-2.36,1.55-4.79,2.59-6.68,0,0,3.45-6.51,3.45-6.51,3.4-6.28,7.16-13.2,10.66-19.38.13-.22.51-.07.41.19h0Z"/>
              </g>
              <path class="cls-3" d="m1816.73,737.4c5.49-.82,11.08-1.63,14.78-5.98,1.16-1.35,2.17-2.98,3.27-4.79,1.58,10.06-10,15.69-18.05,10.78h0Z"/>
              <path class="cls-8" d="m1802.65,653.2c0,.99-.8,1.79-1.79,1.79s-1.79-.8-1.79-1.79.8-1.79,1.79-1.79,1.79.8,1.79,1.79Z"/>
              <path class="cls-8" d="m1852.11,653.2c0,.99-.8,1.79-1.79,1.79s-1.79-.8-1.79-1.79.8-1.79,1.79-1.79,1.79.8,1.79,1.79Z"/>
            </g>
            <g class="cls-17">
              <path class="cls-8" d="m2214.84,1016.23l.27-3.96h.01s-.28,3.96-.28,3.96Zm-11.85-.55l-11.89-.55.18-3.96,11.89.55-.18,3.96Zm-23.78-1.1l-11.89-.55.18-3.96,11.89.55-.18,3.96Zm-23.78-1.1l-11.89-.55.18-3.96,11.89.55-.18,3.96Zm-23.78-1.1l-11.89-.55.18-3.96,11.89.55-.18,3.96Zm-23.78-1.1l-11.89-.55.18-3.96,11.89.55-.18,3.96Zm-23.78-1.1l-11.89-.55.18-3.96,11.89.55-.18,3.96Zm-23.78-1.1l-11.89-.55.18-3.96,11.89.55-.18,3.96Zm-23.78-1.1l-11.89-.55.18-3.96,11.89.55-.18,3.96Z"/>
            </g>
            <g class="cls-17">
              <path class="cls-8" d="m1582.73,997.23v-3.97c3.91-.01,7.9-.08,11.84-.2l.12,3.97c-3.97.12-8,.18-11.95.2Zm-11.95-.12c-3.97-.09-7.99-.24-11.95-.43l.2-3.96c3.92.2,7.91.34,11.84.43l-.09,3.97Zm35.85-.59l-.22-3.96c3.94-.22,7.92-.5,11.82-.83l.33,3.95c-3.94.33-7.95.61-11.93.84Zm-59.74-.6c-4.01-.31-8.02-.68-11.91-1.09l.42-3.95c3.86.41,7.83.77,11.8,1.08l-.31,3.95Zm83.57-1.4l-.44-3.94c3.92-.44,7.87-.94,11.75-1.48l.55,3.93c-3.92.55-7.91,1.06-11.86,1.5Zm-107.36-1.14c-7.54-1.06-11.71-1.91-11.88-1.94l.8-3.89s4.23.87,11.63,1.9l-.55,3.93Z"/>
            </g>
          </g>
          <g>
            <rect class="cls-6" x="1090.05" y="1451.51" width="656.95" height="19.16"/>
            <polygon class="cls-14" points="1374.82 1130.86 983.57 1130.86 1090.05 1451.51 1481.3 1451.51 1374.82 1130.86"/>
            <path class="cls-8" d="m1275.03,1291.19c7.78,23.43-4.98,42.42-28.51,42.42s-48.9-18.99-56.68-42.42c-7.78-23.43,4.98-42.42,28.51-42.42s48.9,18.99,56.68,42.42Z"/>
          </g>
        </g>
        <g>
          <path class="cls-5" d="m2202.12,898.59c-2.2,0-4.35-1.08-5.63-3.07-35.09-54.54-81.49-90.85-137.92-107.94-3.53-1.07-5.53-4.8-4.46-8.33,1.07-3.53,4.8-5.53,8.34-4.46,59.55,18.03,108.44,56.22,145.29,113.5,2,3.1,1.1,7.24-2,9.24-1.12.72-2.37,1.06-3.61,1.06Z"/>
          <path class="cls-5" d="m2246.38,997.55c-2.91,0-5.59-1.91-6.42-4.85-4.53-15.87-12.72-40.31-26.04-66.67-1.67-3.29-.34-7.32,2.95-8.98,3.29-1.66,7.31-.34,8.98,2.95,13.79,27.29,22.28,52.6,26.96,69.02,1.01,3.55-1.04,7.25-4.59,8.26-.61.18-1.23.26-1.84.26Z"/>
        </g>
      </g>
    </g>
  </g>
  <path class="cls-10" d="m1846.51,328.87c0-27.43,10.65-38.49,35.62-56.91,15.97-11.46,22.52-19.24,22.52-34.8,0-19.24-12.69-26.61-40.94-26.61-21.7,0-34.8,3.28-48.31,7.37v-49.54c18.43-7.37,40.94-11.87,71.65-11.87,52.82,0,90.49,19.65,90.49,71.24,0,36.44-12.69,50.36-38.9,70.01-24.98,16.79-32.76,21.7-32.76,38.08v26.61h-59.37v-33.57Zm-3.28,68.38h67.56v60.6h-67.56v-60.6Z"/>
  <path class="cls-10" d="m1691.94,423.84c-7.35-16.7-3.83-26.28,6.43-44.19,6.65-11.26,8.55-17.75,4.38-27.22-5.16-11.71-14.86-12.8-32.05-5.23-13.21,5.81-20.31,11.32-27.44,17.43l-13.27-30.16c9.24-9.42,21.74-18.2,40.44-26.43,32.15-14.15,60.35-12.28,74.17,19.12,9.76,22.18,5.77,34.06-4.92,53.04-10.71,16.91-14.12,21.99-9.74,31.96l7.13,16.2-36.14,15.91-9-20.44Zm16.33,42.5l41.12-18.1,16.24,36.89-41.12,18.1-16.24-36.89Z"/>
  <path class="cls-10" d="m2021.17,398.66c6.61-17.01,15.87-21.29,35.8-26.7,12.66-3.26,18.6-6.5,22.35-16.15,4.64-11.93-1.46-19.56-18.97-26.36-13.45-5.23-22.36-6.36-31.73-7.07l11.94-30.71c13.2-.13,28.24,2.51,47.28,9.91,32.74,12.73,51.36,33.99,38.92,65.97-8.78,22.59-20,28.16-40.98,34.03-19.53,4.39-25.53,5.56-29.48,15.71l-6.41,16.5-36.8-14.31,8.09-20.81Zm-18.51,41.6l41.88,16.28-14.6,37.56-41.88-16.28,14.6-37.56Z"/>
</svg>