<?xml version="1.0" encoding="UTF-8"?>
<svg id="OBJECTS" xmlns="http://www.w3.org/2000/svg" viewBox="0 0 400.17 397.67">
  <defs>
    <style>
      .cls-1 {
        letter-spacing: 0em;
      }

      .cls-2 {
        letter-spacing: -.08em;
      }

      .cls-3, .cls-4 {
        fill: #009edb;
      }

      .cls-3, .cls-5, .cls-6, .cls-7, .cls-8, .cls-9, .cls-10, .cls-11, .cls-12, .cls-13, .cls-14, .cls-15 {
        stroke-width: 0px;
      }

      .cls-16 {
        font-size: 23.1px;
      }

      .cls-16, .cls-4, .cls-17, .cls-18 {
        font-family: Metropolis-Bold, 'Metropolis Bold';
        font-weight: 700;
      }

      .cls-16, .cls-11, .cls-13 {
        fill: #fff;
      }

      .cls-4 {
        font-size: 51.67px;
      }

      .cls-19 {
        opacity: .5;
      }

      .cls-20 {
        stroke-width: 4px;
      }

      .cls-20, .cls-21 {
        stroke: #009edb;
      }

      .cls-20, .cls-21, .cls-22 {
        fill: none;
        stroke-miterlimit: 10;
      }

      .cls-23 {
        opacity: .6;
      }

      .cls-5 {
        fill: #003f5b;
      }

      .cls-24 {
        letter-spacing: -.01em;
      }

      .cls-6, .cls-9, .cls-25 {
        fill: #6ed1ff;
      }

      .cls-17 {
        font-size: 43px;
      }

      .cls-17, .cls-15 {
        fill: #00bfac;
      }

      .cls-7, .cls-18 {
        fill: #00567a;
      }

      .cls-8 {
        fill: #ffd046;
      }

      .cls-9 {
        opacity: .4;
      }

      .cls-10 {
        fill: #0075a3;
      }

      .cls-21 {
        stroke-width: 3.5px;
      }

      .cls-22 {
        stroke: #6ed1ff;
        stroke-width: 2.5px;
      }

      .cls-12 {
        fill: #ff6c7a;
      }

      .cls-13 {
        fill-rule: evenodd;
      }

      .cls-14 {
        fill: #f9c4ac;
      }

      .cls-18 {
        font-size: 59.4px;
      }

      .cls-25 {
        stroke: #fff;
        stroke-linecap: round;
        stroke-linejoin: round;
        stroke-width: 2px;
      }
    </style>
  </defs>
  <g>
    <g class="cls-23">
      <path class="cls-6" d="m87.04,319.21h220.55c12.9,0,12.9-20,0-20H87.04c-12.9,0-12.9,20,0,20h0Z"/>
    </g>
    <circle class="cls-9" cx="197.32" cy="174.46" r="107.58" transform="translate(-1.77 2.02) rotate(-.58)"/>
    <g>
      <g>
        <path class="cls-7" d="m171.19,122.57c-.82,21.75-21.99,40.5-22.8,60-.81,25.5,32.57,27,52.93,27,23.61,0,47.23-5.25,44.78-31.5-1.63-20.25-18.73-33-21.99-51.75v-1.5"/>
        <g>
          <path class="cls-12" d="m275.32,267.43c0,12.88-9.11,23.31-20.34,23.31h-115.32c-11.23,0-20.34-10.44-20.34-23.31h0c0-12.88,9.11-23.31,20.34-23.31h115.32c11.24,0,20.34,10.44,20.34,23.31h0Z"/>
          <path class="cls-12" d="m269.96,252.7c0,19.44-24.07,35.2-43.76,35.2h-57.76c-19.69,0-43.76-15.76-43.76-35.2l6.08-18.48c0-19.44,17.99-35.2,37.68-35.2h57.76c19.69,0,37.68,15.76,37.68,35.2l6.08,18.48Z"/>
        </g>
        <g>
          <g>
            <g>
              <path class="cls-14" d="m212.91,202.47c0,4.37-7.94,6.96-15.6,6.96h0c-7.65,0-15.6-2.59-15.6-6.96l3.22-23c0-4.37,4.73-7.92,12.38-7.92h0c7.66,0,12.38,3.55,12.38,7.92l3.22,23Z"/>
              <path class="cls-14" d="m228.52,150.23c0,25.14-13.96,38.13-31.2,38.13s-31.2-12.99-31.2-38.13,13.98-40.67,31.2-40.67,31.2,15.5,31.2,40.67Z"/>
            </g>
            <path class="cls-7" d="m184.8,130.76c9.04,12.3,39.65,15.88,44.79,15.88h0c0-25.16-14.44-38.88-32.27-38.88s-32.27,13.71-32.27,38.88c13.97,0,19.85-16.84,19.75-15.88h0s-.6-.83,0,0Z"/>
            <g>
              <path class="cls-13" d="m207.54,162.67h0c0,4.99-4.04,9.04-9.04,9.04h-2.37c-4.98,0-9.03-4.04-9.03-9.04h0"/>
              <g>
                <path class="cls-7" d="m192.58,155.34c0,1.65-1.33,2.99-2.98,2.99h0c-1.64,0-2.98-1.34-2.98-2.99v-3.49c0-1.65,1.34-2.98,2.98-2.98h0c1.65,0,2.98,1.33,2.98,2.98v3.49Z"/>
                <path class="cls-7" d="m208.01,155.34c0,1.65-1.34,2.99-2.98,2.99h0c-1.65,0-2.98-1.34-2.98-2.99v-3.49c0-1.65,1.34-2.98,2.98-2.98h0c1.65,0,2.98,1.33,2.98,2.98v3.49Z"/>
              </g>
              <g>
                <path class="cls-12" d="m178.32,167.2c3.22,0,3.22-5,0-5s-3.22,5,0,5h0Z"/>
                <path class="cls-12" d="m216.32,167.2c3.22,0,3.22-5,0-5s-3.22,5,0,5h0Z"/>
              </g>
            </g>
          </g>
          <g>
            <path class="cls-11" d="m181.19,191.5l-11.21,9.75c3.14,4.54,14.35,15.8,17.93,18.94l9.85-10.65-16.58-18.04Z"/>
            <path class="cls-11" d="m196.87,209.54l9.85,10.65c3.59-3.14,14.79-14.4,17.93-18.94l-11.21-9.75-16.58,18.04Z"/>
          </g>
          <g>
            <path class="cls-20" d="m165.04,141.26c0-25.16,14.46-38.88,32.27-38.88s32.27,13.71,32.27,38.88"/>
            <g>
              <path class="cls-21" d="m205.69,177.6c8.07,0,22.83,0,22.83-12.1"/>
              <path class="cls-7" d="m204.79,182.53c5.78,0,5.78-8.96,0-8.96s-5.78,8.96,0,8.96h0Z"/>
            </g>
            <g>
              <g>
                <path class="cls-3" d="m165.12,161.17c0,3.88.34,7.02-3.66,7.02h0c-4.01,0-7.25-3.14-7.25-7.02v-12.86c0-3.88,3.25-7.02,7.25-7.02h0c4,0,3.66,3.14,3.66,7.02v12.86Z"/>
                <path class="cls-5" d="m168.71,167.22c0,1.77-1.44,3.21-3.21,3.21h0c-1.77,0-3.21-1.44-3.21-3.21v-24.96c0-1.77,1.44-3.21,3.21-3.21h0c1.77,0,3.21,1.44,3.21,3.21v24.96Z"/>
              </g>
              <g>
                <path class="cls-3" d="m229.51,161.17c0,3.88-.34,7.02,3.66,7.02h0c4.01,0,7.25-3.14,7.25-7.02v-12.86c0-3.88-3.25-7.02-7.25-7.02h0c-4,0-3.66,3.14-3.66,7.02v12.86Z"/>
                <path class="cls-5" d="m225.93,167.22c0,1.77,1.43,3.21,3.21,3.21h0c1.77,0,3.21-1.44,3.21-3.21v-24.96c0-1.77-1.44-3.21-3.21-3.21h0c-1.77,0-3.21,1.44-3.21,3.21v24.96Z"/>
              </g>
            </g>
          </g>
        </g>
      </g>
      <g>
        <path class="cls-10" d="m268.82,299.9c0,3.5-2.76,6.34-6.17,6.34h-130.65c-3.41,0-6.17-2.84-6.17-6.34h0c0-3.5,2.76-6.34,6.17-6.34h130.65c3.41,0,6.17,2.84,6.17,6.34h0Z"/>
        <g>
          <g>
            <path class="cls-7" d="m147.71,222.15h99.21c7.92,0,14.34,6.43,14.34,14.34v60.66c0,7.92-6.43,14.34-14.34,14.34h-99.21c-7.92,0-14.34-6.43-14.34-14.34v-60.67c0-7.92,6.43-14.34,14.34-14.34Z"/>
            <path class="cls-10" d="m256.79,294.22c0,7.16-5.97,12.95-13.34,12.95h-92.27c-7.37,0-13.34-5.8-13.34-12.95v-54.78c0-7.15,5.97-12.95,13.34-12.95h92.27c7.37,0,13.34,5.8,13.34,12.95v54.78Z"/>
          </g>
          <g>
            <circle class="cls-7" cx="197.32" cy="252.46" r="9.86"/>
            <path class="cls-10" d="m203.59,252.46c0,3.47-2.81,6.28-6.28,6.28s-6.28-2.81-6.28-6.28,2.81-6.28,6.28-6.28,6.28,2.81,6.28,6.28Z"/>
            <path class="cls-11" d="m199.83,252.46c0,1.39-1.12,2.51-2.51,2.51s-2.51-1.12-2.51-2.51,1.12-2.51,2.51-2.51,2.51,1.12,2.51,2.51Z"/>
          </g>
        </g>
      </g>
    </g>
  </g>
  <g>
    <path class="cls-6" d="m46.89,295.13c-7.37,0-13.36-6-13.36-13.37s5.99-13.37,13.36-13.37,13.37,6,13.37,13.37-5.99,13.37-13.37,13.37Zm0-20.32c-3.83,0-6.95,3.12-6.95,6.95s3.12,6.95,6.95,6.95,6.95-3.12,6.95-6.95-3.12-6.95-6.95-6.95Z"/>
    <g>
      <rect class="cls-6" x="43.68" y="264.39" width="6.42" height="7.48"/>
      <rect class="cls-6" x="43.68" y="291.65" width="6.42" height="7.48"/>
      <rect class="cls-6" x="29.51" y="278.56" width="7.48" height="6.42"/>
      <rect class="cls-6" x="56.78" y="278.56" width="7.48" height="6.42"/>
      <rect class="cls-6" x="34.04" y="268.38" width="6.41" height="7.49" transform="translate(-181.54 106.08) rotate(-45.01)"/>
      <rect class="cls-6" x="53.32" y="287.66" width="6.42" height="7.49" transform="translate(-189.53 125.37) rotate(-45.01)"/>
      <rect class="cls-6" x="33.51" y="288.2" width="7.49" height="6.41" transform="translate(-195.12 111.66) rotate(-44.99)"/>
      <rect class="cls-6" x="52.79" y="268.92" width="7.49" height="6.42" transform="translate(-175.88 119.7) rotate(-45.01)"/>
    </g>
  </g>
  <g>
    <path class="cls-6" d="m352.15,137.57c-7.37,0-13.37-6-13.37-13.36s5.99-13.37,13.37-13.37,13.36,6,13.36,13.37-5.99,13.36-13.36,13.36Zm0-20.31c-3.83,0-6.95,3.12-6.95,6.95s3.12,6.95,6.95,6.95,6.95-3.12,6.95-6.95-3.12-6.95-6.95-6.95Z"/>
    <g>
      <rect class="cls-6" x="348.94" y="106.83" width="6.41" height="7.48"/>
      <rect class="cls-6" x="348.94" y="134.09" width="6.41" height="7.48"/>
      <rect class="cls-6" x="334.77" y="121" width="7.48" height="6.41"/>
      <rect class="cls-6" x="362.04" y="121" width="7.49" height="6.41"/>
      <rect class="cls-6" x="339.3" y="110.82" width="6.42" height="7.48" transform="translate(19.34 275.8) rotate(-45.01)"/>
      <rect class="cls-6" x="358.58" y="130.1" width="6.41" height="7.49" transform="translate(11.34 295.05) rotate(-45)"/>
      <rect class="cls-6" x="338.76" y="130.64" width="7.48" height="6.42" transform="translate(5.69 281.43) rotate(-45.01)"/>
      <rect class="cls-6" x="358.04" y="111.36" width="7.49" height="6.42" transform="translate(24.92 289.3) rotate(-44.99)"/>
    </g>
  </g>
  <g>
    <path class="cls-6" d="m50.1,72.72c-5.53,0-10.02-4.5-10.02-10.02s4.49-10.02,10.02-10.02,10.02,4.5,10.02,10.02-4.5,10.02-10.02,10.02Zm0-15.24c-2.87,0-5.21,2.34-5.21,5.21s2.34,5.21,5.21,5.21,5.21-2.34,5.21-5.21-2.34-5.21-5.21-5.21Z"/>
    <g>
      <rect class="cls-6" x="47.69" y="49.67" width="4.81" height="5.61"/>
      <rect class="cls-6" x="47.69" y="70.12" width="4.81" height="5.61"/>
      <rect class="cls-6" x="37.07" y="60.29" width="5.61" height="4.81"/>
      <rect class="cls-6" x="57.51" y="60.29" width="5.61" height="4.81"/>
      <rect class="cls-6" x="40.46" y="52.66" width="4.81" height="5.61" transform="translate(-26.67 46.58) rotate(-45.01)"/>
      <rect class="cls-6" x="54.92" y="67.12" width="4.81" height="5.61" transform="translate(-32.66 61.04) rotate(-45.01)"/>
      <rect class="cls-6" x="40.06" y="67.52" width="5.61" height="4.81" transform="translate(-36.9 50.82) rotate(-45.02)"/>
      <rect class="cls-6" x="54.52" y="53.06" width="5.61" height="4.81" transform="translate(-22.43 56.8) rotate(-45.02)"/>
    </g>
  </g>
  <g>
    <path class="cls-6" d="m308.17,266.86c-5.53,0-10.03-4.5-10.03-10.02s4.5-10.02,10.03-10.02,10.02,4.5,10.02,10.02-4.5,10.02-10.02,10.02Zm0-15.24c-2.87,0-5.21,2.34-5.21,5.21s2.34,5.21,5.21,5.21,5.21-2.34,5.21-5.21-2.34-5.21-5.21-5.21Z"/>
    <g>
      <rect class="cls-6" x="305.76" y="243.8" width="4.81" height="5.61"/>
      <rect class="cls-6" x="305.76" y="264.25" width="4.81" height="5.61"/>
      <rect class="cls-6" x="295.14" y="254.43" width="5.61" height="4.81"/>
      <rect class="cls-6" x="315.59" y="254.43" width="5.61" height="4.81"/>
      <rect class="cls-6" x="298.53" y="246.79" width="4.81" height="5.61" transform="translate(-88.34 286) rotate(-45.01)"/>
      <rect class="cls-6" x="312.99" y="261.25" width="4.81" height="5.61" transform="translate(-94.33 300.47) rotate(-45.01)"/>
      <rect class="cls-6" x="298.13" y="261.66" width="5.61" height="4.81" transform="translate(-98.58 290.09) rotate(-44.99)"/>
      <rect class="cls-6" x="312.59" y="247.2" width="5.61" height="4.81" transform="translate(-84.12 296.07) rotate(-44.99)"/>
    </g>
  </g>
  <g>
    <rect class="cls-25" x="7.14" y="150.19" width="42.9" height="30.8"/>
    <line class="cls-25" x1="7.14" y1="150.19" x2="28.72" y2="170.89"/>
    <line class="cls-25" x1="50.04" y1="150.19" x2="28.72" y2="170.89"/>
    <line class="cls-25" x1="22.67" y1="165.08" x2="7.14" y2="180.99"/>
    <line class="cls-25" x1="34.89" y1="164.91" x2="50.04" y2="180.99"/>
  </g>
  <g>
    <rect class="cls-25" x="349.6" y="242.84" width="42.9" height="30.8"/>
    <line class="cls-25" x1="349.6" y1="242.84" x2="371.18" y2="263.54"/>
    <line class="cls-25" x1="392.5" y1="242.84" x2="371.18" y2="263.54"/>
    <line class="cls-25" x1="365.13" y1="257.73" x2="349.6" y2="273.64"/>
    <line class="cls-25" x1="377.34" y1="257.56" x2="392.5" y2="273.64"/>
  </g>
  <text class="cls-4" transform="translate(186.83 91.1)"><tspan x="0" y="0">?</tspan></text>
  <text class="cls-17" transform="translate(7.94 244.15)"><tspan x="0" y="0">?</tspan></text>
  <text class="cls-17" transform="translate(374.77 190.87)"><tspan x="0" y="0">?</tspan></text>
  <g>
    <g>
      <path class="cls-8" d="m286.39,156.9h60.77c7.29,0,13.2,5.91,13.2,13.2v40.88c0,7.28-5.91,13.2-13.2,13.2h-60.77c-7.29,0-13.2-5.91-13.2-13.2v-40.88c0-7.29,5.91-13.2,13.2-13.2Z"/>
      <polyline class="cls-8" points="299.65 223.28 287.97 234.48 286.85 221.28"/>
    </g>
    <g>
      <path class="cls-11" d="m287.82,177.79h58c1.61,0,1.61-2.5,0-2.5h-58c-1.61,0-1.61,2.5,0,2.5h0Z"/>
      <path class="cls-11" d="m287.82,187.12h58c1.61,0,1.61-2.5,0-2.5h-58c-1.61,0-1.61,2.5,0,2.5h0Z"/>
      <path class="cls-11" d="m287.82,196.46h58c1.61,0,1.61-2.5,0-2.5h-58c-1.61,0-1.61,2.5,0,2.5h0Z"/>
      <path class="cls-11" d="m287.82,205.79h47c1.61,0,1.61-2.5,0-2.5h-47c-1.61,0-1.61,2.5,0,2.5h0Z"/>
    </g>
  </g>
  <g>
    <g>
      <path class="cls-3" d="m114.58,215.38c0,18.83-15.27,34.1-34.1,34.1s-34.1-15.27-34.1-34.1,15.27-34.1,34.1-34.1,34.1,15.27,34.1,34.1Z"/>
      <polyline class="cls-3" points="89.47 242.76 101.16 253.96 102.27 240.76"/>
    </g>
    <g>
      <path class="cls-6" d="m68.33,218.96c3.87,0,3.87-6,0-6s-3.87,6,0,6h0Z"/>
      <path class="cls-6" d="m80.48,218.96c3.87,0,3.87-6,0-6s-3.87,6,0,6h0Z"/>
      <path class="cls-6" d="m92.63,218.96c3.87,0,3.87-6,0-6s-3.87,6,0,6h0Z"/>
    </g>
  </g>
  <g>
    <g>
      <path class="cls-8" d="m134.67,116.33c0,18.58-15.06,33.64-33.64,33.64h-19.88c-18.58,0-33.64-15.06-33.64-33.64h0c0-18.58,15.06-33.64,33.64-33.64h19.88c18.58,0,33.64,15.06,33.64,33.64h0Z"/>
      <polyline class="cls-8" points="105.27 146.68 116.96 157.88 118.07 144.68"/>
    </g>
    <g>
      <path class="cls-11" d="m64.08,106.68h54c2.1,0,2.1-3.25,0-3.25h-54c-2.1,0-2.1,3.25,0,3.25h0Z"/>
      <path class="cls-11" d="m64.08,114.68h54c2.1,0,2.1-3.25,0-3.25h-54c-2.1,0-2.1,3.25,0,3.25h0Z"/>
      <path class="cls-11" d="m64.08,122.68h54c2.1,0,2.1-3.25,0-3.25h-54c-2.1,0-2.1,3.25,0,3.25h0Z"/>
      <path class="cls-11" d="m64.08,130.68h43.76c2.1,0,2.1-3.25,0-3.25h-43.76c-2.1,0-2.1,3.25,0,3.25h0Z"/>
    </g>
  </g>
  <g>
    <g>
      <path class="cls-3" d="m326.49,93.77c0,21.26-17.24,38.5-38.5,38.5s-38.5-17.24-38.5-38.5,17.24-38.5,38.5-38.5,38.5,17.24,38.5,38.5Z"/>
      <polyline class="cls-3" points="279.59 128.33 267.9 139.53 266.79 126.33"/>
    </g>
    <g>
      <path class="cls-7" d="m273.85,97.52c4.84,0,4.84-7.5,0-7.5s-4.84,7.5,0,7.5h0Z"/>
      <path class="cls-7" d="m287.85,97.52c4.84,0,4.84-7.5,0-7.5s-4.84,7.5,0,7.5h0Z"/>
      <path class="cls-7" d="m301.85,97.52c4.84,0,4.84-7.5,0-7.5s-4.84,7.5,0,7.5h0Z"/>
    </g>
  </g>
  <g class="cls-19">
    <g>
      <line class="cls-22" x1="343.51" y1="300.13" x2="357.15" y2="312.7"/>
      <polygon class="cls-6" points="342.4 311.7 345.78 302.22 354.95 298.08 332.54 290.01 342.4 311.7"/>
    </g>
  </g>
  <g class="cls-19">
    <g>
      <line class="cls-22" x1="24.59" y1="109.06" x2="13.93" y2="121.48"/>
      <polygon class="cls-6" points="12.99 108.36 22.58 111.41 27.04 120.42 34.31 97.74 12.99 108.36"/>
    </g>
  </g>
  <g>
    <path class="cls-15" d="m295.77,360.88c0,16.4-13.3,29.7-29.7,29.7h-137.5c-16.4,0-29.7-13.3-29.7-29.7h0c0-16.4,13.3-29.7,29.7-29.7h137.5c16.4,0,29.7,13.3,29.7,29.7h0Z"/>
    <text class="cls-18" transform="translate(146.98 382.82)"><tspan class="cls-2" x="0" y="0">F</tspan><tspan class="cls-24" x="24.29" y="0">A</tspan><tspan x="59.76" y="0">Q</tspan></text>
  </g>
  <g>
    <rect class="cls-12" x="84.11" width="226.41" height="38.91" rx="13.2" ry="13.2"/>
    <text class="cls-16" transform="translate(118.48 28.24)"><tspan x="0" y="0">A</tspan><tspan class="cls-1" x="14.14" y="0">N</tspan><tspan x="29.17" y="0">Y QUESTION?</tspan></text>
  </g>
</svg>