<?xml version="1.0" encoding="UTF-8"?>
<svg xmlns="http://www.w3.org/2000/svg" viewBox="0 0 500 362.66">
  <defs>
    <style>
      .cls-1, .cls-2, .cls-3, .cls-4, .cls-5, .cls-6, .cls-7, .cls-8, .cls-9, .cls-10, .cls-11, .cls-12, .cls-13, .cls-14, .cls-15, .cls-16, .cls-17, .cls-18, .cls-19, .cls-20, .cls-21, .cls-22, .cls-23, .cls-24, .cls-25, .cls-26, .cls-27, .cls-28, .cls-29, .cls-30 {
        stroke-width: 0px;
      }

      .cls-1, .cls-2, .cls-8, .cls-12, .cls-18, .cls-19, .cls-22, .cls-23, .cls-28, .cls-30 {
        fill: #fff;
      }

      .cls-1, .cls-4 {
        isolation: isolate;
      }

      .cls-1, .cls-22, .cls-29 {
        opacity: .1;
      }

      .cls-2, .cls-16, .cls-31 {
        opacity: .4;
      }

      .cls-3 {
        fill: #407bff;
      }

      .cls-4, .cls-15, .cls-28 {
        opacity: .2;
      }

      .cls-5 {
        fill: #c13b37;
      }

      .cls-6 {
        fill: #ff8b7b;
      }

      .cls-7 {
        fill: #e6e6e6;
      }

      .cls-8 {
        opacity: .9;
      }

      .cls-10, .cls-32, .cls-30 {
        opacity: .3;
      }

      .cls-11 {
        fill: #e0e0e0;
      }

      .cls-12 {
        opacity: .5;
      }

      .cls-13 {
        fill: #f5f5f5;
      }

      .cls-14 {
        fill: #f0f0f0;
      }

      .cls-16, .cls-21 {
        fill: #263238;
      }

      .cls-17 {
        fill: #a02724;
      }

      .cls-19 {
        opacity: .6;
      }

      .cls-20 {
        fill: #fafafa;
      }

      .cls-23 {
        opacity: .7;
      }

      .cls-24 {
        fill: #ed893e;
      }

      .cls-25 {
        fill: #ebebeb;
      }

      .cls-26 {
        fill: #fab27b;
      }

      .cls-27 {
        fill: #eec8c0;
      }
    </style>
  </defs>
  <g id="Background_Complete" data-name="Background Complete">
    <g>
      <path class="cls-7" d="m238.4,282.8H45.31c-3.15,0-5.7-2.56-5.7-5.71V5.66c.03-3.13,2.57-5.65,5.7-5.66h193.09c3.15,0,5.71,2.56,5.71,5.71h0v271.38c0,3.15-2.56,5.71-5.71,5.71ZM45.31.2c-3.01,0-5.45,2.45-5.45,5.46v271.43c0,3.01,2.44,5.45,5.45,5.46h193.09c3.01,0,5.45-2.45,5.46-5.46V5.66c0-3.01-2.45-5.45-5.46-5.46H45.31Z"/>
      <path class="cls-7" d="m454.7,282.8h-193.1c-3.15,0-5.7-2.56-5.71-5.71V5.66c.03-3.13,2.58-5.65,5.71-5.66h193.1c3.13.01,5.66,2.53,5.69,5.66v271.43c0,3.15-2.54,5.7-5.69,5.71ZM261.6.2c-3.01,0-5.45,2.45-5.46,5.46v271.43c0,3.01,2.45,5.45,5.46,5.46h193.1c3.01,0,5.45-2.45,5.46-5.46V5.66c0-3.01-2.45-5.45-5.46-5.46h-193.1Z"/>
    </g>
    <g>
      <rect class="cls-11" x="53.79" y="333.48" width="41.21" height=".25"/>
      <rect class="cls-11" x="137.67" y="331.48" width="41.33" height=".25"/>
      <rect class="cls-11" x="222.78" y="331.48" width="10" height=".25"/>
      <rect class="cls-11" x="86.58" y="340.02" width="46.25" height=".25"/>
      <rect class="cls-11" x="271.2" y="333.35" width="21.6" height=".25"/>
      <rect class="cls-11" x="301.7" y="333.35" width="27.93" height=".25"/>
      <rect class="cls-11" x="401.89" y="337.58" width="62.44" height=".25"/>
    </g>
    <rect class="cls-11" y="323.67" width="500" height=".25"/>
    <g>
      <path class="cls-14" d="m169.82,230.26h19.44v-11.15c0-5.37-4.35-9.72-9.72-9.72h0c-5.37,0-9.72,4.35-9.72,9.72v11.15Z"/>
      <g>
        <g>
          <circle class="cls-18" cx="179.65" cy="219.62" r="8.2"/>
          <circle class="cls-25" cx="179.77" cy="219.62" r="6.58"/>
        </g>
        <g>
          <path class="cls-20" d="m179,219.77c0,.39.32.71.71.71s.71-.32.71-.71-.32-.71-.71-.71-.71.32-.71.71Z"/>
          <polygon class="cls-20" points="179.79 220.03 182.8 217.2 182.5 216.89 179.78 219.46 174.89 215.14 174.61 215.46 179.79 220.03"/>
        </g>
      </g>
    </g>
    <g>
      <g>
        <g>
          <circle class="cls-14" cx="82.53" cy="129.76" r="22.91" transform="translate(-67.58 96.37) rotate(-45)"/>
          <g>
            <path class="cls-18" d="m82.6,153.18c-12.92,0-23.42-10.51-23.42-23.43s10.51-23.43,23.42-23.43v1.03c-12.35,0-22.39,10.05-22.39,22.39s10.05,22.39,22.39,22.39v1.03Z"/>
            <g>
              <path class="cls-18" d="m82.6,153.18v-1.03c12.35,0,22.39-10.05,22.39-22.39s-10.05-22.39-22.39-22.39v-1.03c12.92,0,23.43,10.51,23.43,23.43s-10.51,23.43-23.43,23.43Z"/>
              <g>
                <path class="cls-18" d="m94.57,129.76h-1.03c0-7.59-3.85-17.75-11.22-22.48l.56-.87c7.68,4.92,11.69,15.47,11.69,23.34Z"/>
                <path class="cls-18" d="m82.88,152.4l-.56-.87c7.36-4.72,11.22-14.88,11.22-22.48h1.03c0,7.87-4.02,18.42-11.69,23.34Z"/>
              </g>
              <g>
                <path class="cls-18" d="m71.66,129.75h-1.03c0-7.87,4.02-18.42,11.69-23.34l.56.87c-7.36,4.73-11.22,14.88-11.22,22.48Z"/>
                <path class="cls-18" d="m82.32,152.4c-7.67-4.93-11.69-15.47-11.69-23.34h1.03c0,7.59,3.85,17.75,11.22,22.48l-.56.87Z"/>
              </g>
              <rect class="cls-18" x="82.08" y="106.84" width="1.03" height="45.82"/>
            </g>
            <g>
              <rect class="cls-18" x="63.21" y="117.03" width="38.78" height="1.03"/>
              <rect class="cls-18" x="59.7" y="129.63" width="45.8" height="1.03"/>
              <rect class="cls-18" x="63.72" y="142.21" width="37.76" height="1.03"/>
            </g>
          </g>
        </g>
        <g>
          <g>
            <rect class="cls-13" x="352.44" y="-25.56" width="5.57" height="159.45" transform="translate(409.38 -301.06) rotate(90)"/>
            <g>
              <g>
                <path class="cls-11" d="m317.99,56.95h-26.67v12.5h13.34c0-3.16,2.56-5.73,5.72-5.73h7.61v-6.77Z"/>
                <path class="cls-13" d="m305.94,56.95h-19.44v12.5h6.11c0-3.16,2.56-5.73,5.72-5.73h7.61v-6.77Z"/>
              </g>
              <g>
                <path class="cls-25" d="m392.45,56.95h26.67v12.5h-13.34c0-3.16-2.56-5.73-5.72-5.73h-7.61v-6.77Z"/>
                <path class="cls-13" d="m404.51,56.95h19.44v12.5h-6.1c0-3.16-2.56-5.73-5.72-5.73h-7.61v-6.77Z"/>
              </g>
            </g>
          </g>
          <g>
            <g>
              <polygon class="cls-11" points="375.48 40.4 384.29 25.22 382.94 25.22 373.53 40.4 375.48 40.4"/>
              <polygon class="cls-11" points="337.33 40.34 328.63 25.16 329.98 25.16 339.29 40.34 337.33 40.34"/>
              <polygon class="cls-11" points="337.68 40.34 338.13 41.36 339.43 41.36 339.02 40.34 337.68 40.34"/>
              <polygon class="cls-11" points="375.16 40.34 374.71 41.36 373.4 41.36 373.82 40.34 375.16 40.34"/>
            </g>
            <g>
              <g>
                <g>
                  <rect class="cls-11" x="335.42" y="47.31" width="5.41" height="3.37"/>
                  <rect class="cls-11" x="372.14" y="47.31" width="5.41" height="3.37"/>
                </g>
                <path class="cls-25" d="m379.44,48.8l-11.76,1.27c-7.46.81-14.98.81-22.44,0l-11.76-1.27v-7.3l9.55-1.24c8.92-1.16,17.95-1.16,26.87,0l9.55,1.24v7.3Z"/>
              </g>
              <g>
                <path class="cls-18" d="m340.31,45.36c0,1.2-.98,2.18-2.18,2.18s-2.18-.98-2.18-2.18.98-2.18,2.18-2.18,2.18.98,2.18,2.18Z"/>
                <circle class="cls-11" cx="338.13" cy="45.38" r="1.3"/>
              </g>
              <g>
                <path class="cls-18" d="m350.46,45.38c0,.38-.31.69-.69.69s-.69-.31-.69-.69.31-.69.69-.69.69.31.69.69Z"/>
                <path class="cls-18" d="m352.92,45.38c0,.38-.31.69-.69.69s-.69-.31-.69-.69.31-.69.69-.69.69.31.69.69Z"/>
                <path class="cls-18" d="m355.37,45.38c0,.38-.31.69-.69.69s-.69-.31-.69-.69.31-.69.69-.69.69.31.69.69Z"/>
                <path class="cls-18" d="m357.83,45.38c0,.38-.31.69-.69.69s-.69-.31-.69-.69.31-.69.69-.69.69.31.69.69Z"/>
                <path class="cls-18" d="m360.28,45.38c0,.38-.31.69-.69.69s-.69-.31-.69-.69.31-.69.69-.69.69.31.69.69Z"/>
                <path class="cls-18" d="m362.74,45.38c0,.38-.31.69-.69.69s-.69-.31-.69-.69.31-.69.69-.69.69.31.69.69Z"/>
                <path class="cls-18" d="m365.19,45.38c0,.38-.31.69-.69.69s-.69-.31-.69-.69.31-.69.69-.69.69.31.69.69Z"/>
              </g>
            </g>
          </g>
        </g>
        <g>
          <path class="cls-13" d="m133.46,73.03v6.04c3.89.31,7.44,1.85,10.25,4.24l4.27-4.27c-3.91-3.47-8.96-5.68-14.52-6.01Z"/>
          <path class="cls-14" d="m130.55,115.09c-8.82-.7-15.85-7.73-16.55-16.55h-6.04c.73,12.15,10.45,21.87,22.59,22.59v-6.04Z"/>
          <path class="cls-11" d="m113.99,95.62c.7-8.82,7.74-15.85,16.55-16.55v-6.04c-12.15.73-21.87,10.45-22.59,22.59h6.04Z"/>
          <path class="cls-11" d="m150.04,81.11l-4.27,4.27c2.68,3.15,4.31,7.24,4.31,11.71,0,9.49-7.32,17.27-16.62,18.01v6.04c12.63-.75,22.64-11.23,22.64-24.05,0-6.13-2.29-11.72-6.06-15.97Z"/>
        </g>
        <g>
          <rect class="cls-11" x="54.85" y="213.04" width="222.05" height="110.25" rx="19.67" ry="19.67" transform="translate(331.75 536.34) rotate(180)"/>
          <rect class="cls-13" x="66.55" y="213.86" width="222.05" height="110.25" rx="19.67" ry="19.67" transform="translate(355.15 537.97) rotate(180)"/>
          <path class="cls-11" d="m76.73,224.25h200.38v27.39c0,7.58-6.16,13.74-13.74,13.74H90.47c-7.58,0-13.74-6.16-13.74-13.74v-27.39h0Z" transform="translate(353.84 489.64) rotate(180)"/>
          <path class="cls-11" d="m90.47,270.95h172.91c7.58,0,13.74,6.16,13.74,13.74v27.39H76.73v-27.39c0-7.58,6.16-13.74,13.74-13.74Z" transform="translate(353.84 583.03) rotate(180)"/>
          <g>
            <rect class="cls-7" x="129.95" y="232.22" width="28.4" height="33.44"/>
            <rect class="cls-13" x="158.35" y="232.22" width="7.27" height="33.44"/>
            <rect class="cls-7" x="122.5" y="227.06" width="21.33" height="38.6"/>
            <rect class="cls-13" x="143.83" y="227.06" width="6.17" height="38.6"/>
            <rect class="cls-25" x="119.56" y="232.22" width="17.99" height="33.44"/>
            <rect class="cls-13" x="137.55" y="232.22" width="4.11" height="33.44"/>
            <rect class="cls-7" x="99.24" y="237.88" width="23.59" height="27.78"/>
            <rect class="cls-13" x="122.83" y="237.88" width="6.04" height="27.78"/>
            <rect class="cls-7" x="93.05" y="233.59" width="17.72" height="32.07"/>
            <rect class="cls-13" x="110.77" y="233.59" width="5.12" height="32.07"/>
            <rect class="cls-7" x="88.34" y="237.88" width="17.22" height="27.78"/>
            <rect class="cls-14" x="105.56" y="237.88" width="3.41" height="27.78"/>
          </g>
          <g>
            <rect class="cls-7" x="218.33" y="277.38" width="28.4" height="33.44"/>
            <rect class="cls-13" x="246.73" y="277.38" width="7.27" height="33.44"/>
            <rect class="cls-7" x="210.88" y="272.22" width="21.33" height="38.6"/>
            <rect class="cls-13" x="232.21" y="272.22" width="6.17" height="38.6"/>
            <rect class="cls-7" x="121.44" y="277.38" width="28.4" height="33.44"/>
            <rect class="cls-13" x="149.84" y="277.38" width="7.27" height="33.44"/>
            <rect class="cls-7" x="113.99" y="272.22" width="21.33" height="38.6"/>
            <rect class="cls-13" x="135.32" y="272.22" width="6.17" height="38.6"/>
            <rect class="cls-25" x="207.94" y="277.38" width="17.99" height="33.44"/>
            <rect class="cls-13" x="225.93" y="277.38" width="4.11" height="33.44"/>
            <rect class="cls-7" x="187.62" y="283.03" width="23.59" height="27.78"/>
            <rect class="cls-13" x="211.21" y="283.03" width="6.04" height="27.78"/>
            <rect class="cls-7" x="181.43" y="278.75" width="17.72" height="32.07"/>
            <rect class="cls-13" x="199.14" y="278.75" width="5.12" height="32.07"/>
            <rect class="cls-7" x="176.71" y="283.03" width="17.22" height="27.78"/>
            <rect class="cls-14" x="193.94" y="283.03" width="3.41" height="27.78"/>
          </g>
        </g>
      </g>
      <g>
        <g>
          <path class="cls-13" d="m443.89,198.2h-111.51c0,5.58,3.22,10.17,7.31,10.42,11.98.74,30.42,3.32,36.26,12.37,10.9,16.86,9.84,76.07-3.21,89.78-4.09,4.3-16.02,12.84-16.02,12.84h62.83s-11.15-8.71-15.02-12.84c-12.98-13.83-13.36-73-2.41-89.78,5.62-8.61,22.9-11.39,34.49-12.27,4.09-.31,7.28-4.93,7.28-10.52Z"/>
          <path class="cls-7" d="m346.2,209.17c11.33,1.24,24.9,4.29,29.76,11.81,1.44,2.23,2.66,5.21,3.69,8.71h18.73c1.05-3.51,2.29-6.49,3.74-8.71,4.88-7.48,18.57-10.56,29.68-11.81h-85.6Z"/>
        </g>
        <g>
          <polygon class="cls-25" points="396.39 198.27 394.87 174.64 416.85 174.64 418.37 198.27 396.39 198.27"/>
          <polygon class="cls-11" points="396.39 198.27 394.87 174.64 393.69 174.64 395.21 198.27 396.39 198.27"/>
          <polygon class="cls-14" points="398.48 195.86 397.27 177.05 414.77 177.05 415.98 195.86 398.48 195.86"/>
          <polygon class="cls-20" points="399.82 194.31 398.81 178.59 413.43 178.59 414.44 194.31 399.82 194.31"/>
        </g>
        <g>
          <g>
            <polygon class="cls-7" points="389.26 198.2 367.18 198.2 369.63 160.01 391.71 160.01 389.26 198.2"/>
            <polygon class="cls-11" points="389.26 198.2 390.32 198.2 392.77 160.01 391.71 160.01 389.26 198.2"/>
            <polygon class="cls-14" points="387.26 194.3 369.68 194.3 371.63 163.9 389.21 163.9 387.26 194.3"/>
            <polygon class="cls-20" points="385.97 191.8 371.29 191.8 372.92 166.41 387.6 166.41 385.97 191.8"/>
          </g>
          <path class="cls-25" d="m378.56,177.83h0c1,1.36,2.61,1.36,3.61,0h0c1-1.36,1-3.57,0-4.93h0c-1-1.36-2.61-1.36-3.61,0h0c-1,1.36-1,3.57,0,4.93Z"/>
          <path class="cls-14" d="m379.64,182.1h0c-.73-1-1.91-1-2.65,0h0c-1.18,1.61-.34,4.35,1.32,4.35h0c1.67,0,2.5-2.75,1.32-4.35Z"/>
        </g>
      </g>
    </g>
  </g>
  <g id="Background_Simple" data-name="Background Simple">
    <g>
      <path class="cls-3" d="m104.44,283.82c3.58,9.68,12.59,17.23,22.58,19.8,15.05,3.86,30.02-5,45.01-9.07,26.64-7.24,54.73.78,81.34,8.1,26.61,7.32,55.47,13.88,81.25,4.02,22.12-8.46,38.36-27.91,49.57-48.77,21.31-39.65,27.59-85.52,30.71-130.42,1.39-20.03,2.16-40.64-4.17-59.7-6.33-19.06-21.21-36.49-40.93-40.33-18.92-3.68-38.06,5.57-53.35,17.32-15.29,11.74-28.55,26.26-45.25,35.9-24.32,14.04-54,16.38-81.74,12.05-17.19-2.68-45.83-35.25-74.99-23.21-31.04,12.82-44.57,121.07-10.06,214.32Z"/>
      <path class="cls-8" d="m104.44,283.82c3.58,9.68,12.59,17.23,22.58,19.8,15.05,3.86,30.02-5,45.01-9.07,26.64-7.24,54.73.78,81.34,8.1,26.61,7.32,55.47,13.88,81.25,4.02,22.12-8.46,38.36-27.91,49.57-48.77,21.31-39.65,27.59-85.52,30.71-130.42,1.39-20.03,2.16-40.64-4.17-59.7-6.33-19.06-21.21-36.49-40.93-40.33-18.92-3.68-38.06,5.57-53.35,17.32-15.29,11.74-28.55,26.26-45.25,35.9-24.32,14.04-54,16.38-81.74,12.05-17.19-2.68-45.83-35.25-74.99-23.21-31.04,12.82-44.57,121.07-10.06,214.32Z"/>
    </g>
  </g>
  <g id="Shadows">
    <g id="Shadow--inject-214">
      <ellipse id="path--inject-214" class="cls-13" cx="250" cy="351.34" rx="193.89" ry="11.32"/>
    </g>
  </g>
  <g id="Plants">
    <g>
      <g>
        <path class="cls-21" d="m391.11,276.94c-10.01,7.71-12.9,24.6-13.4,36.51-.05,1.09-1.74,1.09-1.69,0,.53-12.61,3.4-29.61,14.24-37.97.86-.66,1.71.81.85,1.46h0Z"/>
        <path class="cls-21" d="m367.89,268.3c2.55-.29,4.7,2.31,5.81,4.23,5.76,9.95,3.53,24.97,2.44,35.64-.11,1.07-1.8,1.08-1.69,0,1.06-10.39,2.99-23.93-1.7-33.8-.81-1.7-2.53-4.65-4.85-4.38-1.08.12-1.07-1.57,0-1.69h0Z"/>
        <path class="cls-21" d="m361.69,281.97c10.7-2.64,12.04,21.09,12.35,26.2.07,1.09-1.63,1.08-1.69,0-.43-6.92-.77-16.84-5.78-22.4-1.01-1.12-2.77-2.58-4.43-2.17-1.06.26-1.51-1.37-.45-1.63h0Z"/>
        <path class="cls-21" d="m393.41,293.49c-8.85-6.55-11.73,10.67-12.22,15.63-.11,1.07-1.8,1.08-1.69,0,.56-5.63,1.41-15.83,7.92-18.2,2.23-.81,4.94-.3,6.85,1.11.87.64.02,2.11-.85,1.46h0Z"/>
        <path class="cls-21" d="m358.21,296.59c1.33-1.34,3.37-2.24,5.27-1.92,5.4.91,6.9,9.05,7.71,13.28.21,1.06-1.42,1.52-1.63.45-.71-3.65-4.11-16.72-10.15-10.61-.77.78-1.96-.42-1.2-1.2h0Z"/>
        <path class="cls-21" d="m390.08,352.09h-25.59c-4.49-3.81-7.35-9.48-7.35-15.84,0-7.26,4.08-29.03,4.08-29.03h32.13s4.08,21.77,4.08,29.03c0,6.36-2.86,12.03-7.35,15.84Z"/>
        <path class="cls-3" d="m394.16,301.84c-7.72,0-15.27-3.13-16.87-6.99-1.6-3.86,3.36-6.99,11.08-6.99,2.55,0,5.07.35,7.38.94,1.81-.6,4.05-.94,6.6-.94,7.72,0,15.27,3.13,16.87,6.99,1.6,3.86-3.36,6.99-11.08,6.99h-13.98Z"/>
        <path class="cls-29" d="m394.16,301.84c-7.72,0-15.27-3.13-16.87-6.99-1.6-3.86,3.36-6.99,11.08-6.99,2.55,0,5.07.35,7.38.94,1.81-.6,4.05-.94,6.6-.94,7.72,0,15.27,3.13,16.87,6.99,1.6,3.86-3.36,6.99-11.08,6.99h-13.98Z"/>
        <path class="cls-3" d="m343.79,286.88c-6.31,0-8.87-2.56-5.72-5.72,3.16-3.16,10.83-5.72,17.15-5.72,2.08,0,3.75.28,4.94.77,2.17-.49,4.4-.77,6.49-.77,6.31,0,8.87,2.56,5.72,5.72-3.16,3.16-10.83,5.72-17.15,5.72h-11.43Z"/>
        <path class="cls-3" d="m401.86,281.16c-7.94,0-17.6-3.22-21.57-7.19-3.97-3.97-.75-7.19,7.19-7.19,2.62,0,5.43.36,8.16.97,1.5-.61,3.6-.97,6.22-.97,7.94,0,17.6,3.22,21.57,7.19,3.97,3.97.75,7.19-7.19,7.19h-14.38Z"/>
        <path class="cls-28" d="m401.86,281.16c-7.94,0-17.6-3.22-21.57-7.19-3.97-3.97-.75-7.19,7.19-7.19,2.62,0,5.43.36,8.16.97,1.5-.61,3.6-.97,6.22-.97,7.94,0,17.6,3.22,21.57,7.19,3.97,3.97.75,7.19-7.19,7.19h-14.38Z"/>
        <path class="cls-3" d="m357.7,271.88c-3.97,0-6.52-1.61-5.7-3.6.82-1.99,4.71-3.6,8.68-3.6,1.31,0,2.46.18,3.39.48,1.19-.31,2.48-.48,3.8-.48,3.97,0,6.52,1.61,5.7,3.6-.82,1.99-4.71,3.6-8.68,3.6h-7.19Z"/>
        <path class="cls-30" d="m357.7,271.88c-3.97,0-6.52-1.61-5.7-3.6.82-1.99,4.71-3.6,8.68-3.6,1.31,0,2.46.18,3.39.48,1.19-.31,2.48-.48,3.8-.48,3.97,0,6.52,1.61,5.7,3.6-.82,1.99-4.71,3.6-8.68,3.6h-7.19Z"/>
        <path class="cls-3" d="m353.12,300.64c-3.97,0-7.86-1.61-8.68-3.6-.82-1.99,1.73-3.6,5.7-3.6,1.31,0,2.61.18,3.8.48.93-.31,2.08-.48,3.39-.48,3.97,0,7.86,1.61,8.68,3.6.82,1.99-1.73,3.6-5.7,3.6h-7.19Z"/>
        <path class="cls-15" d="m353.12,300.64c-3.97,0-7.86-1.61-8.68-3.6-.82-1.99,1.73-3.6,5.7-3.6,1.31,0,2.61.18,3.8.48.93-.31,2.08-.48,3.39-.48,3.97,0,7.86,1.61,8.68,3.6.82,1.99-1.73,3.6-5.7,3.6h-7.19Z"/>
        <path class="cls-3" d="m360.49,311.25c.43-2.45.73-4.03.73-4.03h32.13s.3,1.59.73,4.03h-33.59Z"/>
      </g>
      <path class="cls-20" d="m359.09,277.61s-8.82,2.94-11.61,7.79c0,0,.44-7.05,11.61-7.79Z"/>
      <path class="cls-20" d="m363.24,266.08s-2.3,1.28-3.69,3.19c0,0,.7-2.77,3.69-3.19Z"/>
      <path class="cls-20" d="m397.43,269.26s9.55,3.49,15.43,10.11c0,0-4.56-9.19-15.43-10.11Z"/>
      <path class="cls-7" d="m397.43,290.53s5.73,2.06,9.99,7.79c0,0-1.77-6.62-9.99-7.79Z"/>
      <path class="cls-20" d="m354.09,295.38s2.2.96,2.5,3.82c0,0-2.06-1.77-2.5-3.82Z"/>
    </g>
    <g>
      <g>
        <path class="cls-3" d="m107.55,162.27c.67-1.31,2.19-2.07,3.57-1.78,1.38.29,2.52,1.61,2.66,3.09.98-.73,2.38-.77,3.39-.09,1.01.68,1.58,2.03,1.37,3.28,1.1-.89,2.91-.52,3.62.74.71,1.26.16,3.12-1.11,3.72.86.06,1.6.92,1.58,1.83-.02.91-.8,1.73-1.67,1.74.87.02,1.68.79,1.78,1.7.11.92-.5,1.87-1.34,2.11.89.39,1.11,1.85.39,2.52-.72.67-2.06.25-2.32-.73-.14.28-.55.35-.76.12-.21-.23-.13-.67.15-.8-.4.56-1.42.3-1.53-.39.3,1.61-1.62,3.12-2.99,2.36.4.67-.16,1.61-.88,1.82-.72.21-1.48-.09-2.16-.42-.68-.34-1.37-.73-2.12-.71-.66,0-1.27.33-1.9.53-1.99.64-4.3.03-5.78-1.52-1.04,1.39-3.49,1.02-4.12-.63-.16.79-.86,1.42-1.62,1.46-.76.04-1.52-.5-1.76-1.26-.02.35-.03.7-.05,1.06-1.44.34-2.86-1.52-2.24-2.93-1.03.02-2-.87-2.13-1.94-.13-1.08.59-2.19,1.59-2.45-1.69-.47-2.98-2.23-3-4.08-.02-1.85,1.24-3.63,2.92-4.14.66-.2,1.44-.2,1.97.27s.6,1.49,0,1.87c-.51-1.66.25-3.64,1.7-4.47,1.45-.83,3.44-.4,4.47.96-.5-.7-.51-1.76-.02-2.47.49-.71,1.44-1.03,2.23-.75.2-1.14,1.33-2,2.41-1.83,1.08.17,1.94,1.34,1.82,2.49.12-.96,1.62-1.24,2.05-.39.61-.17-.18.14-.18.14Z"/>
        <g class="cls-31">
          <path class="cls-20" d="m107.15,172.97c.44-.31,1-.47,1.53-.37.53.11,1.01.51,1.12,1.04.11.53-.22,1.13-.75,1.26-.64.15-1.28-.37-1.93-.28-.23.03-.45.14-.67.2-.93.25-1.86-.36-2.64-.94-.27-.2-.55-.41-.73-.7-.18-.29-.25-.67-.08-.97.24-.41.8-.47,1.28-.42.94.11,1.86.49,2.6,1.09-.02-.15-.05-.3-.07-.44l.34.52Z"/>
          <path class="cls-20" d="m93.56,172.17c.25-.18.52-.36.82-.43.3-.07.66,0,.85.24.26.33.1.86-.24,1.12-.33.26-.77.34-1.19.4-.43.07-.97.08-1.19-.3-.15-.28-.03-.64.2-.86.23-.22.54-.32.85-.42l-.1.24Z"/>
          <g>
            <path class="cls-20" d="m115.02,165.11c.87.36,1.53,1.16,1.73,2.08.06.28.05.62-.19.77-.17.1-.39.06-.59.01-.83-.2-1.66-.39-2.49-.59.4.15.8.31,1.12.59s.53.72.43,1.14c-.12.48-.65.78-1.15.77-.5,0-.96-.26-1.37-.55-.43-.31-.86-.74-.86-1.27,0-.53.66-1.03,1.07-.69-.95-.26-1.85-.67-2.67-1.22-.3-.2-.59-.42-.77-.72-.19-.3-.25-.7-.08-1.01.85-1.54,1.92.72,2.45.92.99.38,2.11-.77,3.37-.24Z"/>
            <path class="cls-20" d="m118.89,171.7c.09.3.03.67-.22.86-.25.2-.68.13-.79-.16.55.17,1.15.37,1.49.84.35.47.26,1.28-.29,1.47-.34.11-.71-.06-1.03-.23-.9-.49-1.76-1.06-2.57-1.69.25.57-.35,1.22-.97,1.27-.62.05-1.2-.28-1.73-.6-.65-.4-1.4-1-1.23-1.74.15-.65.97-.93,1.61-.74.63.19,1.11.7,1.56,1.19-.35-.51.15-1.26.76-1.34.59-.08,1.19.28,1.56.72-.69-.38-.85-1.37.08-1.48.6-.07,1.62,1.15,1.77,1.65Z"/>
            <path class="cls-20" d="m99.91,169.48c.52-.2,1.18.14,1.32.68.14.54-.26,1.16-.82,1.24.41.03.79.24,1.05.55.14.17.25.4.22.62-.05.33-.41.55-.74.57-.34.01-.66-.13-.97-.27.33.03.69.07.95.28.26.21.38.64.14.88-.2.2-.53.16-.8.09-.61-.17-1.17-.49-1.63-.92-.34.38-.86.66-1.36.57s-.94-.62-.78-1.11c.11-.35.48-.57.84-.61.36-.04.73.06,1.08.17-.36-.25-.74-.54-.87-.96-.13-.42.15-.98.59-.95.49.04.74.71,1.13.95.48-.45-.42-1.38.63-1.78Z"/>
            <path class="cls-20" d="m108.77,167.43c.56.38.75,1.13.71,1.8-.04.74-.38,1.54-1.06,1.84-.9.39-2.02-.35-2.19-1.32-.16-.97.47-1.95,1.34-2.4,0,0,.64-.29,1.2.09Z"/>
            <path class="cls-20" d="m102.49,166.63c-.08.07-.15.13-.23.2.38-.48,1.19-.55,1.64-.13.45.42.46,1.22,0,1.64s-1.25.36-1.64-.12c-.65.3-1.5.18-1.96-.37-.46-.55-.35-1.51.27-1.86.62-.35,1.57.18,1.5.89.09-.1.18-.2.27-.3l.15.05Z"/>
            <path class="cls-20" d="m95.57,167.75c.44.44.91.9,1.07,1.51.16.6-.11,1.37-.71,1.52-.6.15-1.17-.34-1.51-.86-.31-.47-.54-1.05-.37-1.58.18-.53.94-.84,1.32-.44l.2-.16Z"/>
            <path class="cls-20" d="m105.55,164.11c.23-.5.94-.68,1.41-.39.47.29.64.95.44,1.46-.2.51-.73.86-1.28.92-.68.07-1.49-.48-1.33-1.14-.29.39-.82.54-1.3.49-.48-.05-.93-.27-1.35-.51-.57-.33-1.18-.84-1.12-1.49.05-.52.55-.93,1.08-.97.52-.05,1.04.19,1.44.54.31.27.57.6.91.83.34.23.8.36,1.17.16l-.05.1Z"/>
          </g>
        </g>
      </g>
      <g>
        <polygon class="cls-3" points="97.02 195 114.19 195 115.87 177.69 95.34 177.69 97.02 195"/>
        <polygon class="cls-10" points="97.02 195 114.19 195 115.87 177.69 95.34 177.69 97.02 195"/>
        <polygon class="cls-20" points="94.01 178.59 117.37 178.59 117.79 176.29 93.59 176.29 94.01 178.59"/>
      </g>
    </g>
  </g>
  <g id="Desk">
    <g>
      <g>
        <g>
          <path class="cls-21" d="m123.31,205.85h7.52l.22,144.06c0,1.51-1.22,2.74-2.73,2.74h0c-1.49,0-2.71-1.2-2.73-2.69l-2.28-144.1Z"/>
          <path class="cls-28" d="m123.31,205.85h7.52l.22,144.06c0,1.51-1.22,2.74-2.73,2.74h0c-1.49,0-2.71-1.2-2.73-2.69l-2.28-144.1Z"/>
        </g>
        <g>
          <path class="cls-21" d="m82.18,205.85h7.52l.22,144.06c0,1.51-1.22,2.74-2.73,2.74h0c-1.49,0-2.71-1.2-2.73-2.69l-2.28-144.1Z"/>
          <path class="cls-28" d="m82.18,205.85h7.52l.22,144.06c0,1.51-1.22,2.74-2.73,2.74h0c-1.49,0-2.71-1.2-2.73-2.69l-2.28-144.1Z"/>
        </g>
        <g>
          <path class="cls-21" d="m302.19,205.85h7.52l.22,144.06c0,1.51-1.22,2.74-2.73,2.74h0c-1.49,0-2.71-1.2-2.73-2.69l-2.28-144.1Z"/>
          <path class="cls-28" d="m302.19,205.85h7.52l.22,144.06c0,1.51-1.22,2.74-2.73,2.74h0c-1.49,0-2.71-1.2-2.73-2.69l-2.28-144.1Z"/>
        </g>
        <g>
          <path class="cls-21" d="m261.07,205.85h7.52l.22,144.06c0,1.51-1.22,2.74-2.73,2.74h0c-1.49,0-2.71-1.2-2.73-2.69l-2.28-144.1Z"/>
          <path class="cls-28" d="m261.07,205.85h7.52l.22,144.06c0,1.51-1.22,2.74-2.73,2.74h0c-1.49,0-2.71-1.2-2.73-2.69l-2.28-144.1Z"/>
        </g>
        <polygon class="cls-3" points="82.48 232.85 309.01 231.15 309.01 205.85 82.43 205.85 82.48 232.85"/>
        <polygon class="cls-10" points="123.31 206.04 123.73 232.53 82.48 232.85 82.43 205.85 123.31 206.04"/>
      </g>
      <path class="cls-21" d="m317.83,199.78h0c0-3.41-1.27-6.17-2.83-6.18H79.01c-1.56.01-2.83,2.77-2.83,6.18h0c0,3.41,1.27,6.17,2.83,6.18h235.99c1.56-.01,2.83-2.77,2.83-6.18Z"/>
      <path class="cls-22" d="m317.83,199.78h0c0-3.41-1.27-6.17-2.83-6.18H79.01c-1.56.01-2.83,2.77-2.83,6.18h0c0,3.41,1.27,6.17,2.83,6.18h235.99c1.56-.01,2.83-2.77,2.83-6.18Z"/>
      <path class="cls-10" d="m137.09,199.78h0c0-3.41-1.27-6.17-2.83-6.18h-55.24c-1.56.01-2.83,2.77-2.83,6.18h0c0,3.41,1.27,6.17,2.83,6.18h55.24c1.56-.01,2.83-2.77,2.83-6.18Z"/>
    </g>
  </g>
  <g id="Speech_bubble" data-name="Speech bubble">
    <g>
      <g>
        <path class="cls-3" d="m231.08,76.84c-1.51,0-2.73-1.23-2.73-2.73v-6.73h-1.32c-1.94,0-3.51-1.57-3.51-3.51v-31.87c0-1.93,1.58-3.49,3.5-3.49h49.75c1.93,0,3.5,1.57,3.5,3.5v31.86c0,1.94-1.57,3.51-3.51,3.51h-32.5l-11.52,8.91c-.47.36-1.05.55-1.64.55Zm-4.07-47.33c-1.37,0-2.49,1.11-2.5,2.49v31.87c0,1.38,1.13,2.51,2.51,2.51h2.32v7.73c0,.96.78,1.73,1.73,1.73.37,0,.74-.12,1.03-.35l11.79-9.12h32.84c1.38,0,2.51-1.13,2.51-2.51v-31.86c0-1.38-1.12-2.5-2.5-2.5h-49.74Z"/>
        <g>
          <rect class="cls-3" x="242.98" y="24.53" width="6.23" height=".76"/>
          <path class="cls-3" d="m220.08,33.51h-.76v-3.76c0-2.89,2.35-5.23,5.24-5.23h13.89v.76h-13.89c-2.47,0-4.47,2-4.47,4.47v3.76Z"/>
        </g>
      </g>
      <g>
        <circle class="cls-3" cx="240.65" cy="47.38" r="3.3"/>
        <path class="cls-3" d="m255.08,47.38c0,1.82-1.48,3.3-3.3,3.3s-3.3-1.48-3.3-3.3,1.48-3.3,3.3-3.3,3.3,1.48,3.3,3.3Z"/>
        <circle class="cls-3" cx="262.9" cy="47.38" r="3.3"/>
      </g>
    </g>
  </g>
  <g id="Character_1" data-name="Character 1">
    <g>
      <g>
        <g>
          <g>
            <g>
              <path class="cls-3" d="m141.96,127.73l3.97-.18,5.58,61.57h-4.22c-2.11-.2-2.6-2.56-3.18-7.02l-3.9-42.98c-.91-10.19.83-11.39,1.75-11.39Z"/>
              <path class="cls-10" d="m141.96,127.73l3.97-.18,5.58,61.57h-4.22c-2.11-.2-2.6-2.56-3.18-7.02l-3.9-42.98c-.91-10.19.83-11.39,1.75-11.39Z"/>
              <path class="cls-3" d="m148.29,189.12h83.44c.92,0,1.59-.86,1.49-1.93l-5.22-57.71c-.1-1.07-.93-1.93-1.85-1.93h-83.44c-.92,0-1.59.86-1.49,1.93l5.22,57.71c.1,1.07.93,1.93,1.85,1.93Z"/>
            </g>
            <g>
              <polygon class="cls-3" points="151.49 181.83 227.27 181.83 223.07 133.79 147.29 133.79 151.49 181.83"/>
              <path class="cls-21" d="m152.53,185.59h74.68c2.12,0,3.69-1.72,3.5-3.84l-4.18-47.74c-.19-2.12-2.05-3.84-4.17-3.84h-74.68c-2.12,0-3.69,1.72-3.5,3.84l4.18,47.74c.19,2.12,2.05,3.84,4.17,3.84Z"/>
              <g>
                <polygon class="cls-3" points="151.49 181.83 227.27 181.83 223.07 133.79 147.29 133.79 151.49 181.83"/>
                <polygon class="cls-2" points="151.49 181.83 227.27 181.83 223.07 133.79 147.29 133.79 151.49 181.83"/>
              </g>
              <g>
                <polygon class="cls-1" points="173.29 130.2 158.49 185.57 163.47 185.57 178.11 130.2 173.29 130.2"/>
                <polygon class="cls-1" points="180.98 130.2 166.18 185.57 176.05 185.57 190.69 130.2 180.98 130.2"/>
              </g>
            </g>
          </g>
          <g>
            <g>
              <path class="cls-3" d="m158.21,148.12c.26,2.12-1.25,3.84-3.37,3.84s-4.05-1.72-4.31-3.84c-.26-2.12,1.25-3.84,3.37-3.84s4.05,1.72,4.31,3.84Z"/>
              <path class="cls-10" d="m158.21,148.12c.26,2.12-1.25,3.84-3.37,3.84s-4.05-1.72-4.31-3.84c-.26-2.12,1.25-3.84,3.37-3.84s4.05,1.72,4.31,3.84Z"/>
              <path class="cls-18" d="m154.84,151.96c.82,0,1.54-.26,2.11-.69l-.36-1.2c-.14-.46-.57-.79-1.04-.79h-.46l-.06-.5c.47-.25.75-.81.67-1.47-.11-.89-.84-1.61-1.64-1.61s-1.35.72-1.24,1.61c.08.66.5,1.22,1.03,1.47l.06.5h-.46c-.46,0-.82.33-.84.79l-.06,1.2c.68.43,1.46.69,2.28.69Z"/>
            </g>
            <path class="cls-18" d="m160.95,147.39h15.1c.69,0,.56-1.08-.13-1.08h-15.1c-.69,0-.56,1.08.13,1.08h0Z"/>
            <g>
              <path class="cls-18" d="m161.26,149.93h19.9c.46,0,.38-.72-.09-.72h-19.9c-.46,0-.38.72.09.72h0Z"/>
              <path class="cls-21" d="m184.9,149.57c.06.47-.28.85-.74.85s-.89-.38-.95-.85c-.06-.47.28-.85.74-.85s.89.38.95.85Z"/>
              <path class="cls-12" d="m184.9,149.57c.06.47-.28.85-.74.85s-.89-.38-.95-.85c-.06-.47.28-.85.74-.85s.89.38.95.85Z"/>
            </g>
          </g>
          <g>
            <polygon class="cls-3" points="147.29 133.79 147.66 138.09 223.44 138.09 223.07 133.79 147.29 133.79"/>
            <g>
              <path class="cls-18" d="m150.77,135.7c.04.48-.31.87-.79.87s-.9-.39-.94-.87c-.04-.48.31-.87.79-.87s.9.39.94.87Z"/>
              <path class="cls-18" d="m153.05,135.7c.04.48-.31.87-.79.87s-.9-.39-.94-.87c-.04-.48.31-.87.79-.87s.9.39.94.87Z"/>
              <path class="cls-18" d="m155.34,135.7c.04.48-.31.87-.79.87s-.9-.39-.94-.87c-.04-.48.31-.87.79-.87s.9.39.94.87Z"/>
            </g>
          </g>
        </g>
        <g>
          <rect class="cls-3" x="145.72" y="189.29" width="88.68" height="4.7" rx="1.81" ry="1.81"/>
          <rect class="cls-10" x="145.72" y="189.29" width="88.68" height="4.7" rx="1.81" ry="1.81"/>
          <g>
            <path class="cls-3" d="m179.47,189.29h87.95v1.07c0,2-1.62,3.62-3.62,3.62h-80.7c-2,0-3.62-1.62-3.62-3.62v-1.07h0Z"/>
            <g>
              <path class="cls-2" d="m179.47,189.29h87.95v1.07c0,2-1.62,3.62-3.62,3.62h-80.7c-2,0-3.62-1.62-3.62-3.62v-1.07h0Z"/>
              <path class="cls-10" d="m219.1,189.42c0,1.3,1.05,2.35,2.35,2.35h10.76c1.3,0,2.35-1.05,2.35-2.35h-15.45Z"/>
            </g>
          </g>
        </g>
      </g>
      <g>
        <g>
          <polygon class="cls-3" points="227.27 181.94 151.55 181.94 151.14 177.26 226.86 177.26 227.27 181.94"/>
          <polygon class="cls-18" points="217.12 179.89 164.52 179.89 164.49 179.48 217.09 179.48 217.12 179.89"/>
          <g>
            <path class="cls-18" d="m218.61,179.92c.02.19-.11.36-.41.36-.16,0-.32-.05-.43-.13l.07-.16c.09.07.21.11.34.11.15,0,.23-.06.22-.17,0-.11-.08-.17-.31-.17h-.27v-.6h.65v.17s-.46,0-.46,0v.26s.1,0,.1,0c.33,0,.47.14.49.34Z"/>
            <path class="cls-18" d="m218.68,179.54c0-.08.05-.13.12-.13s.13.05.14.13c0,.08-.05.13-.12.13s-.13-.06-.14-.13Zm.05.6c0-.08.05-.13.12-.13s.13.05.14.13c0,.08-.05.13-.12.13s-.13-.06-.14-.13Z"/>
            <path class="cls-18" d="m219.09,179.71c-.03-.36.15-.57.41-.57s.48.21.51.57c.03.36-.15.57-.41.57s-.48-.21-.51-.57Zm.72,0c-.02-.27-.14-.39-.29-.39s-.24.12-.22.39c.02.27.14.39.29.39s.24-.12.22-.39Z"/>
            <path class="cls-18" d="m220.15,179.71c-.03-.36.15-.57.41-.57s.48.21.51.57c.03.36-.15.57-.41.57s-.48-.21-.51-.57Zm.72,0c-.02-.27-.14-.39-.29-.39s-.24.12-.22.39c.02.27.14.39.29.39s.24-.12.22-.39Z"/>
          </g>
          <g>
            <path class="cls-18" d="m153.9,180.09l.02.17h-.82v-.14s.39-.42.39-.42c.1-.1.11-.17.11-.23,0-.1-.08-.16-.22-.16-.11,0-.19.04-.25.12l-.15-.11c.08-.12.22-.18.4-.18.24,0,.41.12.42.32,0,.11-.01.21-.15.35l-.27.28h.52Z"/>
            <path class="cls-18" d="m153.97,179.54c0-.08.05-.13.12-.13s.13.05.14.13c0,.08-.05.13-.12.13s-.13-.06-.14-.13Zm.05.6c0-.08.05-.13.12-.13s.13.05.14.13c0,.08-.05.13-.12.13s-.13-.06-.14-.13Z"/>
            <path class="cls-18" d="m155.2,179.92c.02.19-.11.36-.41.36-.16,0-.32-.05-.43-.13l.07-.16c.09.07.21.11.34.11.15,0,.23-.06.22-.17,0-.11-.08-.17-.31-.17h-.27v-.6h.65v.17s-.46,0-.46,0v.26s.1,0,.1,0c.33,0,.47.14.49.34Z"/>
            <path class="cls-18" d="m155.3,179.71c-.03-.36.15-.57.41-.57s.48.21.51.57c.03.36-.15.57-.41.57s-.48-.21-.51-.57Zm.72,0c-.02-.27-.14-.39-.29-.39s-.24.12-.22.39c.02.27.14.39.29.39s.24-.12.22-.39Z"/>
          </g>
          <path class="cls-18" d="m225.78,181.36h-3.34l-.29-3.34h3.34l.29,3.34Zm-2.83-.55h2.23l-.2-2.23h-2.23l.2,2.23Z"/>
          <polygon class="cls-21" points="187.35 179.11 157.28 179.11 157.38 180.26 187.45 180.26 187.35 179.11"/>
          <path class="cls-21" d="m188.45,179.65c.05.58-.38,1.06-.96,1.06s-1.1-.47-1.15-1.06c-.05-.58.38-1.06.96-1.06s1.1.47,1.15,1.06Z"/>
        </g>
        <path class="cls-18" d="m188.45,179.65c.05.58-.38,1.06-.96,1.06s-1.1-.47-1.15-1.06c-.05-.58.38-1.06.96-1.06s1.1.47,1.15,1.06Z"/>
      </g>
    </g>
    <g>
      <g>
        <g>
          <path class="cls-27" d="m217.36,105.12s8.3.89,12.4,9.67c4.1,8.78,7.37,21.53,10.44,22.86,3.07,1.33,16.5-11.89,16.5-11.89,0,0-2.73-8.75,1.37-10.11,4.1-1.37,3.28-7.49,7.11-6.21,3.83,1.29,6.01,6.75,5.74,9.76-.27,3.01-7.38,9.84-7.38,9.84,0,0-12.85,22.87-25.97,20.77-13.12-2.09-20.21-32.74-20.21-32.74,0,0-3.69-12.44,0-11.96Z"/>
          <path class="cls-29" d="m221,128.34c2.88,7.76,5.25,13.37,10.72,18.34-5.93-9.51-5.28-26.54-5.28-26.54l-5.44,8.19Z"/>
        </g>
        <path class="cls-3" d="m172.41,107.83c5.19-1.47,9.92-2.54,14.25-3.3l.16.14.25.24,2.11,1.61,5.73,3.46,4.71.74,4.56-1.11,2.92-4.06.53-2.33v-.07c7.34.49,12.16,2.08,14.88,3.33,1.69.78,2.81,2.44,2.92,4.3.16,2.77.64,7.86,2.04,16.1,1.9,11.22-3.92,36.33-6.17,45.38-.51,2.05-2.23,3.55-4.32,3.83-17.91,2.36-32.01,1.17-38.85.25-2.51-.34-4.4-2.45-4.43-4.98-.16-14.38-3.67-46.47-4.99-58.02-.28-2.48,1.28-4.8,3.68-5.49Z"/>
        <path class="cls-21" d="m172.41,107.83c5.19-1.47,9.92-2.54,14.25-3.3l.16.14.25.24,2.11,1.61,5.73,3.46,4.71.74,4.56-1.11,2.92-4.06.53-2.33v-.07c7.34.49,12.16,2.08,14.88,3.33,1.69.78,2.81,2.44,2.92,4.3.16,2.77.64,7.86,2.04,16.1,1.9,11.22-3.92,36.33-6.17,45.38-.51,2.05-2.23,3.55-4.32,3.83-17.91,2.36-32.01,1.17-38.85.25-2.51-.34-4.4-2.45-4.43-4.98-.16-14.38-3.67-46.47-4.99-58.02-.28-2.48,1.28-4.8,3.68-5.49Z"/>
        <path class="cls-21" d="m187.08,67.27c-1.87,5.43-4.98,11.36-3.64,16.95,1.33,5.59,7.39,10.77,12.85,12.59,6.34,2.11,13.71,4.39,18.39-.37,2.32-2.35.99-7.09-1.16-9.6-2.15-2.51-5.95-3.44-9.01-2.21.52-2.68.05-5.9-.53-8.56-.8-3.61-2.73-7.1-5.87-9.05-3.14-1.95-9.82-3.22-11.02.27Z"/>
        <path class="cls-27" d="m189.08,104.13c3.71-3.9,2.22-21.4,2.22-21.4l10.85,7.38s.65,10.83,3.24,12.92c.61.49,1.5.08,2.23.12l-.66,2.75-2.02,3.42-2.79,1.98h-4.11l-3.69-1.05-4.22-2.94-3.43-2.77c.79-.14,1.83.16,2.37-.4Z"/>
        <path class="cls-29" d="m203.11,97.35c-7.14-.81-10.42-4.52-11.91-7.45l.3-2.92,10.85,7.38.75,3Z"/>
        <path class="cls-27" d="m187.05,75.74c2.29,9.02,3.07,12.87,8.56,16.67,8.26,5.73,18.83.93,19.29-8.57.39-8.57-3.43-21.91-13.04-23.79-6.86-1.41-13.57,3-14.98,9.86-.4,1.93-.34,3.93.17,5.83Z"/>
        <path class="cls-21" d="m202.04,75.37c.15.74.66,1.27,1.14,1.18.48-.09.77-.78.63-1.52-.13-.74-.66-1.27-1.14-1.18-.48.09-.73.8-.63,1.52Z"/>
        <path class="cls-21" d="m210.43,73.79c.15.75.66,1.27,1.14,1.18.48-.09.77-.78.63-1.52-.13-.74-.66-1.27-1.14-1.17-.48.1-.77.76-.63,1.5Z"/>
        <path class="cls-21" d="m210.85,72.37l1.68-.85s-.65,1.57-1.68.85Z"/>
        <path class="cls-24" d="m208.09,75.63c.99,1.57,2.18,2.99,3.56,4.24-.67.69-1.6,1.05-2.56,1l-1-5.24Z"/>
        <path class="cls-21" d="m198.35,74.32c.19,0,.36-.13.42-.32.58-1.34,1.7-2.38,3.08-2.86.23-.08.36-.33.28-.57-.08-.23-.32-.35-.55-.28,0,0-.01,0-.02,0-1.66.57-2.99,1.83-3.65,3.46-.07.23.07.47.3.54h0s.09.02.14.02Z"/>
        <path class="cls-21" d="m212.21,69.45c.16,0,.31-.1.39-.24.11-.22.04-.48-.18-.6-1.25-.74-2.78-.81-4.09-.18-.21.1-.3.36-.19.57,0,.01.01.02.02.03.11.21.38.29.59.18,0,0,0,0,0,0h0c1.04-.45,2.23-.38,3.2.19.08.05.17.07.26.06Z"/>
        <path class="cls-21" d="m202.46,74.01l1.68-.85s-.65,1.52-1.68.85Z"/>
        <path class="cls-21" d="m215.76,58.05c2.43,1.83,3.62,4.85,2.88,7.5-.35,1.25-1.08,2.41-1.13,3.71-.05,1.29.96,2.81,2.44,2.8-2.05.23-4.17.45-6.17-.09s-3.87-2.05-3.94-3.86c-.03-.67.19-1.33.23-2,.04-.67-.15-1.43-.77-1.84-1.11-.73-2.58.05-3.92.23-2.45.32-4.87-1.95-4.57-4.1.3-2.15,6.22-8.92,14.95-2.35Z"/>
        <path class="cls-21" d="m206.68,54.95c3.27,1.81,12.07,10.88-11.65,9.39,0,0,.05,14.83-7.41,16.84l-19.51-3.22s7.76-40.03,38.57-23.01Z"/>
        <path class="cls-21" d="m170.69,68.96c-1.87,5.43-4.98,11.36-3.64,16.95,1.33,5.59,7.39,10.77,12.85,12.59,6.34,2.11,13.71,4.39,18.39-.37,2.32-2.35.99-7.09-1.16-9.6s-5.95-3.44-9.01-2.21c.52-2.68.05-5.9-.53-8.56-.8-3.61-2.73-7.1-5.87-9.05-3.14-1.95-9.82-3.22-11.02.27Z"/>
        <path class="cls-27" d="m185.9,83.23c.88,1.52,2.33,2.64,4.03,3.1,2.27.58,3.36-1.46,2.7-3.59-.62-1.91-2.53-4.52-4.79-4.19-1.63.29-2.73,1.84-2.44,3.48.08.43.25.85.5,1.21Z"/>
        <g>
          <path class="cls-21" d="m209.87,83.45s-3.15,1.71-7.39,0c0,0-.3,4.55,5.09,4.17.58-.04,2.3-.29,2.3-.29,0,0-.45-1.86,0-3.88Z"/>
          <path class="cls-18" d="m202.72,85.02c-.28-.84-.24-1.56-.24-1.56,2.63,1.06,4.83.8,6.14.46v1.49s-3.57.63-5.89-.38Z"/>
          <path class="cls-5" d="m203.23,86.02c.38-.05.78-.08,1.19-.08,1.95,0,3.68.58,4.82,1.48-.55.08-1.31.18-1.66.2-2.41.17-3.68-.65-4.35-1.6Z"/>
        </g>
        <path class="cls-3" d="m209.7,103.14s-2.54-.86-3.56,0c0,0,.18,6.59-5.13,7.42-5.32.83-13.49-6.38-13.49-6.38,0,0-1.53-.51-3.56.55l20.92,22.79c8.39-8.82,4.83-24.39,4.83-24.39Z"/>
        <g>
          <path class="cls-27" d="m171.41,129.61c-2.03-2.74-6.13-14.08-1.63-20.24,4.5-6.16,31.64,30.92,31.64,30.92,4.58-2.27,25.84-9.4,25.84-9.4,0,0,.71-7.42,3.84-9.23,3.13-1.81,4.57-6.57,7.24-3.75,2.67,2.82,5.78,10.64,1.68,13.6-4.1,2.96-8.21,5.23-8.21,5.23,0,0-16.37,11.53-28.26,15.52-11.89,3.99-23.73-11.3-32.13-22.64Z"/>
          <path class="cls-22" d="m171.41,129.61c-2.03-2.74-6.13-14.08-1.63-20.24,4.5-6.16,31.64,30.92,31.64,30.92,4.58-2.27,25.84-9.4,25.84-9.4,0,0,.71-7.42,3.84-9.23,3.13-1.81,4.57-6.57,7.24-3.75,2.67,2.82,5.78,10.64,1.68,13.6-4.1,2.96-8.21,5.23-8.21,5.23,0,0-16.37,11.53-28.26,15.52-11.89,3.99-23.73-11.3-32.13-22.64Z"/>
        </g>
        <path class="cls-22" d="m171.41,129.61c-2.03-2.74-6.13-14.08-1.63-20.24,4.5-6.16,31.64,30.92,31.64,30.92,4.58-2.27,25.84-9.4,25.84-9.4,0,0,.71-7.42,3.84-9.23,3.13-1.81,4.57-6.57,7.24-3.75,2.67,2.82,5.78,10.64,1.68,13.6-4.1,2.96-8.21,5.23-8.21,5.23,0,0-16.37,11.53-28.26,15.52-11.89,3.99-23.73-11.3-32.13-22.64Z"/>
        <path class="cls-21" d="m222.59,178.34l-1.28-6.1s-33.26,3.45-47.44.29l-1.86,5.81h50.58Z"/>
      </g>
      <path class="cls-18" d="m189.83,88.02c0,1-.81,1.8-1.8,1.8s-1.8-.81-1.8-1.8.81-1.8,1.8-1.8,1.8.81,1.8,1.8Z"/>
    </g>
  </g>
  <g id="Character_2" data-name="Character 2">
    <g>
      <g>
        <g>
          <g id="Character">
            <g>
              <path class="cls-17" d="m302.22,103.55c-1.02,2.17-2.32,4.2-3.88,6.03,1.19,1.23,3.4.77,3.4.77l.48-6.8Z"/>
              <path class="cls-6" d="m327.34,114.87l-6.65,4.95-9.08,6.74c.48,1.04.76,2.16.83,3.3.28,2.53.57,4.39-5.05,5.86-1.22.27-2.17,1.23-2.43,2.45-.24,1.49.64,3.3,5.81,4.26,5,.82,10.13.02,14.65-2.28,2.21-1.06,2.23-2.38,1.34-4.62-2.67-6.37-1.22-14.42.58-20.67Z"/>
              <path class="cls-21" d="m300.46,102.85c-.2.78-.03,1.5.38,1.6.41.1.9-.45,1.09-1.24.2-.78.03-1.5-.38-1.6-.41-.1-.9.45-1.09,1.24Z"/>
              <path class="cls-21" d="m306.36,101.67c-.17,0-.34-.09-.43-.25-.81-1.42-2.39-2.36-4.03-2.4-.28,0-.49-.24-.49-.51,0-.27.23-.49.5-.49h.01c1.98.04,3.89,1.18,4.87,2.9.14.24.05.55-.19.68-.08.04-.16.07-.25.07Z"/>
              <path class="cls-6" d="m300.41,113.91c.47,4.76,3.18,8.71,6.83,10.97,1.3.81,2.71,1.4,4.19,1.73,3.42.76,7.14.15,10.43-2.33,5.79-4.38,6.46-10.31,8.47-20.27.42-2.02.4-4.1-.06-6.1-1.77-7.6-9.35-12.32-16.95-10.57-10.37,2.47-13.8,17.2-12.9,26.57Z"/>
              <path class="cls-15" d="m307.24,124.88c1.3.81,2.71,1.4,4.19,1.73l.18-.04-.64-2.02s-.85,1.48-3.74.33Z"/>
              <path class="cls-21" d="m333.23,111.16c-1.68,3.44-3.76,6.88-6.93,9.01-1.17.79-10.05.21-10.05.21.08-3.02-3.73-13.4-5.57-16.89-.57,1.43.24,3.39-.49,4.71-.98-.19-18.79-6.59-10.94-19.38,5.53-9.03,20.4-9.82,26.56-.91,2.61-.82,5.55.25,7.43,2.22,1.89,1.98,2.78,4.72,3.03,7.43.43,4.69-.98,9.38-3.04,13.61Z"/>
            </g>
          </g>
          <path class="cls-6" d="m316.77,106.05c-.19,2.28-1.21,4.41-2.86,5.98-2.15,2-4.82-.13-5.16-3-.3-2.57.95-6.33,3.56-7.23,2.61-.9,4.68,1.42,4.46,4.24Z"/>
        </g>
        <g>
          <g>
            <polygon class="cls-6" points="230.76 330.8 221.55 326.28 228.36 303.84 239.58 310.1 230.76 330.8"/>
            <polygon class="cls-4" points="242 303.94 230.19 297.13 225.51 313.3 236.17 318.32 242 303.94"/>
          </g>
          <g>
            <path class="cls-21" d="m221,324.49l10.55,4.87c.38.15.56.63.41,1.09l-3.45,10.26c-.44,1.09-1.52,1.64-2.44,1.24-3.64-1.77-5.31-2.83-9.94-4.97-2.86-1.32-9.37-4.42-13.43-5.89-4.06-1.47-2.38-6.24-.52-6.05,8.37.89,13.29.69,16.93-.58.64-.23,1.3-.21,1.9.05Z"/>
            <g>
              <path class="cls-3" d="m215.57,325.19c.84.33,1.72.57,2.61.71.09.02.18-.02.23-.1.06-.07.09-.16.06-.25-.21-.34-2.13-3.3-3.47-3.35-.31-.02-.61.13-.78.4-.31.37-.4.88-.24,1.34.36.59.92,1.04,1.58,1.25Zm2.21.16c-1.83-.44-3.07-.96-3.32-1.6-.09-.3-.01-.62.2-.84.08-.13.22-.22.37-.22.71.02,1.94,1.49,2.74,2.65Z"/>
              <path class="cls-3" d="m218.19,325.91s.07.02.11.03c.08-.01.16-.06.2-.13.03-.12,1.43-2.75.86-4.07-.13-.35-.44-.62-.8-.71-.39-.16-.84-.02-1.08.32-.66.94-.08,3.52.62,4.48.02.04.06.07.11.08Zm.34-4.39c.18.08.32.22.39.4.14,1.13-.1,2.28-.66,3.27-.58-1.09-.72-2.37-.39-3.56.03-.13.21-.24.55-.15l.12.04Z"/>
            </g>
          </g>
          <g>
            <g>
              <g>
                <path class="cls-3" d="m300.92,214.81s-54.28-9.34-61.11,20.35c-5.28,20.79-7.83,29.25-14.53,75.35l14.33,3.24s23.1-47.22,24.45-67.3c16.2,2.73,53.06,10.42,60.92-3.3,3.93-6.97,6.56-14.6,7.75-22.52l-31.8-5.83Z"/>
                <g class="cls-32">
                  <path class="cls-9" d="m300.92,214.81s-54.28-9.34-61.11,20.35c-5.28,20.79-7.83,29.25-14.53,75.35l14.33,3.24s23.1-47.22,24.45-67.3c16.2,2.73,53.06,10.42,60.92-3.3,3.93-6.97,6.56-14.6,7.75-22.52l-31.8-5.83Z"/>
                </g>
              </g>
              <polygon class="cls-3" points="241.44 316.93 223.09 310.51 224.81 302.2 243.64 309.85 241.44 316.93"/>
            </g>
            <g>
              <polygon class="cls-6" points="192.77 327.48 183.09 322.11 192.71 303.51 204.64 308.37 192.77 327.48"/>
              <polygon class="cls-4" points="207.97 302.65 197.34 294.11 190.25 309.38 200.02 315.97 207.97 302.65"/>
            </g>
            <g>
              <path class="cls-21" d="m184.08,319.76l9.69,6.42c.35.21.45.71.24,1.13l-4.98,9.61c-.6,1.01-1.76,1.39-2.6.85-3.33-2.3-4.81-3.6-9.07-6.43-2.62-1.74-8.58-5.79-12.37-7.87-3.79-2.08-1.4-6.53.41-6.06,8.13,2.15,13.03,2.71,16.82,2,.66-.13,1.32-.01,1.87.34Z"/>
              <g>
                <path class="cls-3" d="m178.61,319.62c.78.45,1.61.82,2.47,1.11.09.03.18,0,.24-.06.07-.06.11-.15.1-.24-.15-.37-1.6-3.59-2.92-3.84-.31-.07-.62.04-.83.27-.37.32-.53.81-.44,1.28.26.64.75,1.17,1.37,1.47Zm2.16.49c-1.74-.72-2.89-1.42-3.04-2.08-.04-.31.08-.61.33-.8.1-.12.25-.18.4-.16.7.12,1.69,1.76,2.31,3.04Z"/>
                <path class="cls-3" d="m181.09,320.73s.06.03.1.04c.08,0,.16-.04.22-.1.05-.11,1.83-2.5,1.47-3.89-.08-.37-.34-.68-.69-.82-.36-.21-.83-.15-1.12.16-.8.83-.62,3.46-.07,4.52.02.04.05.08.09.1Zm1-4.29c.17.1.28.27.33.46-.04,1.14-.44,2.24-1.15,3.13-.41-1.17-.35-2.45.16-3.58.05-.13.25-.21.57-.06l.11.06Z"/>
              </g>
            </g>
            <g>
              <g>
                <path class="cls-3" d="m283.81,211.92c-.38-.06-59.51-16.06-69.31,17.44-13.44,40.78-23.42,75.38-23.42,75.38l11.6,8.41s29.58-40.94,33.98-69.01c18.48-2.08,62.64,14.11,70.49.41,6.43-11.2,6.74-27.55,6.74-27.55l-30.09-5.08Z"/>
                <path class="cls-10" d="m283.81,211.92c-.38-.06-59.51-16.06-69.31,17.44-13.44,40.78-23.42,75.38-23.42,75.38l11.6,8.41s29.58-40.94,33.98-69.01c18.48-2.08,62.64,14.11,70.49.41,6.43-11.2,6.74-27.55,6.74-27.55l-30.09-5.08Z"/>
              </g>
              <polygon class="cls-3" points="204.41 315.31 188.73 304.8 191.26 298.09 208.12 307.29 204.41 315.31"/>
            </g>
            <g>
              <path class="cls-3" d="m338.8,143.51c-1.04,4.02-2.21,7.95-3.52,11.9-1.31,3.95-2.81,7.88-4.57,11.82-1.79,4.11-4,8.03-6.61,11.68-1.54,2.14-3.37,4.05-5.45,5.66-1.28.98-2.7,1.78-4.2,2.38-.86.33-1.76.57-2.67.73l-.73.11c-.38.03-.8.06-1.17.06-.63-.01-1.25-.08-1.87-.21-.91-.19-1.8-.47-2.65-.85-.67-.29-1.33-.62-1.96-1-1.06-.66-2.08-1.38-3.05-2.17-1.75-1.37-8.09-11.4-12.59-18.35l5.37-4.49c5.82,5.28,11.73,10.69,17.65,15.32,1.52,1.08-4.89-3.24-3.46-2.33.64.4,1.31.76,2,1.07.56.27,1.12.39.97.29-.12-.04-.25-.06-.38-.06-.14-.01-.29,0-.43.01h0s.11-.04.21-.11c.33-.19.65-.42.93-.68,1-.94,1.89-2,2.65-3.15,1.89-2.97,3.49-6.12,4.77-9.4,1.45-3.49,2.65-7.04,3.8-10.69,1.15-3.66,2.22-7.37,3.18-11.14.96-3.77,14.84-.43,13.8,3.6Z"/>
              <path class="cls-19" d="m338.8,143.51c-1.04,4.02-2.21,7.95-3.52,11.9-1.31,3.95-2.81,7.88-4.57,11.82-1.79,4.11-4,8.03-6.61,11.68-1.54,2.14-3.37,4.05-5.45,5.66-1.28.98-2.7,1.78-4.2,2.38-.86.33-1.76.57-2.67.73l-.73.11c-.38.03-.8.06-1.17.06-.63-.01-1.25-.08-1.87-.21-.91-.19-1.8-.47-2.65-.85-.67-.29-1.33-.62-1.96-1-1.06-.66-2.08-1.38-3.05-2.17-1.75-1.37-8.09-11.4-12.59-18.35l5.37-4.49c5.82,5.28,11.73,10.69,17.65,15.32,1.52,1.08-4.89-3.24-3.46-2.33.64.4,1.31.76,2,1.07.56.27,1.12.39.97.29-.12-.04-.25-.06-.38-.06-.14-.01-.29,0-.43.01h0s.11-.04.21-.11c.33-.19.65-.42.93-.68,1-.94,1.89-2,2.65-3.15,1.89-2.97,3.49-6.12,4.77-9.4,1.45-3.49,2.65-7.04,3.8-10.69,1.15-3.66,2.22-7.37,3.18-11.14.96-3.77,14.84-.43,13.8,3.6Z"/>
              <g>
                <path class="cls-6" d="m293.52,161.39l-5.13-10.88-9.75,5.57s6.31,10.1,9.86,9.1l5.03-3.79Z"/>
                <path class="cls-6" d="m280.43,147.92l-4.48,1.84c-1.13.46-1.43,1.91-.59,2.79l3.32,3.46,9.75-5.57-6.73-2.54c-.41-.15-.86-.15-1.27.02Z"/>
              </g>
            </g>
            <g>
              <path class="cls-6" d="m243.58,181.43l-10.5-1.28-3.49,11.03s12.01.29,14.02-2.94l-.02-6.81Z"/>
              <path class="cls-6" d="m225.25,183.9l-1.96,4.19c-.59,1.26.28,2.71,1.66,2.8l4.64.29,3.49-11.03-6.79,2.77c-.46.19-.83.54-1.04.99Z"/>
            </g>
            <path class="cls-3" d="m342.14,142.93c-.47-2.44-4.1-5.41-6.57-5.83l-1.63-.27c-2.84-.48-6.43-.85-9.93-1.03-6.68-.38-13.37-.38-20.05,0-3.09.28-6.11.78-8.53,1.25-.03,0-.06.01-.09.02-2.82.6-4.85,3.05-4.94,5.93-.22,7.55-.81,22.89-2.16,38.02-1.06,11.81-3.38,23.32-4.44,31.32l48.92,8.25c3.3-9.28,4.44-17.66,7.49-34.91,1.83-10.35,3.87-32.72,1.92-42.75Z"/>
            <path class="cls-19" d="m342.14,142.93c-.47-2.44-4.1-5.41-6.57-5.83l-1.63-.27c-2.84-.48-6.43-.85-9.93-1.03-6.68-.38-13.37-.38-20.05,0-3.09.28-6.11.78-8.53,1.25-.03,0-.06.01-.09.02-2.82.6-4.85,3.05-4.94,5.93-.22,7.55-.81,22.89-2.16,38.02-1.06,11.81-3.38,23.32-4.44,31.32l48.92,8.25c3.3-9.28,4.44-17.66,7.49-34.91,1.83-10.35,3.87-32.72,1.92-42.75Z"/>
            <g>
              <path class="cls-3" d="m295.23,138.29c3.97,1.73,5.78,6.37,4.01,10.33-4.01,8.97-10.7,23.19-13.58,28.17-1.09,1.77-2.18,3.52-3.42,5.28-.62.89-1.3,1.76-2.03,2.67-.4.46-.72.88-1.19,1.35l-.67.7-.38.39c-1.07.99-2.34,1.74-3.73,2.18-.73.24-1.48.43-2.23.57-1.24.2-2.48.3-3.74.3-2.16.02-17.03,1.33-24.58-1.32l-.4-8.17c7.55.6,20.75-3.49,22.45-3.67.68-.08,1.36-.22,2.02-.41.22-.06.42-.15.62-.26.07,0,0-.08-.31.13-.11.07-.21.15-.3.25,0,0,.08-.11.11-.14l.31-.37c.2-.22.44-.58.67-.87.45-.62.91-1.29,1.37-2.02.91-1.42,1.79-2.99,2.65-4.59,1.73-3.19,3.33-6.57,4.89-9.99,1.11-2.42,4.37-9.78,7.13-16.37,1.69-4.02,6.33-5.88,10.32-4.13h0Z"/>
              <path class="cls-4" d="m288.6,170.06c.14,4.47.08,3.02.25,7.71,13.06-18.07,9.69-30.62,9.69-30.62l-9.94,22.91Z"/>
              <path class="cls-19" d="m295.23,138.29c3.97,1.73,5.78,6.37,4.01,10.33-4.01,8.97-10.7,23.19-13.58,28.17-1.09,1.77-2.18,3.52-3.42,5.28-.62.89-1.3,1.76-2.03,2.67-.4.46-.72.88-1.19,1.35l-.67.7-.38.39c-1.07.99-2.34,1.74-3.73,2.18-.73.24-1.48.43-2.23.57-1.24.2-2.48.3-3.74.3-2.16.02-17.03,1.33-24.58-1.32l-.4-8.17c7.55.6,20.75-3.49,22.45-3.67.68-.08,1.36-.22,2.02-.41.22-.06.42-.15.62-.26.07,0,0-.08-.31.13-.11.07-.21.15-.3.25,0,0,.08-.11.11-.14l.31-.37c.2-.22.44-.58.67-.87.45-.62.91-1.29,1.37-2.02.91-1.42,1.79-2.99,2.65-4.59,1.73-3.19,3.33-6.57,4.89-9.99,1.11-2.42,4.37-9.78,7.13-16.37,1.69-4.02,6.33-5.88,10.32-4.13h0Z"/>
            </g>
          </g>
        </g>
      </g>
      <g>
        <path class="cls-26" d="m309.92,103.24c-1.59,1.41-2.54,3.38-2.66,5.46-.13,2.77,2.56,3.52,4.9,2.22,2.12-1.17,4.71-4.03,3.73-6.56-.98-2.53-4.01-2.83-5.97-1.13Z"/>
        <path class="cls-3" d="m318.82,107.59c-.2,4.54-2.94,8.11-7.48,7.91-4.54-.2-6.95-4-6.75-8.54.2-4.54,2.94-8.11,7.48-7.91,4.54.2,6.95,4,6.75,8.54Z"/>
        <path class="cls-23" d="m318.82,107.59c-.2,4.54-2.94,8.11-7.48,7.91-4.54-.2-6.95-4-6.75-8.54.2-4.54,2.94-8.11,7.48-7.91,4.54.2,6.95,4,6.75,8.54Z"/>
        <path class="cls-3" d="m316.73,107.5c-.14,3.21-2.08,5.73-5.28,5.58-3.21-.14-4.91-2.82-4.77-6.03.14-3.21,2.08-5.73,5.28-5.58,3.21.14,4.91,2.82,4.77,6.03Z"/>
        <path class="cls-30" d="m316.73,107.5c-.14,3.21-2.08,5.73-5.28,5.58-3.21-.14-4.91-2.82-4.77-6.03.14-3.21,2.08-5.73,5.28-5.58,3.21.14,4.91,2.82,4.77,6.03Z"/>
        <g>
          <path class="cls-3" d="m311.47,98.28c.94-3.82,4.61-13.98,12.25-15.42.75-.14,1.53.15,2.03.72l.9,1.04c.92,1.05.63,2.68-.6,3.34-3.04,1.65-8.11,5.21-10.7,11.53-.3.73-1.11,1.12-1.88.92l-.85-.22c-.84-.22-1.36-1.07-1.15-1.92Z"/>
          <path class="cls-28" d="m311.47,98.28c.94-3.82,4.61-13.98,12.25-15.42.75-.14,1.53.15,2.03.72l.9,1.04c.92,1.05.63,2.68-.6,3.34-3.04,1.65-8.11,5.21-10.7,11.53-.3.73-1.11,1.12-1.88.92l-.85-.22c-.84-.22-1.36-1.07-1.15-1.92Z"/>
        </g>
      </g>
      <g>
        <rect class="cls-21" x="251.26" y="210.02" width="6.5" height="27.74"/>
        <rect class="cls-21" x="251.26" y="210.02" width="6.5" height="27.74"/>
      </g>
      <g>
        <path class="cls-21" d="m276.59,218.49c-14.31-4.99-29.88-4.99-44.19,0-2.97,1.12-6.31-.15-7.78-2.97h0c-1.33-2.8.45-6.43,4.06-7.7,16.71-5.84,34.9-5.84,51.61,0,3.6,1.26,5.38,4.9,4.06,7.7h0c-1.47,2.8-4.79,4.07-7.76,2.97Z"/>
        <path class="cls-16" d="m276.59,218.49c-14.31-4.99-29.88-4.99-44.19,0-2.97,1.12-6.31-.15-7.78-2.97h0c-1.33-2.8.45-6.43,4.06-7.7,16.71-5.84,34.9-5.84,51.61,0,3.6,1.26,5.38,4.9,4.06,7.7h0c-1.47,2.8-4.79,4.07-7.76,2.97Z"/>
      </g>
      <g>
        <g>
          <path class="cls-21" d="m269.81,349.21c0,2.79-2.26,5.06-5.06,5.06-2.79,0-5.06-2.26-5.06-5.06s2.26-5.06,5.06-5.06,5.06,2.26,5.06,5.06h0Z"/>
          <path class="cls-21" d="m344.11,349.21c0,2.79,2.26,5.06,5.06,5.06,2.79,0,5.06-2.26,5.06-5.06,0-2.79-2.26-5.06-5.06-5.06s-5.06,2.26-5.06,5.06h0Z"/>
          <path class="cls-21" d="m300.29,347.59c0,2.79,2.26,5.06,5.06,5.06s5.06-2.26,5.06-5.06c0-2.79-2.26-5.06-5.06-5.06s-5.06,2.26-5.06,5.06h0Z"/>
        </g>
        <path class="cls-21" d="m360.19,342.41c-.23,1.18-1.29,2.01-2.49,1.98l-52.76-.72-49.4,1.12c-1.2.03-2.26-.8-2.48-1.98-.27-1.34.61-2.62,1.93-2.89l26.98-5.24c2.81-.52,5.64-.79,8.49-.79h28.99c2.84,0,5.68.27,8.48.79l30.32,4.86c1.33.26,2.2,1.54,1.94,2.88Z"/>
        <g>
          <rect class="cls-21" x="295.96" y="289.87" width="17.94" height="51.65"/>
          <rect class="cls-21" x="298.54" y="257.14" width="12.79" height="32.98"/>
          <polygon class="cls-4" points="298.54 263.26 311.33 266.48 311.33 257.14 298.54 257.14 298.54 263.26"/>
        </g>
        <g>
          <path class="cls-3" d="m299.79,233.68v23.32h-68.1c-4.62.01-8.37-3.74-8.38-8.36,0-1.51.41-2.98,1.17-4.28,3.92-6.62,11.02-10.68,18.71-10.68h56.59Z"/>
          <path class="cls-28" d="m299.79,233.68v23.32h-68.1c-4.62.01-8.37-3.74-8.38-8.36,0-1.51.41-2.98,1.17-4.28,3.92-6.62,11.02-10.68,18.71-10.68h56.59Z"/>
        </g>
        <g>
          <path class="cls-3" d="m313.5,147.32c-.17.76-.28,1.51-.33,2.28l-7.48,107.03h-10.33l7.48-107.03c0-.08.01-.17.03-.25l10.63-2.03Z"/>
          <path class="cls-28" d="m313.5,147.32c-.17.76-.28,1.51-.33,2.28l-7.48,107.03h-10.33l7.48-107.03c0-.08.01-.17.03-.25l10.63-2.03Z"/>
          <path class="cls-21" d="m361,257.02v.12h-1.74c.6,0,1.16-.05,1.74-.12Z"/>
          <path class="cls-3" d="m384.01,146.64l.12-12.72c.04-3.59-1.22-6.99-3.52-9.59l-7.52-8.47-2.69-21.19c-.41-3.3-3.14-5.68-6.5-5.68h-18.67c-3,0-5.81,1.91-6.98,4.75l-9.41,22.79-15.56,9.18c-3.98,2.35-6.84,6.27-7.81,10.69l-2.84,12.98.22-.05,10.63-2.03c-.17.76-.28,1.51-.33,2.28l-7.48,107.03h58.57c.6,0,1.17-.05,1.75-.12h.01c5.9-.85,10.73-5.88,11.16-11.95l6.71-95.89c.05-.69.05-1.38,0-2.07l.13.05Zm-48.96-8.09l-18.21,1.73-.8.08,2.52-8.28,12.51-5.84,4.17-1.94.65,1.94.11.33.61,1.78-1.57,10.2Zm35.78.21h-.01l-2.23-.58c-.04-.7-.08-1.42-.12-2.13-.23-3.96-.42-7.7-.42-7.7l.27-1.31.56-2.74,8.07,7.78v1.85s-.01,6.43-.01,6.43l-6.11-1.59Z"/>
        </g>
      </g>
    </g>
  </g>
</svg>