<?xml version="1.0" encoding="UTF-8"?>
<svg id="OBJECT" xmlns="http://www.w3.org/2000/svg" viewBox="0 0 415.04 398.84">
  <defs>
    <style>
      .cls-1 {
        fill: #ff996a;
      }

      .cls-1, .cls-2, .cls-3, .cls-4, .cls-5, .cls-6, .cls-7, .cls-8, .cls-9, .cls-10, .cls-11, .cls-12, .cls-13, .cls-14, .cls-15, .cls-16, .cls-17, .cls-18 {
        stroke-width: 0px;
      }

      .cls-2 {
        fill: #7eaf92;
      }

      .cls-3 {
        fill: #9c897a;
      }

      .cls-19, .cls-20, .cls-21, .cls-22, .cls-23, .cls-24 {
        stroke-linecap: round;
        stroke-linejoin: round;
      }

      .cls-19, .cls-20, .cls-21, .cls-22, .cls-23, .cls-24, .cls-25 {
        fill: none;
      }

      .cls-19, .cls-25 {
        stroke: #bbbfbd;
      }

      .cls-4 {
        fill: #d37a57;
      }

      .cls-5 {
        fill: #ffd294;
      }

      .cls-20 {
        stroke: #fff;
      }

      .cls-6 {
        fill: #c1966b;
      }

      .cls-7 {
        fill: #3f2d1f;
      }

      .cls-26, .cls-8 {
        fill: #fff;
      }

      .cls-26, .cls-27 {
        font-family: Alatsi-Regular, 'Alatsi Regular';
        font-size: 35.62px;
      }

      .cls-9 {
        fill: #847062;
      }

      .cls-21 {
        stroke: #e5bc89;
      }

      .cls-10 {
        fill: #aed6be;
      }

      .cls-22 {
        stroke: #847062;
      }

      .cls-11 {
        fill: #e5bc89;
      }

      .cls-12 {
        fill: #77a58a;
      }

      .cls-23 {
        stroke: #543e2f;
      }

      .cls-24 {
        stroke: #9c897a;
      }

      .cls-13 {
        fill: #d9d9d9;
      }

      .cls-14 {
        fill: #d3aa7d;
      }

      .cls-15 {
        fill: #527a62;
      }

      .cls-16 {
        fill: #649176;
      }

      .cls-27, .cls-18 {
        fill: #99c6ab;
      }

      .cls-17 {
        fill: #f3f5f4;
      }

      .cls-25 {
        stroke-miterlimit: 10;
      }
    </style>
  </defs>
  <g>
    <g>
      <path class="cls-17" d="m189.68,67.76s-56.47,2.49-86.38,61.53c-29.91,59.04-60.8,40.61-79.04,93.87-18.24,53.26,18.54,113.82,43.2,120.39,24.65,6.56,306.27,0,306.27,0,0,0,37.21-25.44,40.13-91.52,2.92-66.08-52.53-88.15-75.51-97.54-22.98-9.39-58.4-88.19-148.67-86.73Z"/>
      <path class="cls-25" d="m270.59,229.23c65.05-43.77,77.66-66.24,109.76-70.42,78.2-10.18,20.9,191.96-158.16,235.15-85.08,20.52-190.47-35.45-205.54-78.94-14.57-42.05,24.66-57.82,82.59-35.27,57.93,22.55,138.21-28.23,171.35-50.53Z"/>
      <circle class="cls-13" cx="339.63" cy="179.33" r="9.9" transform="translate(-21.94 308.85) rotate(-47.54)"/>
      <circle class="cls-25" cx="335.64" cy="373.93" r="9.9" transform="translate(-166.1 346.85) rotate(-45)"/>
      <circle class="cls-25" cx="206.64" cy="148.64" r="9.9"/>
      <polygon class="cls-19" points="178.62 188.21 168.57 202.19 187.66 202.19 178.62 188.21"/>
      <polygon class="cls-13" points="131.41 365.85 125.09 378.01 144.18 378.01 131.41 365.85"/>
      <g>
        <circle class="cls-19" cx="19.39" cy="211.99" r="18.89" transform="translate(-191.38 182.16) rotate(-76.72)"/>
        <text class="cls-27" transform="translate(12.08 225.84)"><tspan x="0" y="0">?</tspan></text>
      </g>
      <g>
        <circle class="cls-18" cx="213.96" cy="73.87" r="18.89" transform="translate(10.44 172.93) rotate(-45)"/>
        <text class="cls-26" transform="translate(206.64 87.71)"><tspan x="0" y="0">?</tspan></text>
      </g>
    </g>
    <circle class="cls-13" cx="68.52" cy="219.89" r="9.52" transform="translate(-161.22 236.28) rotate(-76.77)"/>
  </g>
  <g>
    <g>
      <path class="cls-10" d="m405.62,49.82h-85.16c-4.86,0-8.8,3.94-8.8,8.8v51.25c0,4.86,3.94,8.8,8.8,8.8h17.33l-3.44,8.88c-1,2.57,1.98,4.85,4.2,3.22l16.46-12.1h50.59c4.86,0,8.8-3.94,8.8-8.8v-51.25c0-4.86-3.94-8.8-8.8-8.8Z"/>
      <line class="cls-20" x1="321.71" y1="64.19" x2="403.16" y2="64.19"/>
      <line class="cls-20" x1="321.71" y1="71.59" x2="403.16" y2="71.59"/>
      <line class="cls-20" x1="321.71" y1="78.99" x2="403.16" y2="78.99"/>
      <line class="cls-20" x1="321.71" y1="86.39" x2="403.16" y2="86.39"/>
      <line class="cls-20" x1="321.71" y1="93.79" x2="403.16" y2="93.79"/>
      <line class="cls-20" x1="321.71" y1="101.18" x2="403.16" y2="101.18"/>
    </g>
    <g>
      <path class="cls-1" d="m139.36,212.74s-.87-7.28-1.99-10.75c-1.13-3.47-5.89-10.05-5.89-10.05,0,0-1.91,4.07.87,7.45,0,0-.17,5.37.09,7.28,0,0-9.01-7.7-10.74-8.48h0c-1.1-.88-2.44-1.95-4.08-3.25-5.98-4.77-9.97-3.29-9.45-2.95.36.24,7.2,5.77,11.43,9.2l-.55.79c-1.29-1.03-3.33-2.66-6.37-5.08-5.98-4.77-9.97-3.29-9.45-2.95.43.29,10.44,8.4,13.71,11.04l-.96,1.38c-1.27-1.01-3.37-2.69-6.59-5.26-5.98-4.77-9.97-3.29-9.45-2.95.45.3,10.93,8.79,13.93,11.22l-1.02,1.46c-1.11-1.01-4.2-3.76-7.19-5.84-3.73-2.6-6.41-1.39-6.41-1.39l1.65,1.47c1.65,1.47,10.23,8.23,10.23,8.23,0,0,13.1,11.7,16.38,12.83l3.21,3.06,11.79-12.76-3.13-3.72Z"/>
      <path class="cls-14" d="m233.65,293.55c-7.03,10.14-16.87,16.4-29.94,13.74-35.02-7.12-76.37-75.09-76.37-75.09l2.08-2.25,15.43-16.7,53.71,48.81,16.77-24.28,16.38-23.71,8.1-11.72s4.74,7.5,7.73,31.33c1.86,14.94-2.07,42.86-13.89,59.87Z"/>
      <path class="cls-6" d="m233.65,293.55c-7.03,10.14-16.87,16.4-29.94,13.74-35.02-7.12-76.37-75.09-76.37-75.09l2.08-2.25,1.28-.71s49.27,67.79,70.04,57.7c12.84-6.23,14.9-31.09,14.6-49.16l16.38-23.71,1.93,79.48Z"/>
      <polygon class="cls-16" points="365.19 286.94 361.99 343.12 349.62 343.12 354.49 286.94 365.19 286.94"/>
      <polygon class="cls-16" points="289.45 286.94 286.26 343.12 273.89 343.12 278.75 286.94 289.45 286.94"/>
      <rect class="cls-16" x="250.78" y="206.54" width="133.32" height="90.12" rx="17.64" ry="17.64"/>
      <rect class="cls-2" x="242.51" y="206.54" width="133.32" height="90.12" rx="17.64" ry="17.64"/>
      <path class="cls-5" d="m284.29,181.24s19.33-3.1,45.34,23.8l6,138.08h-108.71s-11.87-93.15,1.97-126.28c13.84-33.13,38.69-37.08,55.4-35.6Z"/>
      <path class="cls-1" d="m246.37,106.36l4.77-6.53,40.69,13.62-.35,15.28h2.69c5.46,0,9.88,4.42,9.88,9.88h0c0,5.46-4.42,9.88-9.88,9.88h-3.14l-.48,20.75v18.23l-29.46,4.05-.72-12.19-.38-6.41-4.27-2.04c-12.24-5.84-20.03-18.19-20.03-31.75,0-11.78,3.75-23.26,10.69-32.77Z"/>
      <path class="cls-4" d="m259.98,172.92l.38,6.41c1.08-.13,2.22-.3,3.39-.51,18.2-3.32,25.32-19.76,24.58-28.24,0,0-6.14,20.38-28.36,22.34Z"/>
      <path class="cls-4" d="m294.47,135.78c-.76.58-1.46,1.34-1.72,2.29,0,0,1.52.51,1.66,2.21s-1.66,2.44-1.66,2.44c0,0,1.38,2.3,3.68,1.06,2.3-1.24,1.92-5.58-.37-6.49,0,0,3.64-.41,4.97.92,0,0,.31-1.34-1.21-2.52-1.57-1.22-3.77-1.11-5.36.09Z"/>
      <path class="cls-7" d="m246.37,106.36s5.51,9.48,12.63,12.55,14.73-1.4,21.85,2.68,2.58,11.71,4.17,15.38c1.6,3.67,3.37,4.16,3.37,4.16,0,0,.96-10.43,3.09-12.4,0,0,6.39-.05,8.38,1.81,0,0,3.57-7.21,4.19-12.86.61-5.65-5.65-7.49-5.65-7.49,0,0-1.47-13.5-18.04-18.54s-29.22,2.95-35.84,0c-6.63-2.95-12.64,1.47-13.01,8.16-.37,6.69,4.17,9.14,4.17,9.14,0,0-3.07,2.59-1.84,6.57,1.23,3.98,5.08,4.9,5.08,4.9,0,0,4.54-10.1,7.46-14.09Z"/>
      <path class="cls-8" d="m249.67,154.89l16.87-.83s-3.91,6.08-9.47,6.02c-5.12-.05-7.41-5.19-7.41-5.19Z"/>
      <path class="cls-7" d="m269.06,127.41c-.21,0-.43-.07-.6-.22-3.56-2.93-7.06-.44-7.1-.42-.42.31-1.02.22-1.33-.21-.31-.42-.22-1.02.21-1.33,1.62-1.18,5.68-2.61,9.43.48.41.33.46.93.13,1.34-.19.23-.46.35-.73.35Z"/>
      <path class="cls-7" d="m248.08,127.41c-.21,0-.43-.07-.6-.22-3.56-2.93-7.06-.44-7.1-.42-.42.31-1.02.22-1.33-.21-.31-.42-.22-1.02.21-1.33,1.62-1.18,5.68-2.61,9.43.48.41.33.46.93.13,1.34-.19.23-.46.35-.73.35Z"/>
      <path class="cls-3" d="m295.94,182.68l-5.34-6.95-21.21,7.47-3.43,5.96-2.32-5.35-3.22-3.52-3.34,6.45s.1,6.46,8.28,8.18c8.18,1.72,26.06-4.95,30.59-12.24Z"/>
      <path class="cls-12" d="m299.86,130.54s-3.3-1.26-6.43,1.62-2.07,5.71-2.07,5.71c0,0,1.45-3.41,4.54-3.04,3.1.37,5.35,8.74,1.21,10.31-4.14,1.57-9.43-.82-9.24-7.27.18-6.45,2.55-10.1,6.45-10.66,3.9-.56,5.44,2.72,5.53,3.33Z"/>
      <path class="cls-12" d="m270.58,162.97c-.4,0-.76-.28-.84-.69-.09-.46.21-.91.68-1,16.04-3.08,21.47-18.19,21.53-18.34.15-.44.64-.68,1.08-.52.44.15.68.64.53,1.08-.06.16-5.79,16.18-22.82,19.46-.05.01-.11.02-.16.02Z"/>
      <path class="cls-16" d="m267,162.41c0,1.98,1.61,3.59,3.59,3.59s3.59-1.61,3.59-3.59-1.61-3.59-3.59-3.59-3.59,1.61-3.59,3.59Z"/>
      <path class="cls-16" d="m295.5,136.37s-.45,3.97.42,6.09c.87,2.12,2.23,1.02,2.5-1.55.27-2.58-2.31-6.19-2.92-4.53Z"/>
      <path class="cls-8" d="m261.37,135.04s0,3.7,4.85,4.32c4.84.61,5.73-4.32,5.73-4.32,0,0-2.75-2.58-6.31-2.66-3.56-.08-4.27,2.66-4.27,2.66Z"/>
      <path class="cls-8" d="m239.24,135.04s0,3.7,4.75,4.32c4.74.61,5.37-4.31,5.37-4.31,0,0-2.46-2.58-5.94-2.66-3.48-.08-4.18,2.66-4.18,2.66Z"/>
      <path class="cls-7" d="m249.36,135.05s-2.54-2.79-5.26-3.29c-2.72-.5-4.58.82-4.87,3.29,0,0,.54-2.04,3.26-2.29,2.72-.25,6.87,2.29,6.87,2.29Z"/>
      <path class="cls-7" d="m271.95,135.04s-2.65-2.91-5.49-3.44c-2.84-.52-4.79.86-5.08,3.44,0,0,.56-2.13,3.4-2.39,2.84-.26,7.17,2.39,7.17,2.39Z"/>
      <path class="cls-4" d="m254.02,135.15l-2.23,13.49s-1.78.14-4.24-.87c0,0,5.84-11.11,6.47-12.62Z"/>
      <path class="cls-16" d="m187.53,343.12s-.36-10.77,11.77-14.14c12.13-3.37,26.9,6.49,29.27,14.14h-41.04Z"/>
      <ellipse class="cls-7" cx="266.02" cy="135.99" rx="3.04" ry="3.84"/>
      <path class="cls-7" d="m247.75,136.11c0,2.06-1.33,3.72-2.96,3.72s-2.96-1.67-2.96-3.72,1.33-3.72,2.96-3.72,2.96,1.67,2.96,3.72Z"/>
      <path class="cls-4" d="m279.46,145.61c0,1.68-1.99,3.04-4.43,3.04s-4.43-1.36-4.43-3.04,1.99-3.04,4.43-3.04,4.43,1.36,4.43,3.04Z"/>
      <path class="cls-4" d="m243.25,144.15c0,1.68-1.99,3.04-4.43,3.04s-4.43-1.36-4.43-3.04,1.99-3.04,4.43-3.04,4.43,1.36,4.43,3.04Z"/>
      <path class="cls-11" d="m359.51,308.84c-3.07,9.24-8.69,16.22-15.34,21.16-4.53,3.35-9.54,5.76-14.54,7.27-20.87,6.33-98.16,5.84-98.16,5.84l2.91-23.35,86.55-19.45s-11.19-35.51-10.7-64.2c.45-26.7,8.41-37.71,17.38-32.51.67.4,1.35.87,2.02,1.44,0,0,13.67,20.37,27.77,62.19,5.77,17.11,5.66,30.87,2.11,41.61Z"/>
      <path class="cls-1" d="m225.59,322.87l-18.36-3.35s-3.37-.58-6.75.88c-3.37,1.46-7.2,8.57-7.2,8.57,0,0,3.1.05,5.2-1.85,2.1-1.89,2.37-3.53,2.37-3.53l6.74.53.12,1.56c-2.25.49-8.66,1.95-11.78,3.29-3.83,1.64-5.84,6.66-5.84,6.66,0,0,5.02-.73,7.57-3.83l10.43-1.18.07.97c-2.15.15-5.99.63-9.59,2.22-5.38,2.37-7.02,5.56-7.02,5.56,0,0,5.38,0,9.17-2.92l2.55-.21c-2.52,1.61-4.69,5.5-4.69,5.5,0,0,1.09.27,3.56-.82,2.46-1.09,3.1-2.34,3.1-2.34l7.18.54h0c3.73.53,9.36,1.05,12.58-.02l6.86,1.06,2.15-17.29h-8.41Z"/>
      <path class="cls-16" d="m378.45,354.42H33.19c-3.12,0-5.65-2.53-5.65-5.65h0c0-3.12,2.53-5.65,5.65-5.65h345.25c3.12,0,5.65,2.53,5.65,5.65h0c0,3.12-2.53,5.65-5.65,5.65Z"/>
      <path class="cls-2" d="m246.1,354.42H30.93c-1.87,0-3.39-2.53-3.39-5.65h0c0-3.12,1.52-5.65,3.39-5.65h215.17c1.87,0,3.39,2.53,3.39,5.65h0c0,3.12-1.52,5.65-3.39,5.65Z"/>
      <path class="cls-2" d="m181.03,321.35H62.13c-4.01,0-7.48-2.79-8.34-6.71l-15.37-69.8c-.75-3.42,1.85-6.67,5.36-6.67h120.24c3.55,0,6.63,2.47,7.39,5.94l15.42,70.02c.82,3.7-2,7.21-5.8,7.21Z"/>
      <path class="cls-18" d="m81.63,309.53c-.99,5-6.83,8.06-13.04,6.83-6.21-1.23-10.44-6.29-9.44-11.29.99-5,6.83-8.06,13.04-6.83s10.44,6.29,9.44,11.29Z"/>
      <path class="cls-16" d="m186.83,314.14l-15.42-70.02c-.76-3.47-3.84-5.94-7.39-5.94h-6.93c3.55,0,6.63,2.47,7.39,5.94l15.42,70.02c.82,3.7-2,7.21-5.8,7.21h6.93c3.79,0,6.61-3.51,5.8-7.21Z"/>
      <path class="cls-16" d="m166.25,340.32c0,1.55-1.25,2.8-2.8,2.8h-98.7c-1.58,0-3.02-.65-4.06-1.69-1.05-1.04-1.69-2.47-1.69-4.06,0-1.13.34-2.24.97-3.18l24.43-36.6c.7-1.03,1.86-1.65,3.1-1.65h42.71c1.53,0,2.49,1.66,1.72,2.99l-20.62,35.63c-.77,1.32.19,2.96,1.7,2.96h50.44c.77,0,1.47.31,1.98.83.5.5.82,1.2.82,1.97Z"/>
      <path class="cls-16" d="m136.95,279.28h-60.56c-.71,0-1.28-.57-1.28-1.28h0c0-.71.57-1.28,1.28-1.28h60.56c.71,0,1.28.57,1.28,1.28h0c0,.71-.57,1.28-1.28,1.28Z"/>
      <path class="cls-16" d="m139.87,286.94h-60.56c-.71,0-1.28-.57-1.28-1.28h0c0-.71.57-1.28,1.28-1.28h60.56c.71,0,1.28.57,1.28,1.28h0c0,.71-.57,1.28-1.28,1.28Z"/>
      <path class="cls-18" d="m39.67,242.31h128.23c1.04,0,2.04.19,2.97.54-1.15-2.79-3.89-4.67-6.99-4.67H43.64c-2.67,0-4.81,1.88-5.35,4.29.44-.1.91-.16,1.38-.16Z"/>
      <path class="cls-18" d="m171.41,309.53c-.99,5-6.83,8.06-13.04,6.83-6.21-1.23-10.44-6.29-9.44-11.29.99-5,6.83-8.06,13.04-6.83,6.21,1.23,10.43,6.29,9.44,11.29Z"/>
      <path class="cls-15" d="m166.24,340.52c-.11,1.49-1.45,2.6-2.94,2.6h-56.17c-2.27,0-4.11-1.84-4.11-4.11h0c0-.78.22-1.54.63-2.19l25.81-40.88h.75c1.53,0,2.49,1.66,1.72,2.99l-20.62,35.63c-.77,1.32.19,2.96,1.7,2.96h50.44c.77,0,1.47.31,1.98.83.55.55.87,1.32.81,2.18Z"/>
      <path class="cls-14" d="m329.63,337.27c-20.87,6.33-98.16,5.84-98.16,5.84l99.86-26.57c10.44-2.78,17.09-13,15.39-23.67-4.39-27.59-12.88-77.09-19.12-89.28.67.4,1.35.87,2.02,1.44,0,0,13.67,20.37,27.77,62.19,14.1,41.83-6.89,63.72-27.77,70.04Z"/>
      <path class="cls-24" d="m323.74,301.29s14.28-.2,25.87,10.39"/>
      <path class="cls-21" d="m293.87,185.18s18.79,6.39,28.04,17.34"/>
      <path class="cls-24" d="m200.34,265.25s10.38,13.44,11.7,28.92"/>
      <path class="cls-21" d="m254.01,186.84s-3.95,11.07,12.53,12.43c16.48,1.36,34.54-14.81,34.54-14.81"/>
      <polygon class="cls-4" points="231.48 322.87 227.62 339.51 231.85 340.16 234 322.87 231.48 322.87"/>
      <path class="cls-21" d="m265.36,194.93s-4.88,13.92-8.28,49.92"/>
      <path class="cls-23" d="m296.91,110.35s-7.7-1.82-14.66.86"/>
      <path class="cls-23" d="m246.37,106.36s-.78,11.27,13.48,12.88"/>
      <path class="cls-23" d="m298.18,102.92s1.66,4.48.22,7.27"/>
      <path class="cls-23" d="m233.61,98.35s-.64,6.92,6.43,9.64"/>
      <path class="cls-23" d="m236.18,111.2s-1.31,5.18,3.58,7.41"/>
      <path class="cls-23" d="m259,93.53s9.12-4,22.07,1.82c11.68,5.25,12.8,11.79,12.8,11.79"/>
      <path class="cls-23" d="m298.18,113.13s2.57,1.21,2.57,4.86-1.76,7.36-1.76,7.36"/>
      <path class="cls-23" d="m255.36,111.85s1.82,4.82,12.43,5.36c10.61.54,14.04.54,16.93,3.96,2.89,3.43,1.93,7.18,1.93,7.18"/>
    </g>
  </g>
  <g>
    <g>
      <path class="cls-13" d="m251.38,0h-96.54c-5.59,0-10.12,4.53-10.12,10.12v16.53c0,5.59,4.53,10.12,10.12,10.12h12.79l-2.97,10.27c-.55,1.91,1.55,3.49,3.24,2.43l20.02-12.7h63.48c5.59,0,10.12-4.53,10.12-10.12V10.12c0-5.59-4.53-10.12-10.12-10.12Z"/>
      <line class="cls-20" x1="157.85" y1="9.89" x2="248.94" y2="9.89"/>
      <line class="cls-20" x1="157.85" y1="17.62" x2="248.94" y2="17.62"/>
      <line class="cls-20" x1="157.85" y1="25.35" x2="248.94" y2="25.35"/>
    </g>
    <g>
      <circle class="cls-25" cx="94.1" cy="100.23" r="82.2"/>
      <path class="cls-18" d="m171.08,100.23c0,28.73-15.74,53.78-39.06,67.01-2.61,1.48-5.32,2.82-8.11,3.99-9.17,3.86-19.24,5.99-29.81,5.99-.7,0-1.4,0-2.09-.03-.43,0-.86-.03-1.28-.06-.3,0-.6,0-.9-.04-.46-.02-.91-.05-1.36-.09-.19,0-.38-.02-.57-.05-.54-.03-1.07-.09-1.61-.13-.62-.07-1.23-.13-1.83-.21l19.03-27.53-50.57-54.82-33,26.66c-.34-1.24-.66-2.47-.94-3.73-.1-.48-.21-.96-.3-1.43-.13-.63-.26-1.26-.36-1.89-.08-.42-.15-.84-.21-1.25-.1-.6-.19-1.21-.28-1.82-.05-.34-.1-.67-.13-1.02-.07-.52-.13-1.05-.18-1.59l-.03-.31c-.06-.57-.11-1.14-.15-1.72-.05-.64-.1-1.27-.12-1.92v-.04c-.04-.66-.07-1.31-.08-1.98-.02-.66-.03-1.32-.03-1.99,0-12.78,3.12-24.83,8.63-35.44,11.45-22.05,33.26-37.85,58.99-40.98,3.07-.37,6.2-.56,9.37-.56,12.92,0,25.12,3.19,35.81,8.83l-33.53,27.07,22.38,67.86,43.4-62.76c5.69,10.73,8.91,22.98,8.91,35.97Z"/>
      <path class="cls-2" d="m25.54,64.72l27.18,29.47-33,26.66c-.34-1.24-.66-2.47-.94-3.73-.1-.48-.21-.96-.3-1.43-.13-.63-.26-1.26-.36-1.89-.08-.42-.15-.84-.21-1.25-.1-.6-.19-1.21-.28-1.82-.05-.34-.1-.67-.13-1.02-.07-.52-.13-1.05-.18-1.59l-.03-.31c-.06-.57-.11-1.14-.15-1.72-.05-.64-.1-1.27-.12-1.92v-.04c-.04-.66-.07-1.31-.08-1.98-.02-.66-.03-1.32-.03-1.99,0-12.78,3.12-24.83,8.63-35.44Z"/>
      <path class="cls-2" d="m123.71,171.16c-9.17,3.86-19.24,5.99-29.81,5.99-.7,0-1.4,0-2.09-.03-.43,0-.86-.03-1.28-.06-.3,0-.6,0-.9-.04-.46-.02-.91-.05-1.36-.09-.19,0-.38-.02-.57-.05-.54-.03-1.07-.09-1.61-.13-.62-.07-1.23-.13-1.83-.21l19.03-27.53,20.42,22.14Z"/>
      <path class="cls-2" d="m129.71,32.01l-33.53,27.07-11.65-35.34c3.07-.37,6.2-.56,9.37-.56,12.92,0,25.12,3.19,35.81,8.83Z"/>
      <path class="cls-2" d="m170.87,100.16c0,28.73-15.74,53.78-39.06,67.01l-13.26-40.22,43.4-62.76c5.69,10.73,8.91,22.98,8.91,35.97Z"/>
      <path class="cls-16" d="m103.29,149.02l-19.03,27.53c-.48-.06-.97-.12-1.45-.2-.4-.06-.8-.11-1.2-.18-.45-.07-.88-.14-1.33-.23-.59-.1-1.18-.21-1.77-.33-.5-.1-1.01-.21-1.5-.32-.31-.07-.63-.14-.94-.22-.42-.09-.83-.2-1.24-.3-1.36-.34-2.7-.73-4.03-1.15-.48-.15-.97-.3-1.44-.47-.65-.22-1.28-.44-1.91-.67-.59-.21-1.18-.44-1.76-.67-.59-.23-1.17-.47-1.74-.71-.57-.24-1.14-.48-1.7-.74,0,0,0,0-.02,0-.57-.26-1.13-.52-1.69-.79-1.71-.82-3.37-1.7-5.01-2.64-.51-.3-1.03-.61-1.53-.91-1.06-.64-2.11-1.31-3.13-2.01-.51-.34-1.02-.69-1.52-1.05-.5-.35-1.01-.72-1.5-1.09-.02,0-.04-.03-.07-.05-.47-.35-.94-.71-1.4-1.07-.41-.32-.81-.64-1.21-.97-.59-.48-1.17-.97-1.74-1.46-.44-.38-.86-.76-1.29-1.15-.43-.39-.86-.79-1.28-1.19-.05-.05-.1-.09-.13-.12-.42-.41-.84-.82-1.25-1.24-.36-.36-.72-.73-1.08-1.1-.49-.51-.99-1.04-1.46-1.57-.42-.46-.83-.92-1.23-1.39-.32-.36-.63-.73-.93-1.1-.19-.21-.36-.42-.53-.64-.3-.37-.6-.74-.89-1.11-.33-.42-.66-.84-.97-1.26-.43-.56-.85-1.12-1.24-1.7-.36-.5-.71-1.01-1.05-1.52-.25-.36-.48-.72-.72-1.09-.15-.22-.29-.45-.44-.67-.65-1.01-1.27-2.04-1.87-3.09-.28-.49-.55-.99-.83-1.49-.63-1.15-1.23-2.32-1.79-3.51-.25-.49-.48-1-.7-1.5-.24-.53-.48-1.06-.7-1.6-.02-.04-.03-.09-.05-.12-.24-.56-.48-1.13-.7-1.7,0-.02,0-.04-.02-.07-.23-.57-.45-1.15-.66-1.73-.21-.55-.41-1.11-.6-1.68-.17-.5-.34-1.02-.5-1.53-.11-.38-.24-.77-.35-1.15,0-.03-.02-.05-.02-.08-.13-.45-.27-.89-.39-1.34l33-26.66,50.57,54.82Z"/>
      <path class="cls-16" d="m161.96,64.19l-43.4,62.76-22.38-67.86,33.53-27.07c13.73,7.22,25,18.46,32.25,32.18Z"/>
      <polygon class="cls-2" points="118.56 126.95 103.29 149.02 52.72 94.19 96.18 59.09 118.56 126.95"/>
      <path class="cls-1" d="m108.15,89.45l.24-4.05,2.7-1.29c7.74-3.69,12.67-11.51,12.67-20.09,0-7.46-2.37-14.72-6.77-20.74l-3.02-4.13-25.75,8.62.22,9.67h-1.7c-3.45,0-6.25,2.8-6.25,6.25h0c0,3.45,2.8,6.25,6.25,6.25h1.99l.3,13.13v4.61s-4.65,4.48-13.47,8.28c0,0,9.84,12.35,26.1,13.17,16.26.81,16.88-8.96,16.88-8.96,0,0-6.74-4.04-10.61-7.38l.2-3.33Z"/>
      <path class="cls-4" d="m108.39,85.4l-.24,4.05c-.68-.08-1.4-.19-2.15-.32-11.51-2.1-16.02-12.51-15.55-17.87,0,0,3.88,12.89,17.94,14.14Z"/>
      <path class="cls-4" d="m86.57,61.9c.48.36.93.85,1.09,1.45,0,0-.96.32-1.05,1.4-.09,1.08,1.05,1.54,1.05,1.54,0,0-.87,1.46-2.33.67-1.46-.79-1.22-3.53.23-4.11,0,0-2.3-.26-3.15.58,0,0-.19-.85.77-1.6.99-.77,2.39-.7,3.39.06Z"/>
      <path class="cls-7" d="m107.84,54.28c-.13,0-.27.05-.38.15-2.2,1.92-4.46.41-4.48.39-.27-.19-.65-.12-.84.16-.19.27-.12.65.16.84,1.05.72,3.64,1.54,5.95-.48.25-.22.28-.6.06-.85-.12-.14-.3-.21-.47-.21Z"/>
      <path class="cls-7" d="m121.36,55.76c-.12-.06-.26-.09-.4-.06-2.87.54-4.05-1.91-4.06-1.94-.14-.3-.5-.43-.8-.29s-.43.5-.29.8c.54,1.15,2.35,3.18,5.37,2.61.33-.06.54-.38.48-.7-.03-.18-.15-.33-.3-.42Z"/>
      <path class="cls-8" d="m107.51,61.43s0,2.34-3.07,2.73c-3.07.39-3.62-2.73-3.62-2.73,0,0,1.74-1.63,3.99-1.68,2.25-.05,2.7,1.68,2.7,1.68Z"/>
      <path class="cls-8" d="m121.51,61.43s0,2.34-3,2.73c-3,.39-3.4-2.73-3.4-2.73,0,0,1.56-1.63,3.76-1.68,2.2-.05,2.64,1.68,2.64,1.68Z"/>
      <path class="cls-7" d="m115.11,61.43s1.61-1.76,3.33-2.08c1.72-.32,2.9.52,3.08,2.08,0,0-.34-1.29-2.06-1.45-1.72-.16-4.34,1.45-4.34,1.45Z"/>
      <path class="cls-7" d="m100.81,61.43s1.68-1.84,3.48-2.18c1.8-.33,3.03.54,3.22,2.18,0,0-.36-1.35-2.15-1.51-1.8-.17-4.54,1.51-4.54,1.51Z"/>
      <path class="cls-4" d="m112.16,61.5l1.41,8.53s1.13.09,2.68-.55c0,0-3.69-7.03-4.1-7.99Z"/>
      <path class="cls-7" d="m102.64,62.03c0,1.34.86,2.43,1.92,2.43s1.92-1.09,1.92-2.43-.86-2.43-1.92-2.43-1.92,1.09-1.92,2.43Z"/>
      <path class="cls-7" d="m116.12,62.11c0,1.3.84,2.36,1.88,2.36s1.88-1.06,1.88-2.36-.84-2.36-1.88-2.36-1.88,1.06-1.88,2.36Z"/>
      <ellipse class="cls-4" cx="98.87" cy="68.11" rx="2.81" ry="1.92"/>
      <ellipse class="cls-4" cx="121.78" cy="67.19" rx="2.81" ry="1.92"/>
      <path class="cls-8" d="m113.18,73.32s-4.53.15-6.36,1.83,4.94,2.19,6.36,1.53c1.43-.66,2.06-3.57,0-3.36Z"/>
      <path class="cls-7" d="m102.14,60.51s-.9.43-1.89-.2c0,0,.09.93.56,1.12l1.32-.92Z"/>
      <path class="cls-7" d="m120.47,59.88s1.07.88,1.88.61c.3-.1-.83.94-.83.94-.27-.98-1.04-1.55-1.04-1.55Z"/>
      <path class="cls-9" d="m126.66,105.1s14.42,26.35,19.92,48.45l-14.87,8.66s-5.91-11.81-7.94-29.94,2.89-27.17,2.89-27.17Z"/>
      <path class="cls-7" d="m118.56,45.6s-14.41,13.63-27.57,12.14c0,0-1.43,9.57.95,13.24,0,0-1.02,1.01-2.44-2.82-1.43-3.83-.3-9.12-1.03-10.72,0,0-4.39-1.04-7.28,3.43s3.43,9.94,7.57,9.07l.19,8.23s-4.74,1.77-8.75-1.62c-4-3.39-2.04-6.86-2.04-6.86,0,0-6.04-5.96-6.31-14.24s6.62-13.48,6.62-13.48c0,0,2.27-12.25,17.41-12.39,15.14-.14,19.55,4.41,19.55,4.41,0,0,9.77,1.66,12.52,12.05,2.75,10.39-4.18,15.94-4.18,15.94,0,0-2-13.31-5.21-16.37Z"/>
      <path class="cls-7" d="m81.01,40.53s-.73-8.9-9.17-8.52c-8.44.38-10.07,10.05-6.41,14.53,3.67,4.48,8.45,3.46,12.01,0,3.56-3.46,3.56-6.01,3.56-6.01Z"/>
      <path class="cls-8" d="m92.03,75.55l-5.32,11.08c-.19.4-.69.51-1.05.25l-.22-.17-17.44-13.48c-.27-.21-.35-.58-.19-.88l6.02-11.01.14-.26c.2-.38.7-.48,1.04-.2l16.84,13.85c.24.2.31.54.18.83Z"/>
      <path class="cls-3" d="m128.73,168.92c-10.41,5.26-22.17,8.21-34.63,8.21-10.25,0-20.04-2.01-28.98-5.65l-5.69-65.2s1.17-4.49,8.14-7.06c7.93-2.93,8.01-3.26,8.01-3.26,30.21,15.21,42.98,4.2,42.98,4.2l6.65,3.38c.66.33,1.17.88,1.45,1.56,1.57,3.75,6.77,16.77,7.29,25.74.41,7.15-2.97,26.35-5.23,38.08Z"/>
      <path class="cls-3" d="m62.75,101.86s-7.37,2.93-10.03,22.2.18,29.49.18,29.49l14.66-17.41s5.02-26.69-4.81-34.29Z"/>
      <path class="cls-1" d="m84.65,73.66c-1.41.81-5.07,3.37-5.72,4.45-.31.52-.45,1.11-.5,1.59l-.92-.46c.46-1.98,1.32-3.97,1.32-3.97,0,0,1.46-.78,2.27-1.93.81-1.15.51-2.08.51-2.08-.56.32-1.45.91-2.38,1.57.01-.02.03-.03.04-.05.81-1.15.51-2.08.51-2.08-1.46.84-5.26,3.5-5.94,4.62-.37.6-.49,1.3-.53,1.82l-.26-.13c.44-2.1,1.4-4.34,1.4-4.34,0,0,1.46-.78,2.27-1.93.81-1.15.51-2.08.51-2.08-1.46.84-5.26,3.5-5.94,4.62-.68,1.12-.54,2.58-.54,2.58l.54,9.57.54,10.52s-19.34,44.26-19.11,55.05,6.7,15.07,6.7,15.07c0,0,6.92-.81,11.34-7.63,4.41-6.82,8.48-58.76,8.48-58.76,0,0,2.31-3.53,2.72-6.91.41-3.38-1.14-11.9-1.14-11.9.46-1.75,1.16-3.36,1.16-3.36,0,0,1.41-.75,2.19-1.86.78-1.11.49-2,.49-2Z"/>
      <path class="cls-13" d="m92.03,75.55l-5.32,11.08c-.19.4-.69.51-1.05.25l-.22-.17,5.38-11.57-16.99-13.81.14-.26c.2-.38.7-.48,1.04-.2l16.84,13.85c.24.2.31.54.18.83Z"/>
      <polygon class="cls-13" points="73.83 63.54 73.09 65 76.75 67.95 77.59 66.55 73.83 63.54"/>
      <path class="cls-1" d="m179.84,107.23l-4.11.76-.11-.36c1.19-.41,3.98-1.5,5.11-3.2,1.45-2.18,1.96-4.28,1.96-4.28,0,0-2.52,1.32-3.49,3.83l-1.95.36c.78-.48,1.5-1.07,1.96-1.75,1.45-2.18,1.96-4.28,1.96-4.28,0,0-2.52,1.32-3.49,3.83l-2.45.46c1.02-.8,2.08-1.84,2.53-2.97.96-2.44,1.02-4.6,1.02-4.6,0,0-2.18,1.82-2.6,4.48l-2.7,1.13-11.81,3.69.09-1.7s.45-.27,1.69-1.25,2.8-5.05,2.8-5.05c0,0-6.19,2.91-7.7,6.12-1.51,3.21-2.94,11.13-2.94,11.13,0,0-14.19,34.15-16.71,43.56h0s-4.87,1.89-7.19,5.08c0,0,4.96,9.1,8.89,10.05,0,0,11.4-2.17,16.83-15.48,5.43-13.3,7.62-40.18,7.62-40.18l11.4-6.23s3.44-.98,4.63-2.76c1.19-1.78,1.6-3.5,1.6-3.5,0,0-2.06,1.08-2.85,3.13Z"/>
      <path class="cls-22" d="m129.07,145.99s-6.68-1.29-18.11-1.29-22.86,2.14-22.86,2.14"/>
      <path class="cls-23" d="m117.03,37.56s1.84,3.39,1.68,5.71"/>
      <path class="cls-23" d="m114.21,34.99s-7.46,2.43-11.57,8.29"/>
      <path class="cls-23" d="m79.61,38.78s-1.21,2.71-1.29,3.71c0,0-3.99,3.71-4.49,5.86"/>
      <path class="cls-23" d="m64.61,48.85c.29.21,4.23,3.2,8.28.68"/>
      <path class="cls-23" d="m84.53,37.56s9.26-8.54,24.58-4.04"/>
      <path class="cls-23" d="m86.39,55.19s3.98,1.6,12.48,0c8.5-1.6,16.24-10.31,16.24-10.31"/>
      <path class="cls-22" d="m82.96,101.86s11.62,4.85,23.53,4.13c11.9-.71,13.39-2.86,13.39-2.86"/>
    </g>
  </g>
</svg>