<?xml version="1.0" encoding="UTF-8"?>
<svg xmlns="http://www.w3.org/2000/svg" viewBox="0 0 500 372.61">
  <defs>
    <style>
      .cls-1, .cls-2, .cls-3, .cls-4, .cls-5, .cls-6, .cls-7, .cls-8, .cls-9, .cls-10, .cls-11, .cls-12, .cls-13, .cls-14, .cls-15, .cls-16, .cls-17, .cls-18, .cls-19, .cls-20, .cls-21, .cls-22 {
        stroke-width: 0px;
      }

      .cls-1, .cls-2, .cls-3, .cls-8, .cls-9, .cls-13, .cls-16, .cls-20, .cls-22 {
        fill: #fff;
      }

      .cls-1, .cls-3, .cls-5, .cls-23, .cls-13, .cls-17, .cls-24, .cls-22, .cls-25, .cls-26 {
        isolation: isolate;
      }

      .cls-1, .cls-25 {
        opacity: .3;
      }

      .cls-2, .cls-24, .cls-22 {
        opacity: .4;
      }

      .cls-3, .cls-5, .cls-12 {
        opacity: .2;
      }

      .cls-4 {
        fill: #407bff;
      }

      .cls-7 {
        fill: #e0e0e0;
      }

      .cls-8, .cls-13 {
        opacity: .5;
      }

      .cls-9 {
        opacity: .8;
      }

      .cls-10 {
        fill: #f5f5f5;
      }

      .cls-11, .cls-27 {
        fill: #f0f0f0;
      }

      .cls-14 {
        fill: #e4897b;
      }

      .cls-15 {
        fill: #de5753;
      }

      .cls-17 {
        opacity: .1;
      }

      .cls-28 {
        stroke: #fff;
      }

      .cls-28, .cls-29, .cls-30 {
        stroke-miterlimit: 10;
      }

      .cls-28, .cls-29, .cls-30, .cls-31 {
        fill: none;
      }

      .cls-28, .cls-31 {
        stroke-width: .58px;
      }

      .cls-18 {
        fill: #fafafa;
      }

      .cls-19 {
        fill: #263238;
      }

      .cls-20 {
        opacity: .7;
      }

      .cls-21 {
        fill: #ebebeb;
      }

      .cls-29 {
        stroke: #407bff;
        stroke-width: .94px;
      }

      .cls-26 {
        opacity: .6;
      }

      .cls-30, .cls-27 {
        stroke: #e0e0e0;
      }

      .cls-31 {
        stroke: #263238;
      }

      .cls-31, .cls-27 {
        stroke-linecap: round;
        stroke-linejoin: round;
      }

      .cls-27 {
        stroke-width: 2px;
      }
    </style>
  </defs>
  <g id="Background_Complete" data-name="Background Complete">
    <g>
      <rect class="cls-21" y="327.45" width="500" height=".25"/>
      <rect class="cls-21" x="416.78" y="343.54" width="33.12" height=".25"/>
      <rect class="cls-21" x="322.53" y="346.26" width="8.69" height=".25"/>
      <rect class="cls-21" x="396.59" y="334.26" width="19.19" height=".25"/>
      <rect class="cls-21" x="52.46" y="335.94" width="43.19" height=".25"/>
      <rect class="cls-21" x="104.56" y="335.94" width="6.33" height=".25"/>
      <rect class="cls-21" x="131.47" y="340.16" width="93.68" height=".25"/>
      <path class="cls-21" d="m237.01,282.85H43.91c-3.15,0-5.71-2.56-5.71-5.71V5.71c0-3.15,2.56-5.71,5.71-5.71h193.1c3.15,0,5.71,2.56,5.71,5.71v271.43c0,3.15-2.56,5.71-5.71,5.71ZM43.91.25c-3.01,0-5.46,2.45-5.46,5.46v271.43c0,3.01,2.45,5.46,5.46,5.46h193.1c3.01,0,5.46-2.45,5.46-5.46V5.71c0-3.01-2.45-5.46-5.46-5.46H43.91Z"/>
      <path class="cls-21" d="m453.31,282.85h-193.1c-3.15,0-5.71-2.56-5.71-5.71V5.71c0-3.15,2.56-5.71,5.71-5.71h193.1c3.15,0,5.71,2.56,5.71,5.71v271.43c0,3.15-2.56,5.71-5.71,5.71ZM260.21.25c-3.01,0-5.46,2.45-5.46,5.46v271.43c0,3.01,2.45,5.46,5.46,5.46h193.1c3.01,0,5.46-2.45,5.46-5.46V5.71c0-3.01-2.45-5.46-5.46-5.46h-193.1Z"/>
    </g>
    <g>
      <g>
        <rect class="cls-21" x="222.09" y="51.23" width="91.95" height="207.14"/>
        <rect class="cls-18" x="168.39" y="112.29" width="199.37" height="85.01" transform="translate(422.86 -113.28) rotate(90)"/>
        <rect class="cls-10" x="267.09" y="54.11" width="1.95" height="202.31"/>
        <rect class="cls-7" x="219.97" y="48.53" width="96.19" height="9.75"/>
        <g>
          <rect class="cls-10" x="219.97" y="59.36" width="96.19" height="1.16"/>
          <rect class="cls-10" x="219.97" y="61.98" width="96.19" height="1.16"/>
          <rect class="cls-10" x="219.97" y="64.6" width="96.19" height="1.16"/>
          <rect class="cls-10" x="219.97" y="67.22" width="96.19" height="1.16"/>
          <rect class="cls-10" x="219.97" y="69.85" width="96.19" height="1.16"/>
          <rect class="cls-10" x="219.97" y="72.47" width="96.19" height="1.16"/>
          <rect class="cls-10" x="219.97" y="75.09" width="96.19" height="1.16"/>
          <rect class="cls-10" x="219.97" y="77.71" width="96.19" height="1.16"/>
          <rect class="cls-10" x="219.97" y="80.34" width="96.19" height="1.16"/>
          <rect class="cls-10" x="219.97" y="82.96" width="96.19" height="1.16"/>
          <rect class="cls-10" x="219.97" y="85.58" width="96.19" height="1.16"/>
          <rect class="cls-10" x="219.97" y="88.2" width="96.19" height="1.16"/>
          <rect class="cls-10" x="219.97" y="90.83" width="96.19" height="1.16"/>
          <rect class="cls-10" x="219.97" y="93.45" width="96.19" height="1.16"/>
          <rect class="cls-10" x="219.97" y="96.07" width="96.19" height="1.16"/>
          <rect class="cls-10" x="219.97" y="98.69" width="96.19" height="1.16"/>
          <rect class="cls-10" x="219.97" y="101.32" width="96.19" height="1.16"/>
          <rect class="cls-10" x="219.97" y="103.94" width="96.19" height="1.16"/>
        </g>
      </g>
      <g>
        <rect class="cls-21" x="330.95" y="51.23" width="91.95" height="207.14"/>
        <rect class="cls-18" x="277.25" y="112.29" width="199.37" height="85.01" transform="translate(531.72 -222.14) rotate(90)"/>
        <rect class="cls-10" x="375.95" y="54.11" width="1.95" height="202.31"/>
        <rect class="cls-7" x="328.83" y="48.53" width="96.19" height="9.75"/>
        <g>
          <rect class="cls-10" x="328.83" y="59.36" width="96.19" height="1.16"/>
          <rect class="cls-10" x="328.83" y="61.98" width="96.19" height="1.16"/>
          <rect class="cls-10" x="328.83" y="64.6" width="96.19" height="1.16"/>
          <rect class="cls-10" x="328.83" y="67.22" width="96.19" height="1.16"/>
          <rect class="cls-10" x="328.83" y="69.85" width="96.19" height="1.16"/>
          <rect class="cls-10" x="328.83" y="72.47" width="96.19" height="1.16"/>
          <rect class="cls-10" x="328.83" y="75.09" width="96.19" height="1.16"/>
          <rect class="cls-10" x="328.83" y="77.71" width="96.19" height="1.16"/>
          <rect class="cls-10" x="328.83" y="80.34" width="96.19" height="1.16"/>
          <rect class="cls-10" x="328.83" y="82.96" width="96.19" height="1.16"/>
          <rect class="cls-10" x="328.83" y="85.58" width="96.19" height="1.16"/>
          <rect class="cls-10" x="328.83" y="88.2" width="96.19" height="1.16"/>
          <rect class="cls-10" x="328.83" y="90.83" width="96.19" height="1.16"/>
          <rect class="cls-10" x="328.83" y="93.45" width="96.19" height="1.16"/>
          <rect class="cls-10" x="328.83" y="96.07" width="96.19" height="1.16"/>
          <rect class="cls-10" x="328.83" y="98.69" width="96.19" height="1.16"/>
          <rect class="cls-10" x="328.83" y="101.32" width="96.19" height="1.16"/>
          <rect class="cls-10" x="328.83" y="103.94" width="96.19" height="1.16"/>
        </g>
      </g>
      <g>
        <rect class="cls-7" x="84.7" y="67.37" width="89.91" height="115.7" transform="translate(254.87 -4.44) rotate(90)"/>
        <rect class="cls-21" x="73.41" y="81.87" width="112.49" height="86.7" transform="translate(259.31 250.43) rotate(180)"/>
        <line class="cls-30" x1="127.77" y1="97.53" x2="127.77" y2="109.62"/>
        <polyline class="cls-30" points="100.28 148.54 100.28 109.62 151.31 109.62 151.31 131.94"/>
        <polyline class="cls-30" points="138.1 143.83 138.1 131.94 166.16 131.94 166.16 144.24"/>
        <rect class="cls-10" x="114.87" y="93.08" width="25.81" height="8.88"/>
        <rect class="cls-10" x="139.39" y="114.4" width="24.6" height="9.65"/>
        <rect class="cls-10" x="129.66" y="138.85" width="16.9" height="9.96"/>
        <rect class="cls-10" x="157.11" y="140.46" width="18.09" height="7.56"/>
        <rect class="cls-10" x="88.4" y="116.45" width="27.95" height="12.89"/>
        <rect class="cls-10" x="91.35" y="143.83" width="17.85" height="9.42"/>
        <rect class="cls-10" x="125.05" y="107.21" width="5.45" height="5.45" transform="translate(115.15 -58.15) rotate(45)"/>
        <rect class="cls-10" x="148.58" y="129.22" width="5.45" height="5.45" transform="translate(137.62 -68.35) rotate(45)"/>
      </g>
      <g>
        <circle class="cls-7" cx="129.66" cy="51.31" r="16.3"/>
        <circle class="cls-11" cx="129.66" cy="51.31" r="13.86"/>
        <polyline class="cls-27" points="130.31 41.8 130.31 51.49 136.73 47.85"/>
      </g>
    </g>
  </g>
  <g id="Shadow">
    <ellipse id="_Path_" data-name="&amp;lt;Path&amp;gt;" class="cls-10" cx="250" cy="361.29" rx="193.89" ry="11.32"/>
  </g>
  <g id="Plant">
    <g>
      <g>
        <path class="cls-29" d="m117.07,292.63s-6.62-5.52-12.3,0c-5.68,5.52-6.77,39.71-6.77,39.71"/>
        <path class="cls-29" d="m97.53,338.94s3.9-40.13-10.79-56.99"/>
        <path class="cls-29" d="m98.93,334.72s-3.01-45.68,8.01-55.81"/>
        <path class="cls-29" d="m97.53,334.72s-.26-30.19-8.45-34.88c-8.19-4.69-12.36,10.61-12.36,10.61"/>
        <path class="cls-29" d="m100.76,334.72s-1.34-23.17,5.01-31.46c6.34-8.28,13.02,3.55,13.02,3.55"/>
        <path class="cls-29" d="m98.55,337.82s4.1-54.19-2.69-63.38"/>
      </g>
      <g>
        <path class="cls-4" d="m82.07,304.24s4.08,1.51,2.87,5.06-14.12,9.4-14.12,9.4c0,0-5.41-4.96-.44-13.02,4.97-8.06,11.59-3.99,11.7-1.44Z"/>
        <path class="cls-22" d="m82.07,304.24s4.08,1.51,2.87,5.06-14.12,9.4-14.12,9.4c0,0-5.41-4.96-.44-13.02,4.97-8.06,11.59-3.99,11.7-1.44Z"/>
      </g>
      <g>
        <path class="cls-4" d="m99.82,297.47s-4.35-.18-4.59,3.57c-.25,3.75,9.42,14.11,9.42,14.11,0,0,6.9-2.49,5.42-11.84-1.48-9.35-9.16-8.14-10.24-5.83Z"/>
        <path class="cls-22" d="m99.82,297.47s-4.35-.18-4.59,3.57c-.25,3.75,9.42,14.11,9.42,14.11,0,0,6.9-2.49,5.42-11.84-1.48-9.35-9.16-8.14-10.24-5.83Z"/>
      </g>
      <g>
        <path class="cls-4" d="m103.5,279.53s-2.9-.31-2.67-2.08c.23-1.77,11.27-6.31,17.78,1.04,0,0-4.17,7.16-10.2,7.25-6.03.09-4.92-6.22-4.92-6.22Z"/>
        <path class="cls-22" d="m103.5,279.53s-2.9-.31-2.67-2.08c.23-1.77,11.27-6.31,17.78,1.04,0,0-4.17,7.16-10.2,7.25-6.03.09-4.92-6.22-4.92-6.22Z"/>
      </g>
      <g>
        <path class="cls-4" d="m98.1,275.25s2.62,1.27,3.36-.35c.74-1.62-6.23-11.31-15.64-8.52,0,0-.25,8.28,4.82,11.55,5.07,3.27,7.46-2.67,7.46-2.67Z"/>
        <path class="cls-22" d="m98.1,275.25s2.62,1.27,3.36-.35c.74-1.62-6.23-11.31-15.64-8.52,0,0-.25,8.28,4.82,11.55,5.07,3.27,7.46-2.67,7.46-2.67Z"/>
      </g>
      <g>
        <path class="cls-4" d="m111.83,302.81s-2-1.62.16-2.4c2.16-.79,12.75-.56,12.86,9.93,0,0-12.34,2.05-13.87-1.95-1.53-4,.84-5.58.84-5.58Z"/>
        <path class="cls-22" d="m111.83,302.81s-2-1.62.16-2.4c2.16-.79,12.75-.56,12.86,9.93,0,0-12.34,2.05-13.87-1.95-1.53-4,.84-5.58.84-5.58Z"/>
      </g>
      <g>
        <path class="cls-4" d="m86.67,279.27s2-1.62-.16-2.4c-2.16-.79-12.75-.56-12.86,9.93,0,0,12.34,2.05,13.87-1.95,1.53-4-.84-5.58-.84-5.58Z"/>
        <path class="cls-22" d="m86.67,279.27s2-1.62-.16-2.4c-2.16-.79-12.75-.56-12.86,9.93,0,0,12.34,2.05,13.87-1.95,1.53-4-.84-5.58-.84-5.58Z"/>
      </g>
      <g>
        <path class="cls-4" d="m93.19,287.72s.18-1.96-1.41-1.19c-1.59.77-7.11,6.73-1.38,12.38,0,0,7.71-5.71,6.32-8.68-1.39-2.97-3.52-2.51-3.52-2.51Z"/>
        <path class="cls-22" d="m93.19,287.72s.18-1.96-1.41-1.19c-1.59.77-7.11,6.73-1.38,12.38,0,0,7.71-5.71,6.32-8.68-1.39-2.97-3.52-2.51-3.52-2.51Z"/>
      </g>
      <g>
        <path class="cls-4" d="m113.61,290.52s-1.2-1.57.56-1.76c1.75-.19,9.6,1.9,7.77,9.74,0,0-9.56-.72-9.97-3.97-.41-3.25,1.64-4,1.64-4Z"/>
        <path class="cls-22" d="m113.61,290.52s-1.2-1.57.56-1.76c1.75-.19,9.6,1.9,7.77,9.74,0,0-9.56-.72-9.97-3.97-.41-3.25,1.64-4,1.64-4Z"/>
      </g>
      <polygon class="cls-19" points="82.78 363.8 113.7 363.8 117.81 333.74 78.68 333.74 82.78 363.8"/>
      <polygon class="cls-3" points="82.78 363.8 113.7 363.8 117.81 333.74 78.68 333.74 82.78 363.8"/>
      <path class="cls-19" d="m121.68,331.31v2.86c0,1.91-1.55,3.46-3.46,3.46h-40.35c-1.91,0-3.46-1.55-3.46-3.46v-2.86h47.27Z"/>
    </g>
  </g>
  <g id="Trash_bin" data-name="Trash bin">
    <g>
      <g>
        <path class="cls-4" d="m372.37,337.33c-1.08-1.81.44-4.53,2.55-4.56-.92-2.6-.01-5.74,2.16-7.44.27-.21.59-.42.94-.42.37,0,.7.23,1.01.44,1.98,1.43,3.97,2.85,5.95,4.28.45.33.92.67,1.18,1.17,1.22,2.36-3.17,5.38-1.37,7.32.52.56,1.35.67,2,1.08,1.42.89,1.59,2.83,2.25,4.37.66,1.54,2.96,2.73,3.84,1.31-.65-1.47,1.32-2.74,2.92-2.93,1.58-.18,3.27-.27,4.15-1.77,2.27,1.98,7.35-3.55,7.23-5.78,1.86.14,3.13,1.89,3.54,3.63.42,1.81.16,3.7.19,5.56.06,3.61,1.22,7.15,1.16,10.76-.05,2.81-1.13,5.93-3.71,7.06-1.24.54-2.64.54-3.99.54-9.77-.06-19.53-.12-29.3-.19-.7,0-1.44-.02-2.06-.34-1.32-.69-1.6-2.43-1.72-3.91-.52-6.36-1.05-12.73-1.57-19.09.88-.36,1.77-.72,2.65-1.08Z"/>
        <path class="cls-1" d="m372.37,337.33c-1.08-1.81.44-4.53,2.55-4.56-.92-2.6-.01-5.74,2.16-7.44.27-.21.59-.42.94-.42.37,0,.7.23,1.01.44,1.98,1.43,3.97,2.85,5.95,4.28.45.33.92.67,1.18,1.17,1.22,2.36-3.17,5.38-1.37,7.32.52.56,1.35.67,2,1.08,1.42.89,1.59,2.83,2.25,4.37.66,1.54,2.96,2.73,3.84,1.31-.65-1.47,1.32-2.74,2.92-2.93,1.58-.18,3.27-.27,4.15-1.77,2.27,1.98,7.35-3.55,7.23-5.78,1.86.14,3.13,1.89,3.54,3.63.42,1.81.16,3.7.19,5.56.06,3.61,1.22,7.15,1.16,10.76-.05,2.81-1.13,5.93-3.71,7.06-1.24.54-2.64.54-3.99.54-9.77-.06-19.53-.12-29.3-.19-.7,0-1.44-.02-2.06-.34-1.32-.69-1.6-2.43-1.72-3.91-.52-6.36-1.05-12.73-1.57-19.09.88-.36,1.77-.72,2.65-1.08Z"/>
      </g>
      <g>
        <path class="cls-4" d="m365.54,306.36l.37,4.59.27,3.28.68,8.54.4,4.89.53,6.53.22,2.8.06.83.27,3.28.36,4.52.22,2.8.24,2.83.27,3.29.2,2.51.22,2.79.1,1.22h41.72l.1-1.22.22-2.8.2-2.49.27-3.29.23-2.84.22-2.8.36-4.51.27-3.29.07-.83.22-2.8.52-6.53.4-4.9.69-8.53.27-3.28.37-4.59h-50.57Zm2.31,2.14h.95l-.88.88h0l-.07-.88Zm3.96,0h.98l4.18,4.18-4.67,4.67-4.07-4.07-.09-1.11,3.66-3.66Zm-2.73,15.09l3.23-3.23,4.67,4.66-4.67,4.67-2.98-2.98-.25-3.12Zm43.24,3.12l-2.97,2.98-4.67-4.67,4.67-4.66,3.23,3.23h0l-.26,3.12Zm-33.85-12.53l4.67,4.67-4.67,4.67-4.67-4.67,4.67-4.67Zm0-3.01l-2.67-2.67h5.34l-2.67,2.67Zm6.17,9.2l4.67,4.66-4.67,4.67-4.66-4.67,4.66-4.66Zm6.17,15.5l-4.66-4.67,4.66-4.66,4.67,4.66-4.67,4.67Zm6.17-3.15l4.67,4.67-4.66,4.66-4.67-4.67,4.66-4.66Zm-7.68,4.66l-4.67,4.67-4.66-4.66,4.66-4.67,4.67,4.66Zm-3.15-18.52l4.66-4.67,4.67,4.67-4.67,4.67-4.66-4.67Zm10.83,1.52l4.67,4.66-4.67,4.67-4.66-4.67,4.66-4.66Zm1.52-1.52l4.67-4.67,4.66,4.67-4.66,4.67-4.67-4.67Zm9.32,12.35l-4.66,4.67-4.67-4.67,4.67-4.66,4.66,4.66Zm-4.66,7.69l4.66,4.67-4.66,4.66-4.67-4.66,4.67-4.67Zm-1.52,10.84l-4.67,4.67-4.66-4.67,4.67-4.67,4.66,4.67Zm-10.84-1.52l-4.66-4.66,4.66-4.67,4.67,4.67-4.67,4.66Zm-1.51,1.52l-4.67,4.67-4.66-4.67,4.66-4.67,4.67,4.67Zm-6.17,6.17l-3.02,3.02h-3.29l-3.02-3.02,4.67-4.67,4.67,4.67Zm-4.67-7.69l-4.67-4.66,4.67-4.67,4.67,4.67-4.67,4.66Zm0-12.35l-4.67-4.67,4.67-4.66,4.67,4.66-4.67,4.67Zm5.68-27.36h.98l4.18,4.18-4.67,4.67-4.66-4.67,4.17-4.18Zm4.01,0h5.33l-2.67,2.67-2.66-2.67Zm8.34,0h.98l4.18,4.18-4.67,4.67-4.66-4.67,4.17-4.18Zm9.33,0l-2.66,2.67-2.67-2.67h5.33Zm4.01,0l3.65,3.66-.09,1.11-4.06,4.07-4.67-4.67,4.18-4.18h.98Zm3.95,0l-.07.87h0l-.87-.87h.94Zm-.99,12.29l-1.94-1.94,2.29-2.29-.34,4.23Zm-.93,11.42l-1.01-1.01,1.2-1.2h0l-.18,2.21h0Zm-.64,7.95l-1.88,1.88-4.67-4.66,4.67-4.67,2.3,2.31-.42,5.14Zm-.28,3.49l-.1-.1.11-.11v.2h-.01Zm-.81,9.94l-.79.79-4.67-4.66,4.67-4.67,1.38,1.38-.59,7.16h0Zm-2.31,5.33l1.52-1.52.45.45-.09,1.07h-1.88Zm-3.01,0h-3.29l-3.02-3.02,4.67-4.67,4.66,4.67-3.01,3.02Zm-9.35,0l1.52-1.52,1.52,1.52h-3.03Zm-6.3,0l-3.01-3.02,4.66-4.67,4.67,4.67-3.02,3.02h-3.29Zm-6.05,0l1.52-1.52,1.52,1.52h-3.03Zm-11.28-1.07l.45-.45,1.52,1.52h-1.88l-.09-1.07Zm-.93-11.42l1.38-1.38,4.67,4.67-4.67,4.66-.8-.79-.58-7.16Zm-.25-3l.12.12-.1.1-.02-.21h0Zm-.68-8.42l2.31-2.31,4.67,4.67-4.67,4.66-1.89-1.88-.42-5.14Zm-.41-5.02l1.21,1.2-1.03,1.03-.18-2.22Zm-1.09-13.45l2.3,2.3-1.95,1.95-.34-4.25h0Z"/>
        <g class="cls-26">
          <path class="cls-16" d="m365.54,306.36l.37,4.59.27,3.28.68,8.54.4,4.89.53,6.53.22,2.8.06.83.27,3.28.36,4.52.22,2.8.24,2.83.27,3.29.2,2.51.22,2.79.1,1.22h41.72l.1-1.22.22-2.8.2-2.49.27-3.29.23-2.84.22-2.8.36-4.51.27-3.29.07-.83.22-2.8.52-6.53.4-4.9.69-8.53.27-3.28.37-4.59h-50.57Zm2.31,2.14h.95l-.88.88h0l-.07-.88Zm3.96,0h.98l4.18,4.18-4.67,4.67-4.07-4.07-.09-1.11,3.66-3.66Zm-2.73,15.09l3.23-3.23,4.67,4.66-4.67,4.67-2.98-2.98-.25-3.12Zm43.24,3.12l-2.97,2.98-4.67-4.67,4.67-4.66,3.23,3.23h0l-.26,3.12Zm-33.85-12.53l4.67,4.67-4.67,4.67-4.67-4.67,4.67-4.67Zm0-3.01l-2.67-2.67h5.34l-2.67,2.67Zm6.17,9.2l4.67,4.66-4.67,4.67-4.66-4.67,4.66-4.66Zm6.17,15.5l-4.66-4.67,4.66-4.66,4.67,4.66-4.67,4.67Zm6.17-3.15l4.67,4.67-4.66,4.66-4.67-4.67,4.66-4.66Zm-7.68,4.66l-4.67,4.67-4.66-4.66,4.66-4.67,4.67,4.66Zm-3.15-18.52l4.66-4.67,4.67,4.67-4.67,4.67-4.66-4.67Zm10.83,1.52l4.67,4.66-4.67,4.67-4.66-4.67,4.66-4.66Zm1.52-1.52l4.67-4.67,4.66,4.67-4.66,4.67-4.67-4.67Zm9.32,12.35l-4.66,4.67-4.67-4.67,4.67-4.66,4.66,4.66Zm-4.66,7.69l4.66,4.67-4.66,4.66-4.67-4.66,4.67-4.67Zm-1.52,10.84l-4.67,4.67-4.66-4.67,4.67-4.67,4.66,4.67Zm-10.84-1.52l-4.66-4.66,4.66-4.67,4.67,4.67-4.67,4.66Zm-1.51,1.52l-4.67,4.67-4.66-4.67,4.66-4.67,4.67,4.67Zm-6.17,6.17l-3.02,3.02h-3.29l-3.02-3.02,4.67-4.67,4.67,4.67Zm-4.67-7.69l-4.67-4.66,4.67-4.67,4.67,4.67-4.67,4.66Zm0-12.35l-4.67-4.67,4.67-4.66,4.67,4.66-4.67,4.67Zm5.68-27.36h.98l4.18,4.18-4.67,4.67-4.66-4.67,4.17-4.18Zm4.01,0h5.33l-2.67,2.67-2.66-2.67Zm8.34,0h.98l4.18,4.18-4.67,4.67-4.66-4.67,4.17-4.18Zm9.33,0l-2.66,2.67-2.67-2.67h5.33Zm4.01,0l3.65,3.66-.09,1.11-4.06,4.07-4.67-4.67,4.18-4.18h.98Zm3.95,0l-.07.87h0l-.87-.87h.94Zm-.99,12.29l-1.94-1.94,2.29-2.29-.34,4.23Zm-.93,11.42l-1.01-1.01,1.2-1.2h0l-.18,2.21h0Zm-.64,7.95l-1.88,1.88-4.67-4.66,4.67-4.67,2.3,2.31-.42,5.14Zm-.28,3.49l-.1-.1.11-.11v.2h-.01Zm-.81,9.94l-.79.79-4.67-4.66,4.67-4.67,1.38,1.38-.59,7.16h0Zm-2.31,5.33l1.52-1.52.45.45-.09,1.07h-1.88Zm-3.01,0h-3.29l-3.02-3.02,4.67-4.67,4.66,4.67-3.01,3.02Zm-9.35,0l1.52-1.52,1.52,1.52h-3.03Zm-6.3,0l-3.01-3.02,4.66-4.67,4.67,4.67-3.02,3.02h-3.29Zm-6.05,0l1.52-1.52,1.52,1.52h-3.03Zm-11.28-1.07l.45-.45,1.52,1.52h-1.88l-.09-1.07Zm-.93-11.42l1.38-1.38,4.67,4.67-4.67,4.66-.8-.79-.58-7.16Zm-.25-3l.12.12-.1.1-.02-.21h0Zm-.68-8.42l2.31-2.31,4.67,4.67-4.67,4.66-1.89-1.88-.42-5.14Zm-.41-5.02l1.21,1.2-1.03,1.03-.18-2.22Zm-1.09-13.45l2.3,2.3-1.95,1.95-.34-4.25h0Z"/>
        </g>
      </g>
      <rect class="cls-4" x="362.63" y="304.46" width="56.39" height="5.95" rx="1.64" ry="1.64"/>
      <rect class="cls-4" x="366.7" y="357.86" width="48.26" height="5.95" rx="1.64" ry="1.64" transform="translate(781.65 721.66) rotate(180)"/>
    </g>
  </g>
  <g id="Speech_bubble" data-name="Speech bubble">
    <g>
      <g>
        <path class="cls-4" d="m213.92,68.36h-33.47c-6.36,0-11.51,5.15-11.51,11.51v32.53c0,6.36,5.15,11.51,11.51,11.51h4.55l.03,12.15,7.71-12.15h21.18c6.36,0,11.51-5.15,11.51-11.51v-32.53c0-6.36-5.15-11.51-11.51-11.51Z"/>
        <path class="cls-2" d="m213.92,68.36h-33.47c-6.36,0-11.51,5.15-11.51,11.51v32.53c0,6.36,5.15,11.51,11.51,11.51h4.55l.03,12.15,7.71-12.15h21.18c6.36,0,11.51-5.15,11.51-11.51v-32.53c0-6.36-5.15-11.51-11.51-11.51Z"/>
      </g>
      <path class="cls-16" d="m202.72,90.8c0-2.44-2.09-4.1-5.45-4.1s-5.58,1.22-7.11,3.36l-4.23-2.75c2.44-3.31,6.37-5.32,11.82-5.32,6.41,0,10.68,2.92,10.68,7.94,0,7.11-7.46,7.76-7.46,12.91h-5.54c0-6.45,7.28-7.67,7.28-12.03Zm-7.98,19.05c0-1.87,1.44-3.36,3.49-3.36s3.44,1.48,3.44,3.36-1.44,3.4-3.44,3.4-3.49-1.53-3.49-3.4Z"/>
    </g>
  </g>
  <g id="Character">
    <g>
      <g>
        <path class="cls-19" d="m142.85,215.15s2.82,56.47,14.98,66.19h-13.01s-11.6-19.24-12.46-66.19h10.49Z"/>
        <path class="cls-3" d="m142.85,215.15s2.82,56.47,14.98,66.19h-13.01s-11.6-19.24-12.46-66.19h10.49Z"/>
        <path class="cls-19" d="m133.08,223.12h12.31c3.61,0,6.21-3.24,5.82-7.24l-.53-5.34c-.39-4-3.64-7.24-7.24-7.24h-12.31c-3.61,0-6.21,3.24-5.82,7.24l.53,5.34c.39,4,3.64,7.24,7.24,7.24Z"/>
        <path class="cls-19" d="m131.17,227.52h20.84c6.1,0,10.51-5.49,9.85-12.25l-.89-9.03c-.67-6.77-6.15-12.25-12.26-12.25h-20.84c-6.1,0-10.51,5.48-9.85,12.25l.89,9.03c.67,6.77,6.15,12.25,12.26,12.25Z"/>
        <path class="cls-8" d="m131.17,227.52h20.84c6.1,0,10.51-5.49,9.85-12.25l-.89-9.03c-.67-6.77-6.15-12.25-12.26-12.25h-20.84c-6.1,0-10.51,5.48-9.85,12.25l.89,9.03c.67,6.77,6.15,12.25,12.26,12.25Z"/>
      </g>
      <g>
        <path class="cls-19" d="m141.39,275.58h58.47c2.48,0,4.49,2.01,4.49,4.49v4.87h-67.46v-4.87c0-2.48,2.01-4.49,4.49-4.49Z"/>
        <path class="cls-8" d="m141.39,275.58h58.47c2.48,0,4.49,2.01,4.49,4.49v4.87h-67.46v-4.87c0-2.48,2.01-4.49,4.49-4.49Z"/>
        <path class="cls-19" d="m139.25,345.6l26.01-2.27v-34.15h9.14v34.14l26.1,2.28c2.3.23,4.05,2.16,4.05,4.47v3.46h-69.35v-3.46c0-2.31,1.75-4.24,4.05-4.47Z"/>
        <path class="cls-19" d="m196.13,357.83c0,3.3,2.68,5.98,5.98,5.98s5.98-2.68,5.98-5.98-2.68-5.98-5.98-5.98-5.98,2.68-5.98,5.98Z"/>
        <path class="cls-19" d="m143.61,357.83c0,3.3-2.68,5.98-5.98,5.98s-5.98-2.68-5.98-5.98,2.68-5.98,5.98-5.98,5.98,2.68,5.98,5.98Z"/>
        <path class="cls-19" d="m167.39,282.71h4.86c2.05,0,3.71,1.66,3.71,3.71v29.72h-12.29v-29.72c0-2.05,1.66-3.71,3.71-3.71Z" transform="translate(339.65 598.86) rotate(180)"/>
        <path class="cls-3" d="m167.39,282.71h4.86c2.05,0,3.71,1.66,3.71,3.71v29.72h-12.29v-29.72c0-2.05,1.66-3.71,3.71-3.71Z" transform="translate(339.65 598.86) rotate(180)"/>
        <rect class="cls-19" x="134.33" y="281.35" width="72.59" height="4.68" rx="1.81" ry="1.81"/>
        <path class="cls-3" d="m196.13,357.83c0,3.3,2.68,5.98,5.98,5.98s5.98-2.68,5.98-5.98-2.68-5.98-5.98-5.98-5.98,2.68-5.98,5.98Z"/>
        <path class="cls-3" d="m143.61,357.83c0,3.3-2.68,5.98-5.98,5.98s-5.98-2.68-5.98-5.98,2.68-5.98,5.98-5.98,5.98,2.68,5.98,5.98Z"/>
      </g>
    </g>
    <g>
      <path class="cls-19" d="m145.98,140.56s1.75-5.62,9.09-6.64c7.34-1.02,16.28,1.45,18.11,4.51,1.83,3.06.41,6.07,2.87,7.08,2.45,1.01,5.94,3.5,5.26,6-.68,2.5-3.15,7.57-.43,8.56s4.43,4.98,3.23,7.03-1.62,4.48-.26,5.18,2.98,2.07,1.87,4.15-2.21,2.37-.51,4.14c1.7,1.77-1.25,5.75-1.25,5.75,0,0-39.26,4.67-44.03.56-4.77-4.11-1.79-7.74-.77-8.82s-1.51-.66-1.86-4.74,2.12-4.68,2.63-7.06c.51-2.38-1.96-4.68-.34-6.98,1.62-2.3,2.2-3.63.97-6.07-1.23-2.44-1.31-12.48,5.41-12.66Z"/>
      <g>
        <path class="cls-14" d="m213.37,180.58l8.7-1.16-5.33-8.15s-7.78,3.23-6.84,7.17l3.46,2.15Z"/>
        <polygon class="cls-14" points="228.84 173.94 221.88 168.49 216.75 171.26 222.07 179.41 228.84 173.94"/>
      </g>
      <path class="cls-4" d="m215.47,180.65s-9.99,35.23-17.84,33.09c-4.35-1.18-8.51-5.35-11.84-9.7-4.37-5.71-7.29-11.76-7.29-11.76v-.13s-.95-16.72-.95-16.72c7.77,1.91,19.15,22.85,19.15,22.85l12.59-20.65,6.17,3.02Z"/>
      <path class="cls-20" d="m176.04,199.29c-10.6-9.95-23.9-16.66-23.9-16.66.79-.09,1.59-.17,2.4-.24,6.09-.5,11.07-.86,16.5-.56,1.37.08,2.77.19,4.14.31h0c3.41,7.83.85,17.15.85,17.15Z"/>
      <g>
        <path class="cls-4" d="m152.14,234.39c-.75-8.46-3.78-23.95-8.99-40.23-1.7-5.29,1.18-11.27,1.18-11.27,0,0,7.09-.18,7.81-.26.79-.09,1.59-.17,2.4-.24,6.09-.5,11.07-.86,16.5-.56,1.37.08,2.77.19,4.14.31.44.05,5.43.09,5.86.14,0,0,6.91,7.9,7.33,14.29.23,3.57.76,6.27.57,14.82-.03,5.8-.45,13.46-.84,21.62l-35.97,1.37Z"/>
        <path class="cls-9" d="m152.14,234.39c-.75-8.46-3.78-23.95-8.99-40.23-1.7-5.29,1.18-11.27,1.18-11.27,0,0,7.09-.18,7.81-.26.79-.09,1.59-.17,2.4-.24,6.09-.5,11.07-.86,16.5-.56,1.37.08,2.77.19,4.14.31.44.05,5.43.09,5.86.14,0,0,6.91,7.9,7.33,14.29.23,3.57.76,6.27.57,14.82-.03,5.8-.45,13.46-.84,21.62l-35.97,1.37Z"/>
        <path class="cls-19" d="m152.14,234.39l36.02-2.43s1.08,10.82.83,10.66c-.25-.15-38.55,1.35-38.55,1.35l1.7-9.58Z"/>
        <polygon class="cls-6" points="152.47 234.98 188.11 233.02 188.11 236.39 152.14 238.31 152.47 234.98"/>
        <path class="cls-28" d="m171.85,236.86l-.15-1.98c-.03-.38.25-.71.63-.74l3.9-.3c.4-.03.74.28.74.68v2.09c0,.36-.28.66-.65.68l-3.75.2c-.37.02-.69-.26-.72-.63Z"/>
      </g>
      <path class="cls-19" d="m190.34,240.39c-9.56-.95-22-1.72-38.19-2.08,0,0-12.07,28.43,2.24,36.93,4.33,2.57,11.46,3.58,19.32,3.75,9.12.19,16.63-7.11,16.63-16.23v-22.36Z"/>
      <path class="cls-4" d="m155.06,259.13l-12.44-2.25,7.24-26.78s-1.86-6.65-3.9-14.28c-.51-1.92-1.03-3.89-1.54-5.84-.48-1.82-.94-3.62-1.36-5.32-1.28-5.05-2.23-9.24-2.3-10.6-.23-4.27-.94-15.82,3.16-17.63,2.43-1.08,7.41,1.47,10.56,2.07,0,0,7.03,11.98,7.57,29.31.53,17.32-6.99,51.32-6.99,51.32Z"/>
      <path class="cls-4" d="m166.88,178.89s11.62,1.46,16.57,26.21c2.01,10.02,6.75,52.83,6.75,52.83l2.7-1.35-3.75-25.51s1.35-29.58.3-35.65c-1.05-6.07-6.36-19.23-11.91-19.98-2.25-.3-10.67,3.46-10.67,3.46Z"/>
      <g>
        <path class="cls-4" d="m167.42,178.55l.53-.48s10.17.85,17.15,9.57l-2.7,2.64,4.61,3.71-2.2,20.26s-7.03-23.9-10.07-29.64c0,0-5.09-4.96-7.33-6.07Z"/>
        <path class="cls-12" d="m167.42,178.55l.53-.44s10.17.82,17.15,9.54l-2.7,2.64,4.61,3.71-2.2,20.26s-7.03-23.9-10.07-29.64c0,0-5.09-4.96-7.33-6.07Z"/>
        <path class="cls-4" d="m154.78,179.58s8.98,11.45,7.05,36.67l-9.66-18.12,3.08-4.95-7.2-6.75s4.65-9.02,7.32-8.31l-.58,1.47Z"/>
        <path class="cls-12" d="m154.78,179.58s8.98,11.45,7.05,36.67l-9.66-18.12,3.08-4.95-7.2-6.75s4.65-9.02,7.32-8.31l-.58,1.47Z"/>
      </g>
      <g>
        <path class="cls-4" d="m155.54,177.56s2.73,1.04,11.46.35c0,0,3.3,3.06,4.33,6.27,1.04,3.21-2.27,6.32-7.56,3.51s-8.23-10.13-8.23-10.13Z"/>
        <path class="cls-8" d="m155.54,177.56s2.73,1.04,11.46.35c0,0,3.3,3.06,4.33,6.27,1.04,3.21-2.27,6.32-7.56,3.51s-8.23-10.13-8.23-10.13Z"/>
        <path class="cls-14" d="m173.17,184.16l-2,11.95-15.72-13.75c3.32-3.66,1.23-13.33-.39-18.6l4.45,3.33,6.62,4.95c-.16,1.1-.01,2.62.32,4.07.5,2.11,1.4,4.09,2.39,4.51l4.32,3.53Z"/>
        <path class="cls-12" d="m166.46,176.13c-2.64-.59-6.1-3.32-6.66-6.02-.23-1.14-.33-2.25-.28-3l6.62,4.95c-.16,1.1-.01,2.62.32,4.07Z"/>
        <path class="cls-4" d="m155.54,177.56s7.42,6.98,15.31,17.94c0,0,1.57-12.01-3.85-17.59l1.24-.15s6.95,4.39,11.58,10.46l-5.22-1.65-3.56,9.64-10.73-8.86-7.22,1.25s-.33-8.9,2.45-11.04Z"/>
        <path class="cls-20" d="m155.54,177.56s7.42,6.98,15.31,17.94c0,0,1.57-12.01-3.85-17.59l1.24-.15s6.95,4.39,11.58,10.46l-5.22-1.65-3.56,9.64-10.73-8.86-7.22,1.25s-.33-8.9,2.45-11.04Z"/>
      </g>
      <g>
        <path class="cls-14" d="m150.17,153.27c1.9,8.52,2.53,12.16,7.56,16.1,7.57,5.93,17.57,2.32,18.24-6.46.6-7.9-2.61-20.5-11.54-23.03-8.8-2.49-16.16,4.87-14.25,13.39Z"/>
        <path class="cls-19" d="m161.17,154.33c.13.72.61,1.27,1.07,1.22.46-.05.73-.68.61-1.4-.13-.72-.61-1.27-1.07-1.22-.46.05-.73.68-.61,1.4Z"/>
        <path class="cls-19" d="m170.16,153.07c.13.72.61,1.27,1.07,1.22s.73-.68.61-1.4c-.13-.72-.61-1.27-1.07-1.22-.46.05-.73.68-.61,1.4Z"/>
        <path class="cls-19" d="m170.57,151.74l1.61-.68s-.63,1.45-1.61.68Z"/>
        <path class="cls-15" d="m167.69,154.96s1.76,2.98,3.35,4.33c-.78.99-2.44.76-2.44.76l-.91-5.09Z"/>
        <path class="cls-19" d="m161.79,147.47c-.11.03-.2.09-.26.2-.84,1.62-2.41,1.72-2.43,1.72-.23.01-.4.21-.37.44.03.23.24.41.48.4.08,0,2.05-.13,3.09-2.14.1-.2.02-.46-.2-.57-.1-.06-.22-.07-.32-.04Z"/>
        <path class="cls-19" d="m169.82,145.51c-.11,0-.21.02-.29.09-.17.15-.18.42-.02.6,1.6,1.83,3.53,1.66,3.62,1.65.23-.02.38-.23.34-.47-.04-.23-.26-.4-.49-.38-.08,0-1.58.12-2.85-1.34-.08-.09-.19-.15-.31-.16Z"/>
        <path class="cls-19" d="m161.58,152.99l1.61-.68s-.63,1.45-1.61.68Z"/>
        <path class="cls-19" d="m154.54,158.2s4.19-6.1.99-15.13c0,0,9.47-4.59,16.65,2.42,0,0-6.67-11.71-20.61-6.1-13.94,5.61-3.43,18.99-1.71,20.1,1.72,1.11,4.67-1.29,4.67-1.29Z"/>
        <path class="cls-14" d="m148.47,160.63c1.25,1.64,3.04,2.53,4.61,2.72,2.36.28,3.03-2.1,1.96-4.29-.97-1.97-3.36-4.48-5.52-3.75-2.13.73-2.47,3.45-1.05,5.32Z"/>
        <path class="cls-31" d="m163.19,162.09s3.25-.6,5.42,1.67"/>
      </g>
      <path class="cls-12" d="m144.42,209.98c-.48-1.82-.94-3.62-1.36-5.32,2.3-2.77,3.52-14.64,3.52-14.64,0,0,1.6,14.46-2.16,19.95Z"/>
      <g>
        <path class="cls-14" d="m115.06,181.58l-8.7-1.16,5.33-8.15s7.78,3.45,6.84,7.38l-3.46,1.93Z"/>
        <polygon class="cls-14" points="99.59 174.95 106.55 169.49 111.68 172.26 106.36 180.41 99.59 174.95"/>
      </g>
      <path class="cls-4" d="m112.96,181.65s9.99,35.23,17.84,33.09c4.35-1.18,8.51-5.35,11.84-9.7,4.37-5.71,4.97-11.76,4.97-11.76l-3.7-16.85c-4.68.98-12.19,22.85-12.19,22.85l-12.59-20.65-6.17,3.02Z"/>
      <path class="cls-19" d="m159.07,263.81v13.36c11.91,3.43,36.62,2.13,51.31.93,6.62-.54,11.7-6.07,11.7-12.7v-10.96c0-3.63-2.25-6.88-5.65-8.16-7.12-2.68-20.08-6.67-33.64-6.46-13.14.2-23.72,10.85-23.72,24Z"/>
      <path class="cls-14" d="m220.82,302.44c-4.33,11.7-9.33,26.35-14.67,44.84-.1.34-.2.67-.29,1.01-.1.36-.21.71-.31,1.07l-5.51-1.35-2.08-.51s.08-.81.26-2.26c.03-.3.07-.63.1-.98h0c1.49-12.91,7.21-60.25,12.89-70.08,0,0-6.43,1.2-11.31.37-3.52-.59-7.78-24.91-7.78-24.91,0,0,8.96-2.58,18.16-2.58h.13s20.58,3.23,24.03,8.29c4.24,6.21-2.37,16.72-13.6,47.08Z"/>
      <g>
        <path class="cls-4" d="m213.68,363.8l-12.92-5.7-4.09-4.56-1.27,1.72-1.54-.67c-.72-5.73,2.07-8.42,3.53-9.63.1-.09.26-.2.43-.34.06-.05.12-.09.17-.13.02-.01.05-.03.07-.05.06-.05.13-.09.2-.15.01-.01.02-.01.05-.02h0s.07-.06.12-.08l7.09,3.13s.12.37.34.98c.71,2,2.46,6.55,4.4,8.97.08.1.16.21.24.3.23.28.48.52.72.72,5.43,4.36,2.46,5.51,2.46,5.51Z"/>
        <path class="cls-14" d="m210.5,357.57c-2.02.79-4.88-1.21-7.05-3.82-1.22-1.47-2.39-3.83-3.42-5.73-.67-1.23-1.29-2.28-1.82-2.77-.3-.27-.58-.38-.82-.27,0,0,.01-.01.01-.02.1-.09.26-.2.43-.34.05-.03.1-.08.17-.13.02-.01.05-.03.07-.05.06-.05.13-.09.2-.15.01-.01.02-.01.05-.02h0s.07-.06.12-.08c.74-.56,1.57-1.13,1.57-1.13l5.7,2.52s.16.67.45,1.71c.74,2.64,2.31,7.65,4.11,9.98.08.1.16.21.24.3Z"/>
      </g>
      <path class="cls-17" d="m220.82,302.44c-4.33,11.7-9.33,26.35-14.67,44.84.74,2.64,2.31,7.65,4.11,9.98.08.1.16.21.24.3.23.28.48.52.72.72,5.43,4.36,2.46,5.51,2.46,5.51l-12.92-5.7-4.09-4.56-1.27,1.72-1.54-.67c-.72-5.73,2.07-8.42,3.53-9.63.1-.09.26-.2.43-.34.06-.05.12-.09.17-.13.02-.01.05-.03.07-.05.06-.05.13-.09.2-.15.01-.01.02-.01.05-.02h0c1.49-12.91,7.21-60.25,12.89-70.08,0,0-6.43,1.2-11.31.37-3.52-.59-7.78-24.91-7.78-24.91,0,0,8.96-2.58,18.16-2.58h.13s-2.17.21-5.12,3.91c0,0,12.03,2.24,15.29,8.6,1.31,2.58,1.04,21.37.26,42.86Z"/>
      <path class="cls-14" d="m192.11,249.65s20.59,3.23,24.03,8.28c5.93,8.7-4.75,25.8-24.24,94.01l-7.6-1.87s2.03-61.9,8.6-73.31c0,0-6.43,1.19-11.3.37-6.26-1.05-10.22-21.95,10.51-27.49Z"/>
      <g>
        <path class="cls-4" d="m183.07,363.37h1.68s.47-2.08.47-2.08l5.57,2.52h14.13s2.25-2.26-4.48-4.06c-.31-.08-.62-.2-.95-.36-3.59-1.68-8.69-7.36-8.69-7.36h-7.75s-.27.39-.64,1.12c-.85,1.71-2.31,5.28.66,10.23Z"/>
        <path class="cls-14" d="m182.41,353.14v.02c1.02-1.14,5.68,3.87,9.09,5.58,3.05,1.52,6.47,2.19,7.99.65-3.59-1.68-9.23-9.03-9.23-9.03h-6.23s-1.25,2.05-1.62,2.78Z"/>
      </g>
    </g>
  </g>
  <g id="Desk">
    <g>
      <g>
        <g class="cls-23">
          <path class="cls-19" d="m316.91,226.52v134.06c0,1.78,1.44,3.22,3.22,3.22h62.51c.68,0,1.22-.55,1.22-1.22v-3.98c0-.68-.55-1.24-1.22-1.24h-59.29v-127.61h58.28c1.24,0,2.23-1.01,2.23-2.24v-4.2h-63.74c-1.78,0-3.22,1.44-3.22,3.22Z"/>
        </g>
        <g class="cls-25">
          <path class="cls-16" d="m316.91,226.52v134.06c0,1.78,1.44,3.22,3.22,3.22h62.51c.68,0,1.22-.55,1.22-1.22v-3.98c0-.68-.55-1.24-1.22-1.24h-59.29v-127.61h58.28c1.24,0,2.23-1.01,2.23-2.24v-4.2h-63.74c-1.78,0-3.22,1.44-3.22,3.22Z"/>
        </g>
        <path class="cls-12" d="m316.91,226.52v34.19c2.15.55,4.3,1.07,6.44,1.58v-32.54h58.28c1.24,0,2.23-1.01,2.23-2.24v-4.2h-63.74c-1.78,0-3.22,1.44-3.22,3.22Z"/>
      </g>
      <g>
        <polygon class="cls-19" points="309.62 214.1 308.82 211.1 276.25 211.1 261.25 212.6 260.68 214.1 309.62 214.1"/>
        <polygon class="cls-13" points="309.62 214.1 308.82 211.1 276.25 211.1 261.25 212.6 260.68 214.1 309.62 214.1"/>
        <polygon class="cls-5" points="276.25 211.1 276.25 214.1 309.62 214.1 308.82 211.1 276.25 211.1"/>
      </g>
      <g>
        <path class="cls-19" d="m287.27,191.81c-.19,2.03,1.3,3.69,3.32,3.69h64.13c2.03,0,3.83-1.65,4.02-3.69l3.81-41.06c.04-.42.01-.83-.08-1.2-.36-1.45-1.63-2.49-3.24-2.49h-64.13c-2.03,0-3.83,1.65-4.02,3.69l-3.81,41.06Z"/>
        <path class="cls-13" d="m287.27,191.81c-.19,2.03,1.3,3.69,3.32,3.69h64.13c2.03,0,3.83-1.65,4.02-3.69l3.81-41.06c.04-.42.01-.83-.08-1.2-.36-1.45-1.63-2.49-3.24-2.49h-64.13c-2.03,0-3.83,1.65-4.02,3.69l-3.81,41.06Z"/>
        <path class="cls-17" d="m290.82,195.5h63.91c2.03,0,3.83-1.65,4.02-3.69l3.81-41.06c.04-.42.01-.83-.08-1.2h-63.91c-2.02,0-3.82,1.65-4.02,3.69l-3.81,41.06c-.04.42-.01.83.08,1.2Z"/>
        <polygon class="cls-19" points="334.89 170.32 321.62 170.32 325.15 208.3 304.17 211.45 304.17 214.1 348.36 214.1 348.36 211.45 339.31 208.3 334.89 170.32"/>
        <polygon class="cls-13" points="334.89 170.32 321.62 170.32 325.15 208.3 304.17 211.45 304.17 214.1 348.36 214.1 348.36 211.45 339.31 208.3 334.89 170.32"/>
        <polygon class="cls-3" points="321.62 170.32 331.45 213.5 339.31 213.26 334.89 170.32 321.62 170.32"/>
      </g>
      <g>
        <path class="cls-19" d="m228.78,363.8h62.51c.68,0,1.23-.55,1.23-1.23v-3.99c0-.68-.55-1.23-1.23-1.23h-59.29v-127.62h58.28c1.24,0,2.24-1,2.24-2.24v-4.2h-63.74c-1.78,0-3.22,1.44-3.22,3.22v134.06c0,1.78,1.44,3.22,3.22,3.22Z"/>
        <g class="cls-24">
          <path class="cls-16" d="m228.78,363.8h62.51c.68,0,1.23-.55,1.23-1.23v-3.99c0-.68-.55-1.23-1.23-1.23h-59.29v-127.62h58.28c1.24,0,2.24-1,2.24-2.24v-4.2h-63.74c-1.78,0-3.22,1.44-3.22,3.22v134.06c0,1.78,1.44,3.22,3.22,3.22Z"/>
        </g>
        <path class="cls-4" d="m387.65,217.2v5.21c0,1.08-.87,1.95-1.95,1.95h-165.07c-1.07,0-1.94-.87-1.94-1.95v-5.21h168.96Z"/>
        <rect class="cls-5" x="218.69" y="217.2" width="168.96" height="3.58" transform="translate(606.34 437.98) rotate(180)"/>
        <path class="cls-4" d="m393.21,216.11c0,1.12-.91,2.02-2.02,2.02h-176.04c-.56,0-1.07-.23-1.43-.59-.1-.1-.19-.21-.26-.34-.21-.31-.33-.69-.33-1.09,0-1.11.9-2.02,2.02-2.02h176.04c.55,0,1.06.23,1.43.59.36.37.59.88.59,1.43Z"/>
        <path class="cls-3" d="m300.61,214.68c-.37-.36-.87-.59-1.43-.59h-84.03c-1.12,0-2.02.91-2.02,2.02,0,.4.12.78.33,1.09.07.13.16.24.26.34.36.36.87.59,1.43.59h3.54v4.28c0,1.08.87,1.95,1.94,1.95h73.07c1.07,0,1.94-.87,1.94-1.95v-4.28h3.54c.72,0,1.34-.37,1.71-.93.2-.31.31-.69.31-1.09,0-.55-.22-1.06-.59-1.43Z"/>
      </g>
    </g>
  </g>
</svg>