<?xml version="1.0" encoding="UTF-8"?>
<svg xmlns="http://www.w3.org/2000/svg" viewBox="0 0 509.13 421.52">
  <defs>
    <style>
      .cls-1 {
        fill: #a0b8e8;
      }

      .cls-1, .cls-2, .cls-3, .cls-4, .cls-5, .cls-6, .cls-7, .cls-8, .cls-9, .cls-10, .cls-11, .cls-12, .cls-13, .cls-14, .cls-15, .cls-16, .cls-17, .cls-18, .cls-19, .cls-20, .cls-21, .cls-22, .cls-23, .cls-24, .cls-25, .cls-26, .cls-27, .cls-28, .cls-29, .cls-30, .cls-31, .cls-32, .cls-33, .cls-34, .cls-35, .cls-36, .cls-37, .cls-38, .cls-39, .cls-40, .cls-41, .cls-42, .cls-43, .cls-44, .cls-45 {
        stroke-width: 0px;
      }

      .cls-2 {
        fill: #ff9292;
      }

      .cls-3 {
        fill: #f29d7e;
      }

      .cls-4 {
        fill: #323244;
      }

      .cls-5 {
        fill: #819bc7;
      }

      .cls-46 {
        stroke: #b3c7e8;
      }

      .cls-46, .cls-47, .cls-48, .cls-49, .cls-50, .cls-51, .cls-52, .cls-53 {
        fill: none;
      }

      .cls-46, .cls-47, .cls-48, .cls-49, .cls-51, .cls-52 {
        stroke-miterlimit: 10;
      }

      .cls-6 {
        fill: #c6d7f4;
      }

      .cls-7 {
        fill: #e5b241;
      }

      .cls-47, .cls-53 {
        stroke: #fff;
      }

      .cls-8 {
        fill: #f2a17e;
      }

      .cls-9 {
        fill: #664229;
      }

      .cls-10 {
        fill: #ffabab;
      }

      .cls-11 {
        fill: #8397b7;
      }

      .cls-12 {
        fill: #d88d87;
      }

      .cls-13 {
        fill: #dce8ff;
      }

      .cls-14 {
        fill: #c4314a;
      }

      .cls-15 {
        fill: #646489;
      }

      .cls-16 {
        fill: #34344f;
      }

      .cls-17 {
        fill: #e09377;
      }

      .cls-18 {
        fill: #ed9e7c;
      }

      .cls-19 {
        fill: #ffbf31;
      }

      .cls-20 {
        fill: #3e3d5e;
      }

      .cls-21 {
        fill: #83c1ff;
      }

      .cls-22 {
        fill: #875330;
      }

      .cls-48, .cls-49 {
        stroke: #3e3d5e;
      }

      .cls-23 {
        fill: #b3c7e8;
      }

      .cls-24 {
        fill: #ffb692;
      }

      .cls-25 {
        fill: #fff;
      }

      .cls-26 {
        fill: #935838;
      }

      .cls-27 {
        fill: #b77d69;
      }

      .cls-28 {
        fill: #7289b5;
      }

      .cls-29 {
        fill: #ef8484;
      }

      .cls-30 {
        fill: #8484b7;
      }

      .cls-49, .cls-51 {
        stroke-width: 16px;
      }

      .cls-31 {
        fill: #8c5c53;
      }

      .cls-32 {
        fill: #e8a060;
      }

      .cls-33 {
        fill: #96bfed;
      }

      .cls-34 {
        fill: #4a94ff;
      }

      .cls-50 {
        stroke: #fbb03b;
      }

      .cls-50, .cls-53 {
        stroke-linecap: round;
        stroke-linejoin: round;
      }

      .cls-35 {
        fill: #91a8c9;
      }

      .cls-36 {
        fill: #d7e4f2;
      }

      .cls-37 {
        fill: #a56f62;
      }

      .cls-38 {
        fill: #575770;
      }

      .cls-39 {
        fill: #d9e6ff;
      }

      .cls-51 {
        stroke: #353551;
      }

      .cls-40 {
        fill: #633c22;
      }

      .cls-41 {
        fill: #ad7b55;
      }

      .cls-42 {
        fill: #a8683d;
      }

      .cls-43 {
        fill: #f9ad8c;
      }

      .cls-44 {
        fill: #70aee5;
      }

      .cls-52 {
        stroke: #ff5050;
      }

      .cls-45 {
        fill: #ff5050;
      }

      .cls-53 {
        stroke-width: 3px;
      }
    </style>
  </defs>
  <g id="BACKGROUND">
    <ellipse class="cls-36" cx="254.57" cy="403.75" rx="254.57" ry="17.76"/>
    <g>
      <rect class="cls-23" x="104.74" y="21.52" width="299.66" height="199.92"/>
      <rect class="cls-13" x="115.36" y="32.42" width="142.11" height="178.39"/>
      <rect class="cls-13" x="265.29" y="32.42" width="127.81" height="6.72"/>
      <rect class="cls-13" x="265.29" y="44.42" width="63.91" height="6.72"/>
      <rect class="cls-13" x="265.29" y="56.42" width="127.81" height="6.72"/>
      <rect class="cls-13" x="265.29" y="68.41" width="63.91" height="6.72"/>
      <rect class="cls-13" x="265.29" y="80.41" width="127.81" height="6.72"/>
      <g>
        <rect class="cls-25" x="265.29" y="163.11" width="127.81" height="12.97"/>
        <rect class="cls-45" x="265.29" y="163.11" width="87.6" height="12.97"/>
        <rect class="cls-25" x="265.29" y="179.43" width="127.81" height="12.97"/>
        <rect class="cls-19" x="265.29" y="179.43" width="105.87" height="12.97"/>
        <rect class="cls-25" x="265.29" y="195.74" width="127.81" height="12.97"/>
        <rect class="cls-44" x="265.29" y="195.74" width="61.3" height="12.97"/>
      </g>
      <rect class="cls-13" x="265.29" y="92.41" width="127.81" height="6.72"/>
      <rect class="cls-35" x="265.29" y="102.95" width="127.81" height="51.59"/>
      <g>
        <polyline class="cls-46" points="121.24 40.81 121.24 116.81 245.34 116.81"/>
        <rect class="cls-25" x="126.9" y="55.19" width="14.02" height="55.1"/>
        <rect class="cls-25" x="148.55" y="79.03" width="14.02" height="31.26"/>
        <rect class="cls-25" x="170.19" y="47.78" width="14.02" height="62.51"/>
        <rect class="cls-25" x="191.84" y="60.44" width="14.02" height="49.85"/>
        <rect class="cls-25" x="213.49" y="40.81" width="14.02" height="69.48"/>
        <rect class="cls-25" x="235.14" y="55.19" width="14.02" height="55.1"/>
        <polyline class="cls-52" points="133.9 55.19 155.55 79.37 177.91 47.78 198.85 60.44 220.5 40.81 242.15 55.19"/>
        <path class="cls-44" d="m135.58,55.19c0,.93-.75,1.68-1.68,1.68s-1.68-.75-1.68-1.68.75-1.68,1.68-1.68,1.68.75,1.68,1.68Z"/>
        <path class="cls-44" d="m157.23,79.03c0,.93-.75,1.68-1.68,1.68s-1.68-.75-1.68-1.68.75-1.68,1.68-1.68,1.68.75,1.68,1.68Z"/>
        <path class="cls-44" d="m179.59,47.78c0,.93-.75,1.68-1.68,1.68s-1.68-.75-1.68-1.68.75-1.68,1.68-1.68,1.68.75,1.68,1.68Z"/>
        <path class="cls-44" d="m200.53,60.44c0,.93-.75,1.68-1.68,1.68s-1.68-.75-1.68-1.68.75-1.68,1.68-1.68,1.68.75,1.68,1.68Z"/>
        <path class="cls-44" d="m222.18,40.81c0,.93-.75,1.68-1.68,1.68s-1.68-.75-1.68-1.68.75-1.68,1.68-1.68,1.68.75,1.68,1.68Z"/>
        <path class="cls-44" d="m243.83,55.19c0,.93-.75,1.68-1.68,1.68s-1.68-.75-1.68-1.68.75-1.68,1.68-1.68,1.68.75,1.68,1.68Z"/>
      </g>
      <path class="cls-23" d="m187.6,166.51h34.91c0,19.15-15.76,34.91-34.91,34.91s-34.91-15.76-34.91-34.91,15.76-34.91,34.91-34.91c5.36,0,10.65,1.23,15.45,3.61l-15.45,31.3Z"/>
    </g>
  </g>
  <g id="OBJECTS">
    <g>
      <g>
        <g>
          <path class="cls-44" d="m254.62,101.38l-45.02,14.87s-4.63,12.27,4.61,16.05c9.24,3.78,42.01-.83,42.01-.83l-1.61-30.09Z"/>
          <g>
            <path class="cls-20" d="m266.65,173.89h9.17c10.09,0,18.34,8.25,18.34,18.34h0c0,10.09-8.25,18.34-18.34,18.34h-9.17c-10.09,0-18.34-8.25-18.34-18.34h0c0-10.09,8.25-18.34,18.34-18.34Z"/>
            <g>
              <g>
                <path class="cls-34" d="m266.24,375.57s2.42,2.39,0,14.36c0,0-23.69,4.5-38.97,0,0,0-1.34-11.4,11.46-12.95,12.8-1.55,27.51-1.41,27.51-1.41Z"/>
                <path class="cls-53" d="m227.27,389.92s16.94,4.22,38.97,0"/>
              </g>
              <path class="cls-49" d="m260.83,200.51s-12.57,84.37-3.92,176.32"/>
            </g>
            <g>
              <g>
                <path class="cls-21" d="m294.64,378.09s2.42,2.39,0,14.36c0,0-23.69,4.5-38.97,0,0,0-1.34-11.4,11.46-12.95,12.8-1.55,27.51-1.41,27.51-1.41Z"/>
                <path class="cls-53" d="m255.67,392.44s16.94,4.22,38.97,0"/>
              </g>
              <path class="cls-49" d="m280.36,201.86s-3.52,86.47,5.14,178.41"/>
            </g>
          </g>
          <path class="cls-33" d="m293.51,187.68c-6.32,2.44-17.84,5.79-31.74,3.57-4.95-.79-9.24-2.14-12.77-3.57v-75.88c0-6.9,5.59-12.48,12.48-12.48h19.54c6.9,0,12.48,5.59,12.48,12.48v75.88Z"/>
          <g>
            <g>
              <path class="cls-24" d="m278.26,96.23c0-20.28-3.28-9.74-7.33-9.74s-7.33-9.23-7.33,9.74c0,7.11,3.28,6.49,7.33,6.49s7.33.61,7.33-6.49Z"/>
              <path class="cls-12" d="m263.75,90.3c.69-10.86,3.64-3.82,7.18-3.82,3.92,0,7.12-9.88,7.32,7.9-6.26,2.47-11.12-.4-14.5-4.09Z"/>
            </g>
            <g>
              <g>
                <path class="cls-24" d="m260.16,70.65c.44,2.72-.68,5.21-2.5,5.56-1.82.35-3.66-1.58-4.1-4.31-.44-2.73.68-5.21,2.5-5.56,1.82-.35,3.66,1.58,4.1,4.31Z"/>
                <path class="cls-12" d="m258.23,70.92c.28-.05.56-.02.82.07,0-.05,0-.09-.02-.14-.29-1.8-1.5-3.07-2.71-2.85-1.2.23-1.94,1.87-1.65,3.67.22,1.38.99,2.45,1.88,2.77-.23-1.75.49-3.32,1.67-3.54Z"/>
              </g>
              <path class="cls-9" d="m254.95,55.06c-5.75,4.92,1.5,14.91,1.5,14.91v-11.66l-1.5-3.25Z"/>
              <path class="cls-24" d="m273.96,51.41h-7.33c-5.72,0-10.4,4.68-10.4,10.4v15.14c0,7.99,6.54,14.52,14.52,14.52h0c7.99,0,14.52-6.54,14.52-14.52v-14.23c0-6.22-5.09-11.32-11.32-11.32Z"/>
              <path class="cls-12" d="m273.96,51.41h-7.33c-5.72,0-10.4,4.68-10.4,10.4v1.98c12.26,8.42,18.43-4.17,18.43-4.17,0,0,2.47,4.36,10.32.54-1.17-5-5.67-8.76-11.01-8.76Z"/>
              <path class="cls-22" d="m275.73,55.82c-11.9,14.32-31.78.9-25.11-11.01,6.11-10.92,17.61-1.84,14.76,3.25,0,0,14.32-6.73,20.18,1.81,5.86,8.54.69,20.27.69,20.27h-1.72s-3.45-5.43-1.29-10.52c0,0-6.9,2.5-7.5-3.79Z"/>
              <path class="cls-42" d="m279.88,45.97c-.96-.25-1.96-.37-2.95-.41-5.84,5.16-20.39,15.8-26.93.57-1.24,3.12-.76,6.26.81,8.92,10.39,6.13,25.15-5.67,29.07-9.08Z"/>
              <path class="cls-9" d="m276.26,66.52l-2.4-.92c-.74-.29-1.12-1.13-.83-1.87h0c.29-.74,1.13-1.12,1.87-.83l2.4.92c.74.29,1.12,1.13.83,1.87h0c-.29.74-1.13,1.12-1.87.83Z"/>
              <path class="cls-9" d="m264.87,65.77l-2.32,1.12c-.72.35-1.59.04-1.93-.67h0c-.35-.72-.04-1.59.67-1.93l2.32-1.12c.72-.35,1.59-.04,1.93.67h0c.35.72.04,1.59-.67,1.93Z"/>
              <path class="cls-12" d="m267.38,75.33s3.34.61,3.35,1.24c.01.63-1.61.92-2.06.66-.45-.27-1.3-1.89-1.3-1.89Z"/>
              <g>
                <path class="cls-16" d="m270.07,68.09c-.36.75-.7,1.5-1.01,2.26-.32.76-.64,1.53-.93,2.3-.29.77-.59,1.55-.86,2.33l-.05.15s-.03.13,0,.23c.03.08.05.09.07.14.1.13.18.19.27.27.17.14.35.25.53.36.36.21.74.4,1.14.53-.28-.32-.59-.6-.88-.88-.15-.14-.29-.28-.43-.41-.06-.07-.13-.14-.15-.18,0,0-.01-.03,0,0,.03.05-.02.14,0,.08l.06-.14c.29-.77.56-1.54.82-2.31.27-.77.5-1.56.75-2.34.25-.78.46-1.58.66-2.38Z"/>
                <path class="cls-16" d="m276.48,69.49c0,.88-.72,1.6-1.6,1.6s-1.6-.72-1.6-1.6.71-1.6,1.6-1.6,1.6.72,1.6,1.6Z"/>
                <path class="cls-16" d="m265.1,69.49c0,.88-.72,1.6-1.6,1.6s-1.6-.72-1.6-1.6.72-1.6,1.6-1.6,1.6.72,1.6,1.6Z"/>
              </g>
              <g>
                <path class="cls-16" d="m267.27,78.85c1.94-.49,4.64-1.32,7.14-2.55,1.65-.82,3.33,1.22,2.61,3.16-.78,2.07-2.29,4.09-5.24,4.63-2.42.44-4.03-.06-5.11-.87-1.52-1.15-1.13-3.93.6-4.37Z"/>
                <path class="cls-2" d="m271.77,84.08c2.95-.54,4.46-2.55,5.24-4.63.11-.29.16-.59.17-.87-1.1-.38-2.53-.44-4.37.15-2.85.91-4.09,3.1-4.58,5.25,0,0,0,0,0,.01.93.28,2.09.36,3.55.09Z"/>
                <path class="cls-10" d="m270.12,81.79c.34.47,1.46.29,2.49-.42,1.04-.7,1.6-1.66,1.27-2.13-.34-.47-1.46-.29-2.49.42-1.04.7-1.6,1.66-1.27,2.13Z"/>
                <path class="cls-25" d="m267.27,78.85c1.94-.49,4.64-1.32,7.14-2.55,1.01-.5,2.03.07,2.51,1.04-1.4,1.5-3.62,2.82-6.29,3.56-1.71.48-3.39.66-4.89.58-.12-1.14.44-2.35,1.53-2.63Z"/>
              </g>
              <g>
                <path class="cls-24" d="m282.97,70.65c-.44,2.72.68,5.21,2.5,5.56s3.66-1.58,4.1-4.31c.44-2.73-.68-5.21-2.5-5.56-1.82-.35-3.66,1.58-4.1,4.31Z"/>
                <path class="cls-12" d="m284.89,70.92c-.28-.05-.56-.02-.82.07,0-.05,0-.09.02-.14.29-1.8,1.5-3.07,2.71-2.85,1.2.23,1.94,1.87,1.65,3.67-.22,1.38-.99,2.45-1.88,2.77.23-1.75-.49-3.32-1.67-3.54Z"/>
              </g>
            </g>
          </g>
          <path class="cls-44" d="m290.27,103.43s20.34,13.2,28.7,44.7c1.04,3.92-.66,8.12-4.2,10.1-.05.03-.11.06-.16.09-3.71,2.03-8.31,1.44-11.45-1.39l-9.64-14.71-3.24-38.78Z"/>
          <g>
            <path class="cls-24" d="m303.94,150.12l9.04-41.03c.54-2.47,2.99-4.04,5.46-3.49,2.3.51,3.81,2.66,3.57,4.94l-4.25,41.8c-.39,3.85-3.83,6.66-7.69,6.27-3.85-.39-6.66-3.83-6.27-7.69.03-.27.07-.54.13-.8Z"/>
            <g>
              <path class="cls-24" d="m310.23,108.79c-.48,3.99,9.34,7.43,13.49,4.87,3.39-2.09,7.88-5.13,13.28-7.09,1.72-.62,2.05-2.91.6-4.02-2.67-2.06-6.69-4.33-10.72-3.5-6.95,1.44-9.95,5.43-9.95,5.43,0,0,.08-7.03-5.51-7.03l.48,3.91s-2.95,3.59-1.68,7.43Z"/>
              <path class="cls-12" d="m318.96,104.88s4.15-.26,7.48,3.58c0,0-.84-5.85-7.48-3.58Z"/>
              <g>
                <path class="cls-12" d="m335.4,101.04c-.51-.31-1.05-.6-1.61-.87-7.19,1.56-9.89,5.42-10.01,5.6l.95.65s2.93-4.13,10.67-5.38Z"/>
                <path class="cls-12" d="m329.94,98.96c-6.23,1.76-8.7,5.48-8.82,5.67l.97.62s2.87-4.37,10.28-5.67c-.79-.28-1.61-.5-2.44-.61Z"/>
                <path class="cls-12" d="m337.65,102.59c-5.79.29-11.86,4.26-12.14,4.44l.64.96c.07-.04,6.64-4.3,12.26-4.27-.13-.42-.37-.82-.76-1.13Z"/>
              </g>
            </g>
          </g>
          <rect class="cls-44" x="261.91" y="96.55" width="18.87" height="10.41" rx="1.82" ry="1.82"/>
          <path class="cls-24" d="m211.81,128.83l-27.64-31.65c-1.67-1.91-1.47-4.8.44-6.47,1.77-1.55,4.4-1.49,6.1.06l31.1,28.25c2.87,2.6,3.08,7.04.47,9.9s-7.04,3.08-9.9.47c-.2-.18-.39-.38-.57-.58Z"/>
          <g>
            <path class="cls-24" d="m188.82,93.61l-.82,1.28c-2.31,3.6-7.09,4.64-10.69,2.34h0c-3.6-2.31-4.64-7.09-2.34-10.69l.82-1.28c2.31-3.6,7.09-4.64,10.69-2.34h0c3.6,2.31,4.64,7.09,2.34,10.69Z"/>
            <path class="cls-24" d="m181.93,83.77h0c-.75.82-2.03.88-2.85.13l-8.13-7.42c-.82-.75-.88-2.03-.13-2.85h0c.75-.82,2.03-.88,2.85-.13l8.13,7.42c.82.75.88,2.03.13,2.85Z"/>
            <path class="cls-43" d="m183.27,93.84h0c-.55.96-1.79,1.3-2.75.75l-6.96-4.38c-.96-.55-1.3-1.79-.75-2.75h0c.55-.96,1.79-1.3,2.75-.75l6.96,4.38c.96.55,1.3,1.79.75,2.75Z"/>
            <path class="cls-43" d="m185.46,90.6h0c-.55.96-1.79,1.3-2.75.75l-6.96-4.38c-.96-.55-1.3-1.79-.75-2.75h0c.55-.96,1.79-1.3,2.75-.75l6.96,4.38c.96.55,1.3,1.79.75,2.75Z"/>
            <path class="cls-43" d="m182.09,96.84h0c-.49,1-1.7,1.41-2.7.93l-7.22-3.93c-1-.49-1.41-1.7-.93-2.7h0c.49-1,1.7-1.41,2.7-.93l7.22,3.93c1,.49,1.41,1.7.93,2.7Z"/>
            <path class="cls-43" d="m181.52,87.24h0c-.3,2.18.31,4.39,1.67,6.12h0c1.5,1.34,3.85,1.02,4.94-.67l2.87-4.48c.92-1.44.58-3.35-.79-4.38l-3.1-2.33-5.58,5.74Z"/>
            <path class="cls-3" d="m185.88,82.75l-4.37,4.49c-.19,1.4,0,2.81.51,4.1,3.76-1.51,4.04-6.02,3.86-8.59Z"/>
            <path class="cls-8" d="m177.76,88.11l4.57-7.12c.64-1,1.96-1.29,2.96-.65l1.8,1.16-3.66,5.71c-1.2,1.87-3.75,2.38-5.53,1.04-.11-.08-.17-.14-.14-.14Z"/>
          </g>
        </g>
        <g>
          <path class="cls-19" d="m338.5,0h-38.47c-5.13,0-9.29,4.16-9.29,9.29v19.23c0,4.9,3.8,8.91,8.62,9.25v10.42l10.39-10.39h28.74c5.13,0,9.28-4.16,9.28-9.29V9.29c0-5.13-4.16-9.29-9.28-9.29Z"/>
          <g>
            <path class="cls-25" d="m299.26,12.82h0c0,.82.67,1.49,1.49,1.49h38.3c.82,0,1.49-.67,1.49-1.49h0c0-.82-.67-1.49-1.49-1.49h-38.3c-.82,0-1.49.67-1.49,1.49Z"/>
            <path class="cls-25" d="m300.75,20.62h38.3c.82,0,1.49-.67,1.49-1.49h0c0-.82-.67-1.49-1.49-1.49h-38.3c-.82,0-1.49.67-1.49,1.49h0c0,.82.67,1.49,1.49,1.49Z"/>
            <path class="cls-25" d="m300.75,26.92h38.3c.82,0,1.49-.67,1.49-1.49h0c0-.82-.67-1.49-1.49-1.49h-38.3c-.82,0-1.49.67-1.49,1.49h0c0,.82.67,1.49,1.49,1.49Z"/>
          </g>
        </g>
      </g>
      <g>
        <g>
          <path class="cls-45" d="m120.77,87.6h-38.47c-5.13,0-9.29,4.16-9.29,9.29v19.23c0,4.9,3.8,8.91,8.62,9.25v10.42l10.39-10.39h28.74c5.13,0,9.29-4.16,9.29-9.29v-19.23c0-5.13-4.16-9.29-9.29-9.29Z"/>
          <g>
            <path class="cls-25" d="m81.53,100.42h0c0,.82.67,1.49,1.49,1.49h38.3c.82,0,1.49-.67,1.49-1.49h0c0-.82-.67-1.49-1.49-1.49h-38.3c-.82,0-1.49.67-1.49,1.49Z"/>
            <path class="cls-25" d="m83.03,108.21h38.3c.82,0,1.49-.67,1.49-1.49h0c0-.82-.67-1.49-1.49-1.49h-38.3c-.82,0-1.49.67-1.49,1.49h0c0,.82.67,1.49,1.49,1.49Z"/>
            <path class="cls-25" d="m83.03,114.51h38.3c.82,0,1.49-.67,1.49-1.49h0c0-.82-.67-1.49-1.49-1.49h-38.3c-.82,0-1.49.67-1.49,1.49h0c0,.82.67,1.49,1.49,1.49Z"/>
          </g>
        </g>
        <g>
          <g>
            <rect class="cls-6" x="52.35" y="282.68" width="18.82" height="93.48"/>
            <path class="cls-1" d="m52.35,297.05c8.88-1.18,15.07,2.92,18.82,9v-23.37h-18.82v14.37Z"/>
            <g>
              <path class="cls-28" d="m45.67,177.71h11.71c15.86,0,28.74,12.88,28.74,28.74v8.94c0,12.02-9.76,21.78-21.78,21.78h-25.64c-12.02,0-21.78-9.76-21.78-21.78v-8.94c0-15.86,12.88-28.74,28.74-28.74Z"/>
              <path class="cls-5" d="m52.12,177.71h11.71c15.86,0,28.74,12.88,28.74,28.74v8.94c0,12.02-9.76,21.78-21.78,21.78h-25.64c-12.02,0-21.78-9.76-21.78-21.78v-8.94c0-15.86,12.88-28.74,28.74-28.74Z"/>
            </g>
            <g>
              <path class="cls-28" d="m82.52,291.35H23.75c-5.71,0-10.33-4.63-10.33-10.33h0c0-5.71,4.63-10.33,10.33-10.33h58.77c5.71,0,10.33,4.63,10.33,10.33h0c0,5.71-4.63,10.33-10.33,10.33Z"/>
              <path class="cls-5" d="m91.75,291.35h-47.2c-5.71,0-10.33-4.63-10.33-10.33h0c0-5.71,4.63-10.33,10.33-10.33h47.2c5.71,0,10.33,4.63,10.33,10.33h0c0,5.71-4.63,10.33-10.33,10.33Z"/>
            </g>
            <rect class="cls-6" x="26.39" y="365.41" width="72.48" height="11.34" rx="5.63" ry="5.63"/>
            <g>
              <path class="cls-1" d="m53.91,382.78c0,3.33-2.7,6.03-6.03,6.03s-6.03-2.7-6.03-6.03,2.7-6.03,6.03-6.03,6.03,2.7,6.03,6.03Z"/>
              <path class="cls-11" d="m49.88,382.78c0,3.33-2.7,6.03-6.03,6.03s-6.03-2.7-6.03-6.03,2.7-6.03,6.03-6.03,6.03,2.7,6.03,6.03Z"/>
            </g>
            <g>
              <path class="cls-1" d="m72.57,382.78c0,3.33-2.7,6.03-6.03,6.03s-6.03-2.7-6.03-6.03,2.7-6.03,6.03-6.03,6.03,2.7,6.03,6.03Z"/>
              <path class="cls-11" d="m68.54,382.78c0,3.33-2.7,6.03-6.03,6.03s-6.03-2.7-6.03-6.03,2.7-6.03,6.03-6.03,6.03,2.7,6.03,6.03Z"/>
            </g>
            <g>
              <path class="cls-1" d="m91.23,382.78c0,3.33-2.7,6.03-6.03,6.03s-6.03-2.7-6.03-6.03,2.7-6.03,6.03-6.03,6.03,2.7,6.03,6.03Z"/>
              <path class="cls-11" d="m87.2,382.78c0,3.33-2.7,6.03-6.03,6.03s-6.03-2.7-6.03-6.03,2.7-6.03,6.03-6.03,6.03,2.7,6.03,6.03Z"/>
            </g>
          </g>
          <g>
            <g>
              <g>
                <path class="cls-7" d="m101.47,371.88s-2.86,2.56,0,15.37c0,0,19.45,4.82,37.53,0,0,0,2.44-12.21-12.71-13.87-15.15-1.66-24.83-1.51-24.83-1.51Z"/>
                <path class="cls-53" d="m139.01,387.25s-11.46,4.52-37.53,0"/>
              </g>
              <polyline class="cls-51" points="67.05 265.93 133.96 280 109.29 373.6"/>
            </g>
            <path class="cls-20" d="m52.39,238.23h9.17c10.09,0,18.34,8.25,18.34,18.34h0c0,10.09-8.25,18.34-18.34,18.34h-9.17c-10.09,0-18.34-8.25-18.34-18.34h0c0-10.09,8.25-18.34,18.34-18.34Z"/>
            <g>
              <g>
                <path class="cls-19" d="m83.7,371.88s-2.86,2.56,0,15.37c0,0,19.45,4.82,37.53,0,0,0,2.44-12.21-12.71-13.87-15.15-1.66-24.83-1.51-24.83-1.51Z"/>
                <path class="cls-53" d="m121.23,387.25s-11.46,4.52-37.53,0"/>
              </g>
              <polyline class="cls-49" points="49.27 265.93 116.19 280 91.51 373.6"/>
            </g>
            <path class="cls-40" d="m40.84,137.7c-20.25,76.41-4.83,73.83,23.02,75.65,27.86,1.83,6.24-77.78,6.24-77.78l-29.26,2.13Z"/>
            <g>
              <path class="cls-18" d="m115.25,198.21l-17.62,29.76c-1.41,2.38-4.47,3.16-6.85,1.75-2.38-1.41-3.16-4.47-1.75-6.85.03-.05.07-.11.09-.15l18.68-29.1c1.31-2.04,4.02-2.63,6.05-1.32,1.99,1.28,2.59,3.9,1.4,5.92Z"/>
              <path class="cls-18" d="m79.77,183.72l18.45,39.32c1.25,2.67.1,5.85-2.56,7.1-2.67,1.25-5.85.1-7.1-2.56,0-.01-.02-.05-.03-.06l-17.99-39.53c-1.16-2.55-.03-5.57,2.52-6.73,2.53-1.15,5.52-.05,6.7,2.47Z"/>
            </g>
            <g>
              <path class="cls-18" d="m107.82,203.21l1.38.4c3.87,1.13,7.92-1.09,9.05-4.96h0c1.13-3.87-1.09-7.92-4.96-9.05l-1.38-.4c-3.87-1.13-7.92,1.09-9.05,4.96h0c-1.13,3.87,1.09,7.92,4.96,9.05Z"/>
              <path class="cls-18" d="m106.63,191.94h0c1.04.12,1.99-.63,2.11-1.67l1.18-10.32c.12-1.04-.63-1.99-1.67-2.11h0c-1.04-.12-1.99.63-2.11,1.67l-1.18,10.32c-.12,1.04.63,1.99,1.67,2.11Z"/>
              <path class="cls-17" d="m111.91,199.93h0c.99.34,2.08-.18,2.42-1.17l2.23-7.43c.34-.99-.18-2.08-1.17-2.42h0c-.99-.34-2.08.18-2.42,1.17l-2.23,7.43c-.34.99.18,2.08,1.17,2.42Z"/>
              <path class="cls-17" d="m108.35,198.99h0c.99.34,2.08-.18,2.42-1.17l2.23-7.43c.34-.99-.18-2.08-1.17-2.42h0c-.99-.34-2.08.18-2.42,1.17l-2.23,7.43c-.34.99.18,2.08,1.17,2.42Z"/>
              <path class="cls-17" d="m114.61,201.34h0c.96.41,2.09-.05,2.49-1.01l2.7-7.28c.41-.96-.05-2.09-1.01-2.49h0c-.96-.41-2.09.05-2.49,1.01l-2.7,7.28c-.41.96.05,2.09,1.01,2.49Z"/>
              <path class="cls-18" d="m109.07,194.15h0c1.56,1.37,2.51,3.31,2.61,5.39h0c-.23,1.89-2.1,3.11-3.93,2.58l-4.82-1.41c-1.55-.45-2.49-2.03-2.16-3.61l.76-3.58,7.53.62Z"/>
              <path class="cls-27" d="m103.18,193.66l5.89.49c1,.88,1.75,1.99,2.18,3.23-3.62,1.26-6.6-1.78-8.07-3.72Z"/>
              <path class="cls-18" d="m112.28,192.44l-7.67-2.24c-1.07-.31-2.19.3-2.51,1.38l-.57,1.94,6.15,1.79c2.02.59,4.14-.63,4.58-2.69.03-.13.03-.2,0-.19Z"/>
            </g>
            <g>
              <path class="cls-19" d="m31.38,255.51c2.94,1.01,5.13,1.9,8.63,2.58,15.47,2.98,33.4.22,42.16-2.58,0-10.82-5.61-21.64-5.61-32.46s3.79-20.76,3.8-31.15c.01-7.33-5.94-13.34-13.27-13.34h-20.77c-.61,0-1.23.04-1.85.12-8.96,1.15-14.8,10.07-12.83,18.89l5.68,25.36-5.93,32.57Z"/>
              <path class="cls-18" d="m45.11,181.98c0,3.39,5.52,6.14,12.33,6.14s12.33-2.75,12.33-6.14-5.52-4.22-12.33-4.22-12.33.83-12.33,4.22Z"/>
            </g>
            <g>
              <g>
                <path class="cls-18" d="m49.26,178.8c0-21.56,3.49-10.36,7.79-10.36s7.79-9.82,7.79,10.36c0,7.56-3.49,6.9-7.79,6.9s-7.79.65-7.79-6.9Z"/>
                <path class="cls-27" d="m64.68,172.5c-.73-11.54-3.87-4.06-7.63-4.06-4.17,0-7.57-10.51-7.78,8.4,6.66,2.63,11.83-.42,15.41-4.34Z"/>
              </g>
              <g>
                <path class="cls-18" d="m69.26,151.89c-.48,2.96.74,5.67,2.71,6.04,1.98.38,3.97-1.72,4.45-4.68.48-2.96-.73-5.67-2.71-6.04-1.98-.38-3.97,1.72-4.45,4.68Z"/>
                <path class="cls-27" d="m71.36,152.19c-.3-.06-.6-.02-.9.08,0-.05.01-.1.02-.15.32-1.96,1.63-3.34,2.94-3.09,1.31.25,2.11,2.04,1.79,3.99-.24,1.5-1.08,2.67-2.05,3.01.25-1.9-.54-3.6-1.81-3.84Z"/>
              </g>
              <path class="cls-50" d="m69.33,160.12c0-2.5,1.29-4.53,2.89-4.53"/>
              <path class="cls-18" d="m54.26,130.3h7.97c6.22,0,11.31,5.09,11.31,11.3v16.46c0,8.68-7.1,15.79-15.79,15.79h0c-8.68,0-15.79-7.1-15.79-15.79v-15.46c0-6.76,5.53-12.3,12.3-12.3Z"/>
              <path class="cls-27" d="m73.54,141.82v-.22c0-6.22-5.09-11.3-11.3-11.3h-7.97c-6.38,0-11.66,4.92-12.24,11.15,12.98,8.14,24.27,4.73,31.51.37Z"/>
              <path class="cls-40" d="m40.09,149.38c7.3,1.81,8.33-9.36,8.33-9.36,0,0,11.65,6.82,17.27-3.38,0,0,3.51,10.7,8.03,9.88v-5.2c0-6.59-5.34-11.92-11.92-11.92h-9.71c-6.54,0-11.86,5.27-11.92,11.82l-.07,8.17Z"/>
              <path class="cls-26" d="m69.41,132.15c-.62-.52-1.3-.97-2.03-1.36-2.71,4.47-7.09,8.04-14.17,7.59-4.87-.31-8-2.3-9.99-5.01-.61.67-1.14,1.41-1.58,2.21,11.22,8.19,20.85,3.51,27.77-3.43Z"/>
              <path class="cls-40" d="m50.72,147.64l2.61-1c.81-.31,1.22-1.22.91-2.03h0c-.31-.81-1.22-1.22-2.03-.91l-2.61,1c-.81.31-1.22,1.22-.91,2.03h0c.31.81,1.22,1.22,2.03.91Z"/>
              <path class="cls-40" d="m63.21,146.82l2.52,1.22c.78.38,1.72.05,2.1-.73h0c.38-.78.05-1.72-.73-2.1l-2.52-1.22c-.78-.38-1.72-.05-2.1.73h0c-.38.78-.05,1.72.73,2.1Z"/>
              <path class="cls-27" d="m61.41,156.3s-3.63.66-3.64,1.34c-.02.68,1.75,1,2.23.71.49-.29,1.41-2.06,1.41-2.06Z"/>
              <g>
                <path class="cls-16" d="m58.49,148.42c.39.81.76,1.63,1.1,2.46.35.83.7,1.66,1.01,2.5.32.84.64,1.68.93,2.53l.05.16s.03.14,0,.25c-.03.09-.05.1-.08.15-.1.14-.2.21-.29.29-.18.16-.38.27-.58.4-.4.23-.8.43-1.24.58.31-.34.64-.65.96-.95.16-.15.32-.3.46-.45.07-.07.14-.16.16-.2,0,0,.02-.03,0,0-.03.05.02.15,0,.09l-.06-.16c-.32-.83-.61-1.67-.89-2.52-.29-.84-.55-1.69-.81-2.54-.27-.85-.5-1.71-.72-2.58Z"/>
                <g>
                  <path class="cls-16" d="m51.73,149.95c0,.96.78,1.74,1.74,1.74s1.74-.78,1.74-1.74-.78-1.74-1.74-1.74-1.74.78-1.74,1.74Z"/>
                  <path class="cls-16" d="m52.32,150.46c-.25.6-1.79.35-2.14-1.05l.89.25,1.24-.99v1.79Z"/>
                </g>
                <g>
                  <path class="cls-16" d="m62.96,149.95c0,.96.78,1.74,1.74,1.74s1.74-.78,1.74-1.74-.78-1.74-1.74-1.74-1.74.78-1.74,1.74Z"/>
                  <path class="cls-16" d="m65.8,150.46c.25.6,1.79.35,2.14-1.05l-.89.25-1.24-.99v1.79Z"/>
                </g>
              </g>
              <g>
                <path class="cls-16" d="m61.54,160.12c-2.11-.54-5.04-1.43-7.76-2.78-1.79-.89-3.62,1.32-2.83,3.44.84,2.25,2.49,4.44,5.7,5.03,2.63.48,4.38-.06,5.55-.94,1.66-1.25,1.22-4.27-.66-4.75Z"/>
                <path class="cls-29" d="m56.64,165.81c-3.2-.59-4.85-2.78-5.7-5.03-.12-.32-.17-.64-.18-.95,1.2-.41,2.74-.48,4.75.16,3.1.99,4.44,3.36,4.98,5.7,0,0,0,0,0,.01-1.01.3-2.27.39-3.86.1Z"/>
                <path class="cls-10" d="m58.43,163.31c-.37.52-1.58.31-2.71-.45-1.13-.77-1.74-1.8-1.38-2.32.37-.52,1.58-.31,2.71.45,1.13.77,1.74,1.8,1.38,2.32Z"/>
                <path class="cls-25" d="m61.54,160.12c-2.11-.54-5.04-1.43-7.76-2.78-1.1-.54-2.21.08-2.73,1.13,1.52,1.63,3.93,3.06,6.84,3.87,1.86.52,3.68.72,5.32.63.13-1.24-.48-2.56-1.67-2.86Z"/>
              </g>
              <g>
                <path class="cls-18" d="m44.48,151.21c.48,2.96-.73,5.67-2.71,6.04-1.98.38-3.97-1.72-4.45-4.68-.48-2.96.74-5.67,2.71-6.04,1.98-.38,3.97,1.72,4.45,4.68Z"/>
                <path class="cls-27" d="m42.38,151.5c.3-.06.6-.02.9.08,0-.05-.01-.1-.02-.15-.32-1.96-1.63-3.34-2.94-3.09-1.31.25-2.11,2.04-1.79,3.99.24,1.5,1.08,2.67,2.05,3.01-.25-1.9.54-3.6,1.81-3.84Z"/>
              </g>
            </g>
          </g>
          <g>
            <path class="cls-15" d="m167.02,244.02l-62.82-.02,13.12-44.17h59.28c1.74,0,2.99,1.67,2.49,3.34l-12.07,40.84Z"/>
            <rect class="cls-38" x="75.15" y="244" width="91.87" height="3.14"/>
            <rect class="cls-38" x="104.2" y="244" width="62.82" height="3.14"/>
            <polygon class="cls-38" points="117.32 199.84 114.93 199.84 101.63 244.14 104.2 244 117.32 199.84"/>
            <path class="cls-30" d="m149.95,225.99c-.88,2.71-3.48,4.3-5.8,3.54-2.32-.76-3.49-3.57-2.6-6.28.88-2.71,3.48-4.3,5.8-3.54,2.32.76,3.49,3.57,2.6,6.28Z"/>
          </g>
          <g>
            <g>
              <ellipse class="cls-18" cx="39.88" cy="195.79" rx="8" ry="12.52"/>
              <path class="cls-27" d="m44.85,205.59l-9.97-15.5s-1.13,10.07,5.2,18.21c1.8-.07,3.45-1.07,4.77-2.7Z"/>
            </g>
            <path class="cls-18" d="m92.26,246.4l-34.47-12.06c-3.39-1.19-5.18-4.9-3.99-8.29,1.19-3.39,4.9-5.18,8.29-3.99.18.06.37.14.54.22l33.25,15.1c2.45,1.11,3.53,4,2.42,6.44-1.05,2.31-3.69,3.39-6.04,2.58Z"/>
            <path class="cls-18" d="m45.27,186.38l20.96,38.73c1.79,3.31.56,7.44-2.75,9.23-3.31,1.79-7.44.56-9.23-2.75-.01-.02-.04-.07-.05-.09l-20.38-39.04c-1.66-3.17-.43-7.09,2.75-8.75,3.14-1.64,7.02-.44,8.7,2.66Z"/>
          </g>
          <g>
            <path class="cls-18" d="m93.14,236.89c.27-.27.65-.38,1.02-.32,2.71.47,13.81,2.38,13.95,2.49.17.13,3.28,7.95,3.02,8-.26.04-17.31,0-17.31,0,0,0-7.34-3.5-.69-10.17Z"/>
            <path class="cls-27" d="m100.23,243.77c-1.13,1.15-2.19.71-2.7.38l-.3-.23s-2.02.95-2.05,1.11c0,.02.02.09.05.18-.38.8-1.01,1.32-1.74,1.67.21.12.34.18.34.18,0,0,1.3,0,3.18,0l-1.03-1.89s.19-.41,1.52-.95c.28.29.74.67,1.24.74-.42.28-.67,1.01-.67,1.01.32-.69,1.49-1.16,2.09.11-.33-.74-.63-1.08-.91-1.19.34-.14.67-.47.97-1.13Z"/>
            <g>
              <path class="cls-27" d="m108.3,247.08l-1.09-5.71,1.64,5.71c-.18,0-.36,0-.55,0Z"/>
              <path class="cls-27" d="m103.62,247.08c-.18,0-.37,0-.55,0l-1.09-5.71,1.64,5.71Z"/>
              <path class="cls-27" d="m104.59,241.37l1.64,5.71c-.18,0-.36,0-.55,0l-1.09-5.71Z"/>
            </g>
          </g>
        </g>
      </g>
      <g>
        <g>
          <g>
            <rect class="cls-6" x="437.96" y="282.68" width="18.82" height="93.48" transform="translate(894.74 658.84) rotate(180)"/>
            <path class="cls-1" d="m456.78,297.05c-8.88-1.18-15.07,2.92-18.82,9v-23.37h18.82v14.37Z"/>
            <g>
              <path class="cls-28" d="m444.79,177.71h25.64c12.02,0,21.78,9.76,21.78,21.78v8.94c0,15.86-12.88,28.74-28.74,28.74h-11.71c-15.86,0-28.74-12.88-28.74-28.74v-8.94c0-12.02,9.76-21.78,21.78-21.78Z" transform="translate(915.22 414.88) rotate(180)"/>
              <path class="cls-5" d="m438.33,177.71h25.64c12.02,0,21.78,9.76,21.78,21.78v8.94c0,15.86-12.88,28.74-28.74,28.74h-11.71c-15.86,0-28.74-12.88-28.74-28.74v-8.94c0-12.02,9.76-21.78,21.78-21.78Z" transform="translate(902.31 414.88) rotate(180)"/>
            </g>
            <g>
              <path class="cls-28" d="m426.61,291.35h58.77c5.71,0,10.33-4.63,10.33-10.33h0c0-5.71-4.63-10.33-10.33-10.33h-58.77c-5.71,0-10.33,4.63-10.33,10.33h0c0,5.71,4.63,10.33,10.33,10.33Z"/>
              <path class="cls-5" d="m417.39,291.35h47.2c5.71,0,10.33-4.63,10.33-10.33h0c0-5.71-4.63-10.33-10.33-10.33h-47.2c-5.71,0-10.33,4.63-10.33,10.33h0c0,5.71,4.63,10.33,10.33,10.33Z"/>
            </g>
            <rect class="cls-6" x="410.27" y="365.41" width="72.48" height="11.34" rx="5.63" ry="5.63" transform="translate(893.01 742.17) rotate(180)"/>
            <g>
              <path class="cls-1" d="m455.22,382.78c0,3.33,2.7,6.03,6.03,6.03s6.03-2.7,6.03-6.03-2.7-6.03-6.03-6.03-6.03,2.7-6.03,6.03Z"/>
              <path class="cls-11" d="m459.25,382.78c0,3.33,2.7,6.03,6.03,6.03s6.03-2.7,6.03-6.03-2.7-6.03-6.03-6.03-6.03,2.7-6.03,6.03Z"/>
            </g>
            <g>
              <path class="cls-1" d="m436.56,382.78c0,3.33,2.7,6.03,6.03,6.03s6.03-2.7,6.03-6.03-2.7-6.03-6.03-6.03-6.03,2.7-6.03,6.03Z"/>
              <path class="cls-11" d="m440.59,382.78c0,3.33,2.7,6.03,6.03,6.03s6.03-2.7,6.03-6.03-2.7-6.03-6.03-6.03-6.03,2.7-6.03,6.03Z"/>
            </g>
            <g>
              <path class="cls-1" d="m417.91,382.78c0,3.33,2.7,6.03,6.03,6.03s6.03-2.7,6.03-6.03-2.7-6.03-6.03-6.03-6.03,2.7-6.03,6.03Z"/>
              <path class="cls-11" d="m421.94,382.78c0,3.33,2.7,6.03,6.03,6.03s6.03-2.7,6.03-6.03-2.7-6.03-6.03-6.03-6.03,2.7-6.03,6.03Z"/>
            </g>
          </g>
          <g>
            <g>
              <path class="cls-37" d="m379.71,237.38l33.25-15.1c3.27-1.49,7.13-.04,8.61,3.23,1.49,3.27.04,7.13-3.23,8.61-.18.08-.36.15-.54.22l-34.47,12.06c-2.54.89-5.31-.45-6.2-2.99-.84-2.39.32-5,2.58-6.04Z"/>
              <path class="cls-37" d="m441.77,192.46l-20.38,39.04c-1.74,3.33-5.85,4.63-9.19,2.89-3.33-1.74-4.63-5.85-2.89-9.19.01-.02.04-.07.05-.09l20.96-38.73c1.7-3.15,5.64-4.32,8.79-2.62,3.12,1.69,4.3,5.57,2.66,8.7Z"/>
            </g>
            <g>
              <path class="cls-37" d="m382.45,236.89c-.27-.27-.65-.38-1.02-.32-2.71.47-13.8,2.38-13.95,2.49-.17.13-3.27,7.95-3.02,8,.26.04,17.31,0,17.31,0,0,0,7.34-3.5.69-10.17Z"/>
              <path class="cls-31" d="m375.36,243.77c1.13,1.15,2.19.71,2.7.38l.3-.23s2.02.95,2.05,1.11c0,.02-.02.09-.05.18.38.8,1.01,1.32,1.74,1.67-.21.12-.34.18-.34.18,0,0-1.3,0-3.18,0l1.03-1.89s-.19-.41-1.52-.95c-.28.29-.74.67-1.24.74.42.28.67,1.01.67,1.01-.32-.69-1.49-1.16-2.09.11.33-.74.63-1.08.91-1.19-.34-.14-.67-.47-.97-1.13Z"/>
              <g>
                <path class="cls-31" d="m367.29,247.08l1.09-5.71-1.64,5.71c.18,0,.36,0,.55,0Z"/>
                <path class="cls-31" d="m371.98,247.08c.18,0,.37,0,.55,0l1.09-5.71-1.64,5.71Z"/>
                <path class="cls-31" d="m371,241.37l-1.64,5.71c.18,0,.36,0,.55,0l1.09-5.71Z"/>
              </g>
            </g>
            <path class="cls-14" d="m427.98,186.55l-17.07,32.42,14.81,7.7,16.79-32.55c2.09-4.06.46-9.05-3.63-11.08h0c-3.98-1.98-8.82-.42-10.89,3.51Z"/>
          </g>
          <g>
            <g>
              <path class="cls-14" d="m407.66,371.88s2.86,2.56,0,15.37c0,0-19.45,4.82-37.53,0,0,0-2.44-12.21,12.71-13.87,15.15-1.66,24.83-1.51,24.83-1.51Z"/>
              <path class="cls-53" d="m370.13,387.25s11.46,4.52,37.53,0"/>
            </g>
            <polyline class="cls-51" points="442.09 265.93 375.17 280 399.85 373.6"/>
          </g>
          <path class="cls-20" d="m456.74,238.23h-9.17c-10.09,0-18.34,8.25-18.34,18.34h0c0,10.09,8.25,18.34,18.34,18.34h9.17c10.09,0,18.34-8.25,18.34-18.34h0c0-10.09-8.25-18.34-18.34-18.34Z"/>
          <g>
            <g>
              <path class="cls-45" d="m425.44,371.88s2.86,2.56,0,15.37c0,0-19.45,4.82-37.53,0,0,0-2.44-12.21,12.71-13.87,15.15-1.66,24.83-1.51,24.83-1.51Z"/>
              <path class="cls-53" d="m387.91,387.25s11.46,4.52,37.53,0"/>
            </g>
            <polyline class="cls-49" points="459.86 265.93 392.95 280 417.63 373.6"/>
          </g>
          <path class="cls-45" d="m477.75,255.51c-2.94,1.01-5.13,1.9-8.63,2.58-15.47,2.98-33.4.22-42.16-2.58,0-10.82.61-21.64.61-32.46s1.21-20.76,1.2-31.15c-.01-7.33,5.94-13.34,13.27-13.34h20.77c.61,0,1.23.04,1.85.12,8.96,1.15,14.8,10.07,12.83,18.89l-.68,25.36.93,32.57Z"/>
          <g>
            <path class="cls-4" d="m483.83,139.26c0,.93-1.05,1.79-1.15,2.69-.1.92.73,1.99.53,2.88-.2.9-1.41,1.51-1.71,2.38-.3.87.28,2.1-.11,2.93-.39.83-1.7,1.17-2.18,1.96-.47.78-.16,2.1-.71,2.84-.55.73-1.9.8-2.53,1.48-.62.67-.56,2.03-1.24,2.65-.68.61-2.02.43-2.76.99-.73.55-.92,1.89-1.7,2.39-.77.49-2.07.07-2.89.5-.81.42-1.22,1.71-2.08,2.06-.84.35-2.05-.27-2.93.01-.87.28-1.48,1.49-2.39,1.7-.89.21-1.98-.6-2.89-.45-.9.14-1.7,1.24-2.62,1.31-.91.07-1.86-.89-2.79-.89s-1.88.96-2.79.89c-.92-.07-1.72-1.17-2.62-1.31-.92-.14-2.01.66-2.89.45-.9-.21-1.52-1.42-2.39-1.7-.88-.28-2.09.34-2.93-.01-.85-.35-1.27-1.65-2.08-2.07-.82-.42-2.12-.01-2.89-.5-.78-.49-.97-1.84-1.7-2.39-.74-.56-2.08-.38-2.76-.99-.68-.62-.63-1.98-1.24-2.65-.62-.68-1.98-.75-2.53-1.48-.55-.74-.24-2.06-.71-2.84-.47-.79-1.79-1.13-2.18-1.96-.39-.83.19-2.06-.11-2.93-.3-.87-1.51-1.48-1.71-2.38-.2-.89.63-1.96.53-2.88-.1-.9-1.15-1.77-1.15-2.69s1.05-1.79,1.15-2.69c.1-.92-.73-1.99-.53-2.88.2-.9,1.41-1.51,1.71-2.38.3-.87-.28-2.1.11-2.93.39-.83,1.7-1.17,2.18-1.96.47-.78.16-2.1.71-2.84.55-.73,1.9-.8,2.53-1.48.62-.67.56-2.03,1.24-2.65.68-.61,2.02-.43,2.76-.99.73-.55.92-1.89,1.7-2.39.77-.49,2.07-.07,2.89-.5.81-.42,1.22-1.71,2.08-2.07.84-.35,2.05.27,2.93-.01.87-.28,1.48-1.49,2.39-1.7.89-.21,1.98.6,2.89.45.9-.14,1.7-1.24,2.62-1.31.91-.07,1.86.89,2.79.89s1.88-.96,2.79-.89c.92.07,1.72,1.17,2.62,1.31.92.14,2.01-.66,2.89-.45.9.21,1.52,1.42,2.39,1.7.88.28,2.09-.34,2.93.01.85.35,1.27,1.65,2.08,2.07.82.42,2.12.01,2.89.5.78.49.97,1.84,1.7,2.39.74.56,2.08.38,2.76.99.68.62.63,1.98,1.24,2.65.62.68,1.98.75,2.53,1.48.55.74.24,2.06.71,2.84.47.79,1.79,1.13,2.18,1.96.39.83-.19,2.06.11,2.93.3.87,1.51,1.48,1.71,2.38.2.89-.63,1.96-.53,2.88.1.9,1.15,1.77,1.15,2.69Z"/>
            <g>
              <g>
                <path class="cls-37" d="m459.88,178.8c0-21.56-3.49-10.36-7.79-10.36s-7.79-9.82-7.79,10.36c0,7.56,3.49,6.9,7.79,6.9s7.79.65,7.79-6.9Z"/>
                <path class="cls-31" d="m444.45,172.5c.73-11.54,3.87-4.06,7.63-4.06,4.17,0,7.57-10.51,7.78,8.4-6.66,2.63-11.83-.42-15.41-4.34Z"/>
              </g>
              <g>
                <path class="cls-37" d="m439.87,151.89c.48,2.96-.74,5.67-2.71,6.04-1.98.38-3.97-1.72-4.45-4.68-.48-2.96.73-5.67,2.71-6.04,1.98-.38,3.97,1.72,4.45,4.68Z"/>
                <path class="cls-31" d="m437.78,152.19c.3-.06.6-.02.9.08,0-.05-.01-.1-.02-.15-.32-1.96-1.63-3.34-2.94-3.09-1.31.25-2.11,2.04-1.79,3.99.24,1.5,1.08,2.67,2.05,3.01-.25-1.9.54-3.6,1.81-3.84Z"/>
              </g>
              <path class="cls-50" d="m439.8,160.12c0-2.5-1.29-4.53-2.89-4.53"/>
              <path class="cls-37" d="m454.87,130.3h-7.97c-6.22,0-11.3,5.09-11.3,11.3v16.46c0,8.68,7.1,15.79,15.79,15.79h0c8.68,0,15.79-7.1,15.79-15.79v-15.46c0-6.76-5.53-12.3-12.3-12.3Z"/>
              <path class="cls-31" d="m434.62,142.28c0-6.27,5.13-11.4,11.4-11.4h8.03c2.52,0,4.87.77,6.84,2.08.02.1.05.2.07.3.09-.03.17-.04.26-.06,3.16,2.25,5.23,5.94,5.23,10.09v5.08c-2.42-.13-4.34-2.12-4.34-4.57,0-.56.11-1.09.3-1.58-.03,0-.06,0-.09,0-2.33,0-4.24-1.75-4.53-4-.43.13-.88.23-1.36.23-1.52,0-2.85-.74-3.69-1.88-.78.61-1.75.99-2.81.99-1.12,0-2.14-.42-2.93-1.09-.84.93-2.05,1.53-3.4,1.53-.21,0-.41-.03-.62-.06-.43,1.25-1.37,2.27-2.58,2.77-.22,1.47-1.14,2.7-2.41,3.37.12.41.2.83.2,1.28,0,2.18-1.52,4-3.56,4.47v-7.53Z"/>
              <path class="cls-4" d="m456.5,147.44l-2.63-1.01c-.81-.31-1.23-1.23-.91-2.05h0c.31-.81,1.23-1.23,2.05-.91l2.63,1.01c.81.31,1.23,1.23.91,2.05h0c-.31.81-1.23,1.23-2.05.91Z"/>
              <path class="cls-4" d="m444.02,146.62l-2.54,1.23c-.79.38-1.74.05-2.12-.74h0c-.38-.79-.05-1.74.74-2.12l2.54-1.23c.79-.38,1.74-.05,2.12.74h0c.38.79.05,1.74-.74,2.12Z"/>
              <path class="cls-31" d="m447.58,157.05s3.66.67,3.67,1.35c.02.69-1.76,1.01-2.25.72-.49-.29-1.42-2.07-1.42-2.07Z"/>
              <g>
                <path class="cls-16" d="m450.53,149.11c-.39.82-.77,1.64-1.11,2.48-.35.84-.7,1.67-1.02,2.52-.32.85-.65,1.69-.94,2.55l-.05.16s-.03.14,0,.25c.03.09.05.1.08.15.11.14.2.21.29.29.19.16.39.28.58.4.4.23.81.44,1.25.59-.31-.35-.64-.65-.97-.96-.16-.15-.32-.31-.47-.45-.07-.07-.14-.16-.16-.2,0,0-.02-.03,0,0,.03.05-.02.15,0,.09l.06-.16c.32-.84.61-1.69.9-2.54.29-.85.55-1.71.82-2.56.27-.86.51-1.73.73-2.61Z"/>
                <path class="cls-4" d="m457.55,150.65c0,.97-.78,1.75-1.75,1.75s-1.75-.78-1.75-1.75.78-1.75,1.75-1.75,1.75.78,1.75,1.75Z"/>
                <path class="cls-4" d="m445.08,150.65c0,.97-.78,1.75-1.75,1.75s-1.75-.78-1.75-1.75.78-1.75,1.75-1.75,1.75.78,1.75,1.75Z"/>
              </g>
              <path class="cls-31" d="m457.19,159.39s-.08-1.27-1.33-.75l.63.35c-.85.91-4.48,4.13-12.29,2.59,0,0,2.53,1.67,7.33.61,3.77-.83,4.8-2.47,5.07-3.14l.59.33Z"/>
            </g>
            <g>
              <path class="cls-52" d="m448.48,150.2c0,3.47-2.36,6.28-5.28,6.28s-5.28-2.81-5.28-6.28,2.36-6.28,5.28-6.28,5.28,2.81,5.28,6.28Z"/>
              <path class="cls-52" d="m460.92,150.2c0,3.47-2.36,6.28-5.28,6.28s-5.28-2.81-5.28-6.28,2.36-6.28,5.28-6.28,5.28,2.81,5.28,6.28Z"/>
              <line class="cls-52" x1="460.52" y1="147.95" x2="466.45" y2="145.45"/>
              <line class="cls-52" x1="438.27" y1="147.95" x2="433.48" y2="146.5"/>
              <line class="cls-52" x1="450.8" y1="147.56" x2="448.05" y2="147.56"/>
            </g>
            <path class="cls-4" d="m432.1,144.72c-.7-.55-1.16-1.39-1.16-2.35,0-1.52,1.13-2.76,2.59-2.96-.6-.55-.98-1.33-.98-2.21,0-1.64,1.32-2.97,2.95-3-.04-.2-.06-.4-.06-.62,0-1.66,1.34-3,3-3,.29,0,.56.05.83.13.39-1.2,1.51-2.07,2.84-2.07.82,0,1.56.33,2.1.86.52-.88,1.47-1.47,2.57-1.47,1,0,1.87.49,2.42,1.24.55-.75,1.42-1.24,2.42-1.24,1.16,0,2.15.67,2.65,1.63.55-.62,1.34-1.02,2.24-1.02,1.53,0,2.77,1.14,2.96,2.62.51-.41,1.16-.67,1.87-.67,1.66,0,3,1.34,3,3,0,.37-.08.72-.2,1.04.45-.27.97-.43,1.53-.43,1.66,0,3,1.34,3,3,0,.89-.39,1.68-1.01,2.23,1.37.28,2.4,1.49,2.4,2.94,0,.95-.45,1.79-1.14,2.34,1.09.45,1.86,1.52,1.86,2.77,0,1.66-1.34,3-3,3s-3-1.34-3-3c0-.95.45-1.79,1.14-2.34-1.09-.45-1.86-1.52-1.86-2.77,0-.89.39-1.68,1.01-2.23-1.37-.28-2.4-1.49-2.4-2.94,0-.37.08-.72.2-1.04-.45.27-.97.43-1.53.43-1.53,0-2.77-1.14-2.96-2.62-.51.41-1.16.67-1.87.67-1.16,0-2.15-.67-2.65-1.63-.55.62-1.34,1.02-2.24,1.02-1,0-1.87-.49-2.42-1.24-.55.75-1.42,1.24-2.42,1.24-.82,0-1.56-.33-2.1-.86-.52.88-1.47,1.47-2.57,1.47-.29,0-.56-.05-.83-.13-.39,1.19-1.48,2.05-2.79,2.07.04.2.06.4.06.62,0,1.52-1.13,2.76-2.59,2.96.6.55.98,1.33.98,2.21,0,1.24-.75,2.3-1.82,2.76.7.55,1.16,1.39,1.16,2.35,0,1.66-1.34,3-3,3s-3-1.34-3-3c0-1.24.75-2.3,1.82-2.76Z"/>
            <g>
              <path class="cls-37" d="m464.66,151.21c-.48,2.96.73,5.67,2.71,6.04,1.98.38,3.97-1.72,4.45-4.68.48-2.96-.74-5.67-2.71-6.04-1.98-.38-3.97,1.72-4.45,4.68Z"/>
              <path class="cls-31" d="m466.75,151.5c-.3-.06-.6-.02-.9.08,0-.05.01-.1.02-.15.32-1.96,1.63-3.34,2.94-3.09,1.31.25,2.11,2.04,1.79,3.99-.24,1.5-1.08,2.67-2.05,3.01.25-1.9-.54-3.6-1.81-3.84Z"/>
            </g>
          </g>
          <g>
            <g>
              <path class="cls-37" d="m413.25,237.38l33.25-15.1c3.27-1.49,7.13-.04,8.61,3.23,1.49,3.27.04,7.13-3.23,8.61-.18.08-.36.15-.54.22l-34.47,12.06c-2.54.89-5.31-.45-6.2-2.99-.84-2.39.32-5,2.58-6.04Z"/>
              <path class="cls-37" d="m475.31,192.46l-20.38,39.04c-1.74,3.33-5.85,4.63-9.19,2.89-3.33-1.74-4.63-5.85-2.89-9.19.01-.02.04-.07.05-.09l20.96-38.73c1.7-3.15,5.64-4.32,8.79-2.62,3.12,1.69,4.3,5.57,2.66,8.7Z"/>
            </g>
            <g>
              <path class="cls-37" d="m415.99,236.89c-.27-.27-.65-.38-1.02-.32-2.71.47-13.8,2.38-13.95,2.49-.17.13-3.27,7.95-3.02,8,.26.04,17.31,0,17.31,0,0,0,7.34-3.5.69-10.17Z"/>
              <path class="cls-31" d="m408.9,243.77c1.13,1.15,2.19.71,2.7.38l.3-.23s2.02.95,2.05,1.11c0,.02-.02.09-.05.18.38.8,1.01,1.32,1.74,1.67-.21.12-.34.18-.34.18,0,0-1.3,0-3.18,0l1.03-1.89s-.19-.41-1.52-.95c-.28.29-.74.67-1.24.74.42.28.67,1.01.67,1.01-.32-.69-1.49-1.16-2.09.11.33-.74.63-1.08.91-1.19-.34-.14-.67-.47-.97-1.13Z"/>
              <g>
                <path class="cls-31" d="m400.83,247.08l1.09-5.71-1.64,5.71c.18,0,.36,0,.55,0Z"/>
                <path class="cls-31" d="m405.52,247.08c.18,0,.37,0,.55,0l1.09-5.71-1.64,5.71Z"/>
                <path class="cls-31" d="m404.54,241.37l-1.64,5.71c.18,0,.36,0,.55,0l1.09-5.71Z"/>
              </g>
            </g>
            <path class="cls-14" d="m461.52,186.55l-17.07,32.42,14.81,7.7,16.79-32.55c2.09-4.06.46-9.05-3.63-11.08h0c-3.98-1.98-8.82-.42-10.89,3.51Z"/>
          </g>
          <g>
            <path class="cls-15" d="m343.72,244.02l62.82-.02-13.12-44.17h-59.28c-1.74,0-2.99,1.67-2.49,3.34l12.07,40.84Z"/>
            <rect class="cls-38" x="343.73" y="244" width="91.87" height="3.14" transform="translate(779.32 491.14) rotate(180)"/>
            <rect class="cls-38" x="343.73" y="244" width="62.82" height="3.14" transform="translate(750.27 491.14) rotate(180)"/>
            <polygon class="cls-38" points="393.42 199.84 395.81 199.84 409.11 244.14 406.54 244 393.42 199.84"/>
            <path class="cls-30" d="m360.79,225.99c.88,2.71,3.48,4.3,5.8,3.54,2.32-.76,3.49-3.57,2.6-6.28-.88-2.71-3.48-4.3-5.8-3.54-2.32.76-3.49,3.57-2.6,6.28Z"/>
          </g>
        </g>
        <g>
          <path class="cls-44" d="m398.67,59.65h38.47c5.13,0,9.28,4.16,9.28,9.29v19.23c0,4.9-3.8,8.91-8.62,9.25v10.42l-10.39-10.39h-28.74c-5.13,0-9.29-4.16-9.29-9.29v-19.23c0-5.13,4.16-9.29,9.29-9.29Z"/>
          <g>
            <g>
              <circle class="cls-19" cx="418.42" cy="76.7" r="9.04" transform="translate(275.69 477.43) rotate(-80.78)"/>
              <path class="cls-19" d="m414.08,81.14h8.67v5.47c0,2.23-1.81,4.04-4.04,4.04h-.59c-2.23,0-4.04-1.81-4.04-4.04v-5.47h0Z"/>
            </g>
            <line class="cls-47" x1="425.52" y1="67.75" x2="428.98" y2="64.29"/>
            <line class="cls-47" x1="424.43" y1="62.62" x2="424.43" y2="65.47"/>
            <line class="cls-47" x1="430.85" y1="68.96" x2="428.01" y2="68.96"/>
            <g>
              <path class="cls-48" d="m417.3,90.66v-15.19c0-.52-.42-.95-.95-.95h0c-.52,0-.95.42-.95.95v.28c0,.52.42.95.95.95h2.38"/>
              <path class="cls-48" d="m419.54,90.66v-15.19c0-.52.42-.95.95-.95h0c.52,0,.95.42.95.95v.28c0,.52-.42.95-.95.95h-2.38"/>
            </g>
            <rect class="cls-13" x="412.9" y="87.3" width="11.08" height="4.44" rx="2.03" ry="2.03"/>
            <path class="cls-13" d="m420.22,93.56h-3.59c-1.01,0-1.82-.82-1.82-1.82h0c0-1.01.82-1.82,1.82-1.82h3.59c1.01,0,1.82.82,1.82,1.82h0c0,1.01-.82,1.82-1.82,1.82Z"/>
          </g>
        </g>
      </g>
      <g>
        <polygon class="cls-1" points="438.95 259.88 426.87 258.21 446.08 406.1 451.53 406.1 438.95 259.88"/>
        <polygon class="cls-1" points="69.32 259.88 81.4 258.21 62.19 406.1 56.74 406.1 69.32 259.88"/>
        <g>
          <rect class="cls-39" x="55.46" y="258.21" width="397.85" height="10.67"/>
          <rect class="cls-1" x="55.46" y="258.21" width="397.85" height="3.54"/>
          <path class="cls-32" d="m48.96,247.08h410.87c2.58,0,4.68,2.1,4.68,4.68v6.9H44.28v-6.9c0-2.58,2.1-4.68,4.68-4.68Z"/>
          <rect class="cls-41" x="44.28" y="254.48" width="420.23" height="4.18"/>
        </g>
        <g>
          <polygon class="cls-39" points="42.89 415.1 48.34 415.1 67.55 267.2 55.46 268.88 42.89 415.1"/>
          <polygon class="cls-39" points="453.35 268.88 441.27 267.2 460.48 415.1 465.93 415.1 453.35 268.88"/>
        </g>
      </g>
    </g>
  </g>
</svg>