<?xml version="1.0" encoding="UTF-8"?>
<svg id="Layer_1" data-name="Layer 1" xmlns="http://www.w3.org/2000/svg" viewBox="0 0 1831.95 1193.59">
  <defs>
    <style>
      .cls-1 {
        fill: #e4e9ff;
      }

      .cls-1, .cls-2, .cls-3, .cls-4, .cls-5, .cls-6, .cls-7, .cls-8, .cls-9, .cls-10, .cls-11, .cls-12, .cls-13, .cls-14, .cls-15, .cls-16, .cls-17 {
        stroke-width: 0px;
      }

      .cls-2 {
        fill: #e296b5;
      }

      .cls-3 {
        fill: #79d9ef;
      }

      .cls-4 {
        fill: #ef924d;
      }

      .cls-18 {
        opacity: .5;
      }

      .cls-5 {
        fill: #fcb9d2;
      }

      .cls-6 {
        fill: #b9baf2;
      }

      .cls-7 {
        fill: #f7b85b;
      }

      .cls-8 {
        fill: #c7cde2;
      }

      .cls-9 {
        fill: #3fb28e;
      }

      .cls-10 {
        fill: #4d63bc;
      }

      .cls-11 {
        fill: #34ad85;
      }

      .cls-12 {
        fill: #293349;
      }

      .cls-13 {
        fill: #fff;
      }

      .cls-14 {
        fill: #323d5b;
      }

      .cls-15 {
        fill: #7086e0;
      }

      .cls-16 {
        fill: #d7e0ff;
        opacity: .34;
      }

      .cls-17 {
        fill: #4ccda7;
      }
    </style>
  </defs>
  <g>
    <g class="cls-18">
      <path class="cls-16" d="m151.76,1193.54l1527.91-.53c134.94-.05,203.57-164.13,107.26-258.65-1.98-1.94-4-3.88-6.06-5.82-131.74-123.94-175.98-126.77-175.98-383.58s-187.43-305.6-327.36-261.9c-139.93,43.7-286.22,62.47-413.63-151.76C736.48-82.95,330.97-49.44,323.31,339.32,316.74,673.27,36.34,727.12,1.06,1024.93c-10.65,89.85,60.22,168.64,150.7,168.61Z"/>
      <path class="cls-16" d="m1715.83,1193.59s-23.84-121.82-399.12-121.82c-217.46,0-328.1-309.25-657.39-136.09-335.35,176.35-426.69,104.31-506.25,257.33l1562.76.58Z"/>
    </g>
    <rect class="cls-1" x="422.07" y="711.02" width="28.69" height="482"/>
    <rect class="cls-1" x="1620.44" y="711.02" width="28.69" height="482"/>
    <g>
      <rect class="cls-1" x="224.81" y="711.02" width="28.69" height="482"/>
      <rect class="cls-8" x="239.15" y="711.02" width="14.35" height="482"/>
    </g>
    <g>
      <rect class="cls-1" x="1423.18" y="711.02" width="28.69" height="482"/>
      <rect class="cls-8" x="1437.52" y="711.02" width="14.35" height="482"/>
    </g>
    <path class="cls-10" d="m1671.92,711.02H387.58c-5.3,0-9.6-4.3-9.6-9.6v-20.96c0-5.3,4.3-9.6,9.6-9.6h1284.34c11.09,0,20.08,8.99,20.08,20.08h0c0,11.09-8.99,20.08-20.08,20.08Z"/>
    <path class="cls-8" d="m1216.73,846.42h-243.64c-16.18,0-28.48-13.24-27.47-29.57l27.33-444.92c1-16.33,14.93-29.57,31.11-29.57h243.64c16.18,0,28.48,13.24,27.47,29.57l-27.33,444.92c-1,16.33-14.93,29.57-31.11,29.57Z"/>
    <path class="cls-1" d="m1199.31,846.42h-243.64c-16.18,0-28.48-13.24-27.47-29.57l27.33-444.92c1-16.33,14.93-29.57,31.11-29.57h243.64c16.18,0,28.48,13.24,27.47,29.57l-27.33,444.92c-1,16.33-14.93,29.57-31.11,29.57Z"/>
    <path class="cls-8" d="m865.81,801.12h378.08c2.23,0,4.05,1.81,4.05,4.05v51.49c0,2.23-1.81,4.05-4.05,4.05h-378.08v-59.58h0Z"/>
    <path class="cls-1" d="m748.11,801.12h371.89c2.24,0,4.05,1.81,4.05,4.05v51.48c0,2.23-1.81,4.05-4.05,4.05h-371.89c-2.24,0-4.05-1.81-4.05-4.05v-51.48c0-2.24,1.81-4.05,4.05-4.05Z"/>
    <path class="cls-7" d="m936.59,420.16l-64.78,104.39c-26.78,43.16-79.21,62.95-127.83,48.25l-65.5-19.79-19.16,59.14c15.49,4.27,25.48,7.04,25.51,7.05,119.23,32.52,182.06,13.92,217.06-33.33l51.9-75.53s47.8-53.98-17.21-90.17Z"/>
    <path class="cls-5" d="m652.18,545.06l-104.43-7.87-49.37,7.77c39.9,10.5,123.93,56.99,160.94,67.19l19.16-59.14-26.3-7.95Z"/>
    <polygon class="cls-13" points="691.85 548.96 666.34 625.9 644.67 616.17 678.48 545.73 691.85 548.96"/>
    <g>
      <rect class="cls-8" x="1074.16" y="1008.9" width="11.48" height="175.99" transform="translate(-421.47 757.42) rotate(-32.71)"/>
      <circle class="cls-8" cx="1127.45" cy="1170.94" r="22"/>
    </g>
    <g>
      <rect class="cls-8" x="887.99" y="1091.16" width="175.99" height="11.48" transform="translate(-474.36 1325.42) rotate(-57.29)"/>
      <circle class="cls-6" cx="928.44" cy="1170.94" r="22"/>
    </g>
    <rect class="cls-8" x="1013.01" y="711.02" width="28.69" height="328.97"/>
    <path class="cls-14" d="m1113.3,801.12h-185.45l9.8-138.36h231.12v82.89c0,30.64-24.84,55.47-55.47,55.47Z"/>
    <path class="cls-7" d="m1168.77,698.24h-223.22l-17.7-246.05c0-33.43,27.1-60.52,60.52-60.52h119.88c33.43,0,60.52,27.1,60.52,60.52v246.05Z"/>
    <polygon class="cls-4" points="1168.77 638.09 1018.72 660.69 1021.74 670.85 1168.77 670.85 1168.77 638.09"/>
    <path class="cls-3" d="m512.05,558.47l1.84-1.93c-34.12-8.98-47.28-11.87-1.84,1.93Z"/>
    <path class="cls-7" d="m1154.08,413.68l103.52,158.95c17.57,31.54,8.84,65.85-40.48,71.79-46.73,5.63-189.94,16.27-189.94,16.27l-18.48-44.37,187.99-18.97c4.99-.5,7.66-6.12,4.9-10.3l-56.67-86.18s-18.23-64.2,9.16-87.18Z"/>
    <circle class="cls-13" cx="1032.68" cy="408.14" r="35.67" transform="translate(260.42 1206.02) rotate(-67.5)"/>
    <path class="cls-2" d="m1032.68,428.86h0c-11.2,0-20.27-9.08-20.27-20.27v-38.38h40.55v38.38c0,11.2-9.08,20.27-20.27,20.27Z"/>
    <path class="cls-15" d="m1474.65,711.02H200.79c-11.09,0-20.08-8.99-20.08-20.08h0c0-11.09,8.99-20.08,20.08-20.08h1273.86c11.09,0,20.08,8.99,20.08,20.08h0c0,11.09-8.99,20.08-20.08,20.08Z"/>
    <g>
      <path class="cls-12" d="m822.09,574.54H271.08c-15.64,0-29.24-12.66-30.37-28.27l-22.7-313.55c-1.13-15.61,10.63-28.27,26.28-28.27h551.01c15.64,0,29.24,12.66,30.37,28.27l22.7,313.55c1.13,15.61-10.63,28.27-26.28,28.27Z"/>
      <path class="cls-14" d="m811.97,583.3H260.96c-15.64,0-29.24-12.66-30.37-28.27l-22.7-313.55c-1.13-15.61,10.63-28.27,26.28-28.27h551.01c15.64,0,29.24,12.66,30.37,28.27l22.7,313.55c1.13,15.61-10.63,28.27-26.28,28.27Z"/>
      <path class="cls-13" d="m559.32,379.27c-1.48-20.4-19.25-36.95-39.69-36.95s-35.82,16.54-34.34,36.95c1.48,20.4,19.25,36.95,39.69,36.95s35.82-16.54,34.34-36.95Z"/>
      <path class="cls-14" d="m499.78,670.85h-51.5c-11.27,0-19.39-10.81-16.25-21.63l55.52-191.37h74.03l-61.8,213Z"/>
      <path class="cls-14" d="m618.09,650.11h-118.31v20.73h139.05c0-11.45-9.28-20.73-20.74-20.73Z"/>
      <polygon class="cls-12" points="561.58 457.85 525.18 583.3 561.58 583.3 561.58 457.85"/>
    </g>
    <polygon class="cls-5" points="1089.97 608.12 1097.31 655.25 1027.17 660.69 1014.16 615.77 1089.97 608.12"/>
    <path class="cls-14" d="m975.18,737.26l-33.31,423.4s1.32,7.54,13.91,9.72c18.49,3.19,25.54-8.04,25.54-8.04l89.5-425.07h-95.64Z"/>
    <path class="cls-14" d="m936.47,711.01l-88.33,14.66c-19.62,3.42-35.07,18.64-38.78,38.21l-52.63,383.41s1.84.75,8.59,3.25c16.58,6.13,30.72,5.15,30.72,5.15l95.98-354.57h35.84l8.62-90.11Z"/>
    <g>
      <path class="cls-14" d="m1031.01,238.13c1.94-20.52-13.13-38.73-33.65-40.67-20.52-1.94-38.73,13.13-40.67,33.65-1.94,20.52,13.13,38.73,33.65,40.67,20.52,1.94,38.73-13.13,40.67-33.65Z"/>
      <path class="cls-2" d="m999.89,292.28c1.28-13.56-8.68-25.59-22.24-26.87-13.56-1.28-25.59,8.68-26.87,22.24-1.28,13.56,8.68,25.59,22.24,26.87,13.56,1.28,25.59-8.68,26.87-22.24Z"/>
      <path class="cls-5" d="m1054.11,393.06c-14.52,3.35-34.24,1-45.28-.33-29.71-3.58-51.66-29.24-48.84-59.03l11.35-120.26,163.76,15.46-17.25,99.29c-2.81,29.79-24.76,55.87-63.75,64.86Z"/>
      <path class="cls-14" d="m1131.21,251.45l-150.66-14.22c-21.99-2.08-38.14-21.59-36.06-43.58h0c1.92-20.34,19.97-35.28,40.31-33.36l106.27,10.03c26.16,2.47,45.37,25.68,42.9,51.84l-2.76,29.28Z"/>
      <path class="cls-14" d="m1107.9,315.43l-3.82-14.86c-12.26,10.47-26.21,20.81-24.87,6.64l6.12-44.89c1.34-14.17,13.76-22.44,27.93-21.1l5.34-39.16c14.17,1.34,24.58,13.91,23.24,28.09l-5.86,62.04c-1.34,14.17-13.91,24.58-28.09,23.24Z"/>
      <path class="cls-14" d="m988.09,295.6c-.28,3.01-2.96,5.22-5.97,4.94-3.01-.28-5.22-2.96-4.94-5.97.28-3.01,2.96-5.22,5.97-4.94,3.01.28,5.22,2.96,4.94,5.97Z"/>
      <path class="cls-14" d="m1058.38,302.24c-.28,3.01-2.96,5.22-5.97,4.94s-5.22-2.96-4.94-5.97c.28-3.01,2.96-5.22,5.97-4.94,3.01.28,5.22,2.96,4.94,5.97Z"/>
      <path class="cls-2" d="m1010.66,296.72s-21.82,31.93-16.87,42.62c4.95,10.69,24.5,7.43,24.5,7.43"/>
      <path class="cls-2" d="m1117.86,328.19s-9.01-1.23-16.06-8.11c0,0,1.71,12.82,14.19,18.75,0,0,1.54-5.68,1.87-10.64Z"/>
      <path class="cls-5" d="m1144.73,305.96c1.28-13.56-8.68-25.59-22.24-26.87-13.56-1.28-25.59,8.68-26.87,22.24-1.28,13.56,8.68,25.59,22.24,26.87,13.56,1.28,25.59-8.68,26.87-22.24Z"/>
      <path class="cls-2" d="m1110.54,302.4s4.23-13.26,15.47-9.85c12.81,3.89,7.17,18.05,0,18.91,0,0,5.33-4.26-3.43-10.48-4.22-3-12.04,1.42-12.04,1.42Z"/>
    </g>
    <g>
      <polygon class="cls-10" points="459.85 1193.01 315.73 1193.01 304.26 950.52 471.33 950.52 459.85 1193.01"/>
      <rect class="cls-8" x="295.5" y="928.54" width="184.6" height="21.99"/>
      <polygon class="cls-15" points="413.09 1193.01 306.97 1193.01 295.5 950.52 413.09 950.52 413.09 1193.01"/>
      <rect class="cls-1" x="286.73" y="928.54" width="135.11" height="21.99"/>
      <path class="cls-13" d="m433.54,1143.91h-51.92c-4.47,0-8.09-3.62-8.09-8.09h0c0-4.47,3.62-8.09,8.09-8.09h51.92c4.47,0,8.09,3.62,8.09,8.09h0c0,4.47-3.62,8.09-8.09,8.09Z"/>
      <path class="cls-10" d="m380.46,1143.91h59.35v15.47h-58.02c-.73,0-1.33-.59-1.33-1.33v-14.15h0Z"/>
    </g>
    <g>
      <g>
        <polygon class="cls-17" points="1595.04 474.17 1558.49 644.48 1582.88 649.72 1620.2 479.57 1595.04 474.17"/>
        <polygon class="cls-9" points="1625.54 480.72 1620.2 479.57 1582.88 649.72 1588.99 651.03 1625.54 480.72"/>
        <g>
          <path class="cls-15" d="m1550.88,508.58c-1-5.01-5.88-8.27-10.89-7.27-5.01,1-8.27,5.88-7.27,10.89l7.61,38.13,18.16-3.63-7.61-38.13Z"/>
          <rect class="cls-10" x="1548.71" y="547.68" width="18.52" height="87.39" transform="translate(-85.64 316.52) rotate(-11.29)"/>
        </g>
        <polygon class="cls-7" points="1542.96 574.57 1550.86 670.85 1588.23 670.85 1583.37 574.57 1542.96 574.57"/>
        <polygon class="cls-4" points="1612.09 574.57 1583.37 574.57 1580.96 670.85 1604.19 670.85 1612.09 574.57"/>
        <rect class="cls-7" x="1537.21" y="562.6" width="51.02" height="11.97"/>
        <rect class="cls-4" x="1584.76" y="562.6" width="33.18" height="11.97"/>
      </g>
      <path class="cls-10" d="m1316.71,580.95h167.73c2.89,0,5.23,2.34,5.23,5.23v34.49c0,2.89-2.34,5.23-5.23,5.23h-167.73v-44.95h0Z"/>
      <path class="cls-9" d="m1291.42,625.9h167.73c2.89,0,5.23,2.34,5.23,5.23v34.49c0,2.89-2.34,5.23-5.23,5.23h-167.73v-44.95h0Z"/>
      <path class="cls-17" d="m1277.53,625.9h129.48c2.89,0,5.23,2.34,5.23,5.23v34.49c0,2.89-2.34,5.23-5.23,5.23h-129.48v-44.95h0Z"/>
      <path class="cls-13" d="m1277.53,637.68h111.17c1.37,0,2.49,1.12,2.49,2.49v16.41c0,1.37-1.12,2.49-2.49,2.49h-111.17v-21.4h0Z"/>
      <path class="cls-15" d="m1302.81,580.95h129.48c2.89,0,5.23,2.34,5.23,5.23v34.49c0,2.89-2.34,5.23-5.23,5.23h-129.48v-44.95h0Z"/>
      <path class="cls-13" d="m1302.81,592.72h111.17c1.37,0,2.49,1.12,2.49,2.49v16.42c0,1.37-1.12,2.49-2.49,2.49h-111.17v-21.4h0Z"/>
    </g>
    <path class="cls-13" d="m976.07,625.65c-25.07,0-45.4,20.2-45.67,45.2h91.34c-.27-25.01-20.6-45.2-45.67-45.2Z"/>
    <path class="cls-5" d="m1034.99,613.37l-27.35,3.21c-.68.08-1.37.05-2.04-.08l-41.78-8.38.95,39.17c.27,11.17,15.63,15.7,34.64,15.7l27.77-2.3,7.81-47.32Z"/>
    <path class="cls-5" d="m963.82,608.12s-36.47,7.61-29.77,40.13c.82,4,14.94-2.45,16.77,0,1.98,2.65-2.87,6.22,2.39,10.93,5.71,5.11,23.12-3.82,23.12-3.82,0,0,14.97-40.68-12.51-47.24Z"/>
    <path class="cls-4" d="m1168.77,537.14l-23.86-36.28s-10.94-15.71-5.93-44.33c0,0-11.38,28.75,1.55,58.34,12.93,29.59,28.23,67.84,28.23,67.84v-45.57Z"/>
    <polygon class="cls-4" points="934.1 539 930.4 487.15 909.59 574.67 934.1 539"/>
    <polygon class="cls-13" points="1089.39 603.42 1098.42 662.76 1113.3 660.69 1108.52 598.97 1089.39 603.42"/>
    <g>
      <g>
        <path class="cls-11" d="m1229.2,119.23h109.33c15.49,0,28.06,12.56,28.06,28.06v64.11c0,15.5-12.56,28.06-28.06,28.06h-99.73l-39.07,35.66h-8.49l9.91-127.83c0-15.5,12.56-28.06,28.06-28.06Z"/>
        <path class="cls-17" d="m1219.28,119.23h109.33c15.49,0,28.06,12.56,28.06,28.06v64.11c0,15.5-12.56,28.06-28.06,28.06h-99.73l-37.65,35.66v-127.83c0-15.5,12.56-28.06,28.06-28.06Z"/>
      </g>
      <g>
        <path class="cls-13" d="m1305.31,159.26h-59.3c-2.11,0-3.83-1.71-3.83-3.83s1.71-3.83,3.83-3.83h59.3c2.11,0,3.83,1.71,3.83,3.83s-1.71,3.83-3.83,3.83Z"/>
        <path class="cls-13" d="m1305.31,183.64h-59.3c-2.11,0-3.83-1.71-3.83-3.83s1.71-3.83,3.83-3.83h59.3c2.11,0,3.83,1.71,3.83,3.83s-1.71,3.83-3.83,3.83Z"/>
        <path class="cls-13" d="m1281.4,208.03h-35.39c-2.11,0-3.83-1.71-3.83-3.83s1.71-3.83,3.83-3.83h35.39c2.11,0,3.83,1.71,3.83,3.83s-1.71,3.83-3.83,3.83Z"/>
      </g>
    </g>
    <g>
      <path class="cls-17" d="m961.23,1134.55c-12.91,0-16.93-6.83-16.93-6.83l-9.31,9.73c-6.51,6.81-53.21,31.33-54.87,43.97-.34,2.6-.51,4.97-.59,6.91-.11,2.88,2.17,5.26,5.05,5.26h93.33c5.9,0,10.69-4.79,10.69-10.69v-55.18s-9.69,6.83-27.38,6.83Z"/>
      <path class="cls-17" d="m776.09,1134.55c-12.91,0-16.93-6.83-16.93-6.83l-10.39,9.73c-6.69,7-52.12,31.33-53.78,43.97-.34,2.6-.51,4.97-.59,6.91-.11,2.88,2.17,5.26,5.05,5.26h93.33c5.9,0,10.69-4.79,10.69-10.69v-55.18s-9.69,6.83-27.38,6.83Z"/>
    </g>
    <polygon class="cls-4" points="1168.77 600.16 1108.29 608.12 1168.77 592.72 1168.77 600.16"/>
    <path class="cls-14" d="m963.82,231.71s19.39,30.03,128.48,16.07c0,0-78.18-34.43-128.48-16.07Z"/>
  </g>
  <path class="cls-17" d="m1027.36,60.98c-7.67,0-13.91-6.24-13.91-13.91s6.24-13.91,13.91-13.91,13.91,6.24,13.91,13.91-6.24,13.91-13.91,13.91Zm0-20.58c-3.68,0-6.67,2.99-6.67,6.67s2.99,6.67,6.67,6.67,6.67-2.99,6.67-6.67-2.99-6.67-6.67-6.67Z"/>
  <path class="cls-7" d="m1302.81,314.47c-7.67,0-13.91-6.24-13.91-13.91s6.24-13.91,13.91-13.91,13.91,6.24,13.91,13.91-6.24,13.91-13.91,13.91Zm0-20.58c-3.68,0-6.67,2.99-6.67,6.67s2.99,6.67,6.67,6.67,6.67-2.99,6.67-6.67-2.99-6.67-6.67-6.67Z"/>
  <path class="cls-7" d="m955.97,90.42h-3.2c-1.99,0-3.61-1.61-3.61-3.61v-3.2c0-1.99-1.62-3.61-3.61-3.61h0c-1.99,0-3.61,1.62-3.61,3.61v3.2c0,1.99-1.61,3.61-3.61,3.61h-3.2c-1.99,0-3.61,1.61-3.61,3.61h0c0,1.99,1.61,3.61,3.61,3.61h3.2c1.99,0,3.61,1.61,3.61,3.61v3.2c0,1.99,1.62,3.61,3.61,3.61h0c1.99,0,3.61-1.61,3.61-3.61v-3.2c0-1.99,1.61-3.61,3.61-3.61h3.2c1.99,0,3.61-1.62,3.61-3.61h0c0-1.99-1.61-3.61-3.61-3.61Z"/>
  <path class="cls-17" d="m1367.08,366.59h-3.2c-1.99,0-3.61-1.61-3.61-3.61v-3.2c0-1.99-1.61-3.61-3.61-3.61h0c-1.99,0-3.61,1.61-3.61,3.61v3.2c0,1.99-1.62,3.61-3.61,3.61h-3.2c-1.99,0-3.61,1.62-3.61,3.61h0c0,1.99,1.62,3.61,3.61,3.61h3.2c1.99,0,3.61,1.61,3.61,3.61v3.2c0,1.99,1.61,3.61,3.61,3.61h0c1.99,0,3.61-1.61,3.61-3.61v-3.2c0-1.99,1.62-3.61,3.61-3.61h3.2c1.99,0,3.61-1.62,3.61-3.61h0c0-1.99-1.62-3.61-3.61-3.61Z"/>
  <path class="cls-17" d="m904.26,352.57h-3.2c-1.99,0-3.61-1.62-3.61-3.61v-3.2c0-1.99-1.61-3.61-3.61-3.61h0c-1.99,0-3.61,1.62-3.61,3.61v3.2c0,1.99-1.61,3.61-3.61,3.61h-3.2c-1.99,0-3.61,1.61-3.61,3.61h0c0,1.99,1.61,3.61,3.61,3.61h3.2c1.99,0,3.61,1.62,3.61,3.61v3.2c0,1.99,1.62,3.61,3.61,3.61h0c1.99,0,3.61-1.62,3.61-3.61v-3.2c0-1.99,1.62-3.61,3.61-3.61h3.2c1.99,0,3.61-1.61,3.61-3.61h0c0-1.99-1.62-3.61-3.61-3.61Z"/>
</svg>