<?xml version="1.0" encoding="UTF-8"?>
<svg xmlns="http://www.w3.org/2000/svg" viewBox="0 0 500 372.61">
  <defs>
    <style>
      .cls-1 {
        fill: #407bff;
      }

      .cls-1, .cls-2, .cls-3, .cls-4, .cls-5, .cls-6, .cls-7, .cls-8, .cls-9, .cls-10, .cls-11, .cls-12, .cls-13, .cls-14, .cls-15, .cls-16 {
        stroke-width: 0px;
      }

      .cls-2 {
        fill: #e6e6e6;
      }

      .cls-17, .cls-7, .cls-15 {
        opacity: .2;
      }

      .cls-4 {
        fill: #e0e0e0;
      }

      .cls-5 {
        fill: #f5f5f5;
      }

      .cls-6 {
        fill: #f0f0f0;
      }

      .cls-8, .cls-11, .cls-15, .cls-16 {
        fill: #fff;
      }

      .cls-9 {
        fill: #fafafa;
      }

      .cls-10 {
        fill: #263238;
      }

      .cls-11 {
        opacity: .7;
      }

      .cls-12 {
        fill: #ffc3bd;
      }

      .cls-13 {
        fill: #ed847e;
      }

      .cls-14 {
        fill: #ebebeb;
      }

      .cls-16 {
        opacity: .3;
      }
    </style>
  </defs>
  <g id="Background_Complete" data-name="Background Complete">
    <g>
      <rect class="cls-14" y="327.45" width="500" height=".25"/>
      <rect class="cls-14" x="416.78" y="343.54" width="33.12" height=".25"/>
      <rect class="cls-14" x="322.53" y="346.26" width="8.69" height=".25"/>
      <rect class="cls-14" x="396.59" y="334.26" width="19.19" height=".25"/>
      <rect class="cls-14" x="52.46" y="335.94" width="43.19" height=".25"/>
      <rect class="cls-14" x="104.56" y="335.94" width="6.33" height=".25"/>
      <rect class="cls-14" x="131.47" y="340.16" width="93.68" height=".25"/>
      <path class="cls-14" d="m237.01,282.85H43.91c-3.15,0-5.71-2.56-5.71-5.71V5.71c0-3.15,2.56-5.71,5.71-5.71h193.1c3.15,0,5.71,2.56,5.71,5.71v271.43c0,3.15-2.56,5.71-5.71,5.71ZM43.91.25c-3.01,0-5.46,2.45-5.46,5.46v271.43c0,3.01,2.45,5.46,5.46,5.46h193.1c3.01,0,5.46-2.45,5.46-5.46V5.71c0-3.01-2.45-5.46-5.46-5.46H43.91Z"/>
      <path class="cls-14" d="m453.31,282.85h-193.1c-3.15,0-5.71-2.56-5.71-5.71V5.71c0-3.15,2.56-5.71,5.71-5.71h193.1c3.15,0,5.71,2.56,5.71,5.71v271.43c0,3.15-2.56,5.71-5.71,5.71ZM260.21.25c-3.01,0-5.46,2.45-5.46,5.46v271.43c0,3.01,2.45,5.46,5.46,5.46h193.1c3.01,0,5.46-2.45,5.46-5.46V5.71c0-3.01-2.45-5.46-5.46-5.46h-193.1Z"/>
    </g>
    <g>
      <g>
        <rect class="cls-5" x="60.86" y="20.7" width="73.32" height="121.23" transform="translate(195.04 162.63) rotate(180)"/>
        <rect class="cls-4" x="59.4" y="20.7" width="1.45" height="121.23"/>
        <rect class="cls-9" x="68.29" y="26.04" width="58.45" height="110.56" transform="translate(195.04 162.63) rotate(180)"/>
      </g>
      <g>
        <rect class="cls-5" x="151.49" y="63.26" width="73.32" height="121.23" transform="translate(376.29 247.76) rotate(180)"/>
        <rect class="cls-4" x="150.03" y="63.26" width="1.45" height="121.23"/>
        <rect class="cls-9" x="158.92" y="68.6" width="58.45" height="110.56" transform="translate(376.29 247.76) rotate(180)"/>
      </g>
      <g>
        <g>
          <path class="cls-2" d="m104.2,296.11c1.82-32.97-2.99-86.03-8.2-104.38-.69-2.43-1.48-5.26-2.66-5.63h0c-3.41-1.08-4.94,4.26-4.51,6.09,2.04,8.87,3.87,30.85,5.7,69.1.91,19.04-.02,32.08,2.44,34.83h7.24Z"/>
          <path class="cls-2" d="m98.78,222.57c4.77-15.45,65.97-31.32,48.35-14.7-4.39,4.14-24.83,15.05-33.22,26.52-6.52,8.91-13.11,23.89-14.85,32.21-.76-17.48-3.46-33.73-.28-44.03Z"/>
          <path class="cls-2" d="m105.75,242.16c10.66-23.51,44.76-27.73,35.59-15.32-3.6,4.87-16.8,10.42-25.2,21.9-6.52,8.91-13.11,23.89-14.85,32.21-.76-17.48,0-28.96,4.45-38.78Z"/>
          <path class="cls-2" d="m92.35,240.16c-12.62-30.25-58.21-32.65-46.08-18.6,4.61,5.34,20.72,15.14,32.89,27.76,9.46,9.8,20.12,26.04,23.75,34.95-2.34-18.5-5.47-31.91-10.56-44.11Z"/>
          <path class="cls-2" d="m97.65,206.32c11.3-20.72,45.5-22.93,35.74-11.6-3.83,4.45-16.3,10.11-24.44,21.24-6.33,8.64-13.93,19.92-15.62,27.98-.74-16.96-.69-28.43,4.32-37.61Z"/>
          <path class="cls-2" d="m87.81,206.72c-8.92-12.87-48.87-27.04-38.46-15.37,10.91,12.23,18.66,10.12,28.97,20.81,8.01,8.3,17.04,22.05,20.11,29.6-1.98-15.67-4.25-25.83-10.62-35.03Z"/>
          <path class="cls-2" d="m98.4,191.9c5.65-10.18,29.03-17.67,22.9-9.86-4.25,5.42-9.35,9.14-14.75,16.52-4.2,5.73-9.9,12.95-11.02,18.3-.49-11.25-.5-18.89,2.87-24.96Z"/>
          <path class="cls-2" d="m89.19,194.98c-5.7-6.31-36.18-21.32-29.22-11.68,2.73,3.78,14.36,13.01,22.2,21.13,6.09,6.31,12.77,11.44,15.1,17.17-1.51-11.91-2.37-20.31-8.07-26.62Z"/>
          <path class="cls-2" d="m97,217.16c-8.33-9.22-69.06-21.1-53.45-10.93,5.35,3.48,28.82,9.47,40.27,21.33,8.89,9.22,12.09,24.49,15.5,32.87,8.98-14.71,6.02-34.04-2.31-43.27Z"/>
        </g>
        <g>
          <path class="cls-5" d="m86.6,294.78l.78,27.59c.09,5.23,1.3,5.08,2.78,5.08h19.63c1.48,0,2.7.16,2.78-5.08l.78-27.59c.09-5.68-1.18-10.46-2.78-10.46h-21.19c-1.6,0-2.87,4.79-2.78,10.46Z"/>
          <path class="cls-5" d="m85.43,289.33h29.09c.43,0,.79-.27.83-.63l.69-5.28c.05-.42-.33-.78-.83-.78h-30.48c-.5,0-.89.37-.83.78l.69,5.28c.05.36.41.63.83.63Z"/>
        </g>
      </g>
      <g>
        <rect class="cls-6" x="268.85" y="172.6" width="22.02" height="148.16"/>
        <rect class="cls-6" x="273.08" y="320.77" width="166.92" height="6.68"/>
        <rect class="cls-5" x="290.87" y="172.6" width="153.36" height="148.16" transform="translate(735.1 493.37) rotate(180)"/>
        <rect class="cls-6" x="266.08" y="166.78" width="22.51" height="5.83"/>
        <rect class="cls-9" x="288.59" y="166.78" width="158.41" height="5.83" transform="translate(735.59 339.38) rotate(180)"/>
        <path class="cls-4" d="m436.2,242.56h-137.3v-57.61h137.3v57.61Zm-136.04-1.26h134.79v-55.09h-134.79v55.09Z"/>
        <path class="cls-4" d="m436.2,308.42h-137.3v-56.8h137.3v56.8Zm-136.04-1.26h134.79v-54.29h-134.79v54.29Z"/>
        <path class="cls-4" d="m394.28,196.28h-53.47c-1.3,0-2.37-1.07-2.37-2.37h0c0-1.3,1.07-2.37,2.37-2.37h53.47c1.3,0,2.37,1.07,2.37,2.37h0c0,1.3-1.07,2.37-2.37,2.37Z"/>
        <rect class="cls-4" x="338.45" y="258.21" width="58.21" height="4.74" rx="2.37" ry="2.37"/>
      </g>
      <g>
        <g>
          <polygon class="cls-2" points="360.41 166.72 424.01 166.72 429.17 110.01 365.57 110.01 360.41 166.72"/>
          <polygon class="cls-6" points="358.25 166.72 421.85 166.72 427.01 110.01 363.41 110.01 358.25 166.72"/>
          <polygon class="cls-8" points="416.14 160.44 420.16 116.29 369.12 116.29 365.1 160.44 416.14 160.44"/>
        </g>
        <g>
          <polygon class="cls-2" points="345.68 125.31 341.91 166.72 372.39 166.72 376.16 125.31 345.68 125.31"/>
          <polygon class="cls-6" points="344.1 125.31 340.33 166.72 370.82 166.72 374.58 125.31 344.1 125.31"/>
          <polygon class="cls-8" points="348.27 129.89 345.33 162.13 366.65 162.13 369.58 129.89 348.27 129.89"/>
        </g>
      </g>
    </g>
  </g>
  <g id="Shadow">
    <ellipse id="_Path_" data-name="&amp;lt;Path&amp;gt;" class="cls-5" cx="250" cy="361.29" rx="193.89" ry="11.32"/>
  </g>
  <g id="Bubble">
    <g>
      <g>
        <path class="cls-1" d="m296.32,58.77c-3.87-9.79-15.11-14.47-24.84-10.18-8.51,3.76-13.14,14.69-9.93,23.42,1.69,4.6,5,8.12,9.03,10.17,1.72.87,3.23,2.11,4.26,3.75l2.64,4.22c1.78,2.86,5.35,4.03,8.48,2.8l6.66-2.63c3.13-1.24,4.93-4.53,4.28-7.84l-1-5.07c-.35-1.79-.11-3.62.53-5.33,1.55-4.15,1.63-8.87-.13-13.32Z"/>
        <g>
          <path class="cls-10" d="m286.82,101.37c-.42,0-.84-.09-1.24-.26-.76-.33-1.35-.94-1.66-1.71-.63-1.59.16-3.4,1.75-4.03l8.83-3.49c.77-.3,1.62-.29,2.38.04.76.33,1.35.94,1.66,1.71.3.77.29,1.61-.04,2.38-.33.76-.94,1.35-1.71,1.66l-8.83,3.49c-.37.15-.75.22-1.14.22Zm8.82-8.7c-.26,0-.52.05-.77.15l-8.83,3.49c-1.08.43-1.62,1.66-1.19,2.74.21.52.61.93,1.12,1.16.52.23,1.09.24,1.61.03l8.83-3.49c.52-.21.93-.61,1.16-1.12.23-.52.24-1.09.03-1.61-.21-.52-.61-.93-1.12-1.16-.27-.12-.56-.18-.84-.18Z"/>
          <path class="cls-10" d="m291.32,106.74c-.26,0-.52-.05-.77-.16-.48-.21-.84-.59-1.03-1.06l-.15-.39c-.39-.99.1-2.12,1.09-2.51l5.52-2.18c.99-.39,2.12.1,2.51,1.09l.15.39c.19.48.18,1-.03,1.48-.21.48-.58.84-1.06,1.03l-5.52,2.18c-.23.09-.47.14-.71.14Zm5.36-5.44c-.11,0-.23.02-.34.07l-5.52,2.18c-.48.19-.72.74-.53,1.22l.15.39c.09.23.27.42.5.51.23.1.49.1.72.01l5.52-2.18c.23-.09.41-.27.51-.5.1-.23.1-.48.01-.72l-.15-.39c-.15-.37-.5-.59-.87-.59Z"/>
        </g>
        <g>
          <path class="cls-8" d="m274.91,76.5c-1.5,0-2.91-.9-3.49-2.37-.76-1.92.19-4.11,2.11-4.87,1.93-.76,4.11.19,4.87,2.11l1.38,3.49-3.49,1.38c-.45.18-.92.26-1.37.26Zm0-6.5c-.34,0-.68.06-1.01.19-1.41.56-2.11,2.16-1.55,3.57.56,1.41,2.16,2.11,3.57,1.55l2.56-1.01-1.01-2.56c-.43-1.08-1.46-1.74-2.56-1.74Z"/>
          <polygon class="cls-8" points="285.97 93.29 278.48 74.3 285.37 71.58 292.86 90.57 291.93 90.93 284.8 72.88 279.77 74.86 286.9 92.92 285.97 93.29"/>
          <path class="cls-8" d="m284.8,72.88l-1.38-3.49c-.76-1.92.19-4.11,2.11-4.87,1.92-.76,4.11.19,4.87,2.11.76,1.92-.19,4.11-2.11,4.87l-3.49,1.38Zm2.11-7.62c-.34,0-.68.06-1.01.19-1.41.56-2.11,2.16-1.55,3.57l1.01,2.56,2.56-1.01c1.41-.56,2.11-2.16,1.55-3.57-.43-1.08-1.47-1.74-2.56-1.74Z"/>
        </g>
      </g>
      <path class="cls-1" d="m300.33,120.54c-3.78,0-7.55-.31-11.21-.91l.16-.99c3.6.6,7.32.9,11.05.9v1Z"/>
      <path class="cls-1" d="m321.02,130.89l.53-1.08c2.19-4.46,1.96-9.7,1.05-13.06-3.79,1.37-7.82,2.39-11.98,3.02l-.15-.99c4.28-.65,8.41-1.71,12.28-3.15l.5-.18.16.51c1,3.25,1.41,8.51-.47,13.21,12.29-4.89,25.12-22.25,25.12-42.93,0-18.37-21.41-33.31-47.72-33.31s-47.72,14.94-47.72,33.31c0,13.35,11.37,25.37,28.96,30.63l-.29.96c-18.03-5.39-29.68-17.79-29.68-31.59,0-18.92,21.86-34.31,48.72-34.31s48.72,15.39,48.72,34.31c0,21.74-13.96,39.91-26.9,44.28l-1.14.38Z"/>
      <g>
        <rect class="cls-1" x="313.33" y="63.15" width="42.64" height="28.96" rx="4.4" ry="4.4" transform="translate(-8.44 60.05) rotate(-10.13)"/>
        <polygon class="cls-8" points="340.76 76.54 328.96 72.27 331.17 84.62 340.76 76.54"/>
      </g>
    </g>
  </g>
  <g id="Character">
    <g>
      <g>
        <rect class="cls-1" x="127.11" y="241.71" width="91.34" height="10.91" rx="3.19" ry="3.19"/>
        <g>
          <polygon class="cls-1" points="214.3 355.29 216.83 355.29 213.92 252.63 210.41 252.63 214.3 355.29"/>
          <polygon class="cls-16" points="214.3 355.29 216.83 355.29 213.92 252.63 210.41 252.63 214.3 355.29"/>
        </g>
        <g>
          <polygon class="cls-1" points="190.97 355.29 188.44 355.29 191.36 252.63 194.86 252.63 190.97 355.29"/>
          <polygon class="cls-16" points="190.97 355.29 188.44 355.29 191.36 252.63 194.86 252.63 190.97 355.29"/>
        </g>
        <g>
          <polygon class="cls-1" points="154.59 355.29 157.12 355.29 154.21 252.63 150.7 252.63 154.59 355.29"/>
          <polygon class="cls-16" points="154.59 355.29 157.12 355.29 154.21 252.63 150.7 252.63 154.59 355.29"/>
        </g>
        <g>
          <polygon class="cls-1" points="131.27 355.29 128.73 355.29 131.65 252.63 135.15 252.63 131.27 355.29"/>
          <polygon class="cls-16" points="131.27 355.29 128.73 355.29 131.65 252.63 135.15 252.63 131.27 355.29"/>
        </g>
      </g>
      <g>
        <g>
          <polygon class="cls-12" points="241.31 329.2 250.33 326.14 242.92 305.08 233.9 308.14 241.31 329.2"/>
          <path class="cls-10" d="m249.66,322.67l-9.89,4.34c-.36.16-.5.51-.33.86l3.75,7.62c.39.79,1.57,1.18,2.39.81,3.41-1.57,4.95-2.48,9.29-4.39,2.68-1.17,8.07-3.27,11.41-5.41,3.26-2.1.72-5.26-.92-4.63-3.89,1.48-10.35,1.42-13.89.66-.64-.14-1.28-.08-1.81.15Z"/>
          <polygon class="cls-7" points="233.9 308.15 242.92 305.09 247.15 317.13 237.98 319.76 233.9 308.15"/>
          <path class="cls-10" d="m177.42,213.24s45.02,8.12,48.63,22.9c7.13,29.22,23.21,74.92,23.21,74.92l-17.12,4.96s-24.47-52.4-27.56-70.04c-25.24-.03-56.02,2.04-60-8.69-3.51-9.48-2.26-24.05-2.26-24.05h35.1Z"/>
          <polygon class="cls-1" points="231.2 319.05 251.2 312.45 249.49 303.42 227.68 311.1 231.2 319.05"/>
        </g>
        <g>
          <polygon class="cls-12" points="202.11 332.4 212.07 333.16 206.22 308.58 196.93 310.68 202.11 332.4"/>
          <path class="cls-10" d="m211.82,330.76l-10.73-1.19c-.39-.04-.69.2-.71.58l-.56,8.48c-.06.88.76,1.81,1.66,1.89,3.74.35,5.52.32,10.24.85,2.9.32,8.62,1.2,12.59,1.01,3.88-.19,3.25-4.19,1.52-4.47-4.11-.66-9.67-3.95-12.36-6.37-.48-.44-1.07-.71-1.64-.77Z"/>
          <polygon class="cls-7" points="196.93 310.69 206.22 308.59 209.17 321.01 199.78 322.66 196.93 310.69"/>
          <path class="cls-10" d="m154.04,213.24s54.71,8.19,52.2,28.9c-3.61,29.86,5.66,73.05,5.66,73.05l-17.55,3.14s-12.91-53.68-13.02-71.59c-17.8,0-48.91,1.27-52.88-9.45-3.51-9.48-2.26-24.05-2.26-24.05h27.85Z"/>
          <polygon class="cls-1" points="193.1 321.25 213.69 316.77 212.93 307.61 190.43 312.97 193.1 321.25"/>
        </g>
        <g>
          <path class="cls-12" d="m182.86,155.69c1.46,5.72,2.89,11.49,4.29,17.24,1.4,5.75,2.77,11.51,4.22,17.19l1.09,4.24.56,2.08.29,1.03.04.13.02.06s-.03-.09-.05-.13c-.09-.23-.21-.46-.29-.59-.04-.08-.1-.16-.15-.22-.04-.05-.07-.1-.11-.15-.1-.11-.14-.16-.2-.22-.22-.2-.24-.17-.19-.12.04.06.2.17.36.29.35.24.84.52,1.38.78,1.08.53,2.34,1.02,3.63,1.52,5.21,1.93,10.95,3.57,16.53,5.34l-.88,6.38c-3.11.04-6.14-.1-9.21-.36-3.07-.27-6.13-.66-9.27-1.3-1.58-.31-3.16-.71-4.86-1.26-.85-.28-1.72-.61-2.69-1.06-.49-.24-.98-.49-1.55-.86-.56-.37-1.17-.81-1.89-1.56-.18-.2-.35-.38-.55-.65l-.28-.38c-.1-.14-.2-.31-.29-.47-.18-.3-.37-.69-.52-1.1l-.17-.47-.38-1.1-.75-2.18c-.49-1.45-.97-2.89-1.41-4.34-1.81-5.77-3.46-11.53-5.02-17.32-1.55-5.79-3-11.57-4.34-17.43l12.64-3.03Z"/>
          <g>
            <path class="cls-1" d="m168.8,148.77c5.49-6.12,14.2-1.84,17.86,11.85,1.78,6.66,1.22,10.15,1.22,10.15l-18.94,5.83c-4.07-9-7.61-19.5-.14-27.83Z"/>
            <g class="cls-17">
              <path class="cls-3" d="m168.8,148.77c5.49-6.12,14.2-1.84,17.86,11.85,1.78,6.66,1.22,10.15,1.22,10.15l-18.94,5.83c-4.07-9-7.61-19.5-.14-27.83Z"/>
            </g>
          </g>
          <path class="cls-12" d="m224.15,201.55l-1.7-.52c-1.03-.32-2.11-.41-3.18-.29l-3.65.43c-2.45.62-4.51,2.2-5.57,4.27l-1.24,2.41c.62,4.47,9.66,3.03,9.66,3.03h8.5l-.28-6.06c-.07-1.52-1.09-2.83-2.54-3.28Z"/>
          <path class="cls-10" d="m230.02,191.79c-.17,1.83-1.14,3.13-2.07,4.45-.91,1.33-1.85,2.65-2.8,3.96-1.91,2.6-3.86,5.18-6.01,7.63-.21.24-.58.27-.82.05-.2-.18-.25-.47-.13-.7,1.48-2.9,3.15-5.67,4.86-8.41.86-1.37,1.74-2.72,2.64-4.06.88-1.35,1.73-2.73,3.37-3.57.32-.17.72-.04.89.29.06.12.08.24.07.36Z"/>
        </g>
        <path class="cls-1" d="m170.07,142.84l-10.67-3.04-13.73-.65c-4.28-.2-8.15,2.49-9.49,6.56-2.62,7.98-5.02,19.53-6.78,29.5-1.97,11.18-2.99,22.76-3.21,38.04h51.23c1.04-28.46,4.39-42.35,6.38-52.42,1.21-6.15-1.89-12.34-7.55-15.03l-6.18-2.95Z"/>
        <path class="cls-8" d="m155.76,144.84c1.3,3.34,6.34,10.47,12.19,13.26,3.25-2.35,3.94-7.47,4.44-9.88l-16.63-3.39Z"/>
        <path class="cls-12" d="m172.38,148.23c.28-1.37.3-2.77-.44-3.94-.83-1.3-.62-2.79.21-4.32.54-1,2.03-3.13,2.45-3.33l-6.71-7.85-5.47-6.33c-.47,5.93-.93,13.27-5.6,17.88-1.65,1.62-1.99,2.12-1.06,4.51,1.3,3.34,5.95,8,11.8,10.79,3.25-2.35,4.33-5,4.82-7.4Z"/>
        <path class="cls-7" d="m172.54,135.29l-3.78-6.15c-.08.15-.17.33-.26.51-.3.66-.59,1.48-.81,2.36-.7,2.73,1.62,6.63,4.17,8.5.1-.18.19-.35.3-.53.48-.9,1.83-2.85,2.29-3.23.05-.05.1-.08.15-.11l-2.06-1.34Z"/>
        <path class="cls-10" d="m185.78,120.59c.88,5.67,8.99-8.92,4.46-12.12-5.54-3.92-6.12,1.33-4.46,12.12Z"/>
        <path class="cls-12" d="m162.67,113.19c-.52,9.21-1.31,14.56,2.92,19.88,6.36,8,18.57,5.36,21.94-3.46,3.03-7.94,3.37-21.66-5.48-26.52-8.72-4.79-18.85.89-19.37,10.09Z"/>
        <path class="cls-10" d="m180.82,107.66s5.89,5.78,10.09,3.39c4.19-2.39,5.06-8.58,0-14-2.43-2.61-6.11-5.16-13.33-4.96.53.69,2.04,1.25,2.04,1.25,0,0-9.15-1.53-15.54,1.1,0,0,.83,1.28,2.04,1.86-6.21-.47-12.24,1.96-7.96,7.83-5.63.54-6.89,7.75-3.89,12.5s3.53,8.31,7.54,10.47c.04-6.47,1.49-7.99,1.49-7.99,2.89-1.22,6.22-7.39,5.56-10.5,6.06,2.44,12.65,3.26,11.97-.94Z"/>
        <path class="cls-10" d="m159.52,103.88c-1.76-1.45-3.28-2.77-4.39-5.56-.72,3.22,2.62,6.89,2.62,6.89l1.78-1.33Z"/>
        <path class="cls-12" d="m158.07,118.22c.05,2.26,1.07,4.34,2.33,5.67,1.91,2,4.51.3,4.96-2.27.41-2.31-.57-5.85-2.96-6.89-2.35-1.03-4.4.9-4.34,3.49Z"/>
        <path class="cls-10" d="m177.75,117.94c-.15.76.12,1.47.61,1.58.49.12,1.01-.4,1.17-1.16.15-.76-.12-1.47-.61-1.58s-1.01.4-1.17,1.16Z"/>
        <path class="cls-10" d="m186.25,119.96c-.15.76.12,1.47.61,1.58.49.12,1.01-.4,1.17-1.16.15-.76-.12-1.47-.61-1.58s-1.01.4-1.17,1.16Z"/>
        <path class="cls-13" d="m183.42,119.91s.43,4.11,1.52,6.36c-1.4.7-3.16-.36-3.16-.36l1.64-6Z"/>
        <path class="cls-10" d="m180.21,130.16c-2.97-.65-4.23-2.87-4.29-2.97-.06-.11-.02-.25.09-.31.11-.06.25-.02.31.09.01.03,1.44,2.55,4.82,2.88.13.01.22.12.2.25-.01.12-.12.22-.25.2-.31-.03-.61-.08-.89-.14Z"/>
        <path class="cls-10" d="m176.63,114.88c-.07-.03-.13-.07-.18-.13-.16-.19-.13-.48.06-.64,1.91-1.58,3.92-.92,4-.89.23.05.37.34.28.57-.08.24-.34.36-.57.28-.08-.03-1.63-.5-3.13.74-.13.11-.31.13-.46.07Z"/>
        <path class="cls-10" d="m187.3,115.06c-.02-.07-.02-.15,0-.23.07-.24.32-.38.56-.31,2.39.67,2.99,2.69,3.01,2.78.09.22-.07.49-.31.56-.24.07-.49-.07-.56-.31-.03-.08-.51-1.62-2.39-2.15-.16-.05-.28-.18-.32-.33Z"/>
        <g>
          <path class="cls-12" d="m147.81,152.92c-1.93,5.48-3.84,11.2-5.56,16.79-.87,2.81-1.65,5.62-2.37,8.39-.69,2.77-1.28,5.54-1.59,8.07-.03.31-.08.63-.1.92l-.03.44c-.01.14-.02.35-.03.28-.03-.02-.08.05-.02.26.09.41.51,1.24,1.21,2.06,1.4,1.68,3.53,3.44,5.8,5.02,4.57,3.21,9.87,6.07,15.05,8.74l-2.06,6.1c-3.18-.68-6.14-1.54-9.16-2.58-3-1.04-5.96-2.25-8.91-3.73-2.93-1.54-5.87-3.22-8.71-5.91-1.4-1.37-2.85-2.99-3.92-5.4-.53-1.19-.91-2.63-1-4.16-.03-.45-.02-.61-.03-.85v-.7c-.01-.47.02-.9.03-1.35.14-3.53.66-6.74,1.26-9.91.6-3.16,1.35-6.22,2.15-9.26,1.64-6.08,3.54-11.91,5.81-17.82l12.16,4.59Z"/>
          <path class="cls-1" d="m145.02,139.14c9.78-.09,11.63,7.52,6.31,19.58-2.78,6.31-7.44,12.33-7.44,12.33l-16.17-8.59c2.17-9.63,6.11-23.22,17.3-23.32Z"/>
          <path class="cls-12" d="m172,202.92l-3.58-1.96c-.58-.32-1.26-.44-1.92-.35l-4.3.59c-2.89.3-4.99,2.51-6.57,4.43l-1.84,2.24c-.09,4.52,11.33,3.46,11.33,3.46l9.99-.13-.31-3.94c-.15-1.83-1.2-3.46-2.81-4.34Z"/>
        </g>
      </g>
    </g>
  </g>
  <g id="Desk">
    <g>
      <g>
        <rect class="cls-1" x="114.65" y="208.94" width="270.69" height="12.67"/>
        <rect class="cls-16" x="114.65" y="208.94" width="87.8" height="12.67"/>
        <rect class="cls-1" x="117.76" y="221.6" width="4.14" height="139.68"/>
        <rect class="cls-11" x="117.76" y="221.6" width="4.14" height="139.68"/>
        <rect class="cls-1" x="195.21" y="221.6" width="4.14" height="139.68"/>
        <rect class="cls-11" x="195.21" y="221.6" width="4.14" height="139.68"/>
        <rect class="cls-1" x="300.65" y="221.6" width="4.14" height="139.68"/>
        <rect class="cls-11" x="300.65" y="221.6" width="4.14" height="139.68"/>
        <rect class="cls-1" x="378.1" y="221.6" width="4.14" height="139.68"/>
        <rect class="cls-11" x="378.1" y="221.6" width="4.14" height="139.68"/>
      </g>
      <g>
        <path class="cls-10" d="m355.95,152.94h-74c-2.51,0-4.89,2.05-5.31,4.56l-7.72,46.89c-.41,2.51,1.3,4.56,3.81,4.56h74c2.51,0,4.89-2.05,5.31-4.56l7.72-46.89c.41-2.51-1.3-4.56-3.81-4.56Z"/>
        <rect class="cls-10" x="238.51" y="205.88" width="71.33" height="3.06" rx=".83" ry=".83"/>
        <path class="cls-15" d="m355.95,152.94h-72.33c-2.51,0-4.89,2.05-5.31,4.56l-7.72,46.89c-.41,2.51,1.3,4.56,3.81,4.56h72.33c2.51,0,4.89-2.05,5.31-4.56l7.72-46.89c.41-2.51-1.3-4.56-3.81-4.56Z"/>
      </g>
      <g>
        <path class="cls-1" d="m164.46,205.88s23.83,3.55,35.33-1.14c5.38,2.59,24.55,3.87,31.21,1.14-2.06,2.39-6.9,3.06-6.9,3.06h-50.27c-4.83,0-8.53-2.11-9.37-3.06Z"/>
        <path class="cls-11" d="m164.46,205.88s23.83,3.55,35.33-1.14c5.38,2.59,24.55,3.87,31.21,1.14-2.06,2.39-6.9,3.06-6.9,3.06h-50.27c-4.83,0-8.53-2.11-9.37-3.06Z"/>
      </g>
    </g>
  </g>
</svg>