<?xml version="1.0" encoding="UTF-8"?>
<svg xmlns="http://www.w3.org/2000/svg" viewBox="0 0 1079.87 707.94">
  <defs>
    <style>
      .cls-1 {
        fill: #f98630;
      }

      .cls-1, .cls-2, .cls-3, .cls-4, .cls-5, .cls-6, .cls-7, .cls-8, .cls-9, .cls-10, .cls-11, .cls-12, .cls-13, .cls-14, .cls-15, .cls-16, .cls-17, .cls-18, .cls-19, .cls-20, .cls-21, .cls-22, .cls-23, .cls-24, .cls-25, .cls-26, .cls-27, .cls-28, .cls-29, .cls-30, .cls-31 {
        stroke-width: 0px;
      }

      .cls-2 {
        fill: #aecacc;
      }

      .cls-2, .cls-22, .cls-24 {
        mix-blend-mode: multiply;
      }

      .cls-3 {
        fill: #2e130c;
      }

      .cls-32 {
        isolation: isolate;
      }

      .cls-4 {
        fill: #873c29;
      }

      .cls-5 {
        fill: #5e9c2a;
      }

      .cls-6 {
        fill: #ffd0ba;
      }

      .cls-7 {
        fill: #005387;
      }

      .cls-8 {
        fill: #1f3661;
      }

      .cls-9 {
        fill: #99d6ff;
      }

      .cls-10 {
        fill: #b56953;
      }

      .cls-11 {
        fill: #ffa82b;
      }

      .cls-12 {
        fill: #ff9e4f;
      }

      .cls-13 {
        fill: #db3939;
      }

      .cls-14 {
        fill: #fff;
      }

      .cls-15 {
        fill: #30334d;
      }

      .cls-16 {
        fill: #c2e4ff;
      }

      .cls-17 {
        fill: #ffd0bd;
      }

      .cls-18 {
        fill: #942525;
      }

      .cls-19 {
        fill: #1da1a6;
      }

      .cls-20 {
        fill: #ff7878;
      }

      .cls-21 {
        fill: #ffd6c9;
      }

      .cls-22 {
        fill: #edd6c7;
      }

      .cls-23 {
        fill: #ffbbad;
      }

      .cls-24 {
        fill: #ebcdc1;
      }

      .cls-25 {
        fill: #004773;
      }

      .cls-26 {
        fill: #ffdbcc;
      }

      .cls-27 {
        fill: #93c946;
      }

      .cls-28 {
        fill: #943f27;
      }

      .cls-29 {
        fill: #21b5ba;
      }

      .cls-30 {
        fill: #0a5d87;
      }

      .cls-31 {
        fill: #eff8ff;
      }
    </style>
  </defs>
  <g class="cls-32">
    <g id="Layer_1" data-name="Layer 1">
      <g>
        <path class="cls-31" d="m102.16,658.36h920.42c.46-1.29.9-2.59,1.32-3.94,36.73-117.94-65.85-154.23-112.83-209.48-69.75-82.04-49.94-148.31-91.82-205.02-69.79-94.49-193.18-73.74-259.73-27.54-30.86,21.43-56.67,43.49-91.25,54.03-65.61,20-104.73-32.05-162.08-36.8-103.87-8.61-212.98,97.88-161.99,231.77,39.3,103.2-28.67,139.86-42.05,196.98Z"/>
        <g>
          <path class="cls-31" d="m552.41,55.71c.1-.95.15-1.91.15-2.89,0-15.42-12.5-27.92-27.92-27.92-6.66,0-12.77,2.33-17.57,6.23-3.59-17.76-19.28-31.13-38.09-31.13-17.12,0-31.65,11.08-36.83,26.46-5.78-4.63-13.11-7.4-21.09-7.4-18.65,0-33.77,15.12-33.77,33.77,0,.42.02.84.03,1.27-2.7-.82-5.56-1.27-8.52-1.27-16.15,0-29.24,13.09-29.24,29.24s13.09,29.24,29.24,29.24c2.97,0,5.84-.45,8.54-1.27-.03.61-.05,1.22-.05,1.84,0,18.65,15.12,33.77,33.77,33.77,9.87,0,18.74-4.23,24.92-10.98,6.86,11.01,19.07,18.34,33,18.34,10.06,0,19.23-3.82,26.13-10.09,4.41,1.76,9.21,2.73,14.25,2.73,18.94,0,34.68-13.69,37.88-31.72,1.13.13,2.28.21,3.44.21,16.15,0,29.24-13.09,29.24-29.24s-12.16-28.29-27.5-29.19Z"/>
          <g>
            <path class="cls-25" d="m378.14,57.84h8.77c.94,0,1.71.23,2.3.69.59.46,1.04,1.05,1.33,1.78l13.73,35.63c.46,1.16.9,2.43,1.31,3.82.42,1.39.81,2.85,1.19,4.38.62-3.1,1.39-5.83,2.3-8.2l13.69-35.63c.24-.62.67-1.18,1.29-1.7.62-.51,1.39-.77,2.3-.77h8.77l-23.59,58.41h-9.82l-23.59-58.41Z"/>
            <path class="cls-25" d="m453.4,74.16c3.1,0,5.9.5,8.42,1.49,2.52,1,4.67,2.41,6.44,4.24,1.78,1.83,3.15,4.07,4.12,6.71.97,2.64,1.45,5.59,1.45,8.85s-.48,6.25-1.45,8.89c-.97,2.64-2.34,4.89-4.12,6.75-1.78,1.86-3.93,3.29-6.44,4.28-2.52,1-5.33,1.49-8.42,1.49s-5.91-.5-8.44-1.49c-2.53-1-4.69-2.42-6.48-4.28-1.79-1.86-3.18-4.11-4.16-6.75-.98-2.64-1.47-5.6-1.47-8.89s.49-6.21,1.47-8.85c.98-2.64,2.37-4.87,4.16-6.71,1.79-1.83,3.95-3.25,6.48-4.24,2.53-1,5.35-1.49,8.44-1.49Zm0,35.02c3.45,0,6-1.16,7.65-3.47,1.66-2.32,2.48-5.71,2.48-10.18s-.83-7.88-2.48-10.22c-1.66-2.34-4.21-3.51-7.65-3.51s-6.09,1.18-7.76,3.53c-1.67,2.36-2.51,5.76-2.51,10.2s.83,7.83,2.51,10.16c1.67,2.33,4.25,3.49,7.76,3.49Z"/>
            <path class="cls-25" d="m494.44,116.25h-10.91v-58.41h10.91v58.41Z"/>
            <path class="cls-25" d="m518.8,95.69v20.56h-10.87v-58.41h19.03c3.9,0,7.28.46,10.14,1.37,2.85.92,5.21,2.2,7.07,3.84,1.86,1.64,3.23,3.61,4.12,5.9.89,2.29,1.33,4.79,1.33,7.51s-.47,5.42-1.41,7.78c-.94,2.36-2.36,4.38-4.24,6.08-1.89,1.7-4.24,3.02-7.07,3.96-2.83.94-6.14,1.41-9.94,1.41h-8.16Zm0-8.48h8.16c1.99,0,3.73-.25,5.21-.75,1.48-.5,2.71-1.21,3.68-2.14.97-.93,1.7-2.06,2.18-3.39.48-1.33.73-2.82.73-4.46s-.24-2.98-.73-4.24c-.48-1.27-1.21-2.34-2.18-3.23-.97-.89-2.2-1.57-3.68-2.04-1.48-.47-3.22-.71-5.21-.71h-8.16v20.97Z"/>
          </g>
        </g>
        <g>
          <path class="cls-30" d="m248.47,174.37c-.55,0-1-.45-1-1v-6c0-.55.45-1,1-1s1,.45,1,1v6c0,.55-.45,1-1,1Z"/>
          <path class="cls-30" d="m248.47,157.75c-.55,0-1-.45-1-1v-10.62c0-.55.45-1,1-1s1,.45,1,1v10.62c0,.55-.45,1-1,1Zm0-21.23c-.55,0-1-.45-1-1v-10.62c0-.55.45-1,1-1s1,.45,1,1v10.62c0,.55-.45,1-1,1Zm0-21.23c-.55,0-1-.45-1-1v-10.62c0-.55.45-1,1-1s1,.45,1,1v10.62c0,.55-.45,1-1,1Z"/>
          <path class="cls-30" d="m248.47,94.04c-.55,0-1-.45-1-1v-6c0-.55.45-1,1-1h6c.55,0,1,.45,1,1s-.45,1-1,1h-5v5c0,.55-.45,1-1,1Z"/>
          <path class="cls-30" d="m359.06,88.04h-13.07c-.55,0-1-.45-1-1s.45-1,1-1h13.07c.55,0,1,.45,1,1s-.45,1-1,1Zm-26.15,0h-13.07c-.55,0-1-.45-1-1s.45-1,1-1h13.07c.55,0,1,.45,1,1s-.45,1-1,1Zm-26.15,0h-13.07c-.55,0-1-.45-1-1s.45-1,1-1h13.07c.55,0,1,.45,1,1s-.45,1-1,1Zm-26.15,0h-13.07c-.55,0-1-.45-1-1s.45-1,1-1h13.07c.55,0,1,.45,1,1s-.45,1-1,1Z"/>
          <path class="cls-30" d="m378.14,88.04h-6c-.55,0-1-.45-1-1s.45-1,1-1h6c.55,0,1,.45,1,1s-.45,1-1,1Z"/>
        </g>
        <g>
          <path class="cls-30" d="m409.75,402.66h-6c-.55,0-1-.45-1-1s.45-1,1-1h6c.55,0,1,.45,1,1s-.45,1-1,1Z"/>
          <path class="cls-30" d="m528.87,402.66h-11.91c-.55,0-1-.45-1-1s.45-1,1-1h11.91c.55,0,1,.45,1,1s-.45,1-1,1Zm-23.82,0h-11.91c-.55,0-1-.45-1-1s.45-1,1-1h11.91c.55,0,1,.45,1,1s-.45,1-1,1Zm-23.82,0h-11.91c-.55,0-1-.45-1-1s.45-1,1-1h11.91c.55,0,1,.45,1,1s-.45,1-1,1Zm-23.82,0h-11.91c-.55,0-1-.45-1-1s.45-1,1-1h11.91c.55,0,1,.45,1,1s-.45,1-1,1Zm-23.82,0h-11.91c-.55,0-1-.45-1-1s.45-1,1-1h11.91c.55,0,1,.45,1,1s-.45,1-1,1Z"/>
          <path class="cls-30" d="m546.78,408.66c-.55,0-1-.45-1-1v-5h-5c-.55,0-1-.45-1-1s.45-1,1-1h6c.55,0,1,.45,1,1v6c0,.55-.45,1-1,1Z"/>
          <path class="cls-30" d="m546.78,497.74c-.55,0-1-.45-1-1v-11.13c0-.55.45-1,1-1s1,.45,1,1v11.13c0,.55-.45,1-1,1Zm0-22.27c-.55,0-1-.45-1-1v-11.13c0-.55.45-1,1-1s1,.45,1,1v11.13c0,.55-.45,1-1,1Zm0-22.27c-.55,0-1-.45-1-1v-11.13c0-.55.45-1,1-1s1,.45,1,1v11.13c0,.55-.45,1-1,1Zm0-22.27c-.55,0-1-.45-1-1v-11.13c0-.55.45-1,1-1s1,.45,1,1v11.13c0,.55-.45,1-1,1Z"/>
          <path class="cls-30" d="m546.78,514.87c-.55,0-1-.45-1-1v-6c0-.55.45-1,1-1s1,.45,1,1v6c0,.55-.45,1-1,1Z"/>
        </g>
        <g>
          <g>
            <path class="cls-17" d="m657.03,529.25l16.98,45.99c37.84-.13,147.51-105.13,143.41-125.79-8.46-42.63-51.09-42.52-51.09-42.52l-109.3,122.33Z"/>
            <path class="cls-29" d="m703.78,473.69c-6.16,6.59,35.74,53.86,62.16,49.75,0,0,46.88-42.66,59.16-88.04,6.36-23.51-16.07-45.65-30.51-47.01-31.43-2.97-90.81,85.31-90.81,85.31Z"/>
            <path class="cls-17" d="m684.09,515.71l-135.54,43.8,4.87,26.71s110.58,7.06,148.52-21.36l-17.85-49.15Z"/>
          </g>
          <ellipse class="cls-12" cx="767.04" cy="278.74" rx="30.31" ry="24.18" transform="translate(440.43 1026.66) rotate(-86.38)"/>
          <g>
            <path class="cls-4" d="m906.03,299.2l-20.78,13.52c-7.17,28.15,20.18,249.58,20.18,249.58,2.48,1.52,41.14,27.81,60.8-40.73,23.42-81.68-60.11-171.71-60.21-222.36Z"/>
            <path class="cls-11" d="m910.59,310.53c-2.27-8.1-3.55-9.9-3.55-9.9l-25.85,19.63c-.33,2.68.55,7.54,2.62,8.31,7.93,1.65,29.05-9.94,26.78-18.04Z"/>
            <path class="cls-4" d="m940.35,560.5l-1.23-2.9c.41-.17,41.04-18.09,40.4-67.23-.57-44.14-23.44-79.73-43.61-111.13-10.16-15.81-19.75-30.75-25.44-45.17l2.93-1.15c5.57,14.14,15.08,28.95,25.16,44.62,20.4,31.75,43.52,67.74,44.11,112.79.67,51.3-41.89,69.99-42.32,70.17Z"/>
          </g>
          <ellipse class="cls-4" cx="833.35" cy="255.37" rx="92.16" ry="83.08" transform="translate(576.69 1088.32) rotate(-89.91)"/>
          <path class="cls-19" d="m952.66,657.4c-.19.32-.39.65-.59.96h-171.2c1.68-2.41,3.57-5.34,5.47-8.71,2.46-4.38,4.92-9.47,6.88-15.08,1.83-5.21,3.22-10.85,3.79-16.76.46-4.7-.38-10.96-2.15-18.4-.09-.37-.17-.74-.26-1.09-1.39-5.74-3.29-12.16-5.51-19.09-1.1-3.43-2.27-6.98-3.51-10.65-1.38-4.08-2.83-8.3-4.32-12.63-2.64-7.67-5.41-15.67-8.13-23.83-.35-1.05-.69-2.1-1.04-3.16h0c-.37-1.12-.74-2.24-1.11-3.37h0c-15.47-47.67-27.7-99.73-3.12-126.51,3.71-4.04,7.86-8.31,13.23-12.43t.02-.02c3.15-2.43,6.74-4.8,10.9-7.05.82-.45,1.67-.89,2.54-1.33,4.97-2.49,10.73-4.8,17.51-6.85h.02s.03-.01.05-.02h.08l33.8-1.9,18.88-1.33h.11l.66-.05,14.2-1h.01c1.38.84,3.08,1.63,5.94,3.07,4.17,2.09,10.78,5.57,22.4,12.56,20.05,12.06,48.6,47.96,40.36,97.39-.4,2.49-.91,5.03-1.52,7.59-.43,1.79-.86,3.56-1.29,5.3-7.6,30.65-16.18,54.04-20.04,75.48h0c-2.53,14.08-3.02,27.31.15,41.17,5.88,26.02,26.79,47.74,26.79,47.74Z"/>
          <path class="cls-2" d="m931.31,462.89s2.13,11.28.79,16.59c-3.7,14.65-6.69,50.24-22.52,71.87-.15.22-19.67,22.19-34.5,30.83-21.72,12.64-28.83,44.5-26.13,76.18h-68.08c1.68-2.41,3.57-5.34,5.47-8.71,2.46-4.38,4.92-9.47,6.88-15.08,1.83-5.21,3.22-10.85,3.79-16.76.46-4.7-.38-10.96-2.15-18.4-.09-.37-.17-.74-.26-1.09-1.89-8.04-2.89-11.66-5.43-19.23-.94-2.81-2.1-6.17-3.59-10.51l38-55.78,4.16-6.1,3.37-.98,65.59-19.08h.01s26.08-15.68,26.08-15.68l2.93-1.75,2.8-1.68,2.79-4.64Z"/>
          <path class="cls-17" d="m879.86,367.11c-4.45,4.17-8.68,7.93-12.68,11.29-36.93,31.08-55.24,28.5-55.04-7.01,9.27-1.63,13.2-8.94,13.38-18.01.12-6.32-1.59-13.49-4.59-20.17l24.74-3.43,11.49-1.59c-.52,22.13,13.94,34.52,22.71,38.92Z"/>
          <path class="cls-24" d="m879.86,367.11c-4.45,4.17-8.68,7.93-12.68,11.29-.57-4.05-5.27-28.36-14.14-25.53-13.98,4.46-27.52.52-27.52.52l20.15-23.6,11.49-1.59c-.52,22.13,13.94,34.52,22.71,38.92Z"/>
          <g>
            <path class="cls-6" d="m902.94,263.69c-3.52-4.82-9.75-3.61-14.93-1.34-4.8,2.1-7.57,6.1-6.81,10.16,1.82,9.79-5.54,20.01-7.63,30.12,35.31-.78,36.14-29.68,29.38-38.94Z"/>
            <path class="cls-22" d="m897.28,271.31c-2.5-.97-6.22-.66-7.64,1.31-.63.86.95,1.7,1.75.87.62-.64,1.72-.93,2.74-.67.9.23,1.66,1.02,2.05,1.64,1.19,1.9-.16,4.15-1.23,5.9-1.07,1.75-2.47,3.41-4.08,4.91-1.71,1.6-4.02,2.78-5.74,4.35-1.63,1.5,1.14,3.77,3.36,2.81,1.72-.74,3.03-1.93,4.29-3.05,1.17-1.03,2.23-2.13,3.18-3.27,1.96-2.34,3.63-4.96,4.4-7.66.68-2.4.29-5.84-3.06-7.15Z"/>
          </g>
          <path class="cls-21" d="m889.96,256.45c-.08,54.91-30.24,97.59-73.13,97.52-40.81-.06-68.5-45.64-64.89-102.83,3.46-54.8,28.13-82.66,71.02-82.59,42.89.07,67.09,32.99,67,87.91Z"/>
          <g>
            <path class="cls-22" d="m797.38,290.08c1.68-4.91,5.84-6.81,6.91-19.88,1.95,7.81-2,17.76-3.5,21.94-3.04,8.48,11.8,7.06,7.41,7.99-5.31,1.12-14.16-.31-10.83-10.05Z"/>
            <path class="cls-28" d="m785.38,254.89c-10.83-5.99-23.88,3.32-24.61,7.88-.19,1.2.86.03,5.71-3.22,3.59-2.31,10.48-2.85,14.52-1.63,4.2,1.28,9.56.15,4.38-3.04Z"/>
            <g>
              <path class="cls-18" d="m828.46,312.84c.21,3.56-1.11,6.89-3.45,9.43-2.51,2.75-6.19,4.59-10.38,4.84-4.5.27-8.63-1.36-11.48-4.12-2.28-2.2-3.74-5.13-3.94-8.41-.44-7.41,9.28-2.39,14.74-2.71,4.56-.27,14.06-6.43,14.5.97Z"/>
              <path class="cls-20" d="m825.01,322.27c-2.51,2.75-6.19,4.59-10.38,4.84-4.5.27-8.63-1.36-11.48-4.12,2.07-2.34,5.93-4.04,10.43-4.31,4.89-.29,9.22,1.19,11.43,3.59Z"/>
            </g>
            <g>
              <path class="cls-28" d="m792.2,275.19c-1.67,8.32-24.34,8.66-27.81,6.13-.19-.14-.38-.28-.55-.43-.02,0-.02-.02-.02-.02-1.65-2.6-3.1-7.13-3.1-7.13,0,0,4.15-4.32,6.41-5.58.03,0,.05-.03.09-.05.57-.3,2.79-1.44,5.78-2.23,4.11-1.05,9.68-1.43,14.33,2,.53.39,3.71,2.73,4.95,6.03.03.41,0,.83-.08,1.26Z"/>
              <path class="cls-14" d="m792.78,277.22c-.48,5.96-8.56,9.63-14.38,10.08-.58.05-2.23.14-4.34-.26-1.97-.33-4.31-1.11-6.59-2.72-.3-.19-1.43-.99-2.66-2.19-.33-.32-.66-.74-.97-1.24-.02,0-.02-.02-.02-.02-1.65-2.6-3.1-7.13-3.1-7.13,0,0,4.15-4.32,6.41-5.58.03,0,.05-.03.09-.05.57-.3,2.79-1.44,5.78-2.23,4.11-1.05,9.68-1.43,14.33,2,.53.39,3.71,2.73,4.95,6.03.39,1.01.59,2.12.5,3.29Z"/>
              <path class="cls-10" d="m765.92,276.05c0-6.29,5.12-11.38,11.41-11.37s11.38,5.12,11.37,11.41c0,6.29-5.12,11.38-11.41,11.37s-11.38-5.12-11.37-11.41Z"/>
              <path class="cls-3" d="m783.88,273.97c.94,3.77-1.35,7.59-5.12,8.53-3.77.94-7.59-1.35-8.53-5.12-.94-3.77,1.35-7.59,5.12-8.53,3.77-.94,7.59,1.35,8.53,5.12Z"/>
              <path class="cls-14" d="m783.67,271.21c.24.94-.34,1.9-1.28,2.13-.94.24-1.9-.34-2.13-1.28-.24-.94.34-1.9,1.28-2.13.94-.24,1.9.34,2.13,1.28Z"/>
              <path class="cls-14" d="m784.87,277.2c.13.53-.19,1.06-.71,1.19s-1.06-.19-1.19-.71c-.13-.53.19-1.06.71-1.19.53-.13,1.06.19,1.19.71Z"/>
              <path class="cls-28" d="m792.28,273.93c-1.24-3.31-4.41-5.64-4.95-6.03-4.65-3.44-10.22-3.05-14.33-2-2.99.78-5.21,1.93-5.78,2.23-.05.02-.06.05-.09.05-2.27,1.26-6.41,5.58-6.41,5.58,0,0,1.46,4.53,3.1,7.13-1.19-.99-1.82-1.91-1.82-1.91-.28-.43-.82-1.29-1.33-2.41-.64-1.4-.75-2.05-1.22-2.16-.39-.09-1.78,3.33-6.06,2.67-.36-.06-.77-.47-.77-.47,1.7.36,4.47-1.66,7.58-5.78,8.4-11.17,25.22-11.15,30.81-.69.5.93,1.22,2.3,1.28,3.81Z"/>
            </g>
            <g>
              <path class="cls-28" d="m822.9,275.06c1.64,8.33,24.31,8.74,27.79,6.21.19-.14.38-.28.55-.42.02,0,.02-.02.02-.02,1.66-2.59,3.13-7.12,3.13-7.12,0,0-4.13-4.33-6.4-5.6-.03,0-.05-.03-.09-.05-.57-.3-2.78-1.45-5.77-2.24-4.11-1.06-9.67-1.46-14.34,1.96-.54.39-3.72,2.72-4.97,6.02-.03.41,0,.83.08,1.26Z"/>
              <path class="cls-14" d="m822.31,277.09c.46,5.96,8.53,9.66,14.35,10.12.58.05,2.23.15,4.34-.24,1.97-.33,4.31-1.09,6.6-2.7.3-.19,1.43-.99,2.66-2.18.33-.31.66-.74.98-1.24.02,0,.02-.02.02-.02,1.66-2.59,3.13-7.12,3.13-7.12,0,0-4.13-4.33-6.4-5.6-.03,0-.05-.03-.09-.05-.57-.3-2.78-1.45-5.77-2.24-4.11-1.06-9.67-1.46-14.34,1.96-.54.39-3.72,2.72-4.97,6.02-.39,1.01-.6,2.12-.51,3.29Z"/>
              <circle class="cls-10" cx="837.79" cy="275.99" r="11.39" transform="translate(50.23 673.24) rotate(-45)"/>
              <path class="cls-3" d="m831.22,273.87c-.95,3.77,1.32,7.59,5.09,8.55,3.77.95,7.59-1.32,8.55-5.09.95-3.77-1.32-7.59-5.09-8.55-3.77-.95-7.59,1.32-8.55,5.09Z"/>
              <path class="cls-14" d="m831.44,271.1c-.24.94.33,1.9,1.27,2.14.94.24,1.9-.33,2.14-1.27.24-.94-.33-1.9-1.27-2.14-.94-.24-1.9.33-2.14,1.27Z"/>
              <path class="cls-14" d="m830.22,277.1c-.13.53.18,1.06.71,1.19s1.06-.18,1.19-.71c.13-.53-.18-1.06-.71-1.19-.53-.13-1.06.18-1.19.71Z"/>
              <path class="cls-28" d="m822.82,273.8c1.25-3.3,4.43-5.63,4.97-6.02,4.66-3.42,10.23-3.02,14.34-1.96,2.99.79,5.2,1.94,5.77,2.24.05.02.06.05.09.05,2.26,1.26,6.4,5.6,6.4,5.6,0,0-1.47,4.53-3.13,7.12,1.2-.99,1.83-1.9,1.83-1.9.28-.42.82-1.29,1.34-2.41.65-1.4.76-2.04,1.23-2.15.39-.09,1.77,3.34,6.05,2.68.36-.06.77-.47.77-.47-1.7.36-4.47-1.67-7.56-5.8-8.37-11.2-25.19-11.23-30.81-.79-.5.93-1.23,2.3-1.3,3.81Z"/>
            </g>
            <path class="cls-28" d="m828.34,254.34c10.85-5.95,23.86,3.39,24.59,7.96.19,1.2-.86.03-5.7-3.24-3.58-2.32-10.47-2.88-14.51-1.67-4.21,1.26-9.56.12-4.37-3.05Z"/>
            <path class="cls-23" d="m857.42,296.88c.21,3.59-5.6,6.85-12.98,7.29-7.38.44-13.54-2.11-13.76-5.7-.21-3.59,5.6-6.85,12.98-7.29,7.38-.44,13.54,2.11,13.76,5.7Z"/>
            <path class="cls-23" d="m787.72,298.37c.19,3.24-5.05,6.19-11.72,6.58-6.67.4-12.22-1.91-12.42-5.15-.19-3.24,5.05-6.19,11.72-6.58,6.67-.4,12.22,1.91,12.42,5.15Z"/>
          </g>
          <path class="cls-4" d="m761.81,190.63c10.46-16.06,33.28-26.71,54.4-22.16,32.21-8.43,50.98,5.18,62.52,18.1,21.04,23.56,23.08,83.03-2.72,125.02,18.65-50.22-25.23-127.92-67.31-107.1-44.1-13.28-63.19,30.63-56,75.13-9.14-22.27-10.47-58.96,9.1-89Z"/>
          <path class="cls-4" d="m813.11,199.81c9.8-3.12,19.73.45,27.42,5.04,7.79,4.64,15.28,10.05,20.88,16.27,5.92,6.57,9.07,14.19,10.95,21.98,1.86,7.69,2.99,15.63,2.48,23.48-.28,4.29-1.07,8.6-2.51,12.77-1.45,4.19-3.18,8.49-6.05,12.27-.09.11-.35.04-.29-.09,1.72-3.55,3.39-7.05,4.45-10.75,1.03-3.61,1.59-7.33,1.89-11.01.62-7.58.07-15.16-1.46-22.65-1.54-7.52-3.76-15.11-8.63-21.81-4.67-6.41-11.4-11.85-18.57-16.69-7.99-5.39-18.95-11.35-30.29-8.06-.64.18-.88-.57-.27-.76Z"/>
          <path class="cls-4" d="m763.77,222.11c1.91-3.86,4.16-7.39,7.38-10.47,3.15-3.01,6.88-5.48,11.03-7.21,4.34-1.8,8.98-2.84,13.71-3.28,5.35-.5,10.85-.06,15.94,1.6.32.1.19.55-.14.47-9.12-2.19-18.67-1.9-27.27,1.81-8.11,3.5-14.25,9.3-18.86,16.25-2.51,3.78-3.69,8.37-4.36,12.71-.06.4-.79.3-.77-.1.28-4.07,1.51-8.08,3.34-11.79Z"/>
          <path class="cls-14" d="m812.13,371.39s-21.83,2.2-18.46,12.45c3.37,10.25,16.04,32.6,34.97,18.17,0,0,18.79,14.22,32.72,3.51,7.74-5.95,24.03-12.35,26.82-21.13,2.23-7.02-8.31-17.28-8.31-17.28,0,0-34.57,28.95-48.47,25.99-21.75-4.63-19.26-21.71-19.26-21.71Z"/>
          <g>
            <path class="cls-15" d="m837.19,325.94c37.87-7.67,52.49-40.38,52.64-40.71l-1.92-.83c-.14.32-14.36,32.05-51.13,39.49l.41,2.05Z"/>
            <path class="cls-15" d="m830.38,320.36h10.05c2.06,0,3.73,1.67,3.73,3.73v1.79c0,2.06-1.67,3.73-3.73,3.73h-10.05c-2.06,0-3.73-1.67-3.73-3.73v-1.79c0-2.06,1.67-3.73,3.73-3.73Z" transform="translate(-32.96 102.58) rotate(-6.89)"/>
            <path class="cls-1" d="m852.33,171.59c-4.48-3.29-9.21-6.02-14.16-8.23-1.55-.1-3.11-.16-4.68-.16-8.76-.01-17.2,1.49-25.13,4.26-.51-.02-1.02,0-1.54-.01,14.72.29,27.82,4.56,39.07,12.81,31.43,23.04,38.88,69.64,38.95,70.11l10.67-1.62c-.32-2.09-8.14-51.42-43.19-77.16Z"/>
            <ellipse class="cls-12" cx="892.72" cy="273.93" rx="30.31" ry="24.18" transform="translate(562.97 1147.57) rotate(-86.38)"/>
            <ellipse class="cls-1" cx="896.09" cy="277.87" rx="20.69" ry="16.51" transform="translate(562.21 1154.63) rotate(-86.38)"/>
          </g>
          <g>
            <path class="cls-26" d="m774,594.83l23.31,43.8c37.93-5.3,133.57-125.61,126.64-145.77-14.32-41.6-57.05-35.66-57.05-35.66l-92.9,137.63Z"/>
            <path class="cls-26" d="m823.91,624.4l-24.62-46.85-154.42,66.05,21.62,14.76h69.19c32.81-6.16,70.72-16.69,88.23-33.96Z"/>
          </g>
          <path class="cls-29" d="m806.2,515.65c16.52,19.73,67.89,55.1,88.13,52.22,0,0,48.32-86.71,36.29-124.72-4.04-12.77-19.97-36.25-46.1-26.84-28.54,10.28-50.22,53.47-78.31,99.35Z"/>
        </g>
        <g>
          <path class="cls-7" d="m1021.65,656.46H112.21c-1.26,0-2.28,1.02-2.28,2.28s1.02,2.28,2.28,2.28h909.44c1.26,0,2.28-1.02,2.28-2.28s-1.02-2.28-2.28-2.28Z"/>
          <path class="cls-7" d="m913.93,703.38h-140.82c-1.26,0-2.28,1.02-2.28,2.28s1.02,2.28,2.28,2.28h140.82c1.26,0,2.28-1.02,2.28-2.28s-1.02-2.28-2.28-2.28Z"/>
          <path class="cls-7" d="m735.82,703.38h-53.1c-1.26,0-2.28,1.02-2.28,2.28s1.02,2.28,2.28,2.28h53.1c1.26,0,2.28-1.02,2.28-2.28s-1.02-2.28-2.28-2.28Z"/>
        </g>
        <g>
          <polygon class="cls-14" points="774.11 656.46 668.71 656.46 489.89 656.46 446.21 519.88 625.03 519.88 665.58 645.99 774.11 645.99 774.11 656.46"/>
          <path class="cls-16" d="m665.58,656.46h-175.69l-43.68-136.59h20.85c34.05,130.82,148.6,111.42,198.52,136.59Z"/>
        </g>
        <g>
          <g>
            <rect class="cls-14" x="144.73" y="210.77" width="247.5" height="405.02" rx="22.32" ry="22.32"/>
            <path class="cls-7" d="m372.13,181.76h-207.32c-14.08,0-25.48,11.41-25.48,25.48v388.84c0,7.68,3.41,14.58,8.79,19.25.18.15.36.31.54.46,4.4,3.62,10.03,5.77,16.15,5.77h207.32c6.12,0,11.75-2.15,16.15-5.77,5.7-4.67,9.35-11.77,9.35-19.71V207.24c0-14.08-11.42-25.48-25.5-25.48Zm20.1,404.39c0,14.78-12.67,26.76-28.3,26.76h-190.9c-15.63,0-28.3-11.98-28.3-26.76V232.47c0-9.19,7.88-16.64,17.6-16.64h212.3c9.72,0,17.6,7.45,17.6,16.64v353.68Z"/>
            <g>
              <path class="cls-14" d="m180.42,199.61c0,4.52-3.67,8.2-8.2,8.2s-8.2-3.67-8.2-8.2,3.67-8.2,8.2-8.2,8.2,3.67,8.2,8.2Z"/>
              <path class="cls-7" d="m177.76,199.61c0,3.06-2.48,5.55-5.55,5.55s-5.55-2.49-5.55-5.55,2.49-5.55,5.55-5.55,5.55,2.49,5.55,5.55Z"/>
              <path class="cls-14" d="m197.2,199.61c0,3.06-2.49,5.55-5.55,5.55s-5.55-2.49-5.55-5.55,2.48-5.55,5.55-5.55,5.55,2.49,5.55,5.55Z"/>
            </g>
          </g>
          <g>
            <g>
              <circle class="cls-13" cx="345.42" cy="508.46" r="16.58"/>
              <path class="cls-14" d="m354.9,504.49c-5.53-1.62-11.67-1.73-18.62-.07-2.81.67-2.42,3.34-2.43,5.43,0,0,0,0,0,0-.26,1.93,1.04,3.84,3.08,3.82,1.91-.05,2.86-1.32,3.09-2.9.13-.88.89-1.41,1.77-1.59,2.33-.48,4.68-.76,7.19-.02.86.26,1.66.71,1.78,1.6.54,3.87,5.85,3.98,6.21-.17,0,0,0-2.48,0-2.48.13-1.66-.2-3.08-2.09-3.63Z"/>
            </g>
            <g>
              <circle class="cls-29" cx="293.85" cy="508.46" r="16.58"/>
              <g>
                <rect class="cls-14" x="284.24" y="499.64" width="4.69" height="4.69" rx="1.34" ry="1.34"/>
                <rect class="cls-14" x="291.5" y="499.64" width="4.69" height="4.69" rx="1.34" ry="1.34"/>
                <rect class="cls-14" x="298.77" y="499.64" width="4.69" height="4.69" rx="1.34" ry="1.34"/>
                <rect class="cls-14" x="284.24" y="506.12" width="4.69" height="4.69" rx="1.34" ry="1.34"/>
                <rect class="cls-14" x="291.5" y="506.12" width="4.69" height="4.69" rx="1.34" ry="1.34"/>
                <path class="cls-14" d="m300.11,506.12h2.01c.74,0,1.34.6,1.34,1.34v2.01c0,.74-.6,1.34-1.34,1.34h-2.01c-.74,0-1.34-.6-1.34-1.34v-2.01c0-.74.6-1.34,1.34-1.34Z"/>
                <rect class="cls-14" x="284.24" y="512.59" width="4.69" height="4.69" rx="1.34" ry="1.34"/>
                <rect class="cls-14" x="291.5" y="512.59" width="4.69" height="4.69" rx="1.34" ry="1.34"/>
                <path class="cls-14" d="m300.11,512.59h2.01c.74,0,1.34.6,1.34,1.34v2.01c0,.74-.6,1.34-1.34,1.34h-2.01c-.74,0-1.34-.6-1.34-1.34v-2.01c0-.74.6-1.34,1.34-1.34Z"/>
              </g>
            </g>
            <g>
              <circle class="cls-12" cx="191.54" cy="508.46" r="16.58"/>
              <path class="cls-14" d="m200.44,506.46h-4.62c-1.13,0-2.05-.92-2.05-2.05v-5.09c0-1.13-.92-2.05-2.05-2.05h-.38c-1.13,0-2.05.92-2.05,2.05v5.09c0,1.13-.92,2.05-2.05,2.05h-4.58c-1.13,0-2.05.92-2.05,2.05s.92,2.05,2.05,2.05h4.58c1.13,0,2.05.92,2.05,2.05v5.14c0,1.13.92,2.05,2.05,2.05h.38c1.13,0,2.05-.92,2.05-2.05v-5.14c0-1.13.92-2.05,2.05-2.05h4.62c1.13,0,2.05-.92,2.05-2.05s-.92-2.05-2.05-2.05Z"/>
            </g>
            <g>
              <circle class="cls-29" cx="242.69" cy="508.46" r="16.58"/>
              <g>
                <path class="cls-14" d="m239.47,500.72h-.59c-.37,0-.71.19-.9.51l-1.65,2.76c-.38.64-1.08,1.03-1.83,1.03h-2.56c-1.01,0-1.82.82-1.82,1.82v3.24c0,1.01.82,1.82,1.82,1.82h2.56c.75,0,1.44.39,1.83,1.03l1.65,2.76c.19.32.53.51.9.51h.59c.47,0,.89-.32,1.02-.78,1.24-4.64,1.24-9.29,0-13.93-.12-.46-.54-.78-1.02-.78Z"/>
                <path class="cls-14" d="m243.27,507.26c-.77.01-1.38.65-1.36,1.41s.65,1.38,1.41,1.36,1.38-.65,1.36-1.41c-.01-.77-.65-1.38-1.41-1.36Z"/>
                <path class="cls-14" d="m245.38,504.95c-.2-.13-.47-.07-.6.13-.13.2-.07.47.13.6.06.04,1.39.93,1.43,2.91.04,1.96-1.32,2.83-1.38,2.86-.14.08-.21.23-.21.38,0,.07.02.15.06.22.12.2.39.27.6.15.08-.05,1.84-1.14,1.8-3.62-.05-2.46-1.75-3.58-1.82-3.63Z"/>
                <path class="cls-14" d="m247.41,503.27c-.2-.13-.47-.07-.6.13-.13.2-.07.47.13.6.09.06,2.19,1.46,2.25,4.57.06,3.09-2.09,4.45-2.18,4.5-.14.08-.21.23-.21.38,0,.07.02.15.06.22.12.21.39.27.6.15.11-.07,2.67-1.66,2.6-5.26-.07-3.59-2.54-5.21-2.65-5.28Z"/>
                <path class="cls-14" d="m249.36,502.01c-.2-.13-.47-.07-.6.13-.13.2-.07.47.13.6.11.07,2.78,1.84,2.85,5.79.07,3.92-2.66,5.64-2.78,5.71-.14.08-.21.23-.21.38,0,.07.02.15.06.22.12.2.39.27.6.15.13-.08,3.28-2.03,3.2-6.47-.08-4.42-3.12-6.42-3.25-6.5Z"/>
                <path class="cls-14" d="m255.27,508.49c-.1-5.49-3.87-7.97-4.03-8.07-.2-.13-.47-.07-.6.13-.13.2-.07.47.13.6.04.02,3.54,2.34,3.63,7.36.09,4.99-3.39,7.18-3.54,7.27-.14.08-.21.23-.21.38,0,.07.02.15.06.22.12.2.39.27.6.15.17-.1,4.06-2.52,3.96-8.03Z"/>
              </g>
            </g>
          </g>
          <g>
            <circle class="cls-16" cx="268.48" cy="350.39" r="62.89" transform="translate(-169.13 292.47) rotate(-45)"/>
            <g>
              <circle class="cls-14" cx="267.54" cy="336.77" r="24.55" transform="translate(-145.98 455.07) rotate(-67.5)"/>
              <path class="cls-14" d="m290.05,361.52c-1.98-1.54-4.74-1.49-6.68.1-4.23,3.45-9.63,5.52-15.52,5.52s-10.94-1.94-15.1-5.2c-1.98-1.55-4.79-1.52-6.7.12-4.95,4.25-7.97,10.37-7.97,18.33v.72c0,4.12,3.34,7.45,7.45,7.45h45.87c4.12,0,7.45-3.34,7.45-7.45v-.72c0-8.3-3.37-14.61-8.82-18.86Z"/>
            </g>
          </g>
          <g>
            <path class="cls-9" d="m229.33,446.22c0,1.76-.19,3.29-.57,4.58-.38,1.29-.9,2.35-1.55,3.2-.66.84-1.43,1.47-2.33,1.88-.9.41-1.85.62-2.87.62s-1.99-.21-2.87-.62c-.89-.41-1.66-1.04-2.31-1.88-.66-.84-1.17-1.91-1.55-3.2-.38-1.29-.56-2.81-.56-4.58s.19-3.29.56-4.58c.37-1.29.89-2.36,1.55-3.21.66-.85,1.43-1.48,2.31-1.89.89-.41,1.84-.62,2.87-.62s1.98.21,2.87.62c.89.41,1.67,1.04,2.33,1.89.66.85,1.17,1.92,1.55,3.21.38,1.29.57,2.82.57,4.58Zm-2.6,0c0-1.54-.13-2.83-.39-3.87-.26-1.04-.6-1.89-1.04-2.52-.44-.64-.94-1.09-1.51-1.37-.57-.28-1.17-.41-1.79-.41s-1.21.14-1.79.41c-.57.28-1.07.73-1.5,1.37-.43.64-.78,1.48-1.03,2.52-.26,1.04-.39,2.34-.39,3.87s.13,2.83.39,3.87c.26,1.04.6,1.88,1.03,2.52.43.64.93,1.09,1.5,1.37.57.28,1.17.42,1.79.42s1.21-.14,1.79-.42c.57-.28,1.08-.73,1.51-1.37.44-.64.78-1.48,1.04-2.52.26-1.04.39-2.33.39-3.87Z"/>
            <path class="cls-9" d="m245.64,446.22c0,1.76-.19,3.29-.57,4.58-.38,1.29-.9,2.35-1.55,3.2-.66.84-1.43,1.47-2.33,1.88-.89.41-1.85.62-2.87.62s-1.99-.21-2.87-.62c-.89-.41-1.66-1.04-2.31-1.88-.66-.84-1.17-1.91-1.55-3.2-.38-1.29-.56-2.81-.56-4.58s.19-3.29.56-4.58c.37-1.29.89-2.36,1.55-3.21.66-.85,1.43-1.48,2.31-1.89.89-.41,1.84-.62,2.87-.62s1.98.21,2.87.62c.89.41,1.67,1.04,2.33,1.89.66.85,1.17,1.92,1.55,3.21.38,1.29.57,2.82.57,4.58Zm-2.6,0c0-1.54-.13-2.83-.39-3.87-.26-1.04-.6-1.89-1.04-2.52-.44-.64-.94-1.09-1.51-1.37-.57-.28-1.17-.41-1.79-.41s-1.21.14-1.79.41c-.57.28-1.07.73-1.5,1.37-.43.64-.78,1.48-1.03,2.52-.26,1.04-.39,2.34-.39,3.87s.13,2.83.39,3.87c.26,1.04.6,1.88,1.03,2.52.43.64.93,1.09,1.5,1.37s1.17.42,1.79.42,1.21-.14,1.79-.42c.57-.28,1.08-.73,1.51-1.37.44-.64.78-1.48,1.04-2.52.26-1.04.39-2.33.39-3.87Z"/>
            <path class="cls-9" d="m247.72,454.74c0-.24.04-.47.13-.69.09-.21.21-.4.37-.56.15-.16.34-.29.56-.38.22-.09.45-.14.69-.14s.47.05.69.14c.22.09.4.22.56.38.16.16.28.35.37.56.09.22.13.45.13.69s-.04.48-.13.7c-.09.21-.21.4-.37.56s-.35.28-.56.37c-.22.09-.45.13-.69.13s-.47-.05-.69-.13c-.22-.09-.4-.21-.56-.37-.15-.16-.28-.34-.37-.56-.09-.21-.13-.44-.13-.7Z"/>
            <path class="cls-9" d="m260.89,435.92c.85,0,1.65.13,2.39.38.74.25,1.38.62,1.92,1.1.54.48.96,1.07,1.27,1.76.31.69.46,1.48.46,2.36,0,.75-.11,1.44-.34,2.08-.22.64-.53,1.25-.91,1.83-.38.59-.83,1.15-1.33,1.7-.5.55-1.03,1.11-1.6,1.68l-5.3,5.43c.37-.1.75-.19,1.14-.25.38-.06.75-.09,1.11-.09h6.75c.27,0,.49.08.65.24.16.16.24.37.24.62v1.52h-13.44v-.86c0-.18.04-.36.11-.55s.18-.36.34-.52l6.45-6.48c.53-.54,1.02-1.07,1.46-1.57.44-.5.82-1,1.13-1.51.31-.51.56-1.02.72-1.54s.25-1.08.25-1.67-.09-1.11-.28-1.55c-.19-.45-.45-.81-.77-1.1-.33-.29-.71-.51-1.15-.65-.44-.14-.91-.22-1.42-.22s-.97.08-1.41.23c-.43.15-.81.36-1.15.62-.33.27-.61.58-.84.95-.23.37-.39.77-.49,1.21-.07.27-.19.47-.34.59-.15.12-.35.18-.59.18-.05,0-.1,0-.15,0-.05,0-.11-.01-.18-.02l-1.31-.23c.13-.92.38-1.73.76-2.44.37-.71.85-1.3,1.43-1.78.58-.48,1.24-.84,1.98-1.09.74-.25,1.55-.37,2.41-.37Z"/>
            <path class="cls-9" d="m284.21,446.22c0,1.76-.19,3.29-.57,4.58-.38,1.29-.9,2.35-1.55,3.2-.66.84-1.43,1.47-2.33,1.88-.89.41-1.85.62-2.87.62s-1.99-.21-2.87-.62c-.89-.41-1.66-1.04-2.31-1.88-.66-.84-1.17-1.91-1.55-3.2-.38-1.29-.56-2.81-.56-4.58s.19-3.29.56-4.58c.37-1.29.89-2.36,1.55-3.21.66-.85,1.43-1.48,2.31-1.89.89-.41,1.84-.62,2.87-.62s1.98.21,2.87.62c.89.41,1.67,1.04,2.33,1.89.66.85,1.17,1.92,1.55,3.21.38,1.29.57,2.82.57,4.58Zm-2.6,0c0-1.54-.13-2.83-.39-3.87-.26-1.04-.6-1.89-1.04-2.52-.44-.64-.94-1.09-1.51-1.37-.57-.28-1.17-.41-1.79-.41s-1.21.14-1.79.41c-.57.28-1.07.73-1.5,1.37-.43.64-.78,1.48-1.03,2.52-.26,1.04-.39,2.34-.39,3.87s.13,2.83.39,3.87c.26,1.04.6,1.88,1.03,2.52.43.64.93,1.09,1.5,1.37s1.17.42,1.79.42,1.21-.14,1.79-.42c.57-.28,1.08-.73,1.51-1.37.44-.64.78-1.48,1.04-2.52.26-1.04.39-2.33.39-3.87Z"/>
            <path class="cls-9" d="m286.29,454.74c0-.24.04-.47.13-.69.09-.21.21-.4.37-.56.15-.16.34-.29.56-.38.22-.09.44-.14.69-.14s.47.05.69.14c.22.09.4.22.56.38.16.16.28.35.37.56.09.22.13.45.13.69s-.04.48-.13.7c-.09.21-.21.4-.37.56s-.35.28-.56.37c-.22.09-.45.13-.69.13s-.47-.05-.69-.13c-.22-.09-.4-.21-.56-.37-.15-.16-.28-.34-.37-.56-.09-.21-.13-.44-.13-.7Z"/>
            <path class="cls-9" d="m295.04,454.37h4.33v-13.73c0-.41.01-.83.04-1.25l-3.6,3.08c-.09.08-.19.13-.28.16-.09.03-.18.05-.27.05-.14,0-.27-.03-.38-.09-.11-.06-.2-.13-.25-.22l-.79-1.08,5.99-5.19h2.04v18.27h3.96v1.91h-10.8v-1.91Z"/>
            <path class="cls-9" d="m315.45,456.51c-1,0-1.92-.13-2.76-.4-.83-.27-1.55-.65-2.15-1.15-.6-.5-1.06-1.1-1.39-1.81-.33-.71-.49-1.5-.49-2.38,0-1.29.34-2.36,1.01-3.2.67-.84,1.64-1.44,2.9-1.79-1.06-.39-1.86-.98-2.4-1.76-.54-.78-.81-1.72-.81-2.8,0-.74.15-1.43.44-2.08.29-.65.7-1.21,1.24-1.69.53-.48,1.17-.85,1.92-1.12.74-.27,1.58-.41,2.5-.41s1.74.14,2.49.41c.75.27,1.39.65,1.93,1.12.53.48.95,1.04,1.24,1.69.29.65.44,1.34.44,2.08,0,1.09-.27,2.02-.82,2.8-.54.78-1.34,1.37-2.39,1.76,1.26.36,2.22.95,2.9,1.79.67.84,1.01,1.9,1.01,3.2,0,.88-.17,1.67-.5,2.38-.33.71-.8,1.31-1.39,1.81-.6.5-1.31.88-2.14,1.15-.83.27-1.75.4-2.75.4Zm0-2c.66,0,1.24-.09,1.76-.27.52-.18.96-.44,1.32-.77.36-.33.64-.73.83-1.19.19-.46.29-.98.29-1.54,0-.69-.11-1.29-.34-1.78-.23-.49-.54-.89-.93-1.2-.39-.31-.84-.54-1.34-.68-.51-.15-1.04-.22-1.59-.22s-1.08.07-1.59.22c-.51.15-.95.37-1.34.68-.39.31-.7.71-.93,1.2-.23.49-.34,1.08-.34,1.78,0,.56.1,1.08.29,1.54.19.46.47.86.83,1.19.36.33.8.59,1.32.77.52.18,1.11.27,1.76.27Zm0-9.67c.66,0,1.22-.1,1.68-.3.46-.2.84-.47,1.13-.8.29-.33.5-.71.63-1.15.13-.43.2-.88.2-1.33s-.08-.91-.23-1.32c-.15-.41-.38-.77-.69-1.08-.3-.31-.68-.55-1.14-.73-.45-.18-.98-.27-1.58-.27s-1.13.09-1.58.27c-.45.18-.83.42-1.14.73-.3.31-.53.67-.69,1.08-.15.41-.23.85-.23,1.32s.07.9.2,1.33c.13.43.34.81.63,1.15.29.33.67.6,1.13.8.46.2,1.02.3,1.68.3Z"/>
          </g>
        </g>
        <g>
          <g>
            <path class="cls-5" d="m407.53,609.25h-7.98c-5.01-2.21-9.95-5.23-14.14-8.76-3.53-2.96-10.55-12.88-5.25-18.05,2.04-1.99,5.63-1.52,8.29-.51,4.22,1.6,6.84,5.73,9.16,9.61.65,1.08,1.3,2.22,1.95,3.38,2.65,4.73,5.31,9.9,7.96,14.34Z"/>
            <path class="cls-5" d="m437.82,554.56c-1.02,4.05-3.01,7.78-4.69,11.6-1.69,3.85-3.26,7.91-4.62,12.07-3.28,10.08-5.3,20.82-4.78,31.02h-10.03c-2.33-7.36-.66-14.74-.78-22.47-.05-3.08.08-6.16.26-9.23.05-.99.11-1.99.18-2.98.68-11.06,1.57-22.73,7.86-31.85,1.23-1.78,2.72-3.48,4.7-4.34,3.82-1.66,8.56.5,10.74,4.05,2.18,3.56,2.2,8.1,1.17,12.14Z"/>
            <path class="cls-27" d="m458.92,568.93c-.67,1.42-1.69,2.63-2.74,3.79-4.81,5.37-10.32,10.1-14.89,15.67-.9,1.11-1.77,2.3-2.58,3.57-2.19,3.43-3.99,7.4-5,11.36-.29,1.09-.51,2.19-.66,3.27-.12.9-.21,1.79-.24,2.65h-9.92c-.38-6.07.4-13.05,1.33-17.25,1.09-4.93,2.46-9.52,4.29-13.77,3.23-7.55,7.94-13.99,15.21-19.2,1.62-1.16,3.38-2.2,5.32-2.6,3.22-.67,6.77.62,8.8,3.19,2.03,2.58,2.47,6.33,1.07,9.31Z"/>
            <path class="cls-5" d="m458.55,598.24c-4.35,2.21-9.25,3.03-13.84,4.67-4.59,1.65-9.66,1.79-11.38,6.34h-4.26c1.01-6.58,4.62-12.78,9.64-17.29,4.37-3.94,9.81-6.6,15.57-7.15,1.97-.19,4.01-.16,5.87.54,1.85.69,3.5,2.15,4.04,4.06,1.01,3.65-2.26,7.12-5.63,8.83Z"/>
            <path class="cls-27" d="m413.7,609.25h-7.66c-2.24-4.65-4.48-9.44-6.48-14.34-3.96-9.73-6.93-19.87-6.88-30.11.01-2.31.19-4.68,1.13-6.8.93-2.12,2.73-3.97,5-4.42,2.46-.5,5.03.73,6.73,2.57,1.7,1.85,2.71,4.22,3.57,6.59,1.76,4.77,3.11,9.74,4.06,14.8,1.97,10.45,2.18,21.3.53,31.7Z"/>
          </g>
          <g>
            <polygon class="cls-12" points="442.11 616.03 441.45 621.32 437 656.46 397.82 656.46 392.9 621.32 392.17 616.03 442.11 616.03"/>
            <path class="cls-12" d="m441.14,616.03h-47.99c-3.22,0-5.83-2.13-5.83-4.76h0c0-2.63,2.61-4.75,5.83-4.75h47.99c3.22,0,5.83,2.13,5.83,4.75h0c0,2.63-2.61,4.76-5.83,4.76Z"/>
            <path class="cls-1" d="m392.17,616.03l1,7.18c22.84-1.84,41.7,13.04,43.83,33.25.29-2.04,5.12-40.44,5.12-40.44h-49.95Z"/>
          </g>
        </g>
        <g>
          <path class="cls-8" d="m1034.72,183.03c.22,0,.22.33,0,.33s-.22-.33,0-.33Z"/>
          <g>
            <path class="cls-13" d="m959.74,110.73c16.28-12.39,37.52-17.45,57.91-15.74,13.18,1.11,26.32,5.02,37.06,12.74,10.74,7.72,18.87,19.47,20.73,32.56,1.86,13.09-3.15,27.31-13.78,35.19-11.23,8.33-26.47,8.66-40.3,6.62-17.5-2.59-34.42-8.4-51.95-10.79-7.25-.99-14.91-1.33-21.61,1.61-6.7,2.95-12.02,6.42-14.2,16.18-10.82-41.76,9.85-65.97,26.13-78.36Z"/>
            <path class="cls-14" d="m1057.05,139.74c0-3.47-2.81-6.29-6.29-6.29s-6.29,2.81-6.29,6.29,2.81,6.29,6.29,6.29,6.29-2.81,6.29-6.29Z"/>
            <path class="cls-14" d="m1031.66,139.74c0-3.47-2.81-6.29-6.29-6.29s-6.29,2.81-6.29,6.29,2.81,6.29,6.29,6.29,6.29-2.81,6.29-6.29Z"/>
            <path class="cls-14" d="m1006.27,139.74c0-3.47-2.81-6.29-6.29-6.29s-6.29,2.81-6.29,6.29,2.81,6.29,6.29,6.29,6.29-2.81,6.29-6.29Z"/>
            <path class="cls-14" d="m980.89,139.74c0-3.47-2.81-6.29-6.29-6.29s-6.29,2.81-6.29,6.29,2.81,6.29,6.29,6.29,6.29-2.81,6.29-6.29Z"/>
          </g>
          <path class="cls-13" d="m989.1,183.3c1.68.38,3.24,1.19,4.86,1.79,1.63.61,3.27,1.15,4.92,1.7,3.31,1.1,6.6,2.2,9.98,3.07,6.72,1.74,13.62,2.77,20.57,2.89,12.21.2,24.48-2.54,34.99-8.89,5.7-3.44,10.92-8.01,14.98-13.3.19-.25.63-.03.44.26-3.25,5.07-7.3,9.28-12.15,12.86-4.91,3.61-10.4,6.39-16.15,8.38-13.02,4.49-26.95,4.42-40.3,1.41-3.95-.89-7.89-1.99-11.69-3.39-1.88-.69-3.72-1.49-5.54-2.33-1.87-.86-3.94-1.59-5.59-2.84-.77-.58-.35-1.84.68-1.61Z"/>
          <path class="cls-13" d="m925.41,140.3c1.62-6.76,4.69-13.1,8.94-18.6,2.13-2.76,4.57-5.29,7.24-7.53,1.25-1.05,2.55-2.04,3.9-2.95,1.36-.92,2.97-1.97,4.54-2.44.38-.11.69.4.39.67-1.17,1.06-2.62,1.9-3.88,2.85-1.39,1.04-2.74,2.13-4.03,3.31-2.42,2.22-4.61,4.69-6.54,7.35-3.91,5.38-6.7,11.52-8.13,18.02-.35,1.58-2.8.91-2.43-.67Z"/>
          <path class="cls-13" d="m973.35,179.02c.72-.38,1.72-.25,2.51-.17.79.07,1.58.2,2.35.4.75.19,1.47.45,2.17.77.74.34,1.58.72,2.05,1.41.39.58-.12,1.58-.86,1.49-.29-.03-.52-.06-.78-.19-.16-.08-.32-.17-.48-.24-.28-.14-.46-.22-.71-.31-.64-.25-1.3-.47-1.96-.64-.32-.08-.65-.15-.98-.21-.36-.06-.43-.07-.81-.1-.33-.03-.67-.04-1-.05-.4,0-.85.08-1.24-.07-.43-.17-.76-.46-.81-.94-.05-.43.14-.92.54-1.13Z"/>
        </g>
        <g>
          <path class="cls-12" d="m47.72,188.33c-.21.04-.15.37.06.33.21-.04.15-.37-.06-.33Z"/>
          <path class="cls-12" d="m108.63,103.84c-18.23-9.29-40.03-10.5-59.78-5.19-12.77,3.43-25.01,9.63-34.21,19.13C5.44,127.29-.47,140.3.03,153.52c.5,13.21,7.96,26.32,19.82,32.18,12.53,6.19,27.59,3.81,40.84-.66,16.76-5.66,32.37-14.39,49.2-19.86,6.96-2.26,14.44-3.97,21.55-2.26,7.12,1.71,12.97,4.18,16.85,13.39,3.22-43.02-21.43-63.17-39.66-72.46Z"/>
          <path class="cls-12" d="m92.66,180.48c-1.59.67-2.98,1.75-4.46,2.63-1.49.89-3.02,1.72-4.54,2.55-3.06,1.67-6.11,3.34-9.27,4.8-6.3,2.91-12.91,5.15-19.72,6.5-11.98,2.37-24.54,1.86-36.02-2.52-6.22-2.37-12.18-5.94-17.11-10.42-.24-.21-.62.09-.39.33,4.1,4.41,8.83,7.84,14.24,10.49,5.47,2.68,11.37,4.44,17.38,5.37,13.61,2.1,27.31-.45,39.9-5.79,3.73-1.58,7.41-3.36,10.9-5.42,1.73-1.02,3.39-2.13,5.03-3.28,1.69-1.18,3.59-2.27,5-3.79.66-.71.02-1.87-.95-1.46Z"/>
          <path class="cls-12" d="m147.67,126.83c-2.8-6.36-6.95-12.06-12.1-16.71-2.59-2.34-5.44-4.39-8.47-6.12-1.42-.81-2.87-1.55-4.36-2.21-1.5-.66-3.27-1.41-4.9-1.6-.39-.04-.61.52-.26.73,1.34.83,2.91,1.4,4.33,2.11,1.56.78,3.08,1.61,4.55,2.54,2.78,1.76,5.37,3.8,7.74,6.07,4.81,4.6,8.65,10.14,11.21,16.28.62,1.49,2.92.4,2.27-1.09Z"/>
          <path class="cls-12" d="m107.4,173.46c-.77-.24-1.74.06-2.5.27-.77.21-1.52.48-2.24.81-.7.32-1.37.7-2,1.14-.67.47-1.43.99-1.77,1.75-.28.64.4,1.53,1.11,1.31.28-.08.5-.15.73-.32.14-.1.28-.22.42-.32.25-.18.41-.29.64-.43.59-.36,1.19-.7,1.82-.98.3-.14.61-.26.93-.38.34-.12.41-.15.78-.25.32-.09.65-.16.98-.22.4-.08.85-.07,1.2-.29.39-.24.66-.59.63-1.07-.03-.43-.3-.88-.73-1.02Z"/>
          <path class="cls-14" d="m55.61,116.18c.71-.67,1.5-1.3,2.37-1.9.86-.6,1.81-1.13,2.84-1.59,1.03-.46,2.13-.82,3.32-1.09,1.19-.26,2.47-.4,3.86-.4,1.82,0,3.51.27,5.07.8,1.56.53,2.9,1.28,4.03,2.25,1.13.97,2.02,2.14,2.66,3.53.65,1.38.97,2.94.97,4.67s-.26,3.26-.78,4.53c-.52,1.27-1.18,2.38-1.97,3.34-.8.96-1.67,1.79-2.61,2.49-.95.7-1.83,1.37-2.65,1.99-.82.62-1.52,1.25-2.11,1.87-.59.62-.93,1.31-1.02,2.07l-.62,5.29h-4.22l-.41-5.74v-.38c0-.97.26-1.83.78-2.58.52-.75,1.18-1.45,1.97-2.11.8-.66,1.65-1.31,2.56-1.97.91-.66,1.76-1.38,2.56-2.18.8-.8,1.45-1.7,1.97-2.71.52-1.01.78-2.21.78-3.6,0-.99-.2-1.89-.59-2.7-.39-.81-.92-1.49-1.59-2.06-.67-.56-1.46-1-2.37-1.3-.91-.3-1.88-.45-2.92-.45-1.41,0-2.61.17-3.61.52-1,.35-1.85.73-2.54,1.14-.69.42-1.25.8-1.68,1.14-.43.35-.78.52-1.05.52-.58,0-1.03-.26-1.35-.8l-1.63-2.59Zm6.78,41.33c0-.6.11-1.16.33-1.69.22-.53.52-.99.9-1.38.38-.39.84-.7,1.37-.93.53-.23,1.1-.35,1.7-.35s1.16.12,1.69.35c.53.23.99.54,1.38.93.39.39.7.85.92,1.38.22.53.33,1.1.33,1.69s-.11,1.19-.33,1.71c-.22.52-.52.97-.92,1.37-.39.39-.85.7-1.38.92-.53.22-1.1.33-1.69.33s-1.16-.11-1.7-.33c-.53-.22-.99-.52-1.37-.92-.38-.39-.68-.85-.9-1.37-.22-.52-.33-1.09-.33-1.71Z"/>
        </g>
        <path class="cls-16" d="m634.54,251.68c0-.51-.01-1.04-.03-1.54-.03-.92-.08-1.85-.16-2.76-.01-.23-.02-.45-.04-.68-.16-1.76-.37-3.51-.66-5.23-.63-3.84-1.59-7.56-2.84-11.14-.36-1.06-.76-2.09-1.17-3.12-.17-.4-.34-.8-.51-1.2-.59-1.37-1.22-2.72-1.9-4.04l-.63-1.2c-2.26-4.23-4.98-8.19-8.09-11.82-.35-.41-.71-.82-1.06-1.23-.94-1.06-1.93-2.09-2.94-3.08-.74-.74-1.5-1.46-2.28-2.15-11.99-10.8-27.89-17.39-45.3-17.39s-33.29,6.58-45.29,17.39c-.78.69-1.54,1.41-2.29,2.15-1.01.99-1.99,2.02-2.94,3.08-.36.41-.72.82-1.06,1.23-3.1,3.63-5.82,7.59-8.08,11.82l-.63,1.2c-.67,1.32-1.32,2.66-1.9,4.04-.17.4-.34.8-.51,1.2-.42,1.03-.81,2.06-1.18,3.12-1.25,3.58-2.21,7.3-2.84,11.14-.28,1.72-.51,3.47-.65,5.23-.02.23-.03.45-.04.68-.07.91-.13,1.84-.16,2.76-.02.5-.03,1.03-.03,1.54-.01.25-.01.5-.01.76,0,.98.02,1.96.06,2.93.07,1.89.24,3.74.47,5.58.22,1.76.52,3.51.87,5.23.18.86.38,1.71.59,2.56.36,1.46.78,2.9,1.23,4.31.72,2.19,1.54,4.34,2.47,6.44.14.31.28.63.43.94.67,1.47,1.4,2.89,2.17,4.29.17.31.35.63.54.93.86,1.52,1.79,3.01,2.78,4.45,1,1.48,2.05,2.92,3.18,4.31,1.54,1.92,3.18,3.76,4.93,5.5,1.85,1.86,3.81,3.61,5.88,5.23,11.52,9.13,26.09,14.59,41.9,14.61.04,0,.07,0,.11,0,.04,0,.08,0,.13,0,15.82-.03,30.37-5.49,41.88-14.61,2.07-1.63,4.03-3.38,5.88-5.23,1.75-1.74,3.39-3.58,4.93-5.5,1.13-1.4,2.18-2.83,3.18-4.31.99-1.44,1.92-2.93,2.78-4.45.19-.3.37-.62.54-.93.77-1.4,1.5-2.82,2.17-4.29.14-.31.28-.63.42-.94.93-2.1,1.75-4.25,2.47-6.44.45-1.42.87-2.85,1.23-4.31.21-.85.41-1.7.59-2.56.36-1.72.65-3.47.87-5.23.23-1.84.4-3.69.47-5.58.05-.97.07-1.95.07-2.93,0-.25,0-.5-.01-.76Zm-7.4-10.22c.32,1.72.56,3.46.73,5.23.02.23.04.45.05.68h-18.37c-.29-5.87-1.06-11.6-2.28-17.06h16.7c1.4,3.57,2.48,7.29,3.17,11.14Zm-23.55,11.29c0,5.53-.46,10.89-1.3,15.99h-12.7c.44-5.22.67-10.63.67-16.14,0-.31,0-.61,0-.92h13.32c0,.36.02.71.02,1.07Zm-73.33,0c0-.36.01-.71.02-1.07h13.32c0,.31,0,.61,0,.92,0,5.51.23,10.92.67,16.14h-12.7c-.84-5.1-1.3-10.45-1.3-15.99Zm54.7-.15c0,5.57-.26,10.99-.74,16.14h-14.67v-17.06h15.41c0,.31,0,.61,0,.92Zm-36.08,0c0-.31,0-.61,0-.92h15.41v17.06h-14.67c-.48-5.15-.74-10.56-.74-16.14Zm20.67-57.5c2.7,1.34,5.23,4.69,7.43,9.55h-7.43v-9.55Zm-5.25,0v9.55h-7.43c2.2-4.86,4.73-8.22,7.43-9.55Zm0,13.86v17.06h-13.34c1.06-6.47,2.49-12.25,4.2-17.06h9.14Zm0,21.37v17.06h-15.34c.17-5.96.64-11.7,1.35-17.06h13.99Zm0,42.72v17.06h-11.03c-1.34-5.05-2.43-10.81-3.18-17.06h14.21Zm0,21.37v15.69c-3.72-1.84-7.12-7.52-9.76-15.69h9.76Zm5.25,15.69v-15.69h9.76c-2.65,8.17-6.04,13.85-9.76,15.69Zm0-20v-17.06h14.21c-.75,6.25-1.84,12.01-3.18,17.06h-11.03Zm0-42.72v-17.06h13.99c.71,5.35,1.18,11.09,1.35,17.06h-15.34Zm0-21.37v-17.06h9.15c1.7,4.8,3.13,10.59,4.2,17.06h-13.34Zm15.1-17.06h7.59c3.09,4.89,5.67,10.65,7.58,17.06h-11.46c-.92-6.16-2.16-11.92-3.71-17.06Zm-1.43-4.31c-1.26-3.5-2.65-6.53-4.14-9.08,3.67,2.14,7.08,5.23,10.11,9.08h-5.97Zm-28.47-9.08c-1.49,2.54-2.87,5.58-4.14,9.08h-5.97c3.03-3.85,6.44-6.93,10.11-9.08Zm-5.56,13.39c-1.55,5.14-2.79,10.89-3.71,17.06h-11.46c1.91-6.41,4.49-12.17,7.58-17.06h7.59Zm-4.3,21.37c-.66,5.45-1.08,11.18-1.23,17.06h-13.25c.32-5.98,1.16-11.7,2.46-17.06h12.03Zm-.21,42.72c.67,6.05,1.63,11.79,2.87,17.06h-9.49c-2.42-5.1-4.36-10.84-5.7-17.06h12.31Zm3.98,21.37c.41,1.46.83,2.88,1.29,4.24,1.51,4.54,3.22,8.35,5.07,11.43-5.65-3.21-10.68-8.65-14.71-15.67h8.34Zm30.14,15.67c1.86-3.07,3.57-6.89,5.07-11.43.45-1.37.88-2.79,1.29-4.24h8.34c-4.03,7.03-9.06,12.46-14.71,15.67Zm7.47-19.98c1.24-5.26,2.21-11,2.87-17.06h12.31c-1.34,6.22-3.28,11.96-5.7,17.06h-9.49Zm3.9-42.72c-.16-5.88-.57-11.6-1.23-17.06h12.03c1.3,5.35,2.14,11.08,2.46,17.06h-13.25Zm29.04-26.6c.24.4.47.8.71,1.2.77,1.31,1.49,2.66,2.16,4.04h-15.9c-1.7-6.15-3.99-11.9-6.83-17.06h10.42c3.61,3.52,6.78,7.5,9.44,11.82Zm-14.36-16.13h-8.1c-2.2-3.36-4.59-6.3-7.14-8.8,4.39,1.75,8.53,3.98,12.35,6.65.98.68,1.95,1.4,2.89,2.15Zm-72.98-2.15c3.82-2.67,7.97-4.9,12.36-6.65-2.55,2.5-4.94,5.44-7.14,8.8h-8.1c.94-.76,1.91-1.47,2.89-2.15Zm-17.96,19.48c.23-.4.47-.8.72-1.2,2.65-4.33,5.84-8.3,9.45-11.82h10.41c-2.84,5.16-5.13,10.91-6.83,17.06h-15.92c.67-1.37,1.39-2.73,2.16-4.04Zm-7.94,24.72c.17-1.77.41-3.51.74-5.23.7-3.85,1.77-7.57,3.17-11.14h16.7c-1.22,5.46-1.99,11.18-2.28,17.06h-18.38c.01-.23.03-.45.05-.68Zm1.32,19.48c-.41-1.71-.73-3.46-.98-5.23-.26-1.84-.43-3.69-.53-5.58-.04-.98-.07-1.95-.07-2.93,0-.25,0-.5.01-.76h18.45c0,.36-.02.71-.02,1.07,0,5.46.41,10.81,1.21,15.99h-17.43c-.24-.85-.45-1.7-.65-2.56Zm8.36,19.48c-.21-.3-.41-.62-.61-.93-.87-1.4-1.71-2.82-2.47-4.29-.17-.31-.33-.63-.48-.94-1.04-2.09-1.97-4.24-2.77-6.44h16.83c1.21,6.04,2.96,11.78,5.22,17.06h-12.51c-1.15-1.44-2.21-2.92-3.21-4.45Zm12.95,14.26c-2.12-1.7-4.12-3.54-5.98-5.5h10.76c.91,1.8,1.88,3.54,2.91,5.2,2.12,3.4,4.43,6.39,6.9,8.97-2.39-1-4.71-2.15-6.94-3.44-2.69-1.55-5.25-3.3-7.65-5.23Zm76.67,0c-2.4,1.93-4.96,3.68-7.65,5.23-2.22,1.29-4.55,2.44-6.94,3.45,2.47-2.58,4.78-5.57,6.9-8.98,1.04-1.66,2-3.4,2.91-5.2h10.76c-1.86,1.96-3.87,3.8-5.98,5.5Zm16.51-20.42c-.16.31-.32.63-.48.94-.76,1.47-1.59,2.89-2.47,4.29-.2.31-.4.63-.61.93-1,1.53-2.07,3.01-3.21,4.45h-12.5c2.26-5.28,4.01-11.02,5.22-17.06h16.83c-.8,2.2-1.73,4.35-2.77,6.44Zm-13.28-10.75c.8-5.17,1.21-10.53,1.21-15.99,0-.36-.01-.71-.02-1.07h18.44c.01.25.01.5.01.76,0,.98-.02,1.95-.06,2.93-.08,1.89-.26,3.74-.53,5.58-.24,1.77-.57,3.52-.97,5.23-.2.86-.42,1.71-.66,2.56h-17.42Z"/>
      </g>
    </g>
  </g>
</svg>