<?xml version="1.0" encoding="UTF-8"?>
<svg id="Layer_1" data-name="Layer 1" xmlns="http://www.w3.org/2000/svg" xmlns:xlink="http://www.w3.org/1999/xlink" viewBox="0 0 2468 1665.31">
  <defs>
    <style>
      .cls-1 {
        fill: #008d8d;
      }

      .cls-1, .cls-2, .cls-3, .cls-4, .cls-5, .cls-6, .cls-7, .cls-8, .cls-9, .cls-10, .cls-11, .cls-12, .cls-13, .cls-14, .cls-15, .cls-16, .cls-17, .cls-18, .cls-19, .cls-20, .cls-21, .cls-22, .cls-23, .cls-24, .cls-25, .cls-26, .cls-27, .cls-28, .cls-29, .cls-30, .cls-31, .cls-32, .cls-33, .cls-34, .cls-35, .cls-36, .cls-37, .cls-38, .cls-39, .cls-40, .cls-41, .cls-42, .cls-43, .cls-44, .cls-45, .cls-46, .cls-47, .cls-48, .cls-49, .cls-50, .cls-51, .cls-52, .cls-53, .cls-54, .cls-55 {
        stroke-width: 0px;
      }

      .cls-2 {
        fill: url(#_ÂÁ_Ï_ÌÌ_È_ËÂÌÚ_140);
      }

      .cls-3 {
        fill: url(#linear-gradient);
      }

      .cls-4 {
        fill: #0c1540;
      }

      .cls-5 {
        fill: #203565;
      }

      .cls-6 {
        fill: #262626;
      }

      .cls-7 {
        fill: #553736;
      }

      .cls-8 {
        fill: url(#linear-gradient-6);
      }

      .cls-9 {
        fill: #244186;
      }

      .cls-10 {
        fill: #23406d;
      }

      .cls-56 {
        fill: none;
        stroke: #efedef;
      }

      .cls-56, .cls-57, .cls-58 {
        stroke-miterlimit: 10;
        stroke-width: 2.94px;
      }

      .cls-11 {
        fill: #989799;
      }

      .cls-12 {
        fill: #ff7500;
      }

      .cls-13 {
        fill: #333233;
      }

      .cls-57 {
        stroke: #000;
      }

      .cls-57, .cls-21 {
        fill: #0a060d;
      }

      .cls-14 {
        fill: url(#linear-gradient-11);
      }

      .cls-15 {
        fill: #515051;
      }

      .cls-16 {
        fill: #31365f;
      }

      .cls-17 {
        fill: url(#linear-gradient-5);
      }

      .cls-18 {
        fill: #d3ddf8;
      }

      .cls-19 {
        fill: #d08058;
      }

      .cls-20 {
        opacity: .08;
      }

      .cls-22 {
        fill: #ddd;
      }

      .cls-58 {
        fill: #282827;
        stroke: #040305;
      }

      .cls-23 {
        fill: #333;
      }

      .cls-24 {
        fill: #3f4676;
      }

      .cls-25 {
        fill: #6f8fe4;
      }

      .cls-26, .cls-40 {
        fill: #fff;
      }

      .cls-27 {
        fill: #c3cddd;
      }

      .cls-28 {
        fill: #1b3151;
      }

      .cls-29 {
        fill: url(#linear-gradient-2);
      }

      .cls-30 {
        fill: #83a5f2;
      }

      .cls-31 {
        fill: #2f41a4;
      }

      .cls-32 {
        fill: #3d3d3d;
      }

      .cls-33 {
        fill: url(#linear-gradient-7);
      }

      .cls-34 {
        fill: #047672;
      }

      .cls-35 {
        fill: url(#linear-gradient-3);
      }

      .cls-36 {
        fill: #ff7c01;
      }

      .cls-37 {
        fill: #2647c8;
      }

      .cls-38 {
        fill: #e4ebf7;
      }

      .cls-39 {
        fill: url(#linear-gradient-9);
      }

      .cls-40 {
        opacity: .64;
      }

      .cls-41 {
        fill: #696969;
      }

      .cls-42 {
        fill: url(#linear-gradient-8);
      }

      .cls-43 {
        fill: #3a3a3a;
      }

      .cls-44 {
        fill: #9eb2ef;
      }

      .cls-45 {
        fill: #b97b50;
      }

      .cls-46 {
        fill: #1e1e1e;
      }

      .cls-47 {
        fill: #6fc1b5;
      }

      .cls-48 {
        fill: url(#linear-gradient-10);
      }

      .cls-49 {
        fill: #191919;
      }

      .cls-50 {
        fill: #e4e2e4;
      }

      .cls-51 {
        fill: #5e5e5d;
      }

      .cls-52 {
        fill: url(#linear-gradient-4);
      }

      .cls-53 {
        fill: #f1eff1;
      }

      .cls-54 {
        fill: #d29c79;
      }

      .cls-55 {
        fill: #c6865c;
      }
    </style>
    <linearGradient id="linear-gradient" x1="615.48" y1="637.77" x2="980.73" y2="637.77" gradientUnits="userSpaceOnUse">
      <stop offset="0" stop-color="#ff7300"/>
      <stop offset="1" stop-color="#ffd000"/>
    </linearGradient>
    <linearGradient id="linear-gradient-2" x1="1187.73" y1="622.47" x2="1224.01" y2="622.47" xlink:href="#linear-gradient"/>
    <linearGradient id="linear-gradient-3" x1="1026.83" y1="554.12" x2="1055.54" y2="554.12" xlink:href="#linear-gradient"/>
    <linearGradient id="linear-gradient-4" x1="959.92" y1="557.27" x2="1042.29" y2="557.27" xlink:href="#linear-gradient"/>
    <linearGradient id="linear-gradient-5" x1="793.53" y1="528.08" x2="1202.77" y2="528.08" xlink:href="#linear-gradient"/>
    <linearGradient id="_ÂÁ_Ï_ÌÌ_È_ËÂÌÚ_140" data-name="¡ÂÁ˚ÏˇÌÌ˚È „‡‰ËÂÌÚ 140" x1="1213.68" y1="430.33" x2="1530.04" y2="430.33" gradientTransform="translate(28.6 -83.47) rotate(3.51)" gradientUnits="userSpaceOnUse">
      <stop offset="0" stop-color="#ffd000"/>
      <stop offset="1" stop-color="#ff7300"/>
    </linearGradient>
    <linearGradient id="linear-gradient-6" x1="1920.19" y1="1326.06" x2="2224.08" y2="1329.88" xlink:href="#linear-gradient"/>
    <linearGradient id="linear-gradient-7" x1="1915.08" y1="225.58" x2="1966.3" y2="225.58" gradientTransform="translate(25.06 -243.79) rotate(7.62)" gradientUnits="userSpaceOnUse">
      <stop offset="0" stop-color="#ffd000"/>
      <stop offset="1" stop-color="#ff7300"/>
    </linearGradient>
    <linearGradient id="linear-gradient-8" x1="1911.48" y1="227.05" x2="1966.3" y2="227.05" gradientTransform="translate(25.06 -243.79) rotate(7.62)" xlink:href="#linear-gradient"/>
    <linearGradient id="linear-gradient-9" x1="1785.88" y1="340.04" x2="1837.1" y2="340.04" xlink:href="#linear-gradient-7"/>
    <linearGradient id="linear-gradient-10" x1="1782.28" y1="341.52" x2="1837.1" y2="341.52" gradientTransform="translate(25.06 -243.79) rotate(7.62)" xlink:href="#linear-gradient"/>
    <linearGradient id="linear-gradient-11" x1="1973.63" y1="228.62" x2="2026.14" y2="228.62" gradientTransform="translate(25.06 -243.79) rotate(7.62)" xlink:href="#linear-gradient"/>
  </defs>
  <g>
    <path class="cls-38" d="m436.56,390.39c1.09-2.12,2.28-4.2,3.46-6.29,57.26-101.91,213.59-170.6,382.32-170.22,62.6.15,118.49,11.64,183,17.02,5.55.49,11.16.86,16.85,1.23,91.06,5.89,201.11-2.71,370.25-71.33C1655.46,54.11,1883.16-6.21,2018.5,88.7c1.72,1.13,3.36,2.32,4.94,3.58,18.43,13.59,35.03,30.21,49.7,50.13,42.58,57.61,23.21,134.92-34.43,215.72-1.83,2.56-3.72,5.18-5.63,7.75-41.57,56.07-101.08,113.56-170.66,167.11-7.49,5.75-14.63,11.66-21.5,17.73-2.13,1.72-4.23,3.59-6.24,5.49-38.45,34.7-66.76,72.37-89.89,110.28-1.07,1.75-2.15,3.5-3.23,5.25-42.45,71.09-67.74,142.79-108.61,198.22-3.35,4.54-6.8,8.94-10.5,13.27-1.54,1.88-3.15,3.77-4.85,5.63-13.19,14.98-28.25,28.86-44.96,41.49-1.92,1.52-3.92,3.01-5.93,4.45-45.47,33.14-102.17,57.79-166.29,73.13-3.25.75-6.43,1.49-9.68,2.24-99.67,22.11-216.32,22-335.76-3.62-3.16-.63-6.25-1.32-9.43-2.04-78.38-17.59-157.8-46.27-234.21-86.82-2.38-1.23-4.76-2.51-7.15-3.79-68.7-37.22-134.99-84.12-195.77-141.42-1.52-1.37-2.95-2.76-4.39-4.14-20.85-19.89-41.02-41-60.51-63.37-1.2-1.42-2.41-2.85-3.69-4.26-14.79-17.34-29.22-35.37-43.06-54.23-1.12-1.44-2.18-2.94-3.22-4.39-15.22-20.88-29.86-42.59-43.7-65.33-41.36-67.71-41.48-131.61-13.28-186.39Z"/>
    <g>
      <path class="cls-26" d="m493.55,642.12c69.19-27.4,147.63-50.95,226.98-64.18,73.33-12.22,147.41-15.55,215.63-4.86,126.46,19.9,217.54,84.3,270.8,191.52,67.3,135.53,137.02,206.38,193.45,243.34-3.25.75-6.43,1.49-9.68,2.24-56.48-38.21-124.94-109.74-191.28-243.33-52.44-105.68-141.99-169.14-266.13-188.63-139.59-21.95-305.01,16.35-436.55,68.29-1.12-1.44-2.18-2.94-3.22-4.39Z"/>
      <path class="cls-26" d="m539.83,700.73c53.86-18.51,102.63-31.4,146.53-38.72,58.85-9.81,108.99-9.62,151.03.35,86.93,20.67,141.62,82.91,167.16,190.3,14.9,62.38,32.52,113.09,50.42,153.9-3.16-.63-6.25-1.32-9.43-2.04-17.33-40.28-34.36-89.89-48.77-150.3-25.17-105.67-78.46-166.78-162.96-186.86-71.27-16.94-166.94-4.61-290.28,37.63-1.2-1.42-2.41-2.85-3.69-4.26Z"/>
      <path class="cls-26" d="m604.03,768.36c28.59-9.43,54.42-16.09,77.59-19.95,43.9-7.32,77.97-4.61,101.82,8.18,52.54,28.08,46.32,98.9,27.89,161.12-2.38-1.23-4.76-2.51-7.15-3.79,17.25-60.14,22.5-127.08-26.15-153.08-33.99-18.12-90.92-14.19-169.62,11.66-1.52-1.37-2.95-2.76-4.39-4.14Z"/>
      <path class="cls-26" d="m436.56,390.39c1.09-2.12,2.28-4.2,3.46-6.29,31.25-7.93,66.04-15.41,104.31-21.78,163.33-27.22,390.16-34.37,676.78,28.63,370.61,81.43,638.72,30.94,798.34-25.74,6.53-2.35,12.97-4.68,19.25-7.08-1.83,2.56-3.72,5.18-5.63,7.75-3.56,1.33-7.13,2.6-10.69,3.88-161.14,57.24-431.5,108.21-804.61,26.26-355.74-78.14-618.45-47.83-781.21-5.62Z"/>
      <path class="cls-26" d="m1005.35,230.91c5.55.49,11.16.86,16.85,1.23,114.36,53.98,278.52,96.46,484.85,57.94,229.03-42.72,397.86-126.23,511.45-201.37,1.72,1.13,3.36,2.32,4.94,3.58-114.55,75.72-284.72,159.82-515.31,202.86-216.32,40.29-386.76-7.01-502.79-64.22Z"/>
      <path class="cls-26" d="m1369.68,692.22c-1.4-54.25,32.03-95.45,96.7-119.11,23.35-8.55,49.47-14.95,77.56-19.63,87.73-14.62,194.88-12.09,296.98-2.75-2.13,1.72-4.23,3.59-6.24,5.49-132.71-12.04-272.88-12.37-365.29,21.42-77.62,28.44-92.77,77.54-91.88,113.75,2.24,83.45,92.18,186.34,195.13,238.97-1.92,1.52-3.92,3.01-5.93,4.45-105.13-53.1-194.79-156.3-197.02-242.58Z"/>
      <path class="cls-26" d="m1525.14,657.88c8.65-4.53,19.23-7.71,31.2-9.7,48.44-8.07,120.73,2.88,188.45,18.32-1.07,1.75-2.15,3.5-3.23,5.25-82.64-19.03-171.47-31.31-212.14-9.91-64.92,34.18,39.32,162.09,93.04,221.41-1.54,1.88-3.15,3.77-4.85,5.63-54.11-59.25-164.41-193.11-92.46-230.98Z"/>
    </g>
  </g>
  <ellipse class="cls-38" cx="1199.11" cy="1511.92" rx="1199.11" ry="153.39"/>
  <ellipse class="cls-27" cx="1028.14" cy="1517.33" rx="739.08" ry="82.75"/>
  <path class="cls-22" d="m965.47,1337.61l-16.73,67.03s-32.46,39.89-74.53.8l13.32-79.94,78.68,2.16-.74,9.95Z"/>
  <polygon class="cls-26" points="865.54 1451.66 1087.81 1445.6 1090.31 1451.66 865.54 1456.96 865.54 1451.66"/>
  <g>
    <path class="cls-47" d="m875.95,1395.05s-5.28,37.45-8.35,56.61l220.21-6.06s-9.06-20.65-135.68-54.56c0,0-48.63,66.22-76.19,4Z"/>
    <g>
      <path class="cls-26" d="m977.24,1398.1s-5.16,7.87.79,12.48c.4.31.91.47,1.42.51l1.05-.63s-5.72-8.04,1.03-11.13l-4.28-1.23Z"/>
      <path class="cls-26" d="m987.93,1401.32s-5.52,8.41,1.44,12.94l1.89-.46s-5.79-8.15.95-11.24l-4.28-1.23Z"/>
      <path class="cls-26" d="m997.46,1404.18s-5.52,8.41,1.44,12.94l1.7-.79s-5.59-7.82,1.15-10.92l-4.28-1.23Z"/>
    </g>
    <path class="cls-47" d="m875.95,1395.05s-1.86-1.5-2.32,0c-.46,1.5-8.09,56.61-8.09,56.61h3.77l7.22-55.32-.58-1.29Z"/>
  </g>
  <path class="cls-47" d="m865.54,1456.96s-5.61,1.47-5.61,5.88v4.41s230.38-10.39,230.38-12.99v-2.6l-224.77,5.3Z"/>
  <g>
    <g>
      <g>
        <polygon class="cls-55" points="845.41 631.44 773.19 1421.82 804.72 1412.08 895.87 636.36 845.41 631.44"/>
        <polygon class="cls-45" points="831.89 634.83 760.74 1407.43 773.19 1421.82 847.8 635.43 831.89 634.83"/>
      </g>
      <g>
        <polygon class="cls-55" points="1050.05 656.76 1067.35 1378.49 1087.93 1367.7 1089.41 658.8 1050.05 656.76"/>
        <polygon class="cls-45" points="1067.35 1378.49 1051.84 1379.71 1038.06 661.25 1050.51 661.91 1067.35 1378.49"/>
      </g>
      <polygon class="cls-55" points="1591.28 668.48 1659.63 1430.62 1684.84 1414.52 1631.81 654.49 1591.28 668.48"/>
      <polygon class="cls-45" points="1578.75 676.25 1641.66 1427.26 1660.36 1430.62 1593.74 670.96 1578.75 676.25"/>
      <polygon class="cls-55" points="1402.98 683.47 1407.67 1488.18 1442.87 1475.26 1453.6 686.11 1402.98 683.47"/>
      <polygon class="cls-45" points="1382.13 683.03 1392.17 1479.23 1407.67 1488.18 1402.98 684.11 1382.13 683.03"/>
      <polygon class="cls-55" points="1728.67 595 1728.67 624.48 1537.75 691.86 1537.75 656.76 1728.67 595"/>
      <polygon class="cls-54" points="1537.75 656.76 607.02 612.54 1032.38 564.11 1728.67 595 1537.75 656.76"/>
      <polygon class="cls-45" points="1537.75 656.76 1537.75 691.86 607.02 643.43 607.02 612.54 1537.75 656.76"/>
    </g>
    <polygon class="cls-55" points="1442.97 1024.76 1633.21 1011.71 1635.2 1033.35 1442.31 1046.44 1442.97 1024.76"/>
    <polygon class="cls-45" points="1442.31 1012.63 1631.51 1001.45 1633.21 1012.63 1442.97 1025.33 1442.31 1012.63"/>
  </g>
  <g>
    <path class="cls-58" d="m1531.3,578.77l111.75-269.52c.22-.53.39-1.07.52-1.63.87-3.89,3.26-18.74-10.9-18.74h-377.05s-12.64-.8-15.73,12.92c-3.67,16.29-80.76,214.92-101.97,269.44-2.58,6.63,2.32,13.77,9.43,13.77h374.61c4.09,0,7.78-2.46,9.34-6.24Z"/>
    <path class="cls-41" d="m1260.04,301.24h359.44c5.81,0,9.8,5.83,7.71,11.25l-99.74,257.76c-1.61,4.16-5.61,6.9-10.06,6.9h-357.24c-6.26,0-10.57-6.27-8.33-12.11l98.42-257.03c1.56-4.07,5.46-6.75,9.82-6.75Z"/>
    <path class="cls-26" d="m1524.61,560.2l87.33-239.61c1.34-3.67-1.38-7.55-5.28-7.55h-344.42c-3.97,0-7.53,2.48-8.89,6.21l-87.4,238.36c-1.48,4.03,1.5,8.29,5.79,8.29h344.73c3.65,0,6.9-2.28,8.15-5.7Z"/>
    <path class="cls-32" d="m1643.57,307.62l-104.18,285.26s-1.93,1.38-3.09,7.99c-1.17,6.7-6.84,11.67-13.65,11.67h-271.53v-27.53h270.83l121.61-277.39Z"/>
    <ellipse class="cls-11" cx="1503.64" cy="600.39" rx="5.51" ry="4.9"/>
    <rect class="cls-11" x="1443.68" y="594.29" width="19.85" height="9.25"/>
    <rect class="cls-11" x="1418.37" y="595.76" width="19.85" height="9.25"/>
  </g>
  <polygon class="cls-49" points="1005.88 599.47 1327.66 597.17 1323.92 581.52 1127.56 584.46 1005.88 599.47"/>
  <path class="cls-16" d="m517.87,1556.97c34.4-44.53,255.61-304.18,524.13-.22,2.56,2.89-.81,6.45-6.09,6.45h-21.89c-2.58,0-4.94-.88-6.14-2.31-21.94-26.23-231.12-261.88-459.28.03-1.22,1.39-3.55,2.28-6.09,2.28h-18.37c-5.12,0-8.5-3.34-6.27-6.23Z"/>
  <path class="cls-24" d="m734.97,991.61l16.33,568.07c.1,3.87,3.18,6.96,6.94,6.96h19.93c3.74,0,6.81-3.06,6.94-6.91l20.68-568.07c.13-4.04-3.01-7.4-6.94-7.4h-56.94c-3.91,0-7.05,3.32-6.94,7.34Z"/>
  <path class="cls-49" d="m1137.25,574.5l-119.84,8.18h-29.17l17.65,16.79,137.86-12.31s-8.2-6.8-6.49-12.65Z"/>
  <ellipse class="cls-50" cx="1352.01" cy="620.4" rx="56.39" ry="22.64" transform="translate(-85.34 237.17) rotate(-9.72)"/>
  <ellipse class="cls-53" cx="1349.75" cy="613.64" rx="52.48" ry="21.43" transform="translate(-84.23 236.69) rotate(-9.72)"/>
  <path class="cls-10" d="m971.96,790.03s288.2-14.13,326.43,28.51c38.23,42.64-45.51,540.11-45.51,540.11,0,0-21.57,32.35-124.5,16.67,0,0,14.71-336.26,35.29-368.61,0,0-20.83,13.97-27.45,13.97l-142.15,308.56s-127.44,23.53-126.46,1.96c0,0,85.93-278.14,66.35-376.34l-255.56,23.42v-162.74l293.55-25.52Z"/>
  <path class="cls-34" d="m592.56,1043.65s31.56,41.69,145.87,41.69,221.93-5.21,221.93-5.21c0,0,142.42-38.2,175.74-66.46l-197.26,42.62-346.27-12.63Z"/>
  <path class="cls-22" d="m954.77,101.52s5.8,49.75,2.64,62.47c0,0-12.5.55-2.4,23.84,10.39,23.98,16.83,37.09-7.59,40.07,0,0-2.54,14.2-2.11,17.55,0,0-3.88,3.5-6.49,4.8,0,0,5.39,5.67-4.47,14.83-8.26,7.68-9.8,8.39-8.94,24.58.87,16.19-41.39,8.68-65.43-3.7-24.04-12.37-67.25,94.08-67.25,94.08l-96.78-45.72s47.38-35.86,62.59-121.41l30.21-44.65s-9.27-28.07,18.74-33.93c28.01-5.87,39.62,11.24,34.53,41.3l11.95-1.15s-.49-31.91,24.69-36.19c25.19-4.28,24.73-31.15,21.73-38.61-3-7.46-25.15-23.26-25.15-23.26l34.02,12.31,38.96,7.29,6.52,5.5Z"/>
  <path class="cls-57" d="m805.86,135.46s-22.1,28.72.8,65.2c0,0-2.57,7.26-5.3,10.02l-1.4-.18s-24.7-59.35,5.9-75.03Z"/>
  <path class="cls-6" d="m859.99,285.98s-10.84-7.14-32.78,25.95l-3.06-2.94s21.93-30.2,35.84-23.01Z"/>
  <path class="cls-6" d="m758.56,212.92s-16.64,65.67-30.24,79.27h17.28s13.79-60.76,12.96-79.27Z"/>
  <path class="cls-6" d="m955.39,107.2v-7.99l-64.46-17.96-17.21-6.45s25.48,23.07,29.01,23.46,15.1,5.52,19.52,4.97c4.42-.54,17.38.76,19.81,2.13,2.43,1.37,13.68,5.05,13.34,1.84Z"/>
  <path class="cls-22" d="m1141.04,1377.05v82.57s47.15,29.41,76.56,0v-93.13h-76.56v10.56Z"/>
  <path class="cls-36" d="m711.92,316.1s-11.14-22.48,23.59-29.38c23.79-4.72,69.53,11.18,87.25,20.52,5.24,2.76,8.53,8.18,8.53,14.1v13s-34.82-25.7-119.37-18.24Z"/>
  <path class="cls-3" d="m831.29,334.33s-33.88-25.59-119.37-18.24c0,0-86.42,31.29-94.5,107.14-8.08,75.85,11.61,497.15,11.61,497.15,0,0,385.37,146.34,349.32-118.15-.64-4.69-2.89-9.02-6.39-12.2-15.57-14.16-61.84-64.72-80.99-179.66,0,0-151.31-148.53-72.98-246.76,0,0,26.97-11.86,36.92-10.62l-23.62-18.65Z"/>
  <path class="cls-34" d="m504.66,531.08s-11.16-29.81,58.61-36.69c69.77-6.88,212.28,2.29,268.69,45.86,56.41,43.57,72.74,146.77,75.71,207.16,2.97,60.39-4.45,171.99,42.31,203.33,46.76,31.34,94.26,33.63,143.99,30.58,49.73-3.06,51.44,12.23,51.44,12.23l-233.29,22.93-44.53-262.08-69.77-201.92-134.34-22.93-143.25,4.59-15.56-3.06Z"/>
  <path class="cls-47" d="m1132.56,1503.01s-7.11,4.12-6.62,11.5c.49,7.38,283.52,42.72,228.76-15.88l-222.15-1.5v5.88Z"/>
  <path class="cls-6" d="m922.6,248.8s14.52-.87,16.4,1.7l6.3-5.04s-10.99-1.19-22.71,3.34Z"/>
  <path class="cls-6" d="m936.69,262.68c.32.12,6.81-7.7,2.32-12.18,0,0-1.39-2.22-16.4-1.7,0,0-.76,2.27,14.09,13.88Z"/>
  <path class="cls-57" d="m937.39,97.38c4.28-1.96,17.23,5.01,20.22,4.15,2.99-.86,14.03-13.73,5.65-39.6,0,0,.57-17.97-13.84-26.54,0,0-1.07-6.36-11.93-9.49,0,0-7.76-6.37-14.55-5.44,0,0-2.65-1.86-6.94-1.34,0,0-4.06-4.06-9.61-3.46,0,0-8.2-1.26-13.18-3.75,0,0-11.03-1.85-13.19-4,0,0-5.51-2.95-9.26-1.96,0,0-2.73-3.13-27.16-4.14-24.43-1.01-41.9-.43-60.67,11.91-18.77,12.34-37.87,31.55-46.87,62.31-8.99,30.76-2.13,58.08,14.68,78.01,16.81,19.93,9.36,58.89,9.36,58.89l39.84-2.06s-20.93-70.1,10.14-76.43c31.07-6.34,33.2,22.29,32.99,29.75-.21,7.46-.97,11.57-.97,11.57l12.25-1.44s7.64-32.28,20.07-33.74c12.43-1.45,30.51-4.5,28.36-17.28-2.15-12.78,4.84-20.05-5-31.25-9.84-11.2-83.02-45.2-83.02-45.2l88.54,41.51s11.56,6.38,17.34,6.7c5.77.32,16.73,2.34,16.73,2.34Z"/>
  <path class="cls-51" d="m956.79,99.21s7.87-7.89,8.91-27.27c0,0,1.76,22.03-8.91,27.27Z"/>
  <path class="cls-51" d="m922.01,21.7s19.86,22.78,1.1,61.01c0,0,24.4-26.56-1.1-61.01Z"/>
  <path class="cls-46" d="m924.78,20.37s25.06,24.46,1.57,68.22c0,0,28.98-36.6-1.57-68.22Z"/>
  <path class="cls-13" d="m929.52,21.37s27.75,25.8,1.49,68.59c0,0,31.68-37.35-1.49-68.59Z"/>
  <path class="cls-13" d="m937.5,25.89s23.19,27.23,2.34,64.57c0,0,26.97-31.46-2.34-64.57Z"/>
  <path class="cls-15" d="m949.42,35.38s.15.28.4.8c2.38,4.99,13.99,32.27-4.15,55.6,0,0,25.61-20.72,3.75-56.4Z"/>
  <path class="cls-51" d="m963.26,61.1s1.29,26.8-14.63,34.73c0,0,18.27-1.61,14.63-34.73Z"/>
  <path class="cls-43" d="m860.57,45.67s20.4-36.29-18.18-43.91c0,0,24.74,6.7,18.18,43.91Z"/>
  <path class="cls-51" d="m914.27,48.15s14.82-30.87-7.87-32.5c0,0,14.57,5.69,7.87,32.5Z"/>
  <path class="cls-43" d="m870.77,5.95s15.34,5.89,8.86,40.31c0,0,18.06-39.96-8.86-40.31Z"/>
  <path class="cls-43" d="m888.65,10.99s8.73,10.55,3.31,29.41c0,0,13.91-22.8-3.31-29.41Z"/>
  <path class="cls-13" d="m851.83,23.69s4.92-22.76-37.88-21.33c0,0,32.12,2.21,37.88,21.33Z"/>
  <path class="cls-13" d="m848.04,48.22s8.83-29.23-17.71-39.75c-26.54-10.52-44.7,3.56-44.7,3.56,0,0,60.12-20.76,62.41,36.2Z"/>
  <path class="cls-51" d="m882.12,61.7s31.65-21.38,17.85-47.42c0,0,21.8,21.85-17.85,47.42Z"/>
  <path class="cls-51" d="m909.36,83.56s25.58-41.78,6.65-64.45c0,0,26.96,21.83-6.65,64.45Z"/>
  <path class="cls-43" d="m864.65,58.29s20.94-39.63-4.43-55.14c0,0,33.23,12.42,4.43,55.14Z"/>
  <path class="cls-51" d="m915.19,83.2s19.33-35.34,11.06-49.75c0,0,11.79,20.07-11.06,49.75Z"/>
  <path class="cls-13" d="m941.3,92.06s23.47-27.29,2.44-63.48c0,0,25,34.02-2.44,63.48Z"/>
  <path class="cls-13" d="m933.37,92.55s27.29-32.95,1.51-68.5c0,0,28.88,36.15-1.51,68.5Z"/>
  <path class="cls-15" d="m944.7,95.23s26.52-19.2,8.79-56.86c0,0,22.62,31.55-8.79,56.86Z"/>
  <path class="cls-51" d="m950.76,97.39s16.65-5.79,13.86-30.74c0,0,2.58,29.88-13.86,30.74Z"/>
  <path class="cls-15" d="m945.26,96.04s26.69-16.62,13.08-51.86c0,0,15.08,36.74-13.08,51.86Z"/>
  <path class="cls-51" d="m902.58,81.8c-.99.67,19.28-40.72,17.1-54.03,0,0,3.16,40.38-17.1,54.03Z"/>
  <path class="cls-51" d="m896.21,80.11c-.57.7,22.57-39.1,8.91-64.38,0,0,22.01,26.03-8.91,64.38Z"/>
  <path class="cls-51" d="m888.16,78.46s29.02-43.2,14.69-63.49c0,0,18.68,28.92-14.69,63.49Z"/>
  <path class="cls-51" d="m881.98,74.47s16.2-16.1,20.49-29.64c0,0-6.59,27.45-20.49,29.64Z"/>
  <path class="cls-51" d="m873.71,69.21s17.31-9.03,25.19-20.1c0,0-6.56,17.75-25.19,20.1Z"/>
  <path class="cls-13" d="m868.41,64.13c-2.77,1.21,39.15-23.59,28.26-50.83,0,0,20.09,29.71-28.26,50.83Z"/>
  <path class="cls-43" d="m858.21,64.8s42.66-19.84,25.96-54.98c0,0,22.35,34.74-25.96,54.98Z"/>
  <path class="cls-43" d="m886.27,10.42s19.4,34.24-25.99,55.03c0,0,47.68-16.43,25.99-55.03Z"/>
  <path class="cls-43" d="m866.51,4.29s24.42,15.96,3.2,51.21c0,0,26.93-27.76-3.2-51.21Z"/>
  <path class="cls-43" d="m852.63,62.12c-.95,1.14,33.85-43.22-.35-59.81,0,0,40.81,11.49.35,59.81Z"/>
  <path class="cls-43" d="m850.8,57.61s17.62-46.71-13.77-56.04c0,0,37.92,6.99,13.77,56.04Z"/>
  <path class="cls-13" d="m844.7,57.06s14.49-18.42-1.44-41.28c0,0,21.34,15.92,1.44,41.28Z"/>
  <path class="cls-51" d="m842.92,55.69s8.21-62.65-67.13-36.92c0,0,71.75-35.48,67.13,36.92Z"/>
  <path class="cls-51" d="m840.33,54.54s5.64-49.75-67.43-33.52c0,0,69.02-28.17,67.43,33.52Z"/>
  <path class="cls-51" d="m838.12,54.68s-3.76-42.57-69.03-30.46c0,0,62.8-20.59,69.03,30.46Z"/>
  <path class="cls-51" d="m835.56,53.06s-15.18-38.43-71.79-23.88c0,0,53.12-21.74,71.79,23.88Z"/>
  <path class="cls-51" d="m829.45,48.62s-18.31-28.89-69.61-15.32l3.93-4.12s47.44-13.3,65.68,19.44Z"/>
  <path class="cls-51" d="m826.5,48.81s-27.57-26.43-70.91-10.53l4.25-4.97s45.98-12.9,66.66,15.51Z"/>
  <path class="cls-51" d="m822.23,47.43s-23.4-19.5-70.53-3.98l3.9-5.17s40.33-13.82,66.63,9.15Z"/>
  <path class="cls-51" d="m818.95,46.62s-36.98-10.92-71.41,3.17l4.16-6.34s34.76-14.22,67.25,3.17Z"/>
  <path class="cls-13" d="m814.79,46.83s-54.58-3.27-72.16,12.03l4.91-9.08s30.94-12.89,67.25-2.95Z"/>
  <path class="cls-13" d="m814.86,47.89s-60.49-5.91-74.74,16.64c0,0,22.99-17.72,74.74-16.64Z"/>
  <path class="cls-51" d="m896.2,90.47s-2.28,27.21-24.29,29.86c-22,2.64-45.23-1.49-45.23-1.49,0,0,62.93,12.79,69.52-28.37Z"/>
  <path class="cls-51" d="m893.12,88.07s-1.33,40.92-69.85,27.69c0,0,55.52,9.66,69.85-27.69Z"/>
  <path class="cls-51" d="m858.42,68.21s-75.8,3.9-75.44,53.11c0,0,2.92-41.04,75.44-53.11Z"/>
  <path class="cls-51" d="m860.05,69.05s-80.23,19.08-71.67,61.38l2.9,16.18,5.79-6.68s-19.49-42.63,62.98-70.88Z"/>
  <path class="cls-51" d="m863.28,70.73s-58.6,20.81-59.07,43.17l-.46,22.36s2.82-23.16,10.21-31.54c7.39-8.38,49.32-33.99,49.32-33.99Z"/>
  <path class="cls-51" d="m864.58,72.9s-43.22,23.7-47.48,36.78c-4.26,13.07-2.52,24.05-2.52,24.05,0,0-.67-31.48,50-60.83Z"/>
  <path class="cls-13" d="m868.87,73.7s-20.56,14.35-28.59,15.66,17.14.08,28.59-15.66Z"/>
  <path class="cls-13" d="m870.92,74.8s-2.64,9.76-34.5,18.98c0,0,28.88-.74,34.5-18.98Z"/>
  <path class="cls-13" d="m873.76,76.35s-4.98,16.6-41.24,21.44c0,0,34.5,1.64,41.24-21.44Z"/>
  <path class="cls-13" d="m875.93,77.55s-3.87,23.05-45.46,22.54c0,0,41.41,7.51,45.46-22.54Z"/>
  <path class="cls-13" d="m878.6,79.05s-2.15,31.11-49.58,22.77c0,0,43.24,16.77,49.58-22.77Z"/>
  <path class="cls-13" d="m880.37,80.07s-1.57,40.34-53.15,24.02c0,0,47.72,24.9,53.15-24.02Z"/>
  <path class="cls-51" d="m897.81,92.03s1.31,21.38-15.28,32.51c0,0,25.33-14.5,17.33-29.9l-2.05-2.61Z"/>
  <path class="cls-51" d="m881.63,127.59c-4.77,3.06,20.5-7.35,20.92-20.07s-1.94-11.15-1.94-11.15c0,0,7.34,14.36-18.98,31.23Z"/>
  <path class="cls-51" d="m882.4,81.25s3.67,41.75-54.82,28.65c0,0,52.32,23.6,54.82-28.65Z"/>
  <path class="cls-51" d="m884.16,82.95s1.98,14.69-8.16,23.05c-10.14,8.36.07,1.13.07,1.13,0,0,13.05-13.07,14.78-20.63l-6.7-3.56Z"/>
  <path class="cls-51" d="m896.27,98.25s-7.09,34.7-56.16,27.62c0,0,47.39,18.07,56.16-27.62Z"/>
  <path class="cls-13" d="m816.78,47.77s-74.09,2.36-79.01,22.95-5.49,26.47-5.49,26.47c0,0,1.21-43.07,84.49-49.43Z"/>
  <path class="cls-13" d="m819.09,48.85s-68.6.01-86.86,49.27c0,0,25.86-44.15,86.86-49.27Z"/>
  <path class="cls-13" d="m734.18,121.06s23.46-57.98,88.29-69.79c0,0-62.33-.26-90.34,54.32,0,0,.28,9.07,2.05,15.47Z"/>
  <path class="cls-6" d="m735.37,125.61s25.14-63.74,90.54-73.51c0,0-69.87,17.21-86.65,83.89,0,0-3.05-7.29-3.9-10.38Z"/>
  <path class="cls-6" d="m835.79,56.68s-61.06,6.97-73.81,43.84c-12.76,36.87,23.51,109.7,23.51,109.7,0,0,9.34.77,8.64,0s-73.84-128.24,41.66-153.54Z"/>
  <path class="cls-6" d="m745.6,147.22s2.37-29.38,11.16-42.47c.17-.25.34-.49.51-.73,0,0-9.33,21.71,1.76,60.03,0,0-5.2-6.97-13.42-16.83Z"/>
  <path class="cls-51" d="m842.42,175.44s11.81-34.9-16.6-47.36c0,0,30.69,5.15,19.93,46.92l-3.34.44Z"/>
  <path class="cls-51" d="m902.51,114.37s2.67,5.66-23.7,20.25c-26.37,14.59-26.43,39.91-26.43,39.91l1.99-.23s2.76-27.79,18.62-34.49c15.87-6.7,28.87-14.72,29.51-25.43Z"/>
  <path class="cls-51" d="m850.3,173.96c.4-1.8,2.02-32.61,20.96-40.26,18.94-7.65,24.22-10.5,31.46-21.56,0,0-1.89,13.47-37.17,27.63,0,0-8.54,3.83-13.86,34.11l-1.39.09Z"/>
  <path class="cls-51" d="m880.89,125.86c.55-.24-23.49,4.6-27.05,15.31-3.56,10.71-5.9,32.94-5.9,32.94l2.36-.15s3.85-31.29,7.47-33.88,8.41-7.66,23.12-14.22Z"/>
  <path class="cls-51" d="m849.58,148.88c-1.93,5.15,1.8-14.49-15.67-23.38,0,0,23.79,1.73,15.67,23.38Z"/>
  <path class="cls-51" d="m902.53,121.21s3.34,12.77-23.34,18.73c0,0,18.78-8.13,23.34-18.73Z"/>
  <path class="cls-51" d="m833.71,135.83s-10.44-7.57-15.19-4.79c0,0,7.86-4.23,15.19,4.79Z"/>
  <path class="cls-51" d="m870.77,122.35s-28.97,2.49-49.34-.13c0,0,28.43,4.68,49.34.13Z"/>
  <path class="cls-51" d="m852.29,140.93s2.11-8.04-2.68-10.83c0,0,6.11.8,2.68,10.83Z"/>
  <path class="cls-51" d="m798.91,136.56s-3.78-13.85,2.3-22.72c0,0,3.32,17.88-2.3,22.72Z"/>
  <path class="cls-51" d="m807.89,134.15s.25-16.01,5.22-22.58c4.97-6.57,8-10.29,8-10.29,0,0-13.91,24.54-9.17,32.61l-4.04.25Z"/>
  <path class="cls-51" d="m854.58,136.79s-.68-5.47,5.42-5.84l-5.42,5.84Z"/>
  <path class="cls-6" d="m777.86,210.86s-22.23-67.48-21.45-76.71c0,0,24.87,75.84,27.7,76.53l-6.25.19Z"/>
  <path class="cls-6" d="m770.05,211.41s-12.41-61.1-13.66-67.26c-1.25-6.15-1.44-14.1-1.44-14.1,0,0,16.32,73.84,22.09,81.36h-6.98Z"/>
  <path class="cls-6" d="m762.14,212.14s1.66-28.86,1.5-32.05l5.65,31.31-7.15.74Z"/>
  <path class="cls-6" d="m794.31,210.64s-25.37-64.39-22.43-89.36l22.43,89.36Z"/>
  <path class="cls-6" d="m756.41,134.15s-3.52-22.42,3.13-33.75l6.64-11.33s-10.32,23.09-9.77,45.08Z"/>
  <path class="cls-6" d="m740.7,138.93s5.71-26.55,14.78-35.44c0,0-11.57,35.42-11.57,39.55s-.1,1.41-.1,1.41l-3.11-5.52Z"/>
  <path class="cls-6" d="m833.51,59.16s-27.04,9.97-35.76,14.32c-8.73,4.36-10.01,8.32-10.01,8.32,0,0,27.26-17.68,54.64-17.01l-8.87-5.64Z"/>
  <path class="cls-26" d="m1132.56,1497.12v7.62s104.99,15.14,148.52,15.9c43.29.76,91.32,1.34,73.63-22.03l-222.15-1.5Z"/>
  <path class="cls-47" d="m1141.04,1442.96s-8.48-.25-8.48,6.37v47.79s202.19,30.15,222.05,11.03c19.85-19.12-127.69-91.17-137-77.94,0,0-21.02,50.49-76.56,12.74Z"/>
  <g>
    <path class="cls-26" d="m1255.63,1437.83s-15.4,6.41-13.74,25.91c.1,1.15,1.1,2.02,2.25,2.02h0c1.2,0,2.2-.92,2.26-2.12.24-4.79,2.09-16.57,14.03-23.86l-4.8-1.94Z"/>
    <path class="cls-26" d="m1264.52,1441.5s-15.45,6.55-13.79,26.05c.1,1.15,1.1,2.02,2.25,2.02h0c1.2,0,2.2-.92,2.26-2.12.24-4.79,2.09-16.57,14.03-23.86l-4.75-2.09Z"/>
    <path class="cls-26" d="m1273.45,1445.45s-16.14,6.36-14.29,26.13c.09.93.9,1.65,1.84,1.65h.81c.98,0,1.79-.76,1.84-1.75.23-4.47,2.01-16.51,14.25-23.98l-4.45-2.06Z"/>
  </g>
  <g>
    <path class="cls-6" d="m835.88,163.23s-4.7-30.98-20.04-23.82c-15.34,7.16-5.01,37.35-5.01,37.35,0,0-2.69-24.32,7.2-29.3,0,0-4.03,24.89,3.62,29.3,0,0-4.25-16.39,2.33-23.33,0,0-.31,8.35,2.19,14.02,0,0,3.13-6.05,9.71-4.22Z"/>
    <path class="cls-6" d="m834.63,196.99c-1.37,1.66,3.44-10.54,1.25-14.07s-7.2-1.85-10.02-8.51c0,0,8.55,5.87,11.17,4.98,2.61-.89,7,6.29-2.4,17.61Z"/>
    <path class="cls-6" d="m835.88,165.96s-12.74,4.96-2.77,8.45c0,0-3.18-2.48,2.77-8.45Z"/>
    <path class="cls-6" d="m802.06,170.18s17.41,51.55,38.3,35.15c0,0-16.06,23.56-29.84-4.18-13.78-27.74-8.45-30.97-8.45-30.97Z"/>
  </g>
  <path class="cls-21" d="m951.36,153.78s-.59,6.22-1.18,6.74-8.67-.63-15.54-6.22c-6.87-5.6-20.48-2.89-22.83-.8,0,0,10.44-11.38,24.99-5.55l14.55,5.83Z"/>
  <g>
    <path class="cls-21" d="m919.14,176.03s13.15-7.89,29.09-2.5c0,0-21.88-.73-29.09,2.5Z"/>
    <path class="cls-21" d="m942.57,186.91s-5.96-2.73-12.92-4.34-10.5-6.54-10.5-6.54c0,0,8.65,6.17,16.35,7.03,7.7.86,7.9,4.69,7.9,4.69l-.83-.86Z"/>
    <path class="cls-51" d="m942.78,171.23s1.27-5.04-1.78-7.43c-3.05-2.4-21.85,12.24-21.85,12.24,0,0,10.14-7.07,23.63-4.81Z"/>
    <path class="cls-26" d="m919.08,175.94s12.17-3.67,18.72-3.39c6.55.29,4.77,6.25-.26,11.57,0,0-1.04-.44-6.01-1.69-4.97-1.25-10.95-3.93-12.45-6.49Z"/>
    <path class="cls-23" d="m943.27,179.27c-.54,2.98-3.39,5.21-5.42,4.9-2.03-.31-2.47-3.03-1.94-6.01.54-2.98,2.96-5.5,4.65-4.84,1.9.73,3.24,2.98,2.7,5.96Z"/>
    <ellipse class="cls-21" cx="940.89" cy="179.33" rx="4.17" ry="2.31" transform="translate(551.18 1054.3) rotate(-76.78)"/>
    <ellipse class="cls-26" cx="940.14" cy="175.85" rx=".95" ry=".86" transform="translate(487.41 1018.35) rotate(-72.34)"/>
  </g>
  <path class="cls-51" d="m941.56,221.54s-1.5,4.81,5.86,6.37c7.36,1.56,20.14-7.86,14.69-9.58-5.45-1.72-18.76,5.33-15.65-.77,2.85-5.59,4-5.82,4-5.82,0,0-9.1,3.12-17.73,13.5,0,0,7.62-4.26,8.83-3.69Z"/>
  <path class="cls-7" d="m944.29,222.63s-.91,2.08,2.33,2.28c3.24.2,8.06-2.68,9.02-3.22s-10.81-.52-11.35.94Z"/>
  <path class="cls-6" d="m957.41,164s-6.87.64-6.28,10.32,12.36,30.11,12.78,37.42c0,0-10.14-22.74-13.31-35.7,0,0-2.32-11.48,6.81-12.04Z"/>
  <path class="cls-19" d="m922.6,248.8s14.39-.89,16.4,1.7c0,0-3.37-1.04-16.4-1.7Z"/>
  <path class="cls-6" d="m833.11,214.66s-9.01,65.55,73.7,84.23c0,0-20.88.9-49.23-13.74-28.35-14.64-27.95-68.44-24.47-70.49Z"/>
  <path class="cls-6" d="m854.79,65.79s-88.59-1.52-79.75,53.73c11.36,71.08,22.48,90.41,22.48,90.41h4.14s-24.11-87.86-20.41-103.66,27.14-35.79,73.54-40.49Z"/>
  <path class="cls-6" d="m802.93,208.63l3.74-7.98s-26.7-39.92,1.23-66.51c0,0-30.84,1.83-4.96,74.48Z"/>
  <path class="cls-21" d="m803.75,141.47s2.66-6.88,13.82-6.43c0,0-12.65-2.3-13.82,6.43Z"/>
  <path class="cls-12" d="m711.92,316.1s-97.35,45.95-95.97,143.49c0,0-20.42-97.9,95.97-143.49Z"/>
  <path class="cls-28" d="m890.97,610.37s26.23,95.86,39,123.45l-73.03-160.22s20.98,15.08,34.03,36.77Z"/>
  <path class="cls-5" d="m1130.08,1340.25l.34-6.57s-8-1.48-10.2.73c-2.21,2.21,9.76,7.82,9.87,5.84Z"/>
  <path class="cls-9" d="m1260.42,1334.41s-.29-1.82-3.21-2.19l-.53,3.3s3.42-.09,3.73-1.1Z"/>
  <path class="cls-5" d="m867.6,1307.95s2.49-2.28,6.36-1.69l-.75,3.16s-4.75.12-5.6-1.47Z"/>
  <path class="cls-5" d="m1008.08,1307.79s-.73-.91-3.63-1.06l-1.52,3.34s2.02.05,5.15-2.27Z"/>
  <g>
    <path class="cls-22" d="m1209,630.86s21.57-10.78,34.31-6.86c12.74,3.92,19.61,23.53,92.15-20.59,0,0,20.59-.12,31.37,14.15,0,0,13.72,2.02,14.21-5.82,0,0,7.84,4.9,10.78-2.94,0,0,5.39,2.45,5.39-7.84,0,0,5.88.49,3.43-5.88-2.45-6.37-30.39-25.98-42.64-29.41-12.25-3.43-55.39,2.94-57.35,2.94s-30.88,8.33-52.94,20.1c-22.06,11.76-56.37,13.23-56.37,13.23l7.35,32.35,10.29-3.43Z"/>
    <path class="cls-19" d="m1389.11,606.52s-26.96-20.1-30.39-20.59c-3.43-.49-34.8,0-34.8,0l35.78-1.47,29.41,22.06Z"/>
    <polygon class="cls-19" points="1391.93 597.17 1360.07 578.37 1321.1 578.37 1360.07 577.14 1391.93 597.17"/>
    <polygon class="cls-19" points="1374.49 608.97 1348.26 593.28 1319.41 594.58 1349 591.81 1374.49 608.97"/>
  </g>
  <path class="cls-29" d="m1219.62,602.1c3.72,11.7,7.83,31.02-.39,43.08l-17.28,7.63s-6.76-57.37-14.22-60.69h18.24c6.24,0,11.75,4.02,13.65,9.97Z"/>
  <path class="cls-56" d="m1402.98,608.97s23.83,7.66,31.18,11.43c7.35,3.77,113.23,6.13,141.17-5.71,27.94-11.84,36.82-24.85,47.06-24.4"/>
  <path class="cls-28" d="m960.01,777.65s6.6,131.49-27.38,154.43l2.1,3.23s60.2-24.4,46.01-136.16c0,0-17.21-19.97-20.73-21.5Z"/>
  <polygon class="cls-5" points="927.58 1083.7 888.6 1312.6 872.06 1309.42 927.58 1083.7"/>
  <g>
    <path class="cls-5" d="m865.79,1318.78s85.31,16.37,137.15-4.22c0,0-44.53,27.92-137.15,4.22Z"/>
    <path class="cls-5" d="m871.03,1325.69s22.68,19.94,124.35-.19c0,0-127.58,27.27-124.35.19Z"/>
  </g>
  <path class="cls-44" d="m1000,1333.04s-116.91,22.9-136.76,1.21l4.36-26.47s84.61,16.54,140.49,0l-8.09,25.26Z"/>
  <path class="cls-5" d="m1163.68,1006.71s-35.81,137.67-33.27,330.97v8.99s24.54-289.74,33.27-339.96Z"/>
  <g>
    <path class="cls-44" d="m1116.21,1372.07s90.43,34.71,142.8-14.71l1.42-22.95s-129.43,19.61-140.21,0l-4,37.66Z"/>
    <path class="cls-10" d="m1118.65,1349.11s69.98,21.34,140.36-8.44c0,0-57.73,43.72-140.36,8.44Z"/>
    <path class="cls-10" d="m1118.65,1359.17s38.32,27.37,121.41,3.7c0,0-92.09,31.35-121.41-3.7Z"/>
  </g>
  <path class="cls-5" d="m1145.4,993.55s57.83-23.77,72.2-51.74c0,0-29.54,62.34-81.37,78.86-51.83,16.53-61.26,19.49-61.26,19.49l-16.52-22.45,86.95-24.17Z"/>
  <path class="cls-1" d="m809.68,1069.99s135.83-5.73,152.53-5.73,174.8-29.81,182.59-61.92c7.79-32.11-63.46-12.61-71.25-11.47-7.79,1.15-167,20.64-173.68-126.13-6.68-146.77,5.57-327.93-162.55-349.72-168.12-21.79-242.71-12.61-231.58,27.52,11.13,40.13,23.38,65.36,24.49,206.39,1.11,141.03-18.8,323.25,156.98,321.05h122.47Z"/>
  <g>
    <path class="cls-22" d="m1033.94,574.96s36.52-5.35,50.5-1.51c13.98,3.84,38.58,17.53,61.55,20.87,22.97,3.33,33.28,4.95,33.88,2.17.6-2.78-.17-6.43-19.81-11.91-19.64-5.48-24.25-9.37-13.31-12.91,10.94-3.54,31.5,4.67,35.2,7.97,3.7,3.3,5.29,8.9,9.94,8.13,4.65-.77,4.54-11.36-7.98-20.72,0,0,11.63,10.92,13.77,9.16s-.35-8.6-3.76-12.22c0,0,5.39,1.73-2.42-7.42-7.82-9.15-16.99-14.54-16.99-14.54,0,0,6.36,2.68,6.79-.84.43-3.51-18.02-7.3-18.02-7.3,0,0-24.87.06-38.59,1.95-13.71,1.89-46.47,6.33-53.2,5.51-6.73-.82-33.47.2-33.47.2l-4.07,33.41Z"/>
    <polygon class="cls-19" points="1182.45 566.65 1164.75 559.04 1145.89 559.47 1164.56 559.88 1182.45 566.65"/>
    <polygon class="cls-19" points="1191.85 562.34 1167.45 549.74 1149.86 549.75 1167.81 551.08 1191.85 562.34"/>
    <polygon class="cls-19" points="1173.61 542.02 1165.28 538.99 1151.14 539.28 1165.16 539.98 1173.61 542.02"/>
  </g>
  <path class="cls-35" d="m1026.83,533.98s18.65-3.99,21.81,0c3.16,3.99,7.32,39.02,6.86,41.13s-21.94,0-21.94,0l-6.73-41.13Z"/>
  <path class="cls-52" d="m977.28,520.24s57.7,6.15,59.17,10.94c1.47,4.79,8.02,36.71,5.08,42.42-2.94,5.71-43.39,20.69-43.39,20.69,0,0-34.68-19.92-33.88-23.7.8-3.78,2.85-35.01-.01-36.67s-4.33-13.68-4.33-13.68h17.36Z"/>
  <path class="cls-17" d="m1191.46,588.66c5.56,15.09,14.88,45.31,9.89,67.39-1.54,6.81-7.25,11.87-14.17,12.8-36.77,4.93-167.44,22.88-200.46,33.53-38.55,12.43-95.74-92.01-95.74-92.01,0,0-150.67-137.85-77.3-242.14,2.5-3.56,5.97-6.32,9.98-8.01,8.08-3.41,22.42-8.66,31.26-7.23,0,0,35.27.41,152.33,222.56,2.41,4.58,7.22,7.4,12.39,7.29l158.32-3.34c6-.13,11.43,3.54,13.5,9.17Z"/>
  <path class="cls-27" d="m2315.72,1510.34c0,7.19-113.48,13.03-253.46,13.03s-253.46-5.83-253.46-13.03,113.48-13.03,253.46-13.03,253.46,5.83,253.46,13.03Z"/>
  <path class="cls-2" d="m1211.93,482.34c-.46-.03-.91-.21-1.27-.54-.83-.77-.89-2.07-.12-2.9l48.84-52.85c.45-.49,1.09-.72,1.77-.65.66.09,1.24.49,1.55,1.08l20.05,37.77,78.78-96.13c.48-.6,1.26-.89,2.01-.71.75.16,1.35.71,1.56,1.45l27.94,98.43,28.41-51.32c.38-.69,1.13-1.1,1.92-1.05h.02c.8.06,1.49.57,1.77,1.32l12.42,32.75,69.47-72.07c.42-.43,1-.66,1.61-.63h0c.6.04,1.15.34,1.51.82l20.9,28.01c.68.91.49,2.19-.42,2.87-.9.67-2.2.49-2.87-.42l-19.45-26.07-70.04,72.66c-.49.51-1.19.75-1.89.58-.69-.14-1.26-.62-1.51-1.28l-12-31.64-28.68,51.8c-.4.73-1.22,1.07-2.03,1.04-.83-.09-1.51-.68-1.74-1.48l-28.23-99.44-78.25,95.49c-.43.53-1.12.85-1.79.74-.68-.07-1.29-.47-1.61-1.08l-20.14-37.94-46.87,50.72c-.44.47-1.04.69-1.63.66Z"/>
  <path class="cls-37" d="m1230.85,492.71c-.48-.03-.96-.23-1.33-.6-.8-.8-.8-2.1,0-2.9l89.05-88.86c.49-.48,1.2-.7,1.85-.56.67.13,1.23.6,1.5,1.22l29.1,69.86,15.53-20.21c.43-.55,1.13-.97,1.83-.79.71.06,1.32.49,1.64,1.12l8.31,16.7,48.35-76.19c.38-.58,1.03-.93,1.73-.93.69.04,1.35.36,1.72.94l64.1,112.1,16.34-14.83c.82-.75,2.08-.7,2.85.08l18.25,18.69c.79.81.78,2.11-.03,2.9-.81.8-2.11.78-2.9-.03l-16.86-17.28-16.67,15.13c-.45.4-1.07.61-1.65.52-.6-.08-1.13-.42-1.46-.92l-63.7-111.47-48.58,76.53c-.4.62-1.1.97-1.84.93h0c-.73-.05-1.38-.48-1.71-1.13l-8.45-16.98-15.69,20.42c-.45.58-1.11.9-1.89.78-.72-.1-1.35-.57-1.62-1.24l-29.29-70.31-86.88,86.7c-.43.43-1.01.63-1.58.6Z"/>
  <g>
    <g>
      <path class="cls-30" d="m2260.64,402.81c-.31-2.27-3.06-3.98-5.19-3.95-50.74.82-114.35.98-157.32,32.33-40.04,29.24-46.05,80.83-45.14,126.78.1,4.92,5.54,6.29,8.64,4.2.15.07.23.19.4.24,106.67,39.89,213.74-47.75,198.61-159.61Z"/>
      <path class="cls-25" d="m2014.88,610.4c.4-35.31-7.81-71.05-34.93-95.56-31.11-28.12-76.1-44.17-112.87-63.24-3.74-1.94-9.75,1.38-7.9,6.08,16.63,42.31,14.29,94.01,43.67,130.77,24.98,31.25,67.18,41.77,104.7,30.24,1.89-.58,2.93-1.87,3.41-3.34,2.1-.54,3.89-2.15,3.92-4.94Z"/>
      <path class="cls-25" d="m2342.91,725.52c-24.96-19.35-57.12-17.37-87.31-16.05-33.49,1.46-67.16,6.59-97.68,21.09-53.13,25.26-90.51,81.07-71.28,140.15-.48,2.5.47,5.3,3.58,6.27,50.66,16.04,75.12-17.79,105.62-51.48,39.08-43.15,89.21-73.89,144.69-90.98,3.46-1.08,5.76-6.36,2.37-8.99Z"/>
      <path class="cls-25" d="m2464.14,851.71c-.64-.21-1.29-.54-1.93-.86-21.51-9.24-40.76-26.78-60.33-43.66,0-.12-.11-.12-.22-.22-21.4-18.5-43.23-36.04-68.73-40.65-.22-.12-.43-.12-.64-.12-11.72-2.15-24.2-1.4-37.85,3.12-54.2,18.07-87.54,74.54-92.92,128.84-.11,1.29.33,2.36.86,3.12-.11.32-.22.54-.32.86-.87,3.01.75,7,4.84,7.52,46.46,5.49,92.06.12,137.55-9.46,40.33-8.49,85.92-15.38,120.98-38.71,4.09-2.7,3.01-8.07-1.29-9.79Z"/>
      <path class="cls-25" d="m2383.46,955.71c-59.3-11.88-181.88-42.07-190.23,52.47-.27,3.03,1.68,4.64,3.97,5,53.84,63.18,158.51,13.05,189.47-49.58,1.43-2.88.42-7.17-3.21-7.89Z"/>
      <path class="cls-30" d="m2007.58,765.56c-15.73-34.82-52.28-70.81-88.26-83.93-3.31-1.2-6.84,1.92-6.8,5.19.59,68.62-16.25,176.63,58.4,214.57.53.27,1.05.35,1.57.44,1.99,2.97,6.82,4.09,9.08.05,23.03-41.16,47.24-89.34,26.02-136.32Z"/>
      <path class="cls-25" d="m1813.22,809.23c-36.48-29.8-94.04-36.27-136.45-14.73-58.81,29.87-48.27,100.73-57.23,155.32-.86,5.28,4.75,8.95,8.99,5.23,58.13-50.99,139.21-71.01,183.58-137.78h0c2.83-1.68,4.32-5.4,1.11-8.03Z"/>
      <path class="cls-30" d="m1813.59,863.25c-1.68-2.56-4.42-2.85-6.64-1.95-1.49-1.89-4.01-2.96-6.72-1.47-29.13,15.98-63.29,38.31-69.03,73.55-6.84,42.01,16.76,83.01,19.44,124.39.36,5.69,9.38,7.75,10.56,1.44,7.46-39.77,48.68-57.89,63.83-93.66,12.46-29.46,5.88-75.82-11.44-102.29Z"/>
      <path class="cls-30" d="m1993.34,1107.27c-34.22-48.05-69.41-89.12-128.87-104.18-4.31-1.1-8.76,3.83-6.07,7.89,13.39,20.14,13.12,42.94,24.32,63.25,6.63,12.03,17.55,21,28.99,28.23,25.34,16.03,58.02,30.56,86.29,14.36,5.74-3.29,1.03-11.81-4.66-9.55Z"/>
      <path class="cls-25" d="m2070.52,1050.53c-.14-.52-.25-1.02-.58-1.54-23.51-37.55-24.55-85.29-57.03-117.62-2.51-2.5-6.62-1.85-8.44,1.08-15.92,25.51-23.63,56.12-10.98,84.72,13.69,30.93,42.51,39.38,73.87,42.62,5.53.57,6.5-6.18,3.17-9.26Z"/>
      <path class="cls-25" d="m2136.49,630.76c-6.7-5.61-15.65-.04-22.28,2.78-12.45,5.29-24.63,11.4-35.51,19.51-20.35,15.16-34.31,36.64-35.59,62.01-.16.63-.21,1.27-.12,1.95-.01.74-.14,1.45-.13,2.2.03,6.12,8.41,6.81,10.34,2.12,26.04-5.71,46.62-22.48,63.69-42.6,7.83-9.22,35.26-34.84,19.6-47.96Z"/>
      <path class="cls-25" d="m2148.29,1054.83c-.82-.78-1.48-1.66-2.28-2.45,6.7-45.88,9.54-99-35.63-125.98-2.95-1.76-7.04-.14-7.9,3.22-12.41,48.5,1.83,98.36,38.19,132.81,5.02,4.76,12.64-2.83,7.61-7.6Z"/>
      <path class="cls-30" d="m2459.52,846.34c-19.9-8.81-38.61-24.1-57.64-39.14,0-.12-.11-.12-.22-.22-21.83-17.32-43.99-34.31-68.73-40.65-.22-.12-.43-.12-.64-.12-11.72-2.15-24.2-1.4-37.85,3.12-54.2,18.07-87.54,74.54-92.92,128.84-.11,1.29.33,2.36.86,3.12-.11.32-.22.54-.32.86,1.83-.11,3.54-.97,4.62-2.58,1.07-.22,2.05-.55,2.9-1.5,17.64-18.82,36.46-36.35,54.96-54.31,8.93-8.61,17.64-19.46,27.74-26.68,21.51-15.38,40-12.48,62.59-5.91,26.99,7.86,51.62,21.83,76.14,35.27,9.14,5.16,18.07,13.87,28.5,9.15,1.83-.76,2.69-2.8,2.69-4.74s-.97-3.76-2.69-4.51Z"/>
      <path class="cls-31" d="m1983.32,1027.38c-5.12-20.85-10.87-41.99-17.94-62.62.07-.19.2-.29.25-.49,9.66-33.05,13.35-66.63,11.38-100.08,1.8-.29,3.48-1.38,4.18-3.62,6.21-19.76,8.82-39.93,7.84-60.63-.33-6.89-11.09-6.93-10.76,0,.68,14.32-.48,28.32-3.4,42.12-2.17-15.93-5.52-31.79-10.34-47.5-2.02-6.6-12.4-3.78-10.37,2.86,15.18,49.46,16.68,99.81,4.77,149.59-10.06-25.65-22.7-50.14-39.66-71.84-39.84-50.99-112.27-81.98-169.62-57.95-.14-1.96-1.31-3.79-3.82-4.39-22.23-5.36-44.57-2-64.18,9.8-5.92,3.57-.52,12.87,5.43,9.28,15.97-9.61,33.74-12.84,51.82-9.49-13.27,7.5-25.5,18.25-36.02,32.85-4.05,5.63,5.27,11,9.29,5.43,27.49-38.15,77.49-50.16,121.26-35.94,12.73,4.13,24.43,10.15,35.27,17.43-45.84-.95-80.58,29.75-111.92,60.27-4.97,4.84,2.64,12.44,7.6,7.6,6.23-6.06,12.57-12.15,19.1-17.98-1.78,10.82-2.15,21.75-1,32.82.71,6.81,11.48,6.88,10.75,0-1.47-14.14-.52-27.93,3.08-41.7.2-.73.19-1.4.11-2.04,22.17-17.5,46.93-30.25,77.34-28.07,2.83.21,4.43-1.51,4.93-3.62,24.4,19.27,43.58,45.41,57.49,73.06,27.67,54.98,43.44,117.82,52.36,180.77-22.24-5.77-41.63-17.36-57.21-34.44-4.67-5.12-12.26,2.5-7.6,7.6,7.85,8.6,16.71,15.9,26.34,21.94-6.21-.03-12.4-.32-18.56-1.29-6.77-1.06-9.69,9.29-2.86,10.37,10.31,1.61,20.56,2.21,30.98,1.55,2.24-.15,3.68-1.43,4.46-3.02,7.93,3.66,16.26,6.57,24.98,8.56.38.09.7.02,1.05.03,3.93,30.5,6.32,60.89,7.71,90.33.33,6.89,11.09,6.93,10.76,0-2.83-59.89-10.96-119.32-25.28-177.57Z"/>
      <path class="cls-31" d="m2161.78,806.3c-9.68,7.03-18.9,14.51-27.72,22.35,5.18-19.06,13.3-36.77,24.83-53.15,3.99-5.67-5.33-11.04-9.29-5.42-14.06,19.97-23.64,42.11-28.59,66.03-.34,1.6.03,2.97.75,4.07-23.94,23.43-44.4,50.05-60.92,79.65-2.93-37.07-5.36-74.18-7.16-111.33-1.28-26.4-3.33-55.94-4.08-86.36,12.45-16.78,25.61-33.28,44.95-42.36,6.26-2.94.81-12.22-5.43-9.28-16.4,7.7-28.72,20.45-39.77,34.36-.08-14.27.17-28.62,1.04-42.88.86-1.47,1.07-3.24.3-4.94,5.39-75.93,28.19-147.69,100.92-181.22,6.28-2.9.82-12.16-5.43-9.28-18.42,8.48-33.73,19.33-46.45,31.99-.59-10.44,1.1-20.67,4.96-30.55,2.51-6.46-7.88-9.24-10.38-2.86-5.45,13.97-6.69,28.46-4.33,43.22.04.25.17.38.23.6-30.95,36.92-43.73,86.23-48.36,137.33-15.59-18.1-31.17-36.18-46.76-54.26,1.51-.78,2.62-2.22,2.47-4.5-.97-15.13-5.71-29.24-14.46-41.67-3.95-5.61-13.28-.24-9.28,5.44,6.46,9.17,10.5,19.27,12.17,30.17-5.79-6.72-11.58-13.44-17.37-20.15-4.53-5.25-12.11,2.38-7.6,7.6,26.56,30.83,53.13,61.66,79.69,92.47-1.15,18.82-1.3,37.7-1.04,56.18-.24.33-.48.64-.72.97-1.81,2.44-.97,4.79.83,6.25.37,18.11,1.09,35.79,1.75,52.43,3.43,85.75,9.98,171.33,19.35,256.6-19.38-10.7-30.01-30.84-39.66-50.17-3.09-6.18-12.37-.75-9.28,5.42,11.08,22.17,23.75,45.35,47.3,56.13,1.01.46,1.97.52,2.89.43,6.19,54.76,13.54,109.39,22.06,163.84,1.06,6.82,11.43,3.93,10.37-2.86-13.98-89.41-24.75-179.29-32.3-269.47.97-.39,1.87-1.05,2.51-2.27,24.63-47.52,59.09-87.86,102.43-119.29,5.55-4.04.19-13.37-5.43-9.29Z"/>
      <path class="cls-31" d="m2339.72,814.8c-22.62-.43-43.24,4.98-61.95,14.3,7.96-8.49,16.54-16.39,25.81-23.49,5.42-4.15.07-13.5-5.43-9.29-18.05,13.81-33.69,29.8-47.03,48.21-.52.72-.82,1.45-.93,2.13-36.38,28.55-63.28,72.16-80.01,113.76-10.17,25.28-17.7,51.41-23.56,78.01-5.99-10.08-9.35-21.37-13.08-32.51-2.98-8.86-5.69-16.93-13.93-22.09-5.88-3.69-11.29,5.61-5.43,9.27,8.7,5.44,10.71,21.2,13.86,30.26,3.05,8.78,6.44,17.13,11.85,24.76,1.11,1.57,2.64,2.22,4.18,2.3-13.04,65-16.64,132.58-22.89,197.68-.66,6.89,10.1,6.84,10.76,0,5.81-60.6,9.57-122.59,20.54-182.9.78-.24,1.54-.66,2.25-1.44,20.3-22.43,41.38-45,67.01-60.59,7.74,7.16,16.71,12.59,26.78,16.02,6.56,2.24,9.39-8.15,2.86-10.38-7.31-2.49-13.89-6.24-19.73-11.1,7.12-3.63,14.5-6.89,22.42-9.26,6.62-1.97,3.8-12.36-2.85-10.37-10.43,3.12-20.09,7.43-29.25,12.53-1.64.09-3.12,1.09-4.11,2.46-23.23,13.83-42.93,32.96-61.57,53.1,3.57-16.92,7.64-33.73,12.76-50.25,10.38-33.54,26.81-70.68,49.7-101.7.2-.05.37,0,.58-.07,12.24-4.08,24.71-6.98,37.5-8.72,6.83-.91,3.92-11.28-2.86-10.36-8.03,1.07-15.89,2.78-23.68,4.8,28.07-32.41,64.34-55.17,109.47-54.32,6.92.14,6.92-10.61,0-10.75Z"/>
    </g>
    <g>
      <polygon class="cls-8" points="2250.02 1149.89 2241.48 1203.18 2226.11 1298.63 2192.69 1506.72 1948.05 1506.72 1914.62 1298.63 1899.25 1203.18 1890.71 1149.89 2250.02 1149.89"/>
      <polygon class="cls-20" points="1992.85 1203.18 1984.3 1149.89 1890.71 1149.89 1899.25 1203.18 1914.62 1298.63 1948.05 1506.72 2041.63 1506.72 2008.21 1298.63 1992.85 1203.18"/>
      <path class="cls-40" d="m2164.01,1489.57c-.32,0-.64,0-.97-.03-6.31-.32-11-3.83-10.47-7.83l42.05-316.61c.52-3.99,5.99-7.01,12.39-6.61,6.31.33,11,3.84,10.46,7.83l-42.05,316.61c-.5,3.78-5.52,6.64-11.41,6.64Z"/>
    </g>
  </g>
  <g>
    <path class="cls-18" d="m2011.67,402.66l-293.59-39.25c-7.22-.96-12.6-7.64-12.02-14.9l18.37-230.03c.58-7.26,6.9-12.38,14.12-11.41l293.59,39.25c7.22.96,12.6,7.64,12.02,14.91l-18.37,230.03c-.58,7.27-6.9,12.38-14.12,11.41Z"/>
    <g>
      <g>
        <g>
          <path class="cls-30" d="m2047.9,147.75v.03c-2.21,9.1-11.49,15.48-20.71,14.25-1-.13-1.95-.35-2.85-.65,8.17-.31,15.81-6.29,17.77-14.4l5.79.77Z"/>
          <path class="cls-26" d="m1974.79,398.64l-295.38-39.49c-7.26-.97-11.74-7.56-10.01-14.72l54.88-226.56c1.73-7.16,9.02-12.17,16.28-11.2l295.38,39.49c7.26.97,11.74,7.56,10,14.72l-54.88,226.56c-1.73,7.16-9.02,12.18-16.28,11.21Z"/>
          <g>
            <path class="cls-4" d="m1760.15,128.64c.77-3.19-1.22-6.12-4.45-6.55s-6.48,1.8-7.25,4.99c-.77,3.19,1.22,6.12,4.45,6.55s6.48-1.8,7.25-4.99Z"/>
            <path class="cls-4" d="m1825.36,137.36c.77-3.19-1.22-6.12-4.45-6.55s-6.48,1.8-7.25,4.99c-.77,3.19,1.22,6.12,4.45,6.55s6.48-1.8,7.25-4.99Z"/>
            <path class="cls-4" d="m1890.56,146.08c.77-3.19-1.22-6.12-4.45-6.55s-6.48,1.8-7.25,4.99c-.77,3.19,1.22,6.12,4.45,6.55s6.48-1.8,7.25-4.99Z"/>
            <path class="cls-4" d="m1955.77,154.8c.77-3.19-1.22-6.12-4.45-6.55s-6.48,1.8-7.25,4.99c-.77,3.19,1.22,6.12,4.45,6.55s6.48-1.8,7.25-4.99Z"/>
            <path class="cls-4" d="m2020.97,163.52c.77-3.19-1.22-6.12-4.45-6.55s-6.48,1.8-7.25,4.99c-.77,3.19,1.22,6.12,4.45,6.55s6.48-1.8,7.25-4.99Z"/>
          </g>
          <path class="cls-30" d="m1752.71,130.88c-10.31-3.32-15.89-13.58-13.28-24.37,2.97-12.26,15.5-20.88,27.93-19.22,12.43,1.66,20.13,12.99,17.16,25.25l-5.79-.77c2.21-9.11-3.52-17.53-12.75-18.76-9.24-1.24-18.55,5.17-20.75,14.28-1.94,8.02,2.21,15.63,9.86,18.1,0,0,.37,1.29-.61,3.21-.97,1.92-1.77,2.28-1.77,2.28Z"/>
          <path class="cls-30" d="m1818.56,139.68c-10.31-3.32-15.89-13.58-13.28-24.37,2.97-12.26,15.5-20.88,27.93-19.22s20.13,12.99,17.16,25.25l-5.79-.77c2.21-9.11-3.51-17.53-12.75-18.76s-18.55,5.17-20.75,14.28c-1.94,8.02,2.2,15.63,9.86,18.1,0,0,.37,1.29-.61,3.21-.97,1.92-1.77,2.28-1.77,2.28Z"/>
          <path class="cls-30" d="m1884.4,148.48c-10.31-3.32-15.89-13.58-13.28-24.37,2.97-12.26,15.5-20.88,27.93-19.22,12.43,1.66,20.13,12.99,17.16,25.25l-5.8-.77c2.21-9.11-3.51-17.52-12.75-18.76-9.24-1.23-18.55,5.17-20.75,14.28-1.94,8.02,2.2,15.63,9.86,18.1,0,0,.37,1.29-.61,3.21-.97,1.92-1.77,2.28-1.77,2.28Z"/>
          <path class="cls-30" d="m1950.24,157.29c-10.31-3.32-15.89-13.58-13.28-24.37,2.97-12.26,15.5-20.88,27.93-19.22s20.13,12.99,17.16,25.25l-5.79-.77c2.21-9.11-3.51-17.52-12.75-18.76s-18.55,5.17-20.75,14.28c-1.94,8.02,2.2,15.63,9.86,18.1,0,0,.37,1.29-.61,3.21-.97,1.92-1.77,2.28-1.77,2.28Z"/>
          <path class="cls-30" d="m2047.9,147.75l-5.79-.77c.12-.5.22-1,.29-1.5.13-.83.19-1.63.18-2.41,0-.43-.02-.84-.06-1.25-.01-.26-.03-.49-.08-.73-.72-5.61-4.49-10.29-10.05-12.15-.97-.32-1.99-.56-3.04-.71-9.23-1.23-18.54,5.16-20.74,14.27-1.95,8.03,2.21,15.63,9.87,18.1,0,0,.36,1.28-.61,3.22-.97,1.92-1.76,2.27-1.76,2.27-10.32-3.33-15.9-13.57-13.29-24.37,2.97-12.25,15.49-20.87,27.92-19.21s19.75,12.43,17.37,24.32c-.06.3-.12.6-.2.92Z"/>
          <g>
            <path class="cls-30" d="m1744.32,346.32c-.3-.04-.49-.31-.41-.61l46.76-193.06c.07-.3.37-.51.67-.47s.49.31.41.61l-46.76,193.06c-.07.29-.37.5-.67.46Z"/>
            <path class="cls-30" d="m1802.03,354.03c-.3-.04-.49-.31-.41-.61l46.76-193.06c.07-.3.37-.51.67-.47s.48.31.41.61l-46.76,193.06c-.07.29-.37.5-.67.46Z"/>
            <path class="cls-30" d="m1859.74,361.75c-.3-.04-.48-.31-.41-.61l46.76-193.06c.07-.3.37-.51.67-.47s.48.31.41.61l-46.76,193.06c-.07.29-.37.5-.67.46Z"/>
            <path class="cls-30" d="m1917.45,369.46c-.3-.04-.48-.31-.41-.61l46.76-193.06c.07-.3.37-.51.67-.47s.48.31.41.61l-46.76,193.06c-.07.29-.37.5-.68.46Z"/>
          </g>
          <g>
            <path class="cls-30" d="m2004.88,222.13l-273.37-36.55c-.3-.04-.49-.31-.41-.61.07-.29.37-.5.67-.46l273.37,36.55c.3.04.49.31.41.61-.07.29-.37.5-.67.46Z"/>
            <path class="cls-30" d="m1990.95,279.64l-273.37-36.55c-.3-.04-.49-.31-.41-.61.07-.3.38-.51.68-.47l273.36,36.55c.3.04.49.31.41.61-.07.29-.37.5-.67.46Z"/>
            <path class="cls-30" d="m1977.02,337.14l-273.37-36.55c-.3-.04-.49-.31-.41-.61.07-.3.37-.51.67-.47l273.36,36.55c.3.04.48.31.41.61-.07.29-.37.5-.67.46Z"/>
          </g>
        </g>
        <g>
          <polygon class="cls-33" points="1937.32 259.62 1890.71 253.38 1900.16 214.37 1946.76 220.6 1937.32 259.62"/>
          <path class="cls-42" d="m1933.49,261.08s-25.7-1.19-46.61-6.23c6.87-18.27,13.28-40.48,13.28-40.48l46.61,6.23-13.28,40.48Z"/>
          <path class="cls-26" d="m1937.73,227.6l-31.5-4.21c-.9-.12-1.46-.94-1.24-1.83h0c.22-.89,1.12-1.52,2.02-1.4l31.5,4.21c.91.12,1.46.94,1.25,1.83h0c-.22.89-1.12,1.51-2.03,1.39Z"/>
          <path class="cls-26" d="m1934.96,232.71l-31.28-4.18c-.55-.07-.89-.57-.76-1.12l.31-1.25c.13-.54.68-.92,1.24-.85l31.29,4.18c.55.07.89.58.76,1.12l-.3,1.25c-.13.55-.69.93-1.24.85Z"/>
          <path class="cls-26" d="m1910.99,239.11l-10.28-1.37c-.9-.12-1.46-.94-1.24-1.83h0c.22-.89,1.12-1.51,2.03-1.39l10.28,1.37c.9.12,1.46.94,1.24,1.83h0c-.21.89-1.12,1.52-2.03,1.39Z"/>
          <path class="cls-26" d="m1930.49,241.72l-13.97-1.87c-.9-.12-1.46-.94-1.25-1.83h0c.22-.89,1.13-1.51,2.03-1.39l13.97,1.87c.91.12,1.46.94,1.25,1.83h0c-.22.89-1.13,1.52-2.03,1.39Z"/>
          <path class="cls-26" d="m1906.71,244.49l-7.4-.99c-.9-.12-1.46-.94-1.24-1.83h0c.22-.89,1.12-1.52,2.02-1.4l7.4.99c.9.12,1.46.94,1.24,1.83h0c-.22.89-1.12,1.52-2.02,1.4Z"/>
          <path class="cls-26" d="m1929.1,247.48l-16.96-2.27c-.91-.12-1.46-.94-1.25-1.83h0c.22-.89,1.13-1.52,2.03-1.39l16.96,2.27c.9.12,1.46.94,1.25,1.83h0c-.22.89-1.12,1.52-2.03,1.39Z"/>
        </g>
        <g>
          <polygon class="cls-39" points="1794.08 355.94 1747.47 349.71 1756.92 310.7 1803.53 316.93 1794.08 355.94"/>
          <path class="cls-48" d="m1790.25,357.41s-25.7-1.19-46.61-6.23c6.87-18.27,13.28-40.48,13.28-40.48l46.61,6.23-13.28,40.48Z"/>
          <path class="cls-26" d="m1794.49,323.93l-31.5-4.21c-.91-.12-1.46-.94-1.25-1.83h0c.22-.89,1.13-1.52,2.03-1.4l31.5,4.21c.9.12,1.46.94,1.24,1.84h0c-.22.89-1.12,1.51-2.03,1.39Z"/>
          <path class="cls-26" d="m1791.73,329.04l-31.28-4.18c-.55-.07-.89-.58-.76-1.12l.3-1.25c.13-.55.69-.93,1.24-.85l31.28,4.18c.55.07.89.57.76,1.12l-.3,1.25c-.13.54-.69.93-1.24.85Z"/>
          <path class="cls-26" d="m1767.75,335.44l-10.28-1.37c-.9-.12-1.46-.94-1.24-1.83h0c.22-.89,1.12-1.52,2.03-1.39l10.29,1.38c.9.12,1.46.94,1.24,1.83h0c-.22.89-1.12,1.52-2.03,1.39Z"/>
          <path class="cls-26" d="m1787.26,338.05l-13.97-1.87c-.9-.12-1.46-.94-1.25-1.83h0c.22-.89,1.12-1.52,2.03-1.39l13.97,1.87c.9.12,1.46.94,1.25,1.83h0c-.21.89-1.12,1.52-2.03,1.39Z"/>
          <path class="cls-26" d="m1763.47,340.81l-7.4-.99c-.9-.12-1.46-.94-1.25-1.83h0c.22-.89,1.13-1.52,2.03-1.39l7.4.99c.9.12,1.46.94,1.24,1.83h0c-.21.89-1.12,1.51-2.03,1.39Z"/>
          <path class="cls-26" d="m1785.86,343.8l-16.96-2.27c-.91-.12-1.46-.94-1.25-1.83h0c.22-.89,1.13-1.52,2.03-1.39l16.96,2.27c.9.12,1.46.94,1.24,1.83h0c-.22.89-1.12,1.51-2.02,1.39Z"/>
        </g>
        <path class="cls-14" d="m1970.82,273.36c-14.27-1.91-23.11-14.91-19.7-28.98,3.41-14.07,17.79-23.96,32.06-22.06,14.27,1.91,23.11,14.9,19.7,28.98-3.41,14.07-17.79,23.96-32.06,22.06Zm11.73-48.44c-12.82-1.71-25.74,7.17-28.8,19.81-3.06,12.64,4.88,24.32,17.7,26.03s25.74-7.18,28.8-19.81c3.06-12.64-4.88-24.32-17.7-26.03Z"/>
      </g>
      <g>
        <path class="cls-37" d="m1866,194.74l-4.8-.64,4.32-17.83c-2.14,1.38-4.5,2.3-7.06,2.75l1.04-4.29c1.35-.24,2.9-.82,4.64-1.75,1.74-.93,3.07-2.12,3.98-3.54l3.89.52-6,24.78Z"/>
        <path class="cls-37" d="m1887.29,172.01c2.43.32,4.11,1.43,5.07,3.32,1.14,2.23,1.14,5.69,0,10.38-1.13,4.67-2.76,7.92-4.9,9.74-1.76,1.51-3.86,2.1-6.28,1.77s-4.18-1.51-5.22-3.56c-1.04-2.05-.99-5.44.16-10.18,1.12-4.65,2.75-7.88,4.89-9.71,1.76-1.5,3.85-2.09,6.28-1.76Zm-.95,3.92c-.58-.08-1.15.04-1.69.34-.55.31-1.06.91-1.53,1.82-.63,1.17-1.29,3.22-1.99,6.11-.7,2.89-1.03,4.9-1,6.03.03,1.12.23,1.89.59,2.31.36.42.83.66,1.42.74s1.14-.03,1.69-.34c.54-.31,1.05-.91,1.53-1.82.62-1.17,1.29-3.2,1.99-6.1.7-2.89,1.04-4.9,1-6.03-.03-1.12-.23-1.89-.59-2.32-.36-.42-.83-.67-1.41-.75Z"/>
      </g>
      <g>
        <path class="cls-37" d="m1794.55,234.59l-4.8-.64,4.32-17.83c-2.15,1.38-4.5,2.3-7.07,2.76l1.04-4.29c1.35-.24,2.9-.82,4.64-1.75,1.74-.93,3.07-2.12,3.98-3.55l3.89.52-6,24.79Z"/>
        <path class="cls-37" d="m1811.14,236.81l1.21-4.97-10.25-1.37,1-4.14,14.66-14.22,4.03.54-3.79,15.66,3.11.42-1.01,4.16-3.11-.42-1.2,4.97-4.65-.62Zm2.21-9.12l2.04-8.44-7.8,7.67,5.75.77Z"/>
      </g>
      <g>
        <path class="cls-37" d="m1966.76,258.99l-4.8-.64,4.32-17.83c-2.14,1.38-4.5,2.3-7.07,2.76l1.04-4.3c1.35-.23,2.9-.82,4.64-1.75s3.07-2.11,3.98-3.55l3.89.52-6,24.78Z"/>
        <path class="cls-37" d="m1978.77,240l1.07-4.39,16.41,2.19-.83,3.43c-1.67,1.13-3.51,2.84-5.51,5.11-1.99,2.27-3.7,4.74-5.1,7.41-1.4,2.67-2.36,5.09-2.88,7.27l-4.63-.62c.91-3.4,2.46-6.78,4.67-10.15,2.21-3.37,4.78-6.3,7.71-8.79l-10.91-1.46Z"/>
      </g>
    </g>
  </g>
</svg>