<?xml version="1.0" encoding="UTF-8"?>
<svg id="Layer_1" data-name="Layer 1" xmlns="http://www.w3.org/2000/svg" viewBox="0 0 1048.72 858.23">
  <defs>
    <style>
      .cls-1 {
        fill: #d8dad7;
      }

      .cls-1, .cls-2, .cls-3, .cls-4, .cls-5, .cls-6, .cls-7, .cls-8, .cls-9 {
        stroke-width: 0px;
      }

      .cls-2 {
        fill: #ffbd21;
      }

      .cls-3 {
        fill: #00897c;
      }

      .cls-4 {
        fill: #fff;
      }

      .cls-5 {
        fill: #ff573c;
      }

      .cls-6 {
        fill: #ffda82;
      }

      .cls-7 {
        fill: #403333;
      }

      .cls-8 {
        fill: #ff9b77;
      }

      .cls-9 {
        fill: #fff7cf;
      }
    </style>
  </defs>
  <path class="cls-9" d="m258.06,531.32c0,62.09-50.33,112.42-112.42,112.42-149.13-5.92-149.09-218.95,0-224.85,62.09,0,112.42,50.33,112.42,112.42Z"/>
  <path class="cls-9" d="m963.02,167.38c0,92.44-74.94,167.38-167.38,167.38-222.03-8.82-221.96-325.98,0-334.76,92.44,0,167.38,74.94,167.38,167.38Z"/>
  <path class="cls-7" d="m106.39,717.06c-1.96-.03-1.98-2.96,0-3,4.23-.02,8.54-.28,12.8-.78,1.96-.2,2.3,2.72.34,2.98-4.37.51-8.79.77-13.14.8Zm-12.97-.68c-4.38-.46-8.8-1.26-13.15-2.27-1.91-.48-1.24-3.34.69-2.92,4.17.98,8.42,1.73,12.62,2.2,1.85.23,1.69,2.97-.17,2.99Zm38.75-2.28c-1.75,0-2.06-2.57-.33-2.96,4.14-.93,8.3-2.08,12.37-3.44.79-.26,1.64.16,1.9.95.26.79-.16,1.64-.95,1.9-4.28,1.39-8.63,2.7-12.99,3.56Zm-64-3.67c-4.34-1.29-8.53-3.33-12.62-5.28-.74-.37-1.04-1.27-.67-2.01.37-.74,1.27-1.04,2.01-.67,3.81,1.9,7.78,3.6,11.79,5.05,1.56.54,1.12,2.94-.51,2.91Zm88.64-4.52c-1.57.03-2.09-2.24-.61-2.87,3.89-1.73,7.75-3.68,11.48-5.78.72-.41,1.64-.15,2.04.57.41.72.15,1.64-.57,2.04-4.02,2.14-8.08,4.55-12.34,6.04Zm-111.87-7.06c-.28,0-.56-.08-.82-.24-3.7-2.41-7.26-5.04-10.59-7.84-.64-.53-.72-1.48-.19-2.11.53-.64,1.48-.72,2.11-.19,3.24,2.72,6.71,5.28,10.3,7.62,1.25.75.61,2.81-.82,2.76Zm134.48-5.7c-1.41.05-2.07-1.95-.86-2.73,3.51-2.44,6.94-5.07,10.2-7.82.63-.53,1.58-.46,2.11.18.53.63.45,1.58-.18,2.11-3.33,2.81-6.83,5.5-10.42,8-.26.18-.56.27-.85.27Zm-154.35-10.98c-.4,0-.8-.16-1.1-.48-3.02-3.25-5.81-6.7-8.3-10.25-1.1-1.63,1.29-3.32,2.45-1.72,2.42,3.44,5.12,6.78,8.05,9.94.9.91.16,2.56-1.1,2.52Zm174.18-5.78c-1.27.04-2.01-1.65-1.07-2.55,3-3.07,5.87-6.3,8.52-9.61,1.25-1.51,3.55.31,2.34,1.88-2.71,3.39-5.65,6.7-8.71,9.83-.29.3-.68.45-1.07.45Zm-189.04-15.45c-.55,0-1.08-.3-1.34-.82-2-3.96-3.69-8.07-5.03-12.22-.57-1.88,2.22-2.79,2.85-.92,1.29,4,2.93,7.97,4.85,11.79.52.96-.25,2.2-1.34,2.18Zm-7.87-24.66c-.73,0-1.38-.54-1.48-1.29-.55-3.85-.83-7.8-.83-11.75-.04-1.2-.12-2.95,1.54-2.92,1.64.08,1.51,1.7,1.46,2.92,0,3.81.27,7.62.8,11.33.14.9-.58,1.72-1.49,1.71Zm.41-25.89c-.92,0-1.64-.85-1.48-1.75.74-4.32,1.81-8.63,3.18-12.82.64-1.86,3.43-.96,2.85.93-1.32,4.05-2.36,8.22-3.07,12.39-.12.73-.76,1.25-1.48,1.25Zm77.52-9.63c-3.69,0-7.28-.47-10.68-1.4-.8-.22-1.27-1.04-1.05-1.84.22-.8,1.04-1.27,1.84-1.05,3.9,1.06,8.12,1.48,12.39,1.21.83-.05,1.54.58,1.59,1.4.01,2.15-2.67,1.56-4.1,1.68Zm15.24-2.89c-1.6.03-2.08-2.31-.56-2.89,4.09-1.64,7.57-3.88,10.35-6.66.59-.59,1.54-.59,2.12,0,.59.59.59,1.54,0,2.12-3.18,3.08-7.23,5.96-11.91,7.43Zm-37.43-3.57c-.26,0-.52-.07-.76-.21-3.64-2.14-7.22-4.82-10.65-7.95-.61-.56-.66-1.51-.1-2.12.56-.61,1.51-.66,2.12-.1,3.28,2.99,6.69,5.54,10.15,7.58,1.31.74.72,2.83-.76,2.79Zm-47.28-8.53c-1.08.02-1.85-1.21-1.34-2.17,1.97-3.96,4.25-7.78,6.76-11.35,1.16-1.59,3.56.09,2.45,1.73-2.43,3.45-4.63,7.14-6.53,10.96-.26.53-.79.83-1.34.83Zm102-6c-.96.01-1.71-.94-1.45-1.87.45-1.75.67-3.57.67-5.41,0-2.19-.32-4.43-.95-6.66-.23-.8.24-1.63,1.03-1.85.8-.23,1.63.24,1.85,1.03,1.28,4.51,1.44,9.15.3,13.62-.17.68-.78,1.13-1.45,1.13Zm-73.98-2.72c-.44,0-.87-.19-1.17-.56-2.59-3.19-5.17-6.78-7.69-10.67-1.04-1.67,1.42-3.27,2.52-1.63,2.46,3.8,4.98,7.3,7.5,10.42.81.93.05,2.48-1.16,2.44Zm-13.1-12.44c-1.27.04-2.01-1.64-1.08-2.54,3.09-3.19,6.44-6.12,9.95-8.71.67-.49,1.61-.35,2.1.32s.35,1.61-.32,2.1c-3.38,2.49-6.6,5.32-9.58,8.39-.29.3-.69.46-1.08.46Zm80.73-9.08c-.43,0-.87-.19-1.16-.55-2.62-3.21-5.89-5.97-9.46-7.98-.72-.41-.98-1.32-.57-2.04.41-.72,1.32-.98,2.04-.57,3.88,2.19,7.45,5.2,10.3,8.7.81.93.06,2.49-1.16,2.45Zm-81.87-.19c-.53,0-1.05-.28-1.32-.78-2.08-3.81-4.04-7.76-5.84-11.74-.78-1.81,1.89-3.02,2.73-1.24,1.77,3.91,3.7,7.79,5.74,11.54.56.96-.21,2.24-1.32,2.22Zm21.98-6.05c-.55,0-1.08-.31-1.34-.83-.37-.74-.07-1.64.67-2.01,1.3-.65,2.62-1.26,3.94-1.82,2.75-1.17,5.58-2.18,8.41-3,.8-.23,1.63.23,1.86,1.03.23.8-.23,1.63-1.03,1.86-4.31,1.09-8.4,3.17-12.51,4.78Zm793.07-3.15c-1.97-.03-1.98-2.96,0-3,4.33,0,8.65-.21,12.84-.61,1.96-.15,2.25,2.77.28,2.99-4.28.4-8.7.61-13.12.62Zm-12.98-.52c-4.28-.33-8.7-.87-13.14-1.55-.82-.13-1.38-.89-1.25-1.71.13-.82.89-1.37,1.71-1.25,4.33.67,8.63,1.18,12.8,1.52,1.89.18,1.77,2.97-.12,3Zm38.82-1.94c-1.78,0-2.05-2.62-.29-2.97,4.21-.82,8.36-1.85,12.46-3.1.79-.24,1.63.2,1.87,1,.24.79-.2,1.63-1,1.87-4.29,1.28-8.64,2.44-13.05,3.21Zm-781.1-.79c-4.08-.71-8.39-1-12.84-.65-1.96.11-2.19-2.81-.22-2.99,4.6-.34,9.12-.12,13.33.66.81.15,1.35.93,1.2,1.75-.13.72-.76,1.23-1.47,1.23Zm716.59-1.21c-4.26-.83-8.6-2.02-13.02-3.21-.8-.22-1.27-1.05-1.04-1.85.22-.8,1.05-1.26,1.85-1.04,4.24,1.18,8.46,2.23,12.54,3.13,1.73.39,1.44,2.96-.32,2.97Zm89.34-5.58c-1.59.03-2.08-2.28-.58-2.88,3.89-1.64,7.79-3.52,11.58-5.57.73-.39,1.64-.12,2.03.6.39.73.12,1.64-.6,2.03-4.08,2.1-8.16,4.39-12.42,5.82Zm-114.4-1.35c-4.2-1.15-8.41-2.83-12.8-4.38-1.83-.71-.82-3.47,1.04-2.81,4.17,1.54,8.28,2.98,12.22,4.27,1.6.5,1.19,2.95-.47,2.93Zm-762.04-3.08c-.61,0-1.18-.38-1.41-.98-1.5-4.07-2.87-8.26-4.08-12.45-.51-1.9,2.3-2.72,2.88-.83,1.19,4.12,2.54,8.24,4.01,12.25.37.95-.39,2.04-1.41,2.02Zm737.64-5.92c-4.13-1.34-8.21-3.36-12.58-5.15-1.79-.81-.64-3.51,1.19-2.75,4.12,1.78,8.15,3.47,11.96,5.01,1.52.59,1.04,2.92-.56,2.89Zm161.64-2c-1.42.05-2.07-1.98-.83-2.75,3.51-2.34,7-4.89,10.39-7.59.65-.52,1.59-.41,2.11.24.52.65.41,1.59-.24,2.11-3.45,2.75-7.02,5.35-10.59,7.74-.26.17-.54.25-.83.25Zm-185.51-8.29c-3.98-1.4-7.79-3.54-12.44-5.58-.75-.35-1.08-1.24-.73-1.99.35-.75,1.24-1.08,1.99-.73,4.35,2.03,8.21,3.81,11.79,5.43,1.46.63.95,2.9-.62,2.87Zm205.84-7.86c-1.31.05-2.03-1.72-1.02-2.6,3.09-2.88,6.15-5.95,9.1-9.13.56-.61,1.51-.64,2.12-.08.61.56.64,1.51.08,2.12-3,3.23-6.11,6.35-9.25,9.28-.29.27-.66.4-1.02.4Zm-926.81-.88c-.69,0-1.31-.48-1.47-1.19-.91-4.25-1.68-8.59-2.29-12.9-.24-1.95,2.66-2.37,2.97-.42.6,4.24,1.36,8.51,2.25,12.69.21.92-.53,1.82-1.47,1.81Zm697.4-2.2c-4.23-1.55-8.25-3.86-12.4-5.68-.75-.35-1.07-1.25-.72-2,.35-.75,1.25-1.07,2-.72,3.92,1.85,7.84,3.69,11.76,5.54,1.44.65.92,2.89-.64,2.86Zm-23.51-11.1c-4.23-1.56-8.24-3.89-12.39-5.73-.75-.36-1.06-1.25-.71-2,.36-.75,1.25-1.06,2-.71,3.91,1.86,7.82,3.72,11.74,5.58,1.44.65.91,2.89-.64,2.86Zm270.6-4.85c-1.21.04-1.97-1.51-1.16-2.44,2.67-3.29,5.29-6.75,7.8-10.28,1.16-1.58,3.56.11,2.45,1.74-2.54,3.58-5.21,7.09-7.91,10.43-.3.37-.73.56-1.17.56Zm-294.08-6.34c-4.22-1.57-8.23-3.93-12.37-5.77-.75-.36-1.06-1.26-.7-2,.36-.75,1.26-1.06,2-.7,3.9,1.88,7.81,3.75,11.72,5.62,1.43.66.9,2.89-.65,2.85Zm-654.07-1.24c-.78,0-1.44-.6-1.49-1.39-.31-4.34-.48-8.74-.49-13.09.03-1.97,2.98-1.98,3,0,.01,4.28.17,8.62.48,12.88.07.86-.63,1.61-1.5,1.61Zm630.64-10.04c-4.22-1.59-8.22-3.96-12.35-5.82-.74-.36-1.06-1.26-.69-2.01.36-.75,1.26-1.06,2-.69,3.9,1.89,7.8,3.78,11.7,5.67,1.43.66.9,2.88-.65,2.85Zm332.57-3.57c-1.14.03-1.91-1.33-1.27-2.29,2.26-3.62,4.45-7.37,6.51-11.15.97-1.71,3.55-.31,2.63,1.44-2.09,3.83-4.31,7.63-6.6,11.3-.28.46-.77.71-1.27.71Zm-355.95-7.79c-4.22-1.6-8.21-3.99-12.34-5.87-.74-.36-1.05-1.26-.69-2.01.36-.74,1.26-1.05,2.01-.69,3.89,1.91,7.78,3.81,11.67,5.71,1.42.66.89,2.88-.66,2.85ZM2.93,455.02c-.86,0-1.56-.74-1.5-1.6.29-4.35.73-8.73,1.32-13.04.3-1.94,3.21-1.56,2.97.41-.58,4.23-1.01,8.55-1.3,12.83-.05.79-.71,1.4-1.5,1.4Zm583.99-6.87c-4.21-1.61-8.19-4.02-12.32-5.91-.74-.37-1.05-1.27-.68-2.01.37-.74,1.27-1.05,2.01-.68,3.88,1.92,7.77,3.84,11.65,5.76,1.42.67.88,2.88-.66,2.85Zm391.77-3.56c-1.07.02-1.84-1.18-1.35-2.15,1.84-3.86,3.61-7.83,5.26-11.8.78-1.81,3.5-.69,2.77,1.15-1.66,4.02-3.45,8.04-5.32,11.95-.26.54-.79.85-1.35.85Zm-415.07-7.98c-4.21-1.62-8.18-4.06-12.3-5.96-.74-.37-1.04-1.27-.67-2.01.37-.74,1.27-1.04,2.01-.67,3.87,1.94,7.75,3.87,11.63,5.8,1.41.67.87,2.88-.67,2.84ZM6.44,429.28c-.94,0-1.67-.89-1.47-1.81.89-4.27,1.95-8.55,3.13-12.72.57-1.88,3.39-1.09,2.89.82-1.17,4.1-2.2,8.32-3.08,12.52-.15.71-.77,1.19-1.47,1.19Zm533.92-4.3c-4.21-1.63-8.17-4.09-12.29-6.01-.74-.37-1.04-1.28-.66-2.01.37-.74,1.27-1.04,2.02-.66,3.87,1.95,7.74,3.9,11.61,5.85,1.41.68.86,2.88-.67,2.84Zm448.26-4.4c-1.01.02-1.77-1.05-1.41-2,1.43-4.03,2.77-8.17,3.99-12.29.59-1.88,3.41-1.05,2.88.85-1.24,4.17-2.59,8.36-4.04,12.44-.22.62-.8,1-1.41,1Zm-471.47-7.31c-4.2-1.63-8.16-4.12-12.27-6.06-.74-.38-1.03-1.28-.66-2.02.38-.74,1.28-1.03,2.02-.66,3.86,1.97,7.72,3.93,11.59,5.89,1.4.68.85,2.87-.68,2.84Zm-503.6-8.97c-1.02.02-1.78-1.06-1.41-2.01,1.49-4.1,3.16-8.18,4.94-12.14.84-1.78,3.52-.58,2.74,1.23-1.75,3.89-3.38,7.91-4.85,11.94-.22.61-.8.99-1.41.99Zm480.43-2.84c-4.2-1.65-8.15-4.15-12.25-6.1-.74-.38-1.03-1.28-.65-2.02.38-.74,1.28-1.03,2.02-.65,3.85,1.98,7.71,3.96,11.56,5.93,1.4.68.85,2.87-.68,2.84Zm502.02-5.8c-.95,0-1.7-.92-1.46-1.85,1-4.16,1.92-8.41,2.71-12.64.39-1.93,3.28-1.39,2.95.56-.81,4.27-1.73,8.57-2.74,12.78-.17.69-.78,1.15-1.46,1.15Zm-525.14-6.09c-4.2-1.66-8.13-4.19-12.23-6.15-.74-.38-1.02-1.29-.64-2.02.38-.74,1.29-1.02,2.02-.64,3.84,2,7.69,3.99,11.54,5.98,1.39.69.84,2.87-.69,2.83Zm-446.64-8.95c-1.1.02-1.87-1.25-1.32-2.22.47-.87.95-1.73,1.44-2.59,1.65-2.92,3.42-5.84,5.25-8.68,1.09-1.63,3.56-.05,2.52,1.63-2.34,3.62-4.53,7.31-6.58,11.08-.27.5-.79.78-1.32.78Zm423.57-3.03c-4.19-1.66-8.12-4.22-12.22-6.19-.73-.39-1.02-1.29-.63-2.03.38-.73,1.29-1.02,2.02-.63,3.84,2.01,7.68,4.02,11.52,6.02,1.38.69.83,2.87-.69,2.83Zm553.03-7.47c-.9,0-1.62-.81-1.49-1.7.58-4.25,1.07-8.57,1.44-12.84.21-1.95,3.13-1.71,2.99.26-.38,4.33-.87,8.7-1.45,12.99-.1.75-.75,1.3-1.48,1.3Zm-576.06-4.6c-4.19-1.67-8.11-4.25-12.2-6.24-.73-.39-1.01-1.3-.62-2.03.39-.73,1.29-1.01,2.03-.62,3.83,2.03,7.66,4.05,11.49,6.07,1.38.69.82,2.86-.7,2.83Zm-386.46-6.73c-1.19.03-1.96-1.46-1.2-2.4,2.61-3.45,5.38-6.88,8.26-10.17,1.32-1.46,3.53.46,2.26,1.97-2.83,3.24-5.56,6.61-8.12,10.01-.29.39-.74.6-1.2.6Zm363.48-5.43c-4.19-1.68-8.1-4.28-12.18-6.29-.73-.39-1.01-1.3-.62-2.03.39-.73,1.3-1.01,2.03-.62,3.82,2.04,7.65,4.08,11.47,6.11,1.37.7.81,2.86-.71,2.83Zm601.3-9.14c-.85,0-1.53-.71-1.5-1.56.12-3.31.19-6.66.19-9.96.18-1.5-.77-4.3,1.47-4.48,2.26.16,1.35,2.97,1.53,4.48,0,3.34-.06,6.73-.19,10.07-.03.81-.7,1.44-1.5,1.44Zm-624.24-3.09c-4.18-1.68-8.09-4.27-12.19-6.25-.73-.39-1.02-1.29-.63-2.03.39-.73,1.29-1.02,2.03-.63,3.85,2.02,7.68,4.05,11.5,6.08,1.37.7.81,2.86-.71,2.82Zm-323.46-1.93c-1.28.04-2.02-1.67-1.06-2.56,3.06-3.06,6.28-6.07,9.57-8.94,1.5-1.27,3.44.93,1.97,2.26-3.24,2.83-6.41,5.79-9.42,8.8-.29.29-.68.44-1.06.44Zm300.44-10.16c-4.36-1.73-8.33-4.24-12.27-6.04-.74-.37-1.04-1.27-.67-2.01.37-.74,1.27-1.04,2.01-.67,3.74,1.86,7.54,3.79,11.61,5.89,1.39.69.84,2.87-.69,2.83Zm-280.88-6.94c-1.37.05-2.06-1.88-.91-2.69,3.45-2.63,7.03-5.19,10.65-7.61.69-.46,1.62-.27,2.08.42.46.69.27,1.62-.42,2.08-3.57,2.38-7.1,4.91-10.5,7.5-.27.21-.59.31-.91.31Zm927.85-3.87c-.79,0-1.45-.61-1.5-1.41-.26-4.28-.62-8.61-1.08-12.88-.18-1.96,2.74-2.29,2.98-.32.47,4.31.84,8.7,1.1,13.03.05.86-.64,1.59-1.5,1.59Zm-670.25-.77c-4.29-1.61-8.4-3.96-12.4-5.63-.75-.34-1.09-1.23-.74-1.99.34-.75,1.23-1.09,1.99-.75,3.8,1.73,7.78,3.58,11.81,5.51,1.43.66.9,2.89-.65,2.85Zm-235.99-9.78c-1.49.03-2.08-2.06-.75-2.8,3.76-2.18,7.64-4.26,11.53-6.2.74-.37,1.64-.07,2.01.68.37.74.07,1.64-.68,2.01-3.83,1.91-7.66,3.96-11.37,6.11-.24.14-.5.2-.75.2Zm212.31-.96c-4.3-1.48-8.48-3.54-12.58-5.04-.77-.3-1.15-1.17-.85-1.95.3-.77,1.17-1.15,1.95-.85,3.92,1.54,7.98,3.21,12.07,4.95,1.49.61,1,2.91-.59,2.88Zm-24.2-9.5c-4.33-1.29-8.59-2.98-12.77-4.22-1.87-.62-.99-3.43.9-2.86,4.04,1.28,8.21,2.68,12.37,4.17,1.57.54,1.13,2.94-.5,2.91Zm-164.85-1.11c-1.59.03-2.08-2.28-.58-2.88,4.01-1.69,8.12-3.27,12.22-4.69.78-.27,1.64.14,1.91.92.27.78-.14,1.64-.92,1.91-4.26,1.37-8.41,3.31-12.63,4.74Zm880.17-3.71c-.73,0-1.36-.53-1.48-1.27-.67-4.24-1.46-8.52-2.33-12.71-.37-1.93,2.5-2.54,2.94-.61.89,4.24,1.68,8.57,2.36,12.86.15.9-.57,1.74-1.48,1.73Zm-740.11-2.99c-4.35-1.03-8.69-2.26-12.94-3.16-.81-.18-1.32-.98-1.14-1.79.18-.81.98-1.32,1.79-1.14,4.16.93,8.43,1.99,12.68,3.14,1.67.46,1.33,2.95-.39,2.95Zm-115.52-1.82c-1.7.02-2.07-2.5-.4-2.95,4.2-1.16,8.48-2.2,12.73-3.09,1.93-.37,2.54,2.5.61,2.94-4.33.85-8.65,2.06-12.94,3.1Zm90.15-3.82c-4.37-.69-8.75-1.38-13.04-1.86-1.95-.26-1.62-3.18.35-2.98,4.25.49,8.61,1.12,12.94,1.86,1.79.32,1.55,2.97-.25,2.98Zm-64.72-1.48c-1.83-.01-2.04-2.71-.21-2.99,4.32-.6,8.7-1.07,13.03-1.38,1.96-.12,2.18,2.82.21,2.99-4.33.29-8.71.8-13.03,1.37Zm38.91-1.5c-4.07-.23-8.16-.35-12.17-.35,0,0-.82,0-.82,0-.83,0-1.5-.67-1.5-1.49,0-.83.67-1.5,1.49-1.51h.82c4.04,0,8.16.12,12.26.35.83.05,1.46.76,1.41,1.58-.05.8-.71,1.41-1.5,1.41Zm785.98-13.83c-.67,0-1.27-.45-1.45-1.12-1.08-4.16-2.28-8.34-3.56-12.42-.56-1.89,2.24-2.77,2.86-.9,1.3,4.13,2.51,8.36,3.6,12.57.26.93-.49,1.89-1.45,1.88Zm-7.78-24.8c-.61,0-1.18-.38-1.41-.98-1.49-4.03-3.1-8.07-4.78-12.01-.74-1.82,1.95-2.98,2.76-1.18,1.7,3.99,3.33,8.07,4.84,12.15.37.95-.39,2.04-1.41,2.02Zm-10.22-23.89c-.55,0-1.09-.31-1.35-.84-1.89-3.86-3.9-7.71-5.97-11.45-.93-1.74,1.64-3.17,2.62-1.46,2.1,3.78,4.13,7.68,6.05,11.59.5.96-.27,2.18-1.35,2.16Zm-12.61-22.72c-.5,0-.99-.25-1.27-.7-2.28-3.64-4.68-7.26-7.13-10.77-1.1-1.63,1.29-3.32,2.46-1.72,2.49,3.55,4.92,7.21,7.22,10.9.64.96-.13,2.33-1.27,2.3Zm-14.92-21.27c-.44,0-.89-.2-1.18-.57-2.63-3.36-5.4-6.71-8.23-9.95-1.27-1.5.94-3.44,2.26-1.97,2.87,3.28,5.67,6.67,8.33,10.07.78.94.02,2.46-1.18,2.43Zm-17.08-19.58c-.39,0-.78-.15-1.08-.46-2.97-3.07-6.07-6.12-9.21-9.06-.6-.57-.64-1.52-.07-2.12.57-.6,1.51-.64,2.12-.07,3.18,2.98,6.32,6.06,9.32,9.17.93.9.19,2.59-1.08,2.54Zm-18.97-17.76c-.34,0-.69-.12-.97-.36-3.26-2.76-6.64-5.49-10.06-8.12-.66-.5-.78-1.45-.28-2.1.5-.66,1.45-.78,2.1-.28,3.45,2.65,6.87,5.42,10.17,8.21,1.07.85.37,2.7-.97,2.64Zm-20.6-15.84c-.3,0-.59-.09-.86-.27-3.51-2.45-7.14-4.85-10.78-7.14-.7-.44-.91-1.37-.47-2.07.44-.7,1.37-.91,2.07-.47,3.68,2.32,7.34,4.74,10.89,7.22,1.21.78.55,2.79-.86,2.73Zm-21.98-13.85c-.25,0-.51-.06-.74-.2-3.73-2.12-7.56-4.18-11.38-6.13-.74-.38-1.03-1.28-.65-2.02.38-.74,1.28-1.03,2.02-.65,3.87,1.97,7.74,4.06,11.5,6.2,1.33.73.75,2.84-.74,2.8Zm-328.18-7.28c-4.44,0-8.84-.18-13.1-.5-1.96-.18-1.74-3.11.23-2.99,4.19.32,8.52.48,12.88.49,1.97.04,1.97,2.97,0,3Zm12.99-.42c-1.9-.02-2.01-2.85-.1-3,4.23-.28,8.55-.69,12.85-1.24,1.95-.22,2.34,2.69.38,2.98-4.39.56-8.81.99-13.13,1.26Zm-38.89-1.6c-4.48-.66-8.9-1.64-13.1-2.73-.8-.21-1.28-1.03-1.07-1.83.21-.8,1.03-1.28,1.83-1.07,4.03,1.06,8.26,1.95,12.58,2.65,1.8.31,1.58,2.97-.24,2.98Zm64.67-1.64c-1.79,0-2.05-2.65-.26-2.98,4.07-.73,8.23-1.55,12.7-2.51,1.93-.38,2.56,2.48.63,2.93-4.61.97-8.84,1.87-13.07,2.56Zm266.27-.87c-4.2-1.51-8.29-3.66-12.5-5.23-.77-.31-1.14-1.18-.83-1.95.31-.77,1.18-1.14,1.95-.83,4.02,1.62,8.06,3.35,12.01,5.15,1.46.64.95,2.9-.62,2.87Zm-356.03-4.14c-4.39-1.37-8.57-3.56-12.52-5.59-.73-.39-1-1.3-.61-2.03.39-.73,1.3-1,2.03-.61,3.67,1.98,7.59,3.77,11.64,5.33,1.54.57,1.08,2.93-.54,2.9Zm115.19-.42c-1.74,0-2.06-2.54-.35-2.96,3.78-.92,7.78-1.92,12.59-3.16,1.91-.46,2.65,2.38.75,2.91-4.99,1.25-8.98,2.37-12.98,3.21Zm216.74-5.16c-4.26-1.26-8.5-2.9-12.79-4.12-.79-.24-1.24-1.08-1-1.87.24-.79,1.08-1.24,1.87-1,4.14,1.26,8.32,2.63,12.41,4.07,1.58.53,1.14,2.94-.5,2.91Zm-191.55-1.29c-1.72,0-2.07-2.5-.38-2.95,4.2-1.1,8.39-2.2,12.59-3.27,1.91-.46,2.65,2.39.74,2.91-4.33,1.06-8.62,2.32-12.95,3.32Zm-163.17-5.46c-.31,0-.62-.09-.89-.29-1.72-1.26-3.41-2.59-5.02-3.96-1.48-1.3.41-3.54,1.94-2.29,1.56,1.32,3.19,2.61,4.85,3.83,1.17.8.5,2.76-.89,2.71Zm329.86-.81c-4.31-.97-8.64-2.12-12.97-2.98-1.92-.44-1.33-3.3.62-2.94,4.24.89,8.52,1.89,12.72,2.97,1.69.44,1.36,2.95-.37,2.95Zm-141.49-.12c-1.74,0-2.06-2.54-.35-2.96,4.53-1.08,8.69-2.01,12.73-2.85,1.93-.37,2.54,2.5.61,2.94-4.1.81-8.4,1.89-12.99,2.87Zm116.05-5.21c-4.33-.66-8.72-1.33-13.05-1.82-.82-.1-1.41-.84-1.31-1.67.1-.82.84-1.41,1.67-1.31,4.3.51,8.65,1.12,12.94,1.82,1.8.31,1.57,2.97-.24,2.98Zm-90.59-.04c-1.8,0-2.05-2.66-.25-2.98.82-.14,1.64-.27,2.47-.4,3.46-.55,6.98-1.04,10.47-1.46.82-.09,1.57.49,1.67,1.31.1.82-.49,1.57-1.31,1.67-4.36.5-8.72,1.19-13.05,1.86Zm64.78-3c-4.33-.3-8.71-.53-13.02-.63-1.97-.09-1.89-3.01.08-3,4.32.11,8.71.32,13.05.63,1.9.16,1.8,2.97-.11,3Zm-38.97-.06c-1.9-.02-2.01-2.84-.1-3,4.31-.3,8.7-.5,13.06-.59,1.97-.03,2.04,2.93.06,3-4.34.09-8.72.3-13.02.59Z"/>
  <g>
    <g>
      <g>
        <g>
          <path class="cls-5" d="m173.97,551.92c-17.6,23.46-31.21,92.58-22.91,145.77,6.89,44.18,26.22,85.94,29.15,89.76,4.39,5.72,34.34,5.74,35.71-2.12.61-3.49,34.26-182.67,32.9-232.59-.77-28.27-54.01-28.6-74.85-.83Z"/>
          <path class="cls-5" d="m250.48,418.55c-6.16-37.59-83.25-50.37-94.52,21.02-12.54,79.48,13.6,132.8,24.4,146.43,15.28,19.29,56.22,8.6,61.74-4.38,12-28.22,14.22-127.45,8.38-163.07Z"/>
        </g>
        <g>
          <path class="cls-7" d="m173.82,772.83c.93-.81,43.5-2.07,43.96-1.66,2.34,2.08,11.78,13.03,23.52,15.69,20.51,4.79,25.72,15.3,21.56,28.44h-1.34c-8.69.48-78.81,1.65-90.09,0-2.58-.38-1.71-38.88,2.38-42.47Z"/>
          <path class="cls-2" d="m264.21,808.4c-.14,2.41-.69,5.08-1.35,6.9h-1.33c-8.69.48-78.81,1.65-90.09,0-.65-.09-1.08-2.61-1.3-6.38,26.6.49,68.71,0,94.07-.52Z"/>
          <path class="cls-4" d="m194.12,782.1c-10.14.35-10.14,14.98,0,15.33,4.23,0,7.66-3.43,7.66-7.66s-3.43-7.66-7.66-7.66Z"/>
        </g>
      </g>
      <g>
        <g>
          <path class="cls-5" d="m287.15,547.26c-17.6,23.46-31.21,92.58-22.91,145.77,6.89,44.18,26.22,85.94,29.15,89.76,4.39,5.72,34.34,5.74,35.71-2.12.61-3.49,32.47-199.6,23.27-233.76-7.38-27.39-44.39-27.43-65.22.34Z"/>
          <path class="cls-5" d="m284.02,404c-23.1-29.33-95.95.21-71.99,68.02,26.68,75.49,74.53,107.92,90.33,114.05,22.36,8.67,51.68-21.13,50.33-35.3-2.93-30.77-46.78-118.98-68.67-146.77Z"/>
        </g>
        <g>
          <path class="cls-7" d="m287.6,772.83c.93-.81,43.5-2.07,43.96-1.66,2.34,2.08,11.78,13.03,23.52,15.69,20.51,4.79,25.72,15.3,21.56,28.44h-1.34c-8.69.48-78.81,1.65-90.09,0-2.58-.38-1.71-38.88,2.38-42.47Z"/>
          <path class="cls-2" d="m377.99,808.4c-.14,2.41-.69,5.08-1.35,6.9h-1.33c-8.69.48-78.81,1.65-90.09,0-.65-.09-1.08-2.61-1.3-6.38,26.6.49,68.71,0,94.07-.52Z"/>
          <path class="cls-4" d="m307.89,782.1c-10.14.35-10.14,14.98,0,15.33,4.23,0,7.66-3.43,7.66-7.66s-3.43-7.66-7.66-7.66Z"/>
        </g>
      </g>
      <path class="cls-7" d="m251.66,446.5l-1.4,95.75,6.3,7.71c3.52-31.73-1.85-103.46-4.9-103.46Z"/>
    </g>
    <g>
      <g>
        <rect class="cls-8" x="224.13" y="243.78" width="17.69" height="29.37"/>
        <path class="cls-7" d="m229.72,256.88c1.24,3.92,5.87,7.68,12.11,7.19v-5.49l-12.11-1.69Z"/>
      </g>
      <g>
        <path class="cls-8" d="m249.83,251.74c.18-3.88.14-20.7.14-20.7h-25.07c-8.21,30.03,22.07,38.29,24.93,20.7Z"/>
        <path class="cls-7" d="m246.84,217.95c-19.95-3.21-22.74,6.33-22.74,6.33,0,0-7.81-2.32-9.54,6.75-1.17,6.1,4.87,11.76,4.87,11.76h5.69s1.6-1.04,4.76-6.03c1.55-2.44.99-6.15.99-6.15,0,0,2.29,5.19,8.07,5.76,6,.59,10.99-.76,10.99-.76,0,0,7.06-16.03-3.08-17.66Z"/>
        <path class="cls-8" d="m227.21,242.32c3.72,6.12-3.1,10.46-7.08,4.51-3.72-6.12,3.1-10.46,7.08-4.51Z"/>
      </g>
    </g>
    <g>
      <path class="cls-5" d="m242.04,261.25c-10.14-.74-10.46-.85-10.58-.89-1.37-.45-5.89-4.62-7.25-5.89l1.17-1.23c2.6,2.43,5.81,5.19,6.58,5.5.72.11,6.6.55,10.21.82l-.13,1.69Z"/>
      <g>
        <path class="cls-5" d="m240.53,217.29h-.02c-12.46,2.55-19.59,16.99-17.15,31.83l-4.4.59c-1.38-9.03.04-19.12,4.6-26.41,4.07-6.73,13.82-7.95,16.96-6.01Z"/>
        <path class="cls-5" d="m213.9,249.48c1.24,5.58,5.88,9.31,10.35,8.33,10.63-2.88,6.31-22.07-4.51-20.22-4.47.98-7.08,6.31-5.84,11.89Z"/>
        <path class="cls-2" d="m221.21,257.25c-5.85-.03-9.57-9.16-6.74-14.43,3.42-6.68,10.95-2.64,12.3,4.08,1.1,5.18-1.24,10.26-5.56,10.35Z"/>
      </g>
      <path class="cls-2" d="m241.71,258.33h3.04c1.01,0,1.83.81,1.83,1.82,0,1-.82,1.82-1.83,1.82h-3.04c-2.41-.06-2.41-3.57,0-3.63Z"/>
    </g>
    <g>
      <g>
        <g>
          <path class="cls-8" d="m393.2,260.89c-20.87,17.45-49.88,39.56-62.9,63.12-22.56,40.81,4.31,52.12,12.62,51.89,14.28-.4,24.26-12.66,40-36.01,13-19.29,23.5-42.84,30.37-68.74,2.49-9.39-10.35-18.41-20.1-10.26Z"/>
          <path class="cls-3" d="m410.89,286.28s-.03.07-.04.11c-6.65,20.14-15.61,38.8-26.27,54.62-14.94,22.13-25.76,36.58-41.91,36.9-5.05,0-14.45-3.2-19.65-12.02-4.27-7.25-6.79-20.57,5.53-42.85,11.26-20.39,34.44-39.8,53.64-55.63,8.1,5.29,19.12,12.55,28.7,18.87Z"/>
        </g>
        <path class="cls-3" d="m255.55,273.85c-18.49.22-33.42,15.49-21.65,39.1,14.31,28.71,90.68,75.45,116.6,63.21,9.03-4.26,14.35-15.66,11.08-26.11-9.07-28.95-76.77-76.55-106.03-76.19Z"/>
        <g>
          <path class="cls-8" d="m414.9,239.18l1.31-9.9c1.31-9.9-7.06-12.74-9.4-8.57-.89,1.59-7.53,18.64-13.91,26.37-4.4,5.33-4.03,12.74-3.37,16.82.29,1.83,1.7,3.05,2.99,4.38,5.22,5.38,17.41,11.69,18.78,10.83,3.04-1.91,19.25-4.98,21.36-11.86,2.11-6.88-17.76-28.06-17.76-28.06Z"/>
          <path class="cls-8" d="m447.16,247.54c-2.45.55-12.18,3.93-12.18,3.93,0,0,8.48-3.32,10.88-7.25,3.15-5.15.61-9.45-3.91-7.35-1.82.85-12.85,7.16-12.85,7.16,0,0,8.41-5.36,10.5-8.34,4.2-6.01-.83-10.01-5.89-6.76-2.24,1.43-26.02,15.68-26.02,15.68l7.77,32.31s24.9-9.69,27.87-11.14c4.15-2.03,3.8-5.32,2.68-6.29-1.88-1.63-8.91.05-8.91.05,0,0,8.06-3.11,9.86-4.13,5.5-3.13,3.01-8.49.22-7.86Z"/>
          <path class="cls-7" d="m412.06,251.75c-.58.01-.96-.69-.62-1.17,3.86-5.75,2.79-11.59,2.78-11.65-.18-.96,1.28-1.25,1.47-.28.05.26,1.2,6.51-3.01,12.77-.14.22-.38.33-.62.33Z"/>
          <path class="cls-7" d="m428.95,263.9c-.37,0-.7-.28-.74-.66-1.14-9.59-8.73-17.74-8.8-17.82-.67-.71.41-1.74,1.09-1.03.33.35,8,8.6,9.2,18.68.06.44-.3.84-.75.84Z"/>
        </g>
      </g>
      <g>
        <path class="cls-4" d="m268.13,277.26c-10.25-9.48-80.35-8.99-85.52,2.12-20.62,44.26-27.4,142.94-27.4,142.94l147.5-1.39s16.85-96.13-34.57-143.68Z"/>
        <path class="cls-8" d="m224.13,270.46s2.31,10.79,13.82,9.61c4.93-.5,3.87-9.11,3.87-9.11-6.03-.52-11.85-.69-17.69-.49Z"/>
        <path class="cls-3" d="m221.55,270.57c.78-.01-3.5,82.03-3.46,159.94l-67.07.27c0-26.73,8.73-105.99,29.27-151.17,4.01-8.8,30.62-8.89,41.25-9.04Z"/>
        <path class="cls-3" d="m311.25,428.75l-44.23,2.04c-.63-50.94-21.36-159.38-20.85-159.34,11.87.92,19.14,1.82,23.16,5.62,27.04,25.63,35.16,64.86,37.21,93.25,2.21,30.62,4.76,58.17,4.71,58.42Z"/>
      </g>
      <g>
        <path class="cls-3" d="m218.71,305.62c4.43-17.95-6.59-36.24-32.39-30.79-31.39,6.63-95.83,68.78-90.51,96.95,1.86,9.81,11.55,17.83,22.48,17.29,30.3-1.5,93.4-55.05,100.42-83.45Z"/>
        <g>
          <g>
            <path class="cls-8" d="m178.04,405.61c-4.28-6.66-12.32-22.7-25.79-42.14-26.55-38.33-53.83-3.5-54.49,4.79-1.12,14.24,10.01,25.47,31.56,43.6,17.8,14.98,23.41,18.25,29.78,20.73,9.05,3.52,25.8-16.29,18.93-26.97Z"/>
            <path class="cls-3" d="m174.32,395.3l-28.01,32.51c-4.41-3.08-10.08-7.55-18.27-14.43-20.3-17.08-33.52-29.45-32.27-45.29.51-6.36,12.28-22.91,28.17-24.2,10.79-.88,20.87,5.33,29.95,18.43,9.12,13.15,15.89,24.99,20.43,32.97Z"/>
          </g>
          <path class="cls-8" d="m164.86,408.51c3.96-4.51,7.63-7.27,22.69-9.24,13.11-1.72,23.25,2.54,28.98,10.23,4.38,5.89.32,10.6-3.78,8.42-5.98-3.17-9.75-3.4-9.75-3.4,0,0,13.3,4.42,14.81,10.44,1.39,5.56-2.63,9.05-7.15,5.66-4.17-3.13-12.7-7.3-12.87-6.7-.07.24,10.4,3.88,12.96,11.39,1.94,5.68-3.34,10.05-7.29,6.71-8.71-7.38-12.5-7.79-12.5-7.79,0,0,11.96,8.12,10.22,14.13-.74,2.57-3.17,6.05-8.96,2.11-9.62-6.55-15.49-8.29-24.9-10.16-9.41-1.87-15.46-16.97-2.45-31.78Z"/>
        </g>
      </g>
      <polygon class="cls-7" points="190.95 335.26 159.88 366.03 172.36 395.3 171.34 367.52 190.95 335.26"/>
      <path class="cls-7" d="m293.3,300.44c6.9,22.84,11.64,45.78,13.16,68.88l7.85,3.19c-3.49-27.74-10.43-51.82-21-72.07Z"/>
    </g>
  </g>
  <g>
    <path class="cls-2" d="m153.69,165.47c3.47-11.61,5.88-20.18,8.74-31.94,1.01-4.16,2.29-9.34,3.84-15.52.3-1.13.64-1.86,1.03-2.19,1.16-.72,3.37-.48,5.44-.36,3.67.38,8.95,1.85,8.88,6.47,0,1.43-.4,3.61-1.2,6.56-1.86,6.79-4.56,14.6-7.23,21.77-3.34,8.86-7.39,19.12-11.28,26.81-.65,1.13-1.81,1.69-3.48,1.69h-9.37c-5.73.25-7.8-5.44-8.83-10.08-2.02-8.44-3.76-15.77-5.22-21.99-2.43-10.9-5.02-20.39-6.47-29.48.29-2.06,3.6-1.85,6.24-1.96,6.93-.19,11.86,2.54,12.49,9.55,1.97,13.61,3.82,24.89,6.42,40.68Z"/>
    <path class="cls-2" d="m217.38,114.45c11.14-.24,20.33,4.81,23.02,15.75,2.13,8.44,1.69,18.87-.94,27.65-2.62,8.96-8.5,16.81-17.71,19.98-6.34,2.5-17.89,2.5-23.86-.4-10.37-4.44-13.13-15.53-13.07-26.05-.17-20.53,9.91-37.24,32.56-36.93Zm-1.87,13.83c-11.31-.29-14.2,12.97-14.09,21.86,0,5.41.91,9.37,2.72,11.86,2.94,4.53,10.77,5.03,14.41,1.11,3.59-3.59,5.36-8.98,6.07-14,1.07-8.38,1.43-20.79-9.1-20.83Z"/>
    <path class="cls-2" d="m258.51,178.76c-9.74.01-9.73-5.35-9.01-13.69.41-6.66,1.1-14.31,1.61-21.54.49-7.11,1.19-14.67,1.61-21.14.18-2.73.27-4.61.27-5.62,0-.89.48-1.34,1.43-1.34h4.91c11.62-.43,9.07,9.68,8.65,18.11-1.05,13.98-1.94,30.11-3.12,43.89-.15.99-.35,1.33-1.43,1.34h-4.91Z"/>
    <path class="cls-2" d="m286.52,178.76c-8.35.13-9.88-4.26-9.14-11.64.23-4.18.63-8.94.98-13.6.72-9.41,1.67-19.63,2.23-28.5.2-3.04.28-5.33.31-8.25,0-.48.15-.82.45-1.03.3-.21.59-.31.89-.31,1.55,0,3.24-.04,5.08-.13,3.58-.17,7.36-.45,10.88-.62,7.66-.45,15.78-.03,21.01,5.26,6.03,6.34,5.72,16.96,3.57,25.07-3.52,13.23-16.5,19.24-29.48,16.01l-1.25,16.41c-.15.99-.35,1.33-1.43,1.34h-4.1Zm14.45-50.85c-1.77,0-3.72.25-5.62.45-.29,6.02-.63,13.67-1.16,20.34,7.89,2.15,13.08-.94,14.45-8.92,1.08-6.37.14-12.19-7.67-11.86Z"/>
  </g>
  <g>
    <g>
      <rect class="cls-7" x="414.08" y="130.31" width="406.8" height="686.67" rx="27.65" ry="27.65"/>
      <g>
        <path class="cls-4" d="m438.19,167.38h359.22c11.9,0,21.57,9.66,21.57,21.57v549.26c0,11.9-9.66,21.57-21.57,21.57h-359.22c-11.9,0-21.57-9.66-21.57-21.57V188.95c0-11.9,9.66-21.57,21.57-21.57Z"/>
        <path class="cls-7" d="m797.41,761.28h-359.22c-12.72,0-23.07-10.35-23.07-23.07V188.95c0-12.72,10.35-23.07,23.07-23.07h359.22c12.72,0,23.07,10.35,23.07,23.07v549.26c0,12.72-10.35,23.07-23.07,23.07ZM438.19,168.88c-11.06,0-20.07,9-20.07,20.07v549.26c0,11.06,9,20.07,20.07,20.07h359.22c11.06,0,20.07-9,20.07-20.07V188.95c0-11.06-9-20.07-20.07-20.07h-359.22Z"/>
      </g>
    </g>
    <rect class="cls-1" x="450.19" y="204.22" width="334.58" height="69.16" rx="12" ry="12"/>
    <path class="cls-4" d="m617.48,141.82c-11.19.41-11.2,16.49,0,16.9,4.67,0,8.45-3.78,8.45-8.45s-3.78-8.45-8.45-8.45Z"/>
    <g>
      <path class="cls-1" d="m617.48,310.19c-117.16-.43-179.76,140.98-101.6,227.06,51.84,60.32,151.33,60.31,203.2,0,78.16-86.07,15.53-227.51-101.6-227.06Z"/>
      <g>
        <path class="cls-4" d="m617.47,354.27c-28.47,0-51.56,23.08-51.56,51.56,2.72,68.39,100.41,68.37,103.11,0,0-28.47-23.08-51.56-51.56-51.56Z"/>
        <path class="cls-4" d="m515.88,537.25c51.85,60.33,151.34,60.3,203.2,0-13.12-29.04-38.34-51.46-69.21-60.85h-.03c-20.29-6.32-44.46-6.31-64.75,0h-.03c-30.87,9.41-56.09,31.81-69.18,60.85Z"/>
      </g>
    </g>
    <g>
      <g>
        <path class="cls-1" d="m617.48,616.94c-21.65,0-39.21,17.55-39.21,39.21,2.07,52.01,76.36,51.99,78.41,0,0-21.65-17.55-39.21-39.21-39.21Z"/>
        <g>
          <path class="cls-4" d="m617.48,679.18c-12.7,0-23.04-10.34-23.04-23.04,1.27-30.56,44.82-30.56,46.08,0,0,12.7-10.34,23.04-23.04,23.04Zm0-44.07c-11.6,0-21.03,9.44-21.03,21.03,1.16,27.9,40.92,27.9,42.07,0,0-11.6-9.44-21.03-21.03-21.03Z"/>
          <path class="cls-4" d="m617.48,679.18c-6.05,0-10.78-10.12-10.78-23.04.4-30.58,21.16-30.58,21.57,0,0,12.92-4.74,23.04-10.78,23.04Zm0-44.07c-4.76,0-8.78,9.63-8.78,21.03.68,27.92,16.88,27.91,17.56,0,0-11.4-4.02-21.03-8.78-21.03Z"/>
          <path class="cls-4" d="m617.48,666.93c-12.92,0-23.04-4.74-23.04-10.78.61-14.27,45.48-14.26,46.08,0,0,6.05-10.12,10.78-23.04,10.78Zm0-19.56c-11.4,0-21.03,4.02-21.03,8.78s9.63,8.78,21.03,8.78,21.03-4.02,21.03-8.78-9.63-8.78-21.03-8.78Z"/>
        </g>
      </g>
      <g>
        <path class="cls-1" d="m513.07,614.56c-21.65,0-39.21,17.55-39.21,39.21,2.07,52.01,76.36,51.99,78.41,0,0-21.65-17.55-39.21-39.21-39.21Z"/>
        <g>
          <path class="cls-4" d="m533.35,654.08l-19.52-16.16c-.44-.36-1.08-.36-1.52,0l-19.52,16.16c-.27.23-.43.56-.43.92v20.03c0,.66.53,1.19,1.19,1.19h39.05c.66,0,1.19-.53,1.19-1.19v-20.03c0-.36-.16-.69-.43-.92Z"/>
          <path class="cls-4" d="m536.16,650.18l-22.57-18.68c-.3-.25-.74-.25-1.04,0l-22.57,18.68c-.99.82-.41,2.43.88,2.43.32,0,.63-.11.88-.32l20.82-17.23c.3-.25.74-.25,1.04,0l20.82,17.23c1.38,1.13,3.15-.94,1.75-2.12Z"/>
          <path class="cls-1" d="m513.07,658.52c-2.91,0-5.27,2.36-5.27,5.27v7.68h10.54v-7.68c0-2.91-2.36-5.27-5.27-5.27Z"/>
        </g>
      </g>
      <g>
        <path class="cls-1" d="m721.88,615.18c-21.65,0-39.21,17.55-39.21,39.21,2.07,52.01,76.36,51.99,78.41,0,0-21.65-17.55-39.21-39.21-39.21Z"/>
        <g>
          <path class="cls-4" d="m714,645.86c-5.62-4.38-10.28-8.09-13.27-10.49,2.71-3.58,7.03-4.27,11.28-.67,2.92,2.48,4.83,5.35,1.99,11.15Z"/>
          <path class="cls-4" d="m744.24,670.33c-2.79,4.87-8.99,7.66-15.46,5.25-16.01-6.64-38.51-24.81-28.94-39.08,3.06,2.45,7.85,6.27,13.63,10.76-.43,1.46-.52,3.08.24,4.24,3.04,4.6,7.4,7.05,11.87,9.3,3.05,1.54,4.12.84,5.37-.19,4.38,3.27,8.87,6.57,13.29,9.72Z"/>
          <path class="cls-4" d="m744.97,669.08c-4.28-3.05-8.62-6.23-12.86-9.4,4.19-3.13,7.38-2.69,10.24-.78,4.11,2.74,4.94,5.86,2.63,10.18Z"/>
        </g>
      </g>
    </g>
  </g>
  <g>
    <path class="cls-2" d="m829.12,186.48c2.56-60.25,70.36-97.83,122.92-67.56,39.74,22.36,53.83,72.69,31.47,112.43-30.81,56.1-113.91,55.49-144.11-.37l-47.01-5.38,36.73-39.12Z"/>
    <path class="cls-4" d="m956,142.05c-15.06,11.37-35.95,43.92-49.09,80.41-.08.23-13.38-18.44-25.11-27.28-16.72-15.08-24.82.67-16.76,6.53,17.14,12.46,25.65,21.23,34.59,36.43,7.22,12.27,15.11,7.43,16.77,1.7,4.66-16.12,5.56-23.39,10.57-37.53,14.69-41.49,26.94-50.07,32.07-57.55,1.29-1.88-1.22-4.09-3.04-2.71Zm-51.56,95.34s.03-.04.08-.1c-.01.02-.1.15-.08.1Z"/>
  </g>
  <g>
    <g>
      <g>
        <path class="cls-3" d="m972.92,540.11c-7.18-.16-17.78,1.03-24.35,4.83,9.02-.6,17.3-.63,22.94,1.38-3.51,15.72-16.6,32.55-26.13,42.49-3.22-3.47-7.66-4.83-13.18-4.32,4.34,2.18,7.63,4.67,10.05,7.42-14.16,13.34-26.81,17.07-30.23,14.88-5.19-2.93-21.59-13.42-29.51-33.23-.94-1.54,8.38-5.47,14.34-6.35-6.14-1.2-11.1.29-15.73,2.57-3.59-10.7-3.7-23.82-1.86-35.1,7.21-.28,13.27,1.74,18.88,4.65-2.84-5.38-8.16-9.07-17.93-9.74,2.12-10.03,5.76-19.65,10.34-28.48,7.02-.96,13.88,1.35,20.67,5.1-4.32-5.36-9.97-9.11-18.08-9.83,7.13-12.46,16.06-23.12,25.02-30.85,4.95,4.18,9.97,9.44,15.03,15.46-1.87-7.72-5.35-14.11-10.74-18.93,10.19-7.69,20.07-11.35,27.1-9.27,9.21,2.72,18.28,19.76,22.61,41.06-6.83.08-14.27,1.81-22.02,4.37,8.52-1.32,16.4-1.27,23.06,1.39,2.04,13,2.27,27.2-.28,40.48Z"/>
        <path class="cls-7" d="m908.71,732.93c-1.1.12-2.09-.7-2.15-1.8-9.92-157.73,37.84-265.45,38.32-266.52.44-.97,1.59-1.41,2.56-.97.98.44,1.41,1.59.97,2.56-.48,1.06-47.84,107.97-37.98,264.68.07,1.04-.7,1.93-1.72,2.05Z"/>
      </g>
      <g>
        <path class="cls-3" d="m1047.22,627.41c.16,1.41-9.64,1.3-23.6,5.85-.77-3.35-2.58-6.29-5.1-8.93,1.54,3.42,2.65,6.66,3.11,9.61-8.19,2.43-15.11,7.69-21.4,12.92-.21-5.2-2.07-9.02-4.67-12.2,1.37,4.76,2.44,9.48,2.27,14.1-7.43,5.81-15.36,10.77-27.56,9.8.77-5.51.15-10.78-2.45-15.74.76,5.15.7,10.29-.79,15.41-9.42-1.17-15.31-3.72-18.48-5.54-2.89-1.64-4.7-4.92-4.62-8.24.14-6.02,2.24-24.3,21.52-33.56,33.31-15.59,71.52-9.6,81.79,16.53Z"/>
        <path class="cls-7" d="m913.15,733.98c-1.27.15-2.41-1.05-2.11-2.32.55-2.61,13.62-64.33,37.57-91.24,31.41-35.29,66.08-30.28,89.63-19.87.98.43,1.42,1.58.99,2.56-.43.98-1.58,1.42-2.56.99-22.37-9.89-55.31-14.64-85.17,18.9-23.27,26.14-36.54,88.82-36.67,89.45-.18.84-.87,1.44-1.68,1.53Z"/>
      </g>
      <g>
        <path class="cls-3" d="m753.8,597.24c-.32,1.65,11.22,2.46,27.21,9.15,1.23-3.87,3.64-7.15,6.86-10.02-2.14,3.88-3.76,7.58-4.58,11.01,9.4,3.65,17.05,10.5,23.95,17.26.75-6.1,3.3-10.42,6.67-13.91-2.07,5.47-3.78,10.93-4.03,16.37,8.19,7.56,17.05,14.15,31.49,14.18-.38-6.55.86-12.71,4.4-18.29-1.4,5.99-1.82,12.04-.55,18.22,11.2-.46,18.38-2.9,22.28-4.75,3.56-1.65,6-5.34,6.23-9.26.41-7.1-.3-28.81-22.1-41.56-37.7-21.55-83.24-18.17-97.84,11.59Z"/>
        <path class="cls-7" d="m901.99,735.23c-1.05.12-2.01-.63-2.14-1.69-7.78-57.63-32.03-171.83-133.43-139.51-1.01.35-2.11-.18-2.47-1.19-.35-1.01.18-2.12,1.19-2.47,28.61-9.95,69.73-12.5,103.18,31.88,25.54,33.89,34.99,107.69,35.37,110.82.13,1.07-.64,2.05-1.71,2.17Z"/>
      </g>
    </g>
    <g>
      <rect class="cls-7" x="870.61" y="807.95" width="16.4" height="8.2"/>
      <rect class="cls-7" x="928.53" y="807.95" width="16.4" height="8.2"/>
      <path class="cls-2" d="m922.4,689.47h-58.28l6.6,119.6h74.22l6.59-119.6h-29.13Z"/>
    </g>
  </g>
  <g>
    <path class="cls-7" d="m349.59,858.23H124.23c-.83,0-1.5-.67-1.5-1.5s.67-1.5,1.5-1.5h225.36c.83,0,1.5.67,1.5,1.5s-.67,1.5-1.5,1.5Z"/>
    <path class="cls-7" d="m838.62,858.23h-225.36c-.83,0-1.5-.67-1.5-1.5s.67-1.5,1.5-1.5h225.36c.83,0,1.5.67,1.5,1.5s-.67,1.5-1.5,1.5Z"/>
    <path class="cls-7" d="m1047.22,817.65H1.52c-.83,0-1.5-.67-1.5-1.5s.67-1.5,1.5-1.5h1045.7c.83,0,1.5.67,1.5,1.5s-.67,1.5-1.5,1.5Z"/>
  </g>
  <g>
    <polygon class="cls-2" points="472.09 87.28 447.11 69.29 463.93 62.06 472.09 87.28"/>
    <polygon class="cls-9" points="447.23 73.43 411.95 51.56 463.68 67.36 447.23 73.43"/>
    <polygon class="cls-9" points="411.94 51.51 488.45 53.83 472.71 60.33 411.94 51.51"/>
    <polygon class="cls-6" points="411.95 51.56 463.72 67.48 472.09 87.28 472.82 60.18 411.95 51.56"/>
  </g>
  <g>
    <path class="cls-3" d="m73.55,220.71c6.84-1.98,12.18-9.01,13.69-18l.82-4.91.82,4.91c1.51,9,6.85,16.02,13.69,18l3.73,1.08-3.73,1.08c-6.84,1.98-12.18,9.01-13.69,18l-.82,4.91-.82-4.91c-1.51-9-6.85-16.02-13.69-18l-3.73-1.08,3.73-1.08Z"/>
    <path class="cls-5" d="m992.49,746.62c6.76-1.96,12.03-8.9,13.52-17.79l.81-4.85.81,4.85c1.49,8.89,6.77,15.83,13.52,17.79l3.69,1.07-3.69,1.07c-6.76,1.96-12.03,8.9-13.52,17.79l-.81,4.85-.81-4.85c-1.49-8.89-6.77-15.83-13.52-17.79l-3.69-1.07,3.69-1.07Z"/>
    <path class="cls-3" d="m551.18,37.44c6.47-1.88,11.52-8.52,12.95-17.03l.78-4.64.78,4.64c1.43,8.51,6.48,15.16,12.95,17.03l3.53,1.02-3.53,1.02c-6.47,1.88-11.52,8.52-12.95,17.03l-.78,4.64-.78-4.64c-1.43-8.51-6.48-15.16-12.95-17.03l-3.53-1.02,3.53-1.02Z"/>
    <path class="cls-5" d="m358.54,437.98c5.7-1.65,10.15-7.5,11.4-15l.69-4.09.69,4.09c1.26,7.49,5.7,13.34,11.4,15l3.11.9-3.11.9c-5.7,1.65-10.15,7.5-11.4,15l-.69,4.09-.69-4.09c-1.26-7.49-5.7-13.34-11.4-15l-3.11-.9,3.11-.9Z"/>
    <path class="cls-2" d="m891.16,376.71c9.19-2.66,16.36-12.1,18.38-24.18l1.1-6.59,1.1,6.59c2.02,12.08,9.2,21.52,18.38,24.18l5.01,1.45-5.01,1.45c-9.19,2.66-16.36,12.1-18.38,24.18l-1.1,6.59-1.1-6.59c-2.02-12.08-9.2-21.52-18.38-24.18l-5.01-1.45,5.01-1.45Z"/>
    <path class="cls-3" d="m54.49,758.75c6.47-1.88,11.53-8.52,12.95-17.03l.78-4.65.78,4.65c1.43,8.51,6.48,15.16,12.95,17.03l3.53,1.02-3.53,1.02c-6.47,1.88-11.53,8.52-12.95,17.03l-.78,4.65-.78-4.65c-1.43-8.51-6.48-15.16-12.95-17.03l-3.53-1.02,3.53-1.02Z"/>
  </g>
</svg>