<svg width="246" height="56" viewBox="0 0 246 56" fill="none" xmlns="http://www.w3.org/2000/svg">
<path d="M32.1349 20.4186C29.8292 18.3802 27.0387 16.9224 24.0103 16.1743C20.9819 15.4262 17.8091 15.4108 14.7731 16.1295C11.7372 16.8483 8.93156 18.279 6.60495 20.2949C4.27824 22.3109 2.50235 24.8497 1.4345 27.6867C0.366647 30.5237 0.0398093 33.5712 0.483061 36.5593C0.92621 39.5473 2.12558 42.3838 3.97513 44.8173C5.82458 47.2509 8.26709 49.2064 11.0862 50.5106C13.9051 51.8149 17.0139 52.4277 20.1368 52.2947H35.2251L29.0603 46.3465H19.8651C17.7552 46.4363 15.6549 46.0223 13.7502 45.1411C11.8456 44.2599 10.1955 42.9387 8.94584 41.2946C7.69633 39.6504 6.88586 37.734 6.58645 35.7152C6.28705 33.6963 6.50785 31.6374 7.22934 29.7206C7.95083 27.8039 9.15061 26.0885 10.7226 24.7265C12.2946 23.3646 14.1901 22.3979 16.2413 21.9123C18.2926 21.4267 20.4361 21.437 22.4822 21.9426C24.5282 22.448 26.4136 23.4329 27.9713 24.8101C29.5291 26.1872 52.3093 48.2149 52.3093 48.2149C55.0111 50.8242 60.9222 52.679 66.1397 52.2447C68.3601 52.0601 70.5126 51.5015 72.5049 50.6091L74.2691 52.3125H81.4614L76.8819 47.8902C77.1398 47.6766 77.3926 47.4567 77.6392 47.229C80.7688 44.3416 82.7837 40.5095 83.3519 36.3658C83.9201 32.2221 83.0067 28.015 80.7627 24.4412C78.5187 20.8667 75.0787 18.1392 71.0109 16.7091C66.9442 15.2794 62.4932 15.2324 58.3946 16.5768C54.2958 17.9212 50.7952 20.5761 48.4717 24.1025C47.3585 25.7916 46.5474 27.6322 46.0564 29.5482L51.7126 35.0102C51.4736 32.305 52.1611 29.5948 53.6737 27.2995C55.2433 24.9169 57.6086 23.1234 60.3776 22.215C63.1467 21.3067 66.1541 21.3381 68.9015 22.3042C71.649 23.2707 73.9731 25.1131 75.4897 27.5282C77.0052 29.9428 77.6227 32.7851 77.2395 35.5843C76.8552 38.3836 75.4938 40.9731 73.3793 42.9235C73.0977 43.1832 72.8049 43.4293 72.5028 43.6618L70.1592 41.3985H62.9669L67.6994 45.9689C67.0182 46.1379 66.3195 46.2532 65.6105 46.3124C62.2682 46.5903 59.0573 46.3124 56.6684 44.0053C56.6684 44.0053 34.4405 22.4569 32.1349 20.4186Z" fill="#4BACDF"/>
<path fill-rule="evenodd" clip-rule="evenodd" d="M53.2114 15.6251C54.5292 14.8678 55.9328 14.2406 57.4031 13.7584C57.9065 13.5933 58.4141 13.4464 58.9258 13.3174C57.7617 9.91416 55.5875 6.90545 52.6615 4.67273C49.4173 2.19703 45.4255 0.810444 41.2916 0.723132C37.1577 0.635918 33.107 1.85274 29.7538 4.18914C26.6219 6.37136 24.2579 9.41916 22.9676 12.9212C23.5737 13.0197 24.1763 13.1428 24.7742 13.2906C26.1835 13.6387 27.5486 14.1192 28.851 14.7222C29.7374 12.4382 31.3043 10.4515 33.3619 9.01782C35.6272 7.43935 38.3639 6.61732 41.1568 6.67626C43.9497 6.73519 46.6465 7.67202 48.8383 9.34455C50.9403 10.9486 52.4678 13.1454 53.2114 15.6251Z" fill="#FA8339"/>
<path d="M114.256 23.198H110.421C110.35 22.7188 110.207 22.2932 109.991 21.9211C109.775 21.5434 109.498 21.2221 109.159 20.9571C108.821 20.6922 108.429 20.4892 107.986 20.3483C107.548 20.2073 107.072 20.1369 106.558 20.1369C105.631 20.1369 104.822 20.3596 104.133 20.8049C103.444 21.2447 102.91 21.8873 102.531 22.7329C102.151 23.5729 101.961 24.5933 101.961 25.794C101.961 27.0286 102.151 28.0659 102.531 28.9059C102.916 29.7459 103.452 30.3801 104.142 30.8085C104.83 31.237 105.628 31.4512 106.533 31.4512C107.04 31.4512 107.51 31.3864 107.942 31.2567C108.38 31.127 108.768 30.9382 109.107 30.6902C109.446 30.4365 109.726 30.1292 109.947 29.7684C110.175 29.4077 110.332 28.9961 110.421 28.5339L114.256 28.5507C114.157 29.3457 113.909 30.1123 113.511 30.8508C113.121 31.5837 112.592 32.2405 111.927 32.8211C111.267 33.3962 110.478 33.8528 109.562 34.191C108.651 34.5236 107.621 34.6899 106.471 34.6899C104.871 34.6899 103.441 34.3404 102.18 33.6413C100.925 32.9423 99.9322 31.9304 99.2027 30.6056C98.4784 29.2808 98.1167 27.677 98.1167 25.794C98.1167 23.9055 98.4845 22.2988 99.2202 20.9741C99.9559 19.6492 100.955 18.6402 102.215 17.9467C103.476 17.2477 104.895 16.8982 106.471 16.8982C107.51 16.8982 108.474 17.0392 109.36 17.321C110.254 17.6028 111.045 18.0144 111.734 18.5556C112.423 19.0911 112.983 19.7479 113.415 20.5259C113.853 21.3039 114.133 22.1946 114.256 23.198ZM120.635 17.135V34.4531H116.905V17.135H120.635ZM129.701 34.7068C128.341 34.7068 127.164 34.4277 126.172 33.8696C125.185 33.3059 124.423 32.5224 123.886 31.5189C123.349 30.5098 123.08 29.34 123.08 28.0096C123.08 26.6678 123.349 25.4953 123.886 24.4918C124.423 23.4827 125.185 22.6991 126.172 22.141C127.164 21.5772 128.341 21.2954 129.701 21.2954C131.061 21.2954 132.234 21.5772 133.221 22.141C134.214 22.6991 134.978 23.4827 135.516 24.4918C136.052 25.4953 136.321 26.6678 136.321 28.0096C136.321 29.34 136.052 30.5098 135.516 31.5189C134.978 32.5224 134.214 33.3059 133.221 33.8696C132.234 34.4277 131.061 34.7068 129.701 34.7068ZM129.719 31.9163C130.337 31.9163 130.854 31.7472 131.268 31.4089C131.683 31.065 131.996 30.5971 132.205 30.0052C132.421 29.4133 132.529 28.7396 132.529 27.9842C132.529 27.2288 132.421 26.5551 132.205 25.9632C131.996 25.3713 131.683 24.9033 131.268 24.5594C130.854 24.2156 130.337 24.0436 129.719 24.0436C129.094 24.0436 128.568 24.2156 128.143 24.5594C127.721 24.9033 127.404 25.3713 127.188 25.9632C126.977 26.5551 126.873 27.2288 126.873 27.9842C126.873 28.7396 126.977 29.4133 127.188 30.0052C127.404 30.5971 127.721 31.065 128.143 31.4089C128.568 31.7472 129.094 31.9163 129.719 31.9163ZM147.372 28.9228V21.4645H151.102V34.4531H147.521V32.0939H147.381C147.078 32.8549 146.572 33.4666 145.866 33.9289C145.166 34.3911 144.31 34.6223 143.3 34.6223C142.401 34.6223 141.61 34.425 140.927 34.0304C140.244 33.6357 139.71 33.0748 139.324 32.3475C138.945 31.6204 138.752 30.7493 138.747 29.7346V21.4645H142.477V29.092C142.483 29.8586 142.696 30.4647 143.116 30.91C143.536 31.3553 144.1 31.5781 144.806 31.5781C145.256 31.5781 145.676 31.4794 146.068 31.2821C146.458 31.0791 146.774 30.7804 147.013 30.3858C147.259 29.9911 147.378 29.5035 147.372 28.9228ZM159.043 34.6646C158.021 34.6646 157.096 34.4109 156.266 33.9035C155.443 33.3905 154.79 32.6379 154.305 31.6458C153.826 30.6479 153.587 29.4245 153.587 27.9757C153.587 26.4875 153.835 25.25 154.332 24.2635C154.828 23.2713 155.488 22.53 156.311 22.0395C157.14 21.5434 158.047 21.2954 159.035 21.2954C159.788 21.2954 160.414 21.4194 160.917 21.6674C161.424 21.9099 161.833 22.2143 162.143 22.5807C162.458 22.9415 162.697 23.2967 162.861 23.6462H162.975V17.135H166.696V34.4531H163.018V32.3729H162.861C162.686 32.7337 162.437 33.0917 162.117 33.4469C161.801 33.7964 161.389 34.0867 160.882 34.3178C160.379 34.549 159.767 34.6646 159.043 34.6646ZM160.225 31.7979C160.826 31.7979 161.334 31.6401 161.749 31.3244C162.169 31.003 162.49 30.5548 162.712 29.9799C162.94 29.4048 163.054 28.7312 163.054 27.9588C163.054 27.1865 162.943 26.5156 162.721 25.9462C162.499 25.3769 162.178 24.9372 161.757 24.6271C161.337 24.3171 160.826 24.162 160.225 24.162C159.612 24.162 159.095 24.3227 158.675 24.644C158.255 24.9654 157.936 25.4107 157.72 25.9801C157.505 26.5495 157.397 27.2091 157.397 27.9588C157.397 28.7142 157.505 29.3823 157.72 29.9629C157.942 30.538 158.261 30.9889 158.675 31.3159C159.095 31.6372 159.612 31.7979 160.225 31.7979Z" fill="#4BACDF"/>
<path d="M182.31 28.4324H185.532L187.152 30.4449L188.746 32.2376L191.749 35.8738H188.212L186.145 33.4215L185.086 31.967L182.31 28.4324ZM192.022 25.794C192.022 27.6826 191.651 29.2893 190.909 30.6141C190.173 31.9388 189.169 32.9508 187.896 33.6498C186.63 34.3432 185.205 34.6899 183.623 34.6899C182.029 34.6899 180.599 34.3404 179.332 33.6413C178.065 32.9423 177.065 31.9304 176.329 30.6056C175.593 29.2808 175.225 27.677 175.225 25.794C175.225 23.9055 175.593 22.2988 176.329 20.9741C177.065 19.6492 178.065 18.6402 179.332 17.9467C180.599 17.2477 182.029 16.8982 183.623 16.8982C185.205 16.8982 186.63 17.2477 187.896 17.9467C189.169 18.6402 190.173 19.6492 190.909 20.9741C191.651 22.2988 192.022 23.9055 192.022 25.794ZM188.177 25.794C188.177 24.5708 187.988 23.5391 187.607 22.6991C187.235 21.8591 186.705 21.2221 186.023 20.788C185.34 20.354 184.539 20.1369 183.623 20.1369C182.706 20.1369 181.907 20.354 181.224 20.788C180.541 21.2221 180.009 21.8591 179.63 22.6991C179.256 23.5391 179.07 24.5708 179.07 25.794C179.07 27.0174 179.256 28.0491 179.63 28.889C180.009 29.7289 180.541 30.366 181.224 30.8001C181.907 31.2342 182.706 31.4512 183.623 31.4512C184.539 31.4512 185.34 31.2342 186.023 30.8001C186.705 30.366 187.235 29.7289 187.607 28.889C187.988 28.0491 188.177 27.0174 188.177 25.794ZM198.49 17.135V34.4531H194.76V17.135H198.49ZM207.556 34.7068C206.196 34.7068 205.019 34.4277 204.026 33.8696C203.04 33.3059 202.279 32.5224 201.741 31.5189C201.204 30.5098 200.936 29.34 200.936 28.0096C200.936 26.6678 201.204 25.4953 201.741 24.4918C202.279 23.4827 203.04 22.6991 204.026 22.141C205.019 21.5772 206.196 21.2954 207.556 21.2954C208.916 21.2954 210.09 21.5772 211.076 22.141C212.069 22.6991 212.833 23.4827 213.37 24.4918C213.908 25.4953 214.176 26.6678 214.176 28.0096C214.176 29.34 213.908 30.5098 213.37 31.5189C212.833 32.5224 212.069 33.3059 211.076 33.8696C210.09 34.4277 208.916 34.7068 207.556 34.7068ZM207.573 31.9163C208.192 31.9163 208.709 31.7472 209.124 31.4089C209.538 31.065 209.85 30.5971 210.061 30.0052C210.277 29.4133 210.384 28.7396 210.384 27.9842C210.384 27.2288 210.277 26.5551 210.061 25.9632C209.85 25.3713 209.538 24.9033 209.124 24.5594C208.709 24.2156 208.192 24.0436 207.573 24.0436C206.949 24.0436 206.424 24.2156 205.997 24.5594C205.577 24.9033 205.258 25.3713 205.043 25.9632C204.832 26.5551 204.727 27.2288 204.727 27.9842C204.727 28.7396 204.832 29.4133 205.043 30.0052C205.258 30.5971 205.577 31.065 205.997 31.4089C206.424 31.7472 206.949 31.9163 207.573 31.9163ZM216.672 34.4531V17.135H220.402V23.6462H220.516C220.68 23.2967 220.916 22.9415 221.225 22.5807C221.541 22.2143 221.95 21.9099 222.451 21.6674C222.959 21.4194 223.59 21.2954 224.343 21.2954C225.324 21.2954 226.228 21.5434 227.057 22.0395C227.886 22.53 228.549 23.2713 229.045 24.2635C229.542 25.25 229.789 26.4875 229.789 27.9757C229.789 29.4245 229.547 30.6479 229.063 31.6458C228.584 32.6379 227.931 33.3905 227.101 33.9035C226.278 34.4109 225.356 34.6646 224.335 34.6646C223.61 34.6646 222.995 34.549 222.486 34.3178C221.985 34.0867 221.573 33.7964 221.252 33.4469C220.93 33.0917 220.685 32.7337 220.516 32.3729H220.35V34.4531H216.672ZM220.323 27.9588C220.323 28.7312 220.434 29.4048 220.656 29.9799C220.878 30.5548 221.199 31.003 221.62 31.3244C222.04 31.6401 222.551 31.798 223.152 31.798C223.759 31.798 224.273 31.6372 224.693 31.3159C225.113 30.9889 225.432 30.538 225.648 29.9629C225.87 29.3823 225.98 28.7142 225.98 27.9588C225.98 27.2091 225.873 26.5495 225.656 25.9801C225.44 25.4107 225.123 24.9654 224.702 24.644C224.281 24.3227 223.765 24.162 223.152 24.162C222.545 24.162 222.031 24.3171 221.611 24.6271C221.197 24.9372 220.878 25.3769 220.656 25.9462C220.434 26.5156 220.323 27.1865 220.323 27.9588ZM238.409 34.7068C237.025 34.7068 235.834 34.4363 234.835 33.895C233.844 33.3482 233.078 32.5759 232.541 31.5781C232.005 30.5746 231.735 29.3879 231.735 28.018C231.735 26.6819 232.005 25.5094 232.541 24.5003C233.078 23.4912 233.834 22.7048 234.81 22.141C235.79 21.5772 236.941 21.2954 238.26 21.2954C239.147 21.2954 239.973 21.4335 240.738 21.7097C241.509 21.9804 242.18 22.389 242.752 22.9358C243.329 23.4827 243.779 24.1705 244.1 24.9992C244.422 25.8222 244.582 26.7862 244.582 27.8912V28.8805H233.224V26.6481H241.071C241.071 26.1295 240.954 25.67 240.721 25.2698C240.486 24.8695 240.163 24.5567 239.749 24.3311C239.34 24.1 238.864 23.9845 238.32 23.9845C237.754 23.9845 237.253 24.1113 236.815 24.365C236.383 24.613 236.045 24.9485 235.799 25.3713C235.553 25.7884 235.428 26.2535 235.422 26.7665V28.889C235.422 29.5317 235.545 30.0869 235.79 30.5548C236.042 31.0228 236.394 31.3835 236.85 31.6372C237.305 31.8909 237.845 32.0178 238.469 32.0178C238.885 32.0178 239.264 31.9614 239.608 31.8487C239.953 31.7359 240.247 31.5668 240.493 31.3412C240.738 31.1158 240.925 30.8396 241.054 30.5126L244.504 30.7324C244.328 31.5329 243.969 32.232 243.426 32.8295C242.89 33.4215 242.194 33.8837 241.342 34.2164C240.496 34.5433 239.517 34.7068 238.409 34.7068Z" fill="#FA8339"/>
<path d="M245.769 46.6779L244.745 46.9575C244.68 46.7928 244.586 46.6328 244.461 46.4775C244.338 46.319 244.171 46.1885 243.959 46.086C243.747 45.9836 243.474 45.9323 243.143 45.9323C242.689 45.9323 242.311 46.0333 242.009 46.2352C241.71 46.434 241.56 46.6872 241.56 46.9948C241.56 47.2681 241.663 47.4841 241.869 47.6425C242.075 47.8009 242.396 47.933 242.834 48.0387L243.935 48.2996C244.597 48.455 245.092 48.6926 245.416 49.0126C245.741 49.3295 245.903 49.7381 245.903 50.2383C245.903 50.6483 245.781 51.0149 245.536 51.3381C245.296 51.6611 244.958 51.9159 244.523 52.1024C244.089 52.2887 243.584 52.382 243.008 52.382C242.252 52.382 241.626 52.2235 241.131 51.9066C240.635 51.5897 240.322 51.1268 240.189 50.5178L241.27 50.2569C241.374 50.6422 241.568 50.9311 241.855 51.1237C242.144 51.3164 242.522 51.4126 242.988 51.4126C243.519 51.4126 243.941 51.3039 244.253 51.0864C244.568 50.8658 244.726 50.6018 244.726 50.2942C244.726 50.0457 244.636 49.8375 244.455 49.6697C244.276 49.4989 243.999 49.3715 243.625 49.2875L242.39 49.0079C241.711 48.8527 241.213 48.6119 240.894 48.2856C240.579 47.9563 240.422 47.5447 240.422 47.0507C240.422 46.6468 240.539 46.2895 240.774 45.9789C241.011 45.6681 241.335 45.4243 241.744 45.2472C242.155 45.0701 242.621 44.9815 243.143 44.9815C243.877 44.9815 244.452 45.1369 244.871 45.4476C245.292 45.7582 245.592 46.1684 245.769 46.6779Z" fill="white"/>
<path d="M238.937 45.0745V46.0066H235.096V45.0745H238.937ZM236.215 43.3596H237.355V50.1821C237.355 50.4927 237.401 50.7258 237.494 50.8811C237.591 51.0334 237.713 51.1359 237.861 51.1887C238.012 51.2384 238.171 51.2633 238.339 51.2633C238.464 51.2633 238.567 51.257 238.648 51.2446C238.728 51.229 238.793 51.2166 238.841 51.2073L239.073 52.1952C238.995 52.2232 238.888 52.2512 238.749 52.2792C238.611 52.3102 238.436 52.3258 238.223 52.3258C237.901 52.3258 237.586 52.2589 237.278 52.1254C236.971 51.9918 236.718 51.7883 236.515 51.5149C236.315 51.2416 236.215 50.8967 236.215 50.4803V43.3596Z" fill="white"/>
<path d="M228.903 47.9269V52.2328H227.764V45.0748H228.865V46.1932H228.961C229.135 45.8298 229.399 45.5377 229.752 45.3171C230.107 45.0935 230.563 44.9815 231.123 44.9815C231.624 44.9815 232.064 45.081 232.44 45.2798C232.817 45.4756 233.11 45.7738 233.319 46.1745C233.528 46.5722 233.632 47.0756 233.632 47.6845V52.2328H232.494V47.7591C232.494 47.1967 232.343 46.7586 232.04 46.4448C231.737 46.128 231.322 45.9696 230.795 45.9696C230.432 45.9696 230.107 46.0457 229.82 46.1979C229.537 46.3501 229.314 46.5722 229.149 46.8643C228.985 47.1563 228.903 47.5105 228.903 47.9269Z" fill="white"/>
<path d="M222.963 52.382C222.248 52.382 221.632 52.2297 221.114 51.9253C220.6 51.6177 220.202 51.189 219.923 50.639C219.645 50.0861 219.507 49.4429 219.507 48.7097C219.507 47.9766 219.645 47.3303 219.923 46.7711C220.202 46.2088 220.591 45.7707 221.09 45.4569C221.592 45.14 222.178 44.9815 222.847 44.9815C223.233 44.9815 223.614 45.0438 223.99 45.168C224.366 45.2923 224.71 45.4942 225.018 45.7738C225.327 46.0503 225.574 46.4169 225.757 46.8736C225.94 47.3303 226.032 47.8926 226.032 48.5606V49.0266H220.318V48.076H224.874C224.874 47.6721 224.79 47.3117 224.622 46.9948C224.459 46.6779 224.224 46.4278 223.918 46.2445C223.615 46.0611 223.259 45.9696 222.847 45.9696C222.393 45.9696 222 46.0783 221.669 46.2957C221.34 46.5101 221.089 46.7897 220.911 47.1346C220.734 47.4795 220.646 47.8492 220.646 48.2437V48.8775C220.646 49.4181 220.742 49.8763 220.936 50.2522C221.132 50.6251 221.403 50.9094 221.751 51.105C222.099 51.2977 222.503 51.394 222.963 51.394C223.262 51.394 223.532 51.3536 223.773 51.2728C224.018 51.189 224.229 51.0646 224.405 50.9C224.582 50.7323 224.719 50.5241 224.815 50.2756L225.916 50.5738C225.8 50.9342 225.605 51.2511 225.332 51.5244C225.059 51.7948 224.721 52.006 224.318 52.1582C223.916 52.3074 223.464 52.382 222.963 52.382Z" fill="white"/>
<path d="M213.044 47.9269V52.2328H211.905V45.0748H213.006V46.1932H213.102C213.276 45.8298 213.539 45.5377 213.893 45.3171C214.247 45.0935 214.704 44.9815 215.264 44.9815C215.765 44.9815 216.205 45.081 216.581 45.2798C216.957 45.4756 217.25 45.7738 217.46 46.1745C217.668 46.5722 217.773 47.0756 217.773 47.6845V52.2328H216.635V47.7591C216.635 47.1967 216.484 46.7586 216.18 46.4448C215.878 46.128 215.463 45.9696 214.935 45.9696C214.572 45.9696 214.247 46.0457 213.961 46.1979C213.678 46.3501 213.455 46.5722 213.29 46.8643C213.126 47.1563 213.044 47.5105 213.044 47.9269Z" fill="white"/>
<path d="M208.68 52.2329V45.0749H209.819V52.2329H208.68ZM209.259 43.8819C209.037 43.8819 208.846 43.8089 208.685 43.6628C208.528 43.5169 208.449 43.3414 208.449 43.1363C208.449 42.9312 208.528 42.7557 208.685 42.6097C208.846 42.4637 209.037 42.3906 209.259 42.3906C209.481 42.3906 209.671 42.4637 209.829 42.6097C209.99 42.7557 210.07 42.9312 210.07 43.1363C210.07 43.3414 209.99 43.5169 209.829 43.6628C209.671 43.8089 209.481 43.8819 209.259 43.8819Z" fill="white"/>
<path d="M206.967 45.0745V46.0066H203.125V45.0745H206.967ZM204.245 43.3596H205.384V50.1821C205.384 50.4927 205.431 50.7258 205.524 50.8811C205.62 51.0334 205.742 51.1359 205.89 51.1887C206.041 51.2384 206.201 51.2633 206.368 51.2633C206.493 51.2633 206.597 51.257 206.677 51.2446C206.758 51.229 206.822 51.2166 206.871 51.2073L207.102 52.1952C207.025 52.2232 206.917 52.2512 206.779 52.2792C206.64 52.3102 206.465 52.3258 206.253 52.3258C205.93 52.3258 205.616 52.2589 205.307 52.1254C205.002 51.9918 204.747 51.7883 204.544 51.5149C204.345 51.2416 204.245 50.8967 204.245 50.4803V43.3596Z" fill="white"/>
<path d="M196.933 47.9269V52.2328H195.793V45.0748H196.894V46.1932H196.99C197.164 45.8298 197.428 45.5377 197.783 45.3171C198.136 45.0935 198.593 44.9815 199.152 44.9815C199.655 44.9815 200.093 45.081 200.47 45.2798C200.846 45.4756 201.139 45.7738 201.348 46.1745C201.557 46.5722 201.662 47.0756 201.662 47.6845V52.2328H200.523V47.7591C200.523 47.1967 200.372 46.7586 200.07 46.4448C199.767 46.128 199.353 45.9696 198.824 45.9696C198.461 45.9696 198.136 46.0457 197.849 46.1979C197.567 46.3501 197.343 46.5722 197.178 46.8643C197.015 47.1563 196.933 47.5105 196.933 47.9269Z" fill="white"/>
<path d="M190.696 52.382C190.027 52.382 189.44 52.2282 188.935 51.9206C188.433 51.613 188.04 51.1827 187.757 50.6297C187.477 50.0767 187.337 49.4305 187.337 48.691C187.337 47.9454 187.477 47.2945 187.757 46.7385C188.04 46.1824 188.433 45.7505 188.935 45.4429C189.44 45.1353 190.027 44.9815 190.696 44.9815C191.366 44.9815 191.952 45.1353 192.453 45.4429C192.959 45.7505 193.351 46.1824 193.631 46.7385C193.914 47.2945 194.055 47.9454 194.055 48.691C194.055 49.4305 193.914 50.0767 193.631 50.6297C193.351 51.1827 192.959 51.613 192.453 51.9206C191.952 52.2282 191.366 52.382 190.696 52.382ZM190.696 51.394C191.205 51.394 191.623 51.2681 191.952 51.0165C192.279 50.7649 192.522 50.434 192.68 50.0239C192.837 49.6138 192.916 49.1696 192.916 48.691C192.916 48.2126 192.837 47.7668 192.68 47.3536C192.522 46.9404 192.279 46.6065 191.952 46.3517C191.623 46.0969 191.205 45.9696 190.696 45.9696C190.188 45.9696 189.77 46.0969 189.442 46.3517C189.114 46.6065 188.87 46.9404 188.713 47.3536C188.555 47.7668 188.477 48.2126 188.477 48.691C188.477 49.1696 188.555 49.6138 188.713 50.0239C188.87 50.434 189.114 50.7649 189.442 51.0165C189.77 51.2681 190.188 51.394 190.696 51.394Z" fill="white"/>
<path d="M185.905 45.6713H184.709C184.638 45.3388 184.514 45.0468 184.337 44.7951C184.163 44.5435 183.951 44.3323 183.7 44.1614C183.452 43.9874 183.177 43.8569 182.875 43.7699C182.573 43.683 182.257 43.6394 181.929 43.6394C181.331 43.6394 180.788 43.7855 180.302 44.0775C179.82 44.3696 179.436 44.7998 179.149 45.3684C178.866 45.9369 178.725 46.6344 178.725 47.4608C178.725 48.2872 178.866 48.9846 179.149 49.5532C179.436 50.1218 179.82 50.5521 180.302 50.8441C180.788 51.1361 181.331 51.2821 181.929 51.2821C182.257 51.2821 182.573 51.2387 182.875 51.1517C183.177 51.0646 183.452 50.9358 183.7 50.7649C183.951 50.5909 184.163 50.378 184.337 50.1264C184.514 49.8716 184.638 49.5796 184.709 49.2503H185.905C185.816 49.7381 185.651 50.1746 185.413 50.5598C185.175 50.9451 184.88 51.2728 184.525 51.5431C184.172 51.8103 183.774 52.0138 183.333 52.1536C182.896 52.2934 182.428 52.3633 181.929 52.3633C181.086 52.3633 180.336 52.1645 179.681 51.7668C179.024 51.3691 178.507 50.8037 178.131 50.0705C177.754 49.3372 177.566 48.4674 177.566 47.4608C177.566 46.4541 177.754 45.5843 178.131 44.8511C178.507 44.1178 179.024 43.5524 179.681 43.1547C180.336 42.7571 181.086 42.5582 181.929 42.5582C182.428 42.5582 182.896 42.6282 183.333 42.768C183.774 42.9078 184.172 43.1129 184.525 43.3831C184.88 43.6503 185.175 43.9766 185.413 44.3617C185.651 44.7439 185.816 45.1804 185.905 45.6713Z" fill="white"/>
<path d="M168.687 55.0662C168.136 55.0662 167.663 54.9979 167.268 54.8612C166.872 54.7276 166.542 54.5505 166.278 54.3299C166.018 54.1124 165.811 53.8794 165.656 53.6308L166.563 53.0158C166.667 53.1463 166.796 53.2954 166.954 53.4632C167.111 53.634 167.327 53.7816 167.601 53.9059C167.877 54.0332 168.24 54.0969 168.687 54.0969C169.285 54.0969 169.779 53.9571 170.168 53.6775C170.558 53.3979 170.752 52.9598 170.752 52.3633V50.9094H170.655C170.572 51.0398 170.453 51.2014 170.299 51.394C170.148 51.5835 169.929 51.7528 169.642 51.9019C169.359 52.048 168.976 52.1209 168.493 52.1209C167.895 52.1209 167.358 51.9843 166.881 51.7109C166.409 51.4375 166.034 51.0398 165.757 50.5178C165.484 49.996 165.347 49.3622 165.347 48.6165C165.347 47.8833 165.481 47.2448 165.748 46.7012C166.014 46.1544 166.386 45.7318 166.863 45.4336C167.339 45.1323 167.888 44.9815 168.513 44.9815C168.996 44.9815 169.378 45.0592 169.662 45.2146C169.947 45.3668 170.166 45.5408 170.317 45.7365C170.472 45.9292 170.592 46.0876 170.675 46.2119H170.791V45.0748H171.891V52.4378C171.891 53.053 171.746 53.5533 171.457 53.9384C171.17 54.3268 170.785 54.611 170.299 54.7913C169.816 54.9746 169.278 55.0662 168.687 55.0662ZM168.648 51.133C169.105 51.133 169.491 51.032 169.807 50.8301C170.121 50.6282 170.361 50.3377 170.525 49.9587C170.689 49.5796 170.771 49.126 170.771 48.5979C170.771 48.0821 170.691 47.627 170.53 47.2324C170.37 46.8379 170.131 46.5288 169.816 46.305C169.5 46.0814 169.111 45.9696 168.648 45.9696C168.166 45.9696 167.763 46.0876 167.441 46.3237C167.123 46.5598 166.883 46.8767 166.722 47.2744C166.565 47.6721 166.486 48.1132 166.486 48.5979C166.486 49.095 166.566 49.5346 166.727 49.9167C166.892 50.2957 167.133 50.5939 167.452 50.8114C167.773 51.0258 168.172 51.133 168.648 51.133Z" fill="white"/>
<path d="M158.883 47.9269V52.2328H157.745V45.0748H158.845V46.1932H158.942C159.116 45.8298 159.38 45.5377 159.733 45.3171C160.087 45.0935 160.544 44.9815 161.104 44.9815C161.605 44.9815 162.045 45.081 162.421 45.2798C162.798 45.4756 163.09 45.7738 163.3 46.1745C163.509 46.5722 163.613 47.0756 163.613 47.6845V52.2328H162.474V47.7591C162.474 47.1967 162.323 46.7586 162.02 46.4448C161.718 46.128 161.303 45.9696 160.776 45.9696C160.412 45.9696 160.087 46.0457 159.801 46.1979C159.517 46.3501 159.294 46.5722 159.13 46.8643C158.966 47.1563 158.883 47.5105 158.883 47.9269Z" fill="white"/>
<path d="M154.52 52.2329V45.0749H155.659V52.2329H154.52ZM155.099 43.8819C154.877 43.8819 154.686 43.8089 154.525 43.6628C154.368 43.5169 154.289 43.3414 154.289 43.1363C154.289 42.9312 154.368 42.7557 154.525 42.6097C154.686 42.4637 154.877 42.3906 155.099 42.3906C155.321 42.3906 155.511 42.4637 155.669 42.6097C155.83 42.7557 155.91 42.9312 155.91 43.1363C155.91 43.3414 155.83 43.5169 155.669 43.6628C155.511 43.8089 155.321 43.8819 155.099 43.8819Z" fill="white"/>
<path d="M152.807 45.0745V46.0066H148.965V45.0745H152.807ZM150.085 43.3596H151.224V50.1821C151.224 50.4927 151.271 50.7258 151.363 50.8811C151.46 51.0334 151.582 51.1359 151.73 51.1887C151.882 51.2384 152.042 51.2633 152.208 51.2633C152.334 51.2633 152.437 51.257 152.517 51.2446C152.597 51.229 152.662 51.2166 152.71 51.2073L152.942 52.1952C152.865 52.2232 152.757 52.2512 152.619 52.2792C152.48 52.3102 152.305 52.3258 152.093 52.3258C151.771 52.3258 151.456 52.2589 151.147 52.1254C150.841 51.9918 150.587 51.7883 150.384 51.5149C150.185 51.2416 150.085 50.8967 150.085 50.4803V43.3596Z" fill="white"/>
<path d="M145.003 52.382C144.309 52.382 143.71 52.2235 143.208 51.9066C142.706 51.5897 142.321 51.1533 142.05 50.5971C141.779 50.041 141.645 49.4056 141.645 48.691C141.645 47.9641 141.783 47.3225 142.06 46.7664C142.339 46.2072 142.729 45.7707 143.228 45.4569C143.729 45.14 144.315 44.9815 144.984 44.9815C145.505 44.9815 145.975 45.0748 146.393 45.2611C146.812 45.4476 147.154 45.7085 147.421 46.0441C147.688 46.3796 147.854 46.7711 147.918 47.2184H146.779C146.693 46.8922 146.499 46.6033 146.2 46.3517C145.904 46.0969 145.505 45.9696 145.003 45.9696C144.559 45.9696 144.17 46.0814 143.835 46.305C143.504 46.5257 143.245 46.8379 143.058 47.2417C142.875 47.6425 142.783 48.1132 142.783 48.6538C142.783 49.2068 142.873 49.6884 143.053 50.0985C143.237 50.5085 143.494 50.827 143.826 51.0538C144.161 51.2805 144.553 51.394 145.003 51.394C145.299 51.394 145.568 51.3442 145.809 51.2448C146.05 51.1454 146.255 51.0025 146.422 50.8161C146.59 50.6297 146.709 50.406 146.779 50.1451H147.918C147.854 50.5676 147.694 50.9482 147.44 51.2868C147.19 51.6224 146.857 51.8896 146.442 52.0884C146.03 52.284 145.55 52.382 145.003 52.382Z" fill="white"/>
<path d="M137.19 52.382C136.476 52.382 135.86 52.2297 135.342 51.9253C134.827 51.6177 134.43 51.189 134.15 50.639C133.874 50.0861 133.735 49.4429 133.735 48.7097C133.735 47.9766 133.874 47.3303 134.15 46.7711C134.43 46.2088 134.819 45.7707 135.317 45.4569C135.82 45.14 136.405 44.9815 137.074 44.9815C137.461 44.9815 137.842 45.0438 138.218 45.168C138.595 45.2923 138.937 45.4942 139.246 45.7738C139.555 46.0503 139.801 46.4169 139.984 46.8736C140.168 47.3303 140.26 47.8926 140.26 48.5606V49.0266H134.546V48.076H139.102C139.102 47.6721 139.017 47.3117 138.851 46.9948C138.686 46.6779 138.451 46.4278 138.146 46.2445C137.843 46.0611 137.486 45.9696 137.074 45.9696C136.621 45.9696 136.229 46.0783 135.897 46.2957C135.569 46.5101 135.316 46.7897 135.14 47.1346C134.962 47.4795 134.873 47.8492 134.873 48.2437V48.8775C134.873 49.4181 134.97 49.8763 135.163 50.2522C135.359 50.6251 135.632 50.9094 135.979 51.105C136.326 51.2977 136.73 51.394 137.19 51.394C137.489 51.394 137.76 51.3536 138.001 51.2728C138.246 51.189 138.456 51.0646 138.633 50.9C138.81 50.7323 138.946 50.5241 139.043 50.2756L140.143 50.5738C140.028 50.9342 139.833 51.2511 139.56 51.5244C139.286 51.7948 138.948 52.006 138.547 52.1582C138.144 52.3074 137.692 52.382 137.19 52.382Z" fill="white"/>
<path d="M127.272 47.9269V52.2328H126.133V45.0748H127.233V46.1932H127.33C127.503 45.8298 127.767 45.5377 128.121 45.3171C128.475 45.0935 128.932 44.9815 129.492 44.9815C129.994 44.9815 130.433 45.081 130.809 45.2798C131.186 45.4756 131.479 45.7738 131.687 46.1745C131.897 46.5722 132.001 47.0756 132.001 47.6845V52.2328H130.862V47.7591C130.862 47.1967 130.711 46.7586 130.408 46.4448C130.106 46.128 129.691 45.9696 129.164 45.9696C128.8 45.9696 128.475 46.0457 128.189 46.1979C127.905 46.3501 127.682 46.5722 127.518 46.8643C127.353 47.1563 127.272 47.5105 127.272 47.9269Z" fill="white"/>
<path d="M119.323 47.9269V52.2328H118.183V45.0748H119.284V46.1932H119.38C119.554 45.8298 119.818 45.5377 120.171 45.3171C120.526 45.0935 120.982 44.9815 121.542 44.9815C122.044 44.9815 122.483 45.081 122.859 45.2798C123.236 45.4756 123.529 45.7738 123.738 46.1745C123.947 46.5722 124.052 47.0756 124.052 47.6845V52.2328H122.913V47.7591C122.913 47.1967 122.762 46.7586 122.46 46.4448C122.156 46.128 121.741 45.9696 121.214 45.9696C120.851 45.9696 120.526 46.0457 120.239 46.1979C119.956 46.3501 119.733 46.5722 119.568 46.8643C119.404 47.1563 119.323 47.5105 119.323 47.9269Z" fill="white"/>
<path d="M113.086 52.382C112.417 52.382 111.829 52.2282 111.325 51.9206C110.822 51.613 110.43 51.1827 110.147 50.6297C109.867 50.0767 109.727 49.4305 109.727 48.691C109.727 47.9454 109.867 47.2945 110.147 46.7385C110.43 46.1824 110.822 45.7505 111.325 45.4429C111.829 45.1353 112.417 44.9815 113.086 44.9815C113.755 44.9815 114.34 45.1353 114.843 45.4429C115.347 45.7505 115.74 46.1824 116.02 46.7385C116.303 47.2945 116.445 47.9454 116.445 48.691C116.445 49.4305 116.303 50.0767 116.02 50.6297C115.74 51.1827 115.347 51.613 114.843 51.9206C114.34 52.2282 113.755 52.382 113.086 52.382ZM113.086 51.394C113.595 51.394 114.013 51.2681 114.34 51.0165C114.669 50.7649 114.912 50.434 115.069 50.0239C115.227 49.6138 115.306 49.1696 115.306 48.691C115.306 48.2126 115.227 47.7668 115.069 47.3536C114.912 46.9404 114.669 46.6065 114.34 46.3517C114.013 46.0969 113.595 45.9696 113.086 45.9696C112.577 45.9696 112.159 46.0969 111.831 46.3517C111.503 46.6065 111.26 46.9404 111.103 47.3536C110.945 47.7668 110.866 48.2126 110.866 48.691C110.866 49.1696 110.945 49.6138 111.103 50.0239C111.26 50.434 111.503 50.7649 111.831 51.0165C112.159 51.2681 112.577 51.394 113.086 51.394Z" fill="white"/>
<path d="M108.295 45.6713H107.098C107.027 45.3388 106.904 45.0468 106.727 44.7951C106.553 44.5435 106.341 44.3323 106.09 44.1614C105.842 43.9874 105.567 43.8569 105.265 43.7699C104.962 43.683 104.646 43.6394 104.319 43.6394C103.721 43.6394 103.178 43.7855 102.692 44.0775C102.209 44.3696 101.825 44.7998 101.539 45.3684C101.256 45.9369 101.114 46.6344 101.114 47.4608C101.114 48.2872 101.256 48.9846 101.539 49.5532C101.825 50.1218 102.209 50.5521 102.692 50.8441C103.178 51.1361 103.721 51.2821 104.319 51.2821C104.646 51.2821 104.962 51.2387 105.265 51.1517C105.567 51.0646 105.842 50.9358 106.09 50.7649C106.341 50.5909 106.553 50.378 106.727 50.1264C106.904 49.8716 107.027 49.5796 107.098 49.2503H108.295C108.205 49.7381 108.041 50.1746 107.803 50.5598C107.564 50.9451 107.268 51.2728 106.915 51.5431C106.56 51.8103 106.164 52.0138 105.723 52.1536C105.285 52.2934 104.817 52.3633 104.319 52.3633C103.476 52.3633 102.726 52.1645 102.069 51.7668C101.413 51.3691 100.897 50.8037 100.521 50.0705C100.144 49.3372 99.9558 48.4674 99.9558 47.4608C99.9558 46.4541 100.144 45.5843 100.521 44.8511C100.897 44.1178 101.413 43.5524 102.069 43.1547C102.726 42.7571 103.476 42.5582 104.319 42.5582C104.817 42.5582 105.285 42.6282 105.723 42.768C106.164 42.9078 106.56 43.1129 106.915 43.3831C107.268 43.6503 107.564 43.9766 107.803 44.3617C108.041 44.7439 108.205 45.1804 108.295 45.6713Z" fill="white"/>
</svg>
