<svg width="364" height="128" viewBox="0 0 364 128" fill="none" xmlns="http://www.w3.org/2000/svg">
<path d="M77.9924 55.8549C75.7484 53.8005 73.0325 52.3312 70.0851 51.5772C67.1376 50.8232 64.0497 50.8077 61.0949 51.5321C58.1401 52.2565 55.4095 53.6985 53.1451 55.7303C50.8806 57.7621 49.1522 60.3209 48.1129 63.1803C47.0736 66.0396 46.7555 69.1111 47.1869 72.1227C47.6182 75.1343 48.7855 77.9931 50.5856 80.4458C52.3856 82.8985 54.7628 84.8694 57.5065 86.1839C60.2501 87.4985 63.2757 88.1161 66.3151 87.982L81 87.982L75 81.987L66.0507 81.987C63.9972 82.0775 61.9531 81.6602 60.0993 80.7721C58.2456 79.884 56.6396 78.5524 55.4234 76.8953C54.2073 75.2382 53.4185 73.3067 53.1271 71.272C52.8357 69.2372 53.0506 67.1621 53.7528 65.2302C54.455 63.2984 55.6227 61.5695 57.1527 60.1968C58.6826 58.8241 60.5274 57.8498 62.5238 57.3604C64.5202 56.871 66.6064 56.8814 68.5978 57.3909C70.5891 57.9003 72.4241 58.893 73.9402 60.281C75.4563 61.669 97.6274 83.8701 97.6274 83.8701C100.257 86.5 106.01 88.3694 111.088 87.9316C113.249 87.7456 115.344 87.1826 117.283 86.2832L119 88H126L121.543 83.5429C121.794 83.3276 122.04 83.1059 122.28 82.8764C125.326 79.9663 127.287 76.104 127.84 71.9277C128.393 67.7514 127.504 63.5112 125.32 59.9092C123.136 56.3066 119.788 53.5576 115.829 52.1162C111.871 50.6753 107.539 50.6279 103.55 51.9829C99.5608 53.3379 96.1538 56.0137 93.8924 59.5679C92.809 61.2703 92.0196 63.1254 91.5417 65.0564L97.0467 70.5614C96.8141 67.8349 97.4832 65.1034 98.9553 62.79C100.483 60.3887 102.785 58.581 105.48 57.6655C108.175 56.75 111.102 56.7817 113.776 57.7554C116.45 58.7295 118.712 60.5864 120.188 63.0205C121.663 65.4541 122.264 68.3188 121.891 71.1401C121.517 73.9614 120.192 76.5713 118.134 78.5371C117.86 78.7988 117.575 79.0468 117.281 79.2812L115 77H108L112.606 81.6064C111.943 81.7768 111.263 81.893 110.573 81.9526C107.32 82.2327 104.195 81.9526 101.87 79.6274C101.87 79.6274 80.2364 57.9093 77.9924 55.8549Z" fill="#4BACDF"/>
<path fill-rule="evenodd" clip-rule="evenodd" d="M98.5054 51.0237C99.788 50.2604 101.154 49.6283 102.585 49.1423C103.075 48.9759 103.569 48.8278 104.067 48.6978C102.934 45.2678 100.818 42.2354 97.9702 39.9851C94.8127 37.4899 90.9277 36.0924 86.9043 36.0044C82.8809 35.9165 78.9385 37.1429 75.675 39.4977C72.6268 41.6971 70.3261 44.7689 69.0703 48.2985C69.6601 48.3978 70.2466 48.5219 70.8285 48.6708C72.2002 49.0217 73.5288 49.5059 74.7963 50.1137C75.659 47.8117 77.184 45.8094 79.1866 44.3644C81.3914 42.7735 84.0549 41.945 86.7731 42.0044C89.4913 42.0638 92.116 43.008 94.2492 44.6937C96.295 46.3104 97.7817 48.5245 98.5054 51.0237Z" fill="#FA8339"/>
<path d="M157.918 55.6562H154.185C154.116 55.1733 153.977 54.7443 153.767 54.3693C153.557 53.9886 153.287 53.6648 152.957 53.3977C152.628 53.1307 152.247 52.9261 151.815 52.7841C151.389 52.642 150.926 52.571 150.426 52.571C149.523 52.571 148.736 52.7955 148.065 53.2443C147.395 53.6875 146.875 54.3352 146.506 55.1875C146.136 56.0341 145.952 57.0625 145.952 58.2727C145.952 59.517 146.136 60.5625 146.506 61.4091C146.881 62.2557 147.403 62.8949 148.074 63.3267C148.744 63.7585 149.52 63.9744 150.401 63.9744C150.895 63.9744 151.352 63.9091 151.773 63.7784C152.199 63.6477 152.577 63.4574 152.906 63.2074C153.236 62.9517 153.509 62.642 153.724 62.2784C153.946 61.9148 154.099 61.5 154.185 61.0341L157.918 61.0511C157.821 61.8523 157.58 62.625 157.193 63.3693C156.813 64.108 156.298 64.7699 155.651 65.3551C155.009 65.9347 154.241 66.3949 153.349 66.7358C152.463 67.071 151.46 67.2386 150.341 67.2386C148.784 67.2386 147.392 66.8864 146.165 66.1818C144.943 65.4773 143.977 64.4574 143.267 63.1222C142.562 61.7869 142.21 60.1705 142.21 58.2727C142.21 56.3693 142.568 54.75 143.284 53.4148C144 52.0795 144.972 51.0625 146.199 50.3636C147.426 49.6591 148.807 49.3068 150.341 49.3068C151.352 49.3068 152.29 49.4489 153.153 49.733C154.023 50.017 154.793 50.4318 155.463 50.9773C156.134 51.517 156.679 52.179 157.099 52.9631C157.526 53.7472 157.798 54.6449 157.918 55.6562ZM164.126 49.5455V67H160.496V49.5455H164.126ZM172.95 67.2557C171.626 67.2557 170.481 66.9744 169.515 66.4119C168.555 65.8437 167.813 65.054 167.29 64.0426C166.768 63.0256 166.506 61.8466 166.506 60.5057C166.506 59.1534 166.768 57.9716 167.29 56.9602C167.813 55.9432 168.555 55.1534 169.515 54.5909C170.481 54.0227 171.626 53.7386 172.95 53.7386C174.273 53.7386 175.415 54.0227 176.376 54.5909C177.342 55.1534 178.086 55.9432 178.609 56.9602C179.131 57.9716 179.393 59.1534 179.393 60.5057C179.393 61.8466 179.131 63.0256 178.609 64.0426C178.086 65.054 177.342 65.8437 176.376 66.4119C175.415 66.9744 174.273 67.2557 172.95 67.2557ZM172.967 64.4432C173.569 64.4432 174.072 64.2727 174.475 63.9318C174.879 63.5852 175.183 63.1136 175.387 62.517C175.597 61.9205 175.702 61.2415 175.702 60.4801C175.702 59.7188 175.597 59.0398 175.387 58.4432C175.183 57.8466 174.879 57.375 174.475 57.0284C174.072 56.6818 173.569 56.5085 172.967 56.5085C172.359 56.5085 171.847 56.6818 171.433 57.0284C171.023 57.375 170.714 57.8466 170.504 58.4432C170.299 59.0398 170.197 59.7188 170.197 60.4801C170.197 61.2415 170.299 61.9205 170.504 62.517C170.714 63.1136 171.023 63.5852 171.433 63.9318C171.847 64.2727 172.359 64.4432 172.967 64.4432ZM190.148 61.4261V53.9091H193.779V67H190.293V64.6222H190.157C189.862 65.3892 189.37 66.0057 188.683 66.4716C188.001 66.9375 187.168 67.1705 186.185 67.1705C185.31 67.1705 184.54 66.9716 183.876 66.5739C183.211 66.1761 182.691 65.6108 182.316 64.8778C181.947 64.1449 181.759 63.267 181.754 62.2443V53.9091H185.384V61.5966C185.39 62.3693 185.597 62.9801 186.006 63.429C186.415 63.8778 186.964 64.1023 187.651 64.1023C188.089 64.1023 188.498 64.0028 188.879 63.804C189.259 63.5994 189.566 63.2983 189.799 62.9006C190.038 62.5028 190.154 62.0114 190.148 61.4261ZM201.507 67.2131C200.513 67.2131 199.612 66.9574 198.805 66.446C198.004 65.929 197.368 65.1705 196.896 64.1705C196.43 63.1648 196.197 61.9318 196.197 60.4716C196.197 58.9716 196.439 57.7244 196.922 56.7301C197.405 55.7301 198.047 54.983 198.848 54.4886C199.655 53.9886 200.538 53.7386 201.499 53.7386C202.232 53.7386 202.842 53.8636 203.331 54.1136C203.825 54.358 204.223 54.6648 204.524 55.0341C204.831 55.3977 205.064 55.7557 205.223 56.108H205.334V49.5455H208.956V67H205.376V64.9034H205.223C205.053 65.267 204.811 65.6278 204.499 65.9858C204.192 66.3381 203.791 66.6307 203.297 66.8636C202.808 67.0966 202.212 67.2131 201.507 67.2131ZM202.658 64.3239C203.243 64.3239 203.737 64.1648 204.141 63.8466C204.55 63.5227 204.862 63.071 205.078 62.4915C205.3 61.9119 205.411 61.233 205.411 60.4545C205.411 59.6761 205.303 59 205.087 58.4261C204.871 57.8523 204.558 57.4091 204.149 57.0966C203.74 56.7841 203.243 56.6278 202.658 56.6278C202.061 56.6278 201.558 56.7898 201.149 57.1136C200.74 57.4375 200.43 57.8864 200.22 58.4602C200.01 59.0341 199.905 59.6989 199.905 60.4545C199.905 61.2159 200.01 61.8892 200.22 62.4744C200.436 63.054 200.746 63.5085 201.149 63.8381C201.558 64.1619 202.061 64.3239 202.658 64.3239Z" fill="#4BACDF"/>
<path d="M224.152 60.9318H227.288L228.865 62.9602L230.416 64.767L233.339 68.4318H229.896L227.885 65.9602L226.854 64.4943L224.152 60.9318ZM233.604 58.2727C233.604 60.1761 233.243 61.7955 232.521 63.1307C231.805 64.4659 230.828 65.4858 229.589 66.1903C228.357 66.8892 226.97 67.2386 225.43 67.2386C223.879 67.2386 222.487 66.8864 221.254 66.1818C220.021 65.4773 219.047 64.4574 218.331 63.1222C217.615 61.7869 217.257 60.1705 217.257 58.2727C217.257 56.3693 217.615 54.75 218.331 53.4148C219.047 52.0795 220.021 51.0625 221.254 50.3636C222.487 49.6591 223.879 49.3068 225.43 49.3068C226.97 49.3068 228.357 49.6591 229.589 50.3636C230.828 51.0625 231.805 52.0795 232.521 53.4148C233.243 54.75 233.604 56.3693 233.604 58.2727ZM229.862 58.2727C229.862 57.0398 229.678 56 229.308 55.1534C228.945 54.3068 228.43 53.6648 227.766 53.2273C227.101 52.7898 226.322 52.571 225.43 52.571C224.538 52.571 223.76 52.7898 223.095 53.2273C222.43 53.6648 221.913 54.3068 221.544 55.1534C221.18 56 220.999 57.0398 220.999 58.2727C220.999 59.5057 221.18 60.5455 221.544 61.392C221.913 62.2386 222.43 62.8807 223.095 63.3182C223.76 63.7557 224.538 63.9744 225.43 63.9744C226.322 63.9744 227.101 63.7557 227.766 63.3182C228.43 62.8807 228.945 62.2386 229.308 61.392C229.678 60.5455 229.862 59.5057 229.862 58.2727ZM239.9 49.5455V67H236.269V49.5455H239.9ZM248.723 67.2557C247.399 67.2557 246.254 66.9744 245.288 66.4119C244.328 65.8437 243.587 65.054 243.064 64.0426C242.541 63.0256 242.28 61.8466 242.28 60.5057C242.28 59.1534 242.541 57.9716 243.064 56.9602C243.587 55.9432 244.328 55.1534 245.288 54.5909C246.254 54.0227 247.399 53.7386 248.723 53.7386C250.047 53.7386 251.189 54.0227 252.149 54.5909C253.115 55.1534 253.859 55.9432 254.382 56.9602C254.905 57.9716 255.166 59.1534 255.166 60.5057C255.166 61.8466 254.905 63.0256 254.382 64.0426C253.859 65.054 253.115 65.8437 252.149 66.4119C251.189 66.9744 250.047 67.2557 248.723 67.2557ZM248.74 64.4432C249.342 64.4432 249.845 64.2727 250.249 63.9318C250.652 63.5852 250.956 63.1136 251.161 62.517C251.371 61.9205 251.476 61.2415 251.476 60.4801C251.476 59.7188 251.371 59.0398 251.161 58.4432C250.956 57.8466 250.652 57.375 250.249 57.0284C249.845 56.6818 249.342 56.5085 248.74 56.5085C248.132 56.5085 247.621 56.6818 247.206 57.0284C246.797 57.375 246.487 57.8466 246.277 58.4432C246.072 59.0398 245.97 59.7188 245.97 60.4801C245.97 61.2415 246.072 61.9205 246.277 62.517C246.487 63.1136 246.797 63.5852 247.206 63.9318C247.621 64.2727 248.132 64.4432 248.74 64.4432ZM257.595 67V49.5455H261.226V56.108H261.337C261.496 55.7557 261.726 55.3977 262.027 55.0341C262.334 54.6648 262.732 54.358 263.22 54.1136C263.714 53.8636 264.328 53.7386 265.061 53.7386C266.016 53.7386 266.896 53.9886 267.703 54.4886C268.51 54.983 269.155 55.7301 269.638 56.7301C270.121 57.7244 270.362 58.9716 270.362 60.4716C270.362 61.9318 270.126 63.1648 269.655 64.1705C269.189 65.1705 268.553 65.929 267.746 66.446C266.945 66.9574 266.047 67.2131 265.053 67.2131C264.348 67.2131 263.749 67.0966 263.254 66.8636C262.766 66.6307 262.365 66.3381 262.053 65.9858C261.74 65.6278 261.501 65.267 261.337 64.9034H261.175V67H257.595ZM261.149 60.4545C261.149 61.233 261.257 61.9119 261.473 62.4915C261.689 63.071 262.001 63.5227 262.411 63.8466C262.82 64.1648 263.317 64.3239 263.902 64.3239C264.493 64.3239 264.993 64.1619 265.402 63.8381C265.811 63.5085 266.121 63.054 266.331 62.4744C266.547 61.8892 266.655 61.2159 266.655 60.4545C266.655 59.6989 266.55 59.0341 266.339 58.4602C266.129 57.8864 265.82 57.4375 265.411 57.1136C265.001 56.7898 264.499 56.6278 263.902 56.6278C263.311 56.6278 262.811 56.7841 262.402 57.0966C261.999 57.4091 261.689 57.8523 261.473 58.4261C261.257 59 261.149 59.6761 261.149 60.4545ZM278.751 67.2557C277.404 67.2557 276.245 66.983 275.273 66.4375C274.308 65.8864 273.563 65.108 273.04 64.1023C272.518 63.0909 272.256 61.8949 272.256 60.5142C272.256 59.1676 272.518 57.9858 273.04 56.9688C273.563 55.9517 274.299 55.1591 275.248 54.5909C276.202 54.0227 277.322 53.7386 278.606 53.7386C279.469 53.7386 280.273 53.8778 281.018 54.1562C281.768 54.429 282.421 54.8409 282.978 55.392C283.54 55.9432 283.978 56.6364 284.29 57.4716C284.603 58.3011 284.759 59.2727 284.759 60.3864V61.3835H273.705V59.1335H281.342C281.342 58.6108 281.228 58.1477 281.001 57.7443C280.773 57.3409 280.458 57.0256 280.055 56.7983C279.657 56.5653 279.194 56.4489 278.665 56.4489C278.114 56.4489 277.626 56.5767 277.2 56.8324C276.779 57.0824 276.45 57.4205 276.211 57.8466C275.972 58.267 275.85 58.7358 275.844 59.2528V61.392C275.844 62.0398 275.964 62.5994 276.202 63.071C276.447 63.5426 276.79 63.9062 277.234 64.1619C277.677 64.4176 278.202 64.5455 278.81 64.5455C279.214 64.5455 279.583 64.4886 279.918 64.375C280.254 64.2614 280.54 64.0909 280.779 63.8636C281.018 63.6364 281.2 63.358 281.325 63.0284L284.683 63.25C284.512 64.0568 284.163 64.7614 283.634 65.3636C283.112 65.9602 282.435 66.4261 281.606 66.7614C280.782 67.0909 279.83 67.2557 278.751 67.2557Z" fill="#FA8339"/>
<path d="M153.773 80H152.364C152.28 79.5947 152.134 79.2386 151.926 78.9318C151.722 78.625 151.472 78.3674 151.176 78.1591C150.884 77.947 150.561 77.7879 150.205 77.6818C149.848 77.5758 149.477 77.5227 149.091 77.5227C148.386 77.5227 147.748 77.7008 147.176 78.0568C146.608 78.4129 146.155 78.9375 145.818 79.6307C145.485 80.3239 145.318 81.1742 145.318 82.1818C145.318 83.1894 145.485 84.0398 145.818 84.733C146.155 85.4261 146.608 85.9508 147.176 86.3068C147.748 86.6629 148.386 86.8409 149.091 86.8409C149.477 86.8409 149.848 86.7879 150.205 86.6818C150.561 86.5758 150.884 86.4186 151.176 86.2102C151.472 85.9981 151.722 85.7386 151.926 85.4318C152.134 85.1212 152.28 84.7652 152.364 84.3636H153.773C153.667 84.9583 153.473 85.4905 153.193 85.9602C152.913 86.4299 152.564 86.8295 152.148 87.1591C151.731 87.4848 151.263 87.733 150.744 87.9034C150.229 88.0739 149.678 88.1591 149.091 88.1591C148.098 88.1591 147.216 87.9167 146.443 87.4318C145.67 86.947 145.063 86.2576 144.619 85.3636C144.176 84.4697 143.955 83.4091 143.955 82.1818C143.955 80.9545 144.176 79.8939 144.619 79C145.063 78.1061 145.67 77.4167 146.443 76.9318C147.216 76.447 148.098 76.2045 149.091 76.2045C149.678 76.2045 150.229 76.2898 150.744 76.4602C151.263 76.6307 151.731 76.8807 152.148 77.2102C152.564 77.536 152.913 77.9337 153.193 78.4034C153.473 78.8693 153.667 79.4015 153.773 80ZM159.413 88.1818C158.625 88.1818 157.934 87.9943 157.339 87.6193C156.749 87.2443 156.286 86.7197 155.953 86.0455C155.624 85.3712 155.459 84.5833 155.459 83.6818C155.459 82.7727 155.624 81.9792 155.953 81.3011C156.286 80.6231 156.749 80.0966 157.339 79.7216C157.934 79.3466 158.625 79.1591 159.413 79.1591C160.201 79.1591 160.891 79.3466 161.482 79.7216C162.076 80.0966 162.538 80.6231 162.868 81.3011C163.201 81.9792 163.368 82.7727 163.368 83.6818C163.368 84.5833 163.201 85.3712 162.868 86.0455C162.538 86.7197 162.076 87.2443 161.482 87.6193C160.891 87.9943 160.201 88.1818 159.413 88.1818ZM159.413 86.9773C160.012 86.9773 160.504 86.8239 160.891 86.517C161.277 86.2102 161.563 85.8068 161.749 85.3068C161.934 84.8068 162.027 84.2652 162.027 83.6818C162.027 83.0985 161.934 82.5549 161.749 82.0511C161.563 81.5473 161.277 81.1402 160.891 80.8295C160.504 80.5189 160.012 80.3636 159.413 80.3636C158.815 80.3636 158.322 80.5189 157.936 80.8295C157.55 81.1402 157.264 81.5473 157.078 82.0511C156.893 82.5549 156.8 83.0985 156.8 83.6818C156.8 84.2652 156.893 84.8068 157.078 85.3068C157.264 85.8068 157.55 86.2102 157.936 86.517C158.322 86.8239 158.815 86.9773 159.413 86.9773ZM166.756 82.75V88H165.415V79.2727H166.71V80.6364H166.824C167.028 80.1932 167.339 79.8371 167.756 79.5682C168.172 79.2955 168.71 79.1591 169.369 79.1591C169.96 79.1591 170.477 79.2803 170.92 79.5227C171.364 79.7614 171.708 80.125 171.955 80.6136C172.201 81.0985 172.324 81.7121 172.324 82.4545V88H170.983V82.5455C170.983 81.8598 170.805 81.3258 170.449 80.9432C170.093 80.5568 169.604 80.3636 168.983 80.3636C168.555 80.3636 168.172 80.4564 167.835 80.642C167.502 80.8277 167.239 81.0985 167.045 81.4545C166.852 81.8106 166.756 82.2424 166.756 82.75ZM176.115 82.75V88H174.774V79.2727H176.07V80.6364H176.183C176.388 80.1932 176.698 79.8371 177.115 79.5682C177.532 79.2955 178.07 79.1591 178.729 79.1591C179.32 79.1591 179.837 79.2803 180.28 79.5227C180.723 79.7614 181.068 80.125 181.314 80.6136C181.56 81.0985 181.683 81.7121 181.683 82.4545V88H180.342V82.5455C180.342 81.8598 180.164 81.3258 179.808 80.9432C179.452 80.5568 178.964 80.3636 178.342 80.3636C177.914 80.3636 177.532 80.4564 177.195 80.642C176.861 80.8277 176.598 81.0985 176.405 81.4545C176.212 81.8106 176.115 82.2424 176.115 82.75ZM187.793 88.1818C186.952 88.1818 186.226 87.9962 185.616 87.625C185.01 87.25 184.543 86.7273 184.213 86.0568C183.887 85.3826 183.724 84.5985 183.724 83.7045C183.724 82.8106 183.887 82.0227 184.213 81.3409C184.543 80.6553 185.001 80.1212 185.588 79.7386C186.179 79.3523 186.868 79.1591 187.656 79.1591C188.111 79.1591 188.56 79.2348 189.003 79.3864C189.446 79.5379 189.849 79.7841 190.213 80.125C190.577 80.4621 190.866 80.9091 191.082 81.4659C191.298 82.0227 191.406 82.7083 191.406 83.5227V84.0909H184.679V82.9318H190.043C190.043 82.4394 189.944 82 189.747 81.6136C189.554 81.2273 189.277 80.9223 188.918 80.6989C188.562 80.4754 188.141 80.3636 187.656 80.3636C187.122 80.3636 186.66 80.4962 186.27 80.7614C185.884 81.0227 185.586 81.3636 185.378 81.7841C185.17 82.2045 185.065 82.6553 185.065 83.1364V83.9091C185.065 84.5682 185.179 85.1269 185.406 85.5852C185.637 86.0398 185.957 86.3864 186.366 86.625C186.776 86.8598 187.251 86.9773 187.793 86.9773C188.145 86.9773 188.463 86.928 188.747 86.8295C189.035 86.7273 189.283 86.5758 189.491 86.375C189.7 86.1705 189.861 85.9167 189.974 85.6136L191.27 85.9773C191.134 86.4167 190.904 86.803 190.582 87.1364C190.26 87.4659 189.863 87.7235 189.389 87.9091C188.916 88.0909 188.384 88.1818 187.793 88.1818ZM196.991 88.1818C196.173 88.1818 195.469 87.9886 194.878 87.6023C194.287 87.2159 193.832 86.6837 193.514 86.0057C193.196 85.3277 193.037 84.553 193.037 83.6818C193.037 82.7955 193.2 82.0133 193.526 81.3352C193.855 80.6534 194.313 80.1212 194.901 79.7386C195.491 79.3523 196.181 79.1591 196.969 79.1591C197.582 79.1591 198.135 79.2727 198.628 79.5C199.12 79.7273 199.524 80.0455 199.838 80.4545C200.152 80.8636 200.348 81.3409 200.423 81.8864H199.082C198.98 81.4886 198.753 81.1364 198.401 80.8295C198.052 80.5189 197.582 80.3636 196.991 80.3636C196.469 80.3636 196.01 80.5 195.616 80.7727C195.226 81.0417 194.921 81.4223 194.702 81.9148C194.486 82.4034 194.378 82.9773 194.378 83.6364C194.378 84.3106 194.484 84.8977 194.696 85.3977C194.912 85.8977 195.215 86.286 195.605 86.5625C195.999 86.839 196.461 86.9773 196.991 86.9773C197.34 86.9773 197.656 86.9167 197.94 86.7955C198.224 86.6742 198.465 86.5 198.662 86.2727C198.859 86.0455 198.999 85.7727 199.082 85.4545H200.423C200.348 85.9697 200.16 86.4337 199.861 86.8466C199.565 87.2557 199.173 87.5814 198.685 87.8239C198.2 88.0625 197.635 88.1818 196.991 88.1818ZM206.179 79.2727V80.4091H201.656V79.2727H206.179ZM202.974 77.1818H204.315V85.5C204.315 85.8788 204.37 86.1629 204.48 86.3523C204.594 86.5379 204.738 86.6629 204.912 86.7273C205.09 86.7879 205.277 86.8182 205.474 86.8182C205.622 86.8182 205.743 86.8106 205.838 86.7955C205.933 86.7765 206.009 86.7614 206.065 86.75L206.338 87.9545C206.247 87.9886 206.12 88.0227 205.957 88.0568C205.795 88.0947 205.588 88.1136 205.338 88.1136C204.959 88.1136 204.588 88.0322 204.224 87.8693C203.865 87.7064 203.565 87.4583 203.327 87.125C203.092 86.7917 202.974 86.3712 202.974 85.8636V77.1818ZM208.196 88V79.2727H209.537V88H208.196ZM208.878 77.8182C208.616 77.8182 208.391 77.7292 208.202 77.5511C208.016 77.3731 207.923 77.1591 207.923 76.9091C207.923 76.6591 208.016 76.4451 208.202 76.267C208.391 76.089 208.616 76 208.878 76C209.139 76 209.363 76.089 209.548 76.267C209.738 76.4451 209.832 76.6591 209.832 76.9091C209.832 77.1591 209.738 77.3731 209.548 77.5511C209.363 77.7292 209.139 77.8182 208.878 77.8182ZM213.334 82.75V88H211.993V79.2727H213.288V80.6364H213.402C213.607 80.1932 213.917 79.8371 214.334 79.5682C214.75 79.2955 215.288 79.1591 215.947 79.1591C216.538 79.1591 217.055 79.2803 217.499 79.5227C217.942 79.7614 218.286 80.125 218.533 80.6136C218.779 81.0985 218.902 81.7121 218.902 82.4545V88H217.561V82.5455C217.561 81.8598 217.383 81.3258 217.027 80.9432C216.671 80.5568 216.182 80.3636 215.561 80.3636C215.133 80.3636 214.75 80.4564 214.413 80.642C214.08 80.8277 213.817 81.0985 213.624 81.4545C213.43 81.8106 213.334 82.2424 213.334 82.75ZM224.875 91.4545C224.227 91.4545 223.67 91.3712 223.205 91.2045C222.739 91.0417 222.35 90.8258 222.04 90.5568C221.733 90.2917 221.489 90.0076 221.307 89.7045L222.375 88.9545C222.496 89.1136 222.65 89.2955 222.835 89.5C223.021 89.7083 223.275 89.8883 223.597 90.0398C223.922 90.1951 224.348 90.2727 224.875 90.2727C225.58 90.2727 226.161 90.1023 226.619 89.7614C227.078 89.4205 227.307 88.8864 227.307 88.1591V86.3864H227.193C227.095 86.5455 226.955 86.7424 226.773 86.9773C226.595 87.2083 226.337 87.4148 226 87.5966C225.667 87.7746 225.216 87.8636 224.648 87.8636C223.943 87.8636 223.311 87.697 222.75 87.3636C222.193 87.0303 221.752 86.5455 221.426 85.9091C221.104 85.2727 220.943 84.5 220.943 83.5909C220.943 82.697 221.1 81.9186 221.415 81.2557C221.729 80.589 222.167 80.0739 222.727 79.7102C223.288 79.3428 223.936 79.1591 224.67 79.1591C225.239 79.1591 225.689 79.2538 226.023 79.4432C226.36 79.6288 226.617 79.8409 226.795 80.0795C226.977 80.3144 227.117 80.5076 227.216 80.6591H227.352V79.2727H228.648V88.25C228.648 89 228.477 89.6098 228.136 90.0795C227.799 90.553 227.345 90.8996 226.773 91.1193C226.205 91.3428 225.572 91.4545 224.875 91.4545ZM224.83 86.6591C225.367 86.6591 225.822 86.536 226.193 86.2898C226.564 86.0436 226.847 85.6894 227.04 85.2273C227.233 84.7652 227.33 84.2121 227.33 83.5682C227.33 82.9394 227.235 82.3845 227.045 81.9034C226.856 81.4223 226.576 81.0455 226.205 80.7727C225.833 80.5 225.375 80.3636 224.83 80.3636C224.261 80.3636 223.788 80.5076 223.409 80.7955C223.034 81.0833 222.752 81.4697 222.562 81.9545C222.377 82.4394 222.284 82.9773 222.284 83.5682C222.284 84.1742 222.379 84.7102 222.568 85.1761C222.761 85.6383 223.045 86.0019 223.42 86.267C223.799 86.5284 224.269 86.6591 224.83 86.6591ZM245.148 80H243.739C243.655 79.5947 243.509 79.2386 243.301 78.9318C243.097 78.625 242.847 78.3674 242.551 78.1591C242.259 77.947 241.936 77.7879 241.58 77.6818C241.223 77.5758 240.852 77.5227 240.466 77.5227C239.761 77.5227 239.123 77.7008 238.551 78.0568C237.983 78.4129 237.53 78.9375 237.193 79.6307C236.86 80.3239 236.693 81.1742 236.693 82.1818C236.693 83.1894 236.86 84.0398 237.193 84.733C237.53 85.4261 237.983 85.9508 238.551 86.3068C239.123 86.6629 239.761 86.8409 240.466 86.8409C240.852 86.8409 241.223 86.7879 241.58 86.6818C241.936 86.5758 242.259 86.4186 242.551 86.2102C242.847 85.9981 243.097 85.7386 243.301 85.4318C243.509 85.1212 243.655 84.7652 243.739 84.3636H245.148C245.042 84.9583 244.848 85.4905 244.568 85.9602C244.288 86.4299 243.939 86.8295 243.523 87.1591C243.106 87.4848 242.638 87.733 242.119 87.9034C241.604 88.0739 241.053 88.1591 240.466 88.1591C239.473 88.1591 238.591 87.9167 237.818 87.4318C237.045 86.947 236.438 86.2576 235.994 85.3636C235.551 84.4697 235.33 83.4091 235.33 82.1818C235.33 80.9545 235.551 79.8939 235.994 79C236.438 78.1061 237.045 77.4167 237.818 76.9318C238.591 76.447 239.473 76.2045 240.466 76.2045C241.053 76.2045 241.604 76.2898 242.119 76.4602C242.638 76.6307 243.106 76.8807 243.523 77.2102C243.939 77.536 244.288 77.9337 244.568 78.4034C244.848 78.8693 245.042 79.4015 245.148 80ZM250.788 88.1818C250 88.1818 249.309 87.9943 248.714 87.6193C248.124 87.2443 247.661 86.7197 247.328 86.0455C246.999 85.3712 246.834 84.5833 246.834 83.6818C246.834 82.7727 246.999 81.9792 247.328 81.3011C247.661 80.6231 248.124 80.0966 248.714 79.7216C249.309 79.3466 250 79.1591 250.788 79.1591C251.576 79.1591 252.266 79.3466 252.857 79.7216C253.451 80.0966 253.913 80.6231 254.243 81.3011C254.576 81.9792 254.743 82.7727 254.743 83.6818C254.743 84.5833 254.576 85.3712 254.243 86.0455C253.913 86.7197 253.451 87.2443 252.857 87.6193C252.266 87.9943 251.576 88.1818 250.788 88.1818ZM250.788 86.9773C251.387 86.9773 251.879 86.8239 252.266 86.517C252.652 86.2102 252.938 85.8068 253.124 85.3068C253.309 84.8068 253.402 84.2652 253.402 83.6818C253.402 83.0985 253.309 82.5549 253.124 82.0511C252.938 81.5473 252.652 81.1402 252.266 80.8295C251.879 80.5189 251.387 80.3636 250.788 80.3636C250.19 80.3636 249.697 80.5189 249.311 80.8295C248.925 81.1402 248.639 81.5473 248.453 82.0511C248.268 82.5549 248.175 83.0985 248.175 83.6818C248.175 84.2652 248.268 84.8068 248.453 85.3068C248.639 85.8068 248.925 86.2102 249.311 86.517C249.697 86.8239 250.19 86.9773 250.788 86.9773ZM258.131 82.75V88H256.79V79.2727H258.085V80.6364H258.199C258.403 80.1932 258.714 79.8371 259.131 79.5682C259.547 79.2955 260.085 79.1591 260.744 79.1591C261.335 79.1591 261.852 79.2803 262.295 79.5227C262.739 79.7614 263.083 80.125 263.33 80.6136C263.576 81.0985 263.699 81.7121 263.699 82.4545V88H262.358V82.5455C262.358 81.8598 262.18 81.3258 261.824 80.9432C261.468 80.5568 260.979 80.3636 260.358 80.3636C259.93 80.3636 259.547 80.4564 259.21 80.642C258.877 80.8277 258.614 81.0985 258.42 81.4545C258.227 81.8106 258.131 82.2424 258.131 82.75ZM269.945 79.2727V80.4091H265.422V79.2727H269.945ZM266.74 77.1818H268.081V85.5C268.081 85.8788 268.136 86.1629 268.246 86.3523C268.359 86.5379 268.503 86.6629 268.678 86.7273C268.856 86.7879 269.043 86.8182 269.24 86.8182C269.388 86.8182 269.509 86.8106 269.604 86.7955C269.698 86.7765 269.774 86.7614 269.831 86.75L270.104 87.9545C270.013 87.9886 269.886 88.0227 269.723 88.0568C269.56 88.0947 269.354 88.1136 269.104 88.1136C268.725 88.1136 268.354 88.0322 267.99 87.8693C267.63 87.7064 267.331 87.4583 267.092 87.125C266.857 86.7917 266.74 86.3712 266.74 85.8636V77.1818ZM271.962 88V79.2727H273.303V88H271.962ZM272.643 77.8182C272.382 77.8182 272.157 77.7292 271.967 77.5511C271.782 77.3731 271.689 77.1591 271.689 76.9091C271.689 76.6591 271.782 76.4451 271.967 76.267C272.157 76.089 272.382 76 272.643 76C272.905 76 273.128 76.089 273.314 76.267C273.503 76.4451 273.598 76.6591 273.598 76.9091C273.598 77.1591 273.503 77.3731 273.314 77.5511C273.128 77.7292 272.905 77.8182 272.643 77.8182ZM277.099 82.75V88H275.759V79.2727H277.054V80.6364H277.168C277.372 80.1932 277.683 79.8371 278.099 79.5682C278.516 79.2955 279.054 79.1591 279.713 79.1591C280.304 79.1591 280.821 79.2803 281.264 79.5227C281.707 79.7614 282.052 80.125 282.298 80.6136C282.545 81.0985 282.668 81.7121 282.668 82.4545V88H281.327V82.5455C281.327 81.8598 281.149 81.3258 280.793 80.9432C280.437 80.5568 279.948 80.3636 279.327 80.3636C278.899 80.3636 278.516 80.4564 278.179 80.642C277.846 80.8277 277.582 81.0985 277.389 81.4545C277.196 81.8106 277.099 82.2424 277.099 82.75ZM288.777 88.1818C287.936 88.1818 287.211 87.9962 286.601 87.625C285.995 87.25 285.527 86.7273 285.197 86.0568C284.872 85.3826 284.709 84.5985 284.709 83.7045C284.709 82.8106 284.872 82.0227 285.197 81.3409C285.527 80.6553 285.985 80.1212 286.572 79.7386C287.163 79.3523 287.853 79.1591 288.641 79.1591C289.095 79.1591 289.544 79.2348 289.987 79.3864C290.43 79.5379 290.834 79.7841 291.197 80.125C291.561 80.4621 291.851 80.9091 292.067 81.4659C292.283 82.0227 292.391 82.7083 292.391 83.5227V84.0909H285.663V82.9318H291.027C291.027 82.4394 290.929 82 290.732 81.6136C290.538 81.2273 290.262 80.9223 289.902 80.6989C289.546 80.4754 289.125 80.3636 288.641 80.3636C288.107 80.3636 287.644 80.4962 287.254 80.7614C286.868 81.0227 286.571 81.3636 286.362 81.7841C286.154 82.2045 286.05 82.6553 286.05 83.1364V83.9091C286.05 84.5682 286.163 85.1269 286.391 85.5852C286.622 86.0398 286.942 86.3864 287.351 86.625C287.76 86.8598 288.235 86.9773 288.777 86.9773C289.129 86.9773 289.447 86.928 289.732 86.8295C290.019 86.7273 290.268 86.5758 290.476 86.375C290.684 86.1705 290.845 85.9167 290.959 85.6136L292.254 85.9773C292.118 86.4167 291.889 86.803 291.567 87.1364C291.245 87.4659 290.847 87.7235 290.374 87.9091C289.9 88.0909 289.368 88.1818 288.777 88.1818ZM295.771 82.75V88H294.43V79.2727H295.726V80.6364H295.839C296.044 80.1932 296.355 79.8371 296.771 79.5682C297.188 79.2955 297.726 79.1591 298.385 79.1591C298.976 79.1591 299.493 79.2803 299.936 79.5227C300.379 79.7614 300.724 80.125 300.97 80.6136C301.216 81.0985 301.339 81.7121 301.339 82.4545V88H299.999V82.5455C299.999 81.8598 299.821 81.3258 299.464 80.9432C299.108 80.5568 298.62 80.3636 297.999 80.3636C297.571 80.3636 297.188 80.4564 296.851 80.642C296.518 80.8277 296.254 81.0985 296.061 81.4545C295.868 81.8106 295.771 82.2424 295.771 82.75ZM307.585 79.2727V80.4091H303.062V79.2727H307.585ZM304.381 77.1818H305.722V85.5C305.722 85.8788 305.777 86.1629 305.886 86.3523C306 86.5379 306.144 86.6629 306.318 86.7273C306.496 86.7879 306.684 86.8182 306.881 86.8182C307.028 86.8182 307.15 86.8106 307.244 86.7955C307.339 86.7765 307.415 86.7614 307.472 86.75L307.744 87.9545C307.653 87.9886 307.527 88.0227 307.364 88.0568C307.201 88.0947 306.994 88.1136 306.744 88.1136C306.366 88.1136 305.994 88.0322 305.631 87.8693C305.271 87.7064 304.972 87.4583 304.733 87.125C304.498 86.7917 304.381 86.3712 304.381 85.8636V77.1818ZM315.628 81.2273L314.423 81.5682C314.348 81.3674 314.236 81.1723 314.088 80.983C313.944 80.7898 313.747 80.6307 313.497 80.5057C313.247 80.3807 312.927 80.3182 312.537 80.3182C312.003 80.3182 311.558 80.4413 311.202 80.6875C310.849 80.9299 310.673 81.2386 310.673 81.6136C310.673 81.947 310.795 82.2102 311.037 82.4034C311.279 82.5966 311.658 82.7576 312.173 82.8864L313.469 83.2045C314.249 83.3939 314.83 83.6837 315.213 84.0739C315.596 84.4602 315.787 84.9583 315.787 85.5682C315.787 86.0682 315.643 86.5152 315.355 86.9091C315.071 87.303 314.673 87.6136 314.162 87.8409C313.651 88.0682 313.056 88.1818 312.378 88.1818C311.488 88.1818 310.751 87.9886 310.168 87.6023C309.584 87.2159 309.215 86.6515 309.06 85.9091L310.332 85.5909C310.454 86.0606 310.683 86.4129 311.02 86.6477C311.361 86.8826 311.806 87 312.355 87C312.98 87 313.476 86.8674 313.844 86.6023C314.215 86.3333 314.401 86.0114 314.401 85.6364C314.401 85.3333 314.295 85.0795 314.082 84.875C313.87 84.6667 313.545 84.5114 313.105 84.4091L311.651 84.0682C310.851 83.8788 310.264 83.5852 309.889 83.1875C309.518 82.786 309.332 82.2841 309.332 81.6818C309.332 81.1894 309.471 80.7538 309.747 80.375C310.027 79.9962 310.408 79.6989 310.889 79.483C311.374 79.267 311.923 79.1591 312.537 79.1591C313.401 79.1591 314.079 79.3485 314.571 79.7273C315.067 80.1061 315.42 80.6061 315.628 81.2273Z" fill="white"/>
</svg>
