<svg width="364" height="128" viewBox="0 0 364 128" fill="none" xmlns="http://www.w3.org/2000/svg">
<path d="M77.9924 55.8549C75.7484 53.8005 73.0325 52.3312 70.0851 51.5772C67.1376 50.8232 64.0497 50.8077 61.0949 51.5321C58.1401 52.2565 55.4095 53.6985 53.1451 55.7303C50.8806 57.7621 49.1522 60.3209 48.1129 63.1803C47.0736 66.0396 46.7555 69.1111 47.1869 72.1227C47.6182 75.1343 48.7855 77.9931 50.5856 80.4458C52.3856 82.8985 54.7628 84.8694 57.5065 86.1839C60.2501 87.4985 63.2757 88.1161 66.3151 87.982L81 87.982L75 81.987L66.0507 81.987C63.9972 82.0775 61.9531 81.6602 60.0993 80.7721C58.2456 79.884 56.6396 78.5524 55.4234 76.8953C54.2073 75.2382 53.4185 73.3067 53.1271 71.272C52.8357 69.2372 53.0506 67.1621 53.7528 65.2302C54.455 63.2984 55.6227 61.5695 57.1527 60.1968C58.6826 58.8241 60.5274 57.8498 62.5238 57.3604C64.5202 56.871 66.6064 56.8814 68.5978 57.3909C70.5891 57.9003 72.4241 58.893 73.9402 60.281C75.4563 61.669 97.6274 83.8701 97.6274 83.8701C100.257 86.5 106.01 88.3694 111.088 87.9316C113.249 87.7456 115.344 87.1826 117.283 86.2832L119 88H126L121.543 83.5429C121.794 83.3276 122.04 83.1059 122.28 82.8764C125.326 79.9663 127.287 76.104 127.84 71.9277C128.393 67.7514 127.504 63.5112 125.32 59.9092C123.136 56.3066 119.788 53.5576 115.829 52.1162C111.871 50.6753 107.539 50.6279 103.55 51.9829C99.5608 53.3379 96.1538 56.0137 93.8924 59.5679C92.809 61.2703 92.0196 63.1254 91.5417 65.0564L97.0467 70.5614C96.8141 67.8349 97.4832 65.1034 98.9553 62.79C100.483 60.3887 102.785 58.581 105.48 57.6655C108.175 56.75 111.102 56.7817 113.776 57.7554C116.45 58.7295 118.712 60.5864 120.188 63.0205C121.663 65.4541 122.264 68.3188 121.891 71.1401C121.517 73.9614 120.192 76.5713 118.134 78.5371C117.86 78.7988 117.575 79.0468 117.281 79.2812L115 77H108L112.606 81.6064C111.943 81.7768 111.263 81.893 110.573 81.9526C107.32 82.2327 104.195 81.9526 101.87 79.6274C101.87 79.6274 80.2364 57.9093 77.9924 55.8549Z" fill="#4BACDF"/>
<path fill-rule="evenodd" clip-rule="evenodd" d="M98.5054 51.0237C99.788 50.2604 101.154 49.6283 102.585 49.1423C103.075 48.9759 103.569 48.8278 104.067 48.6978C102.934 45.2678 100.818 42.2354 97.9702 39.9851C94.8127 37.4899 90.9277 36.0924 86.9043 36.0044C82.8809 35.9165 78.9385 37.1429 75.675 39.4977C72.6268 41.6971 70.3261 44.7689 69.0703 48.2985C69.6601 48.3978 70.2466 48.5219 70.8285 48.6708C72.2002 49.0217 73.5288 49.5059 74.7963 50.1137C75.659 47.8117 77.184 45.8094 79.1866 44.3644C81.3914 42.7735 84.0549 41.945 86.7731 42.0044C89.4913 42.0638 92.116 43.008 94.2492 44.6937C96.295 46.3104 97.7817 48.5245 98.5054 51.0237Z" fill="#FA8339"/>
<path d="M157.918 58.6562H154.185C154.116 58.1733 153.977 57.7443 153.767 57.3693C153.557 56.9886 153.287 56.6648 152.957 56.3977C152.628 56.1307 152.247 55.9261 151.815 55.7841C151.389 55.642 150.926 55.571 150.426 55.571C149.523 55.571 148.736 55.7955 148.065 56.2443C147.395 56.6875 146.875 57.3352 146.506 58.1875C146.136 59.0341 145.952 60.0625 145.952 61.2727C145.952 62.517 146.136 63.5625 146.506 64.4091C146.881 65.2557 147.403 65.8949 148.074 66.3267C148.744 66.7585 149.52 66.9744 150.401 66.9744C150.895 66.9744 151.352 66.9091 151.773 66.7784C152.199 66.6477 152.577 66.4574 152.906 66.2074C153.236 65.9517 153.509 65.642 153.724 65.2784C153.946 64.9148 154.099 64.5 154.185 64.0341L157.918 64.0511C157.821 64.8523 157.58 65.625 157.193 66.3693C156.813 67.108 156.298 67.7699 155.651 68.3551C155.009 68.9347 154.241 69.3949 153.349 69.7358C152.463 70.071 151.46 70.2386 150.341 70.2386C148.784 70.2386 147.392 69.8864 146.165 69.1818C144.943 68.4773 143.977 67.4574 143.267 66.1222C142.562 64.7869 142.21 63.1705 142.21 61.2727C142.21 59.3693 142.568 57.75 143.284 56.4148C144 55.0795 144.972 54.0625 146.199 53.3636C147.426 52.6591 148.807 52.3068 150.341 52.3068C151.352 52.3068 152.29 52.4489 153.153 52.733C154.023 53.017 154.793 53.4318 155.463 53.9773C156.134 54.517 156.679 55.179 157.099 55.9631C157.526 56.7472 157.798 57.6449 157.918 58.6562ZM164.126 52.5455V70H160.496V52.5455H164.126ZM172.95 70.2557C171.626 70.2557 170.481 69.9744 169.515 69.4119C168.555 68.8437 167.813 68.054 167.29 67.0426C166.768 66.0256 166.506 64.8466 166.506 63.5057C166.506 62.1534 166.768 60.9716 167.29 59.9602C167.813 58.9432 168.555 58.1534 169.515 57.5909C170.481 57.0227 171.626 56.7386 172.95 56.7386C174.273 56.7386 175.415 57.0227 176.376 57.5909C177.342 58.1534 178.086 58.9432 178.609 59.9602C179.131 60.9716 179.393 62.1534 179.393 63.5057C179.393 64.8466 179.131 66.0256 178.609 67.0426C178.086 68.054 177.342 68.8437 176.376 69.4119C175.415 69.9744 174.273 70.2557 172.95 70.2557ZM172.967 67.4432C173.569 67.4432 174.072 67.2727 174.475 66.9318C174.879 66.5852 175.183 66.1136 175.387 65.517C175.597 64.9205 175.702 64.2415 175.702 63.4801C175.702 62.7188 175.597 62.0398 175.387 61.4432C175.183 60.8466 174.879 60.375 174.475 60.0284C174.072 59.6818 173.569 59.5085 172.967 59.5085C172.359 59.5085 171.847 59.6818 171.433 60.0284C171.023 60.375 170.714 60.8466 170.504 61.4432C170.299 62.0398 170.197 62.7188 170.197 63.4801C170.197 64.2415 170.299 64.9205 170.504 65.517C170.714 66.1136 171.023 66.5852 171.433 66.9318C171.847 67.2727 172.359 67.4432 172.967 67.4432ZM190.148 64.4261V56.9091H193.779V70H190.293V67.6222H190.157C189.862 68.3892 189.37 69.0057 188.683 69.4716C188.001 69.9375 187.168 70.1705 186.185 70.1705C185.31 70.1705 184.54 69.9716 183.876 69.5739C183.211 69.1761 182.691 68.6108 182.316 67.8778C181.947 67.1449 181.759 66.267 181.754 65.2443V56.9091H185.384V64.5966C185.39 65.3693 185.597 65.9801 186.006 66.429C186.415 66.8778 186.964 67.1023 187.651 67.1023C188.089 67.1023 188.498 67.0028 188.879 66.804C189.259 66.5994 189.566 66.2983 189.799 65.9006C190.038 65.5028 190.154 65.0114 190.148 64.4261ZM201.507 70.2131C200.513 70.2131 199.612 69.9574 198.805 69.446C198.004 68.929 197.368 68.1705 196.896 67.1705C196.43 66.1648 196.197 64.9318 196.197 63.4716C196.197 61.9716 196.439 60.7244 196.922 59.7301C197.405 58.7301 198.047 57.983 198.848 57.4886C199.655 56.9886 200.538 56.7386 201.499 56.7386C202.232 56.7386 202.842 56.8636 203.331 57.1136C203.825 57.358 204.223 57.6648 204.524 58.0341C204.831 58.3977 205.064 58.7557 205.223 59.108H205.334V52.5455H208.956V70H205.376V67.9034H205.223C205.053 68.267 204.811 68.6278 204.499 68.9858C204.192 69.3381 203.791 69.6307 203.297 69.8636C202.808 70.0966 202.212 70.2131 201.507 70.2131ZM202.658 67.3239C203.243 67.3239 203.737 67.1648 204.141 66.8466C204.55 66.5227 204.862 66.071 205.078 65.4915C205.3 64.9119 205.411 64.233 205.411 63.4545C205.411 62.6761 205.303 62 205.087 61.4261C204.871 60.8523 204.558 60.4091 204.149 60.0966C203.74 59.7841 203.243 59.6278 202.658 59.6278C202.061 59.6278 201.558 59.7898 201.149 60.1136C200.74 60.4375 200.43 60.8864 200.22 61.4602C200.01 62.0341 199.905 62.6989 199.905 63.4545C199.905 64.2159 200.01 64.8892 200.22 65.4744C200.436 66.054 200.746 66.5085 201.149 66.8381C201.558 67.1619 202.061 67.3239 202.658 67.3239Z" fill="#4BACDF"/>
<path d="M224.152 63.9318H227.288L228.865 65.9602L230.416 67.767L233.339 71.4318H229.896L227.885 68.9602L226.854 67.4943L224.152 63.9318ZM233.604 61.2727C233.604 63.1761 233.243 64.7955 232.521 66.1307C231.805 67.4659 230.828 68.4858 229.589 69.1903C228.357 69.8892 226.97 70.2386 225.43 70.2386C223.879 70.2386 222.487 69.8864 221.254 69.1818C220.021 68.4773 219.047 67.4574 218.331 66.1222C217.615 64.7869 217.257 63.1705 217.257 61.2727C217.257 59.3693 217.615 57.75 218.331 56.4148C219.047 55.0795 220.021 54.0625 221.254 53.3636C222.487 52.6591 223.879 52.3068 225.43 52.3068C226.97 52.3068 228.357 52.6591 229.589 53.3636C230.828 54.0625 231.805 55.0795 232.521 56.4148C233.243 57.75 233.604 59.3693 233.604 61.2727ZM229.862 61.2727C229.862 60.0398 229.678 59 229.308 58.1534C228.945 57.3068 228.43 56.6648 227.766 56.2273C227.101 55.7898 226.322 55.571 225.43 55.571C224.538 55.571 223.76 55.7898 223.095 56.2273C222.43 56.6648 221.913 57.3068 221.544 58.1534C221.18 59 220.999 60.0398 220.999 61.2727C220.999 62.5057 221.18 63.5455 221.544 64.392C221.913 65.2386 222.43 65.8807 223.095 66.3182C223.76 66.7557 224.538 66.9744 225.43 66.9744C226.322 66.9744 227.101 66.7557 227.766 66.3182C228.43 65.8807 228.945 65.2386 229.308 64.392C229.678 63.5455 229.862 62.5057 229.862 61.2727ZM239.9 52.5455V70H236.269V52.5455H239.9ZM248.723 70.2557C247.399 70.2557 246.254 69.9744 245.288 69.4119C244.328 68.8437 243.587 68.054 243.064 67.0426C242.541 66.0256 242.28 64.8466 242.28 63.5057C242.28 62.1534 242.541 60.9716 243.064 59.9602C243.587 58.9432 244.328 58.1534 245.288 57.5909C246.254 57.0227 247.399 56.7386 248.723 56.7386C250.047 56.7386 251.189 57.0227 252.149 57.5909C253.115 58.1534 253.859 58.9432 254.382 59.9602C254.905 60.9716 255.166 62.1534 255.166 63.5057C255.166 64.8466 254.905 66.0256 254.382 67.0426C253.859 68.054 253.115 68.8437 252.149 69.4119C251.189 69.9744 250.047 70.2557 248.723 70.2557ZM248.74 67.4432C249.342 67.4432 249.845 67.2727 250.249 66.9318C250.652 66.5852 250.956 66.1136 251.161 65.517C251.371 64.9205 251.476 64.2415 251.476 63.4801C251.476 62.7188 251.371 62.0398 251.161 61.4432C250.956 60.8466 250.652 60.375 250.249 60.0284C249.845 59.6818 249.342 59.5085 248.74 59.5085C248.132 59.5085 247.621 59.6818 247.206 60.0284C246.797 60.375 246.487 60.8466 246.277 61.4432C246.072 62.0398 245.97 62.7188 245.97 63.4801C245.97 64.2415 246.072 64.9205 246.277 65.517C246.487 66.1136 246.797 66.5852 247.206 66.9318C247.621 67.2727 248.132 67.4432 248.74 67.4432ZM257.595 70V52.5455H261.226V59.108H261.337C261.496 58.7557 261.726 58.3977 262.027 58.0341C262.334 57.6648 262.732 57.358 263.22 57.1136C263.714 56.8636 264.328 56.7386 265.061 56.7386C266.016 56.7386 266.896 56.9886 267.703 57.4886C268.51 57.983 269.155 58.7301 269.638 59.7301C270.121 60.7244 270.362 61.9716 270.362 63.4716C270.362 64.9318 270.126 66.1648 269.655 67.1705C269.189 68.1705 268.553 68.929 267.746 69.446C266.945 69.9574 266.047 70.2131 265.053 70.2131C264.348 70.2131 263.749 70.0966 263.254 69.8636C262.766 69.6307 262.365 69.3381 262.053 68.9858C261.74 68.6278 261.501 68.267 261.337 67.9034H261.175V70H257.595ZM261.149 63.4545C261.149 64.233 261.257 64.9119 261.473 65.4915C261.689 66.071 262.001 66.5227 262.411 66.8466C262.82 67.1648 263.317 67.3239 263.902 67.3239C264.493 67.3239 264.993 67.1619 265.402 66.8381C265.811 66.5085 266.121 66.054 266.331 65.4744C266.547 64.8892 266.655 64.2159 266.655 63.4545C266.655 62.6989 266.55 62.0341 266.339 61.4602C266.129 60.8864 265.82 60.4375 265.411 60.1136C265.001 59.7898 264.499 59.6278 263.902 59.6278C263.311 59.6278 262.811 59.7841 262.402 60.0966C261.999 60.4091 261.689 60.8523 261.473 61.4261C261.257 62 261.149 62.6761 261.149 63.4545ZM278.751 70.2557C277.404 70.2557 276.245 69.983 275.273 69.4375C274.308 68.8864 273.563 68.108 273.04 67.1023C272.518 66.0909 272.256 64.8949 272.256 63.5142C272.256 62.1676 272.518 60.9858 273.04 59.9688C273.563 58.9517 274.299 58.1591 275.248 57.5909C276.202 57.0227 277.322 56.7386 278.606 56.7386C279.469 56.7386 280.273 56.8778 281.018 57.1562C281.768 57.429 282.421 57.8409 282.978 58.392C283.54 58.9432 283.978 59.6364 284.29 60.4716C284.603 61.3011 284.759 62.2727 284.759 63.3864V64.3835H273.705V62.1335H281.342C281.342 61.6108 281.228 61.1477 281.001 60.7443C280.773 60.3409 280.458 60.0256 280.055 59.7983C279.657 59.5653 279.194 59.4489 278.665 59.4489C278.114 59.4489 277.626 59.5767 277.2 59.8324C276.779 60.0824 276.45 60.4205 276.211 60.8466C275.972 61.267 275.85 61.7358 275.844 62.2528V64.392C275.844 65.0398 275.964 65.5994 276.202 66.071C276.447 66.5426 276.79 66.9062 277.234 67.1619C277.677 67.4176 278.202 67.5455 278.81 67.5455C279.214 67.5455 279.583 67.4886 279.918 67.375C280.254 67.2614 280.54 67.0909 280.779 66.8636C281.018 66.6364 281.2 66.358 281.325 66.0284L284.683 66.25C284.512 67.0568 284.163 67.7614 283.634 68.3636C283.112 68.9602 282.435 69.4261 281.606 69.7614C280.782 70.0909 279.83 70.2557 278.751 70.2557Z" fill="#FA8339"/>
<path d="M285.914 82.321L284.918 82.6028C284.855 82.4368 284.763 82.2756 284.641 82.119C284.522 81.9593 284.359 81.8278 284.153 81.7245C283.946 81.6212 283.681 81.5695 283.359 81.5695C282.917 81.5695 282.549 81.6713 282.255 81.8748C281.964 82.0752 281.818 82.3304 281.818 82.6404C281.818 82.9159 281.918 83.1336 282.119 83.2932C282.319 83.4529 282.632 83.586 283.058 83.6925L284.129 83.9555C284.774 84.1121 285.255 84.3516 285.571 84.6741C285.887 84.9935 286.045 85.4053 286.045 85.9094C286.045 86.3227 285.926 86.6922 285.688 87.0179C285.454 87.3435 285.125 87.6003 284.702 87.7882C284.279 87.976 283.788 88.07 283.227 88.07C282.491 88.07 281.882 87.9103 281.4 87.5909C280.918 87.2715 280.613 86.8049 280.484 86.1912L281.536 85.9282C281.637 86.3165 281.826 86.6077 282.105 86.8018C282.386 86.996 282.754 87.093 283.208 87.093C283.725 87.093 284.135 86.9834 284.439 86.7642C284.746 86.5419 284.899 86.2758 284.899 85.9658C284.899 85.7153 284.812 85.5055 284.636 85.3364C284.461 85.1642 284.192 85.0358 283.828 84.9512L282.626 84.6694C281.965 84.5129 281.48 84.2702 281.17 83.9414C280.863 83.6095 280.71 83.1946 280.71 82.6967C280.71 82.2897 280.824 81.9296 281.053 81.6165C281.284 81.3033 281.599 81.0575 281.997 80.879C282.397 80.7006 282.851 80.6113 283.359 80.6113C284.073 80.6113 284.633 80.7679 285.04 81.081C285.45 81.3941 285.742 81.8075 285.914 82.321Z" fill="white"/>
<path d="M279.265 80.705V81.6444H275.527V80.705H279.265ZM276.616 78.9766H277.725V85.8528C277.725 86.1659 277.77 86.4008 277.861 86.5573C277.955 86.7108 278.074 86.8141 278.218 86.8673C278.365 86.9174 278.52 86.9425 278.683 86.9425C278.805 86.9425 278.905 86.9362 278.984 86.9237C279.062 86.908 279.125 86.8955 279.172 86.8861L279.397 87.8818C279.322 87.91 279.217 87.9382 279.082 87.9664C278.948 87.9977 278.777 88.0134 278.57 88.0134C278.257 88.0134 277.95 87.946 277.65 87.8114C277.352 87.6768 277.105 87.4717 276.908 87.1961C276.713 86.9206 276.616 86.573 276.616 86.1534V78.9766Z" fill="white"/>
<path d="M269.499 83.5798V87.9197H268.391V80.7053H269.462V81.8325H269.556C269.725 81.4662 269.982 81.1718 270.326 80.9495C270.671 80.7241 271.115 80.6113 271.66 80.6113C272.148 80.6113 272.576 80.7115 272.942 80.9119C273.309 81.1092 273.594 81.4098 273.797 81.8137C274.001 82.2145 274.102 82.7218 274.102 83.3355V87.9197H272.994V83.4107C272.994 82.8439 272.847 82.4024 272.552 82.0861C272.258 81.7668 271.854 81.6071 271.341 81.6071C270.987 81.6071 270.671 81.6838 270.392 81.8372C270.116 81.9906 269.899 82.2145 269.739 82.5089C269.579 82.8032 269.499 83.1602 269.499 83.5798Z" fill="white"/>
<path d="M263.718 88.07C263.022 88.07 262.423 87.9165 261.919 87.6097C261.418 87.2997 261.031 86.8676 260.759 86.3133C260.489 85.756 260.355 85.1078 260.355 84.3688C260.355 83.6299 260.489 82.9786 260.759 82.4149C261.031 81.8482 261.41 81.4067 261.895 81.0904C262.384 80.771 262.954 80.6113 263.605 80.6113C263.981 80.6113 264.352 80.674 264.718 80.7992C265.084 80.9245 265.418 81.128 265.718 81.4098C266.019 81.6885 266.259 82.058 266.437 82.5183C266.616 82.9786 266.705 83.5453 266.705 84.2185V84.6882H261.144V83.7301H265.578C265.578 83.323 265.496 82.9598 265.333 82.6404C265.174 82.321 264.945 82.0689 264.648 81.8842C264.353 81.6994 264.006 81.6071 263.605 81.6071C263.163 81.6071 262.781 81.7167 262.459 81.9358C262.139 82.1519 261.894 82.4337 261.721 82.7813C261.549 83.1289 261.463 83.5015 261.463 83.8991V84.5379C261.463 85.0828 261.557 85.5446 261.745 85.9235C261.936 86.2993 262.2 86.5858 262.539 86.783C262.877 86.9772 263.27 87.0742 263.718 87.0742C264.009 87.0742 264.272 87.0335 264.507 86.9521C264.745 86.8676 264.95 86.7423 265.122 86.5764C265.294 86.4073 265.427 86.1975 265.521 85.947L266.592 86.2476C266.479 86.6108 266.29 86.9302 266.024 87.2057C265.758 87.4782 265.429 87.6911 265.037 87.8445C264.646 87.9948 264.206 88.07 263.718 88.07Z" fill="white"/>
<path d="M254.064 83.5798V87.9197H252.956V80.7053H254.027V81.8325H254.121C254.29 81.4662 254.546 81.1718 254.891 80.9495C255.235 80.7241 255.68 80.6113 256.225 80.6113C256.713 80.6113 257.141 80.7115 257.507 80.9119C257.873 81.1092 258.158 81.4098 258.362 81.8137C258.565 82.2145 258.667 82.7218 258.667 83.3355V87.9197H257.559V83.4107C257.559 82.8439 257.412 82.4024 257.117 82.0861C256.823 81.7668 256.419 81.6071 255.905 81.6071C255.552 81.6071 255.235 81.6838 254.957 81.8372C254.681 81.9906 254.464 82.2145 254.304 82.5089C254.144 82.8032 254.064 83.1602 254.064 83.5798Z" fill="white"/>
<path d="M249.817 87.9198V80.7054H250.926V87.9198H249.817ZM250.381 79.503C250.165 79.503 249.979 79.4294 249.822 79.2822C249.669 79.1351 249.592 78.9582 249.592 78.7515C249.592 78.5448 249.669 78.3679 249.822 78.2208C249.979 78.0736 250.165 78 250.381 78C250.597 78 250.782 78.0736 250.935 78.2208C251.092 78.3679 251.17 78.5448 251.17 78.7515C251.17 78.9582 251.092 79.1351 250.935 79.2822C250.782 79.4294 250.597 79.503 250.381 79.503Z" fill="white"/>
<path d="M248.15 80.705V81.6444H244.411V80.705H248.15ZM245.501 78.9766H246.609V85.8528C246.609 86.1659 246.655 86.4008 246.745 86.5573C246.839 86.7108 246.958 86.8141 247.102 86.8673C247.249 86.9174 247.404 86.9425 247.567 86.9425C247.689 86.9425 247.79 86.9362 247.868 86.9237C247.946 86.908 248.009 86.8955 248.056 86.8861L248.281 87.8818C248.206 87.91 248.101 87.9382 247.967 87.9664C247.832 87.9977 247.661 88.0134 247.455 88.0134C247.141 88.0134 246.835 87.946 246.534 87.8114C246.237 87.6768 245.989 87.4717 245.792 87.1961C245.598 86.9206 245.501 86.573 245.501 86.1534V78.9766Z" fill="white"/>
<path d="M238.384 83.5798V87.9197H237.275V80.7053H238.346V81.8325H238.44C238.609 81.4662 238.866 81.1718 239.211 80.9495C239.555 80.7241 240 80.6113 240.544 80.6113C241.033 80.6113 241.46 80.7115 241.827 80.9119C242.193 81.1092 242.478 81.4098 242.681 81.8137C242.885 82.2145 242.987 82.7218 242.987 83.3355V87.9197H241.878V83.4107C241.878 82.8439 241.731 82.4024 241.437 82.0861C241.142 81.7668 240.739 81.6071 240.225 81.6071C239.871 81.6071 239.555 81.6838 239.276 81.8372C239.001 81.9906 238.783 82.2145 238.623 82.5089C238.464 82.8032 238.384 83.1602 238.384 83.5798Z" fill="white"/>
<path d="M232.314 88.07C231.663 88.07 231.092 87.915 230.6 87.605C230.111 87.295 229.729 86.8613 229.454 86.3039C229.181 85.7466 229.045 85.0953 229.045 84.35C229.045 83.5985 229.181 82.9425 229.454 82.3821C229.729 81.8216 230.111 81.3863 230.6 81.0763C231.092 80.7663 231.663 80.6113 232.314 80.6113C232.966 80.6113 233.536 80.7663 234.024 81.0763C234.516 81.3863 234.898 81.8216 235.17 82.3821C235.446 82.9425 235.583 83.5985 235.583 84.35C235.583 85.0953 235.446 85.7466 235.17 86.3039C234.898 86.8613 234.516 87.295 234.024 87.605C233.536 87.915 232.966 88.07 232.314 88.07ZM232.314 87.0742C232.809 87.0742 233.216 86.9474 233.536 86.6938C233.855 86.4402 234.091 86.1067 234.245 85.6934C234.398 85.28 234.475 84.8323 234.475 84.35C234.475 83.8678 234.398 83.4185 234.245 83.002C234.091 82.5856 233.855 82.249 233.536 81.9922C233.216 81.7354 232.809 81.6071 232.314 81.6071C231.82 81.6071 231.413 81.7354 231.093 81.9922C230.774 82.249 230.537 82.5856 230.384 83.002C230.23 83.4185 230.154 83.8678 230.154 84.35C230.154 84.8323 230.23 85.28 230.384 85.6934C230.537 86.1067 230.774 86.4402 231.093 86.6938C231.413 86.9474 231.82 87.0742 232.314 87.0742Z" fill="white"/>
<path d="M227.651 81.3065H226.487C226.418 80.9714 226.297 80.6771 226.125 80.4234C225.956 80.1698 225.749 79.9569 225.505 79.7847C225.264 79.6093 224.996 79.4778 224.702 79.3901C224.408 79.3025 224.101 79.2586 223.781 79.2586C223.199 79.2586 222.671 79.4058 222.198 79.7001C221.729 79.9945 221.355 80.4281 221.076 81.0012C220.8 81.5742 220.663 82.2772 220.663 83.1101C220.663 83.943 220.8 84.6459 221.076 85.219C221.355 85.792 221.729 86.2257 222.198 86.52C222.671 86.8143 223.199 86.9615 223.781 86.9615C224.101 86.9615 224.408 86.9177 224.702 86.83C224.996 86.7423 225.264 86.6124 225.505 86.4402C225.749 86.2648 225.956 86.0503 226.125 85.7967C226.297 85.5399 226.418 85.2456 226.487 84.9137H227.651C227.564 85.4053 227.404 85.8452 227.172 86.2335C226.941 86.6218 226.653 86.9521 226.308 87.2245C225.964 87.4938 225.577 87.6989 225.148 87.8398C224.722 87.9807 224.267 88.0512 223.781 88.0512C222.961 88.0512 222.231 87.8508 221.593 87.45C220.954 87.0492 220.451 86.4793 220.085 85.7403C219.718 85.0013 219.535 84.1246 219.535 83.1101C219.535 82.0955 219.718 81.2188 220.085 80.4798C220.451 79.7408 220.954 79.1709 221.593 78.7701C222.231 78.3693 222.961 78.1689 223.781 78.1689C224.267 78.1689 224.722 78.2394 225.148 78.3803C225.577 78.5212 225.964 78.7279 226.308 79.0003C226.653 79.2696 226.941 79.5984 227.172 79.9866C227.404 80.3718 227.564 80.8117 227.651 81.3065Z" fill="white"/>
<path d="M210.893 90.7754C210.357 90.7754 209.897 90.7065 209.512 90.5687C209.127 90.4341 208.806 90.2556 208.549 90.0333C208.296 89.8141 208.094 89.5792 207.943 89.3287L208.826 88.7088C208.927 88.8403 209.053 88.9906 209.207 89.1597C209.36 89.3319 209.57 89.4806 209.836 89.6059C210.105 89.7342 210.458 89.7984 210.893 89.7984C211.475 89.7984 211.956 89.6575 212.335 89.3757C212.714 89.0939 212.903 88.6524 212.903 88.0512V86.5858H212.809C212.728 86.7173 212.612 86.8801 212.462 87.0742C212.315 87.2652 212.102 87.4359 211.823 87.5862C211.547 87.7334 211.175 87.8069 210.705 87.8069C210.123 87.8069 209.6 87.6692 209.136 87.3936C208.676 87.1181 208.311 86.7173 208.042 86.1912C207.776 85.6652 207.643 85.0264 207.643 84.2749C207.643 83.5359 207.773 82.8924 208.033 82.3445C208.292 81.7934 208.654 81.3675 209.118 81.0669C209.581 80.7632 210.116 80.6113 210.724 80.6113C211.194 80.6113 211.566 80.6896 211.842 80.8462C212.12 80.9996 212.333 81.175 212.48 81.3722C212.631 81.5664 212.747 81.7261 212.828 81.8513H212.941V80.7053H214.012V88.1263C214.012 88.7463 213.871 89.2505 213.589 89.6387C213.31 90.0301 212.935 90.3166 212.462 90.4983C211.992 90.683 211.469 90.7754 210.893 90.7754ZM210.855 86.8112C211.3 86.8112 211.676 86.7094 211.983 86.5059C212.289 86.3024 212.523 86.0096 212.682 85.6276C212.842 85.2456 212.922 84.7884 212.922 84.2561C212.922 83.7363 212.844 83.2776 212.687 82.8799C212.531 82.4823 212.299 82.1707 211.992 81.9452C211.685 81.7198 211.306 81.6071 210.855 81.6071C210.386 81.6071 209.994 81.7261 209.681 81.964C209.371 82.202 209.138 82.5214 208.981 82.9222C208.828 83.323 208.751 83.7676 208.751 84.2561C208.751 84.7571 208.829 85.2002 208.986 85.5853C209.146 85.9673 209.381 86.2679 209.691 86.4871C210.004 86.7032 210.392 86.8112 210.855 86.8112Z" fill="white"/>
<path d="M201.352 83.5798V87.9197H200.244V80.7053H201.315V81.8325H201.409C201.578 81.4662 201.835 81.1718 202.179 80.9495C202.523 80.7241 202.968 80.6113 203.513 80.6113C204.001 80.6113 204.429 80.7115 204.795 80.9119C205.162 81.1092 205.446 81.4098 205.65 81.8137C205.854 82.2145 205.955 82.7218 205.955 83.3355V87.9197H204.847V83.4107C204.847 82.8439 204.7 82.4024 204.405 82.0861C204.111 81.7668 203.707 81.6071 203.194 81.6071C202.84 81.6071 202.523 81.6838 202.245 81.8372C201.969 81.9906 201.752 82.2145 201.592 82.5089C201.432 82.8032 201.352 83.1602 201.352 83.5798Z" fill="white"/>
<path d="M197.105 87.9198V80.7054H198.214V87.9198H197.105ZM197.669 79.503C197.453 79.503 197.267 79.4294 197.11 79.2822C196.957 79.1351 196.88 78.9582 196.88 78.7515C196.88 78.5448 196.957 78.3679 197.11 78.2208C197.267 78.0736 197.453 78 197.669 78C197.885 78 198.07 78.0736 198.223 78.2208C198.38 78.3679 198.458 78.5448 198.458 78.7515C198.458 78.9582 198.38 79.1351 198.223 79.2822C198.07 79.4294 197.885 79.503 197.669 79.503Z" fill="white"/>
<path d="M195.438 80.705V81.6444H191.699V80.705H195.438ZM192.789 78.9766H193.897V85.8528C193.897 86.1659 193.943 86.4008 194.033 86.5573C194.127 86.7108 194.246 86.8141 194.39 86.8673C194.538 86.9174 194.693 86.9425 194.855 86.9425C194.978 86.9425 195.078 86.9362 195.156 86.9237C195.234 86.908 195.297 86.8955 195.344 86.8861L195.569 87.8818C195.494 87.91 195.389 87.9382 195.255 87.9664C195.12 87.9977 194.949 88.0134 194.743 88.0134C194.43 88.0134 194.123 87.946 193.822 87.8114C193.525 87.6768 193.277 87.4717 193.08 87.1961C192.886 86.9206 192.789 86.573 192.789 86.1534V78.9766Z" fill="white"/>
<path d="M187.843 88.07C187.167 88.07 186.584 87.9103 186.096 87.5909C185.607 87.2715 185.232 86.8316 184.969 86.2711C184.705 85.7106 184.574 85.0702 184.574 84.35C184.574 83.6173 184.709 82.9707 184.978 82.4102C185.25 81.8466 185.629 81.4067 186.115 81.0904C186.603 80.771 187.173 80.6113 187.824 80.6113C188.331 80.6113 188.789 80.7053 189.196 80.8931C189.603 81.081 189.936 81.344 190.196 81.6822C190.456 82.0204 190.617 82.4149 190.68 82.8658H189.571C189.487 82.537 189.299 82.2458 189.008 81.9922C188.72 81.7354 188.331 81.6071 187.843 81.6071C187.411 81.6071 187.032 81.7198 186.706 81.9452C186.384 82.1676 186.132 82.4823 185.95 82.8893C185.772 83.2932 185.682 83.7676 185.682 84.3125C185.682 84.8698 185.77 85.3552 185.945 85.7685C186.124 86.1818 186.374 86.5028 186.697 86.7314C187.023 86.9599 187.405 87.0742 187.843 87.0742C188.131 87.0742 188.393 87.0241 188.627 86.9239C188.862 86.8237 189.061 86.6797 189.224 86.4918C189.387 86.3039 189.503 86.0785 189.571 85.8155H190.68C190.617 86.2413 190.462 86.6249 190.215 86.9662C189.971 87.3044 189.647 87.5737 189.243 87.7741C188.842 87.9713 188.375 88.07 187.843 88.07Z" fill="white"/>
<path d="M180.239 88.07C179.544 88.07 178.944 87.9165 178.44 87.6097C177.939 87.2997 177.552 86.8676 177.28 86.3133C177.011 85.756 176.876 85.1078 176.876 84.3688C176.876 83.6299 177.011 82.9786 177.28 82.4149C177.552 81.8482 177.931 81.4067 178.416 81.0904C178.905 80.771 179.475 80.6113 180.126 80.6113C180.502 80.6113 180.873 80.674 181.239 80.7992C181.606 80.9245 181.939 81.128 182.24 81.4098C182.54 81.6885 182.78 82.058 182.958 82.5183C183.137 82.9786 183.226 83.5453 183.226 84.2185V84.6882H177.665V83.7301H182.099C182.099 83.323 182.017 82.9598 181.855 82.6404C181.695 82.321 181.466 82.0689 181.169 81.8842C180.874 81.6994 180.527 81.6071 180.126 81.6071C179.685 81.6071 179.303 81.7167 178.98 81.9358C178.661 82.1519 178.415 82.4337 178.243 82.7813C178.07 83.1289 177.984 83.5015 177.984 83.8991V84.5379C177.984 85.0828 178.078 85.5446 178.266 85.9235C178.457 86.2993 178.722 86.5858 179.06 86.783C179.398 86.9772 179.791 87.0742 180.239 87.0742C180.53 87.0742 180.793 87.0335 181.028 86.9521C181.266 86.8676 181.471 86.7423 181.643 86.5764C181.815 86.4073 181.948 86.1975 182.042 85.947L183.113 86.2476C183.001 86.6108 182.811 86.9302 182.545 87.2057C182.279 87.4782 181.95 87.6911 181.559 87.8445C181.167 87.9948 180.727 88.07 180.239 88.07Z" fill="white"/>
<path d="M170.586 83.5798V87.9197H169.477V80.7053H170.548V81.8325H170.642C170.811 81.4662 171.068 81.1718 171.412 80.9495C171.757 80.7241 172.201 80.6113 172.746 80.6113C173.235 80.6113 173.662 80.7115 174.028 80.9119C174.395 81.1092 174.68 81.4098 174.883 81.8137C175.087 82.2145 175.188 82.7218 175.188 83.3355V87.9197H174.08V83.4107C174.08 82.8439 173.933 82.4024 173.638 82.0861C173.344 81.7668 172.94 81.6071 172.427 81.6071C172.073 81.6071 171.757 81.6838 171.478 81.8372C171.202 81.9906 170.985 82.2145 170.825 82.5089C170.665 82.8032 170.586 83.1602 170.586 83.5798Z" fill="white"/>
<path d="M162.849 83.5798V87.9197H161.74V80.7053H162.811V81.8325H162.905C163.074 81.4662 163.331 81.1718 163.675 80.9495C164.02 80.7241 164.464 80.6113 165.009 80.6113C165.498 80.6113 165.925 80.7115 166.291 80.9119C166.658 81.1092 166.943 81.4098 167.146 81.8137C167.35 82.2145 167.452 82.7218 167.452 83.3355V87.9197H166.343V83.4107C166.343 82.8439 166.196 82.4024 165.902 82.0861C165.607 81.7668 165.203 81.6071 164.69 81.6071C164.336 81.6071 164.02 81.6838 163.741 81.8372C163.465 81.9906 163.248 82.2145 163.088 82.5089C162.928 82.8032 162.849 83.1602 162.849 83.5798Z" fill="white"/>
<path d="M156.779 88.07C156.128 88.07 155.556 87.915 155.065 87.605C154.576 87.295 154.194 86.8613 153.919 86.3039C153.646 85.7466 153.51 85.0953 153.51 84.35C153.51 83.5985 153.646 82.9425 153.919 82.3821C154.194 81.8216 154.576 81.3863 155.065 81.0763C155.556 80.7663 156.128 80.6113 156.779 80.6113C157.43 80.6113 158 80.7663 158.489 81.0763C158.98 81.3863 159.362 81.8216 159.635 82.3821C159.91 82.9425 160.048 83.5985 160.048 84.35C160.048 85.0953 159.91 85.7466 159.635 86.3039C159.362 86.8613 158.98 87.295 158.489 87.605C158 87.915 157.43 88.07 156.779 88.07ZM156.779 87.0742C157.274 87.0742 157.681 86.9474 158 86.6938C158.32 86.4402 158.556 86.1067 158.709 85.6934C158.863 85.28 158.94 84.8323 158.94 84.35C158.94 83.8678 158.863 83.4185 158.709 83.002C158.556 82.5856 158.32 82.249 158 81.9922C157.681 81.7354 157.274 81.6071 156.779 81.6071C156.284 81.6071 155.877 81.7354 155.558 81.9922C155.238 82.249 155.002 82.5856 154.849 83.002C154.695 83.4185 154.618 83.8678 154.618 84.35C154.618 84.8323 154.695 85.28 154.849 85.6934C155.002 86.1067 155.238 86.4402 155.558 86.6938C155.877 86.9474 156.284 87.0742 156.779 87.0742Z" fill="white"/>
<path d="M152.116 81.3065H150.951C150.882 80.9714 150.762 80.6771 150.59 80.4234C150.421 80.1698 150.214 79.9569 149.97 79.7847C149.729 79.6093 149.461 79.4778 149.167 79.3901C148.872 79.3025 148.565 79.2586 148.246 79.2586C147.664 79.2586 147.136 79.4058 146.663 79.7001C146.193 79.9945 145.819 80.4281 145.541 81.0012C145.265 81.5742 145.127 82.2772 145.127 83.1101C145.127 83.943 145.265 84.6459 145.541 85.219C145.819 85.792 146.193 86.2257 146.663 86.52C147.136 86.8143 147.664 86.9615 148.246 86.9615C148.565 86.9615 148.872 86.9177 149.167 86.83C149.461 86.7423 149.729 86.6124 149.97 86.4402C150.214 86.2648 150.421 86.0503 150.59 85.7967C150.762 85.5399 150.882 85.2456 150.951 84.9137H152.116C152.029 85.4053 151.869 85.8452 151.637 86.2335C151.405 86.6218 151.117 86.9521 150.773 87.2245C150.428 87.4938 150.042 87.6989 149.613 87.8398C149.187 87.9807 148.731 88.0512 148.246 88.0512C147.426 88.0512 146.696 87.8508 146.057 87.45C145.418 87.0492 144.916 86.4793 144.55 85.7403C144.183 85.0013 144 84.1246 144 83.1101C144 82.0955 144.183 81.2188 144.55 80.4798C144.916 79.7408 145.418 79.1709 146.057 78.7701C146.696 78.3693 147.426 78.1689 148.246 78.1689C148.731 78.1689 149.187 78.2394 149.613 78.3803C150.042 78.5212 150.428 78.7279 150.773 79.0003C151.117 79.2696 151.405 79.5984 151.637 79.9866C151.869 80.3718 152.029 80.8117 152.116 81.3065Z" fill="white"/>
</svg>
